<svg width="616" height="116" viewBox="0 0 616 116" fill="none" xmlns="http://www.w3.org/2000/svg">
<path d="M40.8585 4.696C37.6585 5.71999 38.0425 0.855995 40.3465 0.983994C42.5225 1.11199 42.9065 3.92799 40.8585 4.696ZM12.5705 29.656C14.2345 22.232 16.9225 11.352 23.0665 6.488C24.9865 4.952 32.6665 1.24 34.8425 2.64799C35.9945 3.41599 35.7385 5.592 34.3305 5.84799C31.2585 6.23199 28.9545 6.23199 26.5225 8.28C24.0905 10.328 19.6105 20.056 18.3305 23.384C17.6905 24.92 16.1545 30.168 14.7465 30.68C13.8505 31.064 12.8265 30.552 12.5705 29.656ZM32.9225 87.256C32.5385 89.56 31.1305 102.36 30.2345 103.256C28.1865 105.176 7.7065 103.896 5.7865 101.336C0.9225 94.936 21.1465 15.192 32.4105 9.94399C36.2505 8.15199 41.2425 7.896 45.4665 8.02399C49.5625 8.15199 64.2825 8.92 66.9705 11.352C74.1385 17.752 91.8025 90.584 86.9385 99.8C83.7385 105.944 62.3625 106.84 61.2105 100.184C60.5705 95.96 60.4425 91.352 59.9305 87C50.9705 86.488 41.8825 86.616 32.9225 87.256ZM35.2265 69.08C43.0345 68.568 51.2265 68.312 59.0345 69.08C59.2905 64.6 54.8105 37.08 53.0185 34.392C50.9705 31.32 46.1065 33.88 43.2905 33.752C39.0665 45.144 37.7865 57.304 35.2265 69.08ZM156.727 59.992C166.839 63.448 172.855 75.608 168.887 85.592C160.951 105.56 127.159 104.408 109.495 104.152C107.062 104.152 104.503 104.28 102.327 103.256C100.535 102.36 99.2545 100.824 99.1265 98.776C98.6145 90.328 99.5105 81.496 99.3825 73.048C99.1265 62.296 98.6145 51.416 98.1025 40.664C97.7185 33.624 97.8465 26.328 96.8225 19.416C96.5665 17.368 95.6705 13.656 96.5665 11.736C96.9505 10.968 97.9745 10.712 98.7425 10.456C112.311 6.104 143.031 5.336 155.702 12.376C161.335 15.448 165.559 21.08 167.607 27.096C169.527 32.6 169.911 38.616 168.119 44.248C166.199 50.52 161.975 56.152 156.727 59.992ZM150.327 20.696C151.991 22.488 154.807 21.72 154.935 19.16C155.062 16.984 151.607 15.064 149.943 14.168C142.903 10.328 134.967 10.712 127.287 10.968C119.863 11.224 122.679 17.368 126.263 16.216C131.895 14.296 146.103 16.216 150.327 20.696ZM156.087 27.096C159.287 31.832 163.895 22.616 158.391 22.744C156.343 22.872 154.935 25.304 156.087 27.096ZM126.135 33.496C126.519 37.976 126.903 42.456 127.031 46.936C129.719 46.68 132.535 46.68 135.095 45.912C145.975 42.712 143.415 30.424 126.135 33.496ZM127.671 67.672C128.055 71.896 128.055 76.12 128.055 80.344C131.895 79.96 135.607 80.216 139.319 79.064C151.991 75.352 143.415 65.752 127.671 67.672ZM229.097 5.07999C227.561 7.63999 223.209 4.43999 226.409 1.88C228.713 0.0879974 230.249 3.032 229.097 5.07999ZM256.489 19.288C256.105 20.824 254.185 20.696 253.417 19.672C248.297 13.528 240.873 10.456 233.321 8.02399C231.529 7.51199 231.273 5.20799 233.065 4.43999C240.361 1.49599 257.385 15.448 256.489 19.288ZM229.481 102.36C220.905 103.768 207.465 104.152 199.913 99.16C187.241 90.84 182.505 71.128 180.201 57.176C178.793 48.472 177.001 39.384 178.665 30.552C181.225 17.368 190.312 10.968 203.113 9.56C213.097 8.408 224.745 9.432 234.217 13.016C260.841 23 260.585 48.088 253.289 71.512C250.857 79.32 248.041 87.256 243.305 94.04C239.465 99.416 235.881 101.336 229.481 102.36ZM218.601 73.176C221.033 73.176 223.465 72.92 225.257 71.256C229.481 67.288 231.785 53.592 231.401 47.832C230.889 40.152 223.593 36.44 216.553 36.056C212.585 35.8 208.489 36.312 206.697 40.408C204.137 46.296 206.185 67.416 211.561 71.256C213.609 72.664 216.169 73.176 218.601 73.176ZM333.115 95.064C330.043 100.824 323.899 104.536 317.371 104.536C304.955 104.536 275.643 100.696 269.499 88.408C267.323 83.928 267.323 78.808 267.451 73.944C267.579 67.544 272.059 16.6 274.363 14.552C276.667 12.376 285.371 12.76 288.571 12.888C289.979 12.888 296.635 13.144 297.531 13.528C298.683 13.912 299.194 14.808 299.451 15.96C299.579 16.344 294.715 41.56 294.203 44.76C293.051 52.952 289.339 72.792 302.267 72.92C305.595 72.92 309.051 69.976 310.203 67.032C314.171 56.536 304.699 17.752 308.539 13.016C310.587 10.456 328.763 10.712 331.707 11.864C332.731 12.248 333.499 12.632 333.627 13.784C333.882 15.448 334.011 17.24 334.267 18.904C336.059 31.576 338.875 60.76 337.979 72.792C337.467 80.216 336.699 88.408 333.115 95.064ZM267.707 97.88C269.755 97.496 270.651 99.928 269.243 101.208C266.171 104.152 264.251 96.6 267.707 97.88ZM303.163 112.728C297.531 115.288 278.587 110.168 273.851 106.2C272.571 105.176 273.979 102.36 276.155 103.256C280.251 104.92 284.091 106.2 288.315 107.096C292.283 107.992 300.603 107.864 303.419 109.272C304.955 110.04 304.571 112.088 303.163 112.728ZM372.116 104.408C368.788 106.072 368.916 96.6 368.788 94.808C367.892 79.448 366.356 49.752 368.404 35.16C362.26 35.8 354.964 37.72 348.948 37.592C347.284 37.592 346.516 36.312 346.004 34.904C345.236 32.472 345.62 10.968 346.388 8.66399C346.772 7.63999 347.284 6.616 348.18 6.104C349.588 5.20799 353.3 5.71999 354.964 5.976C375.444 8.536 396.18 6.616 416.788 8.536C419.348 8.79199 419.732 9.17599 421.012 11.224C421.012 16.088 421.14 31.192 417.812 34.264C416.02 35.928 413.204 35.928 410.9 35.928C406.804 35.928 402.836 35.544 398.74 36.056C398.868 57.176 400.276 78.04 401.172 99.16C401.172 99.928 401.172 101.848 400.532 102.36C399.892 102.872 397.716 103 396.82 103C392.084 103 374.036 104.664 372.116 104.408ZM380.692 17.368C381.588 17.624 406.42 16.088 406.932 15.832C408.596 14.808 408.212 11.736 406.42 11.096C405.78 10.84 381.076 12.248 380.052 12.888C378.388 14.04 378.644 16.728 380.692 17.368ZM412.564 16.088C413.972 17.24 416.02 16.344 416.532 14.68C418.451 8.66399 407.7 12.248 412.564 16.088ZM526.999 95.064C523.927 100.824 517.783 104.536 511.255 104.536C498.839 104.536 469.527 100.696 463.383 88.408C461.207 83.928 461.207 78.808 461.335 73.944C461.463 67.544 465.943 16.6 468.247 14.552C470.551 12.376 479.255 12.76 482.455 12.888C483.863 12.888 490.519 13.144 491.415 13.528C492.567 13.912 493.079 14.808 493.335 15.96C493.463 16.344 488.599 41.56 488.087 44.76C486.935 52.952 483.223 72.792 496.151 72.92C499.479 72.92 502.935 69.976 504.087 67.032C508.055 56.536 498.583 17.752 502.423 13.016C504.471 10.456 522.646 10.712 525.59 11.864C526.615 12.248 527.382 12.632 527.511 13.784C527.767 15.448 527.895 17.24 528.151 18.904C529.943 31.576 532.759 60.76 531.863 72.792C531.351 80.216 530.583 88.408 526.999 95.064ZM461.591 97.88C463.639 97.496 464.535 99.928 463.127 101.208C460.055 104.152 458.135 96.6 461.591 97.88ZM497.047 112.728C491.415 115.288 472.471 110.168 467.735 106.2C466.455 105.176 467.863 102.36 470.039 103.256C474.135 104.92 477.975 106.2 482.199 107.096C486.167 107.992 494.487 107.864 497.303 109.272C498.839 110.04 498.455 112.088 497.047 112.728ZM589.909 101.848C571.221 107.224 547.285 103 546.005 79.448C545.877 78.04 545.877 76.632 547.029 75.608C549.205 73.688 567.765 70.488 569.045 73.048C570.708 76.248 568.021 83.032 574.933 83.032C580.437 83.032 582.101 76.504 580.181 72.28C573.653 57.432 537.684 63.704 541.013 36.184C542.421 24.664 552.021 15.704 562.261 11.48C574.677 6.488 590.933 6.35999 602.452 13.528C610.261 18.392 614.869 25.944 615.509 35.032C615.637 37.592 615.893 41.944 612.821 42.968C610.901 43.608 593.365 45.272 591.317 45.016C589.781 44.888 588.501 44.76 588.245 42.968C587.349 37.464 587.477 30.424 580.821 28.12C574.677 26.072 563.285 31.448 566.229 39.128C568.917 46.424 602.837 49.496 609.109 70.36C613.205 84.056 602.965 98.008 589.909 101.848ZM585.045 95.832C583.253 98.008 585.941 100.568 588.373 99.8C597.333 96.856 605.141 89.176 605.909 79.576C606.549 72.536 600.789 74.2 600.789 77.144C600.789 80.216 600.405 82.008 599.253 84.824C596.181 92.248 586.069 94.552 585.045 95.832ZM577.237 100.696C578.773 102.104 581.205 101.208 581.589 99.288C582.613 93.912 573.269 96.984 577.237 100.696Z" fill="url(#paint0_radial_1245_3815)"/>
<defs>
<radialGradient id="paint0_radial_1245_3815" cx="0" cy="0" r="1" gradientUnits="userSpaceOnUse" gradientTransform="translate(1182.34 60) rotate(-178.135) scale(1874.31 197.973)">
<stop offset="0.120225" stop-color="#D7B575"/>
<stop offset="0.370102" stop-color="#B32169"/>
<stop offset="0.660328" stop-color="#741F5E"/>
<stop offset="1" stop-color="#BC0079" stop-opacity="0"/>
</radialGradient>
</defs>
</svg>
