<svg width="1030" height="100" viewBox="0 0 1030 100" fill="none" xmlns="http://www.w3.org/2000/svg">
<rect x="5" y="5" width="1020" height="90" rx="33" fill="white" stroke="url(#paint0_linear_3463_36)" stroke-width="10"/>
<path d="M135.996 40.344V60H131.208V48.212L126.812 60H122.948L118.524 48.184V60H113.736V40.344H119.392L124.908 53.952L130.368 40.344H135.996ZM141.679 60.224C140.839 60.224 140.148 59.9813 139.607 59.496C139.084 58.992 138.823 58.376 138.823 57.648C138.823 56.9013 139.084 56.276 139.607 55.772C140.148 55.268 140.839 55.016 141.679 55.016C142.5 55.016 143.172 55.268 143.695 55.772C144.236 56.276 144.507 56.9013 144.507 57.648C144.507 58.376 144.236 58.992 143.695 59.496C143.172 59.9813 142.5 60.224 141.679 60.224ZM165.511 56.528H158.175L156.999 60H151.987L159.099 40.344H164.643L171.755 60H166.687L165.511 56.528ZM164.279 52.832L161.843 45.636L159.435 52.832H164.279ZM181.76 48.352H179.184V60H174.396V48.352H172.66V44.376H174.396V43.928C174.396 42.0053 174.946 40.5493 176.048 39.56C177.149 38.552 178.764 38.048 180.892 38.048C181.246 38.048 181.508 38.0573 181.676 38.076V42.136C180.761 42.08 180.117 42.2107 179.744 42.528C179.37 42.8453 179.184 43.4147 179.184 44.236V44.376H181.76V48.352ZM186.417 42.752C185.577 42.752 184.887 42.5093 184.345 42.024C183.823 41.52 183.561 40.904 183.561 40.176C183.561 39.4293 183.823 38.8133 184.345 38.328C184.887 37.824 185.577 37.572 186.417 37.572C187.239 37.572 187.911 37.824 188.433 38.328C188.975 38.8133 189.245 39.4293 189.245 40.176C189.245 40.904 188.975 41.52 188.433 42.024C187.911 42.5093 187.239 42.752 186.417 42.752ZM188.797 44.376V60H184.009V44.376H188.797ZM200.107 48.352H197.531V60H192.743V48.352H191.007V44.376H192.743V43.928C192.743 42.0053 193.294 40.5493 194.395 39.56C195.497 38.552 197.111 38.048 199.239 38.048C199.594 38.048 199.855 38.0573 200.023 38.076V42.136C199.109 42.08 198.465 42.2107 198.091 42.528C197.718 42.8453 197.531 43.4147 197.531 44.236V44.376H200.107V48.352ZM215.403 60.196C213.965 60.196 212.677 59.9627 211.539 59.496C210.4 59.0293 209.485 58.3387 208.795 57.424C208.123 56.5093 207.768 55.408 207.731 54.12H212.827C212.901 54.848 213.153 55.408 213.583 55.8C214.012 56.1733 214.572 56.36 215.263 56.36C215.972 56.36 216.532 56.2013 216.943 55.884C217.353 55.548 217.559 55.0907 217.559 54.512C217.559 54.0267 217.391 53.6253 217.055 53.308C216.737 52.9907 216.336 52.7293 215.851 52.524C215.384 52.3187 214.712 52.0853 213.835 51.824C212.565 51.432 211.529 51.04 210.727 50.648C209.924 50.256 209.233 49.6773 208.655 48.912C208.076 48.1467 207.787 47.148 207.787 45.916C207.787 44.0867 208.449 42.6587 209.775 41.632C211.1 40.5867 212.827 40.064 214.955 40.064C217.12 40.064 218.865 40.5867 220.191 41.632C221.516 42.6587 222.225 44.096 222.319 45.944H217.139C217.101 45.3093 216.868 44.8147 216.439 44.46C216.009 44.0867 215.459 43.9 214.787 43.9C214.208 43.9 213.741 44.0587 213.387 44.376C213.032 44.6747 212.855 45.1133 212.855 45.692C212.855 46.3267 213.153 46.8213 213.751 47.176C214.348 47.5307 215.281 47.9133 216.551 48.324C217.82 48.7533 218.847 49.164 219.631 49.556C220.433 49.948 221.124 50.5173 221.703 51.264C222.281 52.0107 222.571 52.972 222.571 54.148C222.571 55.268 222.281 56.2853 221.703 57.2C221.143 58.1147 220.321 58.8427 219.239 59.384C218.156 59.9253 216.877 60.196 215.403 60.196ZM224.565 52.16C224.565 50.5547 224.864 49.1453 225.461 47.932C226.077 46.7187 226.908 45.7853 227.953 45.132C228.999 44.4787 230.165 44.152 231.453 44.152C232.555 44.152 233.516 44.376 234.337 44.824C235.177 45.272 235.821 45.86 236.269 46.588V44.376H241.057V60H236.269V57.788C235.803 58.516 235.149 59.104 234.309 59.552C233.488 60 232.527 60.224 231.425 60.224C230.156 60.224 228.999 59.8973 227.953 59.244C226.908 58.572 226.077 57.6293 225.461 56.416C224.864 55.184 224.565 53.7653 224.565 52.16ZM236.269 52.188C236.269 50.9933 235.933 50.0507 235.261 49.36C234.608 48.6693 233.805 48.324 232.853 48.324C231.901 48.324 231.089 48.6693 230.417 49.36C229.764 50.032 229.437 50.9653 229.437 52.16C229.437 53.3547 229.764 54.3067 230.417 55.016C231.089 55.7067 231.901 56.052 232.853 56.052C233.805 56.052 234.608 55.7067 235.261 55.016C235.933 54.3253 236.269 53.3827 236.269 52.188ZM253.229 55.94V60H250.793C249.057 60 247.704 59.58 246.733 58.74C245.762 57.8813 245.277 56.4907 245.277 54.568V48.352H243.373V44.376H245.277V40.568H250.065V44.376H253.201V48.352H250.065V54.624C250.065 55.0907 250.177 55.4267 250.401 55.632C250.625 55.8373 250.998 55.94 251.521 55.94H253.229ZM260.684 46.98C261.244 46.1213 261.944 45.4493 262.784 44.964C263.624 44.46 264.557 44.208 265.584 44.208V49.276H264.268C263.073 49.276 262.177 49.5373 261.58 50.06C260.983 50.564 260.684 51.46 260.684 52.748V60H255.896V44.376H260.684V46.98ZM270.281 42.752C269.441 42.752 268.75 42.5093 268.209 42.024C267.686 41.52 267.425 40.904 267.425 40.176C267.425 39.4293 267.686 38.8133 268.209 38.328C268.75 37.824 269.441 37.572 270.281 37.572C271.102 37.572 271.774 37.824 272.297 38.328C272.838 38.8133 273.109 39.4293 273.109 40.176C273.109 40.904 272.838 41.52 272.297 42.024C271.774 42.5093 271.102 42.752 270.281 42.752ZM272.661 44.376V60H267.873V44.376H272.661ZM283.243 60.224C281.712 60.224 280.331 59.8973 279.099 59.244C277.885 58.5907 276.924 57.6573 276.215 56.444C275.524 55.2307 275.179 53.812 275.179 52.188C275.179 50.5827 275.533 49.1733 276.243 47.96C276.952 46.728 277.923 45.7853 279.155 45.132C280.387 44.4787 281.768 44.152 283.299 44.152C284.829 44.152 286.211 44.4787 287.443 45.132C288.675 45.7853 289.645 46.728 290.355 47.96C291.064 49.1733 291.419 50.5827 291.419 52.188C291.419 53.7933 291.055 55.212 290.327 56.444C289.617 57.6573 288.637 58.5907 287.387 59.244C286.155 59.8973 284.773 60.224 283.243 60.224ZM283.243 56.08C284.157 56.08 284.932 55.744 285.567 55.072C286.22 54.4 286.547 53.4387 286.547 52.188C286.547 50.9373 286.229 49.976 285.595 49.304C284.979 48.632 284.213 48.296 283.299 48.296C282.365 48.296 281.591 48.632 280.975 49.304C280.359 49.9573 280.051 50.9187 280.051 52.188C280.051 53.4387 280.349 54.4 280.947 55.072C281.563 55.744 282.328 56.08 283.243 56.08ZM326.94 40.344L321.816 60H316.02L312.884 47.064L309.636 60H303.84L298.856 40.344H303.98L306.808 54.652L310.308 40.344H315.572L318.932 54.652L321.788 40.344H326.94Z" fill="#21126A"/>
<path d="M379.532 40.344V44.18H371.524V48.324H377.516V52.048H371.524V60H366.736V40.344H379.532ZM381.097 52.16C381.097 50.5547 381.395 49.1453 381.993 47.932C382.609 46.7187 383.439 45.7853 384.485 45.132C385.53 44.4787 386.697 44.152 387.985 44.152C389.086 44.152 390.047 44.376 390.869 44.824C391.709 45.272 392.353 45.86 392.801 46.588V44.376H397.589V60H392.801V57.788C392.334 58.516 391.681 59.104 390.841 59.552C390.019 60 389.058 60.224 387.957 60.224C386.687 60.224 385.53 59.8973 384.485 59.244C383.439 58.572 382.609 57.6293 381.993 56.416C381.395 55.184 381.097 53.7653 381.097 52.16ZM392.801 52.188C392.801 50.9933 392.465 50.0507 391.793 49.36C391.139 48.6693 390.337 48.324 389.385 48.324C388.433 48.324 387.621 48.6693 386.949 49.36C386.295 50.032 385.969 50.9653 385.969 52.16C385.969 53.3547 386.295 54.3067 386.949 55.016C387.621 55.7067 388.433 56.052 389.385 56.052C390.337 56.052 391.139 55.7067 391.793 55.016C392.465 54.3253 392.801 53.3827 392.801 52.188ZM410.6 60L405.84 53.448V60H401.052V39.28H405.84V50.732L410.572 44.376H416.48L409.984 52.216L416.536 60H410.6ZM433.789 44.376V60H429.001V57.872C428.516 58.5627 427.853 59.1227 427.013 59.552C426.192 59.9627 425.277 60.168 424.269 60.168C423.074 60.168 422.02 59.9067 421.105 59.384C420.19 58.8427 419.481 58.068 418.977 57.06C418.473 56.052 418.221 54.8667 418.221 53.504V44.376H422.981V52.86C422.981 53.9053 423.252 54.7173 423.793 55.296C424.334 55.8747 425.062 56.164 425.977 56.164C426.91 56.164 427.648 55.8747 428.189 55.296C428.73 54.7173 429.001 53.9053 429.001 52.86V44.376H433.789ZM442.016 39.28V60H437.228V39.28H442.016ZM454.194 55.94V60H451.758C450.022 60 448.669 59.58 447.698 58.74C446.727 57.8813 446.242 56.4907 446.242 54.568V48.352H444.338V44.376H446.242V40.568H451.03V44.376H454.166V48.352H451.03V54.624C451.03 55.0907 451.142 55.4267 451.366 55.632C451.59 55.8373 451.963 55.94 452.486 55.94H454.194ZM455.909 52.16C455.909 50.5547 456.208 49.1453 456.805 47.932C457.421 46.7187 458.252 45.7853 459.297 45.132C460.342 44.4787 461.509 44.152 462.797 44.152C463.898 44.152 464.86 44.376 465.681 44.824C466.521 45.272 467.165 45.86 467.613 46.588V44.376H472.401V60H467.613V57.788C467.146 58.516 466.493 59.104 465.653 59.552C464.832 60 463.87 60.224 462.769 60.224C461.5 60.224 460.342 59.8973 459.297 59.244C458.252 58.572 457.421 57.6293 456.805 56.416C456.208 55.184 455.909 53.7653 455.909 52.16ZM467.613 52.188C467.613 50.9933 467.277 50.0507 466.605 49.36C465.952 48.6693 465.149 48.324 464.197 48.324C463.245 48.324 462.433 48.6693 461.761 49.36C461.108 50.032 460.781 50.9653 460.781 52.16C460.781 53.3547 461.108 54.3067 461.761 55.016C462.433 55.7067 463.245 56.052 464.197 56.052C465.149 56.052 465.952 55.7067 466.605 55.016C467.277 54.3253 467.613 53.3827 467.613 52.188ZM482.221 60.224C480.858 60.224 479.645 59.9907 478.581 59.524C477.517 59.0573 476.677 58.4227 476.061 57.62C475.445 56.7987 475.1 55.884 475.025 54.876H479.757C479.813 55.4173 480.065 55.856 480.513 56.192C480.961 56.528 481.512 56.696 482.165 56.696C482.762 56.696 483.22 56.584 483.537 56.36C483.873 56.1173 484.041 55.8093 484.041 55.436C484.041 54.988 483.808 54.6613 483.341 54.456C482.874 54.232 482.118 53.9893 481.073 53.728C479.953 53.4667 479.02 53.196 478.273 52.916C477.526 52.6173 476.882 52.16 476.341 51.544C475.8 50.9093 475.529 50.06 475.529 48.996C475.529 48.1 475.772 47.288 476.257 46.56C476.761 45.8133 477.489 45.2253 478.441 44.796C479.412 44.3667 480.56 44.152 481.885 44.152C483.845 44.152 485.385 44.6373 486.505 45.608C487.644 46.5787 488.297 47.8667 488.465 49.472H484.041C483.966 48.9307 483.724 48.5013 483.313 48.184C482.921 47.8667 482.398 47.708 481.745 47.708C481.185 47.708 480.756 47.82 480.457 48.044C480.158 48.2493 480.009 48.5387 480.009 48.912C480.009 49.36 480.242 49.696 480.709 49.92C481.194 50.144 481.941 50.368 482.949 50.592C484.106 50.8907 485.049 51.1893 485.777 51.488C486.505 51.768 487.14 52.2347 487.681 52.888C488.241 53.5227 488.53 54.3813 488.549 55.464C488.549 56.3787 488.288 57.2 487.765 57.928C487.261 58.6373 486.524 59.1973 485.553 59.608C484.601 60.0187 483.49 60.224 482.221 60.224ZM515.864 40.344L508.892 60H502.9L495.928 40.344H501.024L505.896 55.184L510.796 40.344H515.864ZM524.977 60.224C523.446 60.224 522.065 59.8973 520.833 59.244C519.62 58.5907 518.658 57.6573 517.949 56.444C517.258 55.2307 516.913 53.812 516.913 52.188C516.913 50.5827 517.268 49.1733 517.977 47.96C518.686 46.728 519.657 45.7853 520.889 45.132C522.121 44.4787 523.502 44.152 525.033 44.152C526.564 44.152 527.945 44.4787 529.177 45.132C530.409 45.7853 531.38 46.728 532.089 47.96C532.798 49.1733 533.153 50.5827 533.153 52.188C533.153 53.7933 532.789 55.212 532.061 56.444C531.352 57.6573 530.372 58.5907 529.121 59.244C527.889 59.8973 526.508 60.224 524.977 60.224ZM524.977 56.08C525.892 56.08 526.666 55.744 527.301 55.072C527.954 54.4 528.281 53.4387 528.281 52.188C528.281 50.9373 527.964 49.976 527.329 49.304C526.713 48.632 525.948 48.296 525.033 48.296C524.1 48.296 523.325 48.632 522.709 49.304C522.093 49.9573 521.785 50.9187 521.785 52.188C521.785 53.4387 522.084 54.4 522.681 55.072C523.297 55.744 524.062 56.08 524.977 56.08ZM545.241 60L540.481 53.448V60H535.693V39.28H540.481V50.732L545.213 44.376H551.121L544.625 52.216L551.177 60H545.241ZM552.05 52.16C552.05 50.5547 552.348 49.1453 552.946 47.932C553.562 46.7187 554.392 45.7853 555.438 45.132C556.483 44.4787 557.65 44.152 558.938 44.152C560.039 44.152 561 44.376 561.822 44.824C562.662 45.272 563.306 45.86 563.754 46.588V44.376H568.542V60H563.754V57.788C563.287 58.516 562.634 59.104 561.794 59.552C560.972 60 560.011 60.224 558.91 60.224C557.64 60.224 556.483 59.8973 555.438 59.244C554.392 58.572 553.562 57.6293 552.946 56.416C552.348 55.184 552.05 53.7653 552.05 52.16ZM563.754 52.188C563.754 50.9933 563.418 50.0507 562.746 49.36C562.092 48.6693 561.29 48.324 560.338 48.324C559.386 48.324 558.574 48.6693 557.902 49.36C557.248 50.032 556.922 50.9653 556.922 52.16C556.922 53.3547 557.248 54.3067 557.902 55.016C558.574 55.7067 559.386 56.052 560.338 56.052C561.29 56.052 562.092 55.7067 562.746 55.016C563.418 54.3253 563.754 53.3827 563.754 52.188ZM578.362 60.224C576.999 60.224 575.786 59.9907 574.722 59.524C573.658 59.0573 572.818 58.4227 572.202 57.62C571.586 56.7987 571.24 55.884 571.166 54.876H575.898C575.954 55.4173 576.206 55.856 576.654 56.192C577.102 56.528 577.652 56.696 578.306 56.696C578.903 56.696 579.36 56.584 579.678 56.36C580.014 56.1173 580.182 55.8093 580.182 55.436C580.182 54.988 579.948 54.6613 579.482 54.456C579.015 54.232 578.259 53.9893 577.214 53.728C576.094 53.4667 575.16 53.196 574.414 52.916C573.667 52.6173 573.023 52.16 572.482 51.544C571.94 50.9093 571.67 50.06 571.67 48.996C571.67 48.1 571.912 47.288 572.398 46.56C572.902 45.8133 573.63 45.2253 574.582 44.796C575.552 44.3667 576.7 44.152 578.026 44.152C579.986 44.152 581.526 44.6373 582.646 45.608C583.784 46.5787 584.438 47.8667 584.606 49.472H580.182C580.107 48.9307 579.864 48.5013 579.454 48.184C579.062 47.8667 578.539 47.708 577.886 47.708C577.326 47.708 576.896 47.82 576.598 48.044C576.299 48.2493 576.15 48.5387 576.15 48.912C576.15 49.36 576.383 49.696 576.85 49.92C577.335 50.144 578.082 50.368 579.09 50.592C580.247 50.8907 581.19 51.1893 581.918 51.488C582.646 51.768 583.28 52.2347 583.822 52.888C584.382 53.5227 584.671 54.3813 584.69 55.464C584.69 56.3787 584.428 57.2 583.906 57.928C583.402 58.6373 582.664 59.1973 581.694 59.608C580.742 60.0187 579.631 60.224 578.362 60.224ZM590.027 42.752C589.187 42.752 588.496 42.5093 587.955 42.024C587.432 41.52 587.171 40.904 587.171 40.176C587.171 39.4293 587.432 38.8133 587.955 38.328C588.496 37.824 589.187 37.572 590.027 37.572C590.848 37.572 591.52 37.824 592.043 38.328C592.584 38.8133 592.855 39.4293 592.855 40.176C592.855 40.904 592.584 41.52 592.043 42.024C591.52 42.5093 590.848 42.752 590.027 42.752ZM592.407 44.376V60H587.619V44.376H592.407Z" fill="#21126A"/>
<path d="M647.876 40.344V44.18H642.668V60H637.88V44.18H632.672V40.344H647.876ZM665.007 51.936C665.007 52.384 664.979 52.8507 664.923 53.336H654.087C654.162 54.3067 654.47 55.0533 655.011 55.576C655.571 56.08 656.252 56.332 657.055 56.332C658.25 56.332 659.08 55.828 659.547 54.82H664.643C664.382 55.8467 663.906 56.7707 663.215 57.592C662.543 58.4133 661.694 59.0573 660.667 59.524C659.64 59.9907 658.492 60.224 657.223 60.224C655.692 60.224 654.33 59.8973 653.135 59.244C651.94 58.5907 651.007 57.6573 650.335 56.444C649.663 55.2307 649.327 53.812 649.327 52.188C649.327 50.564 649.654 49.1453 650.307 47.932C650.979 46.7187 651.912 45.7853 653.107 45.132C654.302 44.4787 655.674 44.152 657.223 44.152C658.735 44.152 660.079 44.4693 661.255 45.104C662.431 45.7387 663.346 46.644 663.999 47.82C664.671 48.996 665.007 50.368 665.007 51.936ZM660.107 50.676C660.107 49.8547 659.827 49.2013 659.267 48.716C658.707 48.2307 658.007 47.988 657.167 47.988C656.364 47.988 655.683 48.2213 655.123 48.688C654.582 49.1547 654.246 49.8173 654.115 50.676H660.107ZM677.081 60L672.321 53.448V60H667.533V39.28H672.321V50.732L677.053 44.376H682.961L676.465 52.216L683.017 60H677.081ZM694.361 44.208C696.191 44.208 697.647 44.8053 698.729 46C699.831 47.176 700.381 48.8 700.381 50.872V60H695.621V51.516C695.621 50.4707 695.351 49.6587 694.809 49.08C694.268 48.5013 693.54 48.212 692.625 48.212C691.711 48.212 690.983 48.5013 690.441 49.08C689.9 49.6587 689.629 50.4707 689.629 51.516V60H684.841V44.376H689.629V46.448C690.115 45.7573 690.768 45.216 691.589 44.824C692.411 44.4133 693.335 44.208 694.361 44.208ZM710.821 60.224C709.29 60.224 707.909 59.8973 706.677 59.244C705.463 58.5907 704.502 57.6573 703.793 56.444C703.102 55.2307 702.757 53.812 702.757 52.188C702.757 50.5827 703.111 49.1733 703.821 47.96C704.53 46.728 705.501 45.7853 706.733 45.132C707.965 44.4787 709.346 44.152 710.877 44.152C712.407 44.152 713.789 44.4787 715.021 45.132C716.253 45.7853 717.223 46.728 717.933 47.96C718.642 49.1733 718.997 50.5827 718.997 52.188C718.997 53.7933 718.633 55.212 717.905 56.444C717.195 57.6573 716.215 58.5907 714.965 59.244C713.733 59.8973 712.351 60.224 710.821 60.224ZM710.821 56.08C711.735 56.08 712.51 55.744 713.145 55.072C713.798 54.4 714.125 53.4387 714.125 52.188C714.125 50.9373 713.807 49.976 713.173 49.304C712.557 48.632 711.791 48.296 710.877 48.296C709.943 48.296 709.169 48.632 708.553 49.304C707.937 49.9573 707.629 50.9187 707.629 52.188C707.629 53.4387 707.927 54.4 708.525 55.072C709.141 55.744 709.906 56.08 710.821 56.08ZM726.325 39.28V60H721.537V39.28H726.325ZM736.907 60.224C735.376 60.224 733.995 59.8973 732.763 59.244C731.549 58.5907 730.588 57.6573 729.879 56.444C729.188 55.2307 728.843 53.812 728.843 52.188C728.843 50.5827 729.197 49.1733 729.907 47.96C730.616 46.728 731.587 45.7853 732.819 45.132C734.051 44.4787 735.432 44.152 736.963 44.152C738.493 44.152 739.875 44.4787 741.107 45.132C742.339 45.7853 743.309 46.728 744.019 47.96C744.728 49.1733 745.083 50.5827 745.083 52.188C745.083 53.7933 744.719 55.212 743.991 56.444C743.281 57.6573 742.301 58.5907 741.051 59.244C739.819 59.8973 738.437 60.224 736.907 60.224ZM736.907 56.08C737.821 56.08 738.596 55.744 739.231 55.072C739.884 54.4 740.211 53.4387 740.211 52.188C740.211 50.9373 739.893 49.976 739.259 49.304C738.643 48.632 737.877 48.296 736.963 48.296C736.029 48.296 735.255 48.632 734.639 49.304C734.023 49.9573 733.715 50.9187 733.715 52.188C733.715 53.4387 734.013 54.4 734.611 55.072C735.227 55.744 735.992 56.08 736.907 56.08ZM753.559 44.152C754.66 44.152 755.621 44.376 756.443 44.824C757.283 45.272 757.927 45.86 758.375 46.588V44.376H763.163V59.972C763.163 61.4093 762.873 62.7067 762.295 63.864C761.735 65.04 760.867 65.9733 759.691 66.664C758.533 67.3547 757.087 67.7 755.351 67.7C753.036 67.7 751.16 67.1493 749.723 66.048C748.285 64.9653 747.464 63.4907 747.259 61.624H751.991C752.14 62.2213 752.495 62.688 753.055 63.024C753.615 63.3787 754.305 63.556 755.127 63.556C756.116 63.556 756.9 63.2667 757.479 62.688C758.076 62.128 758.375 61.2227 758.375 59.972V57.76C757.908 58.488 757.264 59.0853 756.443 59.552C755.621 60 754.66 60.224 753.559 60.224C752.271 60.224 751.104 59.8973 750.059 59.244C749.013 58.572 748.183 57.6293 747.567 56.416C746.969 55.184 746.671 53.7653 746.671 52.16C746.671 50.5547 746.969 49.1453 747.567 47.932C748.183 46.7187 749.013 45.7853 750.059 45.132C751.104 44.4787 752.271 44.152 753.559 44.152ZM758.375 52.188C758.375 50.9933 758.039 50.0507 757.367 49.36C756.713 48.6693 755.911 48.324 754.959 48.324C754.007 48.324 753.195 48.6693 752.523 49.36C751.869 50.032 751.543 50.9653 751.543 52.16C751.543 53.3547 751.869 54.3067 752.523 55.016C753.195 55.7067 754.007 56.052 754.959 56.052C755.911 56.052 756.713 55.7067 757.367 55.016C758.039 54.3253 758.375 53.3827 758.375 52.188ZM769.035 42.752C768.195 42.752 767.504 42.5093 766.963 42.024C766.44 41.52 766.179 40.904 766.179 40.176C766.179 39.4293 766.44 38.8133 766.963 38.328C767.504 37.824 768.195 37.572 769.035 37.572C769.856 37.572 770.528 37.824 771.051 38.328C771.592 38.8133 771.863 39.4293 771.863 40.176C771.863 40.904 771.592 41.52 771.051 42.024C770.528 42.5093 769.856 42.752 769.035 42.752ZM771.415 44.376V60H766.627V44.376H771.415ZM785.606 40.344V60H780.818V40.344H785.606ZM798.596 44.208C800.425 44.208 801.881 44.8053 802.964 46C804.065 47.176 804.616 48.8 804.616 50.872V60H799.856V51.516C799.856 50.4707 799.585 49.6587 799.044 49.08C798.503 48.5013 797.775 48.212 796.86 48.212C795.945 48.212 795.217 48.5013 794.676 49.08C794.135 49.6587 793.864 50.4707 793.864 51.516V60H789.076V44.376H793.864V46.448C794.349 45.7573 795.003 45.216 795.824 44.824C796.645 44.4133 797.569 44.208 798.596 44.208ZM815.783 48.352H813.207V60H808.419V48.352H806.683V44.376H808.419V43.928C808.419 42.0053 808.97 40.5493 810.071 39.56C811.172 38.552 812.787 38.048 814.915 38.048C815.27 38.048 815.531 38.0573 815.699 38.076V42.136C814.784 42.08 814.14 42.2107 813.767 42.528C813.394 42.8453 813.207 43.4147 813.207 44.236V44.376H815.783V48.352ZM825.145 60.224C823.614 60.224 822.233 59.8973 821.001 59.244C819.788 58.5907 818.826 57.6573 818.117 56.444C817.426 55.2307 817.081 53.812 817.081 52.188C817.081 50.5827 817.436 49.1733 818.145 47.96C818.854 46.728 819.825 45.7853 821.057 45.132C822.289 44.4787 823.67 44.152 825.201 44.152C826.732 44.152 828.113 44.4787 829.345 45.132C830.577 45.7853 831.548 46.728 832.257 47.96C832.966 49.1733 833.321 50.5827 833.321 52.188C833.321 53.7933 832.957 55.212 832.229 56.444C831.52 57.6573 830.54 58.5907 829.289 59.244C828.057 59.8973 826.676 60.224 825.145 60.224ZM825.145 56.08C826.06 56.08 826.834 55.744 827.469 55.072C828.122 54.4 828.449 53.4387 828.449 52.188C828.449 50.9373 828.132 49.976 827.497 49.304C826.881 48.632 826.116 48.296 825.201 48.296C824.268 48.296 823.493 48.632 822.877 49.304C822.261 49.9573 821.953 50.9187 821.953 52.188C821.953 53.4387 822.252 54.4 822.849 55.072C823.465 55.744 824.23 56.08 825.145 56.08ZM840.649 46.98C841.209 46.1213 841.909 45.4493 842.749 44.964C843.589 44.46 844.522 44.208 845.549 44.208V49.276H844.233C843.038 49.276 842.142 49.5373 841.545 50.06C840.948 50.564 840.649 51.46 840.649 52.748V60H835.861V44.376H840.649V46.98ZM867.774 44.208C869.715 44.208 871.255 44.796 872.394 45.972C873.551 47.148 874.13 48.7813 874.13 50.872V60H869.37V51.516C869.37 50.508 869.099 49.7333 868.558 49.192C868.035 48.632 867.307 48.352 866.374 48.352C865.44 48.352 864.703 48.632 864.162 49.192C863.639 49.7333 863.378 50.508 863.378 51.516V60H858.618V51.516C858.618 50.508 858.347 49.7333 857.806 49.192C857.283 48.632 856.555 48.352 855.622 48.352C854.688 48.352 853.951 48.632 853.41 49.192C852.887 49.7333 852.626 50.508 852.626 51.516V60H847.838V44.376H852.626V46.336C853.111 45.6827 853.746 45.1693 854.53 44.796C855.314 44.404 856.2 44.208 857.19 44.208C858.366 44.208 859.411 44.46 860.326 44.964C861.259 45.468 861.987 46.1867 862.51 47.12C863.051 46.2613 863.788 45.5613 864.722 45.02C865.655 44.4787 866.672 44.208 867.774 44.208ZM876.526 52.16C876.526 50.5547 876.825 49.1453 877.422 47.932C878.038 46.7187 878.869 45.7853 879.914 45.132C880.96 44.4787 882.126 44.152 883.414 44.152C884.516 44.152 885.477 44.376 886.298 44.824C887.138 45.272 887.782 45.86 888.23 46.588V44.376H893.018V60H888.23V57.788C887.764 58.516 887.11 59.104 886.27 59.552C885.449 60 884.488 60.224 883.386 60.224C882.117 60.224 880.96 59.8973 879.914 59.244C878.869 58.572 878.038 57.6293 877.422 56.416C876.825 55.184 876.526 53.7653 876.526 52.16ZM888.23 52.188C888.23 50.9933 887.894 50.0507 887.222 49.36C886.569 48.6693 885.766 48.324 884.814 48.324C883.862 48.324 883.05 48.6693 882.378 49.36C881.725 50.032 881.398 50.9653 881.398 52.16C881.398 53.3547 881.725 54.3067 882.378 55.016C883.05 55.7067 883.862 56.052 884.814 56.052C885.766 56.052 886.569 55.7067 887.222 55.016C887.894 54.3253 888.23 53.3827 888.23 52.188ZM902.838 60.224C901.475 60.224 900.262 59.9907 899.198 59.524C898.134 59.0573 897.294 58.4227 896.678 57.62C896.062 56.7987 895.717 55.884 895.642 54.876H900.374C900.43 55.4173 900.682 55.856 901.13 56.192C901.578 56.528 902.129 56.696 902.782 56.696C903.379 56.696 903.837 56.584 904.154 56.36C904.49 56.1173 904.658 55.8093 904.658 55.436C904.658 54.988 904.425 54.6613 903.958 54.456C903.491 54.232 902.735 53.9893 901.69 53.728C900.57 53.4667 899.637 53.196 898.89 52.916C898.143 52.6173 897.499 52.16 896.958 51.544C896.417 50.9093 896.146 50.06 896.146 48.996C896.146 48.1 896.389 47.288 896.874 46.56C897.378 45.8133 898.106 45.2253 899.058 44.796C900.029 44.3667 901.177 44.152 902.502 44.152C904.462 44.152 906.002 44.6373 907.122 45.608C908.261 46.5787 908.914 47.8667 909.082 49.472H904.658C904.583 48.9307 904.341 48.5013 903.93 48.184C903.538 47.8667 903.015 47.708 902.362 47.708C901.802 47.708 901.373 47.82 901.074 48.044C900.775 48.2493 900.626 48.5387 900.626 48.912C900.626 49.36 900.859 49.696 901.326 49.92C901.811 50.144 902.558 50.368 903.566 50.592C904.723 50.8907 905.666 51.1893 906.394 51.488C907.122 51.768 907.757 52.2347 908.298 52.888C908.858 53.5227 909.147 54.3813 909.166 55.464C909.166 56.3787 908.905 57.2 908.382 57.928C907.878 58.6373 907.141 59.1973 906.17 59.608C905.218 60.0187 904.107 60.224 902.838 60.224ZM914.503 42.752C913.663 42.752 912.973 42.5093 912.431 42.024C911.909 41.52 911.647 40.904 911.647 40.176C911.647 39.4293 911.909 38.8133 912.431 38.328C912.973 37.824 913.663 37.572 914.503 37.572C915.325 37.572 915.997 37.824 916.519 38.328C917.061 38.8133 917.331 39.4293 917.331 40.176C917.331 40.904 917.061 41.52 916.519 42.024C915.997 42.5093 915.325 42.752 914.503 42.752ZM916.883 44.376V60H912.095V44.376H916.883Z" fill="#21126A"/>
<defs>
<linearGradient id="paint0_linear_3463_36" x1="515" y1="0" x2="515" y2="100" gradientUnits="userSpaceOnUse">
<stop offset="0.095" stop-color="#D7B575"/>
<stop offset="0.32" stop-color="#BED775"/>
<stop offset="0.99" stop-color="#4E3D71"/>
</linearGradient>
</defs>
</svg>
