<svg width="1030" height="100" viewBox="0 0 1030 100" fill="none" xmlns="http://www.w3.org/2000/svg">
<rect x="5" y="5" width="1020" height="90" rx="33" fill="white" stroke="url(#paint0_linear_3463_29)" stroke-width="10"/>
<path d="M77.996 40.344V60H73.208V48.212L68.812 60H64.948L60.524 48.184V60H55.736V40.344H61.392L66.908 53.952L72.368 40.344H77.996ZM83.6791 60.224C82.8391 60.224 82.1485 59.9813 81.6071 59.496C81.0845 58.992 80.8231 58.376 80.8231 57.648C80.8231 56.9013 81.0845 56.276 81.6071 55.772C82.1485 55.268 82.8391 55.016 83.6791 55.016C84.5005 55.016 85.1725 55.268 85.6951 55.772C86.2365 56.276 86.5071 56.9013 86.5071 57.648C86.5071 58.376 86.2365 58.992 85.6951 59.496C85.1725 59.9813 84.5005 60.224 83.6791 60.224ZM107.511 56.528H100.175L98.9991 60H93.9871L101.099 40.344H106.643L113.755 60H108.687L107.511 56.528ZM106.279 52.832L103.843 45.636L101.435 52.832H106.279ZM120.708 39.28V60H115.92V39.28H120.708ZM132.017 48.352H129.441V60H124.653V48.352H122.917V44.376H124.653V43.928C124.653 42.0053 125.204 40.5493 126.305 39.56C127.407 38.552 129.021 38.048 131.149 38.048C131.504 38.048 131.765 38.0573 131.933 38.076V42.136C131.019 42.08 130.375 42.2107 130.001 42.528C129.628 42.8453 129.441 43.4147 129.441 44.236V44.376H132.017V48.352ZM136.675 42.752C135.835 42.752 135.145 42.5093 134.603 42.024C134.081 41.52 133.819 40.904 133.819 40.176C133.819 39.4293 134.081 38.8133 134.603 38.328C135.145 37.824 135.835 37.572 136.675 37.572C137.497 37.572 138.169 37.824 138.691 38.328C139.233 38.8133 139.503 39.4293 139.503 40.176C139.503 40.904 139.233 41.52 138.691 42.024C138.169 42.5093 137.497 42.752 136.675 42.752ZM139.055 44.376V60H134.267V44.376H139.055ZM141.573 52.16C141.573 50.5547 141.872 49.1453 142.469 47.932C143.085 46.7187 143.916 45.7853 144.961 45.132C146.006 44.4787 147.173 44.152 148.461 44.152C149.562 44.152 150.524 44.376 151.345 44.824C152.185 45.272 152.829 45.86 153.277 46.588V44.376H158.065V60H153.277V57.788C152.81 58.516 152.157 59.104 151.317 59.552C150.496 60 149.534 60.224 148.433 60.224C147.164 60.224 146.006 59.8973 144.961 59.244C143.916 58.572 143.085 57.6293 142.469 56.416C141.872 55.184 141.573 53.7653 141.573 52.16ZM153.277 52.188C153.277 50.9933 152.941 50.0507 152.269 49.36C151.616 48.6693 150.813 48.324 149.861 48.324C148.909 48.324 148.097 48.6693 147.425 49.36C146.772 50.032 146.445 50.9653 146.445 52.16C146.445 53.3547 146.772 54.3067 147.425 55.016C148.097 55.7067 148.909 56.052 149.861 56.052C150.813 56.052 151.616 55.7067 152.269 55.016C152.941 54.3253 153.277 53.3827 153.277 52.188ZM171.049 44.208C172.878 44.208 174.334 44.8053 175.417 46C176.518 47.176 177.069 48.8 177.069 50.872V60H172.309V51.516C172.309 50.4707 172.038 49.6587 171.497 49.08C170.956 48.5013 170.228 48.212 169.313 48.212C168.398 48.212 167.67 48.5013 167.129 49.08C166.588 49.6587 166.317 50.4707 166.317 51.516V60H161.529V44.376H166.317V46.448C166.802 45.7573 167.456 45.216 168.277 44.824C169.098 44.4133 170.022 44.208 171.049 44.208ZM204.782 40.344L197.81 60H191.818L184.846 40.344H189.942L194.814 55.184L199.714 40.344H204.782ZM221.511 51.936C221.511 52.384 221.483 52.8507 221.427 53.336H210.591C210.666 54.3067 210.974 55.0533 211.515 55.576C212.075 56.08 212.756 56.332 213.559 56.332C214.754 56.332 215.584 55.828 216.051 54.82H221.147C220.886 55.8467 220.41 56.7707 219.719 57.592C219.047 58.4133 218.198 59.0573 217.171 59.524C216.144 59.9907 214.996 60.224 213.727 60.224C212.196 60.224 210.834 59.8973 209.639 59.244C208.444 58.5907 207.511 57.6573 206.839 56.444C206.167 55.2307 205.831 53.812 205.831 52.188C205.831 50.564 206.158 49.1453 206.811 47.932C207.483 46.7187 208.416 45.7853 209.611 45.132C210.806 44.4787 212.178 44.152 213.727 44.152C215.239 44.152 216.583 44.4693 217.759 45.104C218.935 45.7387 219.85 46.644 220.503 47.82C221.175 48.996 221.511 50.368 221.511 51.936ZM216.611 50.676C216.611 49.8547 216.331 49.2013 215.771 48.716C215.211 48.2307 214.511 47.988 213.671 47.988C212.868 47.988 212.187 48.2213 211.627 48.688C211.086 49.1547 210.75 49.8173 210.619 50.676H216.611ZM223.085 52.16C223.085 50.5547 223.383 49.1453 223.981 47.932C224.597 46.7187 225.427 45.7853 226.473 45.132C227.518 44.4787 228.685 44.152 229.973 44.152C230.999 44.152 231.933 44.3667 232.773 44.796C233.631 45.2253 234.303 45.804 234.789 46.532V39.28H239.577V60H234.789V57.76C234.341 58.5067 233.697 59.104 232.857 59.552C232.035 60 231.074 60.224 229.973 60.224C228.685 60.224 227.518 59.8973 226.473 59.244C225.427 58.572 224.597 57.6293 223.981 56.416C223.383 55.184 223.085 53.7653 223.085 52.16ZM234.789 52.188C234.789 50.9933 234.453 50.0507 233.781 49.36C233.127 48.6693 232.325 48.324 231.373 48.324C230.421 48.324 229.609 48.6693 228.937 49.36C228.283 50.032 227.957 50.9653 227.957 52.16C227.957 53.3547 228.283 54.3067 228.937 55.016C229.609 55.7067 230.421 56.052 231.373 56.052C232.325 56.052 233.127 55.7067 233.781 55.016C234.453 54.3253 234.789 53.3827 234.789 52.188ZM242.089 52.16C242.089 50.5547 242.387 49.1453 242.985 47.932C243.601 46.7187 244.431 45.7853 245.477 45.132C246.522 44.4787 247.689 44.152 248.977 44.152C250.078 44.152 251.039 44.376 251.861 44.824C252.701 45.272 253.345 45.86 253.793 46.588V44.376H258.581V60H253.793V57.788C253.326 58.516 252.673 59.104 251.833 59.552C251.011 60 250.05 60.224 248.949 60.224C247.679 60.224 246.522 59.8973 245.477 59.244C244.431 58.572 243.601 57.6293 242.985 56.416C242.387 55.184 242.089 53.7653 242.089 52.16ZM253.793 52.188C253.793 50.9933 253.457 50.0507 252.785 49.36C252.131 48.6693 251.329 48.324 250.377 48.324C249.425 48.324 248.613 48.6693 247.941 49.36C247.287 50.032 246.961 50.9653 246.961 52.16C246.961 53.3547 247.287 54.3067 247.941 55.016C248.613 55.7067 249.425 56.052 250.377 56.052C251.329 56.052 252.131 55.7067 252.785 55.016C253.457 54.3253 253.793 53.3827 253.793 52.188ZM279.374 60L272.766 51.32V60H267.978V40.344H272.766V48.968L279.318 40.344H284.946L277.33 49.976L285.226 60H279.374ZM302.93 44.376V60H298.142V57.872C297.656 58.5627 296.994 59.1227 296.154 59.552C295.332 59.9627 294.418 60.168 293.41 60.168C292.215 60.168 291.16 59.9067 290.246 59.384C289.331 58.8427 288.622 58.068 288.118 57.06C287.614 56.052 287.362 54.8667 287.362 53.504V44.376H292.122V52.86C292.122 53.9053 292.392 54.7173 292.934 55.296C293.475 55.8747 294.203 56.164 295.118 56.164C296.051 56.164 296.788 55.8747 297.33 55.296C297.871 54.7173 298.142 53.9053 298.142 52.86V44.376H302.93ZM326.305 44.208C328.246 44.208 329.786 44.796 330.925 45.972C332.082 47.148 332.661 48.7813 332.661 50.872V60H327.901V51.516C327.901 50.508 327.63 49.7333 327.089 49.192C326.566 48.632 325.838 48.352 324.905 48.352C323.971 48.352 323.234 48.632 322.693 49.192C322.17 49.7333 321.909 50.508 321.909 51.516V60H317.149V51.516C317.149 50.508 316.878 49.7333 316.337 49.192C315.814 48.632 315.086 48.352 314.153 48.352C313.219 48.352 312.482 48.632 311.941 49.192C311.418 49.7333 311.157 50.508 311.157 51.516V60H306.369V44.376H311.157V46.336C311.642 45.6827 312.277 45.1693 313.061 44.796C313.845 44.404 314.731 44.208 315.721 44.208C316.897 44.208 317.942 44.46 318.857 44.964C319.79 45.468 320.518 46.1867 321.041 47.12C321.582 46.2613 322.319 45.5613 323.253 45.02C324.186 44.4787 325.203 44.208 326.305 44.208ZM335.057 52.16C335.057 50.5547 335.356 49.1453 335.953 47.932C336.569 46.7187 337.4 45.7853 338.445 45.132C339.491 44.4787 340.657 44.152 341.945 44.152C343.047 44.152 344.008 44.376 344.829 44.824C345.669 45.272 346.313 45.86 346.761 46.588V44.376H351.549V60H346.761V57.788C346.295 58.516 345.641 59.104 344.801 59.552C343.98 60 343.019 60.224 341.917 60.224C340.648 60.224 339.491 59.8973 338.445 59.244C337.4 58.572 336.569 57.6293 335.953 56.416C335.356 55.184 335.057 53.7653 335.057 52.16ZM346.761 52.188C346.761 50.9933 346.425 50.0507 345.753 49.36C345.1 48.6693 344.297 48.324 343.345 48.324C342.393 48.324 341.581 48.6693 340.909 49.36C340.256 50.032 339.929 50.9653 339.929 52.16C339.929 53.3547 340.256 54.3067 340.909 55.016C341.581 55.7067 342.393 56.052 343.345 56.052C344.297 56.052 345.1 55.7067 345.753 55.016C346.425 54.3253 346.761 53.3827 346.761 52.188ZM359.801 46.98C360.361 46.1213 361.061 45.4493 361.901 44.964C362.741 44.46 363.675 44.208 364.701 44.208V49.276H363.385C362.191 49.276 361.295 49.5373 360.697 50.06C360.1 50.564 359.801 51.46 359.801 52.748V60H355.013V44.376H359.801V46.98ZM366.038 52.16C366.038 50.5547 366.337 49.1453 366.934 47.932C367.55 46.7187 368.381 45.7853 369.426 45.132C370.471 44.4787 371.638 44.152 372.926 44.152C374.027 44.152 374.989 44.376 375.81 44.824C376.65 45.272 377.294 45.86 377.742 46.588V44.376H382.53V60H377.742V57.788C377.275 58.516 376.622 59.104 375.782 59.552C374.961 60 373.999 60.224 372.898 60.224C371.629 60.224 370.471 59.8973 369.426 59.244C368.381 58.572 367.55 57.6293 366.934 56.416C366.337 55.184 366.038 53.7653 366.038 52.16ZM377.742 52.188C377.742 50.9933 377.406 50.0507 376.734 49.36C376.081 48.6693 375.278 48.324 374.326 48.324C373.374 48.324 372.562 48.6693 371.89 49.36C371.237 50.032 370.91 50.9653 370.91 52.16C370.91 53.3547 371.237 54.3067 371.89 55.016C372.562 55.7067 373.374 56.052 374.326 56.052C375.278 56.052 376.081 55.7067 376.734 55.016C377.406 54.3253 377.742 53.3827 377.742 52.188Z" fill="#21126A"/>
<path d="M436.532 40.344V44.18H428.524V48.324H434.516V52.048H428.524V60H423.736V40.344H436.532ZM438.097 52.16C438.097 50.5547 438.395 49.1453 438.993 47.932C439.609 46.7187 440.439 45.7853 441.485 45.132C442.53 44.4787 443.697 44.152 444.985 44.152C446.086 44.152 447.047 44.376 447.869 44.824C448.709 45.272 449.353 45.86 449.801 46.588V44.376H454.589V60H449.801V57.788C449.334 58.516 448.681 59.104 447.841 59.552C447.019 60 446.058 60.224 444.957 60.224C443.687 60.224 442.53 59.8973 441.485 59.244C440.439 58.572 439.609 57.6293 438.993 56.416C438.395 55.184 438.097 53.7653 438.097 52.16ZM449.801 52.188C449.801 50.9933 449.465 50.0507 448.793 49.36C448.139 48.6693 447.337 48.324 446.385 48.324C445.433 48.324 444.621 48.6693 443.949 49.36C443.295 50.032 442.969 50.9653 442.969 52.16C442.969 53.3547 443.295 54.3067 443.949 55.016C444.621 55.7067 445.433 56.052 446.385 56.052C447.337 56.052 448.139 55.7067 448.793 55.016C449.465 54.3253 449.801 53.3827 449.801 52.188ZM467.6 60L462.84 53.448V60H458.052V39.28H462.84V50.732L467.572 44.376H473.48L466.984 52.216L473.536 60H467.6ZM490.789 44.376V60H486.001V57.872C485.516 58.5627 484.853 59.1227 484.013 59.552C483.192 59.9627 482.277 60.168 481.269 60.168C480.074 60.168 479.02 59.9067 478.105 59.384C477.19 58.8427 476.481 58.068 475.977 57.06C475.473 56.052 475.221 54.8667 475.221 53.504V44.376H479.981V52.86C479.981 53.9053 480.252 54.7173 480.793 55.296C481.334 55.8747 482.062 56.164 482.977 56.164C483.91 56.164 484.648 55.8747 485.189 55.296C485.73 54.7173 486.001 53.9053 486.001 52.86V44.376H490.789ZM499.016 39.28V60H494.228V39.28H499.016ZM511.194 55.94V60H508.758C507.022 60 505.669 59.58 504.698 58.74C503.727 57.8813 503.242 56.4907 503.242 54.568V48.352H501.338V44.376H503.242V40.568H508.03V44.376H511.166V48.352H508.03V54.624C508.03 55.0907 508.142 55.4267 508.366 55.632C508.59 55.8373 508.963 55.94 509.486 55.94H511.194ZM512.909 52.16C512.909 50.5547 513.208 49.1453 513.805 47.932C514.421 46.7187 515.252 45.7853 516.297 45.132C517.342 44.4787 518.509 44.152 519.797 44.152C520.898 44.152 521.86 44.376 522.681 44.824C523.521 45.272 524.165 45.86 524.613 46.588V44.376H529.401V60H524.613V57.788C524.146 58.516 523.493 59.104 522.653 59.552C521.832 60 520.87 60.224 519.769 60.224C518.5 60.224 517.342 59.8973 516.297 59.244C515.252 58.572 514.421 57.6293 513.805 56.416C513.208 55.184 512.909 53.7653 512.909 52.16ZM524.613 52.188C524.613 50.9933 524.277 50.0507 523.605 49.36C522.952 48.6693 522.149 48.324 521.197 48.324C520.245 48.324 519.433 48.6693 518.761 49.36C518.108 50.032 517.781 50.9653 517.781 52.16C517.781 53.3547 518.108 54.3067 518.761 55.016C519.433 55.7067 520.245 56.052 521.197 56.052C522.149 56.052 522.952 55.7067 523.605 55.016C524.277 54.3253 524.613 53.3827 524.613 52.188ZM539.221 60.224C537.858 60.224 536.645 59.9907 535.581 59.524C534.517 59.0573 533.677 58.4227 533.061 57.62C532.445 56.7987 532.1 55.884 532.025 54.876H536.757C536.813 55.4173 537.065 55.856 537.513 56.192C537.961 56.528 538.512 56.696 539.165 56.696C539.762 56.696 540.22 56.584 540.537 56.36C540.873 56.1173 541.041 55.8093 541.041 55.436C541.041 54.988 540.808 54.6613 540.341 54.456C539.874 54.232 539.118 53.9893 538.073 53.728C536.953 53.4667 536.02 53.196 535.273 52.916C534.526 52.6173 533.882 52.16 533.341 51.544C532.8 50.9093 532.529 50.06 532.529 48.996C532.529 48.1 532.772 47.288 533.257 46.56C533.761 45.8133 534.489 45.2253 535.441 44.796C536.412 44.3667 537.56 44.152 538.885 44.152C540.845 44.152 542.385 44.6373 543.505 45.608C544.644 46.5787 545.297 47.8667 545.465 49.472H541.041C540.966 48.9307 540.724 48.5013 540.313 48.184C539.921 47.8667 539.398 47.708 538.745 47.708C538.185 47.708 537.756 47.82 537.457 48.044C537.158 48.2493 537.009 48.5387 537.009 48.912C537.009 49.36 537.242 49.696 537.709 49.92C538.194 50.144 538.941 50.368 539.949 50.592C541.106 50.8907 542.049 51.1893 542.777 51.488C543.505 51.768 544.14 52.2347 544.681 52.888C545.241 53.5227 545.53 54.3813 545.549 55.464C545.549 56.3787 545.288 57.2 544.765 57.928C544.261 58.6373 543.524 59.1973 542.553 59.608C541.601 60.0187 540.49 60.224 539.221 60.224ZM572.864 40.344L565.892 60H559.9L552.928 40.344H558.024L562.896 55.184L567.796 40.344H572.864ZM581.977 60.224C580.446 60.224 579.065 59.8973 577.833 59.244C576.62 58.5907 575.658 57.6573 574.949 56.444C574.258 55.2307 573.913 53.812 573.913 52.188C573.913 50.5827 574.268 49.1733 574.977 47.96C575.686 46.728 576.657 45.7853 577.889 45.132C579.121 44.4787 580.502 44.152 582.033 44.152C583.564 44.152 584.945 44.4787 586.177 45.132C587.409 45.7853 588.38 46.728 589.089 47.96C589.798 49.1733 590.153 50.5827 590.153 52.188C590.153 53.7933 589.789 55.212 589.061 56.444C588.352 57.6573 587.372 58.5907 586.121 59.244C584.889 59.8973 583.508 60.224 581.977 60.224ZM581.977 56.08C582.892 56.08 583.666 55.744 584.301 55.072C584.954 54.4 585.281 53.4387 585.281 52.188C585.281 50.9373 584.964 49.976 584.329 49.304C583.713 48.632 582.948 48.296 582.033 48.296C581.1 48.296 580.325 48.632 579.709 49.304C579.093 49.9573 578.785 50.9187 578.785 52.188C578.785 53.4387 579.084 54.4 579.681 55.072C580.297 55.744 581.062 56.08 581.977 56.08ZM602.241 60L597.481 53.448V60H592.693V39.28H597.481V50.732L602.213 44.376H608.121L601.625 52.216L608.177 60H602.241ZM609.05 52.16C609.05 50.5547 609.348 49.1453 609.946 47.932C610.562 46.7187 611.392 45.7853 612.438 45.132C613.483 44.4787 614.65 44.152 615.938 44.152C617.039 44.152 618 44.376 618.822 44.824C619.662 45.272 620.306 45.86 620.754 46.588V44.376H625.542V60H620.754V57.788C620.287 58.516 619.634 59.104 618.794 59.552C617.972 60 617.011 60.224 615.91 60.224C614.64 60.224 613.483 59.8973 612.438 59.244C611.392 58.572 610.562 57.6293 609.946 56.416C609.348 55.184 609.05 53.7653 609.05 52.16ZM620.754 52.188C620.754 50.9933 620.418 50.0507 619.746 49.36C619.092 48.6693 618.29 48.324 617.338 48.324C616.386 48.324 615.574 48.6693 614.902 49.36C614.248 50.032 613.922 50.9653 613.922 52.16C613.922 53.3547 614.248 54.3067 614.902 55.016C615.574 55.7067 616.386 56.052 617.338 56.052C618.29 56.052 619.092 55.7067 619.746 55.016C620.418 54.3253 620.754 53.3827 620.754 52.188ZM635.362 60.224C633.999 60.224 632.786 59.9907 631.722 59.524C630.658 59.0573 629.818 58.4227 629.202 57.62C628.586 56.7987 628.24 55.884 628.166 54.876H632.898C632.954 55.4173 633.206 55.856 633.654 56.192C634.102 56.528 634.652 56.696 635.306 56.696C635.903 56.696 636.36 56.584 636.678 56.36C637.014 56.1173 637.182 55.8093 637.182 55.436C637.182 54.988 636.948 54.6613 636.482 54.456C636.015 54.232 635.259 53.9893 634.214 53.728C633.094 53.4667 632.16 53.196 631.414 52.916C630.667 52.6173 630.023 52.16 629.482 51.544C628.94 50.9093 628.67 50.06 628.67 48.996C628.67 48.1 628.912 47.288 629.398 46.56C629.902 45.8133 630.63 45.2253 631.582 44.796C632.552 44.3667 633.7 44.152 635.026 44.152C636.986 44.152 638.526 44.6373 639.646 45.608C640.784 46.5787 641.438 47.8667 641.606 49.472H637.182C637.107 48.9307 636.864 48.5013 636.454 48.184C636.062 47.8667 635.539 47.708 634.886 47.708C634.326 47.708 633.896 47.82 633.598 48.044C633.299 48.2493 633.15 48.5387 633.15 48.912C633.15 49.36 633.383 49.696 633.85 49.92C634.335 50.144 635.082 50.368 636.09 50.592C637.247 50.8907 638.19 51.1893 638.918 51.488C639.646 51.768 640.28 52.2347 640.822 52.888C641.382 53.5227 641.671 54.3813 641.69 55.464C641.69 56.3787 641.428 57.2 640.906 57.928C640.402 58.6373 639.664 59.1973 638.694 59.608C637.742 60.0187 636.631 60.224 635.362 60.224ZM647.027 42.752C646.187 42.752 645.496 42.5093 644.955 42.024C644.432 41.52 644.171 40.904 644.171 40.176C644.171 39.4293 644.432 38.8133 644.955 38.328C645.496 37.824 646.187 37.572 647.027 37.572C647.848 37.572 648.52 37.824 649.043 38.328C649.584 38.8133 649.855 39.4293 649.855 40.176C649.855 40.904 649.584 41.52 649.043 42.024C648.52 42.5093 647.848 42.752 647.027 42.752ZM649.407 44.376V60H644.619V44.376H649.407Z" fill="#21126A"/>
<path d="M704.876 40.344V44.18H699.668V60H694.88V44.18H689.672V40.344H704.876ZM722.007 51.936C722.007 52.384 721.979 52.8507 721.923 53.336H711.087C711.162 54.3067 711.47 55.0533 712.011 55.576C712.571 56.08 713.252 56.332 714.055 56.332C715.25 56.332 716.08 55.828 716.547 54.82H721.643C721.382 55.8467 720.906 56.7707 720.215 57.592C719.543 58.4133 718.694 59.0573 717.667 59.524C716.64 59.9907 715.492 60.224 714.223 60.224C712.692 60.224 711.33 59.8973 710.135 59.244C708.94 58.5907 708.007 57.6573 707.335 56.444C706.663 55.2307 706.327 53.812 706.327 52.188C706.327 50.564 706.654 49.1453 707.307 47.932C707.979 46.7187 708.912 45.7853 710.107 45.132C711.302 44.4787 712.674 44.152 714.223 44.152C715.735 44.152 717.079 44.4693 718.255 45.104C719.431 45.7387 720.346 46.644 720.999 47.82C721.671 48.996 722.007 50.368 722.007 51.936ZM717.107 50.676C717.107 49.8547 716.827 49.2013 716.267 48.716C715.707 48.2307 715.007 47.988 714.167 47.988C713.364 47.988 712.683 48.2213 712.123 48.688C711.582 49.1547 711.246 49.8173 711.115 50.676H717.107ZM734.081 60L729.321 53.448V60H724.533V39.28H729.321V50.732L734.053 44.376H739.961L733.465 52.216L740.017 60H734.081ZM751.361 44.208C753.191 44.208 754.647 44.8053 755.729 46C756.831 47.176 757.381 48.8 757.381 50.872V60H752.621V51.516C752.621 50.4707 752.351 49.6587 751.809 49.08C751.268 48.5013 750.54 48.212 749.625 48.212C748.711 48.212 747.983 48.5013 747.441 49.08C746.9 49.6587 746.629 50.4707 746.629 51.516V60H741.841V44.376H746.629V46.448C747.115 45.7573 747.768 45.216 748.589 44.824C749.411 44.4133 750.335 44.208 751.361 44.208ZM767.821 60.224C766.29 60.224 764.909 59.8973 763.677 59.244C762.463 58.5907 761.502 57.6573 760.793 56.444C760.102 55.2307 759.757 53.812 759.757 52.188C759.757 50.5827 760.111 49.1733 760.821 47.96C761.53 46.728 762.501 45.7853 763.733 45.132C764.965 44.4787 766.346 44.152 767.877 44.152C769.407 44.152 770.789 44.4787 772.021 45.132C773.253 45.7853 774.223 46.728 774.933 47.96C775.642 49.1733 775.997 50.5827 775.997 52.188C775.997 53.7933 775.633 55.212 774.905 56.444C774.195 57.6573 773.215 58.5907 771.965 59.244C770.733 59.8973 769.351 60.224 767.821 60.224ZM767.821 56.08C768.735 56.08 769.51 55.744 770.145 55.072C770.798 54.4 771.125 53.4387 771.125 52.188C771.125 50.9373 770.807 49.976 770.173 49.304C769.557 48.632 768.791 48.296 767.877 48.296C766.943 48.296 766.169 48.632 765.553 49.304C764.937 49.9573 764.629 50.9187 764.629 52.188C764.629 53.4387 764.927 54.4 765.525 55.072C766.141 55.744 766.906 56.08 767.821 56.08ZM783.325 39.28V60H778.537V39.28H783.325ZM793.907 60.224C792.376 60.224 790.995 59.8973 789.763 59.244C788.549 58.5907 787.588 57.6573 786.879 56.444C786.188 55.2307 785.843 53.812 785.843 52.188C785.843 50.5827 786.197 49.1733 786.907 47.96C787.616 46.728 788.587 45.7853 789.819 45.132C791.051 44.4787 792.432 44.152 793.963 44.152C795.493 44.152 796.875 44.4787 798.107 45.132C799.339 45.7853 800.309 46.728 801.019 47.96C801.728 49.1733 802.083 50.5827 802.083 52.188C802.083 53.7933 801.719 55.212 800.991 56.444C800.281 57.6573 799.301 58.5907 798.051 59.244C796.819 59.8973 795.437 60.224 793.907 60.224ZM793.907 56.08C794.821 56.08 795.596 55.744 796.231 55.072C796.884 54.4 797.211 53.4387 797.211 52.188C797.211 50.9373 796.893 49.976 796.259 49.304C795.643 48.632 794.877 48.296 793.963 48.296C793.029 48.296 792.255 48.632 791.639 49.304C791.023 49.9573 790.715 50.9187 790.715 52.188C790.715 53.4387 791.013 54.4 791.611 55.072C792.227 55.744 792.992 56.08 793.907 56.08ZM810.559 44.152C811.66 44.152 812.621 44.376 813.443 44.824C814.283 45.272 814.927 45.86 815.375 46.588V44.376H820.163V59.972C820.163 61.4093 819.873 62.7067 819.295 63.864C818.735 65.04 817.867 65.9733 816.691 66.664C815.533 67.3547 814.087 67.7 812.351 67.7C810.036 67.7 808.16 67.1493 806.723 66.048C805.285 64.9653 804.464 63.4907 804.259 61.624H808.991C809.14 62.2213 809.495 62.688 810.055 63.024C810.615 63.3787 811.305 63.556 812.127 63.556C813.116 63.556 813.9 63.2667 814.479 62.688C815.076 62.128 815.375 61.2227 815.375 59.972V57.76C814.908 58.488 814.264 59.0853 813.443 59.552C812.621 60 811.66 60.224 810.559 60.224C809.271 60.224 808.104 59.8973 807.059 59.244C806.013 58.572 805.183 57.6293 804.567 56.416C803.969 55.184 803.671 53.7653 803.671 52.16C803.671 50.5547 803.969 49.1453 804.567 47.932C805.183 46.7187 806.013 45.7853 807.059 45.132C808.104 44.4787 809.271 44.152 810.559 44.152ZM815.375 52.188C815.375 50.9933 815.039 50.0507 814.367 49.36C813.713 48.6693 812.911 48.324 811.959 48.324C811.007 48.324 810.195 48.6693 809.523 49.36C808.869 50.032 808.543 50.9653 808.543 52.16C808.543 53.3547 808.869 54.3067 809.523 55.016C810.195 55.7067 811.007 56.052 811.959 56.052C812.911 56.052 813.713 55.7067 814.367 55.016C815.039 54.3253 815.375 53.3827 815.375 52.188ZM826.035 42.752C825.195 42.752 824.504 42.5093 823.963 42.024C823.44 41.52 823.179 40.904 823.179 40.176C823.179 39.4293 823.44 38.8133 823.963 38.328C824.504 37.824 825.195 37.572 826.035 37.572C826.856 37.572 827.528 37.824 828.051 38.328C828.592 38.8133 828.863 39.4293 828.863 40.176C828.863 40.904 828.592 41.52 828.051 42.024C827.528 42.5093 826.856 42.752 826.035 42.752ZM828.415 44.376V60H823.627V44.376H828.415ZM842.606 40.344V60H837.818V40.344H842.606ZM855.596 44.208C857.425 44.208 858.881 44.8053 859.964 46C861.065 47.176 861.616 48.8 861.616 50.872V60H856.856V51.516C856.856 50.4707 856.585 49.6587 856.044 49.08C855.503 48.5013 854.775 48.212 853.86 48.212C852.945 48.212 852.217 48.5013 851.676 49.08C851.135 49.6587 850.864 50.4707 850.864 51.516V60H846.076V44.376H850.864V46.448C851.349 45.7573 852.003 45.216 852.824 44.824C853.645 44.4133 854.569 44.208 855.596 44.208ZM872.783 48.352H870.207V60H865.419V48.352H863.683V44.376H865.419V43.928C865.419 42.0053 865.97 40.5493 867.071 39.56C868.172 38.552 869.787 38.048 871.915 38.048C872.27 38.048 872.531 38.0573 872.699 38.076V42.136C871.784 42.08 871.14 42.2107 870.767 42.528C870.394 42.8453 870.207 43.4147 870.207 44.236V44.376H872.783V48.352ZM882.145 60.224C880.614 60.224 879.233 59.8973 878.001 59.244C876.788 58.5907 875.826 57.6573 875.117 56.444C874.426 55.2307 874.081 53.812 874.081 52.188C874.081 50.5827 874.436 49.1733 875.145 47.96C875.854 46.728 876.825 45.7853 878.057 45.132C879.289 44.4787 880.67 44.152 882.201 44.152C883.732 44.152 885.113 44.4787 886.345 45.132C887.577 45.7853 888.548 46.728 889.257 47.96C889.966 49.1733 890.321 50.5827 890.321 52.188C890.321 53.7933 889.957 55.212 889.229 56.444C888.52 57.6573 887.54 58.5907 886.289 59.244C885.057 59.8973 883.676 60.224 882.145 60.224ZM882.145 56.08C883.06 56.08 883.834 55.744 884.469 55.072C885.122 54.4 885.449 53.4387 885.449 52.188C885.449 50.9373 885.132 49.976 884.497 49.304C883.881 48.632 883.116 48.296 882.201 48.296C881.268 48.296 880.493 48.632 879.877 49.304C879.261 49.9573 878.953 50.9187 878.953 52.188C878.953 53.4387 879.252 54.4 879.849 55.072C880.465 55.744 881.23 56.08 882.145 56.08ZM897.649 46.98C898.209 46.1213 898.909 45.4493 899.749 44.964C900.589 44.46 901.522 44.208 902.549 44.208V49.276H901.233C900.038 49.276 899.142 49.5373 898.545 50.06C897.948 50.564 897.649 51.46 897.649 52.748V60H892.861V44.376H897.649V46.98ZM924.774 44.208C926.715 44.208 928.255 44.796 929.394 45.972C930.551 47.148 931.13 48.7813 931.13 50.872V60H926.37V51.516C926.37 50.508 926.099 49.7333 925.558 49.192C925.035 48.632 924.307 48.352 923.374 48.352C922.44 48.352 921.703 48.632 921.162 49.192C920.639 49.7333 920.378 50.508 920.378 51.516V60H915.618V51.516C915.618 50.508 915.347 49.7333 914.806 49.192C914.283 48.632 913.555 48.352 912.622 48.352C911.688 48.352 910.951 48.632 910.41 49.192C909.887 49.7333 909.626 50.508 909.626 51.516V60H904.838V44.376H909.626V46.336C910.111 45.6827 910.746 45.1693 911.53 44.796C912.314 44.404 913.2 44.208 914.19 44.208C915.366 44.208 916.411 44.46 917.326 44.964C918.259 45.468 918.987 46.1867 919.51 47.12C920.051 46.2613 920.788 45.5613 921.722 45.02C922.655 44.4787 923.672 44.208 924.774 44.208ZM933.526 52.16C933.526 50.5547 933.825 49.1453 934.422 47.932C935.038 46.7187 935.869 45.7853 936.914 45.132C937.96 44.4787 939.126 44.152 940.414 44.152C941.516 44.152 942.477 44.376 943.298 44.824C944.138 45.272 944.782 45.86 945.23 46.588V44.376H950.018V60H945.23V57.788C944.764 58.516 944.11 59.104 943.27 59.552C942.449 60 941.488 60.224 940.386 60.224C939.117 60.224 937.96 59.8973 936.914 59.244C935.869 58.572 935.038 57.6293 934.422 56.416C933.825 55.184 933.526 53.7653 933.526 52.16ZM945.23 52.188C945.23 50.9933 944.894 50.0507 944.222 49.36C943.569 48.6693 942.766 48.324 941.814 48.324C940.862 48.324 940.05 48.6693 939.378 49.36C938.725 50.032 938.398 50.9653 938.398 52.16C938.398 53.3547 938.725 54.3067 939.378 55.016C940.05 55.7067 940.862 56.052 941.814 56.052C942.766 56.052 943.569 55.7067 944.222 55.016C944.894 54.3253 945.23 53.3827 945.23 52.188ZM959.838 60.224C958.475 60.224 957.262 59.9907 956.198 59.524C955.134 59.0573 954.294 58.4227 953.678 57.62C953.062 56.7987 952.717 55.884 952.642 54.876H957.374C957.43 55.4173 957.682 55.856 958.13 56.192C958.578 56.528 959.129 56.696 959.782 56.696C960.379 56.696 960.837 56.584 961.154 56.36C961.49 56.1173 961.658 55.8093 961.658 55.436C961.658 54.988 961.425 54.6613 960.958 54.456C960.491 54.232 959.735 53.9893 958.69 53.728C957.57 53.4667 956.637 53.196 955.89 52.916C955.143 52.6173 954.499 52.16 953.958 51.544C953.417 50.9093 953.146 50.06 953.146 48.996C953.146 48.1 953.389 47.288 953.874 46.56C954.378 45.8133 955.106 45.2253 956.058 44.796C957.029 44.3667 958.177 44.152 959.502 44.152C961.462 44.152 963.002 44.6373 964.122 45.608C965.261 46.5787 965.914 47.8667 966.082 49.472H961.658C961.583 48.9307 961.341 48.5013 960.93 48.184C960.538 47.8667 960.015 47.708 959.362 47.708C958.802 47.708 958.373 47.82 958.074 48.044C957.775 48.2493 957.626 48.5387 957.626 48.912C957.626 49.36 957.859 49.696 958.326 49.92C958.811 50.144 959.558 50.368 960.566 50.592C961.723 50.8907 962.666 51.1893 963.394 51.488C964.122 51.768 964.757 52.2347 965.298 52.888C965.858 53.5227 966.147 54.3813 966.166 55.464C966.166 56.3787 965.905 57.2 965.382 57.928C964.878 58.6373 964.141 59.1973 963.17 59.608C962.218 60.0187 961.107 60.224 959.838 60.224ZM971.503 42.752C970.663 42.752 969.973 42.5093 969.431 42.024C968.909 41.52 968.647 40.904 968.647 40.176C968.647 39.4293 968.909 38.8133 969.431 38.328C969.973 37.824 970.663 37.572 971.503 37.572C972.325 37.572 972.997 37.824 973.519 38.328C974.061 38.8133 974.331 39.4293 974.331 40.176C974.331 40.904 974.061 41.52 973.519 42.024C972.997 42.5093 972.325 42.752 971.503 42.752ZM973.883 44.376V60H969.095V44.376H973.883Z" fill="#21126A"/>
<defs>
<linearGradient id="paint0_linear_3463_29" x1="515" y1="0" x2="515" y2="100" gradientUnits="userSpaceOnUse">
<stop offset="0.095" stop-color="#D7B575"/>
<stop offset="0.32" stop-color="#BED775"/>
<stop offset="0.99" stop-color="#4E3D71"/>
</linearGradient>
</defs>
</svg>
