<svg width="251" height="511" viewBox="0 0 251 511" fill="none" xmlns="http://www.w3.org/2000/svg">
<g clip-path="url(#clip0_1912_6)">
<g filter="url(#filter0_d_1912_6)">
<path d="M181.162 147.568C187.955 104.068 133.89 95.1567 125.676 99.869C121.705 102.147 156.787 108.61 150.252 137.499C139.3 185.92 115.345 190.413 124.083 241.565C124.966 246.733 141.295 289.68 180.88 302.821C422.777 383.119 191.194 318.426 309.901 293.744C333.189 288.902 313.193 257.471 271.077 257.518C159.084 257.643 169.423 222.74 181.162 147.568Z" fill="url(#paint0_radial_1912_6)" shape-rendering="crispEdges"/>
</g>
<g filter="url(#filter1_d_1912_6)">
<path d="M238.094 164.696C248.564 134.643 241.825 79.308 234.028 94.7898C229.605 110.766 229.98 131.515 211.447 158.657C201.904 172.635 179.036 199.287 179.763 232.758C179.836 236.14 190.112 264.853 219.406 269.278C398.424 296.322 274.033 355.917 369.507 326.03C388.237 320.167 327.945 223.953 295.108 228.691C207.789 241.29 220.001 216.63 238.094 164.696Z" fill="url(#paint1_radial_1912_6)" shape-rendering="crispEdges"/>
</g>
<g filter="url(#filter2_d_1912_6)">
<path d="M181.799 370.857C169.647 397.603 125.3 440.903 129.531 426.575C136.956 412.618 151.767 395.89 155.078 369.659C156.784 356.15 156.09 329.326 180.087 302.369C182.511 299.645 211.246 278.727 239.077 281.836C409.148 300.84 345.733 224.115 405.481 270.157C417.203 279.189 299.074 343.375 274.653 332.03C209.715 301.861 202.8 324.636 181.799 370.857Z" fill="url(#paint2_radial_1912_6)" shape-rendering="crispEdges"/>
</g>
</g>
<defs>
<filter id="filter0_d_1912_6" x="52.7031" y="33.2383" width="336.555" height="382.064" filterUnits="userSpaceOnUse" color-interpolation-filters="sRGB">
<feFlood flood-opacity="0" result="BackgroundImageFix"/>
<feColorMatrix in="SourceAlpha" type="matrix" values="0 0 0 0 0 0 0 0 0 0 0 0 0 0 0 0 0 0 127 0" result="hardAlpha"/>
<feOffset dy="4"/>
<feGaussianBlur stdDeviation="34.75"/>
<feComposite in2="hardAlpha" operator="out"/>
<feColorMatrix type="matrix" values="0 0 0 0 0.587646 0 0 0 0 0.622905 0 0 0 0 0.940234 0 0 0 1 0"/>
<feBlend mode="normal" in2="BackgroundImageFix" result="effect1_dropShadow_1912_6"/>
<feBlend mode="normal" in="SourceGraphic" in2="effect1_dropShadow_1912_6" result="shape"/>
</filter>
<filter id="filter1_d_1912_6" x="110.246" y="26.6094" width="332.293" height="381.104" filterUnits="userSpaceOnUse" color-interpolation-filters="sRGB">
<feFlood flood-opacity="0" result="BackgroundImageFix"/>
<feColorMatrix in="SourceAlpha" type="matrix" values="0 0 0 0 0 0 0 0 0 0 0 0 0 0 0 0 0 0 127 0" result="hardAlpha"/>
<feOffset dy="4"/>
<feGaussianBlur stdDeviation="34.75"/>
<feComposite in2="hardAlpha" operator="out"/>
<feColorMatrix type="matrix" values="0 0 0 0 0.587646 0 0 0 0 0.622905 0 0 0 0 0.940234 0 0 0 1 0"/>
<feBlend mode="normal" in2="BackgroundImageFix" result="effect1_dropShadow_1912_6"/>
<feBlend mode="normal" in="SourceGraphic" in2="effect1_dropShadow_1912_6" result="shape"/>
</filter>
<filter id="filter2_d_1912_6" x="59.7461" y="189.699" width="416.051" height="313.211" filterUnits="userSpaceOnUse" color-interpolation-filters="sRGB">
<feFlood flood-opacity="0" result="BackgroundImageFix"/>
<feColorMatrix in="SourceAlpha" type="matrix" values="0 0 0 0 0 0 0 0 0 0 0 0 0 0 0 0 0 0 127 0" result="hardAlpha"/>
<feOffset dy="4"/>
<feGaussianBlur stdDeviation="34.75"/>
<feComposite in2="hardAlpha" operator="out"/>
<feColorMatrix type="matrix" values="0 0 0 0 0.587646 0 0 0 0 0.622905 0 0 0 0 0.940234 0 0 0 1 0"/>
<feBlend mode="normal" in2="BackgroundImageFix" result="effect1_dropShadow_1912_6"/>
<feBlend mode="normal" in="SourceGraphic" in2="effect1_dropShadow_1912_6" result="shape"/>
</filter>
<radialGradient id="paint0_radial_1912_6" cx="0" cy="0" r="1" gradientUnits="userSpaceOnUse" gradientTransform="translate(162.237 154.85) rotate(110.357) scale(154.38 260.086)">
<stop offset="0.120225" stop-color="#D7B575"/>
<stop offset="0.370102" stop-color="#B32169"/>
<stop offset="0.660328" stop-color="#741F5E"/>
<stop offset="1" stop-color="#BC0079" stop-opacity="0"/>
</radialGradient>
<radialGradient id="paint1_radial_1912_6" cx="0" cy="0" r="1" gradientUnits="userSpaceOnUse" gradientTransform="translate(222.474 171.714) rotate(175.325) scale(103.103 142.446)">
<stop offset="0.120225" stop-color="#D7B575"/>
<stop offset="0.370102" stop-color="#B32169"/>
<stop offset="0.660328" stop-color="#741F5E"/>
<stop offset="1" stop-color="#BC0079" stop-opacity="0"/>
</radialGradient>
<radialGradient id="paint2_radial_1912_6" cx="0" cy="0" r="1" gradientUnits="userSpaceOnUse" gradientTransform="translate(173.511 361.599) rotate(-159.47) scale(86.3954 143.475)">
<stop offset="0.120225" stop-color="#D7B575"/>
<stop offset="0.370102" stop-color="#B32169"/>
<stop offset="0.660328" stop-color="#741F5E"/>
<stop offset="1" stop-color="#BC0079" stop-opacity="0"/>
</radialGradient>
<clipPath id="clip0_1912_6">
<rect width="251" height="511" fill="white"/>
</clipPath>
</defs>
</svg>
