<svg width="1220" height="401" viewBox="0 0 1220 401" fill="none" xmlns="http://www.w3.org/2000/svg">
<g filter="url(#filter0_d_1245_4034)">
<path d="M709.752 204.084C697.523 200.361 689.827 188.574 687.508 183.145C691.062 177.054 696.33 181.247 712.199 188.429C780.053 210.533 767.011 271.674 749.809 272.948C732.606 274.223 748.124 244.1 737.183 235.524C726.242 226.949 731.526 246.102 719.935 240.403C708.345 234.704 725.038 208.737 709.752 204.084Z" fill="url(#paint0_linear_1245_4034)"/>
<path d="M694.751 189.925C691.187 186.366 688.471 182.84 687.878 182.304C689.864 185.48 692.235 187.984 694.751 189.925C699.005 194.173 704.468 198.465 708.969 197.768C717.241 196.486 723.913 202.178 726.782 213.938C729.077 223.346 727.502 227.269 726.428 228.055C728.815 226.401 733.072 221.628 731.002 215.772C728.414 208.451 748.429 229.337 750.229 240.226C751.669 248.937 749.746 253.475 748.604 254.654C750.309 253.465 753.421 249.597 752.238 243.638C750.759 236.19 740.597 214.538 731.774 209.555C722.951 204.572 719.677 193.887 714.251 195.338C710.236 196.412 701.906 195.444 694.751 189.925Z" fill="url(#paint1_linear_1245_4034)"/>
<path d="M734.962 176.535C723.73 177.079 708.779 177.406 702.707 177.502C686.827 177.864 682.078 186.996 704.533 190.54C726.989 194.083 729.926 223.381 743.275 227.067C756.624 230.753 752.688 216.374 760.294 219.234C767.901 222.094 792.419 224.689 791.986 216.214C791.554 207.739 788.074 202.979 775.71 196.525C763.346 190.072 738.112 190.698 750.466 183.856C762.821 177.013 785.839 182.611 781.281 176.035C776.722 169.459 764.791 171.481 761.427 172.451C758.063 173.421 749.003 175.856 734.962 176.535Z" fill="url(#paint2_linear_1245_4034)"/>
<path d="M690.035 182.886C691.289 183.735 701.917 181.853 710.992 187.269C720.067 192.685 732.528 190.272 743.554 199.761C752.613 207.557 762.889 208.393 768.373 210.19C770.986 211.798 772.338 212.516 771.205 211.577C770.528 211.015 769.563 210.58 768.373 210.19C762.227 206.407 749.104 197.7 744.93 194.063C738.983 188.88 718.215 191.064 714.267 186.893C711.108 183.556 696.796 182.831 690.035 182.886Z" fill="url(#paint3_linear_1245_4034)"/>
</g>
<g filter="url(#filter1_d_1245_4034)">
<path d="M813.054 216.638C798.696 212.14 789.624 197.99 786.883 191.477C791.028 184.188 797.224 189.228 815.864 197.883C895.538 224.576 880.476 297.813 860.304 299.289C840.131 300.765 858.217 264.71 845.351 254.4C832.485 244.09 838.756 267.06 825.139 260.196C811.522 253.331 831.002 222.26 813.054 216.638Z" fill="url(#paint4_linear_1245_4034)"/>
<path d="M795.41 199.626C791.216 195.351 788.017 191.117 787.319 190.473C789.661 194.285 792.452 197.293 795.41 199.626C800.417 204.73 806.84 209.891 812.118 209.068C821.815 207.557 829.663 214.398 833.073 228.501C835.802 239.783 833.969 244.48 832.712 245.419C835.506 243.443 840.481 237.736 838.03 230.711C834.966 221.93 858.523 247.021 860.676 260.077C862.399 270.521 860.161 275.953 858.827 277.364C860.821 275.943 864.457 271.317 863.047 264.172C861.283 255.241 849.28 229.262 838.912 223.263C828.544 217.265 824.663 204.449 818.303 206.172C813.598 207.447 803.824 206.263 795.41 199.626Z" fill="url(#paint5_linear_1245_4034)"/>
<path d="M842.508 183.703C829.334 184.321 811.799 184.669 804.678 184.765C786.053 185.152 780.517 196.082 806.87 200.396C833.223 204.71 836.78 239.831 852.452 244.289C868.124 248.746 863.452 231.501 872.385 234.952C881.318 238.402 910.086 241.585 909.547 231.426C909.007 221.268 904.907 215.553 890.38 207.782C875.852 200.011 846.256 200.686 860.721 192.523C875.186 184.359 902.207 191.137 896.835 183.242C891.463 175.347 877.476 177.735 873.534 178.887C869.592 180.039 858.974 182.931 842.508 183.703Z" fill="url(#paint6_linear_1245_4034)"/>
<path d="M789.831 191.181C791.305 192.202 803.764 189.979 814.429 196.497C825.094 203.014 839.702 200.16 852.671 211.565C863.326 220.935 875.384 221.968 881.823 224.137C884.893 226.072 886.482 226.937 885.15 225.808C884.354 225.133 883.22 224.608 881.823 224.137C874.599 219.585 859.173 209.112 854.264 204.74C847.267 198.511 822.916 201.066 818.269 196.056C814.551 192.047 797.761 191.136 789.831 191.181Z" fill="url(#paint7_linear_1245_4034)"/>
</g>
<g filter="url(#filter2_d_1245_4034)">
<path d="M409.536 219.663C423.894 215.166 432.966 201.015 435.707 194.502C431.562 187.213 425.366 192.254 406.726 200.909C327.051 227.601 342.114 300.838 362.286 302.314C382.459 303.79 364.373 267.736 377.239 257.425C390.105 247.115 383.834 270.085 397.451 263.221C411.068 256.356 391.588 225.286 409.536 219.663Z" fill="url(#paint8_linear_1245_4034)"/>
<path d="M427.18 202.652C431.373 198.377 434.573 194.142 435.271 193.498C432.929 197.31 430.138 200.318 427.18 202.652C422.173 207.755 415.749 212.916 410.472 212.094C400.775 210.582 392.927 217.424 389.517 231.526C386.788 242.808 388.621 247.506 389.878 248.444C387.084 246.469 382.109 240.762 384.56 233.737C387.623 224.955 364.067 250.047 361.913 263.102C360.191 273.547 362.429 278.979 363.763 280.389C361.769 278.969 358.133 274.342 359.543 267.198C361.307 258.267 373.31 232.287 383.678 226.289C394.046 220.29 397.927 207.474 404.287 209.198C408.991 210.472 418.766 209.288 427.18 202.652Z" fill="url(#paint9_linear_1245_4034)"/>
<path d="M380.082 186.728C393.256 187.346 410.791 187.694 417.912 187.79C436.537 188.178 442.073 199.107 415.72 203.421C389.367 207.735 385.81 242.856 370.138 247.314C354.466 251.772 359.138 234.526 350.205 237.977C341.272 241.428 312.504 244.61 313.043 234.452C313.583 224.293 317.683 218.579 332.21 210.808C346.737 203.036 376.334 203.712 361.869 195.548C347.404 187.384 320.383 194.162 325.755 186.267C331.127 178.372 345.114 180.76 349.056 181.913C352.998 183.065 363.616 185.956 380.082 186.728Z" fill="url(#paint10_linear_1245_4034)"/>
<path d="M432.759 194.206C431.284 195.228 418.826 193.004 408.161 199.522C397.496 206.04 382.888 203.185 369.919 214.59C359.263 223.96 347.206 224.993 340.767 227.163C337.696 229.098 336.108 229.963 337.44 228.834C338.236 228.158 339.369 227.634 340.767 227.163C347.991 222.611 363.417 212.137 368.326 207.766C375.323 201.536 399.674 204.092 404.321 199.081C408.039 195.072 424.828 194.161 432.759 194.206Z" fill="url(#paint11_linear_1245_4034)"/>
</g>
<g filter="url(#filter3_d_1245_4034)">
<path d="M494.752 207.701C506.981 203.979 514.677 192.191 516.996 186.762C513.442 180.671 508.174 184.864 492.305 192.046C424.451 214.15 437.493 275.291 454.695 276.565C471.897 277.84 456.38 247.717 467.321 239.141C478.261 230.566 472.978 249.719 484.568 244.02C496.159 238.321 479.466 212.354 494.752 207.701Z" fill="url(#paint12_linear_1245_4034)"/>
<path d="M509.753 193.542C513.317 189.984 516.033 186.457 516.626 185.921C514.64 189.097 512.269 191.601 509.753 193.542C505.499 197.79 500.036 202.083 495.535 201.385C487.263 200.103 480.591 205.795 477.722 217.555C475.427 226.963 477.002 230.886 478.076 231.672C475.689 230.018 471.432 225.245 473.502 219.389C476.09 212.068 456.075 232.954 454.275 243.843C452.835 252.555 454.758 257.092 455.899 258.272C454.195 257.082 451.083 253.214 452.266 247.256C453.744 239.808 463.907 218.156 472.73 213.172C481.553 208.189 484.827 197.504 490.253 198.955C494.268 200.029 502.598 199.061 509.753 193.542Z" fill="url(#paint13_linear_1245_4034)"/>
<path d="M469.542 180.153C480.774 180.696 495.725 181.023 501.797 181.119C517.677 181.481 522.426 190.613 499.971 194.157C477.515 197.7 474.578 226.998 461.229 230.684C447.88 234.371 451.816 219.991 444.21 222.851C436.603 225.712 412.085 228.306 412.517 219.831C412.95 211.356 416.43 206.596 428.794 200.143C441.158 193.689 466.392 194.315 454.038 187.473C441.683 180.631 418.665 186.229 423.223 179.652C427.781 173.076 439.713 175.098 443.077 176.068C446.441 177.038 455.501 179.473 469.542 180.153Z" fill="url(#paint14_linear_1245_4034)"/>
<path d="M514.469 186.503C513.215 187.352 502.587 185.471 493.512 190.886C484.437 196.302 471.976 193.89 460.95 203.378C451.891 211.174 441.615 212.01 436.131 213.807C433.518 215.415 432.166 216.134 433.299 215.194C433.976 214.632 434.94 214.197 436.131 213.807C442.277 210.024 455.4 201.318 459.573 197.681C465.521 192.497 486.289 194.682 490.237 190.51C493.396 187.173 507.708 186.449 514.469 186.503Z" fill="url(#paint15_linear_1245_4034)"/>
</g>
<path d="M596.462 160.617C596.28 167.885 582.003 193.675 571.503 189.086C561.003 184.497 556.099 188.418 560.588 194.153C565.078 199.887 560.299 205.686 554.511 204.866C548.723 204.046 541.193 212.074 547.897 214.953C554.602 217.832 539.254 237.016 554.341 239.291C569.428 241.567 566.992 199.403 587.313 201.111C598.904 202.086 600.415 191.457 600.494 187.438C600.642 189.085 601.027 192.207 601.928 197.395C606.883 225.93 595.88 213.831 591.672 217.575C587.464 221.319 592.176 225.087 598.311 225.818C604.447 226.55 597.898 231.272 597.168 238.333C596.438 245.395 602.192 253.099 591.5 256.2C580.808 259.301 577.137 263.672 577.04 267.517C576.944 271.361 571.344 275.459 571.975 280.646C572.605 285.834 593.767 281.598 599.593 267.129C605.418 252.661 610.946 270.736 607.591 277.701C604.236 284.666 604.615 286.099 609.325 294.069C614.035 302.04 616.593 311.704 614.916 315.186C613.238 318.669 613.014 324.838 620.099 324.946C627.184 325.055 630.417 307.808 624.569 299.744C618.72 291.68 618.123 275.023 620.164 274.504C622.205 273.985 625.75 286.396 630.377 288.716C635.004 291.036 643.149 299.004 644.8 294.6C646.45 290.195 647.275 284.191 638.743 279.324C630.212 274.457 616.323 253.918 619.544 232.643C622.764 211.369 625.94 241.604 637.353 239.115C648.766 236.627 652.145 231.15 639.149 227.658C626.152 224.166 629.016 201.546 632.843 203.839C636.669 206.133 630.944 187.66 627.012 181.815C623.079 175.971 622.545 164.945 621.605 161.394C620.665 157.842 606.447 140.118 596.462 160.617Z" fill="url(#paint16_linear_1245_4034)"/>
<path d="M643.903 156.529C647.72 162.762 673.116 178.276 679.937 169.201C686.759 160.126 692.997 161.161 691.979 168.322C690.961 175.483 698.036 178.213 702.656 174.697C707.277 171.181 717.866 174.516 713.485 180.266C709.104 186.016 732.106 195.267 720.131 204.551C708.156 213.836 689.053 175.989 672.24 187.315C662.651 193.775 655.987 185.263 653.896 181.806C654.596 183.31 655.833 186.211 657.66 191.16C667.713 218.375 671.192 202.524 676.736 203.743C682.28 204.961 680.079 210.52 675.111 214.127C670.143 217.734 678.215 218.669 682.404 224.456C686.594 230.244 685.468 239.73 696.327 237.249C707.186 234.768 712.578 236.793 714.597 240.089C716.615 243.386 723.548 244.238 725.61 249.054C727.673 253.871 707.138 260.435 694.789 250.673C682.441 240.911 686.731 259.307 693.155 263.74C699.578 268.172 699.969 269.602 699.885 278.814C699.801 288.026 702.44 297.669 705.652 299.885C708.863 302.101 712.163 307.358 706.056 310.883C699.949 314.408 688.457 300.975 689.485 291.13C690.512 281.285 682.648 266.511 680.611 267.048C678.575 267.585 681.739 280.094 678.883 284.352C676.027 288.611 672.954 299.484 669.301 296.453C665.649 293.422 661.91 288.6 666.88 280.236C671.85 271.872 673.59 247.285 660.082 230.343C646.574 213.401 659.029 241.233 647.851 244.596C636.673 247.958 630.978 244.831 640.523 235.501C650.068 226.171 636.192 207.887 634.019 211.734C631.846 215.581 627.527 196.744 628.005 189.757C628.483 182.77 623.398 172.923 622.428 169.379C621.459 165.835 624.901 143.537 643.903 156.529Z" fill="url(#paint17_linear_1245_4034)"/>
<path d="M582.41 149.389C577.935 156.13 548.816 171.622 541.331 160.806C533.846 149.99 526.764 150.655 527.733 158.837C528.703 167.019 520.632 169.533 515.495 165.183C510.358 160.832 498.296 163.747 503.106 170.605C507.915 177.464 481.663 186.065 494.971 197.535C508.279 209.006 530.848 167.745 549.576 181.916C560.258 189.999 568.012 180.911 570.464 177.171C569.635 178.815 568.162 181.996 565.969 187.445C553.906 217.413 550.375 199.204 544.073 200.133C537.772 201.062 540.12 207.528 545.647 212.009C551.174 216.491 542.021 216.896 537.135 223.103C532.25 229.31 533.282 240.13 521.063 236.445C508.844 232.76 502.694 234.613 500.326 238.178C497.959 241.744 490.097 242.146 487.641 247.427C485.186 252.708 508.245 261.794 522.46 251.752C536.675 241.711 531.355 262.17 523.977 266.664C516.599 271.157 516.12 272.742 515.981 283.168C515.842 293.594 512.612 304.288 508.923 306.534C505.234 308.781 501.368 314.459 508.186 318.941C515.003 323.422 528.343 309.159 527.431 297.941C526.519 286.722 535.79 270.648 538.08 271.42C540.37 272.193 536.473 286.085 539.594 291.132C542.716 296.18 545.916 308.727 550.124 305.595C554.332 302.462 558.684 297.31 553.275 287.448C547.867 277.586 546.524 249.636 562.233 231.568C577.943 213.499 563.147 243.97 575.704 248.678C588.261 253.386 594.782 250.31 584.224 238.985C573.666 227.659 589.825 208.102 592.185 212.629C594.545 217.156 599.91 196.2 599.546 188.259C599.183 180.318 605.185 169.592 606.372 165.663C607.559 161.733 604.232 136.233 582.41 149.389Z" fill="url(#paint18_linear_1245_4034)"/>
<path d="M225.399 194.533C220.824 195.205 184.202 191.727 165.351 195.38C147.084 198.92 174.657 210.282 194.13 207.57C181.776 211.602 170.079 216.937 168.499 222.589C165.867 232.007 198.065 217.731 214.493 209.416C195.897 224.838 164.887 253.402 189.618 244.281C213.011 235.653 223.793 219.621 226.776 211.515C223.309 222.091 218.422 240.819 223.725 240.38C230.637 239.808 241.917 213.802 237.844 210.194C234.586 207.307 228.19 198.551 225.399 194.533Z" fill="#912A93"/>
<path d="M246.436 211.38C245.789 216.389 253.487 235.37 261.678 233.148C269.869 230.926 273.044 234.054 269.137 237.596C265.229 241.137 268.11 245.544 272.442 245.494C276.773 245.443 281.432 251.625 276.208 253.009C270.983 254.393 280.175 268.93 268.87 269.157C257.564 269.384 263.878 240.635 248.795 240.008C240.192 239.651 240.225 232.215 240.599 229.448C240.314 230.566 239.696 232.676 238.479 236.161C231.781 255.324 241.148 247.987 243.831 250.932C246.514 253.877 242.655 256.048 238.078 256.007C233.501 255.966 237.795 259.789 237.572 264.705C237.349 269.621 232.303 274.404 239.81 277.481C247.316 280.558 249.538 283.886 249.196 286.536C248.853 289.185 252.519 292.496 251.5 296.004C250.48 299.512 235.42 294.727 232.702 284.272C229.985 273.817 223.99 285.744 225.703 290.826C227.415 295.908 226.983 296.858 222.674 301.917C218.364 306.975 215.451 313.387 216.307 315.928C217.163 318.469 216.664 322.726 211.458 322.173C206.252 321.62 205.733 309.486 210.888 304.465C216.042 299.443 218.268 288.053 216.827 287.516C215.387 286.978 211.455 295.19 207.813 296.374C204.172 297.558 197.344 302.31 196.607 299.138C195.87 295.966 195.91 291.769 202.688 289.181C209.466 286.594 221.854 273.714 221.778 258.814C221.701 243.915 216.126 264.403 208.025 261.683C199.924 258.962 198.035 254.9 207.939 253.653C217.843 252.405 218.172 236.613 215.12 237.849C212.069 239.086 218.25 226.903 221.761 223.236C225.271 219.57 226.847 212.043 227.918 209.686C228.989 207.33 241.316 196.413 246.436 211.38Z" fill="url(#paint19_linear_1245_4034)"/>
<path d="M212.087 204.374C208.619 208.318 188.333 216.726 184.306 209.888C180.279 203.049 175.595 203.208 175.572 208.217C175.549 213.226 170.069 214.475 167.059 211.65C164.049 208.826 155.927 210.179 158.521 214.517C161.116 218.855 143.258 223.173 151.041 230.611C158.823 238.05 176.894 213.743 188.005 223.013C194.342 228.3 200.142 223.043 202.046 220.854C201.371 221.825 200.153 223.708 198.281 226.946C187.988 244.751 187.14 233.554 182.944 233.9C178.749 234.246 179.765 238.259 183.02 241.177C186.275 244.095 180.257 244.022 176.564 247.627C172.871 251.232 172.678 257.848 164.982 255.182C157.287 252.516 153.116 253.429 151.282 255.514C149.448 257.6 144.274 257.571 142.244 260.697C140.215 263.824 154.566 270.152 164.668 264.54C174.77 258.927 169.649 271.185 164.463 273.661C159.277 276.137 158.837 277.084 157.91 283.42C156.982 289.755 154.012 296.146 151.419 297.384C148.826 298.622 145.842 301.941 149.941 304.903C154.04 307.866 163.909 299.656 164.212 292.802C164.516 285.948 171.869 276.495 173.305 277.044C174.74 277.594 171.077 285.906 172.713 289.085C174.35 292.263 175.436 300.005 178.439 298.246C181.442 296.488 184.702 293.506 181.956 287.32C179.21 281.135 180.575 264.09 192.298 253.649C204.022 243.207 191.901 261.223 199.735 264.523C207.569 267.823 212.081 266.179 206.084 258.924C200.088 251.67 212.225 240.338 213.406 243.173C214.586 246.009 219.775 233.451 220.175 228.609C220.575 223.767 225.36 217.453 226.452 215.105C227.544 212.756 227.414 197.133 212.087 204.374Z" fill="url(#paint20_linear_1245_4034)"/>
<path d="M257.939 204.915C260.497 209.942 280.182 223.164 286.832 216.397C293.481 209.629 298.602 210.714 297.013 216.248C295.424 221.783 301.071 224.225 305.304 221.692C309.538 219.158 318.068 222.229 313.806 226.514C309.543 230.8 327.867 239.034 316.878 245.735C305.889 252.436 293.772 222.092 278.519 230.168C269.82 234.774 265.111 227.844 263.714 225.058C264.146 226.261 264.884 228.577 265.907 232.514C271.533 254.169 276.077 241.973 280.598 243.17C285.118 244.366 282.702 248.6 278.169 251.189C273.635 253.778 280.303 254.867 283.218 259.563C286.133 264.26 284.215 271.602 293.569 270.153C302.924 268.704 307.234 270.521 308.587 273.18C309.94 275.839 315.661 276.812 316.894 280.657C318.127 284.503 300.245 288.702 290.901 280.544C281.557 272.387 283.261 286.913 288.188 290.654C293.115 294.394 293.295 295.525 292.278 302.7C291.26 309.874 292.48 317.506 294.943 319.377C297.407 321.247 299.631 325.49 294.151 327.964C288.672 330.439 280.423 319.459 282.296 311.834C284.17 304.208 279.098 292.344 277.337 292.672C275.575 292.999 276.94 302.888 274.109 306.079C271.278 309.27 267.585 317.606 264.836 315.081C262.087 312.556 259.45 308.632 264.474 302.336C269.499 296.041 273.485 276.959 263.907 263.155C254.33 249.351 261.906 271.594 252.193 273.716C242.481 275.837 238.03 273.147 246.988 266.302C255.945 259.457 246.198 244.591 243.981 247.492C241.764 250.393 240.082 235.522 241.201 230.099C242.32 224.676 239.071 216.776 238.623 213.971C238.174 211.166 243.352 193.944 257.939 204.915Z" fill="url(#paint21_linear_1245_4034)"/>
<path d="M235.911 184.681C231.609 185.313 196.772 178.639 179.083 182.415C161.941 186.074 188.558 202.681 206.878 200.187C195.359 204.832 184.518 211.241 183.274 218.639C181.2 230.967 211.057 213.872 226.245 203.783C209.32 223.165 181.223 259.256 204.238 248.569C226.008 238.459 235.506 217.827 237.97 207.257C235.157 221.072 231.362 245.608 236.364 245.325C242.885 244.957 252.41 211.14 248.393 206.131C245.179 202.123 238.732 190.161 235.911 184.681Z" fill="url(#paint22_linear_1245_4034)"/>
<path d="M242.516 190.514C241.797 193.525 227.219 215.405 225.139 228.032C223.124 240.269 242.811 225.986 246.017 213.209C246.286 221.894 248.053 230.499 253.205 232.897C261.79 236.893 257.336 213.311 254.036 201.02C263.76 216.439 282.81 242.865 281.227 225.214C279.729 208.518 267.026 197.8 259.854 193.915C269.34 198.72 286.518 206.451 287.689 203.046C289.217 198.609 266.727 185.082 261.896 186.708C258.032 188.009 247.366 189.787 242.516 190.514Z" fill="url(#paint23_linear_1245_4034)"/>
<path d="M1001.6 181.861C1006.18 182.533 1042.8 179.055 1061.65 182.708C1079.92 186.248 1052.34 197.61 1032.87 194.898C1045.22 198.93 1056.92 204.265 1058.5 209.917C1061.13 219.335 1028.93 205.059 1012.51 196.744C1031.1 212.166 1062.11 240.73 1037.38 231.609C1013.99 222.981 1003.21 206.949 1000.22 198.843C1003.69 209.419 1008.58 228.147 1003.28 227.708C996.363 227.136 985.083 201.13 989.156 197.522C992.414 194.636 998.81 185.879 1001.6 181.861Z" fill="#912A93"/>
<path d="M980.564 198.708C981.211 203.717 973.513 222.699 965.322 220.476C957.131 218.254 953.956 221.382 957.863 224.924C961.771 228.465 958.89 232.872 954.558 232.822C950.227 232.771 945.568 238.953 950.792 240.337C956.017 241.721 946.825 256.258 958.13 256.485C969.436 256.712 963.122 227.963 978.205 227.336C986.808 226.979 986.775 219.543 986.401 216.776C986.686 217.894 987.304 220.005 988.521 223.489C995.219 242.652 985.852 235.315 983.169 238.26C980.486 241.205 984.345 243.376 988.922 243.335C993.499 243.294 989.205 247.118 989.428 252.033C989.651 256.949 994.697 261.732 987.19 264.809C979.684 267.886 977.462 271.214 977.804 273.864C978.147 276.514 974.481 279.824 975.5 283.332C976.52 286.84 991.58 282.056 994.298 271.6C997.015 261.145 1003.01 273.072 1001.3 278.154C999.585 283.236 1000.02 284.187 1004.33 289.245C1008.64 294.303 1011.55 300.715 1010.69 303.256C1009.84 305.797 1010.34 310.055 1015.54 309.501C1020.75 308.948 1021.27 296.814 1016.11 291.793C1010.96 286.771 1008.73 275.381 1010.17 274.844C1011.61 274.307 1015.54 282.518 1019.19 283.702C1022.83 284.886 1029.66 289.638 1030.39 286.466C1031.13 283.295 1031.09 279.097 1024.31 276.509C1017.53 273.922 1005.15 261.042 1005.22 246.142C1005.3 231.243 1010.87 251.731 1018.98 249.011C1027.08 246.29 1028.96 242.229 1019.06 240.981C1009.16 239.734 1008.83 223.941 1011.88 225.177C1014.93 226.414 1008.75 214.231 1005.24 210.564C1001.73 206.898 1000.15 199.371 999.082 197.014C998.011 194.658 985.684 183.741 980.564 198.708Z" fill="url(#paint24_linear_1245_4034)"/>
<path d="M1014.91 191.703C1018.38 195.646 1038.66 204.054 1042.69 197.216C1046.72 190.378 1051.4 190.536 1051.42 195.545C1051.45 200.555 1056.93 201.803 1059.94 198.978C1062.95 196.154 1071.07 197.507 1068.47 201.845C1065.88 206.183 1083.74 210.501 1075.96 217.939C1068.17 225.378 1050.1 201.071 1038.99 210.341C1032.65 215.628 1026.85 210.371 1024.95 208.182C1025.62 209.153 1026.84 211.036 1028.71 214.274C1039.01 232.079 1039.86 220.882 1044.05 221.228C1048.25 221.574 1047.23 225.587 1043.98 228.505C1040.72 231.423 1046.74 231.351 1050.43 234.955C1054.13 238.56 1054.32 245.176 1062.01 242.51C1069.71 239.844 1073.88 240.757 1075.71 242.843C1077.55 244.928 1082.72 244.899 1084.75 248.026C1086.78 251.152 1072.43 257.48 1062.33 251.868C1052.23 246.256 1057.35 258.513 1062.53 260.989C1067.72 263.465 1068.16 264.412 1069.09 270.748C1070.01 277.083 1072.98 283.474 1075.58 284.712C1078.17 285.95 1081.15 289.269 1077.05 292.231C1072.96 295.194 1063.09 286.984 1062.78 280.13C1062.48 273.276 1055.13 263.823 1053.69 264.372C1052.26 264.922 1055.92 273.235 1054.28 276.413C1052.65 279.591 1051.56 287.333 1048.56 285.574C1045.55 283.816 1042.29 280.834 1045.04 274.649C1047.79 268.463 1046.42 251.418 1034.7 240.977C1022.97 230.535 1035.1 248.551 1027.26 251.851C1019.43 255.151 1014.92 253.507 1020.91 246.252C1026.91 238.998 1014.77 227.666 1013.59 230.502C1012.41 233.337 1007.22 220.779 1006.82 215.937C1006.42 211.095 1001.64 204.781 1000.54 202.433C999.452 200.084 999.582 184.461 1014.91 191.703Z" fill="url(#paint25_linear_1245_4034)"/>
<path d="M969.057 192.243C966.5 197.27 946.814 210.492 940.164 203.725C933.515 196.957 928.394 198.042 929.983 203.577C931.573 209.111 925.925 211.554 921.692 209.02C917.458 206.486 908.928 209.557 913.19 213.842C917.453 218.128 899.129 226.362 910.118 233.063C921.107 239.764 933.224 209.42 948.477 217.496C957.176 222.102 961.885 215.173 963.282 212.386C962.85 213.589 962.112 215.905 961.089 219.842C955.463 241.497 950.919 229.301 946.398 230.498C941.878 231.694 944.294 235.928 948.827 238.517C953.361 241.106 946.693 242.195 943.778 246.891C940.863 251.588 942.781 258.93 933.427 257.481C924.072 256.032 919.762 257.85 918.409 260.508C917.057 263.167 911.335 264.14 910.102 267.986C908.869 271.831 926.751 276.03 936.095 267.872C945.439 259.715 943.736 274.241 938.808 277.982C933.881 281.722 933.701 282.853 934.718 290.028C935.736 297.202 934.516 304.834 932.053 306.705C929.589 308.575 927.365 312.818 932.845 315.293C938.324 317.767 946.573 306.787 944.7 299.162C942.827 291.536 947.898 279.672 949.659 280C951.421 280.328 950.056 290.216 952.887 293.407C955.718 296.598 959.411 304.934 962.16 302.409C964.909 299.884 967.547 295.96 962.522 289.664C957.497 283.369 953.511 264.287 963.089 250.483C972.666 236.679 965.091 258.922 974.803 261.044C984.515 263.166 988.966 260.475 980.008 253.63C971.051 246.786 980.798 231.919 983.015 234.82C985.232 237.721 986.914 222.85 985.795 217.427C984.676 212.004 987.925 204.104 988.373 201.299C988.822 198.494 983.644 181.272 969.057 192.243Z" fill="url(#paint26_linear_1245_4034)"/>
<path d="M991.085 172.009C995.388 172.641 1030.22 165.967 1047.91 169.743C1065.06 173.402 1038.44 190.01 1020.12 187.516C1031.64 192.161 1042.48 198.569 1043.72 205.967C1045.8 218.296 1015.94 201.2 1000.75 191.111C1017.68 210.493 1045.77 246.585 1022.76 235.897C1000.99 225.787 991.49 205.156 989.026 194.585C991.839 208.4 995.634 232.936 990.632 232.653C984.111 232.286 974.586 198.468 978.603 193.459C981.817 189.451 988.264 177.489 991.085 172.009Z" fill="url(#paint27_linear_1245_4034)"/>
<path d="M984.48 177.842C985.199 180.853 999.777 202.734 1001.86 215.36C1003.87 227.597 984.185 213.314 980.979 200.537C980.71 209.222 978.943 217.827 973.791 220.225C965.206 224.221 969.66 200.639 972.96 188.348C963.236 203.767 944.186 230.193 945.769 212.542C947.267 195.846 959.97 185.129 967.142 181.244C957.656 186.048 940.478 193.779 939.307 190.374C937.779 185.937 960.269 172.41 965.1 174.036C968.964 175.337 979.63 177.116 984.48 177.842Z" fill="url(#paint28_linear_1245_4034)"/>
<g filter="url(#filter4_d_1245_4034)">
<path d="M1029.53 234.889C1053.85 237.863 1079.35 215.929 1093.47 199.584C1107.6 183.239 997.35 204.868 1046.4 180.318C1095.44 155.768 1008.43 159.906 957.244 174.706C906.053 189.506 906.887 200.8 865.351 216.371C823.814 231.942 881.123 229.488 897.829 220.159C914.535 210.83 932.528 193.084 955.397 193.084C965.17 193.084 968.507 201.118 959.032 207.112C949.556 213.107 931.321 211.461 933.109 213.916C934.896 216.371 949.473 224.553 961.773 222.683C973.255 220.939 980.509 214.93 991.868 207.112C1009.81 194.767 1042.11 206.902 1036.21 216.371C1031.49 223.946 1012.11 219.527 1003.01 216.371C1001.72 221.304 1005.22 231.915 1029.53 234.889Z" fill="url(#paint29_radial_1245_4034)"/>
</g>
<g filter="url(#filter5_d_1245_4034)">
<path d="M190.606 234.889C166.291 237.863 140.787 215.929 126.663 199.584C112.539 183.239 222.786 204.868 173.741 180.318C124.695 155.768 211.702 159.906 262.893 174.706C314.084 189.506 313.249 200.8 354.786 216.371C396.323 231.942 339.014 229.488 322.308 220.159C305.602 210.83 287.609 193.084 264.74 193.084C254.967 193.084 251.63 201.118 261.105 207.112C270.58 213.107 288.816 211.461 287.028 213.916C285.24 216.371 270.664 224.553 258.364 222.683C246.881 220.939 239.628 214.93 228.269 207.112C210.331 194.767 178.031 206.902 183.931 216.371C188.651 223.946 208.027 219.527 217.125 216.371C218.416 221.304 214.92 231.915 190.606 234.889Z" fill="url(#paint30_radial_1245_4034)"/>
</g>
<g filter="url(#filter6_d_1245_4034)">
<path d="M924.982 218.599C949.214 221.536 974.632 199.877 988.708 183.736C1002.78 167.595 892.91 188.953 941.79 164.71C990.67 140.467 903.957 144.553 852.939 159.168C801.921 173.784 802.752 184.936 761.356 200.313C719.96 215.69 777.075 213.266 793.725 204.053C810.374 194.841 828.306 177.317 851.098 177.317C860.838 177.317 864.164 185.25 854.721 191.17C845.277 197.09 827.103 195.464 828.885 197.889C830.667 200.313 845.194 208.392 857.453 206.547C868.896 204.824 876.125 198.89 887.446 191.17C905.323 178.979 937.514 190.962 931.634 200.313C926.93 207.794 907.619 203.43 898.552 200.313C897.265 205.185 900.75 215.662 924.982 218.599Z" fill="url(#paint31_radial_1245_4034)"/>
</g>
<g filter="url(#filter7_d_1245_4034)">
<path d="M300.104 218.599C275.872 221.536 250.454 199.877 236.378 183.736C222.302 167.595 332.176 188.953 283.296 164.71C234.416 140.467 321.129 144.553 372.147 159.168C423.165 173.784 422.334 184.936 463.73 200.313C505.126 215.69 448.011 213.266 431.361 204.053C414.712 194.841 396.78 177.317 373.988 177.317C364.248 177.317 360.922 185.25 370.365 191.17C379.809 197.09 397.983 195.464 396.201 197.889C394.419 200.313 379.892 208.392 367.633 206.547C356.19 204.824 348.961 198.89 337.64 191.17C319.763 178.979 287.572 190.962 293.452 200.313C298.156 207.794 317.466 203.43 326.534 200.313C327.821 205.185 324.336 215.662 300.104 218.599Z" fill="url(#paint32_radial_1245_4034)"/>
</g>
<g filter="url(#filter8_d_1245_4034)">
<path d="M422.422 198.682C398.108 201.656 372.603 179.722 358.479 163.377C344.356 147.032 454.603 168.661 405.557 144.111C356.512 119.561 445.366 115.816 496.557 130.616C547.747 145.416 545.066 164.593 586.603 180.164C628.139 195.735 569.442 195.805 552.736 186.476C536.029 177.147 519.426 156.877 496.557 156.877C486.783 156.877 483.446 164.911 492.921 170.905C502.397 176.9 520.632 175.254 518.845 177.709C517.057 180.164 502.48 188.346 490.18 186.476C478.698 184.732 471.444 178.723 460.085 170.905C442.148 158.56 409.848 170.695 415.748 180.164C420.467 187.739 439.843 183.32 448.941 180.164C450.232 185.097 446.736 195.708 422.422 198.682Z" fill="url(#paint33_radial_1245_4034)"/>
</g>
<g filter="url(#filter9_d_1245_4034)">
<path d="M785.564 198.682C809.796 201.656 835.214 179.722 849.29 163.377C863.366 147.032 753.492 168.661 802.372 144.111C851.252 119.561 762.698 117.174 711.68 131.974C660.662 146.774 663.334 164.593 621.938 180.164C580.542 195.735 642.918 195.805 659.567 186.476C676.217 177.147 688.888 156.877 711.68 156.877C721.42 156.877 724.746 164.911 715.303 170.905C705.859 176.9 687.685 175.254 689.467 177.709C691.249 180.164 705.776 188.346 718.035 186.476C729.478 184.732 736.707 178.723 748.028 170.905C765.905 158.56 798.096 170.695 792.216 180.164C787.512 187.739 768.201 183.32 759.134 180.164C757.847 185.097 761.332 195.708 785.564 198.682Z" fill="url(#paint34_radial_1245_4034)"/>
</g>
<g filter="url(#filter10_d_1245_4034)">
<path d="M588.325 190.165C585.895 179.531 567.815 191.533 558.21 192.204C548.604 192.874 568.714 176.575 579.348 166.577C589.982 156.578 564.868 137.904 570.627 126.227C576.387 114.551 591.335 140.404 601.174 149.562C611.012 158.72 638.518 117.252 650.585 123.84C662.652 130.428 627.43 149.553 624.017 162.105C620.603 174.658 648.647 186.201 643.408 193.029C640.523 196.79 626.416 184.02 617.211 181.078C608.005 178.135 609.005 225.625 599.796 229.412C590.588 233.199 591.363 203.458 588.325 190.165Z" fill="url(#paint35_linear_1245_4034)"/>
</g>
<g filter="url(#filter11_d_1245_4034)">
<path d="M589.196 163.874C589.74 168.406 555.558 189.156 560.932 190.419C566.305 191.682 582.215 183.514 587.709 183.251C593.202 182.987 595.745 224.309 599.123 223.215C602.501 222.12 606.482 186.43 612.453 181.049C618.424 175.668 638.707 196.537 641.114 192.654C643.521 188.772 618.895 170.643 618.132 167.413C617.368 164.184 646.559 137.571 645.898 131.216C645.236 124.861 609.367 156.302 605.264 156.887C601.161 157.472 580.127 127.87 573.8 128.975C567.473 130.079 588.653 159.342 589.196 163.874Z" fill="url(#paint36_linear_1245_4034)"/>
</g>
<path d="M572.4 185.169C570.833 183.594 573.809 181.249 574.799 182.327C575.789 183.405 572.906 186.499 572.4 185.169Z" fill="#D9D9D9"/>
<path d="M589.374 174.427C590.973 175.964 588.038 178.37 587.025 177.317C586.012 176.263 588.842 173.111 589.374 174.427Z" fill="#D9D9D9"/>
<path d="M580.964 179.019C582.563 180.556 579.628 182.962 578.615 181.908C577.602 180.855 580.431 177.703 580.964 179.019Z" fill="#D9D9D9"/>
<path d="M599.978 187.864C598.412 186.29 601.387 183.944 602.377 185.022C603.367 186.1 600.484 189.194 599.978 187.864Z" fill="#D9D9D9"/>
<path d="M598.622 197.859C597.056 196.284 600.031 193.939 601.022 195.016C602.012 196.094 599.128 199.189 598.622 197.859Z" fill="#D9D9D9"/>
<path d="M614.626 176.185C613.06 174.61 616.035 172.265 617.025 173.342C618.016 174.42 615.132 177.515 614.626 176.185Z" fill="#D9D9D9"/>
<path d="M620.997 180.005C619.431 178.43 622.406 176.085 623.397 177.163C624.387 178.241 621.503 181.335 620.997 180.005Z" fill="#D9D9D9"/>
<path d="M628.736 185.261C627.169 183.686 630.144 181.341 631.135 182.419C632.125 183.496 629.242 186.591 628.736 185.261Z" fill="#D9D9D9"/>
<path d="M616.379 155.568C618.133 153.877 619.77 157.064 618.585 158.134C617.4 159.204 615.048 156.119 616.379 155.568Z" fill="#D9D9D9"/>
<path d="M627.285 149.487C626.936 151.904 623.618 150.932 623.9 149.348C624.181 147.764 628.01 148.149 627.285 149.487Z" fill="#D9D9D9"/>
<path d="M632.365 143.777C630.798 142.202 633.773 139.856 634.764 140.934C635.754 142.012 632.871 145.106 632.365 143.777Z" fill="#D9D9D9"/>
<path d="M591.808 152.126C592.548 154.328 589.045 155.199 588.609 153.729C588.174 152.259 591.891 150.637 591.808 152.126Z" fill="#D9D9D9"/>
<path d="M600.981 159.919C602.594 155.254 608.572 158.691 607.413 161.724C606.254 164.757 599.069 162.261 600.981 159.919Z" fill="#741F5E" stroke="#D9D9D9" stroke-width="2"/>
<path d="M596.312 182.063C593.339 185.988 589.043 180.413 591.075 177.903C593.108 175.392 598.802 180.506 596.312 182.063Z" fill="#741F5E" stroke="#D9D9D9" stroke-width="2"/>
<path d="M611.331 178.224C612.405 182.798 605.34 183.839 604.739 180.797C604.137 177.756 611.757 175.249 611.331 178.224Z" fill="#741F5E" stroke="#D9D9D9" stroke-width="2"/>
<path d="M591.381 169.733C588.249 166.583 594.199 161.893 596.18 164.049C598.16 166.204 592.394 172.393 591.381 169.733Z" fill="#741F5E" stroke="#D9D9D9" stroke-width="2"/>
<path d="M613.776 164.97C616.48 168.554 610.099 172.461 608.409 170.03C606.719 167.6 613.094 162.163 613.776 164.97Z" fill="#741F5E" stroke="#D9D9D9" stroke-width="2"/>
<path d="M587.423 145.661C587.454 148.069 583.978 147.728 584.011 146.141C584.044 144.554 587.939 144.232 587.423 145.661Z" fill="#D9D9D9"/>
<path d="M582.775 138.107C583.496 140.318 579.99 141.156 579.566 139.681C579.143 138.205 582.871 136.618 582.775 138.107Z" fill="#D9D9D9"/>
<path d="M599.134 208.902C597.568 207.327 600.543 204.981 601.533 206.059C602.524 207.137 599.64 210.231 599.134 208.902Z" fill="#D9D9D9"/>
<path d="M599.9 173.971C599.667 173.67 596.239 174.499 596.234 174.019C596.229 173.54 599.528 171.635 599.642 171.204C599.756 170.772 598.652 167.441 599.055 167.192C599.457 166.944 601.459 169.666 601.996 169.606C602.533 169.546 604.672 167.841 605.493 167.785C606.315 167.73 604.061 171.805 604.061 171.805C604.061 171.805 606.6 173.659 606.617 174.345C606.634 175.032 602.93 174.313 602.626 174.488C602.322 174.663 601.054 178.475 600.556 178.542C600.058 178.608 600.133 174.272 599.9 173.971Z" fill="#D9D9D9"/>
<g filter="url(#filter12_d_1245_4034)">
<path d="M651.94 189.897C653.282 178.465 634.484 180.953 626.299 176.794C618.114 172.634 639.955 167.033 651.94 162.746C663.925 158.459 648.978 127.959 657.447 119.622C665.916 111.286 670.157 143.598 675.43 157.316C680.704 171.034 716.634 144.953 724.569 157.316C732.503 169.68 697.226 170.438 690.428 180.79C683.63 191.141 703.261 216.255 696.755 220.195C693.173 222.365 685.498 203.043 678.786 195.612C672.075 188.181 657.903 234.303 649.063 233.337C640.224 232.37 650.262 204.186 651.94 189.897Z" fill="url(#paint37_linear_1245_4034)"/>
</g>
<g filter="url(#filter13_d_1245_4034)">
<path d="M661.598 163.159C660.617 167.785 625.691 170.624 629.752 174.525C633.813 178.426 649.599 178.536 654.242 181.03C658.885 183.524 647.942 224.493 651.092 225.13C654.242 225.768 668.82 193.472 675.476 191.289C682.132 189.106 692.375 219.298 695.6 216.772C698.824 214.246 684.111 184.514 684.497 181.03C684.883 177.546 717.52 166.578 718.978 160.142C720.436 153.706 680.731 165.973 677.141 164.483C673.551 162.993 665.443 124.036 659.843 121.933C654.242 119.83 662.578 158.533 661.598 163.159Z" fill="url(#paint38_linear_1245_4034)"/>
</g>
<path d="M640.929 175.216C640.126 172.919 643.337 172.154 643.818 173.685C644.3 175.216 640.929 176.746 640.929 175.216Z" fill="#D9D9D9"/>
<path d="M658.414 173.385C659.256 175.661 656.059 176.505 655.552 174.986C655.044 173.467 658.388 171.855 658.414 173.385Z" fill="#D9D9D9"/>
<path d="M649.984 173.592C650.826 175.868 647.63 176.712 647.122 175.193C646.614 173.674 649.958 172.062 649.984 173.592Z" fill="#D9D9D9"/>
<path d="M662.968 191.598C662.165 189.302 665.376 188.537 665.857 190.068C666.339 191.598 662.968 193.129 662.968 191.598Z" fill="#D9D9D9"/>
<path d="M658.687 200.518C657.884 198.222 661.094 197.457 661.576 198.988C662.058 200.518 658.687 202.049 658.687 200.518Z" fill="#D9D9D9"/>
<path d="M678.82 187.704C678.017 185.408 681.227 184.643 681.709 186.173C682.19 187.704 678.82 189.235 678.82 187.704Z" fill="#D9D9D9"/>
<path d="M682.898 194.557C682.095 192.261 685.305 191.496 685.787 193.027C686.268 194.557 682.898 196.088 682.898 194.557Z" fill="#D9D9D9"/>
<path d="M687.663 203.479C686.861 201.183 690.071 200.418 690.553 201.949C691.034 203.479 687.663 205.01 687.663 203.479Z" fill="#D9D9D9"/>
<path d="M686.788 168.775C688.778 168.027 689.13 171.908 687.808 172.343C686.487 172.778 685.509 168.639 686.788 168.775Z" fill="#D9D9D9"/>
<path d="M697.76 168.383C696.707 170.531 694.26 167.938 694.994 166.557C695.728 165.176 698.785 167.461 697.76 168.383Z" fill="#D9D9D9"/>
<path d="M703.784 165.442C702.982 163.146 706.192 162.381 706.674 163.911C707.155 165.442 703.784 166.973 703.784 165.442Z" fill="#D9D9D9"/>
<path d="M667.481 153.179C667.399 155.665 664.217 154.75 664.319 153.12C664.422 151.49 668.02 151.79 667.481 153.179Z" fill="#D9D9D9"/>
<path d="M672.631 165.253C675.443 161.578 679.319 167.869 677.399 170.204C675.479 172.538 670.304 166.546 672.631 165.253Z" fill="#741F5E" stroke="#D9D9D9" stroke-width="2"/>
<path d="M661.759 184.188C658.052 186.471 656.247 178.967 658.727 177.572C661.207 176.177 664.318 183.937 661.759 184.188Z" fill="#741F5E" stroke="#D9D9D9" stroke-width="2"/>
<path d="M675.438 188.01C674.885 192.941 668.692 190.408 669.153 187.185C669.614 183.962 676.731 185.365 675.438 188.01Z" fill="#741F5E" stroke="#D9D9D9" stroke-width="2"/>
<path d="M661.561 169.878C659.956 165.286 666.376 163.756 667.339 166.817C668.302 169.878 661.561 172.94 661.561 169.878Z" fill="#741F5E" stroke="#D9D9D9" stroke-width="2"/>
<path d="M681.652 176.499C682.764 181.294 676.234 181.858 675.599 178.677C674.963 175.496 681.972 173.462 681.652 176.499Z" fill="#741F5E" stroke="#D9D9D9" stroke-width="2"/>
<path d="M665.878 144.775C665.143 147.103 662.365 145.037 662.894 143.529C663.423 142.021 666.758 143.66 665.878 144.775Z" fill="#D9D9D9"/>
<path d="M664.414 135.193C664.314 137.678 661.139 136.729 661.254 135.1C661.368 133.471 664.964 133.81 664.414 135.193Z" fill="#D9D9D9"/>
<path d="M655.624 211.384C654.822 209.087 658.032 208.322 658.513 209.853C658.995 211.384 655.624 212.914 655.624 211.384Z" fill="#D9D9D9"/>
<path d="M667.298 178.21C667.199 177.804 664.092 176.887 664.239 176.423C664.387 175.96 667.726 175.78 667.958 175.422C668.189 175.065 668.324 171.313 668.737 171.276C669.15 171.238 669.952 174.854 670.416 175.065C670.881 175.276 673.195 174.707 673.894 175.065C674.594 175.422 671.436 178.21 671.436 178.21C671.436 178.21 672.958 181.261 672.755 181.929C672.552 182.597 669.704 180.054 669.397 180.07C669.089 180.086 666.833 183.114 666.398 182.929C665.964 182.744 667.396 178.616 667.298 178.21Z" fill="#D9D9D9"/>
<g filter="url(#filter14_d_1245_4034)">
<path d="M549.795 188.086C548.452 176.655 567.251 179.143 575.435 174.983C583.62 170.824 561.78 165.223 549.795 160.936C537.81 156.649 552.756 126.149 544.287 117.812C535.818 109.475 531.577 141.788 526.304 155.506C521.031 169.224 485.1 143.142 477.166 155.506C469.231 167.869 504.508 168.628 511.306 178.979C518.104 189.331 498.474 214.445 504.979 218.384C508.562 220.554 516.237 201.232 522.948 193.801C529.66 186.371 543.831 232.493 552.671 231.526C561.511 230.559 551.472 202.375 549.795 188.086Z" fill="url(#paint39_linear_1245_4034)"/>
</g>
<g filter="url(#filter15_d_1245_4034)">
<path d="M540.137 161.349C541.117 165.974 576.043 168.813 571.982 172.714C567.921 176.615 552.136 176.725 547.492 179.219C542.849 181.714 553.792 222.682 550.642 223.32C547.492 223.958 532.914 191.662 526.258 189.479C519.603 187.296 509.359 217.487 506.135 214.961C502.911 212.435 517.624 182.704 517.238 179.219C516.851 175.735 484.215 164.768 482.757 158.331C481.298 151.895 521.003 164.162 524.593 162.672C528.183 161.182 536.291 122.225 541.892 120.122C547.492 118.019 539.156 156.723 540.137 161.349Z" fill="url(#paint40_linear_1245_4034)"/>
</g>
<path d="M560.805 173.405C561.608 171.109 558.398 170.344 557.916 171.874C557.435 173.405 560.805 174.936 560.805 173.405Z" fill="#D9D9D9"/>
<path d="M543.32 171.573C542.479 173.849 545.675 174.692 546.183 173.173C546.69 171.655 543.347 170.042 543.32 171.573Z" fill="#D9D9D9"/>
<path d="M551.75 171.782C550.908 174.058 554.105 174.901 554.612 173.382C555.12 171.864 551.776 170.251 551.75 171.782Z" fill="#D9D9D9"/>
<path d="M538.766 189.786C539.569 187.49 536.359 186.725 535.877 188.255C535.396 189.786 538.766 191.317 538.766 189.786Z" fill="#D9D9D9"/>
<path d="M543.048 198.708C543.85 196.412 540.64 195.646 540.158 197.177C539.677 198.708 543.048 200.238 543.048 198.708Z" fill="#D9D9D9"/>
<path d="M522.915 185.893C523.717 183.597 520.507 182.832 520.026 184.363C519.544 185.893 522.915 187.424 522.915 185.893Z" fill="#D9D9D9"/>
<path d="M518.837 192.747C519.639 190.451 516.429 189.685 515.947 191.216C515.466 192.747 518.837 194.278 518.837 192.747Z" fill="#D9D9D9"/>
<path d="M514.071 201.669C514.874 199.372 511.663 198.607 511.182 200.138C510.7 201.669 514.071 203.199 514.071 201.669Z" fill="#D9D9D9"/>
<path d="M514.947 166.965C512.957 166.217 512.604 170.097 513.926 170.532C515.248 170.968 516.225 166.828 514.947 166.965Z" fill="#D9D9D9"/>
<path d="M503.974 166.573C505.027 168.72 507.474 166.127 506.74 164.747C506.006 163.366 502.95 165.65 503.974 166.573Z" fill="#D9D9D9"/>
<path d="M497.95 163.632C498.752 161.335 495.542 160.57 495.061 162.101C494.579 163.632 497.95 165.162 497.95 163.632Z" fill="#D9D9D9"/>
<path d="M534.254 151.37C534.335 153.856 537.518 152.941 537.415 151.311C537.312 149.681 533.714 149.982 534.254 151.37Z" fill="#D9D9D9"/>
<path d="M529.104 163.442C526.291 159.768 522.415 166.059 524.335 168.393C526.255 170.727 531.431 164.736 529.104 163.442Z" fill="#741F5E" stroke="#D9D9D9" stroke-width="2"/>
<path d="M539.975 182.377C543.683 184.661 545.487 177.157 543.007 175.762C540.527 174.367 537.417 182.127 539.975 182.377Z" fill="#741F5E" stroke="#D9D9D9" stroke-width="2"/>
<path d="M526.296 186.199C526.849 191.13 533.042 188.597 532.581 185.374C532.12 182.151 525.003 183.555 526.296 186.199Z" fill="#741F5E" stroke="#D9D9D9" stroke-width="2"/>
<path d="M540.173 168.068C541.778 163.476 535.358 161.945 534.395 165.007C533.432 168.068 540.173 171.129 540.173 168.068Z" fill="#741F5E" stroke="#D9D9D9" stroke-width="2"/>
<path d="M520.082 174.689C518.97 179.484 525.5 180.047 526.136 176.866C526.771 173.686 519.762 171.651 520.082 174.689Z" fill="#741F5E" stroke="#D9D9D9" stroke-width="2"/>
<path d="M535.856 142.961C536.591 145.289 539.369 143.223 538.84 141.715C538.311 140.207 534.976 141.846 535.856 142.961Z" fill="#D9D9D9"/>
<path d="M537.32 133.382C537.42 135.867 540.596 134.919 540.481 133.29C540.366 131.661 536.77 131.999 537.32 133.382Z" fill="#D9D9D9"/>
<path d="M546.11 209.571C546.913 207.275 543.702 206.51 543.221 208.04C542.739 209.571 546.11 211.102 546.11 209.571Z" fill="#D9D9D9"/>
<path d="M534.437 176.398C534.535 175.992 537.642 175.074 537.495 174.611C537.348 174.148 534.008 173.967 533.777 173.61C533.546 173.252 533.41 169.5 532.997 169.463C532.584 169.426 531.783 173.041 531.318 173.252C530.854 173.464 528.539 172.895 527.84 173.252C527.141 173.61 530.299 176.398 530.299 176.398C530.299 176.398 528.777 179.448 528.979 180.116C529.182 180.784 532.03 178.241 532.338 178.257C532.645 178.274 534.901 181.302 535.336 181.117C535.77 180.932 534.338 176.803 534.437 176.398Z" fill="#D9D9D9"/>
<g filter="url(#filter16_d_1245_4034)">
<path d="M549.795 188.086C548.452 176.655 567.251 179.143 575.435 174.983C583.62 170.824 561.78 165.223 549.795 160.936C537.81 156.649 552.756 126.149 544.287 117.812C535.818 109.475 531.577 141.788 526.304 155.506C521.031 169.224 485.1 143.142 477.166 155.506C469.231 167.869 504.508 168.628 511.306 178.979C518.104 189.331 498.474 214.445 504.979 218.384C508.562 220.554 516.237 201.232 522.948 193.801C529.66 186.371 543.831 232.493 552.671 231.526C561.511 230.559 551.472 202.375 549.795 188.086Z" fill="url(#paint41_linear_1245_4034)"/>
</g>
<g filter="url(#filter17_d_1245_4034)">
<path d="M540.137 161.349C541.117 165.974 576.043 168.813 571.982 172.714C567.921 176.615 552.136 176.725 547.492 179.219C542.849 181.714 553.792 222.682 550.642 223.32C547.492 223.958 532.914 191.662 526.258 189.479C519.603 187.296 509.359 217.487 506.135 214.961C502.911 212.435 517.624 182.704 517.238 179.219C516.851 175.735 484.215 164.768 482.757 158.331C481.298 151.895 521.003 164.162 524.593 162.672C528.183 161.182 536.291 122.225 541.892 120.122C547.492 118.019 539.156 156.723 540.137 161.349Z" fill="url(#paint42_linear_1245_4034)"/>
</g>
<path d="M560.805 173.405C561.608 171.109 558.398 170.344 557.916 171.874C557.435 173.405 560.805 174.936 560.805 173.405Z" fill="#D9D9D9"/>
<path d="M543.32 171.573C542.479 173.849 545.675 174.692 546.183 173.173C546.69 171.655 543.347 170.042 543.32 171.573Z" fill="#D9D9D9"/>
<path d="M551.75 171.782C550.908 174.058 554.105 174.901 554.612 173.382C555.12 171.864 551.776 170.251 551.75 171.782Z" fill="#D9D9D9"/>
<path d="M538.766 189.786C539.569 187.49 536.359 186.725 535.877 188.255C535.396 189.786 538.766 191.317 538.766 189.786Z" fill="#D9D9D9"/>
<path d="M543.048 198.708C543.85 196.412 540.64 195.646 540.158 197.177C539.677 198.708 543.048 200.238 543.048 198.708Z" fill="#D9D9D9"/>
<path d="M522.915 185.893C523.717 183.597 520.507 182.832 520.026 184.363C519.544 185.893 522.915 187.424 522.915 185.893Z" fill="#D9D9D9"/>
<path d="M518.837 192.747C519.639 190.451 516.429 189.685 515.947 191.216C515.466 192.747 518.837 194.278 518.837 192.747Z" fill="#D9D9D9"/>
<path d="M514.071 201.669C514.874 199.372 511.663 198.607 511.182 200.138C510.7 201.669 514.071 203.199 514.071 201.669Z" fill="#D9D9D9"/>
<path d="M514.947 166.965C512.957 166.217 512.604 170.097 513.926 170.532C515.248 170.968 516.225 166.828 514.947 166.965Z" fill="#D9D9D9"/>
<path d="M503.974 166.573C505.027 168.72 507.474 166.127 506.74 164.747C506.006 163.366 502.95 165.65 503.974 166.573Z" fill="#D9D9D9"/>
<path d="M497.95 163.632C498.752 161.335 495.542 160.57 495.061 162.101C494.579 163.632 497.95 165.162 497.95 163.632Z" fill="#D9D9D9"/>
<path d="M534.254 151.37C534.335 153.856 537.518 152.941 537.415 151.311C537.312 149.681 533.714 149.982 534.254 151.37Z" fill="#D9D9D9"/>
<path d="M529.104 163.442C526.291 159.768 522.415 166.059 524.335 168.393C526.255 170.727 531.431 164.736 529.104 163.442Z" fill="#741F5E" stroke="#D9D9D9" stroke-width="2"/>
<path d="M539.975 182.377C543.683 184.661 545.487 177.157 543.007 175.762C540.527 174.367 537.417 182.127 539.975 182.377Z" fill="#741F5E" stroke="#D9D9D9" stroke-width="2"/>
<path d="M526.296 186.199C526.849 191.13 533.042 188.597 532.581 185.374C532.12 182.151 525.003 183.555 526.296 186.199Z" fill="#741F5E" stroke="#D9D9D9" stroke-width="2"/>
<path d="M540.173 168.068C541.778 163.476 535.358 161.945 534.395 165.007C533.432 168.068 540.173 171.129 540.173 168.068Z" fill="#741F5E" stroke="#D9D9D9" stroke-width="2"/>
<path d="M520.082 174.689C518.97 179.484 525.5 180.047 526.136 176.866C526.771 173.686 519.762 171.651 520.082 174.689Z" fill="#741F5E" stroke="#D9D9D9" stroke-width="2"/>
<path d="M535.856 142.961C536.591 145.289 539.369 143.223 538.84 141.715C538.311 140.207 534.976 141.846 535.856 142.961Z" fill="#D9D9D9"/>
<path d="M537.32 133.382C537.42 135.867 540.596 134.919 540.481 133.29C540.366 131.661 536.77 131.999 537.32 133.382Z" fill="#D9D9D9"/>
<path d="M546.11 209.571C546.913 207.275 543.702 206.51 543.221 208.04C542.739 209.571 546.11 211.102 546.11 209.571Z" fill="#D9D9D9"/>
<path d="M534.437 176.398C534.535 175.992 537.642 175.074 537.495 174.611C537.348 174.148 534.008 173.967 533.777 173.61C533.546 173.252 533.41 169.5 532.997 169.463C532.584 169.426 531.783 173.041 531.318 173.252C530.854 173.464 528.539 172.895 527.84 173.252C527.141 173.61 530.299 176.398 530.299 176.398C530.299 176.398 528.777 179.448 528.979 180.116C529.182 180.784 532.03 178.241 532.338 178.257C532.645 178.274 534.901 181.302 535.336 181.117C535.77 180.932 534.338 176.803 534.437 176.398Z" fill="#D9D9D9"/>
<defs>
<filter id="filter0_d_1245_4034" x="607.508" y="95.3809" width="264.484" height="261.607" filterUnits="userSpaceOnUse" color-interpolation-filters="sRGB">
<feFlood flood-opacity="0" result="BackgroundImageFix"/>
<feColorMatrix in="SourceAlpha" type="matrix" values="0 0 0 0 0 0 0 0 0 0 0 0 0 0 0 0 0 0 127 0" result="hardAlpha"/>
<feOffset dy="4"/>
<feGaussianBlur stdDeviation="40"/>
<feComposite in2="hardAlpha" operator="out"/>
<feColorMatrix type="matrix" values="0 0 0 0 0.492679 0 0 0 0 0.145394 0 0 0 0 0.934679 0 0 0 0.86 0"/>
<feBlend mode="normal" in2="BackgroundImageFix" result="effect1_dropShadow_1245_4034"/>
<feBlend mode="normal" in="SourceGraphic" in2="effect1_dropShadow_1245_4034" result="shape"/>
</filter>
<filter id="filter1_d_1245_4034" x="706.883" y="101.629" width="282.672" height="281.705" filterUnits="userSpaceOnUse" color-interpolation-filters="sRGB">
<feFlood flood-opacity="0" result="BackgroundImageFix"/>
<feColorMatrix in="SourceAlpha" type="matrix" values="0 0 0 0 0 0 0 0 0 0 0 0 0 0 0 0 0 0 127 0" result="hardAlpha"/>
<feOffset dy="4"/>
<feGaussianBlur stdDeviation="40"/>
<feComposite in2="hardAlpha" operator="out"/>
<feColorMatrix type="matrix" values="0 0 0 0 0.492679 0 0 0 0 0.145394 0 0 0 0 0.934679 0 0 0 0.86 0"/>
<feBlend mode="normal" in2="BackgroundImageFix" result="effect1_dropShadow_1245_4034"/>
<feBlend mode="normal" in="SourceGraphic" in2="effect1_dropShadow_1245_4034" result="shape"/>
</filter>
<filter id="filter2_d_1245_4034" x="233.035" y="104.654" width="282.672" height="281.705" filterUnits="userSpaceOnUse" color-interpolation-filters="sRGB">
<feFlood flood-opacity="0" result="BackgroundImageFix"/>
<feColorMatrix in="SourceAlpha" type="matrix" values="0 0 0 0 0 0 0 0 0 0 0 0 0 0 0 0 0 0 127 0" result="hardAlpha"/>
<feOffset dy="4"/>
<feGaussianBlur stdDeviation="40"/>
<feComposite in2="hardAlpha" operator="out"/>
<feColorMatrix type="matrix" values="0 0 0 0 0.492679 0 0 0 0 0.145394 0 0 0 0 0.934679 0 0 0 0.86 0"/>
<feBlend mode="normal" in2="BackgroundImageFix" result="effect1_dropShadow_1245_4034"/>
<feBlend mode="normal" in="SourceGraphic" in2="effect1_dropShadow_1245_4034" result="shape"/>
</filter>
<filter id="filter3_d_1245_4034" x="332.512" y="98.998" width="264.484" height="261.607" filterUnits="userSpaceOnUse" color-interpolation-filters="sRGB">
<feFlood flood-opacity="0" result="BackgroundImageFix"/>
<feColorMatrix in="SourceAlpha" type="matrix" values="0 0 0 0 0 0 0 0 0 0 0 0 0 0 0 0 0 0 127 0" result="hardAlpha"/>
<feOffset dy="4"/>
<feGaussianBlur stdDeviation="40"/>
<feComposite in2="hardAlpha" operator="out"/>
<feColorMatrix type="matrix" values="0 0 0 0 0.492679 0 0 0 0 0.145394 0 0 0 0 0.934679 0 0 0 0.86 0"/>
<feBlend mode="normal" in2="BackgroundImageFix" result="effect1_dropShadow_1245_4034"/>
<feBlend mode="normal" in="SourceGraphic" in2="effect1_dropShadow_1245_4034" result="shape"/>
</filter>
<filter id="filter4_d_1245_4034" x="725.543" y="41.75" width="494.191" height="322.412" filterUnits="userSpaceOnUse" color-interpolation-filters="sRGB">
<feFlood flood-opacity="0" result="BackgroundImageFix"/>
<feColorMatrix in="SourceAlpha" type="matrix" values="0 0 0 0 0 0 0 0 0 0 0 0 0 0 0 0 0 0 127 0" result="hardAlpha"/>
<feOffset dy="4"/>
<feGaussianBlur stdDeviation="62.5"/>
<feComposite in2="hardAlpha" operator="out"/>
<feColorMatrix type="matrix" values="0 0 0 0 0.602456 0 0 0 0 0.862489 0 0 0 0 0.9525 0 0 0 0.54 0"/>
<feBlend mode="normal" in2="BackgroundImageFix" result="effect1_dropShadow_1245_4034"/>
<feBlend mode="normal" in="SourceGraphic" in2="effect1_dropShadow_1245_4034" result="shape"/>
</filter>
<filter id="filter5_d_1245_4034" x="0.402344" y="41.75" width="494.191" height="322.412" filterUnits="userSpaceOnUse" color-interpolation-filters="sRGB">
<feFlood flood-opacity="0" result="BackgroundImageFix"/>
<feColorMatrix in="SourceAlpha" type="matrix" values="0 0 0 0 0 0 0 0 0 0 0 0 0 0 0 0 0 0 127 0" result="hardAlpha"/>
<feOffset dy="4"/>
<feGaussianBlur stdDeviation="62.5"/>
<feComposite in2="hardAlpha" operator="out"/>
<feColorMatrix type="matrix" values="0 0 0 0 0.602456 0 0 0 0 0.862489 0 0 0 0 0.9525 0 0 0 0.54 0"/>
<feBlend mode="normal" in2="BackgroundImageFix" result="effect1_dropShadow_1245_4034"/>
<feBlend mode="normal" in="SourceGraphic" in2="effect1_dropShadow_1245_4034" result="shape"/>
</filter>
<filter id="filter6_d_1245_4034" x="621.602" y="26.3633" width="493.363" height="321.506" filterUnits="userSpaceOnUse" color-interpolation-filters="sRGB">
<feFlood flood-opacity="0" result="BackgroundImageFix"/>
<feColorMatrix in="SourceAlpha" type="matrix" values="0 0 0 0 0 0 0 0 0 0 0 0 0 0 0 0 0 0 127 0" result="hardAlpha"/>
<feOffset dy="4"/>
<feGaussianBlur stdDeviation="62.5"/>
<feComposite in2="hardAlpha" operator="out"/>
<feColorMatrix type="matrix" values="0 0 0 0 0.602456 0 0 0 0 0.862489 0 0 0 0 0.9525 0 0 0 0.54 0"/>
<feBlend mode="normal" in2="BackgroundImageFix" result="effect1_dropShadow_1245_4034"/>
<feBlend mode="normal" in="SourceGraphic" in2="effect1_dropShadow_1245_4034" result="shape"/>
</filter>
<filter id="filter7_d_1245_4034" x="110.121" y="26.3633" width="493.363" height="321.506" filterUnits="userSpaceOnUse" color-interpolation-filters="sRGB">
<feFlood flood-opacity="0" result="BackgroundImageFix"/>
<feColorMatrix in="SourceAlpha" type="matrix" values="0 0 0 0 0 0 0 0 0 0 0 0 0 0 0 0 0 0 127 0" result="hardAlpha"/>
<feOffset dy="4"/>
<feGaussianBlur stdDeviation="62.5"/>
<feComposite in2="hardAlpha" operator="out"/>
<feColorMatrix type="matrix" values="0 0 0 0 0.602456 0 0 0 0 0.862489 0 0 0 0 0.9525 0 0 0 0.54 0"/>
<feBlend mode="normal" in2="BackgroundImageFix" result="effect1_dropShadow_1245_4034"/>
<feBlend mode="normal" in="SourceGraphic" in2="effect1_dropShadow_1245_4034" result="shape"/>
</filter>
<filter id="filter8_d_1245_4034" x="232.219" y="0.896484" width="493.965" height="327.059" filterUnits="userSpaceOnUse" color-interpolation-filters="sRGB">
<feFlood flood-opacity="0" result="BackgroundImageFix"/>
<feColorMatrix in="SourceAlpha" type="matrix" values="0 0 0 0 0 0 0 0 0 0 0 0 0 0 0 0 0 0 127 0" result="hardAlpha"/>
<feOffset dy="4"/>
<feGaussianBlur stdDeviation="62.5"/>
<feComposite in2="hardAlpha" operator="out"/>
<feColorMatrix type="matrix" values="0 0 0 0 0.602456 0 0 0 0 0.862489 0 0 0 0 0.9525 0 0 0 0.54 0"/>
<feBlend mode="normal" in2="BackgroundImageFix" result="effect1_dropShadow_1245_4034"/>
<feBlend mode="normal" in="SourceGraphic" in2="effect1_dropShadow_1245_4034" result="shape"/>
</filter>
<filter id="filter9_d_1245_4034" x="482.996" y="1.7793" width="492.551" height="326.176" filterUnits="userSpaceOnUse" color-interpolation-filters="sRGB">
<feFlood flood-opacity="0" result="BackgroundImageFix"/>
<feColorMatrix in="SourceAlpha" type="matrix" values="0 0 0 0 0 0 0 0 0 0 0 0 0 0 0 0 0 0 127 0" result="hardAlpha"/>
<feOffset dy="4"/>
<feGaussianBlur stdDeviation="62.5"/>
<feComposite in2="hardAlpha" operator="out"/>
<feColorMatrix type="matrix" values="0 0 0 0 0.602456 0 0 0 0 0.862489 0 0 0 0 0.9525 0 0 0 0.54 0"/>
<feBlend mode="normal" in2="BackgroundImageFix" result="effect1_dropShadow_1245_4034"/>
<feBlend mode="normal" in="SourceGraphic" in2="effect1_dropShadow_1245_4034" result="shape"/>
</filter>
<filter id="filter10_d_1245_4034" x="465.78" y="37.227" width="277.214" height="286.415" filterUnits="userSpaceOnUse" color-interpolation-filters="sRGB">
<feFlood flood-opacity="0" result="BackgroundImageFix"/>
<feColorMatrix in="SourceAlpha" type="matrix" values="0 0 0 0 0 0 0 0 0 0 0 0 0 0 0 0 0 0 127 0" result="hardAlpha"/>
<feOffset dy="4"/>
<feGaussianBlur stdDeviation="44.95"/>
<feComposite in2="hardAlpha" operator="out"/>
<feColorMatrix type="matrix" values="0 0 0 0 0.407843 0 0 0 0 0.0941176 0 0 0 0 0.129412 0 0 0 1 0"/>
<feBlend mode="normal" in2="BackgroundImageFix" result="effect1_dropShadow_1245_4034"/>
<feBlend mode="normal" in="SourceGraphic" in2="effect1_dropShadow_1245_4034" result="shape"/>
</filter>
<filter id="filter11_d_1245_4034" x="457.559" y="30.1453" width="291.151" height="299.891" filterUnits="userSpaceOnUse" color-interpolation-filters="sRGB">
<feFlood flood-opacity="0" result="BackgroundImageFix"/>
<feColorMatrix in="SourceAlpha" type="matrix" values="0 0 0 0 0 0 0 0 0 0 0 0 0 0 0 0 0 0 127 0" result="hardAlpha"/>
<feOffset dy="4"/>
<feGaussianBlur stdDeviation="51.4"/>
<feComposite in2="hardAlpha" operator="out"/>
<feColorMatrix type="matrix" values="0 0 0 0 0.847059 0 0 0 0 0.709804 0 0 0 0 0.458824 0 0 0 1 0"/>
<feBlend mode="normal" in2="BackgroundImageFix" result="effect1_dropShadow_1245_4034"/>
<feBlend mode="normal" in="SourceGraphic" in2="effect1_dropShadow_1245_4034" result="shape"/>
</filter>
<filter id="filter12_d_1245_4034" x="534.608" y="32.3676" width="281.015" height="294.884" filterUnits="userSpaceOnUse" color-interpolation-filters="sRGB">
<feFlood flood-opacity="0" result="BackgroundImageFix"/>
<feColorMatrix in="SourceAlpha" type="matrix" values="0 0 0 0 0 0 0 0 0 0 0 0 0 0 0 0 0 0 127 0" result="hardAlpha"/>
<feOffset dy="4"/>
<feGaussianBlur stdDeviation="44.95"/>
<feComposite in2="hardAlpha" operator="out"/>
<feColorMatrix type="matrix" values="0 0 0 0 0.407843 0 0 0 0 0.0941176 0 0 0 0 0.129412 0 0 0 1 0"/>
<feBlend mode="normal" in2="BackgroundImageFix" result="effect1_dropShadow_1245_4034"/>
<feBlend mode="normal" in="SourceGraphic" in2="effect1_dropShadow_1245_4034" result="shape"/>
</filter>
<filter id="filter13_d_1245_4034" x="526.622" y="23.0496" width="295.194" height="308.891" filterUnits="userSpaceOnUse" color-interpolation-filters="sRGB">
<feFlood flood-opacity="0" result="BackgroundImageFix"/>
<feColorMatrix in="SourceAlpha" type="matrix" values="0 0 0 0 0 0 0 0 0 0 0 0 0 0 0 0 0 0 127 0" result="hardAlpha"/>
<feOffset dy="4"/>
<feGaussianBlur stdDeviation="51.4"/>
<feComposite in2="hardAlpha" operator="out"/>
<feColorMatrix type="matrix" values="0 0 0 0 0.847059 0 0 0 0 0.709804 0 0 0 0 0.458824 0 0 0 1 0"/>
<feBlend mode="normal" in2="BackgroundImageFix" result="effect1_dropShadow_1245_4034"/>
<feBlend mode="normal" in="SourceGraphic" in2="effect1_dropShadow_1245_4034" result="shape"/>
</filter>
<filter id="filter14_d_1245_4034" x="386.112" y="30.557" width="281.015" height="294.884" filterUnits="userSpaceOnUse" color-interpolation-filters="sRGB">
<feFlood flood-opacity="0" result="BackgroundImageFix"/>
<feColorMatrix in="SourceAlpha" type="matrix" values="0 0 0 0 0 0 0 0 0 0 0 0 0 0 0 0 0 0 127 0" result="hardAlpha"/>
<feOffset dy="4"/>
<feGaussianBlur stdDeviation="44.95"/>
<feComposite in2="hardAlpha" operator="out"/>
<feColorMatrix type="matrix" values="0 0 0 0 0.407843 0 0 0 0 0.0941176 0 0 0 0 0.129412 0 0 0 1 0"/>
<feBlend mode="normal" in2="BackgroundImageFix" result="effect1_dropShadow_1245_4034"/>
<feBlend mode="normal" in="SourceGraphic" in2="effect1_dropShadow_1245_4034" result="shape"/>
</filter>
<filter id="filter15_d_1245_4034" x="379.919" y="21.2391" width="295.194" height="308.891" filterUnits="userSpaceOnUse" color-interpolation-filters="sRGB">
<feFlood flood-opacity="0" result="BackgroundImageFix"/>
<feColorMatrix in="SourceAlpha" type="matrix" values="0 0 0 0 0 0 0 0 0 0 0 0 0 0 0 0 0 0 127 0" result="hardAlpha"/>
<feOffset dy="4"/>
<feGaussianBlur stdDeviation="51.4"/>
<feComposite in2="hardAlpha" operator="out"/>
<feColorMatrix type="matrix" values="0 0 0 0 0.847059 0 0 0 0 0.709804 0 0 0 0 0.458824 0 0 0 1 0"/>
<feBlend mode="normal" in2="BackgroundImageFix" result="effect1_dropShadow_1245_4034"/>
<feBlend mode="normal" in="SourceGraphic" in2="effect1_dropShadow_1245_4034" result="shape"/>
</filter>
<filter id="filter16_d_1245_4034" x="386.112" y="30.557" width="281.015" height="294.884" filterUnits="userSpaceOnUse" color-interpolation-filters="sRGB">
<feFlood flood-opacity="0" result="BackgroundImageFix"/>
<feColorMatrix in="SourceAlpha" type="matrix" values="0 0 0 0 0 0 0 0 0 0 0 0 0 0 0 0 0 0 127 0" result="hardAlpha"/>
<feOffset dy="4"/>
<feGaussianBlur stdDeviation="44.95"/>
<feComposite in2="hardAlpha" operator="out"/>
<feColorMatrix type="matrix" values="0 0 0 0 0.407843 0 0 0 0 0.0941176 0 0 0 0 0.129412 0 0 0 1 0"/>
<feBlend mode="normal" in2="BackgroundImageFix" result="effect1_dropShadow_1245_4034"/>
<feBlend mode="normal" in="SourceGraphic" in2="effect1_dropShadow_1245_4034" result="shape"/>
</filter>
<filter id="filter17_d_1245_4034" x="379.919" y="21.2391" width="295.194" height="308.891" filterUnits="userSpaceOnUse" color-interpolation-filters="sRGB">
<feFlood flood-opacity="0" result="BackgroundImageFix"/>
<feColorMatrix in="SourceAlpha" type="matrix" values="0 0 0 0 0 0 0 0 0 0 0 0 0 0 0 0 0 0 127 0" result="hardAlpha"/>
<feOffset dy="4"/>
<feGaussianBlur stdDeviation="51.4"/>
<feComposite in2="hardAlpha" operator="out"/>
<feColorMatrix type="matrix" values="0 0 0 0 0.847059 0 0 0 0 0.709804 0 0 0 0 0.458824 0 0 0 1 0"/>
<feBlend mode="normal" in2="BackgroundImageFix" result="effect1_dropShadow_1245_4034"/>
<feBlend mode="normal" in="SourceGraphic" in2="effect1_dropShadow_1245_4034" result="shape"/>
</filter>
<linearGradient id="paint0_linear_1245_4034" x1="705.776" y1="254.438" x2="731.95" y2="196.608" gradientUnits="userSpaceOnUse">
<stop offset="0.095" stop-color="#D7B575"/>
<stop offset="0.32" stop-color="#BED775"/>
<stop offset="0.99" stop-color="#4E3D71"/>
</linearGradient>
<linearGradient id="paint1_linear_1245_4034" x1="693.785" y1="184.109" x2="760.594" y2="255.919" gradientUnits="userSpaceOnUse">
<stop stop-color="#681821"/>
<stop offset="1" stop-color="#6EC276"/>
</linearGradient>
<linearGradient id="paint2_linear_1245_4034" x1="765.619" y1="231.121" x2="733.224" y2="160.732" gradientUnits="userSpaceOnUse">
<stop offset="0.095" stop-color="#D7B575"/>
<stop offset="0.32" stop-color="#BED775"/>
<stop offset="0.99" stop-color="#4E3D71"/>
</linearGradient>
<linearGradient id="paint3_linear_1245_4034" x1="689.544" y1="179.568" x2="755.958" y2="209.36" gradientUnits="userSpaceOnUse">
<stop stop-color="#681821"/>
<stop offset="1" stop-color="#378F6A"/>
</linearGradient>
<linearGradient id="paint4_linear_1245_4034" x1="808.585" y1="276.974" x2="840.433" y2="208.38" gradientUnits="userSpaceOnUse">
<stop offset="0.095" stop-color="#D7B575"/>
<stop offset="0.32" stop-color="#BED775"/>
<stop offset="0.99" stop-color="#4E3D71"/>
</linearGradient>
<linearGradient id="paint5_linear_1245_4034" x1="794.255" y1="192.653" x2="874.675" y2="277.221" gradientUnits="userSpaceOnUse">
<stop stop-color="#681821"/>
<stop offset="1" stop-color="#6EC276"/>
</linearGradient>
<linearGradient id="paint6_linear_1245_4034" x1="878.677" y1="249.214" x2="839.349" y2="165.254" gradientUnits="userSpaceOnUse">
<stop offset="0.095" stop-color="#D7B575"/>
<stop offset="0.32" stop-color="#BED775"/>
<stop offset="0.99" stop-color="#4E3D71"/>
</linearGradient>
<linearGradient id="paint7_linear_1245_4034" x1="789.242" y1="187.202" x2="867.941" y2="221.54" gradientUnits="userSpaceOnUse">
<stop stop-color="#681821"/>
<stop offset="1" stop-color="#378F6A"/>
</linearGradient>
<linearGradient id="paint8_linear_1245_4034" x1="414.005" y1="280" x2="382.157" y2="211.405" gradientUnits="userSpaceOnUse">
<stop offset="0.095" stop-color="#D7B575"/>
<stop offset="0.32" stop-color="#BED775"/>
<stop offset="0.99" stop-color="#4E3D71"/>
</linearGradient>
<linearGradient id="paint9_linear_1245_4034" x1="428.335" y1="195.679" x2="347.915" y2="280.247" gradientUnits="userSpaceOnUse">
<stop stop-color="#681821"/>
<stop offset="1" stop-color="#6EC276"/>
</linearGradient>
<linearGradient id="paint10_linear_1245_4034" x1="343.913" y1="252.239" x2="383.24" y2="168.279" gradientUnits="userSpaceOnUse">
<stop offset="0.095" stop-color="#D7B575"/>
<stop offset="0.32" stop-color="#BED775"/>
<stop offset="0.99" stop-color="#4E3D71"/>
</linearGradient>
<linearGradient id="paint11_linear_1245_4034" x1="433.348" y1="190.228" x2="354.649" y2="224.565" gradientUnits="userSpaceOnUse">
<stop stop-color="#681821"/>
<stop offset="1" stop-color="#378F6A"/>
</linearGradient>
<linearGradient id="paint12_linear_1245_4034" x1="498.728" y1="258.055" x2="472.553" y2="200.225" gradientUnits="userSpaceOnUse">
<stop offset="0.095" stop-color="#D7B575"/>
<stop offset="0.32" stop-color="#BED775"/>
<stop offset="0.99" stop-color="#4E3D71"/>
</linearGradient>
<linearGradient id="paint13_linear_1245_4034" x1="510.718" y1="187.726" x2="443.91" y2="259.536" gradientUnits="userSpaceOnUse">
<stop stop-color="#681821"/>
<stop offset="1" stop-color="#6EC276"/>
</linearGradient>
<linearGradient id="paint14_linear_1245_4034" x1="438.885" y1="234.738" x2="471.28" y2="164.349" gradientUnits="userSpaceOnUse">
<stop offset="0.095" stop-color="#D7B575"/>
<stop offset="0.32" stop-color="#BED775"/>
<stop offset="0.99" stop-color="#4E3D71"/>
</linearGradient>
<linearGradient id="paint15_linear_1245_4034" x1="514.96" y1="183.185" x2="448.546" y2="212.977" gradientUnits="userSpaceOnUse">
<stop stop-color="#681821"/>
<stop offset="1" stop-color="#378F6A"/>
</linearGradient>
<linearGradient id="paint16_linear_1245_4034" x1="621.737" y1="324.683" x2="579.321" y2="157.879" gradientUnits="userSpaceOnUse">
<stop stop-color="#7E25EE" stop-opacity="0.86"/>
<stop offset="1" stop-color="#182256"/>
</linearGradient>
<linearGradient id="paint17_linear_1245_4034" x1="662.593" y1="322.498" x2="639.198" y2="142.39" gradientUnits="userSpaceOnUse">
<stop stop-color="#7E25EE" stop-opacity="0.86"/>
<stop offset="0.745" stop-color="#7725E4" stop-opacity="0.8698"/>
<stop offset="1" stop-color="#182256"/>
</linearGradient>
<linearGradient id="paint18_linear_1245_4034" x1="484.626" y1="311.169" x2="602.295" y2="152.623" gradientUnits="userSpaceOnUse">
<stop offset="0.26" stop-color="#5B6BFD"/>
<stop offset="0.84" stop-color="#182256"/>
</linearGradient>
<linearGradient id="paint19_linear_1245_4034" x1="210.285" y1="321.847" x2="252.559" y2="208.504" gradientUnits="userSpaceOnUse">
<stop stop-color="#7E25EE" stop-opacity="0.86"/>
<stop offset="1" stop-color="#182256"/>
</linearGradient>
<linearGradient id="paint20_linear_1245_4034" x1="180.56" y1="316.732" x2="211.007" y2="193.583" gradientUnits="userSpaceOnUse">
<stop stop-color="#7E25EE" stop-opacity="0.86"/>
<stop offset="0.745" stop-color="#7725E4" stop-opacity="0.8698"/>
<stop offset="1" stop-color="#182256"/>
</linearGradient>
<linearGradient id="paint21_linear_1245_4034" x1="312.26" y1="324.713" x2="248.849" y2="202.35" gradientUnits="userSpaceOnUse">
<stop offset="0.26" stop-color="#5B6BFD"/>
<stop offset="0.84" stop-color="#182256"/>
</linearGradient>
<linearGradient id="paint22_linear_1245_4034" x1="211.724" y1="248.951" x2="211.223" y2="177.136" gradientUnits="userSpaceOnUse">
<stop offset="0.783776" stop-color="#D02BC0"/>
<stop offset="0.943668" stop-color="#5F1780"/>
</linearGradient>
<linearGradient id="paint23_linear_1245_4034" x1="280.574" y1="232.87" x2="238.064" y2="186.827" gradientUnits="userSpaceOnUse">
<stop offset="0.575" stop-color="#B05DE2"/>
<stop offset="1" stop-color="#5F1780"/>
</linearGradient>
<linearGradient id="paint24_linear_1245_4034" x1="1016.71" y1="309.175" x2="974.441" y2="195.832" gradientUnits="userSpaceOnUse">
<stop stop-color="#7E25EE" stop-opacity="0.86"/>
<stop offset="1" stop-color="#182256"/>
</linearGradient>
<linearGradient id="paint25_linear_1245_4034" x1="1046.44" y1="304.061" x2="1015.99" y2="180.912" gradientUnits="userSpaceOnUse">
<stop stop-color="#7E25EE" stop-opacity="0.86"/>
<stop offset="0.745" stop-color="#7725E4" stop-opacity="0.8698"/>
<stop offset="1" stop-color="#182256"/>
</linearGradient>
<linearGradient id="paint26_linear_1245_4034" x1="914.736" y1="312.041" x2="978.147" y2="189.678" gradientUnits="userSpaceOnUse">
<stop offset="0.26" stop-color="#5B6BFD"/>
<stop offset="0.84" stop-color="#182256"/>
</linearGradient>
<linearGradient id="paint27_linear_1245_4034" x1="1015.27" y1="236.279" x2="1015.77" y2="164.464" gradientUnits="userSpaceOnUse">
<stop offset="0.783776" stop-color="#D02BC0"/>
<stop offset="0.943668" stop-color="#5F1780"/>
</linearGradient>
<linearGradient id="paint28_linear_1245_4034" x1="946.422" y1="220.198" x2="988.932" y2="174.155" gradientUnits="userSpaceOnUse">
<stop offset="0.575" stop-color="#B05DE2"/>
<stop offset="1" stop-color="#5F1780"/>
</linearGradient>
<radialGradient id="paint29_radial_1245_4034" cx="0" cy="0" r="1" gradientUnits="userSpaceOnUse" gradientTransform="translate(1043.06 208.281) rotate(-178.491) scale(218.486 62.9673)">
<stop stop-color="#75D7D6"/>
<stop offset="0.288144" stop-color="#3CC1EC"/>
<stop offset="0.836667" stop-color="#C213BB"/>
<stop offset="1" stop-color="#D575D7"/>
</radialGradient>
<radialGradient id="paint30_radial_1245_4034" cx="0" cy="0" r="1" gradientUnits="userSpaceOnUse" gradientTransform="translate(177.079 208.281) rotate(-1.5085) scale(218.486 62.9673)">
<stop stop-color="#75D7D6"/>
<stop offset="0.288144" stop-color="#3CC1EC"/>
<stop offset="0.836667" stop-color="#C213BB"/>
<stop offset="1" stop-color="#D575D7"/>
</radialGradient>
<radialGradient id="paint31_radial_1245_4034" cx="0" cy="0" r="1" gradientUnits="userSpaceOnUse" gradientTransform="translate(938.463 192.324) rotate(-178.505) scale(217.747 62.1806)">
<stop stop-color="#75D7D6"/>
<stop offset="0.288144" stop-color="#3CC1EC"/>
<stop offset="0.836667" stop-color="#C213BB"/>
<stop offset="1" stop-color="#D575D7"/>
</radialGradient>
<radialGradient id="paint32_radial_1245_4034" cx="0" cy="0" r="1" gradientUnits="userSpaceOnUse" gradientTransform="translate(286.623 192.324) rotate(-1.4947) scale(217.747 62.1806)">
<stop stop-color="#75D7D6"/>
<stop offset="0.288144" stop-color="#3CC1EC"/>
<stop offset="0.836667" stop-color="#C213BB"/>
<stop offset="1" stop-color="#D575D7"/>
</radialGradient>
<radialGradient id="paint33_radial_1245_4034" cx="0" cy="0" r="1" gradientUnits="userSpaceOnUse" gradientTransform="translate(408.896 172.074) rotate(-1.5085) scale(218.486 62.9673)">
<stop stop-color="#75D7D6"/>
<stop offset="0.288144" stop-color="#3CC1EC"/>
<stop offset="0.836667" stop-color="#C213BB"/>
<stop offset="1" stop-color="#D575D7"/>
</radialGradient>
<radialGradient id="paint34_radial_1245_4034" cx="0" cy="0" r="1" gradientUnits="userSpaceOnUse" gradientTransform="translate(799.045 172.074) rotate(-178.486) scale(217.749 62.9672)">
<stop stop-color="#75D7D6"/>
<stop offset="0.288144" stop-color="#3CC1EC"/>
<stop offset="0.836667" stop-color="#C213BB"/>
<stop offset="1" stop-color="#D575D7"/>
</radialGradient>
<linearGradient id="paint35_linear_1245_4034" x1="625.099" y1="216.481" x2="574.62" y2="119.515" gradientUnits="userSpaceOnUse">
<stop stop-color="#71D0CF"/>
<stop offset="0.305" stop-color="#5BA7A6"/>
<stop offset="0.78" stop-color="#75D7D6"/>
</linearGradient>
<linearGradient id="paint36_linear_1245_4034" x1="621.048" y1="212.84" x2="579.752" y2="126.12" gradientUnits="userSpaceOnUse">
<stop offset="0.485" stop-color="#B32169"/>
<stop offset="1" stop-color="#3029BA"/>
</linearGradient>
<linearGradient id="paint37_linear_1245_4034" x1="674.15" y1="233.568" x2="674.15" y2="115.171" gradientUnits="userSpaceOnUse">
<stop stop-color="#71D0CF"/>
<stop offset="0.305" stop-color="#5BA7A6"/>
<stop offset="0.78" stop-color="#75D7D6"/>
</linearGradient>
<linearGradient id="paint38_linear_1245_4034" x1="672.567" y1="226.129" x2="677.067" y2="122.662" gradientUnits="userSpaceOnUse">
<stop offset="0.485" stop-color="#B32169"/>
<stop offset="1" stop-color="#3029BA"/>
</linearGradient>
<linearGradient id="paint39_linear_1245_4034" x1="527.584" y1="231.757" x2="527.584" y2="113.361" gradientUnits="userSpaceOnUse">
<stop stop-color="#71D0CF"/>
<stop offset="0.305" stop-color="#5BA7A6"/>
<stop offset="0.78" stop-color="#75D7D6"/>
</linearGradient>
<linearGradient id="paint40_linear_1245_4034" x1="529.167" y1="224.318" x2="524.668" y2="120.851" gradientUnits="userSpaceOnUse">
<stop offset="0.485" stop-color="#B32169"/>
<stop offset="1" stop-color="#3029BA"/>
</linearGradient>
<linearGradient id="paint41_linear_1245_4034" x1="527.584" y1="231.757" x2="527.584" y2="113.361" gradientUnits="userSpaceOnUse">
<stop stop-color="#71D0CF"/>
<stop offset="0.305" stop-color="#5BA7A6"/>
<stop offset="0.78" stop-color="#75D7D6"/>
</linearGradient>
<linearGradient id="paint42_linear_1245_4034" x1="529.167" y1="224.318" x2="524.668" y2="120.851" gradientUnits="userSpaceOnUse">
<stop offset="0.485" stop-color="#B32169"/>
<stop offset="1" stop-color="#3029BA"/>
</linearGradient>
</defs>
</svg>
