<svg width="1425" height="381" viewBox="0 0 1425 381" fill="none" xmlns="http://www.w3.org/2000/svg">
<g filter="url(#filter0_d_1238_2205)">
<path d="M1220.96 121.302C1250.44 118.016 1281.35 142.248 1298.47 160.306C1315.59 178.364 1181.95 154.469 1241.41 181.592C1300.86 208.714 1195.39 204.143 1133.34 187.792C1071.29 171.441 1072.3 158.963 1021.95 141.76C971.598 124.557 1041.07 127.269 1061.32 137.576C1081.57 147.882 1103.38 167.488 1131.1 167.488C1142.95 167.488 1146.99 158.612 1135.51 151.989C1124.02 145.366 1101.91 147.185 1104.08 144.472C1106.25 141.76 1123.92 132.721 1138.83 134.786C1152.75 136.714 1161.54 143.352 1175.31 151.989C1197.05 165.629 1236.2 152.222 1229.05 141.76C1223.33 133.391 1199.84 138.273 1188.82 141.76C1187.25 136.31 1191.49 124.588 1220.96 121.302Z" fill="url(#paint0_radial_1238_2205)"/>
</g>
<g filter="url(#filter1_d_1238_2205)">
<path d="M204.038 121.302C174.565 118.016 143.649 142.248 126.528 160.306C109.408 178.364 243.046 154.469 183.594 181.592C124.143 208.714 229.61 204.143 291.662 187.792C353.714 171.441 352.703 158.963 403.053 141.76C453.402 124.557 383.934 127.269 363.683 137.576C343.432 147.882 321.623 167.488 293.901 167.488C282.054 167.488 278.009 158.612 289.495 151.989C300.981 145.366 323.085 147.185 320.918 144.472C318.751 141.76 301.082 132.721 286.172 134.786C272.254 136.714 263.461 143.352 249.692 151.989C227.948 165.629 188.796 152.222 195.947 141.76C201.668 133.391 225.155 138.273 236.183 141.76C237.749 136.31 233.511 124.588 204.038 121.302Z" fill="url(#paint1_radial_1238_2205)"/>
</g>
<g filter="url(#filter2_d_1238_2205)">
<path d="M1094.23 139.298C1123.6 136.053 1154.41 159.983 1171.48 177.815C1188.54 195.647 1055.35 172.051 1114.6 198.834C1173.85 225.618 1068.74 221.103 1006.9 204.957C945.058 188.81 946.066 176.489 895.887 159.501C845.707 142.513 914.941 145.191 935.123 155.368C955.306 165.546 977.042 184.907 1004.67 184.907C1016.48 184.907 1020.51 176.142 1009.06 169.602C997.614 163.062 975.584 164.857 977.744 162.179C979.903 159.501 997.513 150.575 1012.37 152.614C1026.24 154.517 1035.01 161.073 1048.73 169.602C1070.4 183.071 1109.42 169.831 1102.29 159.501C1096.59 151.236 1073.18 156.057 1062.19 159.501C1060.63 154.118 1064.86 142.543 1094.23 139.298Z" fill="url(#paint2_radial_1238_2205)"/>
</g>
<g filter="url(#filter3_d_1238_2205)">
<path d="M336.771 139.298C307.397 136.053 276.586 159.983 259.523 177.815C242.46 195.647 375.647 172.051 316.396 198.834C257.146 225.618 362.256 221.103 424.099 204.957C485.942 188.81 484.934 176.489 535.113 159.501C585.293 142.513 516.059 145.191 495.877 155.368C475.694 165.546 453.958 184.907 426.331 184.907C414.524 184.907 410.492 176.142 421.939 169.602C433.386 163.062 455.416 164.857 453.256 162.179C451.097 159.501 433.487 150.575 418.627 152.614C404.756 154.517 395.993 161.073 382.271 169.602C360.601 183.071 321.58 169.831 328.707 159.501C334.409 151.236 357.817 156.057 368.808 159.501C370.368 154.118 366.144 142.543 336.771 139.298Z" fill="url(#paint3_radial_1238_2205)"/>
</g>
<g filter="url(#filter4_d_1238_2205)">
<path d="M485.038 161.302C455.565 158.016 424.649 182.248 407.528 200.306C390.408 218.364 524.046 194.469 464.594 221.592C405.143 248.714 512.849 252.851 574.901 236.5C636.954 220.149 633.703 198.963 684.053 181.76C734.402 164.557 663.251 164.48 643 174.786C622.749 185.093 602.623 207.488 574.901 207.488C563.054 207.488 559.009 198.612 570.495 191.989C581.981 185.366 604.085 187.185 601.918 184.472C599.751 181.76 582.082 172.721 567.172 174.786C553.254 176.714 544.461 183.352 530.692 191.989C508.948 205.629 469.796 192.222 476.947 181.76C482.668 173.391 506.155 178.273 517.183 181.76C518.749 176.31 514.511 164.588 485.038 161.302Z" fill="url(#paint4_radial_1238_2205)"/>
</g>
<g filter="url(#filter5_d_1238_2205)">
<path d="M925.229 161.302C954.603 158.016 985.414 182.248 1002.48 200.306C1019.54 218.364 886.353 194.469 945.604 221.592C1004.85 248.714 897.512 251.351 835.669 235C773.827 218.649 777.066 198.963 726.887 181.76C676.707 164.557 752.318 164.48 772.5 174.786C792.682 185.093 808.042 207.488 835.669 207.488C847.476 207.488 851.508 198.612 840.061 191.989C828.614 185.366 806.584 187.185 808.744 184.472C810.903 181.76 828.513 172.721 843.373 174.786C857.244 176.714 866.007 183.352 879.729 191.989C901.399 205.629 940.42 192.222 933.293 181.76C927.591 173.391 904.183 178.273 893.192 181.76C891.632 176.31 895.856 164.588 925.229 161.302Z" fill="url(#paint5_radial_1238_2205)"/>
</g>
<g filter="url(#filter6_d_1238_2205)">
<path d="M547.233 198.731C548.86 211.361 526.073 208.612 516.152 213.207C506.23 217.803 532.705 223.991 547.233 228.727C561.761 233.463 543.643 267.159 553.909 276.369C564.175 285.58 569.315 249.881 575.707 234.726C582.1 219.57 625.653 248.385 635.271 234.726C644.889 221.067 602.128 220.229 593.887 208.792C585.647 197.356 609.442 169.611 601.557 165.258C597.214 162.861 587.911 184.208 579.775 192.417C571.639 200.626 554.461 149.671 543.746 150.739C533.031 151.807 545.199 182.945 547.233 198.731Z" fill="url(#paint6_linear_1238_2205)"/>
</g>
<g filter="url(#filter7_d_1238_2205)">
<path d="M558.937 228.271C557.749 223.16 515.413 220.024 520.335 215.714C525.258 211.404 544.393 211.283 550.021 208.527C555.65 205.771 542.385 160.51 546.203 159.805C550.021 159.101 567.693 194.781 575.76 197.193C583.828 199.605 596.246 166.249 600.154 169.04C604.062 171.831 586.227 204.678 586.695 208.527C587.164 212.377 626.725 224.493 628.492 231.604C630.26 238.715 582.131 225.162 577.779 226.808C573.427 228.454 563.599 271.494 556.81 273.817C550.021 276.141 560.126 233.381 558.937 228.271Z" fill="url(#paint7_linear_1238_2205)"/>
</g>
<path d="M533.89 214.95C532.917 217.487 536.808 218.333 537.392 216.642C537.976 214.95 533.89 213.259 533.89 214.95Z" fill="#D9D9D9"/>
<path d="M555.081 216.972C556.101 214.457 552.226 213.526 551.611 215.203C550.995 216.881 555.049 218.663 555.081 216.972Z" fill="#D9D9D9"/>
<path d="M544.862 216.745C545.882 214.231 542.008 213.299 541.392 214.977C540.777 216.655 544.83 218.436 544.862 216.745Z" fill="#D9D9D9"/>
<path d="M560.601 196.853C559.628 199.39 563.519 200.235 564.103 198.544C564.687 196.853 560.601 195.162 560.601 196.853Z" fill="#D9D9D9"/>
<path d="M555.413 186.997C554.44 189.534 558.332 190.38 558.915 188.688C559.499 186.997 555.413 185.306 555.413 186.997Z" fill="#D9D9D9"/>
<path d="M579.815 201.154C578.843 203.69 582.734 204.536 583.318 202.845C583.902 201.154 579.815 199.463 579.815 201.154Z" fill="#D9D9D9"/>
<path d="M584.761 193.583C583.788 196.12 587.679 196.965 588.263 195.274C588.847 193.583 584.761 191.892 584.761 193.583Z" fill="#D9D9D9"/>
<path d="M590.534 183.728C589.561 186.265 593.453 187.11 594.037 185.419C594.62 183.728 590.534 182.037 590.534 183.728Z" fill="#D9D9D9"/>
<path d="M589.476 222.066C591.888 222.893 592.315 218.605 590.713 218.125C589.111 217.644 587.926 222.217 589.476 222.066Z" fill="#D9D9D9"/>
<path d="M602.775 222.5C601.498 220.127 598.532 222.992 599.422 224.517C600.312 226.043 604.017 223.519 602.775 222.5Z" fill="#D9D9D9"/>
<path d="M610.081 225.747C609.108 228.284 613 229.13 613.583 227.438C614.167 225.747 610.081 224.056 610.081 225.747Z" fill="#D9D9D9"/>
<path d="M566.069 239.299C565.97 236.552 562.112 237.563 562.237 239.364C562.361 241.165 566.723 240.833 566.069 239.299Z" fill="#D9D9D9"/>
<path d="M572.315 225.958C575.725 230.018 580.423 223.067 578.096 220.488C575.768 217.909 569.494 224.529 572.315 225.958Z" fill="#741F5E" stroke="#D9D9D9" stroke-width="2"/>
<path d="M559.135 205.038C554.641 202.516 552.453 210.806 555.46 212.347C558.466 213.888 562.237 205.315 559.135 205.038Z" fill="#741F5E" stroke="#D9D9D9" stroke-width="2"/>
<path d="M575.719 200.815C575.048 195.367 567.542 198.166 568.1 201.727C568.659 205.288 577.287 203.737 575.719 200.815Z" fill="#741F5E" stroke="#D9D9D9" stroke-width="2"/>
<path d="M558.897 220.846C556.951 225.92 564.733 227.61 565.901 224.228C567.068 220.846 558.897 217.464 558.897 220.846Z" fill="#741F5E" stroke="#D9D9D9" stroke-width="2"/>
<path d="M583.25 213.531C584.597 208.233 576.682 207.611 575.912 211.125C575.142 214.639 583.638 216.887 583.25 213.531Z" fill="#741F5E" stroke="#D9D9D9" stroke-width="2"/>
<path d="M564.129 248.582C563.238 246.01 559.87 248.292 560.512 249.958C561.153 251.625 565.195 249.814 564.129 248.582Z" fill="#D9D9D9"/>
<path d="M562.353 259.168C562.232 256.423 558.382 257.471 558.522 259.27C558.661 261.07 563.02 260.696 562.353 259.168Z" fill="#D9D9D9"/>
<path d="M551.698 174.993C550.726 177.53 554.617 178.376 555.201 176.685C555.784 174.993 551.698 173.302 551.698 174.993Z" fill="#D9D9D9"/>
<path d="M565.846 211.643C565.727 212.091 561.961 213.105 562.139 213.617C562.317 214.128 566.366 214.327 566.646 214.722C566.926 215.117 567.091 219.263 567.591 219.304C568.091 219.345 569.063 215.351 569.626 215.117C570.189 214.884 572.995 215.512 573.843 215.117C574.69 214.722 570.862 211.643 570.862 211.643C570.862 211.643 572.707 208.272 572.461 207.534C572.216 206.796 568.764 209.606 568.391 209.588C568.018 209.57 565.283 206.225 564.756 206.429C564.229 206.633 565.966 211.194 565.846 211.643Z" fill="#D9D9D9"/>
<g filter="url(#filter8_d_1238_2205)">
<path d="M875.724 188.585C874.097 201.214 896.884 198.465 906.805 203.061C916.727 207.656 890.252 213.844 875.724 218.58C861.197 223.316 879.314 257.013 869.048 266.223C858.782 275.433 853.642 239.735 847.25 224.579C840.858 209.424 797.304 238.238 787.686 224.579C778.068 210.92 820.829 210.082 829.07 198.646C837.31 187.21 813.515 159.464 821.4 155.111C825.743 152.714 835.046 174.061 843.182 182.271C851.318 190.48 868.496 139.525 879.211 140.593C889.926 141.661 877.758 172.798 875.724 188.585Z" fill="url(#paint8_linear_1238_2205)"/>
</g>
<g filter="url(#filter9_d_1238_2205)">
<path d="M864.02 218.124C865.208 213.014 907.544 209.877 902.622 205.567C897.699 201.258 878.564 201.136 872.936 198.381C867.307 195.625 880.572 150.363 876.754 149.659C872.936 148.955 855.265 184.635 847.197 187.046C839.129 189.458 826.711 156.103 822.803 158.893C818.895 161.684 836.73 194.531 836.262 198.381C835.793 202.23 796.232 214.347 794.465 221.458C792.697 228.568 840.826 215.016 845.178 216.662C849.53 218.308 859.358 261.347 866.147 263.671C872.936 265.994 862.831 223.235 864.02 218.124Z" fill="url(#paint9_linear_1238_2205)"/>
</g>
<path d="M889.067 204.804C890.04 207.341 886.149 208.186 885.565 206.495C884.981 204.804 889.067 203.113 889.067 204.804Z" fill="#D9D9D9"/>
<path d="M867.876 206.827C866.856 204.313 870.731 203.381 871.346 205.059C871.962 206.737 867.908 208.518 867.876 206.827Z" fill="#D9D9D9"/>
<path d="M878.095 206.599C877.075 204.084 880.949 203.153 881.565 204.83C882.18 206.508 878.127 208.29 878.095 206.599Z" fill="#D9D9D9"/>
<path d="M862.356 186.708C863.329 189.245 859.438 190.09 858.854 188.399C858.27 186.708 862.356 185.017 862.356 186.708Z" fill="#D9D9D9"/>
<path d="M867.544 176.853C868.517 179.39 864.625 180.235 864.042 178.544C863.458 176.853 867.544 175.162 867.544 176.853Z" fill="#D9D9D9"/>
<path d="M843.142 191.007C844.114 193.544 840.223 194.389 839.639 192.698C839.056 191.007 843.142 189.316 843.142 191.007Z" fill="#D9D9D9"/>
<path d="M838.196 183.435C839.169 185.972 835.278 186.817 834.694 185.126C834.11 183.435 838.196 181.744 838.196 183.435Z" fill="#D9D9D9"/>
<path d="M832.423 173.579C833.396 176.116 829.504 176.962 828.92 175.27C828.337 173.579 832.423 171.888 832.423 173.579Z" fill="#D9D9D9"/>
<path d="M833.481 211.92C831.069 212.746 830.642 208.459 832.244 207.978C833.846 207.497 835.031 212.071 833.481 211.92Z" fill="#D9D9D9"/>
<path d="M820.182 212.353C821.459 209.981 824.425 212.845 823.535 214.371C822.645 215.896 818.94 213.372 820.182 212.353Z" fill="#D9D9D9"/>
<path d="M812.876 215.601C813.849 218.138 809.957 218.983 809.374 217.292C808.79 215.601 812.876 213.91 812.876 215.601Z" fill="#D9D9D9"/>
<path d="M856.888 229.15C856.987 226.404 860.845 227.415 860.72 229.216C860.596 231.017 856.234 230.685 856.888 229.15Z" fill="#D9D9D9"/>
<path d="M850.642 215.809C847.232 219.869 842.534 212.919 844.861 210.34C847.189 207.761 853.463 214.38 850.642 215.809Z" fill="#741F5E" stroke="#D9D9D9" stroke-width="2"/>
<path d="M863.822 194.892C868.316 192.369 870.504 200.659 867.497 202.201C864.491 203.742 860.72 195.169 863.822 194.892Z" fill="#741F5E" stroke="#D9D9D9" stroke-width="2"/>
<path d="M847.238 190.667C847.909 185.219 855.416 188.018 854.857 191.579C854.298 195.139 845.67 193.589 847.238 190.667Z" fill="#741F5E" stroke="#D9D9D9" stroke-width="2"/>
<path d="M864.06 210.702C866.006 215.775 858.224 217.466 857.056 214.084C855.889 210.702 864.06 207.32 864.06 210.702Z" fill="#741F5E" stroke="#D9D9D9" stroke-width="2"/>
<path d="M839.707 203.385C838.36 198.087 846.275 197.465 847.045 200.979C847.815 204.493 839.319 206.74 839.707 203.385Z" fill="#741F5E" stroke="#D9D9D9" stroke-width="2"/>
<path d="M858.828 238.438C859.72 235.866 863.087 238.148 862.445 239.814C861.804 241.48 857.762 239.669 858.828 238.438Z" fill="#D9D9D9"/>
<path d="M860.604 249.021C860.725 246.276 864.575 247.324 864.435 249.124C864.296 250.924 859.937 250.549 860.604 249.021Z" fill="#D9D9D9"/>
<path d="M871.259 164.847C872.232 167.384 868.34 168.229 867.756 166.538C867.173 164.847 871.259 163.156 871.259 164.847Z" fill="#D9D9D9"/>
<path d="M857.111 201.496C857.23 201.945 860.996 202.958 860.818 203.47C860.64 203.982 856.591 204.181 856.311 204.576C856.031 204.971 855.866 209.116 855.366 209.157C854.866 209.199 853.894 205.204 853.331 204.971C852.768 204.738 849.962 205.366 849.115 204.971C848.267 204.576 852.095 201.496 852.095 201.496C852.095 201.496 850.25 198.126 850.496 197.388C850.741 196.65 854.193 199.459 854.566 199.441C854.939 199.424 857.674 196.078 858.201 196.282C858.728 196.487 856.991 201.048 857.111 201.496Z" fill="#D9D9D9"/>
<g filter="url(#filter10_d_1238_2205)">
<path d="M686.145 158.575C683.199 170.324 661.283 157.064 649.64 156.323C637.996 155.582 662.373 173.59 675.263 184.636C688.153 195.682 657.71 216.313 664.692 229.213C671.674 242.113 689.793 213.55 701.719 203.433C713.645 193.315 746.988 239.129 761.614 231.851C776.241 224.573 733.546 203.443 729.409 189.575C725.272 175.708 759.265 162.955 752.915 155.411C749.418 151.257 732.318 165.364 721.159 168.615C710 171.866 711.212 119.4 700.05 115.216C688.888 111.031 689.827 143.889 686.145 158.575Z" fill="url(#paint10_linear_1238_2205)"/>
</g>
<g filter="url(#filter11_d_1238_2205)">
<path d="M687.201 189.825C687.86 184.818 646.426 161.894 652.94 160.498C659.453 159.103 678.739 168.126 685.398 168.417C692.057 168.708 695.14 123.056 699.234 124.266C703.329 125.475 708.154 164.905 715.392 170.85C722.63 176.795 747.217 153.739 750.135 158.029C753.052 162.318 723.202 182.347 722.276 185.915C721.35 189.483 756.735 218.884 755.933 225.905C755.131 232.926 711.651 198.19 706.678 197.544C701.705 196.897 676.208 229.601 668.538 228.381C660.869 227.161 686.542 194.832 687.201 189.825Z" fill="url(#paint11_linear_1238_2205)"/>
</g>
<path d="M666.84 166.3C664.941 168.04 668.547 170.631 669.748 169.44C670.948 168.249 667.453 164.831 666.84 166.3Z" fill="#D9D9D9"/>
<path d="M687.417 178.166C689.355 176.469 685.797 173.81 684.57 174.974C683.342 176.138 686.772 179.62 687.417 178.166Z" fill="#D9D9D9"/>
<path d="M677.222 173.092C679.16 171.394 675.602 168.736 674.374 169.9C673.147 171.064 676.576 174.546 677.222 173.092Z" fill="#D9D9D9"/>
<path d="M700.269 163.321C698.371 165.061 701.977 167.652 703.178 166.462C704.378 165.271 700.883 161.852 700.269 163.321Z" fill="#D9D9D9"/>
<path d="M698.625 152.284C696.726 154.024 700.333 156.615 701.533 155.424C702.733 154.234 699.238 150.815 698.625 152.284Z" fill="#D9D9D9"/>
<path d="M718.027 176.224C716.129 177.964 719.735 180.555 720.935 179.364C722.136 178.173 718.641 174.754 718.027 176.224Z" fill="#D9D9D9"/>
<path d="M725.75 172.007C723.851 173.747 727.458 176.338 728.658 175.147C729.858 173.956 726.363 170.538 725.75 172.007Z" fill="#D9D9D9"/>
<path d="M735.129 166.198C733.23 167.938 736.836 170.529 738.037 169.338C739.237 168.148 735.742 164.729 735.129 166.198Z" fill="#D9D9D9"/>
<path d="M720.153 199.002C722.278 200.87 724.264 197.35 722.827 196.167C721.39 194.985 718.539 198.393 720.153 199.002Z" fill="#D9D9D9"/>
<path d="M733.372 205.726C732.949 203.055 728.927 204.129 729.269 205.879C729.61 207.629 734.251 207.204 733.372 205.726Z" fill="#D9D9D9"/>
<path d="M739.531 212.03C737.632 213.77 741.239 216.361 742.439 215.171C743.64 213.98 740.144 210.561 739.531 212.03Z" fill="#D9D9D9"/>
<path d="M690.365 202.805C691.262 200.372 687.016 199.41 686.488 201.034C685.96 202.658 690.466 204.45 690.365 202.805Z" fill="#D9D9D9"/>
<path d="M701.488 194.197C703.444 199.351 710.69 195.553 709.285 192.202C707.88 188.851 699.17 191.609 701.488 194.197Z" fill="#741F5E" stroke="#D9D9D9" stroke-width="2"/>
<path d="M695.825 169.734C692.221 165.398 687.014 171.557 689.477 174.33C691.941 177.103 698.843 171.454 695.825 169.734Z" fill="#741F5E" stroke="#D9D9D9" stroke-width="2"/>
<path d="M714.033 173.973C715.335 168.92 706.771 167.77 706.041 171.13C705.311 174.491 714.549 177.259 714.033 173.973Z" fill="#741F5E" stroke="#D9D9D9" stroke-width="2"/>
<path d="M689.851 183.356C686.054 186.835 693.266 192.017 695.667 189.636C698.068 187.254 691.078 180.417 689.851 183.356Z" fill="#741F5E" stroke="#D9D9D9" stroke-width="2"/>
<path d="M716.994 188.617C720.271 184.657 712.537 180.34 710.488 183.026C708.439 185.711 716.167 191.718 716.994 188.617Z" fill="#741F5E" stroke="#D9D9D9" stroke-width="2"/>
<path d="M685.05 209.951C685.087 207.291 680.873 207.668 680.913 209.421C680.954 211.175 685.676 211.53 685.05 209.951Z" fill="#D9D9D9"/>
<path d="M679.421 218.297C680.295 215.854 676.044 214.928 675.531 216.558C675.019 218.188 679.537 219.942 679.421 218.297Z" fill="#D9D9D9"/>
<path d="M699.246 140.081C697.347 141.821 700.954 144.412 702.154 143.221C703.355 142.031 699.859 138.612 699.246 140.081Z" fill="#D9D9D9"/>
<path d="M700.175 178.673C699.892 179.005 695.738 178.089 695.731 178.619C695.725 179.149 699.724 181.253 699.862 181.73C700.001 182.207 698.662 185.887 699.15 186.161C699.638 186.436 702.065 183.429 702.716 183.495C703.367 183.561 705.96 185.445 706.955 185.506C707.951 185.568 705.219 181.066 705.219 181.066C705.219 181.066 708.297 179.018 708.318 178.259C708.338 177.501 703.848 178.295 703.479 178.101C703.111 177.908 701.574 173.696 700.971 173.623C700.367 173.549 700.458 178.34 700.175 178.673Z" fill="#D9D9D9"/>
<defs>
<filter id="filter0_d_1238_2205" x="879" y="0" width="546" height="330" filterUnits="userSpaceOnUse" color-interpolation-filters="sRGB">
<feFlood flood-opacity="0" result="BackgroundImageFix"/>
<feColorMatrix in="SourceAlpha" type="matrix" values="0 0 0 0 0 0 0 0 0 0 0 0 0 0 0 0 0 0 127 0" result="hardAlpha"/>
<feOffset dy="4"/>
<feGaussianBlur stdDeviation="62.5"/>
<feComposite in2="hardAlpha" operator="out"/>
<feColorMatrix type="matrix" values="0 0 0 0 0.602456 0 0 0 0 0.862489 0 0 0 0 0.9525 0 0 0 0.54 0"/>
<feBlend mode="normal" in2="BackgroundImageFix" result="effect1_dropShadow_1238_2205"/>
<feBlend mode="normal" in="SourceGraphic" in2="effect1_dropShadow_1238_2205" result="shape"/>
</filter>
<filter id="filter1_d_1238_2205" x="0" y="0" width="546" height="330" filterUnits="userSpaceOnUse" color-interpolation-filters="sRGB">
<feFlood flood-opacity="0" result="BackgroundImageFix"/>
<feColorMatrix in="SourceAlpha" type="matrix" values="0 0 0 0 0 0 0 0 0 0 0 0 0 0 0 0 0 0 127 0" result="hardAlpha"/>
<feOffset dy="4"/>
<feGaussianBlur stdDeviation="62.5"/>
<feComposite in2="hardAlpha" operator="out"/>
<feColorMatrix type="matrix" values="0 0 0 0 0.602456 0 0 0 0 0.862489 0 0 0 0 0.9525 0 0 0 0.54 0"/>
<feBlend mode="normal" in2="BackgroundImageFix" result="effect1_dropShadow_1238_2205"/>
<feBlend mode="normal" in="SourceGraphic" in2="effect1_dropShadow_1238_2205" result="shape"/>
</filter>
<filter id="filter2_d_1238_2205" x="753" y="18" width="545" height="329" filterUnits="userSpaceOnUse" color-interpolation-filters="sRGB">
<feFlood flood-opacity="0" result="BackgroundImageFix"/>
<feColorMatrix in="SourceAlpha" type="matrix" values="0 0 0 0 0 0 0 0 0 0 0 0 0 0 0 0 0 0 127 0" result="hardAlpha"/>
<feOffset dy="4"/>
<feGaussianBlur stdDeviation="62.5"/>
<feComposite in2="hardAlpha" operator="out"/>
<feColorMatrix type="matrix" values="0 0 0 0 0.602456 0 0 0 0 0.862489 0 0 0 0 0.9525 0 0 0 0.54 0"/>
<feBlend mode="normal" in2="BackgroundImageFix" result="effect1_dropShadow_1238_2205"/>
<feBlend mode="normal" in="SourceGraphic" in2="effect1_dropShadow_1238_2205" result="shape"/>
</filter>
<filter id="filter3_d_1238_2205" x="133" y="18" width="545" height="329" filterUnits="userSpaceOnUse" color-interpolation-filters="sRGB">
<feFlood flood-opacity="0" result="BackgroundImageFix"/>
<feColorMatrix in="SourceAlpha" type="matrix" values="0 0 0 0 0 0 0 0 0 0 0 0 0 0 0 0 0 0 127 0" result="hardAlpha"/>
<feOffset dy="4"/>
<feGaussianBlur stdDeviation="62.5"/>
<feComposite in2="hardAlpha" operator="out"/>
<feColorMatrix type="matrix" values="0 0 0 0 0.602456 0 0 0 0 0.862489 0 0 0 0 0.9525 0 0 0 0.54 0"/>
<feBlend mode="normal" in2="BackgroundImageFix" result="effect1_dropShadow_1238_2205"/>
<feBlend mode="normal" in="SourceGraphic" in2="effect1_dropShadow_1238_2205" result="shape"/>
</filter>
<filter id="filter4_d_1238_2205" x="281" y="40" width="545.73" height="335.135" filterUnits="userSpaceOnUse" color-interpolation-filters="sRGB">
<feFlood flood-opacity="0" result="BackgroundImageFix"/>
<feColorMatrix in="SourceAlpha" type="matrix" values="0 0 0 0 0 0 0 0 0 0 0 0 0 0 0 0 0 0 127 0" result="hardAlpha"/>
<feOffset dy="4"/>
<feGaussianBlur stdDeviation="62.5"/>
<feComposite in2="hardAlpha" operator="out"/>
<feColorMatrix type="matrix" values="0 0 0 0 0.602456 0 0 0 0 0.862489 0 0 0 0 0.9525 0 0 0 0.54 0"/>
<feBlend mode="normal" in2="BackgroundImageFix" result="effect1_dropShadow_1238_2205"/>
<feBlend mode="normal" in="SourceGraphic" in2="effect1_dropShadow_1238_2205" result="shape"/>
</filter>
<filter id="filter5_d_1238_2205" x="584.988" y="40" width="544.012" height="334.158" filterUnits="userSpaceOnUse" color-interpolation-filters="sRGB">
<feFlood flood-opacity="0" result="BackgroundImageFix"/>
<feColorMatrix in="SourceAlpha" type="matrix" values="0 0 0 0 0 0 0 0 0 0 0 0 0 0 0 0 0 0 127 0" result="hardAlpha"/>
<feOffset dy="4"/>
<feGaussianBlur stdDeviation="62.5"/>
<feComposite in2="hardAlpha" operator="out"/>
<feColorMatrix type="matrix" values="0 0 0 0 0.602456 0 0 0 0 0.862489 0 0 0 0 0.9525 0 0 0 0.54 0"/>
<feBlend mode="normal" in2="BackgroundImageFix" result="effect1_dropShadow_1238_2205"/>
<feBlend mode="normal" in="SourceGraphic" in2="effect1_dropShadow_1238_2205" result="shape"/>
</filter>
<filter id="filter6_d_1238_2205" x="424.08" y="64.8227" width="302.491" height="306.943" filterUnits="userSpaceOnUse" color-interpolation-filters="sRGB">
<feFlood flood-opacity="0" result="BackgroundImageFix"/>
<feColorMatrix in="SourceAlpha" type="matrix" values="0 0 0 0 0 0 0 0 0 0 0 0 0 0 0 0 0 0 127 0" result="hardAlpha"/>
<feOffset dy="4"/>
<feGaussianBlur stdDeviation="44.95"/>
<feComposite in2="hardAlpha" operator="out"/>
<feColorMatrix type="matrix" values="0 0 0 0 0.407843 0 0 0 0 0.0941176 0 0 0 0 0.129412 0 0 0 1 0"/>
<feBlend mode="normal" in2="BackgroundImageFix" result="effect1_dropShadow_1238_2205"/>
<feBlend mode="normal" in="SourceGraphic" in2="effect1_dropShadow_1238_2205" result="shape"/>
</filter>
<filter id="filter7_d_1238_2205" x="417.137" y="60.9949" width="314.202" height="319.713" filterUnits="userSpaceOnUse" color-interpolation-filters="sRGB">
<feFlood flood-opacity="0" result="BackgroundImageFix"/>
<feColorMatrix in="SourceAlpha" type="matrix" values="0 0 0 0 0 0 0 0 0 0 0 0 0 0 0 0 0 0 127 0" result="hardAlpha"/>
<feOffset dy="4"/>
<feGaussianBlur stdDeviation="51.4"/>
<feComposite in2="hardAlpha" operator="out"/>
<feColorMatrix type="matrix" values="0 0 0 0 0.847059 0 0 0 0 0.709804 0 0 0 0 0.458824 0 0 0 1 0"/>
<feBlend mode="normal" in2="BackgroundImageFix" result="effect1_dropShadow_1238_2205"/>
<feBlend mode="normal" in="SourceGraphic" in2="effect1_dropShadow_1238_2205" result="shape"/>
</filter>
<filter id="filter8_d_1238_2205" x="696.385" y="54.6762" width="302.491" height="306.943" filterUnits="userSpaceOnUse" color-interpolation-filters="sRGB">
<feFlood flood-opacity="0" result="BackgroundImageFix"/>
<feColorMatrix in="SourceAlpha" type="matrix" values="0 0 0 0 0 0 0 0 0 0 0 0 0 0 0 0 0 0 127 0" result="hardAlpha"/>
<feOffset dy="4"/>
<feGaussianBlur stdDeviation="44.95"/>
<feComposite in2="hardAlpha" operator="out"/>
<feColorMatrix type="matrix" values="0 0 0 0 0.407843 0 0 0 0 0.0941176 0 0 0 0 0.129412 0 0 0 1 0"/>
<feBlend mode="normal" in2="BackgroundImageFix" result="effect1_dropShadow_1238_2205"/>
<feBlend mode="normal" in="SourceGraphic" in2="effect1_dropShadow_1238_2205" result="shape"/>
</filter>
<filter id="filter9_d_1238_2205" x="691.618" y="50.8484" width="314.202" height="319.713" filterUnits="userSpaceOnUse" color-interpolation-filters="sRGB">
<feFlood flood-opacity="0" result="BackgroundImageFix"/>
<feColorMatrix in="SourceAlpha" type="matrix" values="0 0 0 0 0 0 0 0 0 0 0 0 0 0 0 0 0 0 127 0" result="hardAlpha"/>
<feOffset dy="4"/>
<feGaussianBlur stdDeviation="51.4"/>
<feComposite in2="hardAlpha" operator="out"/>
<feColorMatrix type="matrix" values="0 0 0 0 0.847059 0 0 0 0 0.709804 0 0 0 0 0.458824 0 0 0 1 0"/>
<feBlend mode="normal" in2="BackgroundImageFix" result="effect1_dropShadow_1238_2205"/>
<feBlend mode="normal" in="SourceGraphic" in2="effect1_dropShadow_1238_2205" result="shape"/>
</filter>
<filter id="filter10_d_1238_2205" x="556.674" y="28.9496" width="297.878" height="297.589" filterUnits="userSpaceOnUse" color-interpolation-filters="sRGB">
<feFlood flood-opacity="0" result="BackgroundImageFix"/>
<feColorMatrix in="SourceAlpha" type="matrix" values="0 0 0 0 0 0 0 0 0 0 0 0 0 0 0 0 0 0 127 0" result="hardAlpha"/>
<feOffset dy="4"/>
<feGaussianBlur stdDeviation="44.95"/>
<feComposite in2="hardAlpha" operator="out"/>
<feColorMatrix type="matrix" values="0 0 0 0 0.407843 0 0 0 0 0.0941176 0 0 0 0 0.129412 0 0 0 1 0"/>
<feBlend mode="normal" in2="BackgroundImageFix" result="effect1_dropShadow_1238_2205"/>
<feBlend mode="normal" in="SourceGraphic" in2="effect1_dropShadow_1238_2205" result="shape"/>
</filter>
<filter id="filter11_d_1238_2205" x="549.446" y="25.4422" width="309.299" height="309.772" filterUnits="userSpaceOnUse" color-interpolation-filters="sRGB">
<feFlood flood-opacity="0" result="BackgroundImageFix"/>
<feColorMatrix in="SourceAlpha" type="matrix" values="0 0 0 0 0 0 0 0 0 0 0 0 0 0 0 0 0 0 127 0" result="hardAlpha"/>
<feOffset dy="4"/>
<feGaussianBlur stdDeviation="51.4"/>
<feComposite in2="hardAlpha" operator="out"/>
<feColorMatrix type="matrix" values="0 0 0 0 0.847059 0 0 0 0 0.709804 0 0 0 0 0.458824 0 0 0 1 0"/>
<feBlend mode="normal" in2="BackgroundImageFix" result="effect1_dropShadow_1238_2205"/>
<feBlend mode="normal" in="SourceGraphic" in2="effect1_dropShadow_1238_2205" result="shape"/>
</filter>
<radialGradient id="paint0_radial_1238_2205" cx="0" cy="0" r="1" gradientUnits="userSpaceOnUse" gradientTransform="translate(1237.36 150.697) rotate(178.625) scale(264.827 69.5697)">
<stop stop-color="#75D7D6"/>
<stop offset="0.288144" stop-color="#3CC1EC"/>
<stop offset="0.836667" stop-color="#C213BB"/>
<stop offset="1" stop-color="#D575D7"/>
</radialGradient>
<radialGradient id="paint1_radial_1238_2205" cx="0" cy="0" r="1" gradientUnits="userSpaceOnUse" gradientTransform="translate(187.641 150.697) rotate(1.37492) scale(264.827 69.5697)">
<stop stop-color="#75D7D6"/>
<stop offset="0.288144" stop-color="#3CC1EC"/>
<stop offset="0.836667" stop-color="#C213BB"/>
<stop offset="1" stop-color="#D575D7"/>
</radialGradient>
<radialGradient id="paint2_radial_1238_2205" cx="0" cy="0" r="1" gradientUnits="userSpaceOnUse" gradientTransform="translate(1110.57 168.326) rotate(178.638) scale(263.931 68.7005)">
<stop stop-color="#75D7D6"/>
<stop offset="0.288144" stop-color="#3CC1EC"/>
<stop offset="0.836667" stop-color="#C213BB"/>
<stop offset="1" stop-color="#D575D7"/>
</radialGradient>
<radialGradient id="paint3_radial_1238_2205" cx="0" cy="0" r="1" gradientUnits="userSpaceOnUse" gradientTransform="translate(320.43 168.326) rotate(1.36234) scale(263.931 68.7005)">
<stop stop-color="#75D7D6"/>
<stop offset="0.288144" stop-color="#3CC1EC"/>
<stop offset="0.836667" stop-color="#C213BB"/>
<stop offset="1" stop-color="#D575D7"/>
</radialGradient>
<radialGradient id="paint4_radial_1238_2205" cx="0" cy="0" r="1" gradientUnits="userSpaceOnUse" gradientTransform="translate(468.641 190.697) rotate(1.37492) scale(264.827 69.5697)">
<stop stop-color="#75D7D6"/>
<stop offset="0.288144" stop-color="#3CC1EC"/>
<stop offset="0.836667" stop-color="#C213BB"/>
<stop offset="1" stop-color="#D575D7"/>
</radialGradient>
<radialGradient id="paint5_radial_1238_2205" cx="0" cy="0" r="1" gradientUnits="userSpaceOnUse" gradientTransform="translate(941.57 190.697) rotate(178.62) scale(263.933 69.5696)">
<stop stop-color="#75D7D6"/>
<stop offset="0.288144" stop-color="#3CC1EC"/>
<stop offset="0.836667" stop-color="#C213BB"/>
<stop offset="1" stop-color="#D575D7"/>
</radialGradient>
<linearGradient id="paint6_linear_1238_2205" x1="574.155" y1="150.484" x2="574.155" y2="281.287" gradientUnits="userSpaceOnUse">
<stop stop-color="#71D0CF"/>
<stop offset="0.305" stop-color="#5BA7A6"/>
<stop offset="0.78" stop-color="#75D7D6"/>
</linearGradient>
<linearGradient id="paint7_linear_1238_2205" x1="572.235" y1="158.702" x2="576.767" y2="273.049" gradientUnits="userSpaceOnUse">
<stop offset="0.485" stop-color="#B32169"/>
<stop offset="1" stop-color="#3029BA"/>
</linearGradient>
<linearGradient id="paint8_linear_1238_2205" x1="848.802" y1="140.338" x2="848.802" y2="271.141" gradientUnits="userSpaceOnUse">
<stop stop-color="#71D0CF"/>
<stop offset="0.305" stop-color="#5BA7A6"/>
<stop offset="0.78" stop-color="#75D7D6"/>
</linearGradient>
<linearGradient id="paint9_linear_1238_2205" x1="850.722" y1="148.556" x2="846.19" y2="262.902" gradientUnits="userSpaceOnUse">
<stop offset="0.485" stop-color="#B32169"/>
<stop offset="1" stop-color="#3029BA"/>
</linearGradient>
<linearGradient id="paint10_linear_1238_2205" x1="730.721" y1="129.502" x2="677.989" y2="240.642" gradientUnits="userSpaceOnUse">
<stop stop-color="#71D0CF"/>
<stop offset="0.305" stop-color="#5BA7A6"/>
<stop offset="0.78" stop-color="#75D7D6"/>
</linearGradient>
<linearGradient id="paint11_linear_1238_2205" x1="725.811" y1="135.727" x2="682.885" y2="234.631" gradientUnits="userSpaceOnUse">
<stop offset="0.485" stop-color="#B32169"/>
<stop offset="1" stop-color="#3029BA"/>
</linearGradient>
</defs>
</svg>
