<svg width="1030" height="399" viewBox="0 0 1030 399" fill="none" xmlns="http://www.w3.org/2000/svg">
<rect x="5" y="5" width="1020" height="322" rx="33" fill="white" stroke="url(#paint0_linear_2362_79)" stroke-width="10"/>
<g filter="url(#filter0_d_2362_79)">
<path d="M358.161 177.202C338.267 165.209 304.324 178.521 283.336 190.232C262.348 201.943 370.876 220.034 314.804 227.414C258.732 234.793 337.633 262.435 390.508 265.919C443.384 269.403 448.543 257.425 493.306 256.57C538.069 255.715 486.24 237.228 466.636 240.741C447.032 244.253 421.9 255.993 401.73 247.604C393.109 244.018 394.359 234.491 405.845 231.772C417.331 229.053 432.556 237.443 432.261 234.25C431.965 231.057 423.379 217.254 411.554 214.674C400.516 212.265 390.982 215.813 376.883 219.726C354.618 225.904 332.463 201.513 342.609 193.892C350.726 187.794 365.509 199.469 371.886 206.069C375.6 201.444 378.054 189.196 358.161 177.202Z" fill="url(#paint1_radial_2362_79)"/>
</g>
<g filter="url(#filter1_d_2362_79)">
<path d="M673.839 176.784C693.733 164.791 727.676 178.103 748.664 189.814C769.652 201.525 661.124 219.616 717.196 226.996C773.268 234.375 694.367 262.017 641.492 265.501C588.616 268.985 583.457 257.007 538.694 256.152C493.931 255.297 545.76 236.81 565.364 240.323C584.968 243.835 610.1 255.575 630.27 247.186C638.891 243.6 637.641 234.073 626.155 231.354C614.669 228.635 599.444 237.025 599.739 233.832C600.035 230.639 608.621 216.836 620.446 214.256C631.484 211.847 641.018 215.395 655.117 219.308C677.382 225.486 699.537 201.095 689.391 193.474C681.274 187.376 666.491 199.051 660.114 205.651C656.4 201.026 653.946 188.778 673.839 176.784Z" fill="url(#paint2_radial_2362_79)"/>
</g>
<path d="M307.77 114.496C312.826 116.224 315.834 122.304 313.85 127.296C309.882 137.28 292.986 136.704 284.154 136.576C282.938 136.576 281.658 136.64 280.57 136.128C279.674 135.68 279.034 134.912 278.97 133.888C278.714 129.664 279.161 125.248 279.098 121.024C278.97 115.648 278.714 110.208 278.458 104.832C278.266 101.312 278.33 97.664 277.818 94.208C277.69 93.184 277.242 91.328 277.69 90.368C277.882 89.984 278.394 89.856 278.778 89.728C285.562 87.552 300.922 87.168 307.257 90.688C310.074 92.224 312.186 95.04 313.21 98.048C314.17 100.8 314.362 103.808 313.466 106.624C312.506 109.76 310.394 112.576 307.77 114.496ZM304.57 94.848C305.402 95.744 306.81 95.36 306.874 94.08C306.938 92.992 305.21 92.032 304.378 91.584C300.858 89.664 296.89 89.856 293.05 89.984C289.338 90.112 290.746 93.184 292.538 92.608C295.354 91.648 302.458 92.608 304.57 94.848ZM307.45 98.048C309.05 100.416 311.354 95.808 308.602 95.872C307.578 95.936 306.874 97.152 307.45 98.048ZM292.474 101.248C292.666 103.488 292.858 105.728 292.922 107.968C294.266 107.84 295.674 107.84 296.954 107.456C302.394 105.856 301.114 99.712 292.474 101.248ZM293.242 118.336C293.434 120.448 293.434 122.56 293.434 124.672C295.354 124.48 297.21 124.608 299.066 124.032C305.402 122.176 301.114 117.376 293.242 118.336ZM352.339 132.032C350.803 134.912 347.731 136.768 344.467 136.768C338.259 136.768 323.603 134.848 320.531 128.704C319.443 126.464 319.443 123.904 319.507 121.472C319.571 118.272 321.811 92.8 322.963 91.776C324.115 90.688 328.467 90.88 330.067 90.944C330.771 90.944 334.099 91.072 334.547 91.264C335.123 91.456 335.378 91.904 335.507 92.48C335.571 92.672 333.139 105.28 332.883 106.88C332.307 110.976 330.451 120.896 336.915 120.96C338.579 120.96 340.307 119.488 340.883 118.016C342.867 112.768 338.131 93.376 340.051 91.008C341.075 89.728 350.163 89.856 351.635 90.432C352.147 90.624 352.531 90.816 352.595 91.392C352.722 92.224 352.787 93.12 352.915 93.952C353.811 100.288 355.219 114.88 354.771 120.896C354.515 124.608 354.131 128.704 352.339 132.032ZM319.635 133.44C320.659 133.248 321.107 134.464 320.403 135.104C318.867 136.576 317.907 132.8 319.635 133.44ZM337.363 140.864C334.547 142.144 325.075 139.584 322.707 137.6C322.067 137.088 322.771 135.68 323.859 136.128C325.907 136.96 327.827 137.6 329.939 138.048C331.923 138.496 336.083 138.432 337.491 139.136C338.259 139.52 338.067 140.544 337.363 140.864ZM383.423 135.424C374.079 138.112 362.111 136 361.471 124.224C361.407 123.52 361.407 122.816 361.983 122.304C363.071 121.344 372.351 119.744 372.991 121.024C373.823 122.624 372.479 126.016 375.935 126.016C378.687 126.016 379.519 122.752 378.559 120.64C375.295 113.216 357.311 116.352 358.975 102.592C359.679 96.832 364.479 92.352 369.599 90.24C375.807 87.744 383.935 87.68 389.695 91.264C393.599 93.696 395.903 97.472 396.223 102.016C396.287 103.296 396.415 105.472 394.879 105.984C393.919 106.304 385.151 107.136 384.127 107.008C383.359 106.944 382.719 106.88 382.591 105.984C382.143 103.232 382.207 99.712 378.879 98.56C375.807 97.536 370.111 100.224 371.583 104.064C372.927 107.712 389.887 109.248 393.023 119.68C395.071 126.528 389.951 133.504 383.423 135.424ZM380.991 132.416C380.095 133.504 381.439 134.784 382.655 134.4C387.135 132.928 391.039 129.088 391.423 124.288C391.743 120.768 388.863 121.6 388.863 123.072C388.863 124.608 388.671 125.504 388.095 126.912C386.559 130.624 381.503 131.776 380.991 132.416ZM377.087 134.848C377.855 135.552 379.071 135.104 379.263 134.144C379.775 131.456 375.103 132.992 377.087 134.848ZM416.12 89.28C416.376 89.728 416.056 90.304 415.544 90.368C415.096 90.432 414.712 90.112 414.264 90.048C411.832 89.664 409.208 90.496 406.904 90.176C406.456 90.112 405.752 89.856 405.752 89.344C405.752 87.04 415.16 87.424 416.12 89.28ZM404.216 90.56C402.808 92.352 400.952 88.064 403.448 88.32C404.472 88.448 404.792 89.792 404.216 90.56ZM407.16 136.576C406.135 136.576 403.256 136.704 402.488 136C402.04 135.552 401.976 134.848 401.911 134.272C401.656 131.648 400.248 95.616 400.312 95.296C400.76 93.504 410.104 93.248 411.896 93.248C412.6 93.248 414.52 93.184 415.096 93.504C416.184 94.08 415.992 96.512 415.992 97.536L416.056 135.104C416.056 135.744 415.8 136.064 415.224 136.256C414.392 136.512 408.504 136.576 407.16 136.576ZM434.161 106.24C435.441 112.64 438.321 129.408 437.617 135.36C437.489 136.512 436.529 136.896 435.505 136.96C433.713 137.088 422.961 137.408 422.193 136.32C421.489 135.296 422.321 132.224 422.513 131.008C423.857 122.176 423.793 107.008 422.961 97.984C422.897 97.024 422.385 92.608 422.513 92.032C422.833 90.56 433.969 88.384 435.377 88.96C436.529 89.408 438.897 95.36 439.409 96.704C442.033 103.36 444.017 110.272 446.321 117.056C446.833 109.12 446.193 100.416 444.913 92.608C444.785 91.712 444.337 90.496 445.425 90.048C446.641 89.536 457.969 88.832 459.441 89.216C459.633 89.472 459.569 89.792 459.505 90.112C458.993 93.504 459.057 97.216 458.993 100.672C458.801 109.504 458.673 118.336 458.609 127.168C458.609 129.088 455.793 128.576 454.513 128.576C451.057 128.576 448.049 129.152 444.721 129.856C444.401 129.92 443.953 129.92 443.697 129.728C443.121 129.28 442.993 128.448 442.801 127.808C440.753 120.64 438.128 112.576 434.161 106.24ZM444.465 135.488C444.017 135.552 443.313 135.616 442.865 135.488C441.841 135.232 441.841 133.952 442.801 133.632C445.681 132.608 448.689 132.48 451.697 132.224C455.729 131.904 454.769 134.336 453.361 134.656C450.545 135.296 447.345 135.104 444.465 135.488ZM458.353 132.544C460.081 132.992 458.801 135.552 457.009 134.464C455.665 133.632 457.137 132.224 458.353 132.544ZM477.673 123.584C481.385 124.416 489.257 123.008 492.841 121.664C493.161 121.536 493.737 121.216 493.993 121.664C494.121 121.92 494.185 122.944 494.249 123.264C494.697 126.336 495.145 129.92 494.953 132.992C494.889 133.632 493.225 134.208 492.713 134.4C485.993 136.896 474.345 138.112 468.457 133.184C461.032 126.976 466.921 101.248 467.305 92.928C469.289 91.264 493.545 88.832 494.441 89.92C494.953 90.56 494.697 99.456 494.697 100.928C494.697 101.888 495.017 103.552 493.673 103.68C488.745 104.064 483.561 103.36 478.697 103.936C478.441 104.448 478.185 108.48 478.121 109.312C479.145 109.312 487.721 109.184 487.913 109.376C488.169 109.696 488.169 110.336 488.169 110.72C488.169 112.576 488.361 114.752 488.169 116.544C488.105 117.056 487.977 117.44 487.401 117.568C485.609 118.08 479.208 117.824 477.097 117.696C477.161 119.68 477.225 121.664 477.673 123.584ZM493.161 138.496C492.009 138.624 491.561 137.28 492.777 136.768C494.505 136.064 494.953 138.304 493.161 138.496ZM481.897 140.992C479.721 141.312 476.009 141.056 473.961 140.096C473.321 139.776 471.465 139.008 471.337 138.176C471.209 137.28 472.105 136.832 472.809 137.28C474.089 138.048 476.137 138.496 477.609 138.752C483.177 139.776 488.745 137.536 489.897 137.728C490.793 137.856 490.665 138.88 489.897 139.2C487.529 140.16 484.393 140.608 481.897 140.992ZM523.361 135.424C514.017 138.112 502.049 136 501.409 124.224C501.345 123.52 501.345 122.816 501.921 122.304C503.009 121.344 512.289 119.744 512.929 121.024C513.76 122.624 512.417 126.016 515.873 126.016C518.625 126.016 519.457 122.752 518.497 120.64C515.233 113.216 497.248 116.352 498.913 102.592C499.617 96.832 504.417 92.352 509.537 90.24C515.745 87.744 523.873 87.68 529.632 91.264C533.537 93.696 535.841 97.472 536.161 102.016C536.225 103.296 536.353 105.472 534.817 105.984C533.857 106.304 525.089 107.136 524.065 107.008C523.297 106.944 522.657 106.88 522.529 105.984C522.081 103.232 522.145 99.712 518.817 98.56C515.745 97.536 510.049 100.224 511.521 104.064C512.865 107.712 529.825 109.248 532.961 119.68C535.009 126.528 529.889 133.504 523.361 135.424ZM520.929 132.416C520.033 133.504 521.377 134.784 522.593 134.4C527.073 132.928 530.977 129.088 531.361 124.288C531.681 120.768 528.801 121.6 528.801 123.072C528.801 124.608 528.609 125.504 528.033 126.912C526.497 130.624 521.441 131.776 520.929 132.416ZM517.025 134.848C517.793 135.552 519.009 135.104 519.201 134.144C519.713 131.456 515.041 132.992 517.025 134.848ZM563.673 135.424C554.329 138.112 542.361 136 541.721 124.224C541.657 123.52 541.657 122.816 542.233 122.304C543.321 121.344 552.601 119.744 553.241 121.024C554.073 122.624 552.729 126.016 556.185 126.016C558.937 126.016 559.769 122.752 558.809 120.64C555.545 113.216 537.561 116.352 539.225 102.592C539.929 96.832 544.729 92.352 549.849 90.24C556.057 87.744 564.185 87.68 569.945 91.264C573.849 93.696 576.153 97.472 576.473 102.016C576.537 103.296 576.665 105.472 575.129 105.984C574.169 106.304 565.401 107.136 564.377 107.008C563.609 106.944 562.969 106.88 562.841 105.984C562.393 103.232 562.457 99.712 559.129 98.56C556.057 97.536 550.361 100.224 551.833 104.064C553.177 107.712 570.137 109.248 573.273 119.68C575.321 126.528 570.201 133.504 563.673 135.424ZM561.241 132.416C560.345 133.504 561.689 134.784 562.905 134.4C567.385 132.928 571.289 129.088 571.673 124.288C571.993 120.768 569.113 121.6 569.113 123.072C569.113 124.608 568.921 125.504 568.345 126.912C566.809 130.624 561.753 131.776 561.241 132.416ZM557.337 134.848C558.105 135.552 559.321 135.104 559.513 134.144C560.025 131.456 555.353 132.992 557.337 134.848ZM612.69 123.456C612.498 126.848 612.498 130.304 612.753 133.696C612.818 134.592 613.202 136.256 612.37 136.896C612.306 136.96 611.922 137.024 611.858 137.024C608.594 137.6 601.362 137.408 598.098 136.768C597.202 136.576 596.754 136.192 596.69 135.232C596.626 132.736 597.65 126.08 597.842 122.88C598.29 113.92 598.866 101.696 597.97 92.928C597.906 92.352 597.714 91.584 598.161 91.072C598.546 90.624 599.314 90.688 599.826 90.624C605.714 89.792 611.346 89.024 617.362 89.792C636.05 92.16 637.138 119.872 612.69 123.456ZM610.962 99.84C611.474 104.192 611.474 108.544 611.73 112.896C623.25 110.912 622.226 100.352 615.634 99.648C614.098 99.52 612.498 99.712 610.962 99.84ZM628.69 121.408C627.538 122.432 626.514 120.512 628.434 119.104C629.201 118.592 630.162 119.424 629.778 120.256C629.65 120.576 628.946 121.152 628.69 121.408ZM618.322 128.064C617.554 128.256 615.762 128.32 615.058 128C614.098 127.616 614.162 126.336 615.186 126.08C618.258 125.248 620.434 124.608 623.314 123.072C627.41 120.832 627.986 125.44 618.322 128.064ZM665.128 118.912C666.024 119.36 665.512 121.408 665.448 122.176C665.32 124.416 665.832 131.776 665.576 133.056C665.384 133.888 664.36 133.952 663.656 133.952C660.456 133.952 637.224 134.848 636.776 134.208C636.52 134.08 636.264 133.888 636.2 133.632L636.904 123.072C637.224 116.672 637.672 97.408 636.136 91.584C635.816 90.432 637.48 90.368 638.312 90.176C641.96 89.408 646.376 88.832 650.088 88.896C650.664 88.896 650.984 89.088 651.304 89.6C652.136 90.944 651.944 105.216 651.88 107.776C651.816 111.744 651.816 115.776 651.496 119.744C655.4 119.104 659.56 118.336 663.464 118.016C664.168 117.952 665.064 118.016 665.128 118.912ZM643.816 139.328C643.304 139.328 641.832 139.328 641.448 139.136C640.552 138.624 640.808 137.664 641.704 137.344C644.008 136.64 654.696 137.024 657.832 136.832C660.712 136.64 660.392 138.88 658.792 139.136C656.104 139.52 647.016 139.328 643.816 139.328ZM665.384 137.088C666.92 137.28 666.6 139.456 665.256 139.328L663.592 139.136C662.184 138.944 662.184 136.704 665.384 137.088ZM686.398 86.848C684.798 87.36 684.99 84.928 686.142 84.992C687.23 85.056 687.422 86.464 686.398 86.848ZM672.254 99.328C673.086 95.616 674.43 90.176 677.502 87.744C678.462 86.976 682.302 85.12 683.39 85.824C683.966 86.208 683.838 87.296 683.134 87.424C681.598 87.616 680.446 87.616 679.23 88.64C678.014 89.664 675.774 94.528 675.134 96.192C674.814 96.96 674.046 99.584 673.342 99.84C672.894 100.032 672.382 99.776 672.254 99.328ZM682.43 128.128C682.238 129.28 681.534 135.68 681.086 136.128C680.062 137.088 669.822 136.448 668.862 135.168C666.43 131.968 676.542 92.096 682.174 89.472C684.094 88.576 686.59 88.448 688.702 88.512C690.75 88.576 698.11 88.96 699.454 90.176C703.038 93.376 711.87 129.792 709.438 134.4C707.838 137.472 697.15 137.92 696.574 134.592C696.254 132.48 696.19 130.176 695.934 128C691.454 127.744 686.91 127.808 682.43 128.128ZM683.582 119.04C687.486 118.784 691.582 118.656 695.486 119.04C695.614 116.8 693.374 103.04 692.478 101.696C691.454 100.16 689.022 101.44 687.614 101.376C685.502 107.072 684.862 113.152 683.582 119.04ZM726.604 106.24C727.884 112.64 730.764 129.408 730.06 135.36C729.932 136.512 728.972 136.896 727.948 136.96C726.156 137.088 715.404 137.408 714.636 136.32C713.932 135.296 714.764 132.224 714.956 131.008C716.3 122.176 716.236 107.008 715.404 97.984C715.34 97.024 714.828 92.608 714.956 92.032C715.276 90.56 726.412 88.384 727.82 88.96C728.972 89.408 731.34 95.36 731.852 96.704C734.476 103.36 736.46 110.272 738.764 117.056C739.276 109.12 738.636 100.416 737.356 92.608C737.228 91.712 736.78 90.496 737.868 90.048C739.084 89.536 750.412 88.832 751.884 89.216C752.076 89.472 752.012 89.792 751.948 90.112C751.436 93.504 751.5 97.216 751.436 100.672C751.244 109.504 751.116 118.336 751.052 127.168C751.052 129.088 748.236 128.576 746.956 128.576C743.5 128.576 740.492 129.152 737.164 129.856C736.844 129.92 736.396 129.92 736.14 129.728C735.564 129.28 735.436 128.448 735.244 127.808C733.196 120.64 730.572 112.576 726.604 106.24ZM736.908 135.488C736.46 135.552 735.756 135.616 735.308 135.488C734.284 135.232 734.284 133.952 735.244 133.632C738.124 132.608 741.132 132.48 744.14 132.224C748.172 131.904 747.212 134.336 745.804 134.656C742.988 135.296 739.788 135.104 736.908 135.488ZM750.796 132.544C752.524 132.992 751.244 135.552 749.452 134.464C748.108 133.632 749.58 132.224 750.796 132.544Z" fill="url(#paint3_radial_2362_79)"/>
<path d="M529.632 235.796C519.392 238.835 513.002 248.6 511.087 253.103C514.103 258.183 518.501 254.721 531.775 248.823C588.587 230.759 577.293 179.866 562.851 178.727C548.409 177.588 561.603 202.704 552.471 209.783C543.339 216.863 547.663 200.963 537.97 205.648C528.276 210.332 542.433 231.998 529.632 235.796Z" fill="url(#paint4_linear_2362_79)"/>
<path d="M517.121 247.499C514.151 250.441 511.892 253.361 511.397 253.803C513.046 251.172 515.021 249.101 517.121 247.499C520.667 243.987 525.226 240.443 529.007 241.044C535.956 242.148 541.522 237.446 543.862 227.682C545.734 219.871 544.39 216.602 543.484 215.944C545.497 217.33 549.097 221.317 547.393 226.177C545.263 232.252 561.938 214.979 563.387 205.934C564.545 198.698 562.906 194.917 561.941 193.931C563.378 194.927 566.012 198.158 565.053 203.106C563.855 209.292 555.451 227.247 548.076 231.349C540.701 235.451 538.015 244.32 533.453 243.088C530.078 242.177 523.093 242.943 517.121 247.499Z" fill="url(#paint5_linear_2362_79)"/>
<path d="M550.926 258.824C541.497 258.32 528.95 257.979 523.854 257.872C510.527 257.497 506.489 249.883 525.312 247.04C544.135 244.198 546.432 219.853 557.612 216.85C568.793 213.846 565.573 225.784 571.939 223.441C578.305 221.098 598.864 219.054 598.55 226.098C598.236 233.142 595.343 237.083 585.005 242.392C574.667 247.7 553.488 247.063 563.894 252.809C574.301 258.555 593.584 254.007 589.796 259.453C586.009 264.9 575.986 263.163 573.157 262.342C570.329 261.52 562.712 259.453 550.926 258.824Z" fill="url(#paint6_linear_2362_79)"/>
<path d="M513.188 253.335C514.236 252.635 523.164 254.248 530.748 249.787C538.332 245.326 548.803 247.39 558.001 239.552C565.558 233.112 574.176 232.464 578.768 230.995C580.951 229.67 582.081 229.079 581.136 229.855C580.571 230.319 579.764 230.677 578.768 230.995C573.632 234.112 562.67 241.29 559.189 244.295C554.227 248.577 536.788 246.665 533.499 250.115C530.867 252.875 518.862 253.411 513.188 253.335Z" fill="url(#paint7_linear_2362_79)"/>
<path d="M501.676 236.576C511.917 239.614 518.307 249.379 520.222 253.882C517.205 258.962 512.808 255.501 499.533 249.603C442.721 231.538 454.015 180.645 468.458 179.506C482.9 178.367 469.706 203.483 478.838 210.563C487.969 217.642 483.645 201.742 493.339 206.427C503.032 211.112 488.876 232.778 501.676 236.576Z" fill="url(#paint8_linear_2362_79)"/>
<path d="M514.188 248.278C517.158 251.22 519.417 254.14 519.912 254.582C518.263 251.951 516.288 249.881 514.188 248.278C510.642 244.766 506.083 241.222 502.302 241.823C495.353 242.927 489.787 238.225 487.447 228.461C485.574 220.65 486.919 217.381 487.825 216.723C485.812 218.109 482.212 222.097 483.916 226.956C486.046 233.031 469.37 215.758 467.922 206.713C466.763 199.477 468.403 195.696 469.368 194.71C467.931 195.707 465.297 198.937 466.255 203.885C467.453 210.071 475.857 228.026 483.233 232.128C490.608 236.231 493.294 245.099 497.856 243.868C501.231 242.956 508.215 243.722 514.188 248.278Z" fill="url(#paint9_linear_2362_79)"/>
<path d="M480.382 259.603C489.811 259.099 502.359 258.759 507.454 258.651C520.782 258.276 524.819 250.662 505.996 247.82C487.173 244.977 484.877 220.633 473.696 217.629C462.516 214.626 465.736 226.563 459.37 224.22C453.003 221.877 432.444 219.833 432.758 226.877C433.073 233.921 435.966 237.863 446.304 243.171C456.642 248.479 477.82 247.843 467.414 253.588C457.008 259.334 437.725 254.786 441.512 260.232C445.299 265.679 455.323 263.943 458.151 263.121C460.98 262.299 468.596 260.233 480.382 259.603Z" fill="url(#paint10_linear_2362_79)"/>
<path d="M518.12 254.114C517.073 253.414 508.144 255.027 500.56 250.567C492.976 246.106 482.505 248.169 473.308 240.331C465.751 233.891 457.132 233.243 452.541 231.775C450.358 230.45 449.227 229.859 450.172 230.634C450.737 231.098 451.544 231.456 452.541 231.775C457.677 234.891 468.639 242.07 472.12 245.074C477.081 249.356 494.521 247.445 497.81 250.894C500.441 253.654 512.447 254.191 518.12 254.114Z" fill="url(#paint11_linear_2362_79)"/>
<path d="M513.159 257.031C513.098 254.191 506.951 244.149 502.37 245.969C497.789 247.789 495.664 246.269 497.632 244.017C499.601 241.764 497.536 239.51 495.015 239.845C492.494 240.18 489.237 237.062 492.162 235.92C495.087 234.778 488.457 227.32 495.028 226.393C501.599 225.465 500.432 241.948 509.28 241.229C514.327 240.819 514.958 244.969 514.982 246.539C515.051 245.895 515.226 244.674 515.631 242.644C517.86 231.48 513.041 236.236 511.219 234.784C509.397 233.332 511.457 231.847 514.129 231.545C516.801 231.244 513.963 229.415 513.663 226.658C513.363 223.9 515.887 220.874 511.242 219.69C506.596 218.505 505.01 216.806 504.978 215.304C504.946 213.802 502.519 212.215 502.807 210.186C503.094 208.157 512.293 209.759 514.791 215.398C517.29 221.038 519.741 213.96 518.299 211.246C516.856 208.533 517.025 207.972 519.095 204.845C521.165 201.718 522.302 197.935 521.581 196.578C520.86 195.222 520.778 192.812 523.862 192.751C526.945 192.691 528.309 199.422 525.743 202.589C523.177 205.755 522.875 212.266 523.762 212.464C524.649 212.661 526.223 207.802 528.243 206.884C530.262 205.965 533.827 202.83 534.534 204.547C535.241 206.265 535.585 208.609 531.86 210.533C528.135 212.456 522.039 220.518 523.386 228.824C524.734 237.13 526.193 225.306 531.153 226.249C536.114 227.193 537.57 229.325 531.906 230.722C526.241 232.12 527.43 240.953 529.101 240.047C530.772 239.141 528.234 246.375 526.508 248.669C524.782 250.962 524.521 255.273 524.103 256.663C523.685 258.053 517.453 265.016 513.159 257.031Z" fill="url(#paint12_linear_2362_79)"/>
<path d="M533.791 258.507C535.468 256.061 546.559 249.933 549.505 253.462C552.451 256.991 555.168 256.571 554.743 253.775C554.318 250.98 557.404 249.895 559.406 251.257C561.408 252.619 566.025 251.289 564.132 249.053C562.24 246.817 572.274 243.143 567.086 239.545C561.898 235.947 553.489 250.787 546.201 246.403C542.044 243.903 539.123 247.247 538.204 248.603C538.512 248.013 539.058 246.876 539.866 244.938C544.31 234.277 545.783 240.462 548.199 239.972C550.615 239.482 549.671 237.315 547.518 235.918C545.366 234.521 548.881 234.135 550.718 231.863C552.556 229.59 552.09 225.886 556.809 226.828C561.529 227.77 563.881 226.965 564.768 225.671C565.654 224.378 568.673 224.027 569.583 222.14C570.493 220.252 561.573 217.739 556.175 221.586C550.776 225.432 552.689 218.232 555.496 216.483C558.303 214.735 558.477 214.175 558.463 210.575C558.45 206.976 559.623 203.2 561.026 202.326C562.429 201.452 563.879 199.389 561.23 198.027C558.581 196.665 553.546 201.944 553.968 205.789C554.391 209.633 550.931 215.427 550.046 215.223C549.161 215.018 550.57 210.122 549.338 208.465C548.105 206.808 546.795 202.566 545.198 203.76C543.601 204.954 541.962 206.848 544.103 210.104C546.245 213.36 546.94 222.964 541.019 229.619C535.097 236.274 540.588 225.366 535.732 224.08C530.876 222.795 528.39 224.031 532.52 227.653C536.65 231.275 530.566 238.456 529.63 236.958C528.694 235.46 526.766 242.833 526.957 245.562C527.147 248.291 524.909 252.152 524.478 253.54C524.047 254.927 525.489 263.632 533.791 258.507Z" fill="url(#paint13_linear_2362_79)"/>
<path d="M507.014 261.454C505.083 258.831 492.45 252.851 489.166 257.097C485.881 261.343 482.801 261.101 483.243 257.901C483.686 254.701 480.18 253.739 477.933 255.453C475.687 257.166 470.445 256.058 472.555 253.365C474.666 250.672 463.263 247.378 469.083 242.862C474.904 238.345 484.621 254.412 492.807 248.826C497.476 245.64 500.827 249.172 501.885 250.627C501.528 249.987 500.896 248.747 499.955 246.624C494.781 234.943 493.199 242.068 490.459 241.721C487.719 241.374 488.757 238.842 491.173 237.076C493.59 235.31 489.608 235.176 487.497 232.762C485.387 230.349 485.864 226.118 480.537 227.589C475.21 229.061 472.538 228.352 471.517 226.965C470.496 225.578 467.075 225.441 466.02 223.383C464.965 221.325 475.023 217.716 481.183 221.604C487.344 225.492 485.081 217.51 481.881 215.773C478.682 214.035 478.477 213.417 478.443 209.343C478.409 205.269 477.031 201.098 475.431 200.23C473.831 199.361 472.163 197.152 475.141 195.383C478.12 193.615 483.889 199.155 483.464 203.541C483.038 207.927 487.032 214.185 488.031 213.878C489.029 213.57 487.368 208.151 488.74 206.171C490.111 204.19 491.535 199.278 493.358 200.492C495.182 201.705 497.063 203.708 494.684 207.575C492.305 211.443 491.65 222.369 498.441 229.39C505.232 236.411 498.87 224.541 504.347 222.67C509.823 220.798 512.653 221.983 508.03 226.436C503.406 230.889 510.389 238.49 511.427 236.715C512.466 234.94 514.747 243.116 514.569 246.22C514.391 249.324 516.976 253.5 517.483 255.033C517.989 256.566 516.477 266.539 507.014 261.454Z" fill="url(#paint14_linear_2362_79)"/>
<path d="M539.461 268.642C545 267.277 552.415 256.502 555.37 249.27C558.233 242.262 543.853 247.166 540.162 254.276C541.112 248.98 541.098 243.45 538.127 241.028C533.177 236.992 532.968 252.074 533.482 260.12C529.282 248.971 520.564 229.413 519.293 240.371C518.091 250.736 524.795 259.609 528.86 263.31C523.44 258.616 513.501 250.701 512.315 252.535C510.77 254.926 523.343 267.346 526.629 267.277C529.258 267.222 533.921 270.006 539.461 268.642Z" fill="url(#paint15_linear_2362_79)"/>
<path d="M507.461 267.642C513 266.277 520.415 255.502 523.37 248.27C526.233 241.262 511.853 246.166 508.162 253.276C509.112 247.98 509.098 242.45 506.127 240.028C501.177 235.992 500.968 251.074 501.482 259.12C497.282 247.971 488.564 228.413 487.293 239.371C486.091 249.736 492.795 258.609 496.86 262.31C491.44 257.616 481.501 249.701 480.315 251.535C478.77 253.926 491.343 266.346 494.629 266.277C497.258 266.222 501.921 269.006 507.461 267.642Z" fill="url(#paint16_linear_2362_79)"/>
<path d="M521.511 269.568C525.848 268.104 530.42 257.851 532.503 251.272C534.521 244.898 524.731 250.402 522.15 256.936C522.854 252.221 522.908 247.382 520.924 245.513C517.619 242.398 517.305 255.616 517.561 262.614C514.845 253.211 509.167 236.829 508.181 246.526C507.249 255.699 511.686 262.899 514.396 265.796C510.781 262.144 504.143 256.056 503.319 257.761C502.245 259.984 510.615 269.793 512.84 269.455C514.621 269.186 517.175 271.031 521.511 269.568Z" fill="url(#paint17_linear_2362_79)"/>
<g filter="url(#filter2_d_2362_79)">
<path d="M800.011 174.202C819.904 162.209 853.848 175.521 874.836 187.232C895.824 198.943 787.296 217.034 843.368 224.414C899.44 231.793 820.539 259.435 767.664 262.919C714.788 266.403 709.629 254.425 664.866 253.57C620.103 252.715 671.932 234.228 691.536 237.741C711.14 241.253 736.272 252.993 756.442 244.604C765.063 241.018 763.813 231.491 752.327 228.772C740.841 226.053 725.616 234.443 725.911 231.25C726.207 228.057 734.793 214.254 746.618 211.674C757.656 209.265 767.19 212.813 781.289 216.726C803.554 222.904 825.709 198.513 815.563 190.892C807.446 184.794 792.663 196.469 786.286 203.069C782.572 198.444 780.118 186.196 800.011 174.202Z" fill="url(#paint18_radial_2362_79)"/>
</g>
<g filter="url(#filter3_d_2362_79)">
<path d="M226.161 177.202C206.267 165.209 172.324 178.521 151.336 190.232C130.348 201.943 238.876 220.034 182.804 227.414C126.732 234.793 205.633 262.435 258.508 265.919C311.384 269.403 316.543 257.425 361.306 256.57C406.069 255.715 354.24 237.228 334.636 240.741C315.032 244.253 289.9 255.993 269.73 247.604C261.109 244.018 262.359 234.491 273.845 231.772C285.331 229.053 300.556 237.443 300.261 234.25C299.965 231.057 291.379 217.254 279.554 214.674C268.516 212.265 258.982 215.813 244.883 219.726C222.618 225.904 200.463 201.513 210.609 193.892C218.726 187.794 233.509 199.469 239.886 206.069C243.6 201.444 246.054 189.196 226.161 177.202Z" fill="url(#paint19_radial_2362_79)"/>
</g>
<g filter="url(#filter4_d_2362_79)">
<path d="M497.377 228.416C495.84 239.133 476.685 231.269 466.992 232.576C457.298 233.884 478.854 245.467 490.369 252.918C501.884 260.369 478.271 283.426 485.039 293.481C491.806 303.536 504.612 275.643 513.706 264.839C522.8 254.036 553.908 288.312 565.455 279.527C577.002 270.741 540.047 259.512 535.56 248.138C531.072 236.765 558.228 219.968 552.393 214.468C549.18 211.439 536.111 226.582 527.125 231.282C518.138 235.982 515.119 190.123 505.56 188.353C496.001 186.584 499.298 215.019 497.377 228.416Z" fill="url(#paint20_linear_2362_79)"/>
</g>
<g filter="url(#filter5_d_2362_79)">
<path d="M500.645 255.431C500.806 250.963 464.757 237.962 470.041 235.655C475.325 233.349 491.977 237.968 497.511 237.105C503.045 236.241 502.095 195.998 505.576 196.364C509.058 196.73 516.075 230.233 522.521 234.193C528.967 238.152 547.548 213.967 550.291 217.211C553.035 220.454 529.866 242.888 529.373 246.148C528.881 249.408 560.421 269.06 560.295 275.305C560.169 281.549 521.522 258.611 517.356 258.882C513.191 259.154 494.597 291.887 488.156 292.111C481.715 292.335 500.483 259.899 500.645 255.431Z" fill="url(#paint21_linear_2362_79)"/>
</g>
<path d="M481.995 238.374C480.557 240.207 483.74 241.857 484.642 240.619C485.545 239.382 482.39 236.993 481.995 238.374Z" fill="#D9D9D9"/>
<path d="M499.935 245.251C501.409 243.449 498.261 241.732 497.334 242.951C496.408 244.17 499.513 246.625 499.935 245.251Z" fill="#D9D9D9"/>
<path d="M491.107 242.544C492.581 240.742 489.433 239.025 488.506 240.244C487.579 241.463 490.685 243.918 491.107 242.544Z" fill="#D9D9D9"/>
<path d="M509.432 230.178C507.994 232.01 511.178 233.66 512.08 232.423C512.982 231.185 509.827 228.796 509.432 230.178Z" fill="#D9D9D9"/>
<path d="M507.225 220.849C505.787 222.681 508.971 224.331 509.873 223.094C510.775 221.856 507.62 219.467 507.225 220.849Z" fill="#D9D9D9"/>
<path d="M525.116 238.429C523.678 240.261 526.861 241.911 527.764 240.674C528.666 239.436 525.511 237.047 525.116 238.429Z" fill="#D9D9D9"/>
<path d="M531.186 233.465C529.748 235.297 532.932 236.947 533.834 235.71C534.736 234.473 531.581 232.084 531.186 233.465Z" fill="#D9D9D9"/>
<path d="M538.499 226.834C537.061 228.666 540.244 230.317 541.146 229.079C542.049 227.842 538.894 225.453 538.499 226.834Z" fill="#D9D9D9"/>
<path d="M528.623 257.894C530.526 259.164 531.898 255.767 530.619 254.98C529.339 254.192 527.241 257.635 528.623 257.894Z" fill="#D9D9D9"/>
<path d="M540.082 261.525C539.527 259.273 536.281 260.881 536.698 262.347C537.114 263.812 540.923 262.664 540.082 261.525Z" fill="#D9D9D9"/>
<path d="M545.667 265.979C544.229 267.811 547.412 269.461 548.314 268.224C549.217 266.986 546.062 264.597 545.667 265.979Z" fill="#D9D9D9"/>
<path d="M504.262 266.195C504.818 263.927 501.23 263.802 500.918 265.304C500.605 266.805 504.472 267.61 504.262 266.195Z" fill="#D9D9D9"/>
<path d="M512.808 256.839C514.822 260.996 520.528 256.477 519.108 253.797C517.689 251.116 510.692 254.976 512.808 256.839Z" fill="#741F5E" stroke="#D9D9D9" stroke-width="3"/>
<path d="M506.243 236.504C502.929 233.335 499.091 239.567 501.343 241.568C503.594 243.568 508.874 237.495 506.243 236.504Z" fill="#741F5E" stroke="#D9D9D9" stroke-width="3"/>
<path d="M521.641 237.138C522.331 232.522 515.155 232.958 514.809 236.004C514.463 239.051 522.32 239.911 521.641 237.138Z" fill="#741F5E" stroke="#D9D9D9" stroke-width="3"/>
<path d="M502.345 249.358C499.469 253.022 505.836 256.322 507.64 253.847C509.445 251.373 503.135 246.595 502.345 249.358Z" fill="#741F5E" stroke="#D9D9D9" stroke-width="3"/>
<path d="M525.212 249.388C527.621 245.393 520.889 242.933 519.399 245.613C517.909 248.294 524.765 252.225 525.212 249.388Z" fill="#741F5E" stroke="#D9D9D9" stroke-width="3"/>
<path d="M500.415 273.305C500.241 270.984 496.783 272.018 496.951 273.537C497.119 275.056 501.054 274.574 500.415 273.305Z" fill="#D9D9D9"/>
<path d="M496.39 281.513C496.926 279.24 493.337 279.147 493.038 280.652C492.738 282.156 496.612 282.925 496.39 281.513Z" fill="#D9D9D9"/>
<path d="M506.803 210.123C505.366 211.956 508.549 213.606 509.451 212.368C510.353 211.131 507.198 208.742 506.803 210.123Z" fill="#D9D9D9"/>
<path d="M510.529 243.553C510.321 243.89 506.812 243.789 506.847 244.251C506.883 244.713 510.354 245.874 510.505 246.266C510.656 246.658 509.831 250.084 510.256 250.241C510.681 250.399 512.458 247.375 513.002 247.323C513.546 247.272 515.836 248.477 516.665 248.363C517.494 248.249 514.887 244.79 514.887 244.79C514.887 244.79 517.278 242.492 517.237 241.828C517.195 241.165 513.54 242.609 513.22 242.502C512.9 242.395 511.306 238.988 510.8 239.025C510.295 239.062 510.738 243.216 510.529 243.553Z" fill="#D9D9D9"/>
<defs>
<filter id="filter0_d_2362_79" x="155.602" y="51.4893" width="480.422" height="344.063" filterUnits="userSpaceOnUse" color-interpolation-filters="sRGB">
<feFlood flood-opacity="0" result="BackgroundImageFix"/>
<feColorMatrix in="SourceAlpha" type="matrix" values="0 0 0 0 0 0 0 0 0 0 0 0 0 0 0 0 0 0 127 0" result="hardAlpha"/>
<feOffset dy="4"/>
<feGaussianBlur stdDeviation="62.5"/>
<feComposite in2="hardAlpha" operator="out"/>
<feColorMatrix type="matrix" values="0 0 0 0 0.602456 0 0 0 0 0.862489 0 0 0 0 0.9525 0 0 0 0.54 0"/>
<feBlend mode="normal" in2="BackgroundImageFix" result="effect1_dropShadow_2362_79"/>
<feBlend mode="normal" in="SourceGraphic" in2="effect1_dropShadow_2362_79" result="shape"/>
</filter>
<filter id="filter1_d_2362_79" x="395.977" y="51.0713" width="480.422" height="344.063" filterUnits="userSpaceOnUse" color-interpolation-filters="sRGB">
<feFlood flood-opacity="0" result="BackgroundImageFix"/>
<feColorMatrix in="SourceAlpha" type="matrix" values="0 0 0 0 0 0 0 0 0 0 0 0 0 0 0 0 0 0 127 0" result="hardAlpha"/>
<feOffset dy="4"/>
<feGaussianBlur stdDeviation="62.5"/>
<feComposite in2="hardAlpha" operator="out"/>
<feColorMatrix type="matrix" values="0 0 0 0 0.602456 0 0 0 0 0.862489 0 0 0 0 0.9525 0 0 0 0.54 0"/>
<feBlend mode="normal" in2="BackgroundImageFix" result="effect1_dropShadow_2362_79"/>
<feBlend mode="normal" in="SourceGraphic" in2="effect1_dropShadow_2362_79" result="shape"/>
</filter>
<filter id="filter2_d_2362_79" x="522.148" y="48.4893" width="480.422" height="344.063" filterUnits="userSpaceOnUse" color-interpolation-filters="sRGB">
<feFlood flood-opacity="0" result="BackgroundImageFix"/>
<feColorMatrix in="SourceAlpha" type="matrix" values="0 0 0 0 0 0 0 0 0 0 0 0 0 0 0 0 0 0 127 0" result="hardAlpha"/>
<feOffset dy="4"/>
<feGaussianBlur stdDeviation="62.5"/>
<feComposite in2="hardAlpha" operator="out"/>
<feColorMatrix type="matrix" values="0 0 0 0 0.602456 0 0 0 0 0.862489 0 0 0 0 0.9525 0 0 0 0.54 0"/>
<feBlend mode="normal" in2="BackgroundImageFix" result="effect1_dropShadow_2362_79"/>
<feBlend mode="normal" in="SourceGraphic" in2="effect1_dropShadow_2362_79" result="shape"/>
</filter>
<filter id="filter3_d_2362_79" x="23.6016" y="51.4893" width="480.422" height="344.063" filterUnits="userSpaceOnUse" color-interpolation-filters="sRGB">
<feFlood flood-opacity="0" result="BackgroundImageFix"/>
<feColorMatrix in="SourceAlpha" type="matrix" values="0 0 0 0 0 0 0 0 0 0 0 0 0 0 0 0 0 0 127 0" result="hardAlpha"/>
<feOffset dy="4"/>
<feGaussianBlur stdDeviation="62.5"/>
<feComposite in2="hardAlpha" operator="out"/>
<feColorMatrix type="matrix" values="0 0 0 0 0.602456 0 0 0 0 0.862489 0 0 0 0 0.9525 0 0 0 0.54 0"/>
<feBlend mode="normal" in2="BackgroundImageFix" result="effect1_dropShadow_2362_79"/>
<feBlend mode="normal" in="SourceGraphic" in2="effect1_dropShadow_2362_79" result="shape"/>
</filter>
<filter id="filter4_d_2362_79" x="374.651" y="102.374" width="282.929" height="287.156" filterUnits="userSpaceOnUse" color-interpolation-filters="sRGB">
<feFlood flood-opacity="0" result="BackgroundImageFix"/>
<feColorMatrix in="SourceAlpha" type="matrix" values="0 0 0 0 0 0 0 0 0 0 0 0 0 0 0 0 0 0 127 0" result="hardAlpha"/>
<feOffset dy="4"/>
<feGaussianBlur stdDeviation="44.95"/>
<feComposite in2="hardAlpha" operator="out"/>
<feColorMatrix type="matrix" values="0 0 0 0 0.407843 0 0 0 0 0.0941176 0 0 0 0 0.129412 0 0 0 1 0"/>
<feBlend mode="normal" in2="BackgroundImageFix" result="effect1_dropShadow_2362_79"/>
<feBlend mode="normal" in="SourceGraphic" in2="effect1_dropShadow_2362_79" result="shape"/>
</filter>
<filter id="filter5_d_2362_79" x="366.712" y="97.5623" width="296.385" height="301.35" filterUnits="userSpaceOnUse" color-interpolation-filters="sRGB">
<feFlood flood-opacity="0" result="BackgroundImageFix"/>
<feColorMatrix in="SourceAlpha" type="matrix" values="0 0 0 0 0 0 0 0 0 0 0 0 0 0 0 0 0 0 127 0" result="hardAlpha"/>
<feOffset dy="4"/>
<feGaussianBlur stdDeviation="51.4"/>
<feComposite in2="hardAlpha" operator="out"/>
<feColorMatrix type="matrix" values="0 0 0 0 0.847059 0 0 0 0 0.709804 0 0 0 0 0.458824 0 0 0 1 0"/>
<feBlend mode="normal" in2="BackgroundImageFix" result="effect1_dropShadow_2362_79"/>
<feBlend mode="normal" in="SourceGraphic" in2="effect1_dropShadow_2362_79" result="shape"/>
</filter>
<linearGradient id="paint0_linear_2362_79" x1="515" y1="0" x2="515" y2="332" gradientUnits="userSpaceOnUse">
<stop offset="0.095" stop-color="#D7B575"/>
<stop offset="0.32" stop-color="#BED775"/>
<stop offset="0.99" stop-color="#4E3D71"/>
</linearGradient>
<radialGradient id="paint1_radial_2362_79" cx="0" cy="0" r="1" gradientUnits="userSpaceOnUse" gradientTransform="translate(332.343 199.738) rotate(24.4111) scale(208.257 72.865)">
<stop stop-color="#75D7D6"/>
<stop offset="0.288144" stop-color="#3CC1EC"/>
<stop offset="0.836667" stop-color="#C213BB"/>
<stop offset="1" stop-color="#D575D7"/>
</radialGradient>
<radialGradient id="paint2_radial_2362_79" cx="0" cy="0" r="1" gradientUnits="userSpaceOnUse" gradientTransform="translate(699.657 199.32) rotate(155.589) scale(208.257 72.865)">
<stop stop-color="#75D7D6"/>
<stop offset="0.288144" stop-color="#3CC1EC"/>
<stop offset="0.836667" stop-color="#C213BB"/>
<stop offset="1" stop-color="#D575D7"/>
</radialGradient>
<radialGradient id="paint3_radial_2362_79" cx="0" cy="0" r="1" gradientUnits="userSpaceOnUse" gradientTransform="translate(528.845 100.775) rotate(-175.676) scale(425.718 102.481)">
<stop offset="0.120225" stop-color="#D7B575"/>
<stop offset="0.370102" stop-color="#B32169"/>
<stop offset="0.660328" stop-color="#741F5E"/>
<stop offset="1" stop-color="#BC0079" stop-opacity="0"/>
</radialGradient>
<linearGradient id="paint4_linear_2362_79" x1="526.008" y1="193.913" x2="547.569" y2="242.441" gradientUnits="userSpaceOnUse">
<stop offset="0.095" stop-color="#D7B575"/>
<stop offset="0.32" stop-color="#BED775"/>
<stop offset="0.99" stop-color="#4E3D71"/>
</linearGradient>
<linearGradient id="paint5_linear_2362_79" x1="516.344" y1="252.33" x2="571.495" y2="192.475" gradientUnits="userSpaceOnUse">
<stop stop-color="#681821"/>
<stop offset="1" stop-color="#6EC276"/>
</linearGradient>
<linearGradient id="paint6_linear_2362_79" x1="576.339" y1="213.582" x2="549.498" y2="271.927" gradientUnits="userSpaceOnUse">
<stop offset="0.095" stop-color="#D7B575"/>
<stop offset="0.32" stop-color="#BED775"/>
<stop offset="0.99" stop-color="#4E3D71"/>
</linearGradient>
<linearGradient id="paint7_linear_2362_79" x1="512.795" y1="256.092" x2="567.972" y2="230.793" gradientUnits="userSpaceOnUse">
<stop stop-color="#681821"/>
<stop offset="1" stop-color="#378F6A"/>
</linearGradient>
<linearGradient id="paint8_linear_2362_79" x1="505.301" y1="194.693" x2="483.739" y2="243.22" gradientUnits="userSpaceOnUse">
<stop offset="0.095" stop-color="#D7B575"/>
<stop offset="0.32" stop-color="#BED775"/>
<stop offset="0.99" stop-color="#4E3D71"/>
</linearGradient>
<linearGradient id="paint9_linear_2362_79" x1="514.965" y1="253.109" x2="459.813" y2="193.254" gradientUnits="userSpaceOnUse">
<stop stop-color="#681821"/>
<stop offset="1" stop-color="#6EC276"/>
</linearGradient>
<linearGradient id="paint10_linear_2362_79" x1="454.969" y1="214.361" x2="481.81" y2="272.707" gradientUnits="userSpaceOnUse">
<stop offset="0.095" stop-color="#D7B575"/>
<stop offset="0.32" stop-color="#BED775"/>
<stop offset="0.99" stop-color="#4E3D71"/>
</linearGradient>
<linearGradient id="paint11_linear_2362_79" x1="518.514" y1="256.871" x2="463.337" y2="231.572" gradientUnits="userSpaceOnUse">
<stop stop-color="#681821"/>
<stop offset="1" stop-color="#378F6A"/>
</linearGradient>
<linearGradient id="paint12_linear_2362_79" x1="524.574" y1="192.85" x2="509.82" y2="259.064" gradientUnits="userSpaceOnUse">
<stop stop-color="#7E25EE" stop-opacity="0.86"/>
<stop offset="1" stop-color="#182256"/>
</linearGradient>
<linearGradient id="paint13_linear_2362_79" x1="542.345" y1="193.599" x2="534.5" y2="264.354" gradientUnits="userSpaceOnUse">
<stop stop-color="#7E25EE" stop-opacity="0.86"/>
<stop offset="0.745" stop-color="#7725E4" stop-opacity="0.8698"/>
<stop offset="1" stop-color="#182256"/>
</linearGradient>
<linearGradient id="paint14_linear_2362_79" x1="464.869" y1="198.48" x2="509.095" y2="264.544" gradientUnits="userSpaceOnUse">
<stop offset="0.26" stop-color="#5B6BFD"/>
<stop offset="0.84" stop-color="#182256"/>
</linearGradient>
<linearGradient id="paint15_linear_2362_79" x1="517.16" y1="242.9" x2="547.164" y2="264.893" gradientUnits="userSpaceOnUse">
<stop offset="0.783776" stop-color="#D02BC0"/>
<stop offset="0.943668" stop-color="#5F1780"/>
</linearGradient>
<linearGradient id="paint16_linear_2362_79" x1="485.16" y1="241.9" x2="515.164" y2="263.893" gradientUnits="userSpaceOnUse">
<stop offset="0.783776" stop-color="#D02BC0"/>
<stop offset="0.943668" stop-color="#5F1780"/>
</linearGradient>
<linearGradient id="paint17_linear_2362_79" x1="509.183" y1="242.469" x2="528.365" y2="268.092" gradientUnits="userSpaceOnUse">
<stop offset="0.575" stop-color="#B05DE2"/>
<stop offset="1" stop-color="#5F1780"/>
</linearGradient>
<radialGradient id="paint18_radial_2362_79" cx="0" cy="0" r="1" gradientUnits="userSpaceOnUse" gradientTransform="translate(825.829 196.738) rotate(155.589) scale(208.257 72.865)">
<stop stop-color="#75D7D6"/>
<stop offset="0.288144" stop-color="#3CC1EC"/>
<stop offset="0.836667" stop-color="#C213BB"/>
<stop offset="1" stop-color="#D575D7"/>
</radialGradient>
<radialGradient id="paint19_radial_2362_79" cx="0" cy="0" r="1" gradientUnits="userSpaceOnUse" gradientTransform="translate(200.343 199.738) rotate(24.4111) scale(208.257 72.865)">
<stop stop-color="#75D7D6"/>
<stop offset="0.288144" stop-color="#3CC1EC"/>
<stop offset="0.836667" stop-color="#C213BB"/>
<stop offset="1" stop-color="#D575D7"/>
</radialGradient>
<linearGradient id="paint20_linear_2362_79" x1="532.039" y1="195.643" x2="501.696" y2="302.552" gradientUnits="userSpaceOnUse">
<stop stop-color="#71D0CF"/>
<stop offset="0.305" stop-color="#5BA7A6"/>
<stop offset="0.78" stop-color="#75D7D6"/>
</linearGradient>
<linearGradient id="paint21_linear_2362_79" x1="528.45" y1="201.882" x2="505.407" y2="296.339" gradientUnits="userSpaceOnUse">
<stop offset="0.485" stop-color="#B32169"/>
<stop offset="1" stop-color="#3029BA"/>
</linearGradient>
</defs>
</svg>
