<svg width="1418" height="464" viewBox="0 0 1418 464" fill="none" xmlns="http://www.w3.org/2000/svg">
<path d="M294.426 60.992C304.538 64.448 310.554 76.608 306.586 86.592C298.65 106.56 264.858 105.408 247.194 105.152C244.762 105.152 242.202 105.28 240.026 104.256C238.234 103.36 236.954 101.824 236.826 99.776C236.314 91.328 237.21 82.496 237.082 74.048C236.826 63.296 236.314 52.416 235.802 41.664C235.418 34.624 235.546 27.328 234.522 20.416C234.266 18.368 233.37 14.656 234.266 12.736C234.65 11.968 235.674 11.712 236.442 11.456C250.01 7.104 280.73 6.336 293.402 13.376C299.034 16.448 303.258 22.08 305.306 28.096C307.226 33.6 307.61 39.616 305.818 45.248C303.898 51.52 299.674 57.152 294.426 60.992ZM288.026 21.696C289.69 23.488 292.506 22.72 292.634 20.16C292.762 17.984 289.306 16.064 287.642 15.168C280.602 11.328 272.666 11.712 264.986 11.968C257.562 12.224 260.378 18.368 263.962 17.216C269.594 15.296 283.802 17.216 288.026 21.696ZM293.786 28.096C296.986 32.832 301.594 23.616 296.09 23.744C294.042 23.872 292.634 26.304 293.786 28.096ZM263.834 34.496C264.218 38.976 264.602 43.456 264.73 47.936C267.418 47.68 270.234 47.68 272.794 46.912C283.674 43.712 281.114 31.424 263.834 34.496ZM265.37 68.672C265.754 72.896 265.754 77.12 265.754 81.344C269.594 80.96 273.306 81.216 277.018 80.064C289.69 76.352 281.114 66.752 265.37 68.672ZM384.052 96.064C380.98 101.824 374.836 105.536 368.308 105.536C355.892 105.536 326.58 101.696 320.436 89.408C318.26 84.928 318.26 79.808 318.388 74.944C318.516 68.544 322.996 17.6 325.3 15.552C327.604 13.376 336.308 13.76 339.508 13.888C340.916 13.888 347.572 14.144 348.468 14.528C349.62 14.912 350.132 15.808 350.388 16.96C350.516 17.344 345.652 42.56 345.14 45.76C343.988 53.952 340.276 73.792 353.204 73.92C356.532 73.92 359.988 70.976 361.14 68.032C365.108 57.536 355.636 18.752 359.476 14.016C361.524 11.456 379.7 11.712 382.644 12.864C383.668 13.248 384.436 13.632 384.564 14.784C384.82 16.448 384.948 18.24 385.204 19.904C386.996 32.576 389.812 61.76 388.916 73.792C388.404 81.216 387.636 89.408 384.052 96.064ZM318.644 98.88C320.692 98.496 321.588 100.928 320.18 102.208C317.108 105.152 315.188 97.6 318.644 98.88ZM354.1 113.728C348.468 116.288 329.524 111.168 324.788 107.2C323.508 106.176 324.916 103.36 327.092 104.256C331.188 105.92 335.028 107.2 339.252 108.096C343.22 108.992 351.54 108.864 354.356 110.272C355.892 111.04 355.508 113.088 354.1 113.728ZM446.221 102.848C427.533 108.224 403.597 104 402.317 80.448C402.189 79.04 402.189 77.632 403.341 76.608C405.517 74.688 424.077 71.488 425.357 74.048C427.021 77.248 424.333 84.032 431.245 84.032C436.749 84.032 438.413 77.504 436.493 73.28C429.965 58.432 393.997 64.704 397.325 37.184C398.733 25.664 408.333 16.704 418.573 12.48C430.989 7.488 447.245 7.35999 458.765 14.528C466.573 19.392 471.181 26.944 471.821 36.032C471.949 38.592 472.205 42.944 469.133 43.968C467.213 44.608 449.677 46.272 447.629 46.016C446.093 45.888 444.813 45.76 444.557 43.968C443.661 38.464 443.789 31.424 437.133 29.12C430.989 27.072 419.597 32.448 422.541 40.128C425.229 47.424 459.149 50.496 465.421 71.36C469.517 85.056 459.277 99.008 446.221 102.848ZM441.357 96.832C439.565 99.008 442.253 101.568 444.685 100.8C453.645 97.856 461.453 90.176 462.221 80.576C462.861 73.536 457.101 75.2 457.101 78.144C457.101 81.216 456.717 83.008 455.565 85.824C452.493 93.248 442.381 95.552 441.357 96.832ZM433.549 101.696C435.085 103.104 437.517 102.208 437.901 100.288C438.925 94.912 429.581 97.984 433.549 101.696ZM511.614 10.56C512.126 11.456 511.486 12.608 510.462 12.736C509.566 12.864 508.798 12.224 507.902 12.096C503.038 11.328 497.79 12.992 493.182 12.352C492.286 12.224 490.878 11.712 490.878 10.688C490.878 6.07999 509.694 6.84799 511.614 10.56ZM487.806 13.12C484.99 16.704 481.278 8.128 486.27 8.63999C488.318 8.896 488.958 11.584 487.806 13.12ZM493.694 105.152C491.646 105.152 485.886 105.408 484.35 104C483.454 103.104 483.326 101.696 483.198 100.544C482.686 95.296 479.87 23.232 479.998 22.592C480.894 19.008 499.582 18.496 503.166 18.496C504.574 18.496 508.414 18.368 509.566 19.008C511.742 20.16 511.358 25.024 511.358 27.072L511.486 102.208C511.486 103.488 510.974 104.128 509.822 104.512C508.158 105.024 496.382 105.152 493.694 105.152ZM547.696 44.48C550.256 57.28 556.016 90.816 554.608 102.72C554.352 105.024 552.432 105.792 550.384 105.92C546.8 106.176 525.296 106.816 523.76 104.64C522.352 102.592 524.016 96.448 524.4 94.016C527.088 76.352 526.96 46.016 525.296 27.968C525.168 26.048 524.144 17.216 524.4 16.064C525.04 13.12 547.312 8.768 550.128 9.92C552.432 10.816 557.168 22.72 558.192 25.408C563.44 38.72 567.408 52.544 572.016 66.112C573.04 50.24 571.76 32.832 569.2 17.216C568.944 15.424 568.048 12.992 570.224 12.096C572.656 11.072 595.312 9.66399 598.256 10.432C598.64 10.944 598.512 11.584 598.384 12.224C597.36 19.008 597.488 26.432 597.36 33.344C596.976 51.008 596.72 68.672 596.592 86.336C596.592 90.176 590.96 89.152 588.4 89.152C581.488 89.152 575.472 90.304 568.816 91.712C568.176 91.84 567.28 91.84 566.768 91.456C565.616 90.56 565.36 88.896 564.976 87.616C560.88 73.28 555.632 57.152 547.696 44.48ZM568.304 102.976C567.408 103.104 566 103.232 565.104 102.976C563.056 102.464 563.056 99.904 564.976 99.264C570.736 97.216 576.752 96.96 582.768 96.448C590.832 95.808 588.912 100.672 586.096 101.312C580.464 102.592 574.064 102.208 568.304 102.976ZM596.08 97.088C599.536 97.984 596.976 103.104 593.392 100.928C590.704 99.264 593.648 96.448 596.08 97.088ZM634.72 79.168C642.144 80.832 657.888 78.016 665.056 75.328C665.696 75.072 666.848 74.432 667.36 75.328C667.616 75.84 667.744 77.888 667.872 78.528C668.768 84.672 669.664 91.84 669.28 97.984C669.152 99.264 665.824 100.416 664.8 100.8C651.36 105.792 628.064 108.224 616.288 98.368C601.44 85.952 613.216 34.496 613.984 17.856C617.952 14.528 666.464 9.66399 668.256 11.84C669.28 13.12 668.768 30.912 668.768 33.856C668.768 35.776 669.408 39.104 666.72 39.36C656.864 40.128 646.496 38.72 636.768 39.872C636.256 40.896 635.744 48.96 635.616 50.624C637.664 50.624 654.816 50.368 655.2 50.752C655.712 51.392 655.712 52.672 655.712 53.44C655.712 57.152 656.096 61.504 655.712 65.088C655.584 66.112 655.328 66.88 654.176 67.136C650.592 68.16 637.792 67.648 633.568 67.392C633.696 71.36 633.824 75.328 634.72 79.168ZM665.696 108.992C663.392 109.248 662.496 106.56 664.928 105.536C668.384 104.128 669.28 108.608 665.696 108.992ZM643.168 113.984C638.816 114.624 631.392 114.112 627.296 112.192C626.016 111.552 622.304 110.016 622.048 108.352C621.792 106.56 623.584 105.664 624.992 106.56C627.552 108.096 631.648 108.992 634.592 109.504C645.728 111.552 656.864 107.072 659.168 107.456C660.96 107.712 660.704 109.76 659.168 110.4C654.432 112.32 648.16 113.216 643.168 113.984ZM726.096 102.848C707.408 108.224 683.472 104 682.192 80.448C682.064 79.04 682.064 77.632 683.216 76.608C685.392 74.688 703.952 71.488 705.232 74.048C706.896 77.248 704.208 84.032 711.12 84.032C716.624 84.032 718.288 77.504 716.368 73.28C709.84 58.432 673.872 64.704 677.2 37.184C678.608 25.664 688.208 16.704 698.448 12.48C710.864 7.488 727.12 7.35999 738.64 14.528C746.448 19.392 751.056 26.944 751.696 36.032C751.824 38.592 752.08 42.944 749.008 43.968C747.088 44.608 729.552 46.272 727.504 46.016C725.968 45.888 724.688 45.76 724.432 43.968C723.536 38.464 723.664 31.424 717.008 29.12C710.864 27.072 699.472 32.448 702.416 40.128C705.104 47.424 739.024 50.496 745.296 71.36C749.392 85.056 739.152 99.008 726.096 102.848ZM721.232 96.832C719.44 99.008 722.128 101.568 724.56 100.8C733.52 97.856 741.328 90.176 742.096 80.576C742.736 73.536 736.976 75.2 736.976 78.144C736.976 81.216 736.592 83.008 735.44 85.824C732.368 93.248 722.256 95.552 721.232 96.832ZM713.424 101.696C714.96 103.104 717.392 102.208 717.776 100.288C718.8 94.912 709.456 97.984 713.424 101.696ZM806.721 102.848C788.033 108.224 764.097 104 762.817 80.448C762.689 79.04 762.689 77.632 763.841 76.608C766.017 74.688 784.577 71.488 785.857 74.048C787.521 77.248 784.833 84.032 791.745 84.032C797.249 84.032 798.913 77.504 796.993 73.28C790.465 58.432 754.497 64.704 757.825 37.184C759.233 25.664 768.833 16.704 779.073 12.48C791.489 7.488 807.745 7.35999 819.265 14.528C827.073 19.392 831.681 26.944 832.321 36.032C832.449 38.592 832.705 42.944 829.633 43.968C827.713 44.608 810.177 46.272 808.129 46.016C806.593 45.888 805.313 45.76 805.057 43.968C804.161 38.464 804.289 31.424 797.633 29.12C791.489 27.072 780.097 32.448 783.041 40.128C785.729 47.424 819.649 50.496 825.921 71.36C830.017 85.056 819.777 99.008 806.721 102.848ZM801.857 96.832C800.065 99.008 802.753 101.568 805.185 100.8C814.145 97.856 821.953 90.176 822.721 80.576C823.361 73.536 817.601 75.2 817.601 78.144C817.601 81.216 817.217 83.008 816.065 85.824C812.993 93.248 802.881 95.552 801.857 96.832ZM794.049 101.696C795.585 103.104 798.017 102.208 798.401 100.288C799.425 94.912 790.081 97.984 794.049 101.696ZM904.754 78.912C904.37 85.696 904.37 92.608 904.882 99.392C905.01 101.184 905.778 104.512 904.114 105.792C903.986 105.92 903.218 106.048 903.09 106.048C896.562 107.2 882.098 106.816 875.57 105.536C873.778 105.152 872.882 104.384 872.754 102.464C872.626 97.472 874.674 84.16 875.058 77.76C875.954 59.84 877.106 35.392 875.314 17.856C875.186 16.704 874.802 15.168 875.698 14.144C876.466 13.248 878.002 13.376 879.026 13.248C890.802 11.584 902.066 10.048 914.098 11.584C951.474 16.32 953.65 71.744 904.754 78.912ZM901.298 31.68C902.322 40.384 902.322 49.088 902.834 57.792C925.874 53.824 923.826 32.704 910.642 31.296C907.57 31.04 904.37 31.424 901.298 31.68ZM936.754 74.816C934.45 76.864 932.402 73.024 936.242 70.208C937.778 69.184 939.698 70.848 938.93 72.512C938.674 73.152 937.266 74.304 936.754 74.816ZM916.018 88.128C914.482 88.512 910.898 88.64 909.49 88C907.57 87.232 907.698 84.672 909.746 84.16C915.89 82.496 920.242 81.216 926.002 78.144C934.194 73.664 935.346 82.88 916.018 88.128ZM1008.99 69.824C1010.78 70.72 1009.76 74.816 1009.63 76.352C1009.38 80.832 1010.4 95.552 1009.89 98.112C1009.5 99.776 1007.46 99.904 1006.05 99.904C999.647 99.904 953.183 101.696 952.287 100.416C951.775 100.16 951.263 99.776 951.135 99.264L952.543 78.144C953.183 65.344 954.079 26.816 951.007 15.168C950.367 12.864 953.695 12.736 955.359 12.352C962.655 10.816 971.487 9.66399 978.911 9.79199C980.063 9.79199 980.703 10.176 981.343 11.2C983.007 13.888 982.623 42.432 982.495 47.552C982.367 55.488 982.367 63.552 981.727 71.488C989.535 70.208 997.855 68.672 1005.66 68.032C1007.07 67.904 1008.86 68.032 1008.99 69.824ZM966.367 110.656C965.343 110.656 962.399 110.656 961.631 110.272C959.839 109.248 960.351 107.328 962.143 106.688C966.751 105.28 988.127 106.048 994.399 105.664C1000.16 105.28 999.519 109.76 996.319 110.272C990.943 111.04 972.767 110.656 966.367 110.656ZM1009.5 106.176C1012.58 106.56 1011.94 110.912 1009.25 110.656L1005.92 110.272C1003.1 109.888 1003.1 105.408 1009.5 106.176ZM1051.92 2.24C1053.58 3.13599 1052.94 5.56799 1051.15 5.824C1047.95 6.20799 1049.1 0.703995 1051.92 2.24ZM1025.68 31.552C1020.56 35.136 1026.32 19.52 1026.7 18.624C1028.24 14.528 1030.29 10.56 1033.61 7.744C1035.66 6.07999 1042.32 2.88 1044.88 3.392C1046.8 3.77599 1046.93 6.20799 1045.01 6.84799C1041.93 7.744 1039.5 6.976 1036.81 9.66399C1032.85 13.632 1027.34 30.4 1025.68 31.552ZM1043.6 88.256C1042.83 92.992 1042.83 98.496 1041.68 103.104C1040.78 106.688 1017.74 105.408 1015.95 101.568C1012.37 94.016 1031.69 19.264 1041.68 11.84C1043.34 10.56 1045.52 10.048 1047.57 9.66399C1053.2 8.63999 1075.47 8.768 1078.67 13.376C1081.61 17.6 1083.41 22.72 1084.94 27.584C1087.89 37.312 1101.71 92.096 1097.87 100.416C1094.93 106.816 1073.42 107.968 1071.89 101.184C1070.99 97.216 1071.12 92.096 1070.73 88C1061.65 87.488 1052.69 87.616 1043.6 88.256ZM1046.03 70.08C1053.71 69.824 1062.16 69.312 1069.84 70.08C1069.97 65.984 1065.23 36.416 1063.05 34.624C1060.88 32.704 1056.65 34.88 1053.97 34.752C1049.87 46.016 1048.46 58.432 1046.03 70.08ZM1131.45 44.48C1134.01 57.28 1139.77 90.816 1138.36 102.72C1138.1 105.024 1136.18 105.792 1134.13 105.92C1130.55 106.176 1109.05 106.816 1107.51 104.64C1106.1 102.592 1107.77 96.448 1108.15 94.016C1110.84 76.352 1110.71 46.016 1109.05 27.968C1108.92 26.048 1107.89 17.216 1108.15 16.064C1108.79 13.12 1131.06 8.768 1133.88 9.92C1136.18 10.816 1140.92 22.72 1141.94 25.408C1147.19 38.72 1151.16 52.544 1155.77 66.112C1156.79 50.24 1155.51 32.832 1152.95 17.216C1152.69 15.424 1151.8 12.992 1153.97 12.096C1156.41 11.072 1179.06 9.66399 1182.01 10.432C1182.39 10.944 1182.26 11.584 1182.13 12.224C1181.11 19.008 1181.24 26.432 1181.11 33.344C1180.73 51.008 1180.47 68.672 1180.34 86.336C1180.34 90.176 1174.71 89.152 1172.15 89.152C1165.24 89.152 1159.22 90.304 1152.57 91.712C1151.93 91.84 1151.03 91.84 1150.52 91.456C1149.37 90.56 1149.11 88.896 1148.73 87.616C1144.63 73.28 1139.38 57.152 1131.45 44.48ZM1152.05 102.976C1151.16 103.104 1149.75 103.232 1148.85 102.976C1146.81 102.464 1146.81 99.904 1148.73 99.264C1154.49 97.216 1160.5 96.96 1166.52 96.448C1174.58 95.808 1172.66 100.672 1169.85 101.312C1164.21 102.592 1157.81 102.208 1152.05 102.976ZM1179.83 97.088C1183.29 97.984 1180.73 103.104 1177.14 100.928C1174.45 99.264 1177.4 96.448 1179.83 97.088Z" fill="white"/>
<g filter="url(#filter0_d_2375_5)">
<path d="M1214.43 204.302C1243.73 201.016 1274.46 225.248 1291.48 243.306C1308.5 261.364 1175.66 237.469 1234.75 264.592C1293.85 291.714 1189.01 287.143 1127.33 270.792C1065.65 254.441 1066.65 241.963 1016.6 224.76C966.554 207.557 1035.61 210.269 1055.74 220.576C1075.87 230.882 1097.55 250.488 1125.1 250.488C1136.88 250.488 1140.9 241.612 1129.49 234.989C1118.07 228.366 1096.09 230.185 1098.25 227.472C1100.4 224.76 1117.97 215.721 1132.79 217.786C1146.62 219.714 1155.36 226.352 1169.05 234.989C1190.66 248.629 1229.58 235.222 1222.48 224.76C1216.79 216.391 1193.44 221.273 1182.48 224.76C1180.92 219.31 1185.14 207.588 1214.43 204.302Z" fill="url(#paint0_radial_2375_5)"/>
</g>
<g filter="url(#filter1_d_2375_5)">
<path d="M203.567 204.302C174.269 201.016 143.537 225.248 126.519 243.306C109.501 261.364 242.343 237.469 183.245 264.592C124.148 291.714 228.987 287.143 290.669 270.792C352.352 254.441 351.346 241.963 401.396 224.76C451.446 207.557 382.391 210.269 362.261 220.576C342.131 230.882 320.451 250.488 292.895 250.488C281.119 250.488 277.098 241.612 288.515 234.989C299.932 228.366 321.905 230.185 319.751 227.472C317.597 224.76 300.033 215.721 285.212 217.786C271.376 219.714 262.636 226.352 248.949 234.989C227.335 248.629 188.415 235.222 195.524 224.76C201.212 216.391 224.559 221.273 235.521 224.76C237.077 219.31 232.864 207.588 203.567 204.302Z" fill="url(#paint1_radial_2375_5)"/>
</g>
<g filter="url(#filter2_d_2375_5)">
<path d="M1088.46 222.298C1117.65 219.053 1148.28 242.983 1165.24 260.815C1182.2 278.647 1049.81 255.051 1108.71 281.834C1167.61 308.618 1063.12 304.103 1001.65 287.957C940.174 271.81 941.176 259.489 891.295 242.501C841.415 225.513 910.236 228.191 930.298 238.368C950.36 248.546 971.967 267.907 999.43 267.907C1011.17 267.907 1015.17 259.142 1003.8 252.602C992.416 246.062 970.518 247.857 972.665 245.179C974.812 242.501 992.316 233.575 1007.09 235.614C1020.88 237.517 1029.59 244.073 1043.23 252.602C1064.77 266.071 1103.56 252.831 1096.47 242.501C1090.8 234.236 1067.54 239.057 1056.61 242.501C1055.06 237.118 1059.26 225.543 1088.46 222.298Z" fill="url(#paint2_radial_2375_5)"/>
</g>
<g filter="url(#filter3_d_2375_5)">
<path d="M335.508 222.298C306.31 219.053 275.682 242.983 258.721 260.815C241.76 278.647 374.153 255.051 315.256 281.834C256.358 308.618 360.842 304.103 422.317 287.957C483.791 271.81 482.789 259.489 532.669 242.501C582.55 225.513 513.729 228.191 493.667 238.368C473.605 248.546 451.998 267.907 424.535 267.907C412.798 267.907 408.791 259.142 420.17 252.602C431.548 246.062 453.447 247.857 451.3 245.179C449.153 242.501 431.649 233.575 416.878 235.614C403.089 237.517 394.378 244.073 380.737 252.602C359.196 266.071 320.408 252.831 327.493 242.501C333.161 234.236 356.429 239.057 367.355 242.501C368.905 237.118 364.707 225.543 335.508 222.298Z" fill="url(#paint3_radial_2375_5)"/>
</g>
<g filter="url(#filter4_d_2375_5)">
<path d="M482.891 244.302C453.594 241.016 422.862 265.248 405.843 283.306C388.825 301.364 521.667 277.469 462.57 304.592C403.472 331.714 510.537 335.851 572.219 319.5C633.902 303.149 630.671 281.963 680.72 264.76C730.77 247.557 660.042 247.48 639.912 257.786C619.782 268.093 599.775 290.488 572.219 290.488C560.443 290.488 556.422 281.612 567.839 274.989C579.257 268.366 601.23 270.185 599.075 267.472C596.921 264.76 579.357 255.721 564.536 257.786C550.701 259.714 541.96 266.352 528.273 274.989C506.659 288.629 467.74 275.222 474.849 264.76C480.536 256.391 503.883 261.273 514.845 264.76C516.401 259.31 512.188 247.588 482.891 244.302Z" fill="url(#paint4_radial_2375_5)"/>
</g>
<g filter="url(#filter5_d_2375_5)">
<path d="M920.46 244.302C949.659 241.016 980.287 265.248 997.248 283.306C1014.21 301.364 881.815 277.469 940.713 304.592C999.611 331.714 892.908 334.351 831.434 318C769.96 301.649 773.18 281.963 723.299 264.76C673.419 247.557 748.579 247.48 768.641 257.786C788.703 268.093 803.971 290.488 831.434 290.488C843.17 290.488 847.178 281.612 835.799 274.989C824.42 268.366 802.522 270.185 804.669 267.472C806.815 264.76 824.32 255.721 839.091 257.786C852.88 259.714 861.591 266.352 875.231 274.989C896.772 288.629 935.561 275.222 928.476 264.76C922.808 256.391 899.54 261.273 888.614 264.76C887.063 259.31 891.262 247.588 920.46 244.302Z" fill="url(#paint5_radial_2375_5)"/>
</g>
<g filter="url(#filter6_d_2375_5)">
<path d="M544.718 281.731C546.336 294.361 523.685 291.612 513.822 296.207C503.96 300.803 530.277 306.991 544.718 311.727C559.159 316.463 541.149 350.159 551.354 359.369C561.559 368.58 566.669 332.881 573.023 317.726C579.377 302.57 622.672 331.385 632.232 317.726C641.793 304.067 599.286 303.229 591.095 291.792C582.904 280.356 606.557 252.611 598.719 248.258C594.402 245.861 585.154 267.208 577.067 275.417C568.98 283.626 551.904 232.671 541.252 233.739C530.601 234.807 542.697 265.945 544.718 281.731Z" fill="url(#paint6_linear_2375_5)"/>
</g>
<g filter="url(#filter7_d_2375_5)">
<path d="M556.354 311.271C555.173 306.16 513.089 303.024 517.982 298.714C522.876 294.404 541.896 294.283 547.491 291.527C553.086 288.771 539.901 243.51 543.696 242.805C547.491 242.101 565.057 277.781 573.077 280.193C581.097 282.605 593.44 249.249 597.325 252.04C601.21 254.831 583.481 287.678 583.947 291.527C584.412 295.377 623.738 307.493 625.495 314.604C627.252 321.715 579.41 308.162 575.084 309.808C570.758 311.454 560.988 354.494 554.24 356.817C547.491 359.141 557.536 316.381 556.354 311.271Z" fill="url(#paint7_linear_2375_5)"/>
</g>
<path d="M531.455 297.95C530.488 300.487 534.356 301.333 534.937 299.642C535.517 297.95 531.455 296.259 531.455 297.95Z" fill="#D9D9D9"/>
<path d="M552.519 299.972C553.533 297.457 549.682 296.526 549.07 298.203C548.458 299.881 552.487 301.663 552.519 299.972Z" fill="#D9D9D9"/>
<path d="M542.363 299.745C543.377 297.231 539.525 296.299 538.914 297.977C538.302 299.655 542.331 301.436 542.363 299.745Z" fill="#D9D9D9"/>
<path d="M558.006 279.853C557.039 282.39 560.907 283.235 561.487 281.544C562.068 279.853 558.006 278.162 558.006 279.853Z" fill="#D9D9D9"/>
<path d="M552.85 269.997C551.883 272.534 555.751 273.38 556.331 271.688C556.911 269.997 552.85 268.306 552.85 269.997Z" fill="#D9D9D9"/>
<path d="M577.108 284.154C576.141 286.69 580.009 287.536 580.589 285.845C581.169 284.154 577.108 282.463 577.108 284.154Z" fill="#D9D9D9"/>
<path d="M582.022 276.583C581.055 279.12 584.923 279.965 585.503 278.274C586.083 276.583 582.022 274.892 582.022 276.583Z" fill="#D9D9D9"/>
<path d="M587.76 266.728C586.793 269.265 590.661 270.11 591.241 268.419C591.822 266.728 587.76 265.037 587.76 266.728Z" fill="#D9D9D9"/>
<path d="M586.71 305.066C589.108 305.893 589.533 301.605 587.94 301.125C586.348 300.644 585.17 305.217 586.71 305.066Z" fill="#D9D9D9"/>
<path d="M599.931 305.5C598.662 303.127 595.713 305.992 596.598 307.517C597.483 309.043 601.165 306.519 599.931 305.5Z" fill="#D9D9D9"/>
<path d="M607.193 308.747C606.226 311.284 610.095 312.13 610.675 310.438C611.255 308.747 607.193 307.056 607.193 308.747Z" fill="#D9D9D9"/>
<path d="M563.442 322.299C563.344 319.552 559.509 320.563 559.633 322.364C559.757 324.165 564.092 323.833 563.442 322.299Z" fill="#D9D9D9"/>
<path d="M569.651 308.958C573.041 313.018 577.711 306.067 575.397 303.488C573.084 300.909 566.847 307.529 569.651 308.958Z" fill="#741F5E" stroke="#D9D9D9" stroke-width="2"/>
<path d="M556.549 288.038C552.082 285.516 549.907 293.806 552.896 295.347C555.884 296.888 559.632 288.315 556.549 288.038Z" fill="#741F5E" stroke="#D9D9D9" stroke-width="2"/>
<path d="M573.033 283.815C572.366 278.367 564.904 281.166 565.46 284.727C566.016 288.288 574.591 286.737 573.033 283.815Z" fill="#741F5E" stroke="#D9D9D9" stroke-width="2"/>
<path d="M556.313 303.846C554.379 308.92 562.115 310.61 563.275 307.228C564.436 303.846 556.313 300.464 556.313 303.846Z" fill="#741F5E" stroke="#D9D9D9" stroke-width="2"/>
<path d="M580.522 296.531C581.862 291.233 573.993 290.611 573.228 294.125C572.462 297.639 580.908 299.887 580.522 296.531Z" fill="#741F5E" stroke="#D9D9D9" stroke-width="2"/>
<path d="M561.515 331.582C560.629 329.01 557.282 331.292 557.919 332.958C558.557 334.625 562.575 332.814 561.515 331.582Z" fill="#D9D9D9"/>
<path d="M559.75 342.168C559.63 339.423 555.803 340.471 555.942 342.27C556.08 344.07 560.413 343.696 559.75 342.168Z" fill="#D9D9D9"/>
<path d="M549.158 257.993C548.191 260.53 552.06 261.376 552.64 259.685C553.22 257.993 549.158 256.302 549.158 257.993Z" fill="#D9D9D9"/>
<path d="M563.222 294.643C563.104 295.091 559.36 296.105 559.537 296.617C559.715 297.128 563.739 297.327 564.018 297.722C564.296 298.117 564.46 302.263 564.957 302.304C565.454 302.345 566.421 298.351 566.98 298.117C567.54 297.884 570.329 298.512 571.171 298.117C572.014 297.722 568.209 294.643 568.209 294.643C568.209 294.643 570.043 291.272 569.798 290.534C569.554 289.796 566.123 292.606 565.752 292.588C565.381 292.57 562.662 289.225 562.139 289.429C561.615 289.633 563.341 294.194 563.222 294.643Z" fill="#D9D9D9"/>
<g filter="url(#filter8_d_2375_5)">
<path d="M871.254 271.585C869.637 284.214 892.288 281.465 902.15 286.061C912.013 290.656 885.696 296.844 871.254 301.58C856.813 306.316 874.823 340.013 864.618 349.223C854.413 358.433 849.304 322.735 842.95 307.579C836.595 292.424 793.301 321.238 783.74 307.579C774.18 293.92 816.686 293.082 824.878 281.646C833.069 270.21 809.415 242.464 817.254 238.111C821.571 235.714 830.819 257.061 838.906 265.271C846.993 273.48 864.069 222.525 874.72 223.593C885.372 224.661 873.276 255.798 871.254 271.585Z" fill="url(#paint8_linear_2375_5)"/>
</g>
<g filter="url(#filter9_d_2375_5)">
<path d="M859.618 301.124C860.8 296.014 902.884 292.877 897.991 288.567C893.097 284.258 874.076 284.136 868.482 281.381C862.887 278.625 876.072 233.363 872.277 232.659C868.482 231.955 850.916 267.635 842.896 270.046C834.876 272.458 822.532 239.103 818.648 241.893C814.763 244.684 832.491 277.531 832.026 281.381C831.56 285.23 792.235 297.347 790.478 304.458C788.721 311.568 836.563 298.016 840.889 299.662C845.215 301.308 854.985 344.347 861.733 346.671C868.482 348.994 858.437 306.235 859.618 301.124Z" fill="url(#paint9_linear_2375_5)"/>
</g>
<path d="M884.517 287.804C885.484 290.341 881.616 291.186 881.036 289.495C880.456 287.804 884.517 286.113 884.517 287.804Z" fill="#D9D9D9"/>
<path d="M863.454 289.827C862.439 287.313 866.291 286.381 866.903 288.059C867.515 289.737 863.485 291.518 863.454 289.827Z" fill="#D9D9D9"/>
<path d="M873.61 289.599C872.596 287.084 876.447 286.153 877.059 287.83C877.671 289.508 873.642 291.29 873.61 289.599Z" fill="#D9D9D9"/>
<path d="M857.967 269.708C858.934 272.245 855.065 273.09 854.485 271.399C853.905 269.708 857.967 268.017 857.967 269.708Z" fill="#D9D9D9"/>
<path d="M863.123 259.853C864.09 262.39 860.222 263.235 859.641 261.544C859.061 259.853 863.123 258.162 863.123 259.853Z" fill="#D9D9D9"/>
<path d="M838.865 274.007C839.832 276.544 835.964 277.389 835.384 275.698C834.803 274.007 838.865 272.316 838.865 274.007Z" fill="#D9D9D9"/>
<path d="M833.951 266.435C834.918 268.972 831.05 269.817 830.47 268.126C829.889 266.435 833.951 264.744 833.951 266.435Z" fill="#D9D9D9"/>
<path d="M828.213 256.579C829.18 259.116 825.312 259.962 824.731 258.27C824.151 256.579 828.213 254.888 828.213 256.579Z" fill="#D9D9D9"/>
<path d="M829.262 294.92C826.865 295.746 826.44 291.459 828.032 290.978C829.625 290.497 830.803 295.071 829.262 294.92Z" fill="#D9D9D9"/>
<path d="M816.042 295.353C817.311 292.981 820.259 295.845 819.375 297.371C818.49 298.896 814.808 296.372 816.042 295.353Z" fill="#D9D9D9"/>
<path d="M808.779 298.601C809.746 301.138 805.878 301.983 805.298 300.292C804.717 298.601 808.779 296.91 808.779 298.601Z" fill="#D9D9D9"/>
<path d="M852.531 312.15C852.629 309.404 856.463 310.415 856.34 312.216C856.216 314.017 851.88 313.685 852.531 312.15Z" fill="#D9D9D9"/>
<path d="M846.321 298.809C842.932 302.869 838.262 295.919 840.575 293.34C842.889 290.761 849.125 297.38 846.321 298.809Z" fill="#741F5E" stroke="#D9D9D9" stroke-width="2"/>
<path d="M859.424 277.892C863.891 275.369 866.065 283.659 863.077 285.201C860.089 286.742 856.34 278.169 859.424 277.892Z" fill="#741F5E" stroke="#D9D9D9" stroke-width="2"/>
<path d="M842.94 273.667C843.606 268.219 851.068 271.018 850.513 274.579C849.957 278.139 841.381 276.589 842.94 273.667Z" fill="#741F5E" stroke="#D9D9D9" stroke-width="2"/>
<path d="M859.66 293.702C861.594 298.775 853.858 300.466 852.697 297.084C851.537 293.702 859.66 290.32 859.66 293.702Z" fill="#741F5E" stroke="#D9D9D9" stroke-width="2"/>
<path d="M835.451 286.385C834.111 281.087 841.979 280.465 842.745 283.979C843.51 287.493 835.065 289.74 835.451 286.385Z" fill="#741F5E" stroke="#D9D9D9" stroke-width="2"/>
<path d="M854.458 321.438C855.344 318.866 858.691 321.148 858.053 322.814C857.416 324.48 853.398 322.669 854.458 321.438Z" fill="#D9D9D9"/>
<path d="M856.223 332.021C856.343 329.276 860.17 330.324 860.031 332.124C859.893 333.924 855.56 333.549 856.223 332.021Z" fill="#D9D9D9"/>
<path d="M866.814 247.847C867.781 250.384 863.913 251.229 863.333 249.538C862.753 247.847 866.814 246.156 866.814 247.847Z" fill="#D9D9D9"/>
<path d="M852.75 284.496C852.869 284.945 856.613 285.958 856.435 286.47C856.258 286.982 852.234 287.181 851.955 287.576C851.677 287.971 851.513 292.116 851.016 292.157C850.518 292.199 849.552 288.204 848.992 287.971C848.433 287.738 845.644 288.366 844.801 287.971C843.959 287.576 847.764 284.496 847.764 284.496C847.764 284.496 845.93 281.126 846.174 280.388C846.419 279.65 849.85 282.459 850.221 282.441C850.592 282.424 853.31 279.078 853.834 279.282C854.357 279.487 852.631 284.048 852.75 284.496Z" fill="#D9D9D9"/>
<g filter="url(#filter10_d_2375_5)">
<path d="M682.8 241.575C679.872 253.324 658.086 240.064 646.512 239.323C634.937 238.582 659.169 256.59 671.982 267.636C684.796 278.682 654.534 299.313 661.474 312.213C668.414 325.113 686.426 296.55 698.281 286.433C710.136 276.315 743.28 322.129 757.819 314.851C772.359 307.573 729.918 286.443 725.806 272.575C721.693 258.708 755.484 245.955 749.171 238.411C745.695 234.257 728.697 248.364 717.605 251.615C706.512 254.866 707.718 202.4 696.622 198.216C685.526 194.031 686.46 226.889 682.8 241.575Z" fill="url(#paint10_linear_2375_5)"/>
</g>
<g filter="url(#filter11_d_2375_5)">
<path d="M683.848 272.825C684.503 267.818 643.316 244.894 649.791 243.498C656.266 242.103 675.436 251.126 682.056 251.417C688.675 251.708 691.739 206.056 695.81 207.266C699.88 208.475 704.676 247.905 711.871 253.85C719.066 259.795 743.507 236.739 746.407 241.029C749.307 245.318 719.634 265.347 718.714 268.915C717.794 272.483 752.968 301.884 752.17 308.905C751.373 315.926 708.152 281.19 703.209 280.544C698.265 279.897 672.92 312.601 665.296 311.381C657.672 310.161 683.193 277.832 683.848 272.825Z" fill="url(#paint11_linear_2375_5)"/>
</g>
<path d="M663.61 249.3C661.722 251.04 665.307 253.631 666.501 252.44C667.694 251.249 664.22 247.831 663.61 249.3Z" fill="#D9D9D9"/>
<path d="M684.065 261.166C685.992 259.469 682.455 256.81 681.235 257.974C680.014 259.138 683.423 262.62 684.065 261.166Z" fill="#D9D9D9"/>
<path d="M673.928 256.092C675.855 254.394 672.318 251.736 671.098 252.9C669.878 254.064 673.287 257.546 673.928 256.092Z" fill="#D9D9D9"/>
<path d="M696.84 246.321C694.953 248.061 698.538 250.652 699.731 249.462C700.924 248.271 697.45 244.852 696.84 246.321Z" fill="#D9D9D9"/>
<path d="M695.203 235.284C693.316 237.024 696.901 239.615 698.094 238.424C699.288 237.234 695.813 233.815 695.203 235.284Z" fill="#D9D9D9"/>
<path d="M714.492 259.224C712.605 260.964 716.19 263.555 717.383 262.364C718.577 261.173 715.102 257.754 714.492 259.224Z" fill="#D9D9D9"/>
<path d="M722.168 255.007C720.281 256.747 723.866 259.338 725.059 258.147C726.253 256.956 722.778 253.538 722.168 255.007Z" fill="#D9D9D9"/>
<path d="M731.492 249.198C729.605 250.938 733.19 253.529 734.383 252.338C735.577 251.148 732.102 247.729 731.492 249.198Z" fill="#D9D9D9"/>
<path d="M716.606 282.002C718.719 283.87 720.692 280.35 719.264 279.167C717.836 277.985 715.002 281.393 716.606 282.002Z" fill="#D9D9D9"/>
<path d="M729.746 288.726C729.326 286.055 725.328 287.129 725.667 288.879C726.006 290.629 730.62 290.204 729.746 288.726Z" fill="#D9D9D9"/>
<path d="M735.867 295.03C733.98 296.77 737.565 299.361 738.758 298.171C739.952 296.98 736.477 293.561 735.867 295.03Z" fill="#D9D9D9"/>
<path d="M686.995 285.805C687.887 283.372 683.666 282.41 683.141 284.034C682.616 285.658 687.096 287.45 686.995 285.805Z" fill="#D9D9D9"/>
<path d="M698.051 277.197C699.995 282.351 707.198 278.553 705.802 275.202C704.405 271.851 695.747 274.609 698.051 277.197Z" fill="#741F5E" stroke="#D9D9D9" stroke-width="2"/>
<path d="M692.423 252.734C688.841 248.398 683.664 254.557 686.113 257.33C688.562 260.103 695.423 254.454 692.423 252.734Z" fill="#741F5E" stroke="#D9D9D9" stroke-width="2"/>
<path d="M710.52 256.973C711.815 251.92 703.302 250.77 702.576 254.13C701.851 257.491 711.034 260.259 710.52 256.973Z" fill="#741F5E" stroke="#D9D9D9" stroke-width="2"/>
<path d="M686.485 266.356C682.711 269.835 689.88 275.017 692.267 272.636C694.653 270.254 687.705 263.417 686.485 266.356Z" fill="#741F5E" stroke="#D9D9D9" stroke-width="2"/>
<path d="M713.466 271.617C716.724 267.657 709.036 263.34 706.999 266.026C704.963 268.711 712.644 274.718 713.466 271.617Z" fill="#741F5E" stroke="#D9D9D9" stroke-width="2"/>
<path d="M681.713 292.951C681.749 290.291 677.561 290.668 677.601 292.421C677.641 294.175 682.334 294.53 681.713 292.951Z" fill="#D9D9D9"/>
<path d="M676.114 301.297C676.983 298.854 672.757 297.928 672.247 299.558C671.737 301.188 676.229 302.942 676.114 301.297Z" fill="#D9D9D9"/>
<path d="M695.821 223.081C693.933 224.821 697.518 227.412 698.712 226.221C699.905 225.031 696.43 221.612 695.821 223.081Z" fill="#D9D9D9"/>
<path d="M696.746 261.673C696.465 262.005 692.335 261.089 692.329 261.619C692.322 262.149 696.298 264.253 696.435 264.73C696.573 265.207 695.242 268.887 695.728 269.161C696.213 269.436 698.625 266.429 699.272 266.495C699.919 266.561 702.496 268.445 703.486 268.506C704.476 268.568 701.76 264.066 701.76 264.066C701.76 264.066 704.82 262.018 704.84 261.259C704.861 260.501 700.397 261.295 700.031 261.101C699.664 260.908 698.137 256.696 697.537 256.623C696.937 256.549 697.027 261.34 696.746 261.673Z" fill="#D9D9D9"/>
<path d="M466.671 133L465.211 138.68H461.871L464.251 133H466.671ZM470.951 133L469.491 138.68H466.151L468.531 133H470.951ZM478.836 148.22C477.782 148.22 476.802 148.04 475.896 147.68C474.989 147.307 474.189 146.793 473.496 146.14C472.816 145.473 472.282 144.707 471.896 143.84C471.522 142.96 471.336 142.013 471.336 141C471.336 139.987 471.522 139.047 471.896 138.18C472.282 137.3 472.809 136.533 473.476 135.88C474.156 135.213 474.949 134.7 475.856 134.34C476.762 133.967 477.736 133.78 478.776 133.78C479.962 133.78 481.082 134.027 482.136 134.52C483.189 135 484.049 135.667 484.716 136.52L482.296 138.7C481.842 138.113 481.316 137.673 480.716 137.38C480.129 137.087 479.482 136.94 478.776 136.94C478.216 136.94 477.696 137.047 477.216 137.26C476.749 137.46 476.336 137.74 475.976 138.1C475.629 138.46 475.356 138.887 475.156 139.38C474.969 139.873 474.876 140.413 474.876 141C474.876 141.587 474.976 142.133 475.176 142.64C475.376 143.133 475.656 143.567 476.016 143.94C476.389 144.3 476.816 144.587 477.296 144.8C477.789 145 478.322 145.1 478.896 145.1C479.442 145.1 479.936 145.007 480.376 144.82C480.829 144.633 481.216 144.373 481.536 144.04C481.856 143.707 482.082 143.327 482.216 142.9H478.436V139.92H485.936V140.92C485.936 141.973 485.756 142.947 485.396 143.84C485.049 144.72 484.556 145.493 483.916 146.16C483.289 146.813 482.542 147.32 481.676 147.68C480.809 148.04 479.862 148.22 478.836 148.22ZM487.594 148V137.42H490.834V138.48C491.18 138.053 491.587 137.733 492.054 137.52C492.52 137.293 493.04 137.18 493.614 137.18C494.187 137.193 494.594 137.28 494.834 137.44V140.26C494.62 140.153 494.38 140.073 494.114 140.02C493.847 139.967 493.574 139.94 493.294 139.94C492.787 139.94 492.314 140.06 491.874 140.3C491.447 140.527 491.1 140.853 490.834 141.28V148H487.594ZM501.214 148.2C500.134 148.2 499.154 147.96 498.274 147.48C497.407 146.987 496.72 146.327 496.214 145.5C495.707 144.673 495.454 143.747 495.454 142.72C495.454 141.693 495.694 140.767 496.174 139.94C496.667 139.113 497.334 138.46 498.174 137.98C499.014 137.487 499.947 137.24 500.974 137.24C502.014 137.24 502.934 137.493 503.734 138C504.534 138.493 505.16 139.173 505.614 140.04C506.08 140.907 506.314 141.9 506.314 143.02V143.82H498.774C498.92 144.153 499.114 144.447 499.354 144.7C499.607 144.953 499.907 145.153 500.254 145.3C500.6 145.433 500.974 145.5 501.374 145.5C501.814 145.5 502.214 145.433 502.574 145.3C502.934 145.153 503.24 144.953 503.494 144.7L505.634 146.6C504.967 147.16 504.28 147.567 503.574 147.82C502.88 148.073 502.094 148.2 501.214 148.2ZM498.714 141.56H503.134C503.027 141.213 502.86 140.92 502.634 140.68C502.42 140.427 502.167 140.233 501.874 140.1C501.58 139.953 501.26 139.88 500.914 139.88C500.554 139.88 500.227 139.947 499.934 140.08C499.64 140.213 499.387 140.407 499.174 140.66C498.974 140.9 498.82 141.2 498.714 141.56ZM513.206 148.2C512.126 148.2 511.146 147.96 510.266 147.48C509.399 146.987 508.712 146.327 508.206 145.5C507.699 144.673 507.446 143.747 507.446 142.72C507.446 141.693 507.686 140.767 508.166 139.94C508.659 139.113 509.326 138.46 510.166 137.98C511.006 137.487 511.939 137.24 512.966 137.24C514.006 137.24 514.926 137.493 515.726 138C516.526 138.493 517.152 139.173 517.606 140.04C518.072 140.907 518.306 141.9 518.306 143.02V143.82H510.766C510.912 144.153 511.106 144.447 511.346 144.7C511.599 144.953 511.899 145.153 512.246 145.3C512.592 145.433 512.966 145.5 513.366 145.5C513.806 145.5 514.206 145.433 514.566 145.3C514.926 145.153 515.232 144.953 515.486 144.7L517.626 146.6C516.959 147.16 516.272 147.567 515.566 147.82C514.872 148.073 514.086 148.2 513.206 148.2ZM510.706 141.56H515.126C515.019 141.213 514.852 140.92 514.626 140.68C514.412 140.427 514.159 140.233 513.866 140.1C513.572 139.953 513.252 139.88 512.906 139.88C512.546 139.88 512.219 139.947 511.926 140.08C511.632 140.213 511.379 140.407 511.166 140.66C510.966 140.9 510.812 141.2 510.706 141.56ZM519.82 148V137.42H523.06V138.14C523.86 137.527 524.807 137.22 525.9 137.22C526.727 137.22 527.454 137.4 528.08 137.76C528.72 138.12 529.22 138.62 529.58 139.26C529.94 139.9 530.12 140.64 530.12 141.48V148H526.88V141.92C526.88 141.333 526.707 140.867 526.36 140.52C526.014 140.173 525.547 140 524.96 140C524.547 140 524.18 140.073 523.86 140.22C523.554 140.367 523.287 140.573 523.06 140.84V148H519.82ZM536.113 148V134H547.153V136.98H539.553V139.5H544.573V142.38H539.553V145.02H547.233V148H536.113ZM549.098 148V137.42H552.338V138.14C553.138 137.527 554.084 137.22 555.178 137.22C556.004 137.22 556.731 137.4 557.358 137.76C557.998 138.12 558.498 138.62 558.858 139.26C559.218 139.9 559.398 140.64 559.398 141.48V148H556.158V141.92C556.158 141.333 555.984 140.867 555.638 140.52C555.291 140.173 554.824 140 554.238 140C553.824 140 553.458 140.073 553.138 140.22C552.831 140.367 552.564 140.573 552.338 140.84V148H549.098ZM566.371 148.14C565.105 148.14 564.145 147.86 563.491 147.3C562.851 146.727 562.531 145.887 562.531 144.78V140.12H560.391V137.42H562.531V134.7L565.771 134V137.42H568.731V140.12H565.771V144.14C565.771 144.607 565.871 144.94 566.071 145.14C566.285 145.327 566.651 145.42 567.171 145.42C567.438 145.42 567.678 145.407 567.891 145.38C568.118 145.34 568.365 145.28 568.631 145.2V147.82C568.338 147.913 567.965 147.987 567.511 148.04C567.058 148.107 566.678 148.14 566.371 148.14ZM569.996 148V137.42H573.236V138.48C573.583 138.053 573.989 137.733 574.456 137.52C574.923 137.293 575.443 137.18 576.016 137.18C576.589 137.193 576.996 137.28 577.236 137.44V140.26C577.023 140.153 576.783 140.073 576.516 140.02C576.249 139.967 575.976 139.94 575.696 139.94C575.189 139.94 574.716 140.06 574.276 140.3C573.849 140.527 573.503 140.853 573.236 141.28V148H569.996ZM583.616 148.2C582.536 148.2 581.556 147.96 580.676 147.48C579.809 146.987 579.123 146.327 578.616 145.5C578.109 144.673 577.856 143.747 577.856 142.72C577.856 141.693 578.096 140.767 578.576 139.94C579.069 139.113 579.736 138.46 580.576 137.98C581.416 137.487 582.349 137.24 583.376 137.24C584.416 137.24 585.336 137.493 586.136 138C586.936 138.493 587.563 139.173 588.016 140.04C588.483 140.907 588.716 141.9 588.716 143.02V143.82H581.176C581.323 144.153 581.516 144.447 581.756 144.7C582.009 144.953 582.309 145.153 582.656 145.3C583.003 145.433 583.376 145.5 583.776 145.5C584.216 145.5 584.616 145.433 584.976 145.3C585.336 145.153 585.643 144.953 585.896 144.7L588.036 146.6C587.369 147.16 586.683 147.567 585.976 147.82C585.283 148.073 584.496 148.2 583.616 148.2ZM581.116 141.56H585.536C585.429 141.213 585.263 140.92 585.036 140.68C584.823 140.427 584.569 140.233 584.276 140.1C583.983 139.953 583.663 139.88 583.316 139.88C582.956 139.88 582.629 139.947 582.336 140.08C582.043 140.213 581.789 140.407 581.576 140.66C581.376 140.9 581.223 141.2 581.116 141.56ZM590.23 152.08V137.42H593.43V138.2C594.27 137.587 595.217 137.28 596.27 137.28C597.284 137.28 598.197 137.527 599.01 138.02C599.824 138.5 600.47 139.153 600.95 139.98C601.43 140.793 601.67 141.707 601.67 142.72C601.67 143.733 601.424 144.653 600.93 145.48C600.45 146.293 599.79 146.94 598.95 147.42C598.124 147.9 597.197 148.14 596.17 148.14C595.677 148.14 595.204 148.08 594.75 147.96C594.297 147.84 593.87 147.667 593.47 147.44V152.08H590.23ZM595.71 145.4C596.244 145.4 596.717 145.287 597.13 145.06C597.544 144.82 597.87 144.5 598.11 144.1C598.364 143.687 598.49 143.227 598.49 142.72C598.49 142.213 598.364 141.76 598.11 141.36C597.87 140.947 597.537 140.627 597.11 140.4C596.697 140.16 596.23 140.04 595.71 140.04C595.257 140.04 594.844 140.113 594.47 140.26C594.097 140.393 593.764 140.6 593.47 140.88V144.58C593.75 144.833 594.084 145.033 594.47 145.18C594.857 145.327 595.27 145.4 595.71 145.4ZM603.199 148V137.42H606.439V138.48C606.786 138.053 607.193 137.733 607.659 137.52C608.126 137.293 608.646 137.18 609.219 137.18C609.793 137.193 610.199 137.28 610.439 137.44V140.26C610.226 140.153 609.986 140.073 609.719 140.02C609.453 139.967 609.179 139.94 608.899 139.94C608.393 139.94 607.919 140.06 607.479 140.3C607.053 140.527 606.706 140.853 606.439 141.28V148H603.199ZM616.819 148.2C615.739 148.2 614.759 147.96 613.879 147.48C613.012 146.987 612.326 146.327 611.819 145.5C611.312 144.673 611.059 143.747 611.059 142.72C611.059 141.693 611.299 140.767 611.779 139.94C612.272 139.113 612.939 138.46 613.779 137.98C614.619 137.487 615.552 137.24 616.579 137.24C617.619 137.24 618.539 137.493 619.339 138C620.139 138.493 620.766 139.173 621.219 140.04C621.686 140.907 621.919 141.9 621.919 143.02V143.82H614.379C614.526 144.153 614.719 144.447 614.959 144.7C615.212 144.953 615.512 145.153 615.859 145.3C616.206 145.433 616.579 145.5 616.979 145.5C617.419 145.5 617.819 145.433 618.179 145.3C618.539 145.153 618.846 144.953 619.099 144.7L621.239 146.6C620.572 147.16 619.886 147.567 619.179 147.82C618.486 148.073 617.699 148.2 616.819 148.2ZM614.319 141.56H618.739C618.632 141.213 618.466 140.92 618.239 140.68C618.026 140.427 617.772 140.233 617.479 140.1C617.186 139.953 616.866 139.88 616.519 139.88C616.159 139.88 615.832 139.947 615.539 140.08C615.246 140.213 614.992 140.407 614.779 140.66C614.579 140.9 614.426 141.2 614.319 141.56ZM623.434 148V137.42H626.674V138.14C627.474 137.527 628.42 137.22 629.514 137.22C630.34 137.22 631.067 137.4 631.694 137.76C632.334 138.12 632.834 138.62 633.194 139.26C633.554 139.9 633.734 140.64 633.734 141.48V148H630.494V141.92C630.494 141.333 630.32 140.867 629.974 140.52C629.627 140.173 629.16 140 628.574 140C628.16 140 627.794 140.073 627.474 140.22C627.167 140.367 626.9 140.573 626.674 140.84V148H623.434ZM640.94 148.2C639.86 148.2 638.88 147.96 638 147.48C637.133 146.987 636.447 146.327 635.94 145.5C635.433 144.673 635.18 143.747 635.18 142.72C635.18 141.693 635.42 140.767 635.9 139.94C636.393 139.113 637.06 138.46 637.9 137.98C638.74 137.487 639.673 137.24 640.7 137.24C641.74 137.24 642.66 137.493 643.46 138C644.26 138.493 644.887 139.173 645.34 140.04C645.807 140.907 646.04 141.9 646.04 143.02V143.82H638.5C638.647 144.153 638.84 144.447 639.08 144.7C639.333 144.953 639.633 145.153 639.98 145.3C640.327 145.433 640.7 145.5 641.1 145.5C641.54 145.5 641.94 145.433 642.3 145.3C642.66 145.153 642.967 144.953 643.22 144.7L645.36 146.6C644.693 147.16 644.007 147.567 643.3 147.82C642.607 148.073 641.82 148.2 640.94 148.2ZM638.44 141.56H642.86C642.753 141.213 642.587 140.92 642.36 140.68C642.147 140.427 641.893 140.233 641.6 140.1C641.307 139.953 640.987 139.88 640.64 139.88C640.28 139.88 639.953 139.947 639.66 140.08C639.367 140.213 639.113 140.407 638.9 140.66C638.7 140.9 638.547 141.2 638.44 141.56ZM651.695 148.2C650.868 148.2 650.135 148.02 649.495 147.66C648.868 147.3 648.375 146.8 648.015 146.16C647.655 145.507 647.475 144.767 647.475 143.94V137.42H650.715V143.5C650.715 144.073 650.888 144.54 651.235 144.9C651.595 145.247 652.061 145.42 652.635 145.42C653.048 145.42 653.415 145.347 653.735 145.2C654.055 145.053 654.321 144.847 654.535 144.58V137.42H657.775V148H654.535V147.28C653.735 147.893 652.788 148.2 651.695 148.2ZM659.781 148V137.42H663.021V138.48C663.368 138.053 663.775 137.733 664.241 137.52C664.708 137.293 665.228 137.18 665.801 137.18C666.375 137.193 666.781 137.28 667.021 137.44V140.26C666.808 140.153 666.568 140.073 666.301 140.02C666.035 139.967 665.761 139.94 665.481 139.94C664.975 139.94 664.501 140.06 664.061 140.3C663.635 140.527 663.288 140.853 663.021 141.28V148H659.781ZM672.809 148.2C671.809 148.2 670.882 148.087 670.029 147.86C669.176 147.62 668.436 147.273 667.809 146.82L669.349 144.64C670.016 145.04 670.622 145.333 671.169 145.52C671.716 145.693 672.256 145.78 672.789 145.78C673.322 145.78 673.742 145.707 674.049 145.56C674.369 145.4 674.529 145.193 674.529 144.94C674.529 144.74 674.442 144.58 674.269 144.46C674.096 144.327 673.822 144.233 673.449 144.18L671.349 143.86C670.296 143.7 669.489 143.353 668.929 142.82C668.382 142.273 668.109 141.567 668.109 140.7C668.109 139.98 668.289 139.367 668.649 138.86C669.022 138.34 669.549 137.947 670.229 137.68C670.909 137.4 671.722 137.26 672.669 137.26C673.442 137.26 674.209 137.367 674.969 137.58C675.729 137.793 676.436 138.113 677.089 138.54L675.549 140.62C674.976 140.287 674.429 140.047 673.909 139.9C673.389 139.74 672.869 139.66 672.349 139.66C671.936 139.66 671.602 139.733 671.349 139.88C671.096 140.013 670.969 140.193 670.969 140.42C670.969 140.633 671.062 140.807 671.249 140.94C671.436 141.06 671.756 141.153 672.209 141.22L674.309 141.54C675.349 141.687 676.149 142.033 676.709 142.58C677.282 143.113 677.569 143.793 677.569 144.62C677.569 145.313 677.362 145.927 676.949 146.46C676.536 146.993 675.969 147.42 675.249 147.74C674.542 148.047 673.729 148.2 672.809 148.2ZM678.805 148V134L682.045 133.3V138.14C682.845 137.527 683.791 137.22 684.885 137.22C685.711 137.22 686.438 137.4 687.065 137.76C687.705 138.12 688.205 138.62 688.565 139.26C688.925 139.9 689.105 140.64 689.105 141.48V148H685.865V141.92C685.865 141.333 685.691 140.867 685.345 140.52C684.998 140.173 684.531 140 683.945 140C683.531 140 683.165 140.073 682.845 140.22C682.538 140.367 682.271 140.573 682.045 140.84V148H678.805ZM691.031 148V137.42H694.271V148H691.031ZM692.651 136.44C692.158 136.44 691.738 136.267 691.391 135.92C691.045 135.573 690.871 135.153 690.871 134.66C690.871 134.167 691.045 133.747 691.391 133.4C691.738 133.053 692.158 132.88 692.651 132.88C693.145 132.88 693.565 133.053 693.911 133.4C694.258 133.747 694.431 134.167 694.431 134.66C694.431 135.153 694.258 135.573 693.911 135.92C693.565 136.267 693.145 136.44 692.651 136.44ZM696.266 152.08V137.42H699.466V138.2C700.306 137.587 701.252 137.28 702.306 137.28C703.319 137.28 704.232 137.527 705.046 138.02C705.859 138.5 706.506 139.153 706.986 139.98C707.466 140.793 707.706 141.707 707.706 142.72C707.706 143.733 707.459 144.653 706.966 145.48C706.486 146.293 705.826 146.94 704.986 147.42C704.159 147.9 703.232 148.14 702.206 148.14C701.712 148.14 701.239 148.08 700.786 147.96C700.332 147.84 699.906 147.667 699.506 147.44V152.08H696.266ZM701.746 145.4C702.279 145.4 702.752 145.287 703.166 145.06C703.579 144.82 703.906 144.5 704.146 144.1C704.399 143.687 704.526 143.227 704.526 142.72C704.526 142.213 704.399 141.76 704.146 141.36C703.906 140.947 703.572 140.627 703.146 140.4C702.732 140.16 702.266 140.04 701.746 140.04C701.292 140.04 700.879 140.113 700.506 140.26C700.132 140.393 699.799 140.6 699.506 140.88V144.58C699.786 144.833 700.119 145.033 700.506 145.18C700.892 145.327 701.306 145.4 701.746 145.4ZM714.821 148V140.12H712.501V137.42H714.821V136.78C714.821 135.527 715.187 134.573 715.921 133.92C716.667 133.253 717.734 132.92 719.121 132.92C719.401 132.92 719.701 132.94 720.021 132.98C720.354 133.007 720.627 133.053 720.841 133.12V135.8C720.587 135.747 720.361 135.713 720.161 135.7C719.974 135.673 719.774 135.66 719.561 135.66C719.067 135.66 718.694 135.76 718.441 135.96C718.187 136.147 718.061 136.44 718.061 136.84V137.42H720.841V140.12H718.061V148H714.821ZM727.053 148.2C725.973 148.2 725 147.96 724.133 147.48C723.266 146.987 722.58 146.327 722.073 145.5C721.566 144.673 721.313 143.747 721.313 142.72C721.313 141.693 721.566 140.767 722.073 139.94C722.58 139.1 723.266 138.44 724.133 137.96C725 137.467 725.973 137.22 727.053 137.22C728.133 137.22 729.106 137.467 729.973 137.96C730.84 138.44 731.526 139.1 732.033 139.94C732.54 140.767 732.793 141.693 732.793 142.72C732.793 143.747 732.54 144.673 732.033 145.5C731.526 146.327 730.84 146.987 729.973 147.48C729.106 147.96 728.133 148.2 727.053 148.2ZM727.053 145.4C727.546 145.4 727.986 145.28 728.373 145.04C728.76 144.8 729.066 144.48 729.293 144.08C729.52 143.667 729.633 143.213 729.633 142.72C729.633 142.213 729.52 141.76 729.293 141.36C729.066 140.947 728.753 140.62 728.353 140.38C727.966 140.14 727.533 140.02 727.053 140.02C726.573 140.02 726.133 140.14 725.733 140.38C725.346 140.62 725.04 140.947 724.813 141.36C724.586 141.76 724.473 142.213 724.473 142.72C724.473 143.213 724.586 143.667 724.813 144.08C725.04 144.48 725.346 144.8 725.733 145.04C726.133 145.28 726.573 145.4 727.053 145.4ZM734.313 148V137.42H737.553V138.48C737.899 138.053 738.306 137.733 738.773 137.52C739.239 137.293 739.759 137.18 740.333 137.18C740.906 137.193 741.313 137.28 741.553 137.44V140.26C741.339 140.153 741.099 140.073 740.833 140.02C740.566 139.967 740.293 139.94 740.013 139.94C739.506 139.94 739.033 140.06 738.592 140.3C738.166 140.527 737.819 140.853 737.553 141.28V148H734.313ZM750.232 148.18C749.485 148.18 748.818 148.04 748.232 147.76C747.658 147.48 747.205 147.093 746.872 146.6C746.552 146.107 746.392 145.54 746.392 144.9C746.392 143.887 746.772 143.107 747.532 142.56C748.305 142 749.378 141.72 750.752 141.72C751.578 141.72 752.378 141.82 753.152 142.02V141.5C753.152 140.967 752.978 140.573 752.632 140.32C752.298 140.053 751.798 139.92 751.132 139.92C750.718 139.92 750.252 139.987 749.732 140.12C749.225 140.253 748.625 140.467 747.932 140.76L746.772 138.38C747.638 137.993 748.472 137.707 749.272 137.52C750.085 137.32 750.898 137.22 751.712 137.22C753.178 137.22 754.318 137.573 755.132 138.28C755.945 138.973 756.352 139.953 756.352 141.22V148H753.152V147.36C752.725 147.653 752.272 147.867 751.792 148C751.325 148.12 750.805 148.18 750.232 148.18ZM749.472 144.84C749.472 145.173 749.618 145.433 749.912 145.62C750.205 145.807 750.612 145.9 751.132 145.9C751.518 145.9 751.878 145.86 752.212 145.78C752.558 145.7 752.872 145.573 753.152 145.4V144.04C752.845 143.96 752.532 143.9 752.212 143.86C751.892 143.82 751.565 143.8 751.232 143.8C750.672 143.8 750.238 143.893 749.932 144.08C749.625 144.253 749.472 144.507 749.472 144.84ZM767.504 148.2C766.37 148.2 765.25 147.993 764.144 147.58C763.037 147.167 762.05 146.593 761.184 145.86L763.104 143.36C763.957 144.053 764.744 144.553 765.464 144.86C766.184 145.153 766.95 145.3 767.764 145.3C768.297 145.3 768.75 145.247 769.124 145.14C769.497 145.033 769.784 144.88 769.984 144.68C770.184 144.467 770.284 144.22 770.284 143.94C770.284 143.553 770.137 143.253 769.844 143.04C769.55 142.827 769.05 142.66 768.344 142.54L765.264 142C764.13 141.8 763.257 141.367 762.644 140.7C762.03 140.033 761.724 139.187 761.724 138.16C761.724 137.253 761.95 136.473 762.404 135.82C762.87 135.167 763.53 134.667 764.384 134.32C765.25 133.973 766.277 133.8 767.464 133.8C768.504 133.8 769.55 133.98 770.604 134.34C771.657 134.687 772.57 135.173 773.344 135.8L771.524 138.34C770.084 137.233 768.65 136.68 767.224 136.68C766.757 136.68 766.35 136.733 766.004 136.84C765.67 136.933 765.41 137.073 765.224 137.26C765.05 137.433 764.964 137.647 764.964 137.9C764.964 138.247 765.09 138.513 765.344 138.7C765.61 138.887 766.037 139.033 766.624 139.14L769.524 139.62C770.87 139.833 771.89 140.28 772.584 140.96C773.29 141.64 773.644 142.52 773.644 143.6C773.644 144.547 773.397 145.367 772.904 146.06C772.41 146.74 771.704 147.267 770.784 147.64C769.864 148.013 768.77 148.2 767.504 148.2ZM779.195 148.2C778.368 148.2 777.635 148.02 776.995 147.66C776.368 147.3 775.875 146.8 775.515 146.16C775.155 145.507 774.975 144.767 774.975 143.94V137.42H778.215V143.5C778.215 144.073 778.388 144.54 778.735 144.9C779.095 145.247 779.561 145.42 780.135 145.42C780.548 145.42 780.915 145.347 781.235 145.2C781.555 145.053 781.821 144.847 782.035 144.58V137.42H785.275V148H782.035V147.28C781.235 147.893 780.288 148.2 779.195 148.2ZM791.461 148.2C790.461 148.2 789.535 148.087 788.681 147.86C787.828 147.62 787.088 147.273 786.461 146.82L788.001 144.64C788.668 145.04 789.275 145.333 789.821 145.52C790.368 145.693 790.908 145.78 791.441 145.78C791.975 145.78 792.395 145.707 792.701 145.56C793.021 145.4 793.181 145.193 793.181 144.94C793.181 144.74 793.095 144.58 792.921 144.46C792.748 144.327 792.475 144.233 792.101 144.18L790.001 143.86C788.948 143.7 788.141 143.353 787.581 142.82C787.035 142.273 786.761 141.567 786.761 140.7C786.761 139.98 786.941 139.367 787.301 138.86C787.675 138.34 788.201 137.947 788.881 137.68C789.561 137.4 790.375 137.26 791.321 137.26C792.095 137.26 792.861 137.367 793.621 137.58C794.381 137.793 795.088 138.113 795.741 138.54L794.201 140.62C793.628 140.287 793.081 140.047 792.561 139.9C792.041 139.74 791.521 139.66 791.001 139.66C790.588 139.66 790.255 139.733 790.001 139.88C789.748 140.013 789.621 140.193 789.621 140.42C789.621 140.633 789.715 140.807 789.901 140.94C790.088 141.06 790.408 141.153 790.861 141.22L792.961 141.54C794.001 141.687 794.801 142.033 795.361 142.58C795.935 143.113 796.221 143.793 796.221 144.62C796.221 145.313 796.015 145.927 795.601 146.46C795.188 146.993 794.621 147.42 793.901 147.74C793.195 148.047 792.381 148.2 791.461 148.2ZM802.602 148.14C801.335 148.14 800.375 147.86 799.722 147.3C799.082 146.727 798.762 145.887 798.762 144.78V140.12H796.622V137.42H798.762V134.7L802.002 134V137.42H804.962V140.12H802.002V144.14C802.002 144.607 802.102 144.94 802.302 145.14C802.515 145.327 802.882 145.42 803.402 145.42C803.668 145.42 803.908 145.407 804.122 145.38C804.348 145.34 804.595 145.28 804.862 145.2V147.82C804.568 147.913 804.195 147.987 803.742 148.04C803.288 148.107 802.908 148.14 802.602 148.14ZM809.607 148.18C808.86 148.18 808.193 148.04 807.607 147.76C807.033 147.48 806.58 147.093 806.247 146.6C805.927 146.107 805.767 145.54 805.767 144.9C805.767 143.887 806.147 143.107 806.907 142.56C807.68 142 808.753 141.72 810.127 141.72C810.953 141.72 811.753 141.82 812.527 142.02V141.5C812.527 140.967 812.353 140.573 812.007 140.32C811.673 140.053 811.173 139.92 810.507 139.92C810.093 139.92 809.627 139.987 809.107 140.12C808.6 140.253 808 140.467 807.307 140.76L806.147 138.38C807.013 137.993 807.847 137.707 808.647 137.52C809.46 137.32 810.273 137.22 811.087 137.22C812.553 137.22 813.693 137.573 814.507 138.28C815.32 138.973 815.727 139.953 815.727 141.22V148H812.527V147.36C812.1 147.653 811.647 147.867 811.167 148C810.7 148.12 810.18 148.18 809.607 148.18ZM808.847 144.84C808.847 145.173 808.993 145.433 809.287 145.62C809.58 145.807 809.987 145.9 810.507 145.9C810.893 145.9 811.253 145.86 811.587 145.78C811.933 145.7 812.247 145.573 812.527 145.4V144.04C812.22 143.96 811.907 143.9 811.587 143.86C811.267 143.82 810.94 143.8 810.607 143.8C810.047 143.8 809.613 143.893 809.307 144.08C809 144.253 808.847 144.507 808.847 144.84ZM817.652 148V137.42H820.892V148H817.652ZM819.272 136.44C818.779 136.44 818.359 136.267 818.012 135.92C817.666 135.573 817.492 135.153 817.492 134.66C817.492 134.167 817.666 133.747 818.012 133.4C818.359 133.053 818.779 132.88 819.272 132.88C819.766 132.88 820.186 133.053 820.532 133.4C820.879 133.747 821.052 134.167 821.052 134.66C821.052 135.153 820.879 135.573 820.532 135.92C820.186 136.267 819.766 136.44 819.272 136.44ZM822.887 148V137.42H826.127V138.14C826.927 137.527 827.873 137.22 828.967 137.22C829.793 137.22 830.52 137.4 831.147 137.76C831.787 138.12 832.287 138.62 832.647 139.26C833.007 139.9 833.187 140.64 833.187 141.48V148H829.947V141.92C829.947 141.333 829.773 140.867 829.427 140.52C829.08 140.173 828.613 140 828.027 140C827.613 140 827.247 140.073 826.927 140.22C826.62 140.367 826.353 140.573 826.127 140.84V148H822.887ZM838.493 148.18C837.747 148.18 837.08 148.04 836.493 147.76C835.92 147.48 835.467 147.093 835.133 146.6C834.813 146.107 834.653 145.54 834.653 144.9C834.653 143.887 835.033 143.107 835.793 142.56C836.567 142 837.64 141.72 839.013 141.72C839.84 141.72 840.64 141.82 841.413 142.02V141.5C841.413 140.967 841.24 140.573 840.893 140.32C840.56 140.053 840.06 139.92 839.393 139.92C838.98 139.92 838.513 139.987 837.993 140.12C837.487 140.253 836.887 140.467 836.193 140.76L835.033 138.38C835.9 137.993 836.733 137.707 837.533 137.52C838.347 137.32 839.16 137.22 839.973 137.22C841.44 137.22 842.58 137.573 843.393 138.28C844.207 138.973 844.613 139.953 844.613 141.22V148H841.413V147.36C840.987 147.653 840.533 147.867 840.053 148C839.587 148.12 839.067 148.18 838.493 148.18ZM837.733 144.84C837.733 145.173 837.88 145.433 838.173 145.62C838.467 145.807 838.873 145.9 839.393 145.9C839.78 145.9 840.14 145.86 840.473 145.78C840.82 145.7 841.133 145.573 841.413 145.4V144.04C841.107 143.96 840.793 143.9 840.473 143.86C840.153 143.82 839.827 143.8 839.493 143.8C838.933 143.8 838.5 143.893 838.193 144.08C837.887 144.253 837.733 144.507 837.733 144.84ZM846.539 148V134L849.779 133.5V138.16C850.606 137.573 851.539 137.28 852.579 137.28C853.592 137.28 854.506 137.527 855.319 138.02C856.132 138.5 856.779 139.153 857.259 139.98C857.739 140.793 857.979 141.707 857.979 142.72C857.979 143.733 857.732 144.653 857.239 145.48C856.759 146.293 856.099 146.94 855.259 147.42C854.432 147.9 853.506 148.14 852.479 148.14C851.986 148.14 851.506 148.08 851.039 147.96C850.572 147.827 850.139 147.64 849.739 147.4V148H846.539ZM852.019 145.4C852.552 145.4 853.026 145.287 853.439 145.06C853.852 144.82 854.179 144.5 854.419 144.1C854.672 143.687 854.799 143.227 854.799 142.72C854.799 142.213 854.672 141.76 854.419 141.36C854.179 140.947 853.846 140.627 853.419 140.4C853.006 140.16 852.539 140.04 852.019 140.04C851.566 140.04 851.152 140.113 850.779 140.26C850.406 140.393 850.072 140.6 849.779 140.88V144.58C850.059 144.833 850.392 145.033 850.779 145.18C851.166 145.327 851.579 145.4 852.019 145.4ZM859.508 148V134L862.748 133.5V148H859.508ZM870.022 148.2C868.942 148.2 867.962 147.96 867.082 147.48C866.216 146.987 865.529 146.327 865.022 145.5C864.516 144.673 864.262 143.747 864.262 142.72C864.262 141.693 864.502 140.767 864.982 139.94C865.476 139.113 866.142 138.46 866.982 137.98C867.822 137.487 868.756 137.24 869.782 137.24C870.822 137.24 871.742 137.493 872.542 138C873.342 138.493 873.969 139.173 874.422 140.04C874.889 140.907 875.122 141.9 875.122 143.02V143.82H867.582C867.729 144.153 867.922 144.447 868.162 144.7C868.416 144.953 868.716 145.153 869.062 145.3C869.409 145.433 869.782 145.5 870.182 145.5C870.622 145.5 871.022 145.433 871.382 145.3C871.742 145.153 872.049 144.953 872.302 144.7L874.442 146.6C873.776 147.16 873.089 147.567 872.382 147.82C871.689 148.073 870.902 148.2 870.022 148.2ZM867.522 141.56H871.942C871.836 141.213 871.669 140.92 871.442 140.68C871.229 140.427 870.976 140.233 870.682 140.1C870.389 139.953 870.069 139.88 869.722 139.88C869.362 139.88 869.036 139.947 868.742 140.08C868.449 140.213 868.196 140.407 867.982 140.66C867.782 140.9 867.629 141.2 867.522 141.56ZM880.703 148V134H891.823V136.98H884.143V139.6H889.263V142.48H884.143V148H880.703ZM896.812 148.2C895.985 148.2 895.252 148.02 894.612 147.66C893.985 147.3 893.492 146.8 893.132 146.16C892.772 145.507 892.592 144.767 892.592 143.94V137.42H895.832V143.5C895.832 144.073 896.005 144.54 896.352 144.9C896.712 145.247 897.179 145.42 897.752 145.42C898.165 145.42 898.532 145.347 898.852 145.2C899.172 145.053 899.439 144.847 899.652 144.58V137.42H902.892V148H899.652V147.28C898.852 147.893 897.905 148.2 896.812 148.2ZM910.238 148.14C908.972 148.14 908.012 147.86 907.358 147.3C906.718 146.727 906.398 145.887 906.398 144.78V140.12H904.258V137.42H906.398V134.7L909.638 134V137.42H912.598V140.12H909.638V144.14C909.638 144.607 909.738 144.94 909.938 145.14C910.152 145.327 910.518 145.42 911.038 145.42C911.305 145.42 911.545 145.407 911.758 145.38C911.985 145.34 912.232 145.28 912.498 145.2V147.82C912.205 147.913 911.832 147.987 911.378 148.04C910.925 148.107 910.545 148.14 910.238 148.14ZM918.003 148.2C917.177 148.2 916.443 148.02 915.803 147.66C915.177 147.3 914.683 146.8 914.323 146.16C913.963 145.507 913.783 144.767 913.783 143.94V137.42H917.023V143.5C917.023 144.073 917.197 144.54 917.543 144.9C917.903 145.247 918.37 145.42 918.943 145.42C919.357 145.42 919.723 145.347 920.043 145.2C920.363 145.053 920.63 144.847 920.843 144.58V137.42H924.083V148H920.843V147.28C920.043 147.893 919.097 148.2 918.003 148.2ZM926.09 148V137.42H929.33V138.48C929.677 138.053 930.083 137.733 930.55 137.52C931.017 137.293 931.537 137.18 932.11 137.18C932.683 137.193 933.09 137.28 933.33 137.44V140.26C933.117 140.153 932.877 140.073 932.61 140.02C932.343 139.967 932.07 139.94 931.79 139.94C931.283 139.94 930.81 140.06 930.37 140.3C929.943 140.527 929.597 140.853 929.33 141.28V148H926.09ZM939.71 148.2C938.63 148.2 937.65 147.96 936.77 147.48C935.903 146.987 935.216 146.327 934.71 145.5C934.203 144.673 933.95 143.747 933.95 142.72C933.95 141.693 934.19 140.767 934.67 139.94C935.163 139.113 935.83 138.46 936.67 137.98C937.51 137.487 938.443 137.24 939.47 137.24C940.51 137.24 941.43 137.493 942.23 138C943.03 138.493 943.656 139.173 944.11 140.04C944.576 140.907 944.81 141.9 944.81 143.02V143.82H937.27C937.416 144.153 937.61 144.447 937.85 144.7C938.103 144.953 938.403 145.153 938.75 145.3C939.096 145.433 939.47 145.5 939.87 145.5C940.31 145.5 940.71 145.433 941.07 145.3C941.43 145.153 941.736 144.953 941.99 144.7L944.13 146.6C943.463 147.16 942.776 147.567 942.07 147.82C941.376 148.073 940.59 148.2 939.71 148.2ZM937.21 141.56H941.63C941.523 141.213 941.356 140.92 941.13 140.68C940.916 140.427 940.663 140.233 940.37 140.1C940.076 139.953 939.756 139.88 939.41 139.88C939.05 139.88 938.723 139.947 938.43 140.08C938.136 140.213 937.883 140.407 937.67 140.66C937.47 140.9 937.316 141.2 937.21 141.56ZM949.331 138.68L950.791 133H954.131L951.751 138.68H949.331ZM945.051 138.68L946.511 133H949.851L947.471 138.68H945.051Z" fill="white"/>
<defs>
<filter id="filter0_d_2375_5" x="873.762" y="83" width="544.238" height="330" filterUnits="userSpaceOnUse" color-interpolation-filters="sRGB">
<feFlood flood-opacity="0" result="BackgroundImageFix"/>
<feColorMatrix in="SourceAlpha" type="matrix" values="0 0 0 0 0 0 0 0 0 0 0 0 0 0 0 0 0 0 127 0" result="hardAlpha"/>
<feOffset dy="4"/>
<feGaussianBlur stdDeviation="62.5"/>
<feComposite in2="hardAlpha" operator="out"/>
<feColorMatrix type="matrix" values="0 0 0 0 0.602456 0 0 0 0 0.862489 0 0 0 0 0.9525 0 0 0 0.54 0"/>
<feBlend mode="normal" in2="BackgroundImageFix" result="effect1_dropShadow_2375_5"/>
<feBlend mode="normal" in="SourceGraphic" in2="effect1_dropShadow_2375_5" result="shape"/>
</filter>
<filter id="filter1_d_2375_5" x="0" y="83" width="544.238" height="330" filterUnits="userSpaceOnUse" color-interpolation-filters="sRGB">
<feFlood flood-opacity="0" result="BackgroundImageFix"/>
<feColorMatrix in="SourceAlpha" type="matrix" values="0 0 0 0 0 0 0 0 0 0 0 0 0 0 0 0 0 0 127 0" result="hardAlpha"/>
<feOffset dy="4"/>
<feGaussianBlur stdDeviation="62.5"/>
<feComposite in2="hardAlpha" operator="out"/>
<feColorMatrix type="matrix" values="0 0 0 0 0.602456 0 0 0 0 0.862489 0 0 0 0 0.9525 0 0 0 0.54 0"/>
<feBlend mode="normal" in2="BackgroundImageFix" result="effect1_dropShadow_2375_5"/>
<feBlend mode="normal" in="SourceGraphic" in2="effect1_dropShadow_2375_5" result="shape"/>
</filter>
<filter id="filter2_d_2375_5" x="748.516" y="101" width="543.242" height="329" filterUnits="userSpaceOnUse" color-interpolation-filters="sRGB">
<feFlood flood-opacity="0" result="BackgroundImageFix"/>
<feColorMatrix in="SourceAlpha" type="matrix" values="0 0 0 0 0 0 0 0 0 0 0 0 0 0 0 0 0 0 127 0" result="hardAlpha"/>
<feOffset dy="4"/>
<feGaussianBlur stdDeviation="62.5"/>
<feComposite in2="hardAlpha" operator="out"/>
<feColorMatrix type="matrix" values="0 0 0 0 0.602456 0 0 0 0 0.862489 0 0 0 0 0.9525 0 0 0 0.54 0"/>
<feBlend mode="normal" in2="BackgroundImageFix" result="effect1_dropShadow_2375_5"/>
<feBlend mode="normal" in="SourceGraphic" in2="effect1_dropShadow_2375_5" result="shape"/>
</filter>
<filter id="filter3_d_2375_5" x="132.207" y="101" width="543.242" height="329" filterUnits="userSpaceOnUse" color-interpolation-filters="sRGB">
<feFlood flood-opacity="0" result="BackgroundImageFix"/>
<feColorMatrix in="SourceAlpha" type="matrix" values="0 0 0 0 0 0 0 0 0 0 0 0 0 0 0 0 0 0 127 0" result="hardAlpha"/>
<feOffset dy="4"/>
<feGaussianBlur stdDeviation="62.5"/>
<feComposite in2="hardAlpha" operator="out"/>
<feColorMatrix type="matrix" values="0 0 0 0 0.602456 0 0 0 0 0.862489 0 0 0 0 0.9525 0 0 0 0.54 0"/>
<feBlend mode="normal" in2="BackgroundImageFix" result="effect1_dropShadow_2375_5"/>
<feBlend mode="normal" in="SourceGraphic" in2="effect1_dropShadow_2375_5" result="shape"/>
</filter>
<filter id="filter4_d_2375_5" x="279.324" y="123" width="543.965" height="335.135" filterUnits="userSpaceOnUse" color-interpolation-filters="sRGB">
<feFlood flood-opacity="0" result="BackgroundImageFix"/>
<feColorMatrix in="SourceAlpha" type="matrix" values="0 0 0 0 0 0 0 0 0 0 0 0 0 0 0 0 0 0 127 0" result="hardAlpha"/>
<feOffset dy="4"/>
<feGaussianBlur stdDeviation="62.5"/>
<feComposite in2="hardAlpha" operator="out"/>
<feColorMatrix type="matrix" values="0 0 0 0 0.602456 0 0 0 0 0.862489 0 0 0 0 0.9525 0 0 0 0.54 0"/>
<feBlend mode="normal" in2="BackgroundImageFix" result="effect1_dropShadow_2375_5"/>
<feBlend mode="normal" in="SourceGraphic" in2="effect1_dropShadow_2375_5" result="shape"/>
</filter>
<filter id="filter5_d_2375_5" x="581.5" y="123" width="542.262" height="334.158" filterUnits="userSpaceOnUse" color-interpolation-filters="sRGB">
<feFlood flood-opacity="0" result="BackgroundImageFix"/>
<feColorMatrix in="SourceAlpha" type="matrix" values="0 0 0 0 0 0 0 0 0 0 0 0 0 0 0 0 0 0 127 0" result="hardAlpha"/>
<feOffset dy="4"/>
<feGaussianBlur stdDeviation="62.5"/>
<feComposite in2="hardAlpha" operator="out"/>
<feColorMatrix type="matrix" values="0 0 0 0 0.602456 0 0 0 0 0.862489 0 0 0 0 0.9525 0 0 0 0.54 0"/>
<feBlend mode="normal" in2="BackgroundImageFix" result="effect1_dropShadow_2375_5"/>
<feBlend mode="normal" in="SourceGraphic" in2="effect1_dropShadow_2375_5" result="shape"/>
</filter>
<filter id="filter6_d_2375_5" x="421.764" y="147.823" width="301.761" height="306.943" filterUnits="userSpaceOnUse" color-interpolation-filters="sRGB">
<feFlood flood-opacity="0" result="BackgroundImageFix"/>
<feColorMatrix in="SourceAlpha" type="matrix" values="0 0 0 0 0 0 0 0 0 0 0 0 0 0 0 0 0 0 127 0" result="hardAlpha"/>
<feOffset dy="4"/>
<feGaussianBlur stdDeviation="44.95"/>
<feComposite in2="hardAlpha" operator="out"/>
<feColorMatrix type="matrix" values="0 0 0 0 0.407843 0 0 0 0 0.0941176 0 0 0 0 0.129412 0 0 0 1 0"/>
<feBlend mode="normal" in2="BackgroundImageFix" result="effect1_dropShadow_2375_5"/>
<feBlend mode="normal" in="SourceGraphic" in2="effect1_dropShadow_2375_5" result="shape"/>
</filter>
<filter id="filter7_d_2375_5" x="414.786" y="143.995" width="313.557" height="319.713" filterUnits="userSpaceOnUse" color-interpolation-filters="sRGB">
<feFlood flood-opacity="0" result="BackgroundImageFix"/>
<feColorMatrix in="SourceAlpha" type="matrix" values="0 0 0 0 0 0 0 0 0 0 0 0 0 0 0 0 0 0 127 0" result="hardAlpha"/>
<feOffset dy="4"/>
<feGaussianBlur stdDeviation="51.4"/>
<feComposite in2="hardAlpha" operator="out"/>
<feColorMatrix type="matrix" values="0 0 0 0 0.847059 0 0 0 0 0.709804 0 0 0 0 0.458824 0 0 0 1 0"/>
<feBlend mode="normal" in2="BackgroundImageFix" result="effect1_dropShadow_2375_5"/>
<feBlend mode="normal" in="SourceGraphic" in2="effect1_dropShadow_2375_5" result="shape"/>
</filter>
<filter id="filter8_d_2375_5" x="692.448" y="137.676" width="301.761" height="306.943" filterUnits="userSpaceOnUse" color-interpolation-filters="sRGB">
<feFlood flood-opacity="0" result="BackgroundImageFix"/>
<feColorMatrix in="SourceAlpha" type="matrix" values="0 0 0 0 0 0 0 0 0 0 0 0 0 0 0 0 0 0 127 0" result="hardAlpha"/>
<feOffset dy="4"/>
<feGaussianBlur stdDeviation="44.95"/>
<feComposite in2="hardAlpha" operator="out"/>
<feColorMatrix type="matrix" values="0 0 0 0 0.407843 0 0 0 0 0.0941176 0 0 0 0 0.129412 0 0 0 1 0"/>
<feBlend mode="normal" in2="BackgroundImageFix" result="effect1_dropShadow_2375_5"/>
<feBlend mode="normal" in="SourceGraphic" in2="effect1_dropShadow_2375_5" result="shape"/>
</filter>
<filter id="filter9_d_2375_5" x="687.63" y="133.848" width="313.557" height="319.713" filterUnits="userSpaceOnUse" color-interpolation-filters="sRGB">
<feFlood flood-opacity="0" result="BackgroundImageFix"/>
<feColorMatrix in="SourceAlpha" type="matrix" values="0 0 0 0 0 0 0 0 0 0 0 0 0 0 0 0 0 0 127 0" result="hardAlpha"/>
<feOffset dy="4"/>
<feGaussianBlur stdDeviation="51.4"/>
<feComposite in2="hardAlpha" operator="out"/>
<feColorMatrix type="matrix" values="0 0 0 0 0.847059 0 0 0 0 0.709804 0 0 0 0 0.458824 0 0 0 1 0"/>
<feBlend mode="normal" in2="BackgroundImageFix" result="effect1_dropShadow_2375_5"/>
<feBlend mode="normal" in="SourceGraphic" in2="effect1_dropShadow_2375_5" result="shape"/>
</filter>
<filter id="filter10_d_2375_5" x="553.565" y="111.95" width="297.175" height="297.589" filterUnits="userSpaceOnUse" color-interpolation-filters="sRGB">
<feFlood flood-opacity="0" result="BackgroundImageFix"/>
<feColorMatrix in="SourceAlpha" type="matrix" values="0 0 0 0 0 0 0 0 0 0 0 0 0 0 0 0 0 0 127 0" result="hardAlpha"/>
<feOffset dy="4"/>
<feGaussianBlur stdDeviation="44.95"/>
<feComposite in2="hardAlpha" operator="out"/>
<feColorMatrix type="matrix" values="0 0 0 0 0.407843 0 0 0 0 0.0941176 0 0 0 0 0.129412 0 0 0 1 0"/>
<feBlend mode="normal" in2="BackgroundImageFix" result="effect1_dropShadow_2375_5"/>
<feBlend mode="normal" in="SourceGraphic" in2="effect1_dropShadow_2375_5" result="shape"/>
</filter>
<filter id="filter11_d_2375_5" x="546.302" y="108.442" width="308.682" height="309.772" filterUnits="userSpaceOnUse" color-interpolation-filters="sRGB">
<feFlood flood-opacity="0" result="BackgroundImageFix"/>
<feColorMatrix in="SourceAlpha" type="matrix" values="0 0 0 0 0 0 0 0 0 0 0 0 0 0 0 0 0 0 127 0" result="hardAlpha"/>
<feOffset dy="4"/>
<feGaussianBlur stdDeviation="51.4"/>
<feComposite in2="hardAlpha" operator="out"/>
<feColorMatrix type="matrix" values="0 0 0 0 0.847059 0 0 0 0 0.709804 0 0 0 0 0.458824 0 0 0 1 0"/>
<feBlend mode="normal" in2="BackgroundImageFix" result="effect1_dropShadow_2375_5"/>
<feBlend mode="normal" in="SourceGraphic" in2="effect1_dropShadow_2375_5" result="shape"/>
</filter>
<radialGradient id="paint0_radial_2375_5" cx="0" cy="0" r="1" gradientUnits="userSpaceOnUse" gradientTransform="translate(1230.73 233.697) rotate(178.617) scale(263.251 69.5695)">
<stop stop-color="#75D7D6"/>
<stop offset="0.288144" stop-color="#3CC1EC"/>
<stop offset="0.836667" stop-color="#C213BB"/>
<stop offset="1" stop-color="#D575D7"/>
</radialGradient>
<radialGradient id="paint1_radial_2375_5" cx="0" cy="0" r="1" gradientUnits="userSpaceOnUse" gradientTransform="translate(187.268 233.697) rotate(1.38316) scale(263.251 69.5695)">
<stop stop-color="#75D7D6"/>
<stop offset="0.288144" stop-color="#3CC1EC"/>
<stop offset="0.836667" stop-color="#C213BB"/>
<stop offset="1" stop-color="#D575D7"/>
</radialGradient>
<radialGradient id="paint2_radial_2375_5" cx="0" cy="0" r="1" gradientUnits="userSpaceOnUse" gradientTransform="translate(1104.7 251.326) rotate(178.629) scale(262.36 68.7002)">
<stop stop-color="#75D7D6"/>
<stop offset="0.288144" stop-color="#3CC1EC"/>
<stop offset="0.836667" stop-color="#C213BB"/>
<stop offset="1" stop-color="#D575D7"/>
</radialGradient>
<radialGradient id="paint3_radial_2375_5" cx="0" cy="0" r="1" gradientUnits="userSpaceOnUse" gradientTransform="translate(319.265 251.326) rotate(1.37051) scale(262.36 68.7002)">
<stop stop-color="#75D7D6"/>
<stop offset="0.288144" stop-color="#3CC1EC"/>
<stop offset="0.836667" stop-color="#C213BB"/>
<stop offset="1" stop-color="#D575D7"/>
</radialGradient>
<radialGradient id="paint4_radial_2375_5" cx="0" cy="0" r="1" gradientUnits="userSpaceOnUse" gradientTransform="translate(466.592 273.697) rotate(1.38316) scale(263.251 69.5695)">
<stop stop-color="#75D7D6"/>
<stop offset="0.288144" stop-color="#3CC1EC"/>
<stop offset="0.836667" stop-color="#C213BB"/>
<stop offset="1" stop-color="#D575D7"/>
</radialGradient>
<radialGradient id="paint5_radial_2375_5" cx="0" cy="0" r="1" gradientUnits="userSpaceOnUse" gradientTransform="translate(936.704 273.697) rotate(178.612) scale(262.362 69.5693)">
<stop stop-color="#75D7D6"/>
<stop offset="0.288144" stop-color="#3CC1EC"/>
<stop offset="0.836667" stop-color="#C213BB"/>
<stop offset="1" stop-color="#D575D7"/>
</radialGradient>
<linearGradient id="paint6_linear_2375_5" x1="571.48" y1="233.484" x2="571.48" y2="364.287" gradientUnits="userSpaceOnUse">
<stop stop-color="#71D0CF"/>
<stop offset="0.305" stop-color="#5BA7A6"/>
<stop offset="0.78" stop-color="#75D7D6"/>
</linearGradient>
<linearGradient id="paint7_linear_2375_5" x1="569.572" y1="241.702" x2="574.131" y2="356.046" gradientUnits="userSpaceOnUse">
<stop offset="0.485" stop-color="#B32169"/>
<stop offset="1" stop-color="#3029BA"/>
</linearGradient>
<linearGradient id="paint8_linear_2375_5" x1="844.492" y1="223.338" x2="844.492" y2="354.141" gradientUnits="userSpaceOnUse">
<stop stop-color="#71D0CF"/>
<stop offset="0.305" stop-color="#5BA7A6"/>
<stop offset="0.78" stop-color="#75D7D6"/>
</linearGradient>
<linearGradient id="paint9_linear_2375_5" x1="846.4" y1="231.556" x2="841.841" y2="345.9" gradientUnits="userSpaceOnUse">
<stop offset="0.485" stop-color="#B32169"/>
<stop offset="1" stop-color="#3029BA"/>
</linearGradient>
<linearGradient id="paint10_linear_2375_5" x1="727.11" y1="212.502" x2="674.179" y2="323.397" gradientUnits="userSpaceOnUse">
<stop stop-color="#71D0CF"/>
<stop offset="0.305" stop-color="#5BA7A6"/>
<stop offset="0.78" stop-color="#75D7D6"/>
</linearGradient>
<linearGradient id="paint11_linear_2375_5" x1="722.228" y1="218.727" x2="679.127" y2="317.443" gradientUnits="userSpaceOnUse">
<stop offset="0.485" stop-color="#B32169"/>
<stop offset="1" stop-color="#3029BA"/>
</linearGradient>
</defs>
</svg>
