<svg width="1030" height="100" viewBox="0 0 1030 100" fill="none" xmlns="http://www.w3.org/2000/svg">
<rect x="5" y="5" width="1020" height="90" rx="33" fill="white" stroke="url(#paint0_linear_3463_14)" stroke-width="10"/>
<path d="M75.924 50.144C75.924 48.2027 76.344 46.476 77.184 44.964C78.024 43.4333 79.1907 42.248 80.684 41.408C82.196 40.5493 83.904 40.12 85.808 40.12C88.1413 40.12 90.1387 40.736 91.8 41.968C93.4613 43.2 94.572 44.88 95.132 47.008H89.868C89.476 46.1867 88.916 45.5613 88.188 45.132C87.4787 44.7027 86.6667 44.488 85.752 44.488C84.2773 44.488 83.0827 45.0013 82.168 46.028C81.2533 47.0547 80.796 48.4267 80.796 50.144C80.796 51.8613 81.2533 53.2333 82.168 54.26C83.0827 55.2867 84.2773 55.8 85.752 55.8C86.6667 55.8 87.4787 55.5853 88.188 55.156C88.916 54.7267 89.476 54.1013 89.868 53.28H95.132C94.572 55.408 93.4613 57.088 91.8 58.32C90.1387 59.5333 88.1413 60.14 85.808 60.14C83.904 60.14 82.196 59.72 80.684 58.88C79.1907 58.0213 78.024 56.836 77.184 55.324C76.344 53.812 75.924 52.0853 75.924 50.144ZM97.1121 52.16C97.1121 50.5547 97.4108 49.1453 98.0081 47.932C98.6241 46.7187 99.4548 45.7853 100.5 45.132C101.545 44.4787 102.712 44.152 104 44.152C105.101 44.152 106.063 44.376 106.884 44.824C107.724 45.272 108.368 45.86 108.816 46.588V44.376H113.604V60H108.816V57.788C108.349 58.516 107.696 59.104 106.856 59.552C106.035 60 105.073 60.224 103.972 60.224C102.703 60.224 101.545 59.8973 100.5 59.244C99.4548 58.572 98.6241 57.6293 98.0081 56.416C97.4108 55.184 97.1121 53.7653 97.1121 52.16ZM108.816 52.188C108.816 50.9933 108.48 50.0507 107.808 49.36C107.155 48.6693 106.352 48.324 105.4 48.324C104.448 48.324 103.636 48.6693 102.964 49.36C102.311 50.032 101.984 50.9653 101.984 52.16C101.984 53.3547 102.311 54.3067 102.964 55.016C103.636 55.7067 104.448 56.052 105.4 56.052C106.352 56.052 107.155 55.7067 107.808 55.016C108.48 54.3253 108.816 53.3827 108.816 52.188ZM123.004 44.152C124.105 44.152 125.067 44.376 125.888 44.824C126.728 45.272 127.372 45.86 127.82 46.588V44.376H132.608V59.972C132.608 61.4093 132.319 62.7067 131.74 63.864C131.18 65.04 130.312 65.9733 129.136 66.664C127.979 67.3547 126.532 67.7 124.796 67.7C122.481 67.7 120.605 67.1493 119.168 66.048C117.731 64.9653 116.909 63.4907 116.704 61.624H121.436C121.585 62.2213 121.94 62.688 122.5 63.024C123.06 63.3787 123.751 63.556 124.572 63.556C125.561 63.556 126.345 63.2667 126.924 62.688C127.521 62.128 127.82 61.2227 127.82 59.972V57.76C127.353 58.488 126.709 59.0853 125.888 59.552C125.067 60 124.105 60.224 123.004 60.224C121.716 60.224 120.549 59.8973 119.504 59.244C118.459 58.572 117.628 57.6293 117.012 56.416C116.415 55.184 116.116 53.7653 116.116 52.16C116.116 50.5547 116.415 49.1453 117.012 47.932C117.628 46.7187 118.459 45.7853 119.504 45.132C120.549 44.4787 121.716 44.152 123.004 44.152ZM127.82 52.188C127.82 50.9933 127.484 50.0507 126.812 49.36C126.159 48.6693 125.356 48.324 124.404 48.324C123.452 48.324 122.64 48.6693 121.968 49.36C121.315 50.032 120.988 50.9653 120.988 52.16C120.988 53.3547 121.315 54.3067 121.968 55.016C122.64 55.7067 123.452 56.052 124.404 56.052C125.356 56.052 126.159 55.7067 126.812 55.016C127.484 54.3253 127.82 53.3827 127.82 52.188ZM138.48 42.752C137.64 42.752 136.949 42.5093 136.408 42.024C135.885 41.52 135.624 40.904 135.624 40.176C135.624 39.4293 135.885 38.8133 136.408 38.328C136.949 37.824 137.64 37.572 138.48 37.572C139.301 37.572 139.973 37.824 140.496 38.328C141.037 38.8133 141.308 39.4293 141.308 40.176C141.308 40.904 141.037 41.52 140.496 42.024C139.973 42.5093 139.301 42.752 138.48 42.752ZM140.86 44.376V60H136.072V44.376H140.86ZM153.038 55.94V60H150.602C148.866 60 147.512 59.58 146.542 58.74C145.571 57.8813 145.086 56.4907 145.086 54.568V48.352H143.182V44.376H145.086V40.568H149.874V44.376H153.01V48.352H149.874V54.624C149.874 55.0907 149.986 55.4267 150.21 55.632C150.434 55.8373 150.807 55.94 151.33 55.94H153.038ZM154.753 52.16C154.753 50.5547 155.051 49.1453 155.649 47.932C156.265 46.7187 157.095 45.7853 158.141 45.132C159.186 44.4787 160.353 44.152 161.641 44.152C162.742 44.152 163.703 44.376 164.525 44.824C165.365 45.272 166.009 45.86 166.457 46.588V44.376H171.245V60H166.457V57.788C165.99 58.516 165.337 59.104 164.497 59.552C163.675 60 162.714 60.224 161.613 60.224C160.343 60.224 159.186 59.8973 158.141 59.244C157.095 58.572 156.265 57.6293 155.649 56.416C155.051 55.184 154.753 53.7653 154.753 52.16ZM166.457 52.188C166.457 50.9933 166.121 50.0507 165.449 49.36C164.795 48.6693 163.993 48.324 163.041 48.324C162.089 48.324 161.277 48.6693 160.605 49.36C159.951 50.032 159.625 50.9653 159.625 52.16C159.625 53.3547 159.951 54.3067 160.605 55.016C161.277 55.7067 162.089 56.052 163.041 56.052C163.993 56.052 164.795 55.7067 165.449 55.016C166.121 54.3253 166.457 53.3827 166.457 52.188ZM188.006 40.344C190.078 40.344 191.889 40.7547 193.438 41.576C194.988 42.3973 196.182 43.5547 197.022 45.048C197.881 46.5227 198.31 48.2307 198.31 50.172C198.31 52.0947 197.881 53.8027 197.022 55.296C196.182 56.7893 194.978 57.9467 193.41 58.768C191.861 59.5893 190.06 60 188.006 60H180.642V40.344H188.006ZM187.698 55.856C189.509 55.856 190.918 55.3613 191.926 54.372C192.934 53.3827 193.438 51.9827 193.438 50.172C193.438 48.3613 192.934 46.952 191.926 45.944C190.918 44.936 189.509 44.432 187.698 44.432H185.43V55.856H187.698ZM203.394 42.752C202.554 42.752 201.863 42.5093 201.322 42.024C200.799 41.52 200.538 40.904 200.538 40.176C200.538 39.4293 200.799 38.8133 201.322 38.328C201.863 37.824 202.554 37.572 203.394 37.572C204.215 37.572 204.887 37.824 205.41 38.328C205.951 38.8133 206.222 39.4293 206.222 40.176C206.222 40.904 205.951 41.52 205.41 42.024C204.887 42.5093 204.215 42.752 203.394 42.752ZM205.774 44.376V60H200.986V44.376H205.774ZM208.292 52.16C208.292 50.5547 208.59 49.1453 209.188 47.932C209.804 46.7187 210.634 45.7853 211.68 45.132C212.725 44.4787 213.892 44.152 215.18 44.152C216.281 44.152 217.242 44.376 218.064 44.824C218.904 45.272 219.548 45.86 219.996 46.588V44.376H224.784V60H219.996V57.788C219.529 58.516 218.876 59.104 218.036 59.552C217.214 60 216.253 60.224 215.152 60.224C213.882 60.224 212.725 59.8973 211.68 59.244C210.634 58.572 209.804 57.6293 209.188 56.416C208.59 55.184 208.292 53.7653 208.292 52.16ZM219.996 52.188C219.996 50.9933 219.66 50.0507 218.988 49.36C218.334 48.6693 217.532 48.324 216.58 48.324C215.628 48.324 214.816 48.6693 214.144 49.36C213.49 50.032 213.164 50.9653 213.164 52.16C213.164 53.3547 213.49 54.3067 214.144 55.016C214.816 55.7067 215.628 56.052 216.58 56.052C217.532 56.052 218.334 55.7067 218.988 55.016C219.66 54.3253 219.996 53.3827 219.996 52.188ZM237.768 44.208C239.597 44.208 241.053 44.8053 242.136 46C243.237 47.176 243.788 48.8 243.788 50.872V60H239.028V51.516C239.028 50.4707 238.757 49.6587 238.216 49.08C237.674 48.5013 236.946 48.212 236.032 48.212C235.117 48.212 234.389 48.5013 233.848 49.08C233.306 49.6587 233.036 50.4707 233.036 51.516V60H228.248V44.376H233.036V46.448C233.521 45.7573 234.174 45.216 234.996 44.824C235.817 44.4133 236.741 44.208 237.768 44.208ZM265.285 56.528H257.949L256.773 60H251.761L258.873 40.344H264.417L271.529 60H266.461L265.285 56.528ZM264.053 52.832L261.617 45.636L259.209 52.832H264.053ZM274.785 40.344H279.685L276.549 47.848H273.329L274.785 40.344ZM298.458 44.376L288.658 67.42H283.506L287.09 59.468L280.734 44.376H286.082L289.694 54.148L293.278 44.376H298.458ZM315.617 44.376V60H310.829V57.872C310.344 58.5627 309.681 59.1227 308.841 59.552C308.02 59.9627 307.105 60.168 306.097 60.168C304.902 60.168 303.848 59.9067 302.933 59.384C302.018 58.8427 301.309 58.068 300.805 57.06C300.301 56.052 300.049 54.8667 300.049 53.504V44.376H304.809V52.86C304.809 53.9053 305.08 54.7173 305.621 55.296C306.162 55.8747 306.89 56.164 307.805 56.164C308.738 56.164 309.476 55.8747 310.017 55.296C310.558 54.7173 310.829 53.9053 310.829 52.86V44.376H315.617ZM328.576 44.208C330.406 44.208 331.862 44.8053 332.944 46C334.046 47.176 334.596 48.8 334.596 50.872V60H329.836V51.516C329.836 50.4707 329.566 49.6587 329.024 49.08C328.483 48.5013 327.755 48.212 326.84 48.212C325.926 48.212 325.198 48.5013 324.656 49.08C324.115 49.6587 323.844 50.4707 323.844 51.516V60H319.056V44.376H323.844V46.448C324.33 45.7573 324.983 45.216 325.804 44.824C326.626 44.4133 327.55 44.208 328.576 44.208ZM340.332 42.752C339.492 42.752 338.801 42.5093 338.26 42.024C337.737 41.52 337.476 40.904 337.476 40.176C337.476 39.4293 337.737 38.8133 338.26 38.328C338.801 37.824 339.492 37.572 340.332 37.572C341.153 37.572 341.825 37.824 342.348 38.328C342.889 38.8133 343.16 39.4293 343.16 40.176C343.16 40.904 342.889 41.52 342.348 42.024C341.825 42.5093 341.153 42.752 340.332 42.752ZM342.712 44.376V60H337.924V44.376H342.712ZM355.701 44.208C357.531 44.208 358.987 44.8053 360.069 46C361.171 47.176 361.721 48.8 361.721 50.872V60H356.961V51.516C356.961 50.4707 356.691 49.6587 356.149 49.08C355.608 48.5013 354.88 48.212 353.965 48.212C353.051 48.212 352.323 48.5013 351.781 49.08C351.24 49.6587 350.969 50.4707 350.969 51.516V60H346.181V44.376H350.969V46.448C351.455 45.7573 352.108 45.216 352.929 44.824C353.751 44.4133 354.675 44.208 355.701 44.208Z" fill="#21126A"/>
<path d="M415.532 40.344V44.18H407.524V48.324H413.516V52.048H407.524V60H402.736V40.344H415.532ZM417.097 52.16C417.097 50.5547 417.395 49.1453 417.993 47.932C418.609 46.7187 419.439 45.7853 420.485 45.132C421.53 44.4787 422.697 44.152 423.985 44.152C425.086 44.152 426.047 44.376 426.869 44.824C427.709 45.272 428.353 45.86 428.801 46.588V44.376H433.589V60H428.801V57.788C428.334 58.516 427.681 59.104 426.841 59.552C426.019 60 425.058 60.224 423.957 60.224C422.687 60.224 421.53 59.8973 420.485 59.244C419.439 58.572 418.609 57.6293 417.993 56.416C417.395 55.184 417.097 53.7653 417.097 52.16ZM428.801 52.188C428.801 50.9933 428.465 50.0507 427.793 49.36C427.139 48.6693 426.337 48.324 425.385 48.324C424.433 48.324 423.621 48.6693 422.949 49.36C422.295 50.032 421.969 50.9653 421.969 52.16C421.969 53.3547 422.295 54.3067 422.949 55.016C423.621 55.7067 424.433 56.052 425.385 56.052C426.337 56.052 427.139 55.7067 427.793 55.016C428.465 54.3253 428.801 53.3827 428.801 52.188ZM446.6 60L441.84 53.448V60H437.052V39.28H441.84V50.732L446.572 44.376H452.48L445.984 52.216L452.536 60H446.6ZM469.789 44.376V60H465.001V57.872C464.516 58.5627 463.853 59.1227 463.013 59.552C462.192 59.9627 461.277 60.168 460.269 60.168C459.074 60.168 458.02 59.9067 457.105 59.384C456.19 58.8427 455.481 58.068 454.977 57.06C454.473 56.052 454.221 54.8667 454.221 53.504V44.376H458.981V52.86C458.981 53.9053 459.252 54.7173 459.793 55.296C460.334 55.8747 461.062 56.164 461.977 56.164C462.91 56.164 463.648 55.8747 464.189 55.296C464.73 54.7173 465.001 53.9053 465.001 52.86V44.376H469.789ZM478.016 39.28V60H473.228V39.28H478.016ZM490.194 55.94V60H487.758C486.022 60 484.669 59.58 483.698 58.74C482.727 57.8813 482.242 56.4907 482.242 54.568V48.352H480.338V44.376H482.242V40.568H487.03V44.376H490.166V48.352H487.03V54.624C487.03 55.0907 487.142 55.4267 487.366 55.632C487.59 55.8373 487.963 55.94 488.486 55.94H490.194ZM491.909 52.16C491.909 50.5547 492.208 49.1453 492.805 47.932C493.421 46.7187 494.252 45.7853 495.297 45.132C496.342 44.4787 497.509 44.152 498.797 44.152C499.898 44.152 500.86 44.376 501.681 44.824C502.521 45.272 503.165 45.86 503.613 46.588V44.376H508.401V60H503.613V57.788C503.146 58.516 502.493 59.104 501.653 59.552C500.832 60 499.87 60.224 498.769 60.224C497.5 60.224 496.342 59.8973 495.297 59.244C494.252 58.572 493.421 57.6293 492.805 56.416C492.208 55.184 491.909 53.7653 491.909 52.16ZM503.613 52.188C503.613 50.9933 503.277 50.0507 502.605 49.36C501.952 48.6693 501.149 48.324 500.197 48.324C499.245 48.324 498.433 48.6693 497.761 49.36C497.108 50.032 496.781 50.9653 496.781 52.16C496.781 53.3547 497.108 54.3067 497.761 55.016C498.433 55.7067 499.245 56.052 500.197 56.052C501.149 56.052 501.952 55.7067 502.605 55.016C503.277 54.3253 503.613 53.3827 503.613 52.188ZM518.221 60.224C516.858 60.224 515.645 59.9907 514.581 59.524C513.517 59.0573 512.677 58.4227 512.061 57.62C511.445 56.7987 511.1 55.884 511.025 54.876H515.757C515.813 55.4173 516.065 55.856 516.513 56.192C516.961 56.528 517.512 56.696 518.165 56.696C518.762 56.696 519.22 56.584 519.537 56.36C519.873 56.1173 520.041 55.8093 520.041 55.436C520.041 54.988 519.808 54.6613 519.341 54.456C518.874 54.232 518.118 53.9893 517.073 53.728C515.953 53.4667 515.02 53.196 514.273 52.916C513.526 52.6173 512.882 52.16 512.341 51.544C511.8 50.9093 511.529 50.06 511.529 48.996C511.529 48.1 511.772 47.288 512.257 46.56C512.761 45.8133 513.489 45.2253 514.441 44.796C515.412 44.3667 516.56 44.152 517.885 44.152C519.845 44.152 521.385 44.6373 522.505 45.608C523.644 46.5787 524.297 47.8667 524.465 49.472H520.041C519.966 48.9307 519.724 48.5013 519.313 48.184C518.921 47.8667 518.398 47.708 517.745 47.708C517.185 47.708 516.756 47.82 516.457 48.044C516.158 48.2493 516.009 48.5387 516.009 48.912C516.009 49.36 516.242 49.696 516.709 49.92C517.194 50.144 517.941 50.368 518.949 50.592C520.106 50.8907 521.049 51.1893 521.777 51.488C522.505 51.768 523.14 52.2347 523.681 52.888C524.241 53.5227 524.53 54.3813 524.549 55.464C524.549 56.3787 524.288 57.2 523.765 57.928C523.261 58.6373 522.524 59.1973 521.553 59.608C520.601 60.0187 519.49 60.224 518.221 60.224ZM551.864 40.344L544.892 60H538.9L531.928 40.344H537.024L541.896 55.184L546.796 40.344H551.864ZM560.977 60.224C559.446 60.224 558.065 59.8973 556.833 59.244C555.62 58.5907 554.658 57.6573 553.949 56.444C553.258 55.2307 552.913 53.812 552.913 52.188C552.913 50.5827 553.268 49.1733 553.977 47.96C554.686 46.728 555.657 45.7853 556.889 45.132C558.121 44.4787 559.502 44.152 561.033 44.152C562.564 44.152 563.945 44.4787 565.177 45.132C566.409 45.7853 567.38 46.728 568.089 47.96C568.798 49.1733 569.153 50.5827 569.153 52.188C569.153 53.7933 568.789 55.212 568.061 56.444C567.352 57.6573 566.372 58.5907 565.121 59.244C563.889 59.8973 562.508 60.224 560.977 60.224ZM560.977 56.08C561.892 56.08 562.666 55.744 563.301 55.072C563.954 54.4 564.281 53.4387 564.281 52.188C564.281 50.9373 563.964 49.976 563.329 49.304C562.713 48.632 561.948 48.296 561.033 48.296C560.1 48.296 559.325 48.632 558.709 49.304C558.093 49.9573 557.785 50.9187 557.785 52.188C557.785 53.4387 558.084 54.4 558.681 55.072C559.297 55.744 560.062 56.08 560.977 56.08ZM581.241 60L576.481 53.448V60H571.693V39.28H576.481V50.732L581.213 44.376H587.121L580.625 52.216L587.177 60H581.241ZM588.05 52.16C588.05 50.5547 588.348 49.1453 588.946 47.932C589.562 46.7187 590.392 45.7853 591.438 45.132C592.483 44.4787 593.65 44.152 594.938 44.152C596.039 44.152 597 44.376 597.822 44.824C598.662 45.272 599.306 45.86 599.754 46.588V44.376H604.542V60H599.754V57.788C599.287 58.516 598.634 59.104 597.794 59.552C596.972 60 596.011 60.224 594.91 60.224C593.64 60.224 592.483 59.8973 591.438 59.244C590.392 58.572 589.562 57.6293 588.946 56.416C588.348 55.184 588.05 53.7653 588.05 52.16ZM599.754 52.188C599.754 50.9933 599.418 50.0507 598.746 49.36C598.092 48.6693 597.29 48.324 596.338 48.324C595.386 48.324 594.574 48.6693 593.902 49.36C593.248 50.032 592.922 50.9653 592.922 52.16C592.922 53.3547 593.248 54.3067 593.902 55.016C594.574 55.7067 595.386 56.052 596.338 56.052C597.29 56.052 598.092 55.7067 598.746 55.016C599.418 54.3253 599.754 53.3827 599.754 52.188ZM614.362 60.224C612.999 60.224 611.786 59.9907 610.722 59.524C609.658 59.0573 608.818 58.4227 608.202 57.62C607.586 56.7987 607.24 55.884 607.166 54.876H611.898C611.954 55.4173 612.206 55.856 612.654 56.192C613.102 56.528 613.652 56.696 614.306 56.696C614.903 56.696 615.36 56.584 615.678 56.36C616.014 56.1173 616.182 55.8093 616.182 55.436C616.182 54.988 615.948 54.6613 615.482 54.456C615.015 54.232 614.259 53.9893 613.214 53.728C612.094 53.4667 611.16 53.196 610.414 52.916C609.667 52.6173 609.023 52.16 608.482 51.544C607.94 50.9093 607.67 50.06 607.67 48.996C607.67 48.1 607.912 47.288 608.398 46.56C608.902 45.8133 609.63 45.2253 610.582 44.796C611.552 44.3667 612.7 44.152 614.026 44.152C615.986 44.152 617.526 44.6373 618.646 45.608C619.784 46.5787 620.438 47.8667 620.606 49.472H616.182C616.107 48.9307 615.864 48.5013 615.454 48.184C615.062 47.8667 614.539 47.708 613.886 47.708C613.326 47.708 612.896 47.82 612.598 48.044C612.299 48.2493 612.15 48.5387 612.15 48.912C612.15 49.36 612.383 49.696 612.85 49.92C613.335 50.144 614.082 50.368 615.09 50.592C616.247 50.8907 617.19 51.1893 617.918 51.488C618.646 51.768 619.28 52.2347 619.822 52.888C620.382 53.5227 620.671 54.3813 620.69 55.464C620.69 56.3787 620.428 57.2 619.906 57.928C619.402 58.6373 618.664 59.1973 617.694 59.608C616.742 60.0187 615.631 60.224 614.362 60.224ZM626.027 42.752C625.187 42.752 624.496 42.5093 623.955 42.024C623.432 41.52 623.171 40.904 623.171 40.176C623.171 39.4293 623.432 38.8133 623.955 38.328C624.496 37.824 625.187 37.572 626.027 37.572C626.848 37.572 627.52 37.824 628.043 38.328C628.584 38.8133 628.855 39.4293 628.855 40.176C628.855 40.904 628.584 41.52 628.043 42.024C627.52 42.5093 626.848 42.752 626.027 42.752ZM628.407 44.376V60H623.619V44.376H628.407Z" fill="#21126A"/>
<path d="M683.876 40.344V44.18H678.668V60H673.88V44.18H668.672V40.344H683.876ZM701.007 51.936C701.007 52.384 700.979 52.8507 700.923 53.336H690.087C690.162 54.3067 690.47 55.0533 691.011 55.576C691.571 56.08 692.252 56.332 693.055 56.332C694.25 56.332 695.08 55.828 695.547 54.82H700.643C700.382 55.8467 699.906 56.7707 699.215 57.592C698.543 58.4133 697.694 59.0573 696.667 59.524C695.64 59.9907 694.492 60.224 693.223 60.224C691.692 60.224 690.33 59.8973 689.135 59.244C687.94 58.5907 687.007 57.6573 686.335 56.444C685.663 55.2307 685.327 53.812 685.327 52.188C685.327 50.564 685.654 49.1453 686.307 47.932C686.979 46.7187 687.912 45.7853 689.107 45.132C690.302 44.4787 691.674 44.152 693.223 44.152C694.735 44.152 696.079 44.4693 697.255 45.104C698.431 45.7387 699.346 46.644 699.999 47.82C700.671 48.996 701.007 50.368 701.007 51.936ZM696.107 50.676C696.107 49.8547 695.827 49.2013 695.267 48.716C694.707 48.2307 694.007 47.988 693.167 47.988C692.364 47.988 691.683 48.2213 691.123 48.688C690.582 49.1547 690.246 49.8173 690.115 50.676H696.107ZM713.081 60L708.321 53.448V60H703.533V39.28H708.321V50.732L713.053 44.376H718.961L712.465 52.216L719.017 60H713.081ZM730.361 44.208C732.191 44.208 733.647 44.8053 734.729 46C735.831 47.176 736.381 48.8 736.381 50.872V60H731.621V51.516C731.621 50.4707 731.351 49.6587 730.809 49.08C730.268 48.5013 729.54 48.212 728.625 48.212C727.711 48.212 726.983 48.5013 726.441 49.08C725.9 49.6587 725.629 50.4707 725.629 51.516V60H720.841V44.376H725.629V46.448C726.115 45.7573 726.768 45.216 727.589 44.824C728.411 44.4133 729.335 44.208 730.361 44.208ZM746.821 60.224C745.29 60.224 743.909 59.8973 742.677 59.244C741.463 58.5907 740.502 57.6573 739.793 56.444C739.102 55.2307 738.757 53.812 738.757 52.188C738.757 50.5827 739.111 49.1733 739.821 47.96C740.53 46.728 741.501 45.7853 742.733 45.132C743.965 44.4787 745.346 44.152 746.877 44.152C748.407 44.152 749.789 44.4787 751.021 45.132C752.253 45.7853 753.223 46.728 753.933 47.96C754.642 49.1733 754.997 50.5827 754.997 52.188C754.997 53.7933 754.633 55.212 753.905 56.444C753.195 57.6573 752.215 58.5907 750.965 59.244C749.733 59.8973 748.351 60.224 746.821 60.224ZM746.821 56.08C747.735 56.08 748.51 55.744 749.145 55.072C749.798 54.4 750.125 53.4387 750.125 52.188C750.125 50.9373 749.807 49.976 749.173 49.304C748.557 48.632 747.791 48.296 746.877 48.296C745.943 48.296 745.169 48.632 744.553 49.304C743.937 49.9573 743.629 50.9187 743.629 52.188C743.629 53.4387 743.927 54.4 744.525 55.072C745.141 55.744 745.906 56.08 746.821 56.08ZM762.325 39.28V60H757.537V39.28H762.325ZM772.907 60.224C771.376 60.224 769.995 59.8973 768.763 59.244C767.549 58.5907 766.588 57.6573 765.879 56.444C765.188 55.2307 764.843 53.812 764.843 52.188C764.843 50.5827 765.197 49.1733 765.907 47.96C766.616 46.728 767.587 45.7853 768.819 45.132C770.051 44.4787 771.432 44.152 772.963 44.152C774.493 44.152 775.875 44.4787 777.107 45.132C778.339 45.7853 779.309 46.728 780.019 47.96C780.728 49.1733 781.083 50.5827 781.083 52.188C781.083 53.7933 780.719 55.212 779.991 56.444C779.281 57.6573 778.301 58.5907 777.051 59.244C775.819 59.8973 774.437 60.224 772.907 60.224ZM772.907 56.08C773.821 56.08 774.596 55.744 775.231 55.072C775.884 54.4 776.211 53.4387 776.211 52.188C776.211 50.9373 775.893 49.976 775.259 49.304C774.643 48.632 773.877 48.296 772.963 48.296C772.029 48.296 771.255 48.632 770.639 49.304C770.023 49.9573 769.715 50.9187 769.715 52.188C769.715 53.4387 770.013 54.4 770.611 55.072C771.227 55.744 771.992 56.08 772.907 56.08ZM789.559 44.152C790.66 44.152 791.621 44.376 792.443 44.824C793.283 45.272 793.927 45.86 794.375 46.588V44.376H799.163V59.972C799.163 61.4093 798.873 62.7067 798.295 63.864C797.735 65.04 796.867 65.9733 795.691 66.664C794.533 67.3547 793.087 67.7 791.351 67.7C789.036 67.7 787.16 67.1493 785.723 66.048C784.285 64.9653 783.464 63.4907 783.259 61.624H787.991C788.14 62.2213 788.495 62.688 789.055 63.024C789.615 63.3787 790.305 63.556 791.127 63.556C792.116 63.556 792.9 63.2667 793.479 62.688C794.076 62.128 794.375 61.2227 794.375 59.972V57.76C793.908 58.488 793.264 59.0853 792.443 59.552C791.621 60 790.66 60.224 789.559 60.224C788.271 60.224 787.104 59.8973 786.059 59.244C785.013 58.572 784.183 57.6293 783.567 56.416C782.969 55.184 782.671 53.7653 782.671 52.16C782.671 50.5547 782.969 49.1453 783.567 47.932C784.183 46.7187 785.013 45.7853 786.059 45.132C787.104 44.4787 788.271 44.152 789.559 44.152ZM794.375 52.188C794.375 50.9933 794.039 50.0507 793.367 49.36C792.713 48.6693 791.911 48.324 790.959 48.324C790.007 48.324 789.195 48.6693 788.523 49.36C787.869 50.032 787.543 50.9653 787.543 52.16C787.543 53.3547 787.869 54.3067 788.523 55.016C789.195 55.7067 790.007 56.052 790.959 56.052C791.911 56.052 792.713 55.7067 793.367 55.016C794.039 54.3253 794.375 53.3827 794.375 52.188ZM805.035 42.752C804.195 42.752 803.504 42.5093 802.963 42.024C802.44 41.52 802.179 40.904 802.179 40.176C802.179 39.4293 802.44 38.8133 802.963 38.328C803.504 37.824 804.195 37.572 805.035 37.572C805.856 37.572 806.528 37.824 807.051 38.328C807.592 38.8133 807.863 39.4293 807.863 40.176C807.863 40.904 807.592 41.52 807.051 42.024C806.528 42.5093 805.856 42.752 805.035 42.752ZM807.415 44.376V60H802.627V44.376H807.415ZM821.606 40.344V60H816.818V40.344H821.606ZM834.596 44.208C836.425 44.208 837.881 44.8053 838.964 46C840.065 47.176 840.616 48.8 840.616 50.872V60H835.856V51.516C835.856 50.4707 835.585 49.6587 835.044 49.08C834.503 48.5013 833.775 48.212 832.86 48.212C831.945 48.212 831.217 48.5013 830.676 49.08C830.135 49.6587 829.864 50.4707 829.864 51.516V60H825.076V44.376H829.864V46.448C830.349 45.7573 831.003 45.216 831.824 44.824C832.645 44.4133 833.569 44.208 834.596 44.208ZM851.783 48.352H849.207V60H844.419V48.352H842.683V44.376H844.419V43.928C844.419 42.0053 844.97 40.5493 846.071 39.56C847.172 38.552 848.787 38.048 850.915 38.048C851.27 38.048 851.531 38.0573 851.699 38.076V42.136C850.784 42.08 850.14 42.2107 849.767 42.528C849.394 42.8453 849.207 43.4147 849.207 44.236V44.376H851.783V48.352ZM861.145 60.224C859.614 60.224 858.233 59.8973 857.001 59.244C855.788 58.5907 854.826 57.6573 854.117 56.444C853.426 55.2307 853.081 53.812 853.081 52.188C853.081 50.5827 853.436 49.1733 854.145 47.96C854.854 46.728 855.825 45.7853 857.057 45.132C858.289 44.4787 859.67 44.152 861.201 44.152C862.732 44.152 864.113 44.4787 865.345 45.132C866.577 45.7853 867.548 46.728 868.257 47.96C868.966 49.1733 869.321 50.5827 869.321 52.188C869.321 53.7933 868.957 55.212 868.229 56.444C867.52 57.6573 866.54 58.5907 865.289 59.244C864.057 59.8973 862.676 60.224 861.145 60.224ZM861.145 56.08C862.06 56.08 862.834 55.744 863.469 55.072C864.122 54.4 864.449 53.4387 864.449 52.188C864.449 50.9373 864.132 49.976 863.497 49.304C862.881 48.632 862.116 48.296 861.201 48.296C860.268 48.296 859.493 48.632 858.877 49.304C858.261 49.9573 857.953 50.9187 857.953 52.188C857.953 53.4387 858.252 54.4 858.849 55.072C859.465 55.744 860.23 56.08 861.145 56.08ZM876.649 46.98C877.209 46.1213 877.909 45.4493 878.749 44.964C879.589 44.46 880.522 44.208 881.549 44.208V49.276H880.233C879.038 49.276 878.142 49.5373 877.545 50.06C876.948 50.564 876.649 51.46 876.649 52.748V60H871.861V44.376H876.649V46.98ZM903.774 44.208C905.715 44.208 907.255 44.796 908.394 45.972C909.551 47.148 910.13 48.7813 910.13 50.872V60H905.37V51.516C905.37 50.508 905.099 49.7333 904.558 49.192C904.035 48.632 903.307 48.352 902.374 48.352C901.44 48.352 900.703 48.632 900.162 49.192C899.639 49.7333 899.378 50.508 899.378 51.516V60H894.618V51.516C894.618 50.508 894.347 49.7333 893.806 49.192C893.283 48.632 892.555 48.352 891.622 48.352C890.688 48.352 889.951 48.632 889.41 49.192C888.887 49.7333 888.626 50.508 888.626 51.516V60H883.838V44.376H888.626V46.336C889.111 45.6827 889.746 45.1693 890.53 44.796C891.314 44.404 892.2 44.208 893.19 44.208C894.366 44.208 895.411 44.46 896.326 44.964C897.259 45.468 897.987 46.1867 898.51 47.12C899.051 46.2613 899.788 45.5613 900.722 45.02C901.655 44.4787 902.672 44.208 903.774 44.208ZM912.526 52.16C912.526 50.5547 912.825 49.1453 913.422 47.932C914.038 46.7187 914.869 45.7853 915.914 45.132C916.96 44.4787 918.126 44.152 919.414 44.152C920.516 44.152 921.477 44.376 922.298 44.824C923.138 45.272 923.782 45.86 924.23 46.588V44.376H929.018V60H924.23V57.788C923.764 58.516 923.11 59.104 922.27 59.552C921.449 60 920.488 60.224 919.386 60.224C918.117 60.224 916.96 59.8973 915.914 59.244C914.869 58.572 914.038 57.6293 913.422 56.416C912.825 55.184 912.526 53.7653 912.526 52.16ZM924.23 52.188C924.23 50.9933 923.894 50.0507 923.222 49.36C922.569 48.6693 921.766 48.324 920.814 48.324C919.862 48.324 919.05 48.6693 918.378 49.36C917.725 50.032 917.398 50.9653 917.398 52.16C917.398 53.3547 917.725 54.3067 918.378 55.016C919.05 55.7067 919.862 56.052 920.814 56.052C921.766 56.052 922.569 55.7067 923.222 55.016C923.894 54.3253 924.23 53.3827 924.23 52.188ZM938.838 60.224C937.475 60.224 936.262 59.9907 935.198 59.524C934.134 59.0573 933.294 58.4227 932.678 57.62C932.062 56.7987 931.717 55.884 931.642 54.876H936.374C936.43 55.4173 936.682 55.856 937.13 56.192C937.578 56.528 938.129 56.696 938.782 56.696C939.379 56.696 939.837 56.584 940.154 56.36C940.49 56.1173 940.658 55.8093 940.658 55.436C940.658 54.988 940.425 54.6613 939.958 54.456C939.491 54.232 938.735 53.9893 937.69 53.728C936.57 53.4667 935.637 53.196 934.89 52.916C934.143 52.6173 933.499 52.16 932.958 51.544C932.417 50.9093 932.146 50.06 932.146 48.996C932.146 48.1 932.389 47.288 932.874 46.56C933.378 45.8133 934.106 45.2253 935.058 44.796C936.029 44.3667 937.177 44.152 938.502 44.152C940.462 44.152 942.002 44.6373 943.122 45.608C944.261 46.5787 944.914 47.8667 945.082 49.472H940.658C940.583 48.9307 940.341 48.5013 939.93 48.184C939.538 47.8667 939.015 47.708 938.362 47.708C937.802 47.708 937.373 47.82 937.074 48.044C936.775 48.2493 936.626 48.5387 936.626 48.912C936.626 49.36 936.859 49.696 937.326 49.92C937.811 50.144 938.558 50.368 939.566 50.592C940.723 50.8907 941.666 51.1893 942.394 51.488C943.122 51.768 943.757 52.2347 944.298 52.888C944.858 53.5227 945.147 54.3813 945.166 55.464C945.166 56.3787 944.905 57.2 944.382 57.928C943.878 58.6373 943.141 59.1973 942.17 59.608C941.218 60.0187 940.107 60.224 938.838 60.224ZM950.503 42.752C949.663 42.752 948.973 42.5093 948.431 42.024C947.909 41.52 947.647 40.904 947.647 40.176C947.647 39.4293 947.909 38.8133 948.431 38.328C948.973 37.824 949.663 37.572 950.503 37.572C951.325 37.572 951.997 37.824 952.519 38.328C953.061 38.8133 953.331 39.4293 953.331 40.176C953.331 40.904 953.061 41.52 952.519 42.024C951.997 42.5093 951.325 42.752 950.503 42.752ZM952.883 44.376V60H948.095V44.376H952.883Z" fill="#21126A"/>
<defs>
<linearGradient id="paint0_linear_3463_14" x1="515" y1="0" x2="515" y2="100" gradientUnits="userSpaceOnUse">
<stop offset="0.095" stop-color="#D7B575"/>
<stop offset="0.32" stop-color="#BED775"/>
<stop offset="0.99" stop-color="#4E3D71"/>
</linearGradient>
</defs>
</svg>
