<svg width="1171" height="634" viewBox="0 0 1171 634" fill="none" xmlns="http://www.w3.org/2000/svg">
<rect x="3" width="1167" height="634" fill="#D9D9D9"/>
<path d="M58.8682 413.359H61.5967L65.6143 424.843L69.6318 413.359H72.3604L66.71 429H64.5186L58.8682 413.359ZM57.3965 413.359H60.1143L60.6084 424.553V429H57.3965V413.359ZM71.1143 413.359H73.8428V429H70.6201V424.553L71.1143 413.359ZM83.2207 416.034L78.9668 429H75.54L81.3516 413.359H83.5322L83.2207 416.034ZM86.7549 429L82.4902 416.034L82.1465 413.359H84.3486L90.1924 429H86.7549ZM86.5615 423.178V425.702H78.3008V423.178H86.5615ZM94.876 426.519L97.9912 413.359H99.7314L100.129 415.551L96.8096 429H94.9404L94.876 426.519ZM93.2754 413.359L95.8535 426.519L95.6387 429H93.5547L90.085 413.359H93.2754ZM102.868 426.465L105.414 413.359H108.604L105.146 429H103.062L102.868 426.465ZM100.709 413.359L103.846 426.572L103.76 429H101.891L98.5498 415.54L98.9795 413.359H100.709ZM119.261 413.359V429H116.049V413.359H119.261ZM125.115 419.858V429H122.021V417.377H124.922L125.115 419.858ZM124.664 422.78H123.826C123.826 421.921 123.937 421.147 124.159 420.46C124.381 419.765 124.693 419.174 125.094 418.688C125.495 418.193 125.971 417.817 126.522 417.56C127.081 417.295 127.704 417.162 128.392 417.162C128.936 417.162 129.434 417.241 129.885 417.398C130.336 417.556 130.723 417.807 131.045 418.15C131.374 418.494 131.625 418.949 131.797 419.515C131.976 420.08 132.065 420.771 132.065 421.588V429H128.95V421.577C128.95 421.062 128.879 420.66 128.735 420.374C128.592 420.088 128.381 419.887 128.102 419.772C127.829 419.651 127.493 419.59 127.092 419.59C126.676 419.59 126.315 419.672 126.007 419.837C125.706 420.002 125.455 420.231 125.255 420.524C125.062 420.811 124.915 421.147 124.814 421.534C124.714 421.921 124.664 422.336 124.664 422.78ZM140.702 425.788C140.702 425.566 140.638 425.366 140.509 425.187C140.38 425.007 140.14 424.843 139.789 424.692C139.445 424.535 138.948 424.392 138.296 424.263C137.709 424.134 137.161 423.973 136.652 423.779C136.151 423.579 135.714 423.339 135.342 423.06C134.977 422.78 134.69 422.451 134.482 422.071C134.275 421.685 134.171 421.244 134.171 420.75C134.171 420.263 134.275 419.805 134.482 419.375C134.697 418.945 135.002 418.566 135.396 418.236C135.797 417.9 136.284 417.638 136.856 417.452C137.437 417.259 138.088 417.162 138.812 417.162C139.821 417.162 140.688 417.323 141.411 417.646C142.142 417.968 142.7 418.412 143.087 418.978C143.481 419.536 143.678 420.174 143.678 420.89H140.584C140.584 420.589 140.52 420.32 140.391 420.084C140.269 419.84 140.076 419.651 139.811 419.515C139.553 419.371 139.216 419.3 138.801 419.3C138.457 419.3 138.16 419.361 137.909 419.482C137.659 419.597 137.465 419.755 137.329 419.955C137.2 420.148 137.136 420.363 137.136 420.6C137.136 420.779 137.172 420.94 137.243 421.083C137.322 421.219 137.447 421.344 137.619 421.459C137.791 421.574 138.013 421.681 138.285 421.781C138.564 421.874 138.908 421.96 139.316 422.039C140.154 422.211 140.903 422.437 141.562 422.716C142.22 422.988 142.743 423.36 143.13 423.833C143.517 424.299 143.71 424.911 143.71 425.67C143.71 426.186 143.595 426.658 143.366 427.088C143.137 427.518 142.808 427.894 142.378 428.216C141.948 428.531 141.433 428.778 140.831 428.957C140.237 429.129 139.567 429.215 138.822 429.215C137.741 429.215 136.824 429.021 136.072 428.635C135.327 428.248 134.762 427.757 134.375 427.163C133.995 426.562 133.806 425.946 133.806 425.315H136.738C136.753 425.738 136.86 426.078 137.061 426.336C137.268 426.594 137.53 426.78 137.845 426.895C138.167 427.009 138.514 427.066 138.887 427.066C139.288 427.066 139.621 427.013 139.886 426.905C140.151 426.791 140.351 426.64 140.487 426.454C140.631 426.261 140.702 426.039 140.702 425.788ZM151.412 417.377V419.568H144.645V417.377H151.412ZM146.32 414.509H149.414V425.498C149.414 425.835 149.457 426.092 149.543 426.271C149.636 426.451 149.772 426.576 149.951 426.647C150.13 426.712 150.356 426.744 150.628 426.744C150.821 426.744 150.993 426.737 151.144 426.723C151.301 426.701 151.434 426.68 151.541 426.658L151.552 428.936C151.287 429.021 151 429.09 150.692 429.14C150.384 429.19 150.044 429.215 149.672 429.215C148.992 429.215 148.397 429.104 147.889 428.882C147.387 428.653 147.001 428.287 146.729 427.786C146.456 427.285 146.32 426.626 146.32 425.81V414.509ZM156.439 417.377V429H153.335V417.377H156.439ZM153.142 414.348C153.142 413.896 153.299 413.524 153.614 413.23C153.929 412.937 154.352 412.79 154.882 412.79C155.405 412.79 155.824 412.937 156.139 413.23C156.461 413.524 156.622 413.896 156.622 414.348C156.622 414.799 156.461 415.171 156.139 415.465C155.824 415.758 155.405 415.905 154.882 415.905C154.352 415.905 153.929 415.758 153.614 415.465C153.299 415.171 153.142 414.799 153.142 414.348ZM164.689 417.377V419.568H157.922V417.377H164.689ZM159.598 414.509H162.691V425.498C162.691 425.835 162.734 426.092 162.82 426.271C162.913 426.451 163.049 426.576 163.229 426.647C163.408 426.712 163.633 426.744 163.905 426.744C164.099 426.744 164.271 426.737 164.421 426.723C164.578 426.701 164.711 426.68 164.818 426.658L164.829 428.936C164.564 429.021 164.278 429.09 163.97 429.14C163.662 429.19 163.322 429.215 162.949 429.215C162.269 429.215 161.674 429.104 161.166 428.882C160.665 428.653 160.278 428.287 160.006 427.786C159.734 427.285 159.598 426.626 159.598 425.81V414.509ZM173.326 426.218V417.377H176.42V429H173.509L173.326 426.218ZM173.67 423.833L174.583 423.812C174.583 424.585 174.493 425.305 174.314 425.971C174.135 426.63 173.867 427.202 173.509 427.689C173.151 428.169 172.7 428.545 172.155 428.817C171.611 429.082 170.97 429.215 170.232 429.215C169.667 429.215 169.144 429.136 168.664 428.979C168.191 428.814 167.783 428.56 167.439 428.216C167.103 427.865 166.838 427.417 166.645 426.873C166.458 426.322 166.365 425.659 166.365 424.886V417.377H169.459V424.907C169.459 425.251 169.498 425.541 169.577 425.777C169.663 426.014 169.781 426.207 169.932 426.357C170.082 426.508 170.257 426.615 170.458 426.68C170.666 426.744 170.895 426.776 171.146 426.776C171.783 426.776 172.284 426.647 172.649 426.39C173.022 426.132 173.283 425.781 173.434 425.337C173.591 424.886 173.67 424.384 173.67 423.833ZM184.477 417.377V419.568H177.709V417.377H184.477ZM179.385 414.509H182.479V425.498C182.479 425.835 182.521 426.092 182.607 426.271C182.701 426.451 182.837 426.576 183.016 426.647C183.195 426.712 183.42 426.744 183.692 426.744C183.886 426.744 184.058 426.737 184.208 426.723C184.366 426.701 184.498 426.68 184.605 426.658L184.616 428.936C184.351 429.021 184.065 429.09 183.757 429.14C183.449 429.19 183.109 429.215 182.736 429.215C182.056 429.215 181.462 429.104 180.953 428.882C180.452 428.653 180.065 428.287 179.793 427.786C179.521 427.285 179.385 426.626 179.385 425.81V414.509ZM191.588 429.215C190.686 429.215 189.876 429.072 189.16 428.785C188.444 428.492 187.835 428.087 187.334 427.571C186.84 427.056 186.46 426.458 186.195 425.777C185.93 425.09 185.798 424.359 185.798 423.586V423.156C185.798 422.275 185.923 421.47 186.174 420.739C186.424 420.009 186.783 419.375 187.248 418.838C187.721 418.301 188.294 417.889 188.967 417.603C189.64 417.309 190.399 417.162 191.244 417.162C192.068 417.162 192.798 417.298 193.436 417.57C194.073 417.842 194.606 418.229 195.036 418.73C195.473 419.232 195.802 419.833 196.024 420.535C196.246 421.23 196.357 422.003 196.357 422.855V424.145H187.119V422.082H193.317V421.846C193.317 421.416 193.239 421.033 193.081 420.696C192.931 420.353 192.701 420.08 192.394 419.88C192.086 419.679 191.692 419.579 191.212 419.579C190.804 419.579 190.453 419.669 190.159 419.848C189.866 420.027 189.626 420.277 189.439 420.6C189.26 420.922 189.124 421.301 189.031 421.738C188.945 422.168 188.902 422.641 188.902 423.156V423.586C188.902 424.051 188.967 424.481 189.096 424.875C189.232 425.269 189.422 425.609 189.665 425.896C189.916 426.182 190.216 426.404 190.567 426.562C190.925 426.719 191.33 426.798 191.781 426.798C192.34 426.798 192.859 426.69 193.339 426.476C193.826 426.254 194.245 425.921 194.596 425.477L196.1 427.109C195.856 427.46 195.523 427.797 195.101 428.119C194.685 428.441 194.184 428.706 193.597 428.914C193.009 429.115 192.34 429.215 191.588 429.215ZM211.934 424.907C211.934 424.628 211.891 424.377 211.805 424.155C211.726 423.926 211.576 423.718 211.354 423.532C211.132 423.339 210.82 423.149 210.419 422.963C210.018 422.777 209.499 422.583 208.861 422.383C208.152 422.154 207.479 421.896 206.842 421.609C206.212 421.323 205.653 420.99 205.166 420.61C204.686 420.224 204.307 419.776 204.027 419.268C203.755 418.759 203.619 418.168 203.619 417.495C203.619 416.843 203.762 416.253 204.049 415.723C204.335 415.186 204.736 414.727 205.252 414.348C205.768 413.961 206.376 413.664 207.078 413.456C207.787 413.248 208.564 413.145 209.409 413.145C210.562 413.145 211.568 413.352 212.428 413.768C213.287 414.183 213.953 414.752 214.426 415.476C214.906 416.199 215.146 417.026 215.146 417.957H211.944C211.944 417.499 211.848 417.098 211.654 416.754C211.468 416.403 211.182 416.127 210.795 415.927C210.415 415.726 209.936 415.626 209.355 415.626C208.797 415.626 208.331 415.712 207.959 415.884C207.587 416.049 207.307 416.274 207.121 416.561C206.935 416.84 206.842 417.155 206.842 417.506C206.842 417.771 206.906 418.011 207.035 418.226C207.171 418.44 207.372 418.641 207.637 418.827C207.902 419.013 208.228 419.189 208.614 419.354C209.001 419.518 209.449 419.679 209.957 419.837C210.809 420.095 211.558 420.385 212.202 420.707C212.854 421.029 213.398 421.391 213.835 421.792C214.272 422.193 214.601 422.648 214.823 423.156C215.045 423.665 215.156 424.241 215.156 424.886C215.156 425.566 215.024 426.175 214.759 426.712C214.494 427.249 214.111 427.704 213.609 428.076C213.108 428.449 212.51 428.731 211.815 428.925C211.121 429.118 210.344 429.215 209.484 429.215C208.711 429.215 207.948 429.115 207.196 428.914C206.444 428.706 205.76 428.395 205.145 427.979C204.536 427.564 204.049 427.034 203.684 426.39C203.318 425.745 203.136 424.982 203.136 424.102H206.369C206.369 424.589 206.444 425 206.595 425.337C206.745 425.674 206.956 425.946 207.229 426.153C207.508 426.361 207.837 426.511 208.217 426.604C208.604 426.698 209.026 426.744 209.484 426.744C210.043 426.744 210.501 426.665 210.859 426.508C211.225 426.35 211.493 426.132 211.665 425.853C211.844 425.573 211.934 425.258 211.934 424.907ZM221.956 426.798C222.336 426.798 222.672 426.726 222.966 426.583C223.259 426.433 223.489 426.225 223.653 425.96C223.825 425.688 223.915 425.369 223.922 425.004H226.833C226.826 425.82 226.607 426.547 226.178 427.185C225.748 427.815 225.172 428.312 224.448 428.678C223.725 429.036 222.916 429.215 222.021 429.215C221.118 429.215 220.33 429.064 219.657 428.764C218.991 428.463 218.436 428.048 217.992 427.518C217.548 426.98 217.215 426.357 216.993 425.648C216.771 424.932 216.66 424.166 216.66 423.35V423.038C216.66 422.215 216.771 421.448 216.993 420.739C217.215 420.023 217.548 419.4 217.992 418.87C218.436 418.333 218.991 417.914 219.657 417.613C220.323 417.312 221.104 417.162 221.999 417.162C222.951 417.162 223.786 417.345 224.502 417.71C225.225 418.075 225.791 418.598 226.199 419.278C226.615 419.951 226.826 420.75 226.833 421.674H223.922C223.915 421.287 223.832 420.936 223.675 420.621C223.524 420.306 223.302 420.055 223.009 419.869C222.722 419.676 222.368 419.579 221.945 419.579C221.494 419.579 221.125 419.676 220.839 419.869C220.552 420.055 220.33 420.313 220.173 420.643C220.015 420.965 219.904 421.334 219.84 421.749C219.783 422.157 219.754 422.587 219.754 423.038V423.35C219.754 423.801 219.783 424.234 219.84 424.649C219.897 425.065 220.005 425.434 220.162 425.756C220.327 426.078 220.552 426.332 220.839 426.519C221.125 426.705 221.498 426.798 221.956 426.798ZM231.646 412.5V429H228.552V412.5H231.646ZM231.205 422.78H230.356C230.364 421.971 230.471 421.226 230.679 420.546C230.886 419.858 231.184 419.264 231.57 418.763C231.957 418.254 232.419 417.86 232.956 417.581C233.5 417.302 234.102 417.162 234.761 417.162C235.334 417.162 235.853 417.244 236.318 417.409C236.791 417.567 237.196 417.825 237.532 418.183C237.876 418.534 238.141 418.995 238.327 419.568C238.513 420.141 238.606 420.836 238.606 421.652V429H235.491V421.631C235.491 421.115 235.416 420.711 235.266 420.417C235.122 420.116 234.911 419.905 234.632 419.783C234.36 419.654 234.023 419.59 233.622 419.59C233.178 419.59 232.799 419.672 232.483 419.837C232.175 420.002 231.928 420.231 231.742 420.524C231.556 420.811 231.42 421.147 231.334 421.534C231.248 421.921 231.205 422.336 231.205 422.78ZM240.465 423.307V423.081C240.465 422.229 240.587 421.445 240.83 420.729C241.074 420.005 241.428 419.379 241.894 418.849C242.359 418.319 242.932 417.907 243.612 417.613C244.293 417.312 245.073 417.162 245.954 417.162C246.835 417.162 247.619 417.312 248.307 417.613C248.994 417.907 249.571 418.319 250.036 418.849C250.509 419.379 250.867 420.005 251.11 420.729C251.354 421.445 251.476 422.229 251.476 423.081V423.307C251.476 424.152 251.354 424.936 251.11 425.659C250.867 426.375 250.509 427.002 250.036 427.539C249.571 428.069 248.998 428.481 248.317 428.774C247.637 429.068 246.856 429.215 245.976 429.215C245.095 429.215 244.311 429.068 243.623 428.774C242.943 428.481 242.366 428.069 241.894 427.539C241.428 427.002 241.074 426.375 240.83 425.659C240.587 424.936 240.465 424.152 240.465 423.307ZM243.559 423.081V423.307C243.559 423.794 243.602 424.248 243.688 424.671C243.773 425.093 243.91 425.466 244.096 425.788C244.289 426.103 244.54 426.35 244.848 426.529C245.156 426.708 245.532 426.798 245.976 426.798C246.405 426.798 246.774 426.708 247.082 426.529C247.39 426.35 247.637 426.103 247.823 425.788C248.009 425.466 248.146 425.093 248.231 424.671C248.325 424.248 248.371 423.794 248.371 423.307V423.081C248.371 422.608 248.325 422.164 248.231 421.749C248.146 421.326 248.006 420.954 247.812 420.632C247.626 420.302 247.379 420.045 247.071 419.858C246.763 419.672 246.391 419.579 245.954 419.579C245.517 419.579 245.145 419.672 244.837 419.858C244.536 420.045 244.289 420.302 244.096 420.632C243.91 420.954 243.773 421.326 243.688 421.749C243.602 422.164 243.559 422.608 243.559 423.081ZM252.883 423.307V423.081C252.883 422.229 253.005 421.445 253.248 420.729C253.492 420.005 253.846 419.379 254.312 418.849C254.777 418.319 255.35 417.907 256.03 417.613C256.711 417.312 257.491 417.162 258.372 417.162C259.253 417.162 260.037 417.312 260.725 417.613C261.412 417.907 261.989 418.319 262.454 418.849C262.927 419.379 263.285 420.005 263.528 420.729C263.772 421.445 263.894 422.229 263.894 423.081V423.307C263.894 424.152 263.772 424.936 263.528 425.659C263.285 426.375 262.927 427.002 262.454 427.539C261.989 428.069 261.416 428.481 260.735 428.774C260.055 429.068 259.274 429.215 258.394 429.215C257.513 429.215 256.729 429.068 256.041 428.774C255.361 428.481 254.784 428.069 254.312 427.539C253.846 427.002 253.492 426.375 253.248 425.659C253.005 424.936 252.883 424.152 252.883 423.307ZM255.977 423.081V423.307C255.977 423.794 256.02 424.248 256.105 424.671C256.191 425.093 256.327 425.466 256.514 425.788C256.707 426.103 256.958 426.35 257.266 426.529C257.574 426.708 257.95 426.798 258.394 426.798C258.823 426.798 259.192 426.708 259.5 426.529C259.808 426.35 260.055 426.103 260.241 425.788C260.427 425.466 260.563 425.093 260.649 424.671C260.743 424.248 260.789 423.794 260.789 423.307V423.081C260.789 422.608 260.743 422.164 260.649 421.749C260.563 421.326 260.424 420.954 260.23 420.632C260.044 420.302 259.797 420.045 259.489 419.858C259.181 419.672 258.809 419.579 258.372 419.579C257.935 419.579 257.563 419.672 257.255 419.858C256.954 420.045 256.707 420.302 256.514 420.632C256.327 420.954 256.191 421.326 256.105 421.749C256.02 422.164 255.977 422.608 255.977 423.081ZM269.061 412.5V429H265.956V412.5H269.061ZM276.602 423.307V423.081C276.602 422.229 276.723 421.445 276.967 420.729C277.21 420.005 277.565 419.379 278.03 418.849C278.496 418.319 279.069 417.907 279.749 417.613C280.429 417.312 281.21 417.162 282.091 417.162C282.972 417.162 283.756 417.312 284.443 417.613C285.131 417.907 285.707 418.319 286.173 418.849C286.646 419.379 287.004 420.005 287.247 420.729C287.491 421.445 287.612 422.229 287.612 423.081V423.307C287.612 424.152 287.491 424.936 287.247 425.659C287.004 426.375 286.646 427.002 286.173 427.539C285.707 428.069 285.134 428.481 284.454 428.774C283.774 429.068 282.993 429.215 282.112 429.215C281.231 429.215 280.447 429.068 279.76 428.774C279.079 428.481 278.503 428.069 278.03 427.539C277.565 427.002 277.21 426.375 276.967 425.659C276.723 424.936 276.602 424.152 276.602 423.307ZM279.695 423.081V423.307C279.695 423.794 279.738 424.248 279.824 424.671C279.91 425.093 280.046 425.466 280.232 425.788C280.426 426.103 280.676 426.35 280.984 426.529C281.292 426.708 281.668 426.798 282.112 426.798C282.542 426.798 282.911 426.708 283.219 426.529C283.527 426.35 283.774 426.103 283.96 425.788C284.146 425.466 284.282 425.093 284.368 424.671C284.461 424.248 284.508 423.794 284.508 423.307V423.081C284.508 422.608 284.461 422.164 284.368 421.749C284.282 421.326 284.143 420.954 283.949 420.632C283.763 420.302 283.516 420.045 283.208 419.858C282.9 419.672 282.528 419.579 282.091 419.579C281.654 419.579 281.282 419.672 280.974 419.858C280.673 420.045 280.426 420.302 280.232 420.632C280.046 420.954 279.91 421.326 279.824 421.749C279.738 422.164 279.695 422.608 279.695 423.081ZM293.456 429H290.341V416.346C290.341 415.465 290.513 414.724 290.856 414.122C291.207 413.513 291.698 413.055 292.328 412.747C292.965 412.432 293.721 412.274 294.595 412.274C294.881 412.274 295.157 412.296 295.422 412.339C295.687 412.375 295.945 412.421 296.195 412.479L296.163 414.81C296.027 414.774 295.884 414.749 295.733 414.734C295.583 414.72 295.408 414.713 295.207 414.713C294.835 414.713 294.516 414.777 294.251 414.906C293.993 415.028 293.796 415.211 293.66 415.454C293.524 415.698 293.456 415.995 293.456 416.346V429ZM295.776 417.377V419.568H288.611V417.377H295.776ZM309.161 423.425H305.176V420.911H309.161C309.777 420.911 310.278 420.811 310.665 420.61C311.052 420.403 311.335 420.116 311.514 419.751C311.693 419.386 311.782 418.974 311.782 418.516C311.782 418.05 311.693 417.617 311.514 417.216C311.335 416.815 311.052 416.493 310.665 416.249C310.278 416.006 309.777 415.884 309.161 415.884H306.293V429H303.07V413.359H309.161C310.386 413.359 311.435 413.581 312.309 414.025C313.189 414.462 313.863 415.067 314.328 415.841C314.794 416.614 315.026 417.499 315.026 418.494C315.026 419.504 314.794 420.378 314.328 421.115C313.863 421.853 313.189 422.422 312.309 422.823C311.435 423.224 310.386 423.425 309.161 423.425ZM317.25 413.359H323.083C324.279 413.359 325.307 413.538 326.166 413.896C327.033 414.255 327.699 414.785 328.164 415.486C328.63 416.188 328.862 417.051 328.862 418.075C328.862 418.913 328.719 419.633 328.433 420.234C328.153 420.829 327.756 421.326 327.24 421.728C326.732 422.121 326.134 422.437 325.446 422.673L324.426 423.21H319.355L319.334 420.696H323.104C323.67 420.696 324.139 420.596 324.512 420.396C324.884 420.195 325.163 419.916 325.35 419.558C325.543 419.2 325.64 418.784 325.64 418.312C325.64 417.81 325.547 417.377 325.36 417.012C325.174 416.646 324.891 416.367 324.512 416.174C324.132 415.98 323.656 415.884 323.083 415.884H320.473V429H317.25V413.359ZM325.994 429L322.428 422.028L325.833 422.007L329.442 428.85V429H325.994ZM63.5195 453.136H59.502L59.4805 450.923H62.8535C63.4479 450.923 63.9349 450.848 64.3145 450.697C64.694 450.54 64.9769 450.314 65.1631 450.021C65.3564 449.72 65.4531 449.354 65.4531 448.925C65.4531 448.438 65.36 448.044 65.1738 447.743C64.9948 447.442 64.7119 447.224 64.3252 447.088C63.9456 446.952 63.4551 446.884 62.8535 446.884H60.6191V460H57.3965V444.359H62.8535C63.763 444.359 64.5758 444.445 65.292 444.617C66.0153 444.789 66.6276 445.05 67.1289 445.401C67.6302 445.752 68.0133 446.196 68.2783 446.733C68.5433 447.263 68.6758 447.894 68.6758 448.624C68.6758 449.269 68.529 449.863 68.2354 450.407C67.9489 450.951 67.4941 451.396 66.8711 451.739C66.2552 452.083 65.4495 452.273 64.4541 452.309L63.5195 453.136ZM63.3799 460H58.6211L59.8779 457.486H63.3799C63.9456 457.486 64.4076 457.397 64.7656 457.218C65.1237 457.032 65.3887 456.781 65.5605 456.466C65.7324 456.151 65.8184 455.789 65.8184 455.381C65.8184 454.923 65.7396 454.525 65.582 454.188C65.4316 453.852 65.1882 453.594 64.8516 453.415C64.515 453.229 64.071 453.136 63.5195 453.136H60.415L60.4365 450.923H64.3037L65.0449 451.793C65.9974 451.779 66.7637 451.947 67.3438 452.298C67.931 452.642 68.3571 453.089 68.6221 453.641C68.8942 454.192 69.0303 454.783 69.0303 455.413C69.0303 456.416 68.8118 457.261 68.375 457.948C67.9382 458.629 67.2972 459.141 66.4521 459.484C65.6143 459.828 64.5902 460 63.3799 460ZM77.5273 457.379V452.201C77.5273 451.829 77.4665 451.51 77.3447 451.245C77.223 450.973 77.0332 450.762 76.7754 450.611C76.5247 450.461 76.1989 450.386 75.7979 450.386C75.4541 450.386 75.1569 450.447 74.9062 450.568C74.6556 450.683 74.4622 450.851 74.3262 451.073C74.1901 451.288 74.1221 451.542 74.1221 451.836H71.0283C71.0283 451.342 71.1429 450.873 71.3721 450.429C71.6012 449.985 71.9342 449.594 72.3711 449.258C72.8079 448.914 73.3271 448.646 73.9287 448.452C74.5374 448.259 75.2178 448.162 75.9697 448.162C76.8721 448.162 77.6742 448.312 78.376 448.613C79.0778 448.914 79.6292 449.365 80.0303 449.967C80.4385 450.568 80.6426 451.32 80.6426 452.223V457.196C80.6426 457.834 80.682 458.356 80.7607 458.765C80.8395 459.166 80.9541 459.517 81.1045 459.817V460H77.9785C77.8281 459.685 77.7135 459.291 77.6348 458.818C77.5632 458.339 77.5273 457.859 77.5273 457.379ZM77.9355 452.921L77.957 454.672H76.2275C75.8193 454.672 75.4648 454.718 75.1641 454.812C74.8633 454.905 74.6162 455.037 74.4229 455.209C74.2295 455.374 74.0863 455.567 73.9932 455.789C73.9072 456.011 73.8643 456.255 73.8643 456.52C73.8643 456.785 73.9251 457.024 74.0469 457.239C74.1686 457.447 74.3441 457.612 74.5732 457.733C74.8024 457.848 75.071 457.905 75.3789 457.905C75.8444 457.905 76.249 457.812 76.5928 457.626C76.9365 457.44 77.2015 457.211 77.3877 456.938C77.5811 456.666 77.6813 456.409 77.6885 456.165L78.5049 457.476C78.3903 457.769 78.2327 458.074 78.0322 458.389C77.8389 458.704 77.5918 459.001 77.291 459.28C76.9902 459.552 76.6286 459.778 76.2061 459.957C75.7835 460.129 75.2822 460.215 74.7021 460.215C73.9645 460.215 73.2949 460.068 72.6934 459.774C72.099 459.474 71.6263 459.062 71.2754 458.539C70.9316 458.009 70.7598 457.408 70.7598 456.734C70.7598 456.126 70.8743 455.585 71.1035 455.112C71.3327 454.64 71.6693 454.242 72.1133 453.92C72.5645 453.59 73.1266 453.343 73.7998 453.179C74.473 453.007 75.2536 452.921 76.1416 452.921H77.9355ZM88.7207 448.377V450.568H81.9531V448.377H88.7207ZM83.6289 445.509H86.7227V456.498C86.7227 456.835 86.7656 457.092 86.8516 457.271C86.9447 457.451 87.0807 457.576 87.2598 457.647C87.4388 457.712 87.6644 457.744 87.9365 457.744C88.1299 457.744 88.3018 457.737 88.4521 457.723C88.6097 457.701 88.7422 457.68 88.8496 457.658L88.8604 459.936C88.5954 460.021 88.3089 460.09 88.001 460.14C87.693 460.19 87.3529 460.215 86.9805 460.215C86.3001 460.215 85.7057 460.104 85.1973 459.882C84.696 459.653 84.3092 459.287 84.0371 458.786C83.765 458.285 83.6289 457.626 83.6289 456.81V445.509ZM95.2842 457.798C95.6637 457.798 96.0003 457.726 96.2939 457.583C96.5876 457.433 96.8167 457.225 96.9814 456.96C97.1533 456.688 97.2428 456.369 97.25 456.004H100.161C100.154 456.82 99.9355 457.547 99.5059 458.185C99.0762 458.815 98.4997 459.312 97.7764 459.678C97.0531 460.036 96.2438 460.215 95.3486 460.215C94.4463 460.215 93.6585 460.064 92.9854 459.764C92.3193 459.463 91.7643 459.048 91.3203 458.518C90.8763 457.98 90.5433 457.357 90.3213 456.648C90.0993 455.932 89.9883 455.166 89.9883 454.35V454.038C89.9883 453.215 90.0993 452.448 90.3213 451.739C90.5433 451.023 90.8763 450.4 91.3203 449.87C91.7643 449.333 92.3193 448.914 92.9854 448.613C93.6514 448.312 94.432 448.162 95.3271 448.162C96.2796 448.162 97.1139 448.345 97.8301 448.71C98.5534 449.075 99.1191 449.598 99.5273 450.278C99.9427 450.951 100.154 451.75 100.161 452.674H97.25C97.2428 452.287 97.1605 451.936 97.0029 451.621C96.8525 451.306 96.6305 451.055 96.3369 450.869C96.0505 450.676 95.696 450.579 95.2734 450.579C94.8223 450.579 94.4535 450.676 94.167 450.869C93.8805 451.055 93.6585 451.313 93.501 451.643C93.3434 451.965 93.2324 452.334 93.168 452.749C93.1107 453.157 93.082 453.587 93.082 454.038V454.35C93.082 454.801 93.1107 455.234 93.168 455.649C93.2253 456.065 93.3327 456.434 93.4902 456.756C93.6549 457.078 93.8805 457.332 94.167 457.519C94.4535 457.705 94.8258 457.798 95.2842 457.798ZM104.974 443.5V460H101.88V443.5H104.974ZM104.533 453.78H103.685C103.692 452.971 103.799 452.226 104.007 451.546C104.215 450.858 104.512 450.264 104.898 449.763C105.285 449.254 105.747 448.86 106.284 448.581C106.828 448.302 107.43 448.162 108.089 448.162C108.662 448.162 109.181 448.244 109.646 448.409C110.119 448.567 110.524 448.825 110.86 449.183C111.204 449.534 111.469 449.995 111.655 450.568C111.841 451.141 111.935 451.836 111.935 452.652V460H108.819V452.631C108.819 452.115 108.744 451.711 108.594 451.417C108.451 451.116 108.239 450.905 107.96 450.783C107.688 450.654 107.351 450.59 106.95 450.59C106.506 450.59 106.127 450.672 105.812 450.837C105.504 451.002 105.257 451.231 105.07 451.524C104.884 451.811 104.748 452.147 104.662 452.534C104.576 452.921 104.533 453.336 104.533 453.78ZM120.872 460L123.601 444.359H125.545L122.816 460H120.872ZM124.9 460L127.64 444.359H129.584L126.845 460H124.9ZM131.185 450.644H120.002V448.828H131.185V450.644ZM130.368 455.596H119.196V453.791H130.368V455.596ZM143.377 457.583V460H132.678V457.938L137.737 452.513C138.246 451.947 138.647 451.449 138.94 451.02C139.234 450.583 139.445 450.192 139.574 449.849C139.71 449.498 139.778 449.165 139.778 448.85C139.778 448.377 139.7 447.972 139.542 447.636C139.384 447.292 139.152 447.027 138.844 446.841C138.543 446.655 138.171 446.562 137.727 446.562C137.254 446.562 136.846 446.676 136.502 446.905C136.165 447.134 135.908 447.453 135.729 447.861C135.557 448.27 135.471 448.731 135.471 449.247H132.366C132.366 448.316 132.588 447.464 133.032 446.69C133.476 445.91 134.103 445.29 134.912 444.832C135.721 444.367 136.681 444.134 137.791 444.134C138.887 444.134 139.811 444.313 140.562 444.671C141.322 445.022 141.895 445.53 142.281 446.196C142.675 446.855 142.872 447.643 142.872 448.56C142.872 449.075 142.79 449.58 142.625 450.074C142.46 450.561 142.224 451.048 141.916 451.535C141.615 452.015 141.25 452.502 140.82 452.996C140.391 453.49 139.914 454.002 139.392 454.532L136.674 457.583H143.377ZM151.058 453.877V453.641C151.058 452.13 151.215 450.758 151.53 449.526C151.853 448.295 152.275 447.213 152.798 446.282C153.328 445.344 153.904 444.567 154.527 443.951C155.15 443.335 155.77 442.891 156.386 442.619L156.977 444.252C156.568 444.553 156.167 444.968 155.773 445.498C155.38 446.021 155.021 446.665 154.699 447.432C154.384 448.191 154.13 449.086 153.937 450.117C153.743 451.141 153.646 452.309 153.646 453.619V453.898C153.646 455.209 153.743 456.38 153.937 457.411C154.13 458.435 154.384 459.33 154.699 460.097C155.021 460.87 155.38 461.522 155.773 462.052C156.167 462.582 156.568 463.001 156.977 463.309L156.386 464.898C155.77 464.626 155.15 464.182 154.527 463.566C153.904 462.958 153.328 462.184 152.798 461.246C152.275 460.315 151.853 459.234 151.53 458.002C151.215 456.763 151.058 455.388 151.058 453.877ZM167.439 444.359H170.651V454.693C170.651 455.896 170.394 456.91 169.878 457.733C169.369 458.557 168.664 459.176 167.762 459.592C166.867 460.007 165.835 460.215 164.668 460.215C163.501 460.215 162.462 460.007 161.553 459.592C160.65 459.176 159.941 458.557 159.426 457.733C158.917 456.91 158.663 455.896 158.663 454.693V444.359H161.886V454.693C161.886 455.395 161.997 455.968 162.219 456.412C162.441 456.856 162.759 457.182 163.175 457.39C163.597 457.597 164.095 457.701 164.668 457.701C165.255 457.701 165.753 457.597 166.161 457.39C166.576 457.182 166.892 456.856 167.106 456.412C167.328 455.968 167.439 455.395 167.439 454.693V444.359ZM176.141 450.858V460H173.047V448.377H175.947L176.141 450.858ZM175.689 453.78H174.852C174.852 452.921 174.963 452.147 175.185 451.46C175.407 450.765 175.718 450.174 176.119 449.688C176.52 449.193 176.996 448.817 177.548 448.56C178.106 448.295 178.729 448.162 179.417 448.162C179.961 448.162 180.459 448.241 180.91 448.398C181.361 448.556 181.748 448.807 182.07 449.15C182.4 449.494 182.65 449.949 182.822 450.515C183.001 451.08 183.091 451.771 183.091 452.588V460H179.976V452.577C179.976 452.062 179.904 451.66 179.761 451.374C179.618 451.088 179.406 450.887 179.127 450.772C178.855 450.651 178.518 450.59 178.117 450.59C177.702 450.59 177.34 450.672 177.032 450.837C176.731 451.002 176.481 451.231 176.28 451.524C176.087 451.811 175.94 452.147 175.84 452.534C175.74 452.921 175.689 453.336 175.689 453.78ZM191.137 448.377V450.568H184.369V448.377H191.137ZM186.045 445.509H189.139V456.498C189.139 456.835 189.182 457.092 189.268 457.271C189.361 457.451 189.497 457.576 189.676 457.647C189.855 457.712 190.08 457.744 190.353 457.744C190.546 457.744 190.718 457.737 190.868 457.723C191.026 457.701 191.158 457.68 191.266 457.658L191.276 459.936C191.011 460.021 190.725 460.09 190.417 460.14C190.109 460.19 189.769 460.215 189.396 460.215C188.716 460.215 188.122 460.104 187.613 459.882C187.112 459.653 186.725 459.287 186.453 458.786C186.181 458.285 186.045 457.626 186.045 456.81V445.509ZM199.773 457.218V448.377H202.867V460H199.956L199.773 457.218ZM200.117 454.833L201.03 454.812C201.03 455.585 200.941 456.305 200.762 456.971C200.583 457.63 200.314 458.202 199.956 458.689C199.598 459.169 199.147 459.545 198.603 459.817C198.058 460.082 197.417 460.215 196.68 460.215C196.114 460.215 195.591 460.136 195.111 459.979C194.639 459.814 194.23 459.56 193.887 459.216C193.55 458.865 193.285 458.417 193.092 457.873C192.906 457.322 192.812 456.659 192.812 455.886V448.377H195.906V455.907C195.906 456.251 195.946 456.541 196.024 456.777C196.11 457.014 196.229 457.207 196.379 457.357C196.529 457.508 196.705 457.615 196.905 457.68C197.113 457.744 197.342 457.776 197.593 457.776C198.23 457.776 198.731 457.647 199.097 457.39C199.469 457.132 199.73 456.781 199.881 456.337C200.038 455.886 200.117 455.384 200.117 454.833ZM208.324 443.489V460H205.23V443.489H208.324ZM215.65 448.377L210.602 454.135L207.895 456.874L206.767 454.64L208.915 451.911L211.934 448.377H215.65ZM212.438 460L209.001 454.629L211.139 452.76L216.005 460H212.438ZM224.126 444.359H226.854L230.872 455.843L234.89 444.359H237.618L231.968 460H229.776L224.126 444.359ZM222.654 444.359H225.372L225.866 455.553V460H222.654V444.359ZM236.372 444.359H239.101V460H235.878V455.553L236.372 444.359ZM248.006 457.379V452.201C248.006 451.829 247.945 451.51 247.823 451.245C247.701 450.973 247.512 450.762 247.254 450.611C247.003 450.461 246.677 450.386 246.276 450.386C245.933 450.386 245.635 450.447 245.385 450.568C245.134 450.683 244.941 450.851 244.805 451.073C244.669 451.288 244.601 451.542 244.601 451.836H241.507C241.507 451.342 241.621 450.873 241.851 450.429C242.08 449.985 242.413 449.594 242.85 449.258C243.286 448.914 243.806 448.646 244.407 448.452C245.016 448.259 245.696 448.162 246.448 448.162C247.351 448.162 248.153 448.312 248.854 448.613C249.556 448.914 250.108 449.365 250.509 449.967C250.917 450.568 251.121 451.32 251.121 452.223V457.196C251.121 457.834 251.16 458.356 251.239 458.765C251.318 459.166 251.433 459.517 251.583 459.817V460H248.457C248.307 459.685 248.192 459.291 248.113 458.818C248.042 458.339 248.006 457.859 248.006 457.379ZM248.414 452.921L248.436 454.672H246.706C246.298 454.672 245.943 454.718 245.643 454.812C245.342 454.905 245.095 455.037 244.901 455.209C244.708 455.374 244.565 455.567 244.472 455.789C244.386 456.011 244.343 456.255 244.343 456.52C244.343 456.785 244.404 457.024 244.525 457.239C244.647 457.447 244.823 457.612 245.052 457.733C245.281 457.848 245.549 457.905 245.857 457.905C246.323 457.905 246.728 457.812 247.071 457.626C247.415 457.44 247.68 457.211 247.866 456.938C248.06 456.666 248.16 456.409 248.167 456.165L248.983 457.476C248.869 457.769 248.711 458.074 248.511 458.389C248.317 458.704 248.07 459.001 247.77 459.28C247.469 459.552 247.107 459.778 246.685 459.957C246.262 460.129 245.761 460.215 245.181 460.215C244.443 460.215 243.773 460.068 243.172 459.774C242.577 459.474 242.105 459.062 241.754 458.539C241.41 458.009 241.238 457.408 241.238 456.734C241.238 456.126 241.353 455.585 241.582 455.112C241.811 454.64 242.148 454.242 242.592 453.92C243.043 453.59 243.605 453.343 244.278 453.179C244.951 453.007 245.732 452.921 246.62 452.921H248.414ZM256.524 443.5V460H253.431V443.5H256.524ZM256.084 453.78H255.235C255.243 452.971 255.35 452.226 255.558 451.546C255.765 450.858 256.062 450.264 256.449 449.763C256.836 449.254 257.298 448.86 257.835 448.581C258.379 448.302 258.981 448.162 259.64 448.162C260.213 448.162 260.732 448.244 261.197 448.409C261.67 448.567 262.075 448.825 262.411 449.183C262.755 449.534 263.02 449.995 263.206 450.568C263.392 451.141 263.485 451.836 263.485 452.652V460H260.37V452.631C260.37 452.115 260.295 451.711 260.145 451.417C260.001 451.116 259.79 450.905 259.511 450.783C259.239 450.654 258.902 450.59 258.501 450.59C258.057 450.59 257.677 450.672 257.362 450.837C257.054 451.002 256.807 451.231 256.621 451.524C256.435 451.811 256.299 452.147 256.213 452.534C256.127 452.921 256.084 453.336 256.084 453.78ZM272.111 457.379V452.201C272.111 451.829 272.05 451.51 271.929 451.245C271.807 450.973 271.617 450.762 271.359 450.611C271.109 450.461 270.783 450.386 270.382 450.386C270.038 450.386 269.741 450.447 269.49 450.568C269.24 450.683 269.046 450.851 268.91 451.073C268.774 451.288 268.706 451.542 268.706 451.836H265.612C265.612 451.342 265.727 450.873 265.956 450.429C266.185 449.985 266.518 449.594 266.955 449.258C267.392 448.914 267.911 448.646 268.513 448.452C269.121 448.259 269.802 448.162 270.554 448.162C271.456 448.162 272.258 448.312 272.96 448.613C273.662 448.914 274.213 449.365 274.614 449.967C275.022 450.568 275.227 451.32 275.227 452.223V457.196C275.227 457.834 275.266 458.356 275.345 458.765C275.424 459.166 275.538 459.517 275.688 459.817V460H272.562C272.412 459.685 272.298 459.291 272.219 458.818C272.147 458.339 272.111 457.859 272.111 457.379ZM272.52 452.921L272.541 454.672H270.812C270.403 454.672 270.049 454.718 269.748 454.812C269.447 454.905 269.2 455.037 269.007 455.209C268.813 455.374 268.67 455.567 268.577 455.789C268.491 456.011 268.448 456.255 268.448 456.52C268.448 456.785 268.509 457.024 268.631 457.239C268.753 457.447 268.928 457.612 269.157 457.733C269.386 457.848 269.655 457.905 269.963 457.905C270.428 457.905 270.833 457.812 271.177 457.626C271.521 457.44 271.785 457.211 271.972 456.938C272.165 456.666 272.265 456.409 272.272 456.165L273.089 457.476C272.974 457.769 272.817 458.074 272.616 458.389C272.423 458.704 272.176 459.001 271.875 459.28C271.574 459.552 271.213 459.778 270.79 459.957C270.368 460.129 269.866 460.215 269.286 460.215C268.549 460.215 267.879 460.068 267.277 459.774C266.683 459.474 266.21 459.062 265.859 458.539C265.516 458.009 265.344 457.408 265.344 456.734C265.344 456.126 265.458 455.585 265.688 455.112C265.917 454.64 266.253 454.242 266.697 453.92C267.148 453.59 267.711 453.343 268.384 453.179C269.057 453.007 269.838 452.921 270.726 452.921H272.52ZM283.896 456.788C283.896 456.566 283.831 456.366 283.702 456.187C283.573 456.007 283.333 455.843 282.982 455.692C282.639 455.535 282.141 455.392 281.489 455.263C280.902 455.134 280.354 454.973 279.846 454.779C279.344 454.579 278.908 454.339 278.535 454.06C278.17 453.78 277.883 453.451 277.676 453.071C277.468 452.685 277.364 452.244 277.364 451.75C277.364 451.263 277.468 450.805 277.676 450.375C277.891 449.945 278.195 449.566 278.589 449.236C278.99 448.9 279.477 448.638 280.05 448.452C280.63 448.259 281.282 448.162 282.005 448.162C283.015 448.162 283.881 448.323 284.604 448.646C285.335 448.968 285.894 449.412 286.28 449.978C286.674 450.536 286.871 451.174 286.871 451.89H283.777C283.777 451.589 283.713 451.32 283.584 451.084C283.462 450.84 283.269 450.651 283.004 450.515C282.746 450.371 282.41 450.3 281.994 450.3C281.65 450.3 281.353 450.361 281.103 450.482C280.852 450.597 280.659 450.755 280.522 450.955C280.394 451.148 280.329 451.363 280.329 451.6C280.329 451.779 280.365 451.94 280.437 452.083C280.515 452.219 280.641 452.344 280.812 452.459C280.984 452.574 281.206 452.681 281.479 452.781C281.758 452.874 282.102 452.96 282.51 453.039C283.348 453.211 284.096 453.437 284.755 453.716C285.414 453.988 285.937 454.36 286.323 454.833C286.71 455.299 286.903 455.911 286.903 456.67C286.903 457.186 286.789 457.658 286.56 458.088C286.33 458.518 286.001 458.894 285.571 459.216C285.142 459.531 284.626 459.778 284.024 459.957C283.43 460.129 282.76 460.215 282.016 460.215C280.934 460.215 280.018 460.021 279.266 459.635C278.521 459.248 277.955 458.757 277.568 458.163C277.189 457.562 276.999 456.946 276.999 456.315H279.932C279.946 456.738 280.053 457.078 280.254 457.336C280.462 457.594 280.723 457.78 281.038 457.895C281.36 458.009 281.708 458.066 282.08 458.066C282.481 458.066 282.814 458.013 283.079 457.905C283.344 457.791 283.545 457.64 283.681 457.454C283.824 457.261 283.896 457.039 283.896 456.788ZM292.178 448.377V460H289.073V448.377H292.178ZM288.88 445.348C288.88 444.896 289.037 444.524 289.353 444.23C289.668 443.937 290.09 443.79 290.62 443.79C291.143 443.79 291.562 443.937 291.877 444.23C292.199 444.524 292.36 444.896 292.36 445.348C292.36 445.799 292.199 446.171 291.877 446.465C291.562 446.758 291.143 446.905 290.62 446.905C290.09 446.905 289.668 446.758 289.353 446.465C289.037 446.171 288.88 445.799 288.88 445.348ZM301.019 456.788C301.019 456.566 300.954 456.366 300.825 456.187C300.696 456.007 300.456 455.843 300.105 455.692C299.762 455.535 299.264 455.392 298.612 455.263C298.025 455.134 297.477 454.973 296.969 454.779C296.467 454.579 296.031 454.339 295.658 454.06C295.293 453.78 295.007 453.451 294.799 453.071C294.591 452.685 294.487 452.244 294.487 451.75C294.487 451.263 294.591 450.805 294.799 450.375C295.014 449.945 295.318 449.566 295.712 449.236C296.113 448.9 296.6 448.638 297.173 448.452C297.753 448.259 298.405 448.162 299.128 448.162C300.138 448.162 301.004 448.323 301.728 448.646C302.458 448.968 303.017 449.412 303.403 449.978C303.797 450.536 303.994 451.174 303.994 451.89H300.9C300.9 451.589 300.836 451.32 300.707 451.084C300.585 450.84 300.392 450.651 300.127 450.515C299.869 450.371 299.533 450.3 299.117 450.3C298.773 450.3 298.476 450.361 298.226 450.482C297.975 450.597 297.782 450.755 297.646 450.955C297.517 451.148 297.452 451.363 297.452 451.6C297.452 451.779 297.488 451.94 297.56 452.083C297.638 452.219 297.764 452.344 297.936 452.459C298.107 452.574 298.329 452.681 298.602 452.781C298.881 452.874 299.225 452.96 299.633 453.039C300.471 453.211 301.219 453.437 301.878 453.716C302.537 453.988 303.06 454.36 303.446 454.833C303.833 455.299 304.026 455.911 304.026 456.67C304.026 457.186 303.912 457.658 303.683 458.088C303.453 458.518 303.124 458.894 302.694 459.216C302.265 459.531 301.749 459.778 301.147 459.957C300.553 460.129 299.883 460.215 299.139 460.215C298.057 460.215 297.141 460.021 296.389 459.635C295.644 459.248 295.078 458.757 294.691 458.163C294.312 457.562 294.122 456.946 294.122 456.315H297.055C297.069 456.738 297.176 457.078 297.377 457.336C297.585 457.594 297.846 457.78 298.161 457.895C298.483 458.009 298.831 458.066 299.203 458.066C299.604 458.066 299.937 458.013 300.202 457.905C300.467 457.791 300.668 457.64 300.804 457.454C300.947 457.261 301.019 457.039 301.019 456.788ZM309.354 456.992L311.771 448.377H313.737L313.104 451.761L310.687 460H309.043L309.354 456.992ZM308.13 448.377L309.859 456.981L310.021 460H308.087L305.144 448.377H308.13ZM315.95 456.842L317.637 448.377H320.634L317.69 460H315.768L315.95 456.842ZM314.006 448.377L316.412 456.928L316.745 460H315.091L312.674 451.771L312.062 448.377H314.006ZM328.465 457.379V452.201C328.465 451.829 328.404 451.51 328.282 451.245C328.16 450.973 327.971 450.762 327.713 450.611C327.462 450.461 327.136 450.386 326.735 450.386C326.392 450.386 326.094 450.447 325.844 450.568C325.593 450.683 325.4 450.851 325.264 451.073C325.128 451.288 325.06 451.542 325.06 451.836H321.966C321.966 451.342 322.08 450.873 322.31 450.429C322.539 449.985 322.872 449.594 323.309 449.258C323.745 448.914 324.265 448.646 324.866 448.452C325.475 448.259 326.155 448.162 326.907 448.162C327.81 448.162 328.612 448.312 329.313 448.613C330.015 448.914 330.567 449.365 330.968 449.967C331.376 450.568 331.58 451.32 331.58 452.223V457.196C331.58 457.834 331.619 458.356 331.698 458.765C331.777 459.166 331.892 459.517 332.042 459.817V460H328.916C328.766 459.685 328.651 459.291 328.572 458.818C328.501 458.339 328.465 457.859 328.465 457.379ZM328.873 452.921L328.895 454.672H327.165C326.757 454.672 326.402 454.718 326.102 454.812C325.801 454.905 325.554 455.037 325.36 455.209C325.167 455.374 325.024 455.567 324.931 455.789C324.845 456.011 324.802 456.255 324.802 456.52C324.802 456.785 324.863 457.024 324.984 457.239C325.106 457.447 325.282 457.612 325.511 457.733C325.74 457.848 326.008 457.905 326.316 457.905C326.782 457.905 327.187 457.812 327.53 457.626C327.874 457.44 328.139 457.211 328.325 456.938C328.519 456.666 328.619 456.409 328.626 456.165L329.442 457.476C329.328 457.769 329.17 458.074 328.97 458.389C328.776 458.704 328.529 459.001 328.229 459.28C327.928 459.552 327.566 459.778 327.144 459.957C326.721 460.129 326.22 460.215 325.64 460.215C324.902 460.215 324.232 460.068 323.631 459.774C323.036 459.474 322.564 459.062 322.213 458.539C321.869 458.009 321.697 457.408 321.697 456.734C321.697 456.126 321.812 455.585 322.041 455.112C322.27 454.64 322.607 454.242 323.051 453.92C323.502 453.59 324.064 453.343 324.737 453.179C325.41 453.007 326.191 452.921 327.079 452.921H328.873ZM339.282 453.641V453.877C339.282 455.338 339.118 456.684 338.788 457.916C338.459 459.141 338.022 460.226 337.478 461.171C336.94 462.123 336.35 462.915 335.705 463.545C335.068 464.175 334.43 464.626 333.793 464.898L333.191 463.309C333.6 463.008 333.997 462.592 334.384 462.062C334.778 461.533 335.136 460.881 335.458 460.107C335.78 459.341 336.035 458.442 336.221 457.411C336.414 456.38 336.511 455.209 336.511 453.898V453.619C336.511 452.309 336.414 451.138 336.221 450.106C336.027 449.075 335.766 448.176 335.437 447.41C335.114 446.637 334.756 445.989 334.362 445.466C333.976 444.936 333.585 444.521 333.191 444.22L333.793 442.619C334.43 442.891 335.068 443.346 335.705 443.983C336.35 444.614 336.94 445.401 337.478 446.347C338.022 447.292 338.459 448.381 338.788 449.612C339.118 450.837 339.282 452.18 339.282 453.641Z" fill="#111111"/>
<path d="M83.5806 487.288V488.914C83.5806 489.788 83.5024 490.525 83.3462 491.126C83.1899 491.727 82.9653 492.21 82.6724 492.576C82.3794 492.942 82.0254 493.208 81.6104 493.375C81.2002 493.536 80.7363 493.616 80.2188 493.616C79.8086 493.616 79.4302 493.565 79.0835 493.462C78.7368 493.36 78.4243 493.196 78.146 492.972C77.8726 492.742 77.6382 492.444 77.4429 492.078C77.2476 491.712 77.0986 491.268 76.9961 490.745C76.8936 490.223 76.8423 489.612 76.8423 488.914V487.288C76.8423 486.414 76.9204 485.682 77.0767 485.091C77.2378 484.5 77.4648 484.026 77.7578 483.67C78.0508 483.309 78.4023 483.05 78.8125 482.894C79.2275 482.737 79.6914 482.659 80.2041 482.659C80.6191 482.659 81 482.71 81.3467 482.813C81.6982 482.911 82.0107 483.069 82.2842 483.289C82.5576 483.504 82.7896 483.792 82.98 484.153C83.1753 484.51 83.3242 484.947 83.4268 485.464C83.5293 485.982 83.5806 486.59 83.5806 487.288ZM82.2183 489.134V487.061C82.2183 486.583 82.189 486.163 82.1304 485.801C82.0767 485.435 81.9961 485.123 81.8887 484.864C81.7812 484.605 81.6445 484.395 81.4785 484.234C81.3174 484.073 81.1294 483.956 80.9146 483.882C80.7046 483.804 80.4678 483.765 80.2041 483.765C79.8818 483.765 79.5962 483.826 79.3472 483.948C79.0981 484.065 78.8882 484.253 78.7173 484.512C78.5513 484.771 78.4243 485.11 78.3364 485.53C78.2485 485.95 78.2046 486.46 78.2046 487.061V489.134C78.2046 489.612 78.2314 490.035 78.2852 490.401C78.3438 490.767 78.4292 491.084 78.5415 491.353C78.6538 491.617 78.7905 491.834 78.9517 492.005C79.1128 492.176 79.2983 492.303 79.5083 492.386C79.7231 492.464 79.96 492.503 80.2188 492.503C80.5508 492.503 80.8413 492.439 81.0903 492.312C81.3394 492.186 81.5469 491.988 81.7129 491.719C81.8838 491.446 82.0107 491.097 82.0938 490.672C82.1768 490.242 82.2183 489.729 82.2183 489.134ZM87.0376 488.394L85.9536 488.116L86.4883 482.806H91.9595V484.058H87.6382L87.3159 486.958C87.5112 486.846 87.7578 486.741 88.0557 486.644C88.3584 486.546 88.7051 486.497 89.0957 486.497C89.5889 486.497 90.0308 486.583 90.4214 486.753C90.812 486.919 91.144 487.159 91.4175 487.471C91.6958 487.784 91.9082 488.16 92.0547 488.599C92.2012 489.039 92.2744 489.529 92.2744 490.071C92.2744 490.584 92.2036 491.055 92.062 491.485C91.9253 491.915 91.7178 492.291 91.4395 492.613C91.1611 492.93 90.8096 493.177 90.3848 493.353C89.9648 493.528 89.4692 493.616 88.8979 493.616C88.4683 493.616 88.0605 493.558 87.6748 493.44C87.2939 493.318 86.9521 493.135 86.6494 492.891C86.3516 492.642 86.1074 492.334 85.917 491.968C85.7314 491.597 85.6143 491.163 85.5654 490.665H86.8545C86.9131 491.065 87.0303 491.402 87.2061 491.675C87.3818 491.949 87.6113 492.156 87.8945 492.298C88.1826 492.435 88.5171 492.503 88.8979 492.503C89.2202 492.503 89.5059 492.447 89.7549 492.334C90.0039 492.222 90.2139 492.061 90.3848 491.851C90.5557 491.641 90.6851 491.387 90.7729 491.089C90.8657 490.792 90.9121 490.457 90.9121 490.086C90.9121 489.749 90.8657 489.437 90.7729 489.148C90.6802 488.86 90.541 488.609 90.3555 488.394C90.1748 488.179 89.9526 488.013 89.689 487.896C89.4253 487.774 89.1226 487.713 88.7808 487.713C88.3267 487.713 87.9824 487.774 87.748 487.896C87.5186 488.018 87.2817 488.184 87.0376 488.394ZM96.7275 488.379V489.493H93.1533V488.379H96.7275ZM102.206 483.75L98.6758 493.47H97.2329L101.298 482.806H102.228L102.206 483.75ZM105.165 493.47L101.627 483.75L101.605 482.806H102.536L106.615 493.47H105.165ZM104.982 489.522V490.679H98.9907V489.522H104.982ZM112.599 491.639V485.545H113.961V493.47H112.665L112.599 491.639ZM112.855 489.969L113.419 489.954C113.419 490.481 113.363 490.97 113.251 491.419C113.144 491.863 112.968 492.249 112.724 492.576C112.479 492.903 112.16 493.16 111.764 493.345C111.369 493.526 110.888 493.616 110.321 493.616C109.936 493.616 109.582 493.56 109.259 493.448C108.942 493.335 108.668 493.162 108.439 492.928C108.209 492.693 108.031 492.388 107.904 492.012C107.782 491.636 107.721 491.185 107.721 490.657V485.545H109.076V490.672C109.076 491.028 109.115 491.324 109.193 491.558C109.276 491.788 109.386 491.971 109.523 492.107C109.665 492.239 109.821 492.332 109.992 492.386C110.167 492.439 110.348 492.466 110.534 492.466C111.11 492.466 111.566 492.356 111.903 492.137C112.24 491.912 112.482 491.612 112.628 491.236C112.78 490.855 112.855 490.433 112.855 489.969ZM121.161 485.545H122.392V493.301C122.392 494 122.25 494.595 121.967 495.088C121.684 495.582 121.288 495.955 120.78 496.209C120.277 496.468 119.696 496.597 119.037 496.597C118.764 496.597 118.441 496.553 118.07 496.465C117.704 496.382 117.343 496.238 116.986 496.033C116.635 495.833 116.339 495.562 116.1 495.22L116.811 494.415C117.143 494.815 117.489 495.093 117.851 495.25C118.217 495.406 118.578 495.484 118.935 495.484C119.364 495.484 119.735 495.403 120.048 495.242C120.36 495.081 120.602 494.842 120.773 494.524C120.949 494.212 121.037 493.826 121.037 493.367V487.288L121.161 485.545ZM115.705 489.595V489.441C115.705 488.836 115.775 488.287 115.917 487.793C116.063 487.295 116.271 486.868 116.54 486.512C116.813 486.155 117.143 485.882 117.528 485.691C117.914 485.496 118.349 485.398 118.832 485.398C119.33 485.398 119.765 485.486 120.136 485.662C120.512 485.833 120.829 486.084 121.088 486.417C121.352 486.744 121.559 487.139 121.71 487.603C121.862 488.067 121.967 488.592 122.025 489.178V489.852C121.972 490.433 121.867 490.955 121.71 491.419C121.559 491.883 121.352 492.278 121.088 492.605C120.829 492.933 120.512 493.184 120.136 493.36C119.76 493.531 119.32 493.616 118.817 493.616C118.344 493.616 117.914 493.516 117.528 493.316C117.147 493.116 116.82 492.835 116.547 492.474C116.273 492.112 116.063 491.688 115.917 491.199C115.775 490.706 115.705 490.171 115.705 489.595ZM117.06 489.441V489.595C117.06 489.991 117.099 490.362 117.177 490.708C117.26 491.055 117.384 491.36 117.55 491.624C117.721 491.888 117.938 492.095 118.202 492.247C118.466 492.393 118.781 492.466 119.147 492.466C119.596 492.466 119.967 492.371 120.26 492.181C120.553 491.99 120.785 491.739 120.956 491.426C121.132 491.114 121.269 490.774 121.366 490.408V488.643C121.312 488.375 121.229 488.116 121.117 487.867C121.01 487.613 120.868 487.388 120.692 487.193C120.521 486.993 120.309 486.834 120.055 486.717C119.801 486.6 119.503 486.541 119.162 486.541C118.791 486.541 118.471 486.619 118.202 486.775C117.938 486.927 117.721 487.137 117.55 487.405C117.384 487.669 117.26 487.977 117.177 488.328C117.099 488.675 117.06 489.046 117.06 489.441ZM127.27 488.379V489.493H123.695V488.379H127.27ZM135.436 492.356V493.47H128.456V492.496L131.95 488.606C132.379 488.128 132.711 487.723 132.946 487.391C133.185 487.054 133.351 486.753 133.444 486.49C133.542 486.221 133.59 485.948 133.59 485.669C133.59 485.318 133.517 485 133.371 484.717C133.229 484.429 133.019 484.2 132.741 484.029C132.462 483.858 132.125 483.772 131.73 483.772C131.256 483.772 130.861 483.865 130.543 484.051C130.231 484.231 129.997 484.485 129.84 484.812C129.684 485.14 129.606 485.516 129.606 485.94H128.251C128.251 485.34 128.383 484.791 128.646 484.292C128.91 483.794 129.301 483.399 129.818 483.106C130.336 482.808 130.973 482.659 131.73 482.659C132.404 482.659 132.98 482.779 133.458 483.018C133.937 483.252 134.303 483.584 134.557 484.014C134.816 484.439 134.945 484.937 134.945 485.508C134.945 485.821 134.892 486.138 134.784 486.46C134.682 486.778 134.538 487.095 134.352 487.413C134.171 487.73 133.959 488.042 133.715 488.35C133.476 488.658 133.219 488.96 132.946 489.258L130.089 492.356H135.436ZM143.581 487.288V488.914C143.581 489.788 143.502 490.525 143.346 491.126C143.19 491.727 142.965 492.21 142.672 492.576C142.379 492.942 142.025 493.208 141.61 493.375C141.2 493.536 140.736 493.616 140.219 493.616C139.809 493.616 139.43 493.565 139.083 493.462C138.737 493.36 138.424 493.196 138.146 492.972C137.873 492.742 137.638 492.444 137.443 492.078C137.248 491.712 137.099 491.268 136.996 490.745C136.894 490.223 136.842 489.612 136.842 488.914V487.288C136.842 486.414 136.92 485.682 137.077 485.091C137.238 484.5 137.465 484.026 137.758 483.67C138.051 483.309 138.402 483.05 138.812 482.894C139.228 482.737 139.691 482.659 140.204 482.659C140.619 482.659 141 482.71 141.347 482.813C141.698 482.911 142.011 483.069 142.284 483.289C142.558 483.504 142.79 483.792 142.98 484.153C143.175 484.51 143.324 484.947 143.427 485.464C143.529 485.982 143.581 486.59 143.581 487.288ZM142.218 489.134V487.061C142.218 486.583 142.189 486.163 142.13 485.801C142.077 485.435 141.996 485.123 141.889 484.864C141.781 484.605 141.645 484.395 141.479 484.234C141.317 484.073 141.129 483.956 140.915 483.882C140.705 483.804 140.468 483.765 140.204 483.765C139.882 483.765 139.596 483.826 139.347 483.948C139.098 484.065 138.888 484.253 138.717 484.512C138.551 484.771 138.424 485.11 138.336 485.53C138.249 485.95 138.205 486.46 138.205 487.061V489.134C138.205 489.612 138.231 490.035 138.285 490.401C138.344 490.767 138.429 491.084 138.542 491.353C138.654 491.617 138.791 491.834 138.952 492.005C139.113 492.176 139.298 492.303 139.508 492.386C139.723 492.464 139.96 492.503 140.219 492.503C140.551 492.503 140.841 492.439 141.09 492.312C141.339 492.186 141.547 491.988 141.713 491.719C141.884 491.446 142.011 491.097 142.094 490.672C142.177 490.242 142.218 489.729 142.218 489.134ZM152.311 492.356V493.47H145.331V492.496L148.825 488.606C149.254 488.128 149.586 487.723 149.821 487.391C150.06 487.054 150.226 486.753 150.319 486.49C150.417 486.221 150.465 485.948 150.465 485.669C150.465 485.318 150.392 485 150.246 484.717C150.104 484.429 149.894 484.2 149.616 484.029C149.337 483.858 149 483.772 148.605 483.772C148.131 483.772 147.736 483.865 147.418 484.051C147.106 484.231 146.872 484.485 146.715 484.812C146.559 485.14 146.481 485.516 146.481 485.94H145.126C145.126 485.34 145.258 484.791 145.521 484.292C145.785 483.794 146.176 483.399 146.693 483.106C147.211 482.808 147.848 482.659 148.605 482.659C149.279 482.659 149.855 482.779 150.333 483.018C150.812 483.252 151.178 483.584 151.432 484.014C151.691 484.439 151.82 484.937 151.82 485.508C151.82 485.821 151.767 486.138 151.659 486.46C151.557 486.778 151.413 487.095 151.227 487.413C151.046 487.73 150.834 488.042 150.59 488.35C150.351 488.658 150.094 488.96 149.821 489.258L146.964 492.356H152.311ZM155.739 487.471H156.706C157.179 487.471 157.57 487.393 157.877 487.237C158.19 487.076 158.422 486.858 158.573 486.585C158.729 486.307 158.808 485.994 158.808 485.647C158.808 485.237 158.739 484.893 158.603 484.615C158.466 484.336 158.261 484.126 157.987 483.985C157.714 483.843 157.367 483.772 156.947 483.772C156.566 483.772 156.229 483.848 155.937 484C155.648 484.146 155.421 484.356 155.255 484.629C155.094 484.903 155.014 485.225 155.014 485.596H153.659C153.659 485.054 153.795 484.561 154.069 484.117C154.342 483.672 154.726 483.318 155.219 483.055C155.717 482.791 156.293 482.659 156.947 482.659C157.592 482.659 158.156 482.774 158.639 483.003C159.123 483.228 159.499 483.565 159.767 484.014C160.036 484.458 160.17 485.013 160.17 485.677C160.17 485.945 160.106 486.233 159.979 486.541C159.857 486.844 159.665 487.127 159.401 487.391C159.142 487.654 158.805 487.872 158.39 488.042C157.975 488.208 157.477 488.292 156.896 488.292H155.739V487.471ZM155.739 488.584V487.771H156.896C157.575 487.771 158.136 487.852 158.581 488.013C159.025 488.174 159.374 488.389 159.628 488.658C159.887 488.926 160.067 489.222 160.17 489.544C160.277 489.861 160.331 490.179 160.331 490.496C160.331 490.994 160.246 491.436 160.075 491.822C159.909 492.208 159.672 492.535 159.364 492.803C159.062 493.072 158.705 493.274 158.295 493.411C157.885 493.548 157.438 493.616 156.955 493.616C156.491 493.616 156.054 493.55 155.644 493.418C155.238 493.287 154.879 493.096 154.567 492.847C154.254 492.593 154.01 492.283 153.834 491.917C153.659 491.546 153.571 491.124 153.571 490.65H154.926C154.926 491.021 155.006 491.346 155.167 491.624C155.333 491.902 155.568 492.12 155.871 492.276C156.178 492.427 156.54 492.503 156.955 492.503C157.37 492.503 157.726 492.432 158.024 492.291C158.327 492.144 158.559 491.924 158.72 491.631C158.886 491.338 158.969 490.97 158.969 490.525C158.969 490.081 158.876 489.717 158.69 489.434C158.505 489.146 158.241 488.934 157.899 488.797C157.562 488.655 157.165 488.584 156.706 488.584H155.739ZM177.748 489.786C177.729 490.235 177.66 490.687 177.543 491.141C177.426 491.59 177.25 492.002 177.016 492.378C176.781 492.754 176.476 493.057 176.1 493.287C175.729 493.511 175.28 493.624 174.752 493.624C174.416 493.624 174.12 493.565 173.866 493.448C173.617 493.326 173.412 493.152 173.251 492.928C173.095 492.703 172.985 492.432 172.921 492.115C172.863 491.797 172.853 491.443 172.892 491.053L173.266 486.995H174.342L173.969 491.053C173.939 491.409 173.947 491.7 173.991 491.924C174.04 492.149 174.113 492.322 174.21 492.444C174.308 492.562 174.418 492.642 174.54 492.686C174.667 492.73 174.789 492.752 174.906 492.752C175.199 492.752 175.46 492.676 175.69 492.525C175.919 492.369 176.112 492.156 176.269 491.888C176.43 491.614 176.554 491.299 176.642 490.943C176.73 490.582 176.784 490.196 176.803 489.786C176.837 489.058 176.803 488.389 176.701 487.779C176.603 487.168 176.435 486.626 176.195 486.153C175.961 485.679 175.653 485.279 175.272 484.952C174.892 484.625 174.438 484.375 173.91 484.205C173.383 484.034 172.78 483.948 172.101 483.948C171.486 483.948 170.917 484.043 170.395 484.234C169.877 484.419 169.411 484.688 168.996 485.04C168.585 485.391 168.231 485.813 167.934 486.307C167.641 486.8 167.409 487.356 167.238 487.977C167.072 488.592 166.974 489.256 166.945 489.969C166.911 490.701 166.95 491.375 167.062 491.99C167.174 492.601 167.355 493.145 167.604 493.624C167.858 494.107 168.178 494.515 168.563 494.847C168.949 495.184 169.396 495.438 169.904 495.608C170.412 495.784 170.978 495.872 171.603 495.872C172.033 495.872 172.467 495.821 172.907 495.718C173.351 495.616 173.722 495.477 174.02 495.301L174.298 496.136C173.957 496.355 173.529 496.519 173.017 496.626C172.509 496.734 172.028 496.788 171.574 496.788C170.832 496.788 170.153 496.685 169.538 496.48C168.927 496.28 168.385 495.984 167.912 495.594C167.443 495.208 167.052 494.737 166.74 494.18C166.427 493.628 166.198 492.999 166.051 492.291C165.905 491.583 165.849 490.809 165.883 489.969C165.917 489.168 166.037 488.414 166.242 487.706C166.452 486.998 166.737 486.355 167.099 485.779C167.46 485.203 167.89 484.708 168.388 484.292C168.891 483.873 169.455 483.55 170.08 483.326C170.709 483.101 171.393 482.989 172.13 482.989C172.882 482.989 173.563 483.091 174.174 483.296C174.784 483.501 175.319 483.797 175.778 484.183C176.242 484.568 176.625 485.04 176.928 485.596C177.23 486.153 177.45 486.783 177.587 487.486C177.729 488.189 177.782 488.956 177.748 489.786ZM170.226 490.408C170.192 490.75 170.192 491.055 170.226 491.324C170.26 491.592 170.326 491.819 170.424 492.005C170.521 492.19 170.648 492.332 170.805 492.43C170.966 492.522 171.154 492.569 171.369 492.569C171.51 492.569 171.659 492.535 171.815 492.466C171.972 492.393 172.125 492.281 172.277 492.129C172.428 491.978 172.57 491.78 172.702 491.536C172.833 491.292 172.943 490.999 173.031 490.657L173.515 491.185C173.402 491.585 173.256 491.937 173.075 492.239C172.899 492.542 172.702 492.796 172.482 493.001C172.262 493.206 172.028 493.362 171.779 493.47C171.535 493.572 171.286 493.624 171.032 493.624C170.675 493.624 170.363 493.548 170.094 493.396C169.826 493.24 169.608 493.021 169.442 492.737C169.276 492.454 169.159 492.117 169.091 491.727C169.027 491.331 169.018 490.892 169.062 490.408C169.105 489.896 169.196 489.422 169.333 488.987C169.469 488.553 169.638 488.165 169.838 487.823C170.043 487.481 170.272 487.19 170.526 486.951C170.785 486.712 171.059 486.531 171.347 486.409C171.635 486.282 171.93 486.219 172.233 486.219C172.76 486.219 173.175 486.297 173.478 486.453C173.781 486.604 174.069 486.785 174.342 486.995L173.72 487.72C173.578 487.583 173.393 487.457 173.163 487.339C172.934 487.222 172.663 487.164 172.35 487.164C172.082 487.164 171.83 487.232 171.596 487.369C171.361 487.505 171.149 487.71 170.958 487.984C170.773 488.257 170.617 488.597 170.49 489.002C170.363 489.402 170.275 489.871 170.226 490.408ZM187.57 482.747V493.47H186.215V484.439L183.483 485.435V484.212L187.357 482.747H187.57ZM198.542 492.356V493.47H191.562V492.496L195.055 488.606C195.485 488.128 195.817 487.723 196.051 487.391C196.291 487.054 196.457 486.753 196.549 486.49C196.647 486.221 196.696 485.948 196.696 485.669C196.696 485.318 196.623 485 196.476 484.717C196.334 484.429 196.125 484.2 195.846 484.029C195.568 483.858 195.231 483.772 194.835 483.772C194.362 483.772 193.966 483.865 193.649 484.051C193.336 484.231 193.102 484.485 192.946 484.812C192.79 485.14 192.711 485.516 192.711 485.94H191.356C191.356 485.34 191.488 484.791 191.752 484.292C192.016 483.794 192.406 483.399 192.924 483.106C193.441 482.808 194.079 482.659 194.835 482.659C195.509 482.659 196.085 482.779 196.564 483.018C197.042 483.252 197.409 483.584 197.663 484.014C197.921 484.439 198.051 484.937 198.051 485.508C198.051 485.821 197.997 486.138 197.89 486.46C197.787 486.778 197.643 487.095 197.458 487.413C197.277 487.73 197.064 488.042 196.82 488.35C196.581 488.658 196.325 488.96 196.051 489.258L193.195 492.356H198.542ZM200.08 492.752C200.08 492.522 200.15 492.33 200.292 492.173C200.438 492.012 200.648 491.932 200.922 491.932C201.195 491.932 201.403 492.012 201.544 492.173C201.691 492.33 201.764 492.522 201.764 492.752C201.764 492.977 201.691 493.167 201.544 493.323C201.403 493.479 201.195 493.558 200.922 493.558C200.648 493.558 200.438 493.479 200.292 493.323C200.15 493.167 200.08 492.977 200.08 492.752ZM200.087 486.285C200.087 486.055 200.158 485.862 200.299 485.706C200.446 485.545 200.656 485.464 200.929 485.464C201.203 485.464 201.41 485.545 201.552 485.706C201.698 485.862 201.771 486.055 201.771 486.285C201.771 486.509 201.698 486.7 201.552 486.856C201.41 487.012 201.203 487.09 200.929 487.09C200.656 487.09 200.446 487.012 200.299 486.856C200.158 486.7 200.087 486.509 200.087 486.285ZM210.832 489.881V490.994H203.126V490.196L207.902 482.806H209.008L207.821 484.944L204.665 489.881H210.832ZM209.345 482.806V493.47H207.99V482.806H209.345ZM218.756 487.288V488.914C218.756 489.788 218.678 490.525 218.522 491.126C218.366 491.727 218.141 492.21 217.848 492.576C217.555 492.942 217.201 493.208 216.786 493.375C216.376 493.536 215.912 493.616 215.395 493.616C214.984 493.616 214.606 493.565 214.259 493.462C213.913 493.36 213.6 493.196 213.322 492.972C213.048 492.742 212.814 492.444 212.619 492.078C212.423 491.712 212.274 491.268 212.172 490.745C212.069 490.223 212.018 489.612 212.018 488.914V487.288C212.018 486.414 212.096 485.682 212.252 485.091C212.414 484.5 212.641 484.026 212.934 483.67C213.227 483.309 213.578 483.05 213.988 482.894C214.403 482.737 214.867 482.659 215.38 482.659C215.795 482.659 216.176 482.71 216.522 482.813C216.874 482.911 217.187 483.069 217.46 483.289C217.733 483.504 217.965 483.792 218.156 484.153C218.351 484.51 218.5 484.947 218.603 485.464C218.705 485.982 218.756 486.59 218.756 487.288ZM217.394 489.134V487.061C217.394 486.583 217.365 486.163 217.306 485.801C217.252 485.435 217.172 485.123 217.064 484.864C216.957 484.605 216.82 484.395 216.654 484.234C216.493 484.073 216.305 483.956 216.09 483.882C215.88 483.804 215.644 483.765 215.38 483.765C215.058 483.765 214.772 483.826 214.523 483.948C214.274 484.065 214.064 484.253 213.893 484.512C213.727 484.771 213.6 485.11 213.512 485.53C213.424 485.95 213.38 486.46 213.38 487.061V489.134C213.38 489.612 213.407 490.035 213.461 490.401C213.52 490.767 213.605 491.084 213.717 491.353C213.83 491.617 213.966 491.834 214.127 492.005C214.289 492.176 214.474 492.303 214.684 492.386C214.899 492.464 215.136 492.503 215.395 492.503C215.727 492.503 216.017 492.439 216.266 492.312C216.515 492.186 216.723 491.988 216.889 491.719C217.06 491.446 217.187 491.097 217.27 490.672C217.353 490.242 217.394 489.729 217.394 489.134Z" fill="#555555"/>
<path d="M65.6533 492.585L62.5625 489.51V485.367H64.4375V488.72L66.9717 491.267L65.6533 492.585ZM63.5 481.618C62.4648 481.618 61.4932 481.814 60.585 482.204C59.667 482.594 58.8687 483.129 58.1899 483.807C57.5112 484.486 56.9766 485.284 56.5859 486.201C56.1953 487.109 56 488.08 56 489.115C56 490.15 56.1953 491.121 56.5859 492.029C56.9766 492.946 57.5112 493.744 58.1899 494.422C58.8687 495.101 59.667 495.635 60.585 496.026C61.4932 496.416 62.4648 496.611 63.5 496.611C64.5352 496.611 65.5068 496.416 66.415 496.026C67.333 495.635 68.1313 495.101 68.8101 494.422C69.4888 493.744 70.0234 492.946 70.4141 492.029C70.8047 491.121 71 490.15 71 489.115C71 488.08 70.8047 487.109 70.4141 486.201C70.0234 485.284 69.4888 484.486 68.8101 483.807C68.1313 483.129 67.333 482.594 66.415 482.204C65.5068 481.814 64.5352 481.618 63.5 481.618ZM63.5 494.737C62.7188 494.737 61.9912 494.591 61.3174 494.298C60.6338 494.005 60.0356 493.602 59.5229 493.09C59.0103 492.578 58.6074 491.98 58.3145 491.296C58.0215 490.623 57.875 489.896 57.875 489.115C57.875 488.334 58.0215 487.607 58.3145 486.933C58.6074 486.25 59.0103 485.652 59.5229 485.14C60.0356 484.627 60.6338 484.225 61.3174 483.932C61.9912 483.639 62.7188 483.492 63.5 483.492C64.2812 483.492 65.0088 483.639 65.6826 483.932C66.3662 484.225 66.9644 484.627 67.4771 485.14C67.9897 485.652 68.3926 486.25 68.6855 486.933C68.9785 487.607 69.125 488.334 69.125 489.115C69.125 489.896 68.9785 490.623 68.6855 491.296C68.3926 491.98 67.9897 492.578 67.4771 493.09C66.9644 493.602 66.3662 494.005 65.6826 494.298C65.0088 494.591 64.2812 494.737 63.5 494.737Z" fill="#555555"/>
<path d="M85.4482 515.801V516.475C85.4482 517.275 85.3481 517.993 85.1479 518.628C84.9478 519.263 84.6597 519.802 84.2837 520.247C83.9077 520.691 83.4561 521.03 82.9287 521.265C82.4062 521.499 81.8203 521.616 81.1709 521.616C80.541 521.616 79.9624 521.499 79.4351 521.265C78.9126 521.03 78.4585 520.691 78.0728 520.247C77.6919 519.802 77.3965 519.263 77.1865 518.628C76.9766 517.993 76.8716 517.275 76.8716 516.475V515.801C76.8716 515 76.9741 514.285 77.1792 513.655C77.3892 513.02 77.6846 512.48 78.0654 512.036C78.4463 511.587 78.8979 511.245 79.4204 511.011C79.9478 510.776 80.5264 510.659 81.1562 510.659C81.8057 510.659 82.3916 510.776 82.9141 511.011C83.4414 511.245 83.8931 511.587 84.269 512.036C84.6499 512.48 84.9404 513.02 85.1406 513.655C85.3457 514.285 85.4482 515 85.4482 515.801ZM84.0493 516.475V515.786C84.0493 515.151 83.9834 514.59 83.8516 514.102C83.7246 513.613 83.5366 513.203 83.2876 512.871C83.0386 512.539 82.7334 512.288 82.3721 512.117C82.0156 511.946 81.6104 511.86 81.1562 511.86C80.7168 511.86 80.3188 511.946 79.9624 512.117C79.6108 512.288 79.3081 512.539 79.0542 512.871C78.8052 513.203 78.6123 513.613 78.4756 514.102C78.3389 514.59 78.2705 515.151 78.2705 515.786V516.475C78.2705 517.114 78.3389 517.681 78.4756 518.174C78.6123 518.662 78.8076 519.075 79.0615 519.412C79.3203 519.744 79.6255 519.995 79.9771 520.166C80.3335 520.337 80.7314 520.422 81.1709 520.422C81.6299 520.422 82.0376 520.337 82.394 520.166C82.7505 519.995 83.0508 519.744 83.2949 519.412C83.5439 519.075 83.7319 518.662 83.8589 518.174C83.9858 517.681 84.0493 517.114 84.0493 516.475ZM88.7148 515.237V521.47H87.3599V513.545H88.6416L88.7148 515.237ZM88.3926 517.207L87.8286 517.185C87.8335 516.643 87.9141 516.143 88.0703 515.684C88.2266 515.22 88.4463 514.817 88.7295 514.475C89.0127 514.133 89.3496 513.87 89.7402 513.684C90.1357 513.494 90.5728 513.398 91.0513 513.398C91.4419 513.398 91.7935 513.452 92.106 513.56C92.4185 513.662 92.6846 513.828 92.9043 514.058C93.1289 514.287 93.2998 514.585 93.417 514.951C93.5342 515.312 93.5928 515.754 93.5928 516.277V521.47H92.2305V516.262C92.2305 515.847 92.1694 515.515 92.0474 515.266C91.9253 515.012 91.7471 514.829 91.5127 514.717C91.2783 514.6 90.9902 514.541 90.6484 514.541C90.3115 514.541 90.0039 514.612 89.7256 514.753C89.4521 514.895 89.2153 515.09 89.0151 515.339C88.8198 515.588 88.666 515.874 88.5537 516.196C88.4463 516.514 88.3926 516.851 88.3926 517.207ZM97.123 510.22V521.47H95.7607V510.22H97.123ZM100.771 513.545V521.47H99.4082V513.545H100.771ZM99.3057 511.443C99.3057 511.223 99.3716 511.038 99.5034 510.886C99.6401 510.735 99.8403 510.659 100.104 510.659C100.363 510.659 100.561 510.735 100.697 510.886C100.839 511.038 100.91 511.223 100.91 511.443C100.91 511.653 100.839 511.833 100.697 511.985C100.561 512.131 100.363 512.205 100.104 512.205C99.8403 512.205 99.6401 512.131 99.5034 511.985C99.3716 511.833 99.3057 511.653 99.3057 511.443ZM104.301 515.237V521.47H102.946V513.545H104.228L104.301 515.237ZM103.979 517.207L103.415 517.185C103.419 516.643 103.5 516.143 103.656 515.684C103.812 515.22 104.032 514.817 104.315 514.475C104.599 514.133 104.936 513.87 105.326 513.684C105.722 513.494 106.159 513.398 106.637 513.398C107.028 513.398 107.379 513.452 107.692 513.56C108.004 513.662 108.271 513.828 108.49 514.058C108.715 514.287 108.886 514.585 109.003 514.951C109.12 515.312 109.179 515.754 109.179 516.277V521.47H107.816V516.262C107.816 515.847 107.755 515.515 107.633 515.266C107.511 515.012 107.333 514.829 107.099 514.717C106.864 514.6 106.576 514.541 106.234 514.541C105.897 514.541 105.59 514.612 105.312 514.753C105.038 514.895 104.801 515.09 104.601 515.339C104.406 515.588 104.252 515.874 104.14 516.196C104.032 516.514 103.979 516.851 103.979 517.207ZM114.525 521.616C113.974 521.616 113.473 521.523 113.024 521.338C112.58 521.147 112.196 520.881 111.874 520.54C111.557 520.198 111.312 519.792 111.142 519.324C110.971 518.855 110.885 518.342 110.885 517.786V517.478C110.885 516.833 110.98 516.26 111.171 515.757C111.361 515.249 111.62 514.819 111.947 514.468C112.274 514.116 112.646 513.85 113.061 513.669C113.476 513.489 113.905 513.398 114.35 513.398C114.916 513.398 115.404 513.496 115.814 513.691C116.229 513.887 116.569 514.16 116.833 514.512C117.096 514.858 117.292 515.269 117.418 515.742C117.545 516.211 117.609 516.724 117.609 517.28V517.888H111.691V516.782H116.254V516.68C116.234 516.328 116.161 515.986 116.034 515.654C115.912 515.322 115.717 515.049 115.448 514.834C115.18 514.619 114.813 514.512 114.35 514.512C114.042 514.512 113.759 514.578 113.5 514.709C113.241 514.836 113.019 515.027 112.833 515.281C112.648 515.535 112.504 515.845 112.401 516.211C112.299 516.577 112.248 517 112.248 517.478V517.786C112.248 518.162 112.299 518.516 112.401 518.848C112.509 519.175 112.663 519.463 112.863 519.712C113.068 519.961 113.314 520.156 113.603 520.298C113.896 520.439 114.228 520.51 114.599 520.51C115.077 520.51 115.482 520.413 115.814 520.217C116.146 520.022 116.437 519.761 116.686 519.434L117.506 520.085C117.335 520.344 117.118 520.591 116.854 520.825C116.591 521.06 116.266 521.25 115.88 521.396C115.5 521.543 115.048 521.616 114.525 521.616ZM129.892 520.32V521.47H124.245V520.32H129.892ZM124.53 510.806V521.47H123.117V510.806H124.53ZM129.145 515.391V516.541H124.245V515.391H129.145ZM129.818 510.806V511.963H124.245V510.806H129.818ZM133.656 520.247L135.824 513.545H137.208L134.359 521.47H133.451L133.656 520.247ZM131.847 513.545L134.081 520.283L134.235 521.47H133.327L130.456 513.545H131.847ZM141.698 521.616C141.146 521.616 140.646 521.523 140.197 521.338C139.752 521.147 139.369 520.881 139.047 520.54C138.729 520.198 138.485 519.792 138.314 519.324C138.144 518.855 138.058 518.342 138.058 517.786V517.478C138.058 516.833 138.153 516.26 138.344 515.757C138.534 515.249 138.793 514.819 139.12 514.468C139.447 514.116 139.818 513.85 140.233 513.669C140.648 513.489 141.078 513.398 141.522 513.398C142.089 513.398 142.577 513.496 142.987 513.691C143.402 513.887 143.742 514.16 144.005 514.512C144.269 514.858 144.464 515.269 144.591 515.742C144.718 516.211 144.782 516.724 144.782 517.28V517.888H138.864V516.782H143.427V516.68C143.407 516.328 143.334 515.986 143.207 515.654C143.085 515.322 142.89 515.049 142.621 514.834C142.353 514.619 141.986 514.512 141.522 514.512C141.215 514.512 140.932 514.578 140.673 514.709C140.414 514.836 140.192 515.027 140.006 515.281C139.821 515.535 139.677 515.845 139.574 516.211C139.472 516.577 139.42 517 139.42 517.478V517.786C139.42 518.162 139.472 518.516 139.574 518.848C139.682 519.175 139.835 519.463 140.036 519.712C140.241 519.961 140.487 520.156 140.775 520.298C141.068 520.439 141.4 520.51 141.771 520.51C142.25 520.51 142.655 520.413 142.987 520.217C143.319 520.022 143.61 519.761 143.859 519.434L144.679 520.085C144.508 520.344 144.291 520.591 144.027 520.825C143.764 521.06 143.439 521.25 143.053 521.396C142.672 521.543 142.221 521.616 141.698 521.616ZM147.719 515.237V521.47H146.364V513.545H147.646L147.719 515.237ZM147.396 517.207L146.833 517.185C146.837 516.643 146.918 516.143 147.074 515.684C147.23 515.22 147.45 514.817 147.733 514.475C148.017 514.133 148.354 513.87 148.744 513.684C149.14 513.494 149.577 513.398 150.055 513.398C150.446 513.398 150.797 513.452 151.11 513.56C151.422 513.662 151.688 513.828 151.908 514.058C152.133 514.287 152.304 514.585 152.421 514.951C152.538 515.312 152.597 515.754 152.597 516.277V521.47H151.234V516.262C151.234 515.847 151.173 515.515 151.051 515.266C150.929 515.012 150.751 514.829 150.517 514.717C150.282 514.6 149.994 514.541 149.652 514.541C149.315 514.541 149.008 514.612 148.729 514.753C148.456 514.895 148.219 515.09 148.019 515.339C147.824 515.588 147.67 515.874 147.558 516.196C147.45 516.514 147.396 516.851 147.396 517.207ZM157.973 513.545V514.585H153.688V513.545H157.973ZM155.138 511.619H156.493V519.507C156.493 519.775 156.535 519.978 156.618 520.115C156.701 520.251 156.808 520.342 156.94 520.386C157.072 520.43 157.213 520.452 157.365 520.452C157.477 520.452 157.594 520.442 157.716 520.422C157.843 520.398 157.938 520.378 158.002 520.364L158.009 521.47C157.902 521.504 157.76 521.536 157.584 521.565C157.414 521.599 157.206 521.616 156.962 521.616C156.63 521.616 156.325 521.55 156.046 521.418C155.768 521.287 155.546 521.067 155.38 520.759C155.219 520.447 155.138 520.027 155.138 519.5V511.619Z" fill="#555555"/>
<path d="M63.5 509.618C62.8555 509.618 62.2451 509.74 61.6689 509.984C61.1025 510.228 60.6069 510.563 60.1821 510.987C59.7573 511.412 59.4229 511.907 59.1787 512.473C58.9346 513.049 58.8125 513.659 58.8125 514.304C58.8125 515.475 59.0566 516.671 59.5449 517.891C60.0332 519.111 60.5703 520.219 61.1562 521.214C61.7422 522.21 62.2793 523.025 62.7676 523.66C63.2559 524.294 63.5 524.611 63.5 524.611C63.5 524.611 63.7441 524.294 64.2324 523.66C64.7207 523.025 65.2578 522.21 65.8438 521.214C66.4297 520.219 66.9668 519.111 67.4551 517.891C67.9434 516.671 68.1875 515.475 68.1875 514.304C68.1875 513.659 68.0654 513.049 67.8213 512.473C67.5771 511.907 67.2427 511.412 66.8179 510.987C66.3931 510.563 65.8975 510.228 65.3311 509.984C64.7549 509.74 64.1445 509.618 63.5 509.618ZM63.5 517.115C62.7188 517.115 62.0547 516.842 61.5078 516.295C60.9609 515.748 60.6875 515.085 60.6875 514.304C60.6875 513.523 60.9609 512.859 61.5078 512.312C62.0547 511.766 62.7188 511.492 63.5 511.492C64.2812 511.492 64.9453 511.766 65.4922 512.312C66.0391 512.859 66.3125 513.523 66.3125 514.304C66.3125 515.085 66.0391 515.748 65.4922 516.295C64.9453 516.842 64.2812 517.115 63.5 517.115Z" fill="#555555"/>
<rect y="1" width="1171" height="368" fill="#C978D7"/>
</svg>
