<svg width="570" height="395" viewBox="0 0 570 395" fill="none" xmlns="http://www.w3.org/2000/svg">
<g clip-path="url(#clip0_2362_67)">
<rect x="-0.5" y="-0.5" width="569" height="394" rx="39.5" fill="white" stroke="url(#paint0_radial_2362_67)"/>
<path d="M-1 279H569V354C569 376.091 551.091 394 529 394H39C16.9086 394 -1 376.091 -1 354V279Z" fill="url(#paint1_linear_2362_67)"/>
<g filter="url(#filter0_d_2362_67)">
<path d="M42.7285 319.78C44.1342 330.508 24.4475 328.173 15.8759 332.076C7.30427 335.98 30.177 341.236 42.7284 345.259C55.2797 349.282 39.6267 377.905 48.4962 385.729C57.3656 393.552 61.8065 363.229 67.3291 350.355C72.8517 337.482 110.48 361.957 118.79 350.355C127.099 338.753 90.1553 338.041 83.0359 328.326C75.9165 318.612 96.4747 295.044 89.6618 291.347C85.91 289.311 77.8722 307.443 70.8435 314.417C63.8147 321.39 48.9737 278.107 39.7161 279.014C30.4586 279.921 40.9713 306.371 42.7285 319.78Z" fill="url(#paint2_linear_2362_67)"/>
</g>
<g filter="url(#filter1_d_2362_67)">
<path d="M52.843 344.872C51.8161 340.531 15.2396 337.867 19.4927 334.206C23.7457 330.545 40.2773 330.442 45.1399 328.101C50.0024 325.761 38.5427 287.314 41.8413 286.716C45.1399 286.117 60.407 316.425 67.3773 318.474C74.3477 320.522 85.0756 292.189 88.4521 294.56C91.8286 296.93 76.4201 324.831 76.8246 328.101C77.2292 331.371 111.408 341.664 112.935 347.704C114.462 353.744 72.8813 342.232 69.1215 343.63C65.3616 345.028 56.8704 381.587 51.0051 383.561C45.1399 385.535 53.8699 349.213 52.843 344.872Z" fill="url(#paint3_linear_2362_67)"/>
</g>
<path d="M31.2006 333.558C30.3602 335.713 33.7221 336.431 34.2264 334.994C34.7308 333.558 31.2006 332.121 31.2006 333.558Z" fill="#D9D9D9"/>
<path d="M49.5101 335.275C50.3916 333.139 47.0441 332.348 46.5124 333.773C45.9806 335.198 49.4825 336.711 49.5101 335.275Z" fill="#D9D9D9"/>
<path d="M40.678 335.082C41.5596 332.946 38.2121 332.154 37.6804 333.58C37.1486 335.005 40.6505 336.518 40.678 335.082Z" fill="#D9D9D9"/>
<path d="M54.2787 318.185C53.4383 320.34 56.8002 321.058 57.3046 319.621C57.8089 318.185 54.2787 316.748 54.2787 318.185Z" fill="#D9D9D9"/>
<path d="M49.7944 309.814C48.9539 311.969 52.3159 312.687 52.8202 311.25C53.3245 309.814 49.7944 308.377 49.7944 309.814Z" fill="#D9D9D9"/>
<path d="M70.8803 321.838C70.0398 323.993 73.4018 324.711 73.9061 323.275C74.4104 321.838 70.8803 320.402 70.8803 321.838Z" fill="#D9D9D9"/>
<path d="M75.1498 315.407C74.3094 317.561 77.6713 318.279 78.1757 316.843C78.68 315.407 75.1498 313.97 75.1498 315.407Z" fill="#D9D9D9"/>
<path d="M80.1381 307.035C79.2977 309.19 82.6596 309.908 83.1639 308.472C83.6683 307.035 80.1381 305.599 80.1381 307.035Z" fill="#D9D9D9"/>
<path d="M79.2224 339.602C81.3063 340.304 81.6755 336.662 80.2914 336.254C78.9072 335.845 77.8833 339.73 79.2224 339.602Z" fill="#D9D9D9"/>
<path d="M90.713 339.97C89.6103 337.954 87.0476 340.388 87.8164 341.683C88.5852 342.979 91.7858 340.835 90.713 339.97Z" fill="#D9D9D9"/>
<path d="M97.0248 342.729C96.1844 344.884 99.5463 345.602 100.051 344.165C100.555 342.729 97.0248 341.292 97.0248 342.729Z" fill="#D9D9D9"/>
<path d="M58.9996 354.238C58.9144 351.905 55.5814 352.764 55.6889 354.294C55.7965 355.824 59.5648 355.542 58.9996 354.238Z" fill="#D9D9D9"/>
<path d="M64.4002 342.907C67.3459 346.356 71.405 340.451 69.3941 338.261C67.3833 336.07 61.9632 341.693 64.4002 342.907Z" fill="#741F5E" stroke="#D9D9D9" stroke-width="2"/>
<path d="M53.0125 325.138C49.1301 322.995 47.24 330.037 49.8372 331.346C52.4344 332.655 55.6924 325.373 53.0125 325.138Z" fill="#741F5E" stroke="#D9D9D9" stroke-width="2"/>
<path d="M67.34 321.549C66.7605 316.921 60.275 319.299 60.7579 322.324C61.2408 325.348 68.6943 324.031 67.34 321.549Z" fill="#741F5E" stroke="#D9D9D9" stroke-width="2"/>
<path d="M52.8074 338.567C51.1266 342.877 57.8503 344.313 58.8589 341.44C59.8675 338.567 52.8074 335.694 52.8074 338.567Z" fill="#741F5E" stroke="#D9D9D9" stroke-width="2"/>
<path d="M73.8448 332.351C75.0092 327.851 68.1704 327.323 67.5052 330.308C66.8399 333.292 74.1802 335.202 73.8448 332.351Z" fill="#741F5E" stroke="#D9D9D9" stroke-width="2"/>
<path d="M57.3292 362.127C56.5593 359.942 53.6502 361.881 54.2042 363.296C54.7582 364.711 58.2505 363.173 57.3292 362.127Z" fill="#D9D9D9"/>
<path d="M55.7925 371.117C55.6878 368.785 52.3621 369.675 52.4824 371.204C52.6027 372.732 56.3685 372.415 55.7925 371.117Z" fill="#D9D9D9"/>
<path d="M46.5834 299.616C45.743 301.77 49.1049 302.488 49.6092 301.052C50.1136 299.616 46.5834 298.179 46.5834 299.616Z" fill="#D9D9D9"/>
<path d="M58.8097 330.748C58.7064 331.129 55.4528 331.99 55.6069 332.425C55.7609 332.859 59.2588 333.028 59.5008 333.364C59.7429 333.699 59.885 337.221 60.3172 337.256C60.7494 337.291 61.5893 333.898 62.0757 333.699C62.5621 333.501 64.9858 334.035 65.7182 333.699C66.4506 333.364 63.1433 330.748 63.1433 330.748C63.1433 330.748 64.7373 327.885 64.525 327.258C64.3127 326.631 61.3303 329.018 61.0081 329.003C60.6858 328.987 58.323 326.146 57.868 326.319C57.413 326.493 58.9129 330.367 58.8097 330.748Z" fill="#D9D9D9"/>
<path d="M255.935 326L247.675 315.15V326H241.69V301.43H247.675V312.21L255.865 301.43H262.9L253.38 313.47L263.25 326H255.935ZM264.904 316.2C264.904 314.193 265.277 312.432 266.024 310.915C266.794 309.398 267.832 308.232 269.139 307.415C270.445 306.598 271.904 306.19 273.514 306.19C274.89 306.19 276.092 306.47 277.119 307.03C278.169 307.59 278.974 308.325 279.534 309.235V306.47H285.519V326H279.534V323.235C278.95 324.145 278.134 324.88 277.084 325.44C276.057 326 274.855 326.28 273.479 326.28C271.892 326.28 270.445 325.872 269.139 325.055C267.832 324.215 266.794 323.037 266.024 321.52C265.277 319.98 264.904 318.207 264.904 316.2ZM279.534 316.235C279.534 314.742 279.114 313.563 278.274 312.7C277.457 311.837 276.454 311.405 275.264 311.405C274.074 311.405 273.059 311.837 272.219 312.7C271.402 313.54 270.994 314.707 270.994 316.2C270.994 317.693 271.402 318.883 272.219 319.77C273.059 320.633 274.074 321.065 275.264 321.065C276.454 321.065 277.457 320.633 278.274 319.77C279.114 318.907 279.534 317.728 279.534 316.235ZM298.739 326.28C296.825 326.28 295.099 325.872 293.559 325.055C292.042 324.238 290.84 323.072 289.954 321.555C289.09 320.038 288.659 318.265 288.659 316.235C288.659 314.228 289.102 312.467 289.989 310.95C290.875 309.41 292.089 308.232 293.629 307.415C295.169 306.598 296.895 306.19 298.809 306.19C300.722 306.19 302.449 306.598 303.989 307.415C305.529 308.232 306.742 309.41 307.629 310.95C308.515 312.467 308.959 314.228 308.959 316.235C308.959 318.242 308.504 320.015 307.594 321.555C306.707 323.072 305.482 324.238 303.919 325.055C302.379 325.872 300.652 326.28 298.739 326.28ZM298.739 321.1C299.882 321.1 300.85 320.68 301.644 319.84C302.46 319 302.869 317.798 302.869 316.235C302.869 314.672 302.472 313.47 301.679 312.63C300.909 311.79 299.952 311.37 298.809 311.37C297.642 311.37 296.674 311.79 295.904 312.63C295.134 313.447 294.749 314.648 294.749 316.235C294.749 317.798 295.122 319 295.869 319.84C296.639 320.68 297.595 321.1 298.739 321.1ZM320.079 326.28C318.376 326.28 316.859 325.988 315.529 325.405C314.199 324.822 313.149 324.028 312.379 323.025C311.609 321.998 311.177 320.855 311.084 319.595H316.999C317.069 320.272 317.384 320.82 317.944 321.24C318.504 321.66 319.192 321.87 320.009 321.87C320.756 321.87 321.327 321.73 321.724 321.45C322.144 321.147 322.354 320.762 322.354 320.295C322.354 319.735 322.062 319.327 321.479 319.07C320.896 318.79 319.951 318.487 318.644 318.16C317.244 317.833 316.077 317.495 315.144 317.145C314.211 316.772 313.406 316.2 312.729 315.43C312.052 314.637 311.714 313.575 311.714 312.245C311.714 311.125 312.017 310.11 312.624 309.2C313.254 308.267 314.164 307.532 315.354 306.995C316.567 306.458 318.002 306.19 319.659 306.19C322.109 306.19 324.034 306.797 325.434 308.01C326.857 309.223 327.674 310.833 327.884 312.84H322.354C322.261 312.163 321.957 311.627 321.444 311.23C320.954 310.833 320.301 310.635 319.484 310.635C318.784 310.635 318.247 310.775 317.874 311.055C317.501 311.312 317.314 311.673 317.314 312.14C317.314 312.7 317.606 313.12 318.189 313.4C318.796 313.68 319.729 313.96 320.989 314.24C322.436 314.613 323.614 314.987 324.524 315.36C325.434 315.71 326.227 316.293 326.904 317.11C327.604 317.903 327.966 318.977 327.989 320.33C327.989 321.473 327.662 322.5 327.009 323.41C326.379 324.297 325.457 324.997 324.244 325.51C323.054 326.023 321.666 326.28 320.079 326.28Z" fill="#E5E7EB"/>
<path d="M213.784 343.154V362H210.004V343.154H213.784ZM224.106 343.154C226.086 343.154 227.823 343.541 229.317 344.315C230.829 345.089 231.99 346.196 232.8 347.636C233.628 349.058 234.042 350.714 234.042 352.604C234.042 354.494 233.628 356.15 232.8 357.572C231.99 358.976 230.829 360.065 229.317 360.839C227.823 361.613 226.086 362 224.106 362H217.518V343.154H224.106ZM223.971 358.787C225.951 358.787 227.481 358.247 228.561 357.167C229.641 356.087 230.181 354.566 230.181 352.604C230.181 350.642 229.641 349.112 228.561 348.014C227.481 346.898 225.951 346.34 223.971 346.34H221.298V358.787H223.971ZM246.592 362L242.434 354.656H240.652V362H236.872V343.154H243.946C245.404 343.154 246.646 343.415 247.672 343.937C248.698 344.441 249.463 345.134 249.967 346.016C250.489 346.88 250.75 347.852 250.75 348.932C250.75 350.174 250.39 351.299 249.67 352.307C248.95 353.297 247.879 353.981 246.457 354.359L250.966 362H246.592ZM240.652 351.821H243.811C244.837 351.821 245.602 351.578 246.106 351.092C246.61 350.588 246.862 349.895 246.862 349.013C246.862 348.149 246.61 347.483 246.106 347.015C245.602 346.529 244.837 346.286 243.811 346.286H240.652V351.821ZM259.711 345.8V342.317H266.218V362H262.33V345.8H259.711ZM271.14 357.734C272.868 356.294 274.245 355.097 275.271 354.143C276.297 353.171 277.152 352.163 277.836 351.119C278.52 350.075 278.862 349.049 278.862 348.041C278.862 347.123 278.646 346.403 278.214 345.881C277.782 345.359 277.116 345.098 276.216 345.098C275.316 345.098 274.623 345.404 274.137 346.016C273.651 346.61 273.399 347.429 273.381 348.473H269.709C269.781 346.313 270.42 344.675 271.626 343.559C272.85 342.443 274.398 341.885 276.27 341.885C278.322 341.885 279.897 342.434 280.995 343.532C282.093 344.612 282.642 346.043 282.642 347.825C282.642 349.229 282.264 350.57 281.508 351.848C280.752 353.126 279.888 354.242 278.916 355.196C277.944 356.132 276.675 357.266 275.109 358.598H283.074V361.73H269.736V358.922L271.14 357.734ZM285.456 351.902C285.456 348.788 286.014 346.349 287.13 344.585C288.264 342.821 290.136 341.939 292.746 341.939C295.356 341.939 297.219 342.821 298.335 344.585C299.469 346.349 300.036 348.788 300.036 351.902C300.036 355.034 299.469 357.491 298.335 359.273C297.219 361.055 295.356 361.946 292.746 361.946C290.136 361.946 288.264 361.055 287.13 359.273C286.014 357.491 285.456 355.034 285.456 351.902ZM296.31 351.902C296.31 350.57 296.22 349.454 296.04 348.554C295.878 347.636 295.536 346.889 295.014 346.313C294.51 345.737 293.754 345.449 292.746 345.449C291.738 345.449 290.973 345.737 290.451 346.313C289.947 346.889 289.605 347.636 289.425 348.554C289.263 349.454 289.182 350.57 289.182 351.902C289.182 353.27 289.263 354.422 289.425 355.358C289.587 356.276 289.929 357.023 290.451 357.599C290.973 358.157 291.738 358.436 292.746 358.436C293.754 358.436 294.519 358.157 295.041 357.599C295.563 357.023 295.905 356.276 296.067 355.358C296.229 354.422 296.31 353.27 296.31 351.902ZM305.017 362.189C304.333 362.189 303.766 361.982 303.316 361.568C302.884 361.136 302.668 360.605 302.668 359.975C302.668 359.345 302.884 358.823 303.316 358.409C303.766 357.977 304.333 357.761 305.017 357.761C305.683 357.761 306.232 357.977 306.664 358.409C307.096 358.823 307.312 359.345 307.312 359.975C307.312 360.605 307.096 361.136 306.664 361.568C306.232 361.982 305.683 362.189 305.017 362.189ZM309.925 351.902C309.925 348.788 310.483 346.349 311.599 344.585C312.733 342.821 314.605 341.939 317.215 341.939C319.825 341.939 321.688 342.821 322.804 344.585C323.938 346.349 324.505 348.788 324.505 351.902C324.505 355.034 323.938 357.491 322.804 359.273C321.688 361.055 319.825 361.946 317.215 361.946C314.605 361.946 312.733 361.055 311.599 359.273C310.483 357.491 309.925 355.034 309.925 351.902ZM320.779 351.902C320.779 350.57 320.689 349.454 320.509 348.554C320.347 347.636 320.005 346.889 319.483 346.313C318.979 345.737 318.223 345.449 317.215 345.449C316.207 345.449 315.442 345.737 314.92 346.313C314.416 346.889 314.074 347.636 313.894 348.554C313.732 349.454 313.651 350.57 313.651 351.902C313.651 353.27 313.732 354.422 313.894 355.358C314.056 356.276 314.398 357.023 314.92 357.599C315.442 358.157 316.207 358.436 317.215 358.436C318.223 358.436 318.988 358.157 319.51 357.599C320.032 357.023 320.374 356.276 320.536 355.358C320.698 354.422 320.779 353.27 320.779 351.902ZM327.38 351.902C327.38 348.788 327.938 346.349 329.054 344.585C330.188 342.821 332.06 341.939 334.67 341.939C337.28 341.939 339.143 342.821 340.259 344.585C341.393 346.349 341.96 348.788 341.96 351.902C341.96 355.034 341.393 357.491 340.259 359.273C339.143 361.055 337.28 361.946 334.67 361.946C332.06 361.946 330.188 361.055 329.054 359.273C327.938 357.491 327.38 355.034 327.38 351.902ZM338.234 351.902C338.234 350.57 338.144 349.454 337.964 348.554C337.802 347.636 337.46 346.889 336.938 346.313C336.434 345.737 335.678 345.449 334.67 345.449C333.662 345.449 332.897 345.737 332.375 346.313C331.871 346.889 331.529 347.636 331.349 348.554C331.187 349.454 331.106 350.57 331.106 351.902C331.106 353.27 331.187 354.422 331.349 355.358C331.511 356.276 331.853 357.023 332.375 357.599C332.897 358.157 333.662 358.436 334.67 358.436C335.678 358.436 336.443 358.157 336.965 357.599C337.487 357.023 337.829 356.276 337.991 355.358C338.153 354.422 338.234 353.27 338.234 351.902ZM344.835 351.902C344.835 348.788 345.393 346.349 346.509 344.585C347.643 342.821 349.515 341.939 352.125 341.939C354.735 341.939 356.598 342.821 357.714 344.585C358.848 346.349 359.415 348.788 359.415 351.902C359.415 355.034 358.848 357.491 357.714 359.273C356.598 361.055 354.735 361.946 352.125 361.946C349.515 361.946 347.643 361.055 346.509 359.273C345.393 357.491 344.835 355.034 344.835 351.902ZM355.689 351.902C355.689 350.57 355.599 349.454 355.419 348.554C355.257 347.636 354.915 346.889 354.393 346.313C353.889 345.737 353.133 345.449 352.125 345.449C351.117 345.449 350.352 345.737 349.83 346.313C349.326 346.889 348.984 347.636 348.804 348.554C348.642 349.454 348.561 350.57 348.561 351.902C348.561 353.27 348.642 354.422 348.804 355.358C348.966 356.276 349.308 357.023 349.83 357.599C350.352 358.157 351.117 358.436 352.125 358.436C353.133 358.436 353.898 358.157 354.42 357.599C354.942 357.023 355.284 356.276 355.446 355.358C355.608 354.422 355.689 353.27 355.689 351.902Z" fill="#E5E7EB"/>
<g filter="url(#filter2_d_2362_67)">
<path d="M511.345 294.729C506.878 297.878 506.901 299.588 508.652 301.288C512.458 299.589 522.349 295.492 527.814 295.953C531.068 296.228 521.329 289.693 518.144 286.931C517.738 288.218 515.811 291.58 511.345 294.729Z" fill="url(#paint4_linear_2362_67)"/>
</g>
<g filter="url(#filter3_d_2362_67)">
<path d="M482.89 326.944C477.724 330.34 476.918 334.298 479.345 336.009C495.012 333.43 514.024 336.099 526.977 336.562C540.999 337.062 526.446 332.817 521.411 326.999C516.376 321.182 507.01 320.276 501.376 321.569C495.742 322.861 488.056 323.548 482.89 326.944Z" fill="url(#paint5_linear_2362_67)"/>
</g>
<path d="M492.77 312.692C488.429 315.072 489.359 319.821 490.367 321.898C491.374 323.974 500.875 319.931 507.286 320.075C513.697 320.219 520.619 325.278 523.2 322.635C525.78 319.992 529.369 313.873 523.082 310.546C515.224 306.387 498.195 309.717 492.77 312.692Z" fill="url(#paint6_linear_2362_67)"/>
<g filter="url(#filter4_d_2362_67)">
<path d="M487.843 370.184C480.175 369.656 467.497 374.852 460.923 380.649C458.831 371.529 472.586 373.243 465.202 353.729C461.922 345.062 474.391 338.959 480.277 337.2C497.224 335.481 507.623 335.789 527.381 338.035C528.572 338.783 530.525 341.072 528.805 344.244C527.085 347.416 535.434 346.468 539.824 345.597C539.193 345.81 536.927 346.752 532.913 348.816C528.9 350.88 532.369 354.591 534.605 356.189C533.385 356.06 529.682 355.848 524.624 356.028C519.567 356.208 522.218 359.984 524.175 361.85C523.322 361.092 519.799 359.667 512.539 360.026C505.278 360.384 510.404 364.056 513.874 365.847C510.921 365.571 504.488 365.386 502.376 366.85C499.737 368.681 497.428 370.845 487.843 370.184Z" fill="url(#paint7_linear_2362_67)"/>
</g>
<g filter="url(#filter5_d_2362_67)">
<path d="M483.858 366.109C477.019 365.199 467.451 373.266 463.522 377.412C462.509 372.998 473.236 369.46 476.691 363.769C480.146 358.079 480.723 352.444 494.337 345.559C507.951 338.674 498.569 348.35 514.309 342.305C530.05 336.26 522.103 347.377 521.755 351.883C521.408 356.388 492.406 367.246 483.858 366.109Z" fill="url(#paint8_linear_2362_67)"/>
</g>
<g filter="url(#filter6_d_2362_67)">
<path d="M500.311 305.064C495.582 307.692 495.254 309.495 495.681 310.068C513.604 305.021 525.61 310.002 526.915 312.376C528.248 314.801 532.184 298.75 529.475 296.85C526.767 294.95 506.223 301.78 500.311 305.064Z" fill="url(#paint9_linear_2362_67)"/>
</g>
</g>
<defs>
<filter id="filter0_d_2362_67" x="-75.9" y="193.1" width="285.8" height="287.8" filterUnits="userSpaceOnUse" color-interpolation-filters="sRGB">
<feFlood flood-opacity="0" result="BackgroundImageFix"/>
<feColorMatrix in="SourceAlpha" type="matrix" values="0 0 0 0 0 0 0 0 0 0 0 0 0 0 0 0 0 0 127 0" result="hardAlpha"/>
<feOffset dy="4"/>
<feGaussianBlur stdDeviation="44.95"/>
<feComposite in2="hardAlpha" operator="out"/>
<feColorMatrix type="matrix" values="0 0 0 0 0.407843 0 0 0 0 0.0941176 0 0 0 0 0.129412 0 0 0 1 0"/>
<feBlend mode="normal" in2="BackgroundImageFix" result="effect1_dropShadow_2362_67"/>
<feBlend mode="normal" in="SourceGraphic" in2="effect1_dropShadow_2362_67" result="shape"/>
</filter>
<filter id="filter1_d_2362_67" x="-83.6516" y="187.907" width="299.428" height="302.532" filterUnits="userSpaceOnUse" color-interpolation-filters="sRGB">
<feFlood flood-opacity="0" result="BackgroundImageFix"/>
<feColorMatrix in="SourceAlpha" type="matrix" values="0 0 0 0 0 0 0 0 0 0 0 0 0 0 0 0 0 0 127 0" result="hardAlpha"/>
<feOffset dy="4"/>
<feGaussianBlur stdDeviation="51.4"/>
<feComposite in2="hardAlpha" operator="out"/>
<feColorMatrix type="matrix" values="0 0 0 0 0.847059 0 0 0 0 0.709804 0 0 0 0 0.458824 0 0 0 1 0"/>
<feBlend mode="normal" in2="BackgroundImageFix" result="effect1_dropShadow_2362_67"/>
<feBlend mode="normal" in="SourceGraphic" in2="effect1_dropShadow_2362_67" result="shape"/>
</filter>
<filter id="filter2_d_2362_67" x="472.255" y="255.631" width="91.518" height="84.9574" filterUnits="userSpaceOnUse" color-interpolation-filters="sRGB">
<feFlood flood-opacity="0" result="BackgroundImageFix"/>
<feColorMatrix in="SourceAlpha" type="matrix" values="0 0 0 0 0 0 0 0 0 0 0 0 0 0 0 0 0 0 127 0" result="hardAlpha"/>
<feOffset dy="4"/>
<feGaussianBlur stdDeviation="17.65"/>
<feComposite in2="hardAlpha" operator="out"/>
<feColorMatrix type="matrix" values="0 0 0 0 0.587646 0 0 0 0 0.622905 0 0 0 0 0.940234 0 0 0 1 0"/>
<feBlend mode="normal" in2="BackgroundImageFix" result="effect1_dropShadow_2362_67"/>
<feBlend mode="normal" in="SourceGraphic" in2="effect1_dropShadow_2362_67" result="shape"/>
</filter>
<filter id="filter3_d_2362_67" x="442.735" y="289.754" width="125.479" height="86.1479" filterUnits="userSpaceOnUse" color-interpolation-filters="sRGB">
<feFlood flood-opacity="0" result="BackgroundImageFix"/>
<feColorMatrix in="SourceAlpha" type="matrix" values="0 0 0 0 0 0 0 0 0 0 0 0 0 0 0 0 0 0 127 0" result="hardAlpha"/>
<feOffset dy="4"/>
<feGaussianBlur stdDeviation="17.65"/>
<feComposite in2="hardAlpha" operator="out"/>
<feColorMatrix type="matrix" values="0 0 0 0 0.587646 0 0 0 0 0.622905 0 0 0 0 0.940234 0 0 0 1 0"/>
<feBlend mode="normal" in2="BackgroundImageFix" result="effect1_dropShadow_2362_67"/>
<feBlend mode="normal" in="SourceGraphic" in2="effect1_dropShadow_2362_67" result="shape"/>
</filter>
<filter id="filter4_d_2362_67" x="425.403" y="304.8" width="149.721" height="115.149" filterUnits="userSpaceOnUse" color-interpolation-filters="sRGB">
<feFlood flood-opacity="0" result="BackgroundImageFix"/>
<feColorMatrix in="SourceAlpha" type="matrix" values="0 0 0 0 0 0 0 0 0 0 0 0 0 0 0 0 0 0 127 0" result="hardAlpha"/>
<feOffset dy="4"/>
<feGaussianBlur stdDeviation="17.65"/>
<feComposite in2="hardAlpha" operator="out"/>
<feColorMatrix type="matrix" values="0 0 0 0 0.587646 0 0 0 0 0.622905 0 0 0 0 0.940234 0 0 0 1 0"/>
<feBlend mode="normal" in2="BackgroundImageFix" result="effect1_dropShadow_2362_67"/>
<feBlend mode="normal" in="SourceGraphic" in2="effect1_dropShadow_2362_67" result="shape"/>
</filter>
<filter id="filter5_d_2362_67" x="428.153" y="309.246" width="131.213" height="107.466" filterUnits="userSpaceOnUse" color-interpolation-filters="sRGB">
<feFlood flood-opacity="0" result="BackgroundImageFix"/>
<feColorMatrix in="SourceAlpha" type="matrix" values="0 0 0 0 0 0 0 0 0 0 0 0 0 0 0 0 0 0 127 0" result="hardAlpha"/>
<feOffset dy="4"/>
<feGaussianBlur stdDeviation="17.65"/>
<feComposite in2="hardAlpha" operator="out"/>
<feColorMatrix type="matrix" values="0 0 0 0 0.587646 0 0 0 0 0.622905 0 0 0 0 0.940234 0 0 0 1 0"/>
<feBlend mode="normal" in2="BackgroundImageFix" result="effect1_dropShadow_2362_67"/>
<feBlend mode="normal" in="SourceGraphic" in2="effect1_dropShadow_2362_67" result="shape"/>
</filter>
<filter id="filter6_d_2362_67" x="460.243" y="265.221" width="105.463" height="86.7035" filterUnits="userSpaceOnUse" color-interpolation-filters="sRGB">
<feFlood flood-opacity="0" result="BackgroundImageFix"/>
<feColorMatrix in="SourceAlpha" type="matrix" values="0 0 0 0 0 0 0 0 0 0 0 0 0 0 0 0 0 0 127 0" result="hardAlpha"/>
<feOffset dy="4"/>
<feGaussianBlur stdDeviation="17.65"/>
<feComposite in2="hardAlpha" operator="out"/>
<feColorMatrix type="matrix" values="0 0 0 0 0.587646 0 0 0 0 0.622905 0 0 0 0 0.940234 0 0 0 1 0"/>
<feBlend mode="normal" in2="BackgroundImageFix" result="effect1_dropShadow_2362_67"/>
<feBlend mode="normal" in="SourceGraphic" in2="effect1_dropShadow_2362_67" result="shape"/>
</filter>
<radialGradient id="paint0_radial_2362_67" cx="0" cy="0" r="1" gradientUnits="userSpaceOnUse" gradientTransform="translate(241.407 141.302) rotate(177.519) scale(447.058 287.878)">
<stop offset="0.225" stop-color="#75D7D6"/>
<stop offset="0.370102" stop-color="#3CC1EC"/>
<stop offset="0.67" stop-color="#1379C2"/>
<stop offset="1" stop-color="#75D7D6" stop-opacity="0"/>
</radialGradient>
<linearGradient id="paint1_linear_2362_67" x1="-1" y1="336.5" x2="569" y2="336.5" gradientUnits="userSpaceOnUse">
<stop stop-color="#972164"/>
<stop offset="1" stop-color="#310B20"/>
</linearGradient>
<linearGradient id="paint2_linear_2362_67" x1="65.9883" y1="278.797" x2="65.9883" y2="389.906" gradientUnits="userSpaceOnUse">
<stop stop-color="#71D0CF"/>
<stop offset="0.305" stop-color="#5BA7A6"/>
<stop offset="0.78" stop-color="#75D7D6"/>
</linearGradient>
<linearGradient id="paint3_linear_2362_67" x1="64.3313" y1="285.779" x2="68.1165" y2="382.913" gradientUnits="userSpaceOnUse">
<stop offset="0.485" stop-color="#B32169"/>
<stop offset="1" stop-color="#3029BA"/>
</linearGradient>
<linearGradient id="paint4_linear_2362_67" x1="525.781" y1="297.998" x2="506.548" y2="286.872" gradientUnits="userSpaceOnUse">
<stop offset="0.198569" stop-color="#ADEDC1"/>
<stop offset="0.543333" stop-color="#B3E7C5"/>
<stop offset="0.823333" stop-color="#ECA9F1"/>
</linearGradient>
<linearGradient id="paint5_linear_2362_67" x1="525.601" y1="337.856" x2="488.44" y2="309.367" gradientUnits="userSpaceOnUse">
<stop offset="0.198569" stop-color="#ADEDC1"/>
<stop offset="0.543333" stop-color="#B3E7C5"/>
<stop offset="0.823333" stop-color="#ECA9F1"/>
</linearGradient>
<linearGradient id="paint6_linear_2362_67" x1="522.985" y1="323.073" x2="492.926" y2="303.682" gradientUnits="userSpaceOnUse">
<stop offset="0.198569" stop-color="#ADEDC1"/>
<stop offset="0.543333" stop-color="#B3E7C5"/>
<stop offset="0.823333" stop-color="#ECA9F1"/>
</linearGradient>
<linearGradient id="paint7_linear_2362_67" x1="531.679" y1="364.417" x2="466.565" y2="319.436" gradientUnits="userSpaceOnUse">
<stop offset="0.198569" stop-color="#ADEDC1"/>
<stop offset="0.543333" stop-color="#B3E7C5"/>
<stop offset="0.823333" stop-color="#ECA9F1"/>
</linearGradient>
<linearGradient id="paint8_linear_2362_67" x1="490.983" y1="379.554" x2="492.798" y2="324.454" gradientUnits="userSpaceOnUse">
<stop stop-color="#D7B575"/>
<stop offset="1" stop-color="#292910"/>
</linearGradient>
<linearGradient id="paint9_linear_2362_67" x1="526.446" y1="312.736" x2="501.888" y2="291.456" gradientUnits="userSpaceOnUse">
<stop offset="0.198569" stop-color="#ADEDC1"/>
<stop offset="0.543333" stop-color="#B3E7C5"/>
<stop offset="0.823333" stop-color="#ECA9F1"/>
</linearGradient>
<clipPath id="clip0_2362_67">
<rect width="570" height="395" fill="white"/>
</clipPath>
</defs>
</svg>
