<svg width="1420" height="706" viewBox="0 0 1420 706" fill="none" xmlns="http://www.w3.org/2000/svg">
<g filter="url(#filter0_d_2989_158)">
<rect x="1025" y="354.291" width="270" height="206.31" rx="40" fill="white"/>
<rect x="1027.5" y="356.791" width="265" height="201.31" rx="37.5" stroke="#B32169" stroke-width="5"/>
</g>
<g filter="url(#filter1_d_2989_158)">
<rect x="125" y="105" width="1170" height="455.602" rx="50" fill="white"/>
<rect x="129" y="109" width="1162" height="447.602" rx="46" stroke="#AF5682" stroke-width="8"/>
</g>
<path d="M514.476 213.6C514.926 215.1 514.176 240 514.626 244.8C514.776 247.2 516.726 253.5 512.676 253.5C504.276 253.5 494.826 252.9 486.576 252C482.376 251.55 486.576 246.15 482.676 241.8C475.326 233.55 464.226 241.5 460.626 249C455.976 258.75 455.676 271.5 460.626 281.1C463.776 287.4 470.976 293.7 478.476 290.25C484.176 287.7 484.776 282.45 486.876 277.35C487.776 275.25 509.076 277.8 512.376 278.55C514.626 279 516.276 279.75 516.276 282.3C516.276 321.6 461.826 330.6 437.676 306.3C416.376 284.85 417.426 242.7 439.026 221.85C455.526 205.8 483.576 204 504.876 209.4C507.276 210 512.976 211.5 514.476 213.6ZM468.876 315.75C470.376 315.9 475.626 316.05 476.976 315.75C480.876 314.7 479.526 309.3 476.376 309.6C461.676 310.95 450.876 304.5 441.876 293.55C439.176 290.4 434.826 293.7 437.076 297.15C443.826 307.65 456.876 314.1 468.876 315.75ZM483.126 308.25C480.576 313.5 490.176 314.4 488.826 308.85C488.076 306.15 484.326 305.7 483.126 308.25ZM587.415 201.9C586.965 207.15 579.615 202.65 583.665 199.65C585.765 198 587.715 199.2 587.415 201.9ZM618.765 218.7C619.665 221.1 616.965 222.15 615.465 220.2C613.215 217.2 611.265 214.95 607.815 213.3C606.015 212.4 591.015 206.4 590.565 205.8C589.515 204.3 590.565 202.8 592.215 202.35C600.165 200.25 616.065 211.5 618.765 218.7ZM581.265 318C574.665 318.45 562.215 318.45 556.365 315.6C536.565 306 531.765 277.95 528.765 258.6C527.415 250.2 526.365 241.8 527.865 233.4C530.565 217.8 541.365 210.15 556.515 208.5C566.565 207.3 576.915 208.05 586.665 210.6C598.365 213.75 610.215 220.05 615.765 231.3C618.315 236.7 619.365 242.55 619.815 248.55C621.015 266.1 611.715 307.05 594.615 315.45C590.565 317.4 585.765 317.7 581.265 318ZM567.465 281.55C589.215 292.5 592.665 253.65 587.715 246.9C586.065 244.65 583.665 243 581.115 241.8C577.065 239.85 567.315 238.2 563.415 241.05C556.065 246.6 559.365 277.5 567.465 281.55ZM683.847 268.95C685.347 263.7 701.247 212.1 703.947 210.9C705.747 210.15 728.097 212.4 728.997 214.2C729.597 215.4 729.597 219.9 729.747 221.55C731.547 248.4 734.397 275.7 738.747 302.25C739.047 304.2 741.297 314.85 740.397 315.9C739.497 316.95 719.097 318 716.247 318.3C714.147 318.6 708.447 320.1 707.397 317.4C704.997 310.95 704.397 272.85 704.247 263.85C702.597 267.9 691.947 299.85 691.947 299.85C690.447 301.5 677.247 300.15 674.097 300.3C670.347 300.6 670.347 295.2 669.747 292.5C667.497 282.9 664.947 273.3 662.847 263.55C660.447 280.5 659.547 297.6 658.197 314.7C658.047 316.05 658.047 318.6 656.247 318.9C655.497 319.05 651.297 317.4 650.247 317.1C644.097 315.3 633.297 312.9 626.997 313.05C625.797 312.6 626.097 309.6 626.397 308.55C632.997 278.55 638.247 248.85 643.347 218.7C643.497 217.5 643.797 216.15 644.697 215.25C646.497 213.45 669.897 208.8 670.797 210.15C671.097 210.6 671.247 213.15 671.397 213.9C674.097 232.5 678.747 250.8 683.847 268.95ZM721.497 243.15C722.697 246.3 727.197 245.25 727.347 241.95C727.497 236.4 726.897 218.85 721.047 216.3C719.397 215.55 713.397 215.25 711.447 215.25C706.947 215.25 704.847 219.3 708.597 220.95C710.547 221.85 717.597 220.8 718.797 222C721.047 224.1 720.297 239.85 721.497 243.15ZM722.997 255.15C724.797 256.5 727.647 255.45 727.947 253.2C728.847 246.6 717.747 250.95 722.997 255.15ZM789.068 208.5C789.668 209.55 788.918 210.9 787.718 211.05C786.668 211.2 785.768 210.45 784.718 210.3C779.018 209.4 772.868 211.35 767.468 210.6C766.418 210.45 764.768 209.85 764.768 208.65C764.768 203.25 786.818 204.15 789.068 208.5ZM761.168 211.5C757.868 215.7 753.518 205.65 759.368 206.25C761.768 206.55 762.518 209.7 761.168 211.5ZM768.068 319.35C765.668 319.35 758.918 319.65 757.118 318C756.068 316.95 755.918 315.3 755.768 313.95C755.168 307.8 751.868 223.35 752.018 222.6C753.068 218.4 774.968 217.8 779.168 217.8C780.818 217.8 785.318 217.65 786.668 218.4C789.218 219.75 788.768 225.45 788.768 227.85L788.918 315.9C788.918 317.4 788.318 318.15 786.968 318.6C785.018 319.2 771.218 319.35 768.068 319.35ZM832.667 248.25C835.667 263.25 842.417 302.55 840.767 316.5C840.467 319.2 838.217 320.1 835.817 320.25C831.617 320.55 806.417 321.3 804.617 318.75C802.967 316.35 804.917 309.15 805.367 306.3C808.517 285.6 808.367 250.05 806.417 228.9C806.267 226.65 805.067 216.3 805.367 214.95C806.117 211.5 832.217 206.4 835.517 207.75C838.217 208.8 843.767 222.75 844.967 225.9C851.117 241.5 855.767 257.7 861.167 273.6C862.367 255 860.867 234.6 857.867 216.3C857.567 214.2 856.517 211.35 859.067 210.3C861.917 209.1 888.467 207.45 891.917 208.35C892.367 208.95 892.217 209.7 892.067 210.45C890.867 218.4 891.017 227.1 890.867 235.2C890.417 255.9 890.117 276.6 889.967 297.3C889.967 301.8 883.367 300.6 880.367 300.6C872.267 300.6 865.217 301.95 857.417 303.6C856.667 303.75 855.617 303.75 855.017 303.3C853.667 302.25 853.367 300.3 852.917 298.8C848.117 282 841.967 263.1 832.667 248.25ZM856.817 316.8C855.767 316.95 854.117 317.1 853.067 316.8C850.667 316.2 850.667 313.2 852.917 312.45C859.667 310.05 866.717 309.75 873.767 309.15C883.217 308.4 880.967 314.1 877.667 314.85C871.067 316.35 863.567 315.9 856.817 316.8ZM889.367 309.9C893.417 310.95 890.417 316.95 886.217 314.4C883.067 312.45 886.517 309.15 889.367 309.9ZM967.916 279.9C960.716 280.95 953.666 286.5 952.616 276C952.466 273.9 952.016 266.7 952.316 265.05C953.516 259.65 992.966 260.4 997.316 264.3C999.116 265.95 999.416 268.5 999.566 270.9C1003.02 321.6 933.716 338.55 910.616 294.3C906.416 286.35 904.166 277.2 903.866 268.2C902.366 229.2 928.466 205.95 966.266 206.7C973.316 206.85 991.316 208.8 996.266 213.75C996.266 222.9 995.666 232.05 996.116 241.2C996.266 244.5 997.016 248.1 996.716 251.25C996.566 252 996.416 252.9 995.816 253.35C992.366 253.95 967.166 252.45 966.416 250.8C965.816 249.3 966.416 246.15 965.666 244.2C961.616 232.8 947.066 240.45 943.016 247.5C926.516 276.45 958.016 309.45 967.916 279.9ZM951.266 315.9C953.516 316.2 958.766 316.5 960.416 314.7C961.766 313.2 961.316 311.4 959.666 310.35C958.766 309.75 957.866 309.75 956.816 309.9C943.016 311.4 932.216 303.45 923.666 293.7C921.566 291.3 917.666 292.35 918.116 295.65C919.316 305.4 942.866 314.7 951.266 315.9ZM964.766 308.25C961.766 314.1 973.316 313.95 970.166 308.1C968.966 306 965.816 306.15 964.766 308.25ZM570.925 459.8C556.825 464 538.675 464 527.875 452.45C523.375 447.65 519.325 438.35 519.625 431.75C519.625 430.25 519.925 429.05 521.125 428C523.225 425.9 544.225 422.3 546.325 424.25C547.525 425.45 547.225 427.25 547.225 428.75C547.225 434.9 552.775 440 558.175 435.35C562.075 432.05 561.325 425.9 558.775 422.15C548.425 406.85 510.325 412.1 513.775 380.9C515.125 369.2 523.825 358.7 534.025 353.15C558.775 339.95 600.025 346.7 601.675 380C601.825 383.15 601.375 387.65 598.075 388.85C595.225 389.9 577.225 391.1 573.325 391.1C571.825 391.1 569.425 391.1 569.425 389C569.425 381.65 567.475 371.75 558.625 370.55C549.925 369.35 536.725 379.4 545.575 387.35C546.625 388.4 548.125 389 549.475 389.6C559.225 393.5 568.675 396.2 577.525 402.2C590.425 410.75 599.575 423.8 593.125 439.7C589.375 449 580.525 456.95 570.925 459.8ZM567.625 457.25C571.525 458.15 582.775 449.15 585.325 446.15C587.725 443.3 588.775 439.85 589.675 436.25C590.125 434.15 591.025 429.5 589.375 427.85C588.025 426.5 585.325 426.8 584.425 428.6C583.375 430.7 584.425 436.4 581.725 440.75C577.075 448.25 568.225 449.9 565.975 452C564.175 453.65 565.375 456.65 567.625 457.25ZM557.725 458.9C561.475 460.25 563.425 454.4 559.675 453.05C555.775 451.55 553.825 457.55 557.725 458.9ZM670.619 344.9C670.169 350.15 662.819 345.65 666.869 342.65C668.969 341 670.919 342.2 670.619 344.9ZM701.969 361.7C702.869 364.1 700.169 365.15 698.669 363.2C696.419 360.2 694.469 357.95 691.019 356.3C689.219 355.4 674.219 349.4 673.769 348.8C672.719 347.3 673.769 345.8 675.419 345.35C683.369 343.25 699.269 354.5 701.969 361.7ZM664.469 461C657.869 461.45 645.419 461.45 639.569 458.6C619.769 449 614.969 420.95 611.969 401.6C610.619 393.2 609.569 384.8 611.069 376.4C613.769 360.8 624.569 353.15 639.719 351.5C649.769 350.3 660.119 351.05 669.869 353.6C681.569 356.75 693.419 363.05 698.969 374.3C701.519 379.7 702.569 385.55 703.019 391.55C704.219 409.1 694.919 450.05 677.819 458.45C673.769 460.4 668.969 460.7 664.469 461ZM650.669 424.55C672.419 435.5 675.869 396.65 670.919 389.9C669.269 387.65 666.869 386 664.319 384.8C660.269 382.85 650.519 381.2 646.619 384.05C639.269 389.6 642.569 420.5 650.669 424.55ZM773.597 344.9C773.147 350.15 765.797 345.65 769.847 342.65C771.947 341 773.897 342.2 773.597 344.9ZM804.947 361.7C805.847 364.1 803.147 365.15 801.647 363.2C799.397 360.2 797.447 357.95 793.997 356.3C792.197 355.4 777.197 349.4 776.747 348.8C775.697 347.3 776.747 345.8 778.397 345.35C786.347 343.25 802.247 354.5 804.947 361.7ZM767.447 461C760.847 461.45 748.397 461.45 742.547 458.6C722.747 449 717.947 420.95 714.947 401.6C713.597 393.2 712.547 384.8 714.047 376.4C716.747 360.8 727.547 353.15 742.697 351.5C752.747 350.3 763.097 351.05 772.847 353.6C784.547 356.75 796.397 363.05 801.947 374.3C804.497 379.7 805.547 385.55 805.997 391.55C807.197 409.1 797.897 450.05 780.797 458.45C776.747 460.4 771.947 460.7 767.447 461ZM753.647 424.55C775.397 435.5 778.847 396.65 773.897 389.9C772.247 387.65 769.847 386 767.297 384.8C763.247 382.85 753.497 381.2 749.597 384.05C742.247 389.6 745.547 420.5 753.647 424.55ZM846.876 391.25C849.876 406.25 856.626 445.55 854.976 459.5C854.676 462.2 852.426 463.1 850.026 463.25C845.826 463.55 820.626 464.3 818.826 461.75C817.176 459.35 819.126 452.15 819.576 449.3C822.726 428.6 822.576 393.05 820.626 371.9C820.476 369.65 819.276 359.3 819.576 357.95C820.326 354.5 846.426 349.4 849.726 350.75C852.426 351.8 857.976 365.75 859.176 368.9C865.326 384.5 869.976 400.7 875.376 416.6C876.576 398 875.076 377.6 872.076 359.3C871.776 357.2 870.726 354.35 873.276 353.3C876.126 352.1 902.676 350.45 906.126 351.35C906.576 351.95 906.426 352.7 906.276 353.45C905.076 361.4 905.226 370.1 905.076 378.2C904.626 398.9 904.326 419.6 904.176 440.3C904.176 444.8 897.576 443.6 894.576 443.6C886.476 443.6 879.426 444.95 871.626 446.6C870.876 446.75 869.826 446.75 869.226 446.3C867.876 445.25 867.576 443.3 867.126 441.8C862.326 425 856.176 406.1 846.876 391.25ZM871.026 459.8C869.976 459.95 868.326 460.1 867.276 459.8C864.876 459.2 864.876 456.2 867.126 455.45C873.876 453.05 880.926 452.75 887.976 452.15C897.426 451.4 895.176 457.1 891.876 457.85C885.276 459.35 877.776 458.9 871.026 459.8ZM903.576 452.9C907.626 453.95 904.626 459.95 900.426 457.4C897.276 455.45 900.726 452.15 903.576 452.9Z" fill="url(#paint0_radial_2989_158)"/>
<defs>
<filter id="filter0_d_2989_158" x="900" y="249.291" width="520" height="456.311" filterUnits="userSpaceOnUse" color-interpolation-filters="sRGB">
<feFlood flood-opacity="0" result="BackgroundImageFix"/>
<feColorMatrix in="SourceAlpha" type="matrix" values="0 0 0 0 0 0 0 0 0 0 0 0 0 0 0 0 0 0 127 0" result="hardAlpha"/>
<feOffset dy="20"/>
<feGaussianBlur stdDeviation="62.5"/>
<feComposite in2="hardAlpha" operator="out"/>
<feColorMatrix type="matrix" values="0 0 0 0 0.962457 0 0 0 0 0.905511 0 0 0 0 0.582821 0 0 0 1 0"/>
<feBlend mode="normal" in2="BackgroundImageFix" result="effect1_dropShadow_2989_158"/>
<feBlend mode="normal" in="SourceGraphic" in2="effect1_dropShadow_2989_158" result="shape"/>
</filter>
<filter id="filter1_d_2989_158" x="0" y="0" width="1420" height="705.602" filterUnits="userSpaceOnUse" color-interpolation-filters="sRGB">
<feFlood flood-opacity="0" result="BackgroundImageFix"/>
<feColorMatrix in="SourceAlpha" type="matrix" values="0 0 0 0 0 0 0 0 0 0 0 0 0 0 0 0 0 0 127 0" result="hardAlpha"/>
<feOffset dy="20"/>
<feGaussianBlur stdDeviation="62.5"/>
<feComposite in2="hardAlpha" operator="out"/>
<feColorMatrix type="matrix" values="0 0 0 0 0.733333 0 0 0 0 0.243137 0 0 0 0 0.423529 0 0 0 1 0"/>
<feBlend mode="normal" in2="BackgroundImageFix" result="effect1_dropShadow_2989_158"/>
<feBlend mode="normal" in="SourceGraphic" in2="effect1_dropShadow_2989_158" result="shape"/>
</filter>
<radialGradient id="paint0_radial_2989_158" cx="0" cy="0" r="1" gradientUnits="userSpaceOnUse" gradientTransform="translate(1580.11 339) rotate(-175.494) scale(1871.09 475.859)">
<stop offset="0.120225" stop-color="#D7B575"/>
<stop offset="0.370102" stop-color="#B32169"/>
<stop offset="0.660328" stop-color="#741F5E"/>
<stop offset="1" stop-color="#BC0079" stop-opacity="0"/>
</radialGradient>
</defs>
</svg>
