<svg width="432" height="97" viewBox="0 0 432 97" fill="none" xmlns="http://www.w3.org/2000/svg">
<rect x="1" y="1" width="430" height="95" rx="39" fill="#F1F1F1" stroke="#B32169" stroke-width="2"/>
<path d="M171.329 24.336C170.881 23.5147 170.265 22.8893 169.481 22.46C168.697 22.0307 167.782 21.816 166.737 21.816C165.58 21.816 164.553 22.0773 163.657 22.6C162.761 23.1227 162.061 23.8693 161.557 24.84C161.053 25.8107 160.801 26.9307 160.801 28.2C160.801 29.5067 161.053 30.6453 161.557 31.616C162.08 32.5867 162.798 33.3333 163.713 33.856C164.628 34.3787 165.692 34.64 166.905 34.64C168.398 34.64 169.621 34.248 170.573 33.464C171.525 32.6613 172.15 31.5507 172.449 30.132H165.729V27.136H176.313V30.552C176.052 31.9147 175.492 33.1747 174.633 34.332C173.774 35.4893 172.664 36.4227 171.301 37.132C169.957 37.8227 168.445 38.168 166.765 38.168C164.88 38.168 163.172 37.748 161.641 36.908C160.129 36.0493 158.934 34.864 158.057 33.352C157.198 31.84 156.769 30.1227 156.769 28.2C156.769 26.2773 157.198 24.56 158.057 23.048C158.934 21.5173 160.129 20.332 161.641 19.492C163.172 18.6333 164.87 18.204 166.737 18.204C168.94 18.204 170.853 18.7453 172.477 19.828C174.101 20.892 175.221 22.3947 175.837 24.336H171.329ZM193.633 29.908C193.633 30.468 193.596 30.972 193.521 31.42H182.181C182.275 32.54 182.667 33.4173 183.357 34.052C184.048 34.6867 184.897 35.004 185.905 35.004C187.361 35.004 188.397 34.3787 189.013 33.128H193.241C192.793 34.6213 191.935 35.8533 190.665 36.824C189.396 37.776 187.837 38.252 185.989 38.252C184.496 38.252 183.152 37.9253 181.957 37.272C180.781 36.6 179.857 35.6573 179.185 34.444C178.532 33.2307 178.205 31.8307 178.205 30.244C178.205 28.6387 178.532 27.2293 179.185 26.016C179.839 24.8027 180.753 23.8693 181.929 23.216C183.105 22.5627 184.459 22.236 185.989 22.236C187.464 22.236 188.78 22.5533 189.937 23.188C191.113 23.8227 192.019 24.728 192.653 25.904C193.307 27.0613 193.633 28.396 193.633 29.908ZM189.573 28.788C189.555 27.78 189.191 26.9773 188.481 26.38C187.772 25.764 186.904 25.456 185.877 25.456C184.907 25.456 184.085 25.7547 183.413 26.352C182.76 26.9307 182.359 27.7427 182.209 28.788H189.573ZM195.486 30.188C195.486 28.62 195.794 27.2293 196.41 26.016C197.045 24.8027 197.904 23.8693 198.987 23.216C200.069 22.5627 201.273 22.236 202.599 22.236C203.607 22.236 204.568 22.46 205.483 22.908C206.397 23.3373 207.125 23.916 207.667 24.644V17.28H211.643V38H207.667V35.704C207.181 36.4693 206.5 37.0853 205.623 37.552C204.745 38.0187 203.728 38.252 202.571 38.252C201.264 38.252 200.069 37.916 198.987 37.244C197.904 36.572 197.045 35.6293 196.41 34.416C195.794 33.184 195.486 31.7747 195.486 30.188ZM207.695 30.244C207.695 29.292 207.508 28.48 207.135 27.808C206.761 27.1173 206.257 26.5947 205.623 26.24C204.988 25.8667 204.307 25.68 203.579 25.68C202.851 25.68 202.179 25.8573 201.562 26.212C200.947 26.5667 200.443 27.0893 200.051 27.78C199.677 28.452 199.491 29.2547 199.491 30.188C199.491 31.1213 199.677 31.9427 200.051 32.652C200.443 33.3427 200.947 33.8747 201.562 34.248C202.197 34.6213 202.869 34.808 203.579 34.808C204.307 34.808 204.988 34.6307 205.623 34.276C206.257 33.9027 206.761 33.38 207.135 32.708C207.508 32.0173 207.695 31.196 207.695 30.244ZM230.115 22.488V38H226.167V36.04C225.663 36.712 225 37.244 224.179 37.636C223.376 38.0093 222.499 38.196 221.547 38.196C220.334 38.196 219.26 37.944 218.327 37.44C217.394 36.9173 216.656 36.1613 216.115 35.172C215.592 34.164 215.331 32.9693 215.331 31.588V22.488H219.251V31.028C219.251 32.26 219.559 33.212 220.175 33.884C220.791 34.5373 221.631 34.864 222.695 34.864C223.778 34.864 224.627 34.5373 225.243 33.884C225.859 33.212 226.167 32.26 226.167 31.028V22.488H230.115ZM242.579 22.264C244.427 22.264 245.92 22.852 247.059 24.028C248.197 25.1853 248.767 26.8093 248.767 28.9V38H244.847V29.432C244.847 28.2 244.539 27.2573 243.923 26.604C243.307 25.932 242.467 25.596 241.403 25.596C240.32 25.596 239.461 25.932 238.827 26.604C238.211 27.2573 237.903 28.2 237.903 29.432V38H233.983V22.488H237.903V24.42C238.425 23.748 239.088 23.2253 239.891 22.852C240.712 22.46 241.608 22.264 242.579 22.264ZM258.571 22.236C259.728 22.236 260.745 22.4693 261.623 22.936C262.5 23.384 263.191 23.972 263.695 24.7V22.488H267.643V38.112C267.643 39.5493 267.353 40.828 266.775 41.948C266.196 43.0867 265.328 43.9827 264.171 44.636C263.013 45.308 261.613 45.644 259.971 45.644C257.768 45.644 255.957 45.1307 254.539 44.104C253.139 43.0773 252.345 41.6773 252.159 39.904H256.051C256.256 40.6133 256.695 41.1733 257.367 41.584C258.057 42.0133 258.888 42.228 259.859 42.228C260.997 42.228 261.921 41.8827 262.631 41.192C263.34 40.52 263.695 39.4933 263.695 38.112V35.704C263.191 36.432 262.491 37.0387 261.595 37.524C260.717 38.0093 259.709 38.252 258.571 38.252C257.264 38.252 256.069 37.916 254.987 37.244C253.904 36.572 253.045 35.6293 252.41 34.416C251.794 33.184 251.486 31.7747 251.486 30.188C251.486 28.62 251.794 27.2293 252.41 26.016C253.045 24.8027 253.895 23.8693 254.959 23.216C256.041 22.5627 257.245 22.236 258.571 22.236ZM263.695 30.244C263.695 29.292 263.508 28.48 263.135 27.808C262.761 27.1173 262.257 26.5947 261.623 26.24C260.988 25.8667 260.307 25.68 259.579 25.68C258.851 25.68 258.179 25.8573 257.562 26.212C256.947 26.5667 256.443 27.0893 256.051 27.78C255.677 28.452 255.491 29.2547 255.491 30.188C255.491 31.1213 255.677 31.9427 256.051 32.652C256.443 33.3427 256.947 33.8747 257.562 34.248C258.197 34.6213 258.869 34.808 259.579 34.808C260.307 34.808 260.988 34.6307 261.623 34.276C262.257 33.9027 262.761 33.38 263.135 32.708C263.508 32.0173 263.695 31.196 263.695 30.244ZM107.922 80.196C106.56 80.196 105.328 79.9627 104.226 79.496C103.144 79.0293 102.285 78.3573 101.65 77.48C101.016 76.6027 100.689 75.5667 100.67 74.372H104.87C104.926 75.1747 105.206 75.8093 105.71 76.276C106.233 76.7427 106.942 76.976 107.838 76.976C108.753 76.976 109.472 76.7613 109.994 76.332C110.517 75.884 110.778 75.3053 110.778 74.596C110.778 74.0173 110.601 73.5413 110.246 73.168C109.892 72.7947 109.444 72.5053 108.902 72.3C108.38 72.076 107.652 71.8333 106.718 71.572C105.449 71.1987 104.413 70.8347 103.61 70.48C102.826 70.1067 102.145 69.556 101.566 68.828C101.006 68.0813 100.726 67.092 100.726 65.86C100.726 64.7027 101.016 63.6947 101.594 62.836C102.173 61.9773 102.985 61.324 104.03 60.876C105.076 60.4093 106.27 60.176 107.614 60.176C109.63 60.176 111.264 60.6707 112.514 61.66C113.784 62.6307 114.484 63.9933 114.614 65.748H110.302C110.265 65.076 109.976 64.5253 109.434 64.096C108.912 63.648 108.212 63.424 107.334 63.424C106.569 63.424 105.953 63.62 105.486 64.012C105.038 64.404 104.814 64.9733 104.814 65.72C104.814 66.2427 104.982 66.6813 105.318 67.036C105.673 67.372 106.102 67.652 106.606 67.876C107.129 68.0813 107.857 68.324 108.79 68.604C110.06 68.9773 111.096 69.3507 111.898 69.724C112.701 70.0973 113.392 70.6573 113.97 71.404C114.549 72.1507 114.838 73.1307 114.838 74.344C114.838 75.3893 114.568 76.36 114.026 77.256C113.485 78.152 112.692 78.8707 111.646 79.412C110.601 79.9347 109.36 80.196 107.922 80.196ZM117.229 72.188C117.229 70.62 117.537 69.2293 118.153 68.016C118.787 66.8027 119.637 65.8693 120.701 65.216C121.783 64.5627 122.987 64.236 124.313 64.236C125.47 64.236 126.478 64.4693 127.337 64.936C128.214 65.4027 128.914 65.9907 129.437 66.7V64.488H133.385V80H129.437V77.732C128.933 78.46 128.233 79.0667 127.337 79.552C126.459 80.0187 125.442 80.252 124.285 80.252C122.978 80.252 121.783 79.916 120.701 79.244C119.637 78.572 118.787 77.6293 118.153 76.416C117.537 75.184 117.229 73.7747 117.229 72.188ZM129.437 72.244C129.437 71.292 129.25 70.48 128.877 69.808C128.503 69.1173 127.999 68.5947 127.365 68.24C126.73 67.8667 126.049 67.68 125.321 67.68C124.593 67.68 123.921 67.8573 123.305 68.212C122.689 68.5667 122.185 69.0893 121.793 69.78C121.419 70.452 121.233 71.2547 121.233 72.188C121.233 73.1213 121.419 73.9427 121.793 74.652C122.185 75.3427 122.689 75.8747 123.305 76.248C123.939 76.6213 124.611 76.808 125.321 76.808C126.049 76.808 126.73 76.6307 127.365 76.276C127.999 75.9027 128.503 75.38 128.877 74.708C129.25 74.0173 129.437 73.196 129.437 72.244ZM156.477 64.264C158.381 64.264 159.912 64.852 161.069 66.028C162.245 67.1853 162.833 68.8093 162.833 70.9V80H158.913V71.432C158.913 70.2187 158.605 69.2947 157.989 68.66C157.373 68.0067 156.533 67.68 155.469 67.68C154.405 67.68 153.556 68.0067 152.921 68.66C152.305 69.2947 151.997 70.2187 151.997 71.432V80H148.077V71.432C148.077 70.2187 147.769 69.2947 147.153 68.66C146.537 68.0067 145.697 67.68 144.633 67.68C143.551 67.68 142.692 68.0067 142.057 68.66C141.441 69.2947 141.133 70.2187 141.133 71.432V80H137.213V64.488H141.133V66.364C141.637 65.7107 142.281 65.1973 143.065 64.824C143.868 64.4507 144.745 64.264 145.697 64.264C146.911 64.264 147.993 64.5253 148.945 65.048C149.897 65.552 150.635 66.28 151.157 67.232C151.661 66.336 152.389 65.6173 153.341 65.076C154.312 64.5347 155.357 64.264 156.477 64.264ZM165.545 72.188C165.545 70.62 165.853 69.2293 166.469 68.016C167.104 66.8027 167.953 65.8693 169.017 65.216C170.1 64.5627 171.304 64.236 172.629 64.236C173.786 64.236 174.794 64.4693 175.653 64.936C176.53 65.4027 177.23 65.9907 177.753 66.7V64.488H181.701V80H177.753V77.732C177.249 78.46 176.549 79.0667 175.653 79.552C174.776 80.0187 173.758 80.252 172.601 80.252C171.294 80.252 170.1 79.916 169.017 79.244C167.953 78.572 167.104 77.6293 166.469 76.416C165.853 75.184 165.545 73.7747 165.545 72.188ZM177.753 72.244C177.753 71.292 177.566 70.48 177.193 69.808C176.82 69.1173 176.316 68.5947 175.681 68.24C175.046 67.8667 174.365 67.68 173.637 67.68C172.909 67.68 172.237 67.8573 171.621 68.212C171.005 68.5667 170.501 69.0893 170.109 69.78C169.736 70.452 169.549 71.2547 169.549 72.188C169.549 73.1213 169.736 73.9427 170.109 74.652C170.501 75.3427 171.005 75.8747 171.621 76.248C172.256 76.6213 172.928 76.808 173.637 76.808C174.365 76.808 175.046 76.6307 175.681 76.276C176.316 75.9027 176.82 75.38 177.193 74.708C177.566 74.0173 177.753 73.196 177.753 72.244ZM194.126 64.264C195.974 64.264 197.467 64.852 198.606 66.028C199.744 67.1853 200.314 68.8093 200.314 70.9V80H196.394V71.432C196.394 70.2 196.086 69.2573 195.47 68.604C194.854 67.932 194.014 67.596 192.95 67.596C191.867 67.596 191.008 67.932 190.374 68.604C189.758 69.2573 189.45 70.2 189.45 71.432V80H185.53V64.488H189.45V66.42C189.972 65.748 190.635 65.2253 191.438 64.852C192.259 64.46 193.155 64.264 194.126 64.264ZM208.605 67.708V75.212C208.605 75.7347 208.727 76.1173 208.969 76.36C209.231 76.584 209.66 76.696 210.257 76.696H212.077V80H209.613C206.309 80 204.657 78.3947 204.657 75.184V67.708H202.809V64.488H204.657V60.652H208.605V64.488H212.077V67.708H208.605ZM223.633 64.264C224.809 64.264 225.854 64.5253 226.769 65.048C227.684 65.552 228.393 66.308 228.897 67.316C229.42 68.3053 229.681 69.5 229.681 70.9V80H225.761V71.432C225.761 70.2 225.453 69.2573 224.837 68.604C224.221 67.932 223.381 67.596 222.317 67.596C221.234 67.596 220.376 67.932 219.741 68.604C219.125 69.2573 218.817 70.2 218.817 71.432V80H214.897V59.28H218.817V66.42C219.321 65.748 219.993 65.2253 220.833 64.852C221.673 64.46 222.606 64.264 223.633 64.264ZM232.401 72.188C232.401 70.62 232.709 69.2293 233.325 68.016C233.959 66.8027 234.809 65.8693 235.873 65.216C236.955 64.5627 238.159 64.236 239.485 64.236C240.642 64.236 241.65 64.4693 242.509 64.936C243.386 65.4027 244.086 65.9907 244.609 66.7V64.488H248.557V80H244.609V77.732C244.105 78.46 243.405 79.0667 242.509 79.552C241.631 80.0187 240.614 80.252 239.457 80.252C238.15 80.252 236.955 79.916 235.873 79.244C234.809 78.572 233.959 77.6293 233.325 76.416C232.709 75.184 232.401 73.7747 232.401 72.188ZM244.609 72.244C244.609 71.292 244.422 70.48 244.049 69.808C243.675 69.1173 243.171 68.5947 242.537 68.24C241.902 67.8667 241.221 67.68 240.493 67.68C239.765 67.68 239.093 67.8573 238.477 68.212C237.861 68.5667 237.357 69.0893 236.965 69.78C236.591 70.452 236.405 71.2547 236.405 72.188C236.405 73.1213 236.591 73.9427 236.965 74.652C237.357 75.3427 237.861 75.8747 238.477 76.248C239.111 76.6213 239.783 76.808 240.493 76.808C241.221 76.808 241.902 76.6307 242.537 76.276C243.171 75.9027 243.675 75.38 244.049 74.708C244.422 74.0173 244.609 73.196 244.609 72.244ZM270.089 80L262.977 71.292V80H259.057V60.456H262.977V69.22L270.089 60.456H274.821L266.757 70.144L275.045 80H270.089ZM281.543 66.896C282.047 66.0747 282.701 65.4307 283.503 64.964C284.325 64.4973 285.258 64.264 286.303 64.264V68.38H285.267C284.035 68.38 283.102 68.6693 282.467 69.248C281.851 69.8267 281.543 70.8347 281.543 72.272V80H277.623V64.488H281.543V66.896ZM290.932 62.64C290.241 62.64 289.662 62.4253 289.196 61.996C288.748 61.548 288.524 60.9973 288.524 60.344C288.524 59.6907 288.748 59.1493 289.196 58.72C289.662 58.272 290.241 58.048 290.932 58.048C291.622 58.048 292.192 58.272 292.64 58.72C293.106 59.1493 293.34 59.6907 293.34 60.344C293.34 60.9973 293.106 61.548 292.64 61.996C292.192 62.4253 291.622 62.64 290.932 62.64ZM292.864 64.488V80H288.944V64.488H292.864ZM295.729 72.188C295.729 70.62 296.037 69.2293 296.653 68.016C297.287 66.8027 298.146 65.8693 299.229 65.216C300.311 64.5627 301.515 64.236 302.841 64.236C303.849 64.236 304.81 64.46 305.725 64.908C306.639 65.3373 307.367 65.916 307.909 66.644V59.28H311.885V80H307.909V77.704C307.423 78.4693 306.742 79.0853 305.865 79.552C304.987 80.0187 303.97 80.252 302.813 80.252C301.506 80.252 300.311 79.916 299.229 79.244C298.146 78.572 297.287 77.6293 296.653 76.416C296.037 75.184 295.729 73.7747 295.729 72.188ZM307.937 72.244C307.937 71.292 307.75 70.48 307.377 69.808C307.003 69.1173 306.499 68.5947 305.865 68.24C305.23 67.8667 304.549 67.68 303.821 67.68C303.093 67.68 302.421 67.8573 301.805 68.212C301.189 68.5667 300.685 69.0893 300.293 69.78C299.919 70.452 299.733 71.2547 299.733 72.188C299.733 73.1213 299.919 73.9427 300.293 74.652C300.685 75.3427 301.189 75.8747 301.805 76.248C302.439 76.6213 303.111 76.808 303.821 76.808C304.549 76.808 305.23 76.6307 305.865 76.276C306.499 75.9027 307.003 75.38 307.377 74.708C307.75 74.0173 307.937 73.196 307.937 72.244ZM314.705 72.188C314.705 70.62 315.013 69.2293 315.629 68.016C316.264 66.8027 317.113 65.8693 318.177 65.216C319.26 64.5627 320.464 64.236 321.789 64.236C322.947 64.236 323.955 64.4693 324.813 64.936C325.691 65.4027 326.391 65.9907 326.913 66.7V64.488H330.861V80H326.913V77.732C326.409 78.46 325.709 79.0667 324.813 79.552C323.936 80.0187 322.919 80.252 321.761 80.252C320.455 80.252 319.26 79.916 318.177 79.244C317.113 78.572 316.264 77.6293 315.629 76.416C315.013 75.184 314.705 73.7747 314.705 72.188ZM326.913 72.244C326.913 71.292 326.727 70.48 326.353 69.808C325.98 69.1173 325.476 68.5947 324.841 68.24C324.207 67.8667 323.525 67.68 322.797 67.68C322.069 67.68 321.397 67.8573 320.781 68.212C320.165 68.5667 319.661 69.0893 319.269 69.78C318.896 70.452 318.709 71.2547 318.709 72.188C318.709 73.1213 318.896 73.9427 319.269 74.652C319.661 75.3427 320.165 75.8747 320.781 76.248C321.416 76.6213 322.088 76.808 322.797 76.808C323.525 76.808 324.207 76.6307 324.841 76.276C325.476 75.9027 325.98 75.38 326.353 74.708C326.727 74.0173 326.913 73.196 326.913 72.244Z" fill="black"/>
</svg>
