<svg width="1418" height="464" viewBox="0 0 1418 464" fill="none" xmlns="http://www.w3.org/2000/svg">
<path d="M367.81 14.912C368.194 16.192 367.554 37.44 367.938 41.536C368.066 43.584 369.73 48.96 366.274 48.96C359.106 48.96 351.042 48.448 344.002 47.68C340.418 47.296 344.002 42.688 340.674 38.976C334.402 31.936 324.93 38.72 321.858 45.12C317.89 53.44 317.634 64.32 321.858 72.512C324.546 77.888 330.69 83.264 337.09 80.32C341.954 78.144 342.466 73.664 344.258 69.312C345.026 67.52 363.202 69.696 366.018 70.336C367.938 70.72 369.346 71.36 369.346 73.536C369.346 107.072 322.882 114.752 302.274 94.016C284.098 75.712 284.994 39.744 303.426 21.952C317.506 8.256 341.442 6.71999 359.618 11.328C361.666 11.84 366.53 13.12 367.81 14.912ZM328.898 102.08C330.178 102.208 334.658 102.336 335.81 102.08C339.138 101.184 337.986 96.576 335.298 96.832C322.754 97.984 313.538 92.48 305.858 83.136C303.554 80.448 299.842 83.264 301.762 86.208C307.522 95.168 318.658 100.672 328.898 102.08ZM341.058 95.68C338.882 100.16 347.074 100.928 345.922 96.192C345.282 93.888 342.082 93.504 341.058 95.68ZM429.284 6.07999C427.748 8.63999 423.396 5.43999 426.596 2.88C428.9 1.088 430.436 4.032 429.284 6.07999ZM456.676 20.288C456.292 21.824 454.372 21.696 453.604 20.672C448.484 14.528 441.06 11.456 433.508 9.02399C431.716 8.51199 431.46 6.20799 433.252 5.43999C440.548 2.49599 457.572 16.448 456.676 20.288ZM429.668 103.36C421.092 104.768 407.652 105.152 400.1 100.16C387.428 91.84 382.692 72.128 380.388 58.176C378.98 49.472 377.188 40.384 378.852 31.552C381.412 18.368 390.5 11.968 403.3 10.56C413.284 9.408 424.932 10.432 434.404 14.016C461.028 24 460.772 49.088 453.476 72.512C451.044 80.32 448.228 88.256 443.492 95.04C439.652 100.416 436.068 102.336 429.668 103.36ZM418.788 74.176C421.22 74.176 423.652 73.92 425.444 72.256C429.668 68.288 431.972 54.592 431.588 48.832C431.076 41.152 423.78 37.44 416.74 37.056C412.772 36.8 408.676 37.312 406.884 41.408C404.324 47.296 406.372 68.416 411.748 72.256C413.796 73.664 416.356 74.176 418.788 74.176ZM511.587 62.144C512.867 57.664 526.435 13.632 528.739 12.608C530.275 11.968 549.347 13.888 550.115 15.424C550.627 16.448 550.627 20.288 550.755 21.696C552.291 44.608 554.723 67.904 558.435 90.56C558.691 92.224 560.611 101.312 559.843 102.208C559.075 103.104 541.667 104 539.235 104.256C537.443 104.512 532.579 105.792 531.683 103.488C529.635 97.984 529.123 65.472 528.995 57.792C527.587 61.248 518.499 88.512 518.499 88.512C517.219 89.92 505.955 88.768 503.267 88.896C500.067 89.152 500.067 84.544 499.555 82.24C497.635 74.048 495.459 65.856 493.667 57.536C491.619 72 490.851 86.592 489.699 101.184C489.571 102.336 489.571 104.512 488.035 104.768C487.395 104.896 483.811 103.488 482.915 103.232C477.667 101.696 468.451 99.648 463.075 99.776C462.051 99.392 462.307 96.832 462.563 95.936C468.195 70.336 472.675 44.992 477.027 19.264C477.155 18.24 477.411 17.088 478.179 16.32C479.715 14.784 499.683 10.816 500.451 11.968C500.707 12.352 500.835 14.528 500.963 15.168C503.267 31.04 507.235 46.656 511.587 62.144ZM543.715 40.128C544.739 42.816 548.579 41.92 548.707 39.104C548.835 34.368 548.323 19.392 543.331 17.216C541.923 16.576 536.803 16.32 535.139 16.32C531.299 16.32 529.507 19.776 532.707 21.184C534.371 21.952 540.387 21.056 541.411 22.08C543.331 23.872 542.691 37.312 543.715 40.128ZM544.995 50.368C546.531 51.52 548.963 50.624 549.219 48.704C549.987 43.072 540.515 46.784 544.995 50.368ZM600.239 10.56C600.751 11.456 600.111 12.608 599.087 12.736C598.191 12.864 597.423 12.224 596.527 12.096C591.663 11.328 586.415 12.992 581.807 12.352C580.911 12.224 579.503 11.712 579.503 10.688C579.503 6.07999 598.319 6.84799 600.239 10.56ZM576.431 13.12C573.615 16.704 569.903 8.128 574.895 8.63999C576.943 8.896 577.583 11.584 576.431 13.12ZM582.319 105.152C580.271 105.152 574.511 105.408 572.975 104C572.079 103.104 571.951 101.696 571.823 100.544C571.311 95.296 568.495 23.232 568.623 22.592C569.519 19.008 588.207 18.496 591.791 18.496C593.199 18.496 597.039 18.368 598.191 19.008C600.367 20.16 599.983 25.024 599.983 27.072L600.111 102.208C600.111 103.488 599.599 104.128 598.447 104.512C596.783 105.024 585.007 105.152 582.319 105.152ZM663.457 46.528C663.201 44.096 663.713 42.176 662.305 39.872C659.617 35.776 653.473 35.392 649.505 37.696C637.089 44.864 636.577 70.464 647.969 78.784C652.449 82.112 657.569 81.856 661.409 77.632C663.841 75.072 663.969 72.384 665.249 69.44C665.889 68.032 667.553 68.416 668.705 68.544C672.417 68.928 688.417 69.312 690.081 72.128C691.873 75.072 688.673 84.032 687.393 87.104C685.473 91.584 682.401 94.912 678.433 97.6C662.305 108.48 639.137 108.608 624.417 95.04C612.257 83.776 608.673 66.112 610.849 50.24C615.585 16.32 645.409 4.41599 676.385 10.432C679.841 11.072 686.753 12.224 688.929 15.168C688.929 22.976 688.289 30.784 688.801 38.592C688.929 41.152 689.697 44.096 689.441 46.528C689.313 47.424 689.185 48.576 688.161 48.96C687.777 49.088 665.889 47.68 664.097 47.296L663.457 46.528ZM648.353 101.824C649.889 102.08 655.521 102.464 656.929 102.08C660.257 101.056 659.105 96.576 656.545 96.832C643.617 97.856 635.169 92.864 626.977 83.264C625.441 81.472 622.241 81.856 622.241 84.544C622.241 86.72 627.105 91.328 628.769 92.864C634.017 97.6 641.569 100.544 648.353 101.824ZM662.049 97.856C664.097 103.232 670.497 95.296 664.865 94.272C662.817 93.888 661.281 95.936 662.049 97.856ZM782.552 4.92799C782.168 9.408 775.896 5.56799 779.352 3.008C781.144 1.6 782.808 2.62399 782.552 4.92799ZM809.304 19.264C810.072 21.312 807.768 22.208 806.488 20.544C804.568 17.984 802.904 16.064 799.96 14.656C798.424 13.888 785.624 8.768 785.24 8.256C784.344 6.976 785.24 5.696 786.648 5.312C793.432 3.52 807 13.12 809.304 19.264ZM797.016 94.016C799.832 95.168 814.936 98.112 815.32 98.752C818.008 102.848 810.584 118.72 805.848 119.872C798.296 121.664 783.832 109.248 779.352 103.744C773.336 104.384 762.712 104.512 757.08 102.336C739.672 95.68 734.936 69.44 732.504 53.312C731.48 46.144 730.456 38.976 731.736 31.808C732.888 25.664 736.088 19.648 741.08 15.808C745.432 12.48 750.808 11.2 756.184 10.56C764.76 9.66399 773.592 10.176 781.912 12.352C811.224 20.16 814.68 43.584 807.256 69.568C804.824 78.016 801.88 86.592 797.016 94.016ZM765.528 72.896C784.088 82.24 787.032 49.088 782.808 43.328C781.4 41.408 779.352 40 777.176 38.976C773.72 37.312 765.4 35.904 762.072 38.336C755.8 43.072 758.616 69.44 765.528 72.896ZM890.177 96.064C887.105 101.824 880.961 105.536 874.433 105.536C862.017 105.536 832.705 101.696 826.561 89.408C824.385 84.928 824.385 79.808 824.513 74.944C824.641 68.544 829.121 17.6 831.425 15.552C833.729 13.376 842.433 13.76 845.633 13.888C847.041 13.888 853.697 14.144 854.593 14.528C855.745 14.912 856.257 15.808 856.513 16.96C856.641 17.344 851.777 42.56 851.265 45.76C850.113 53.952 846.401 73.792 859.329 73.92C862.657 73.92 866.113 70.976 867.265 68.032C871.233 57.536 861.761 18.752 865.601 14.016C867.649 11.456 885.825 11.712 888.769 12.864C889.793 13.248 890.561 13.632 890.689 14.784C890.945 16.448 891.073 18.24 891.329 19.904C893.121 32.576 895.937 61.76 895.041 73.792C894.529 81.216 893.761 89.408 890.177 96.064ZM824.769 98.88C826.817 98.496 827.713 100.928 826.305 102.208C823.233 105.152 821.313 97.6 824.769 98.88ZM860.225 113.728C854.593 116.288 835.649 111.168 830.913 107.2C829.633 106.176 831.041 103.36 833.217 104.256C837.313 105.92 841.153 107.2 845.377 108.096C849.345 108.992 857.665 108.864 860.481 110.272C862.017 111.04 861.633 113.088 860.225 113.728ZM930.97 79.168C938.394 80.832 954.138 78.016 961.306 75.328C961.946 75.072 963.098 74.432 963.61 75.328C963.866 75.84 963.994 77.888 964.122 78.528C965.018 84.672 965.914 91.84 965.53 97.984C965.402 99.264 962.074 100.416 961.05 100.8C947.61 105.792 924.314 108.224 912.538 98.368C897.69 85.952 909.466 34.496 910.234 17.856C914.202 14.528 962.714 9.66399 964.506 11.84C965.53 13.12 965.018 30.912 965.018 33.856C965.018 35.776 965.658 39.104 962.97 39.36C953.114 40.128 942.746 38.72 933.018 39.872C932.506 40.896 931.994 48.96 931.866 50.624C933.914 50.624 951.066 50.368 951.45 50.752C951.962 51.392 951.962 52.672 951.962 53.44C951.962 57.152 952.346 61.504 951.962 65.088C951.834 66.112 951.578 66.88 950.426 67.136C946.842 68.16 934.042 67.648 929.818 67.392C929.946 71.36 930.074 75.328 930.97 79.168ZM961.946 108.992C959.642 109.248 958.746 106.56 961.178 105.536C964.634 104.128 965.53 108.608 961.946 108.992ZM939.418 113.984C935.066 114.624 927.642 114.112 923.546 112.192C922.266 111.552 918.554 110.016 918.298 108.352C918.042 106.56 919.834 105.664 921.242 106.56C923.802 108.096 927.898 108.992 930.842 109.504C941.978 111.552 953.114 107.072 955.418 107.456C957.21 107.712 956.954 109.76 955.418 110.4C950.682 112.32 944.41 113.216 939.418 113.984ZM1022.35 102.848C1003.66 108.224 979.722 104 978.442 80.448C978.314 79.04 978.314 77.632 979.466 76.608C981.642 74.688 1000.2 71.488 1001.48 74.048C1003.15 77.248 1000.46 84.032 1007.37 84.032C1012.87 84.032 1014.54 77.504 1012.62 73.28C1006.09 58.432 970.122 64.704 973.45 37.184C974.858 25.664 984.458 16.704 994.698 12.48C1007.11 7.488 1023.37 7.35999 1034.89 14.528C1042.7 19.392 1047.31 26.944 1047.95 36.032C1048.07 38.592 1048.33 42.944 1045.26 43.968C1043.34 44.608 1025.8 46.272 1023.75 46.016C1022.22 45.888 1020.94 45.76 1020.68 43.968C1019.79 38.464 1019.91 31.424 1013.26 29.12C1007.11 27.072 995.722 32.448 998.666 40.128C1001.35 47.424 1035.27 50.496 1041.55 71.36C1045.64 85.056 1035.4 99.008 1022.35 102.848ZM1017.48 96.832C1015.69 99.008 1018.38 101.568 1020.81 100.8C1029.77 97.856 1037.58 90.176 1038.35 80.576C1038.99 73.536 1033.23 75.2 1033.23 78.144C1033.23 81.216 1032.84 83.008 1031.69 85.824C1028.62 93.248 1018.51 95.552 1017.48 96.832ZM1009.67 101.696C1011.21 103.104 1013.64 102.208 1014.03 100.288C1015.05 94.912 1005.71 97.984 1009.67 101.696ZM1079.8 105.408C1076.48 107.072 1076.6 97.6 1076.48 95.808C1075.58 80.448 1074.04 50.752 1076.09 36.16C1069.95 36.8 1062.65 38.72 1056.64 38.592C1054.97 38.592 1054.2 37.312 1053.69 35.904C1052.92 33.472 1053.31 11.968 1054.08 9.66399C1054.46 8.63999 1054.97 7.616 1055.87 7.104C1057.28 6.20799 1060.99 6.71999 1062.65 6.976C1083.13 9.536 1103.87 7.616 1124.48 9.536C1127.04 9.79199 1127.42 10.176 1128.7 12.224C1128.7 17.088 1128.83 32.192 1125.5 35.264C1123.71 36.928 1120.89 36.928 1118.59 36.928C1114.49 36.928 1110.52 36.544 1106.43 37.056C1106.56 58.176 1107.96 79.04 1108.86 100.16C1108.86 100.928 1108.86 102.848 1108.22 103.36C1107.58 103.872 1105.4 104 1104.51 104C1099.77 104 1081.72 105.664 1079.8 105.408ZM1088.38 18.368C1089.28 18.624 1114.11 17.088 1114.62 16.832C1116.28 15.808 1115.9 12.736 1114.11 12.096C1113.47 11.84 1088.76 13.248 1087.74 13.888C1086.08 15.04 1086.33 17.728 1088.38 18.368ZM1120.25 17.088C1121.66 18.24 1123.71 17.344 1124.22 15.68C1126.14 9.66399 1115.39 13.248 1120.25 17.088Z" fill="white"/>
<g filter="url(#filter0_d_2375_4)">
<path d="M1214.43 204.302C1243.73 201.016 1274.46 225.248 1291.48 243.306C1308.5 261.364 1175.66 237.469 1234.75 264.592C1293.85 291.714 1189.01 287.143 1127.33 270.792C1065.65 254.441 1066.65 241.963 1016.6 224.76C966.554 207.557 1035.61 210.269 1055.74 220.576C1075.87 230.882 1097.55 250.488 1125.1 250.488C1136.88 250.488 1140.9 241.612 1129.49 234.989C1118.07 228.366 1096.09 230.185 1098.25 227.472C1100.4 224.76 1117.97 215.721 1132.79 217.786C1146.62 219.714 1155.36 226.352 1169.05 234.989C1190.66 248.629 1229.58 235.222 1222.48 224.76C1216.79 216.391 1193.44 221.273 1182.48 224.76C1180.92 219.31 1185.14 207.588 1214.43 204.302Z" fill="url(#paint0_radial_2375_4)"/>
</g>
<g filter="url(#filter1_d_2375_4)">
<path d="M203.567 204.302C174.269 201.016 143.537 225.248 126.519 243.306C109.501 261.364 242.343 237.469 183.245 264.592C124.148 291.714 228.987 287.143 290.669 270.792C352.352 254.441 351.346 241.963 401.396 224.76C451.446 207.557 382.391 210.269 362.261 220.576C342.131 230.882 320.451 250.488 292.895 250.488C281.119 250.488 277.098 241.612 288.515 234.989C299.932 228.366 321.905 230.185 319.751 227.472C317.597 224.76 300.033 215.721 285.212 217.786C271.376 219.714 262.636 226.352 248.949 234.989C227.335 248.629 188.415 235.222 195.524 224.76C201.212 216.391 224.559 221.273 235.521 224.76C237.077 219.31 232.864 207.588 203.567 204.302Z" fill="url(#paint1_radial_2375_4)"/>
</g>
<g filter="url(#filter2_d_2375_4)">
<path d="M1088.46 222.298C1117.65 219.053 1148.28 242.983 1165.24 260.815C1182.2 278.647 1049.81 255.051 1108.71 281.834C1167.61 308.618 1063.12 304.103 1001.65 287.957C940.174 271.81 941.176 259.489 891.295 242.501C841.415 225.513 910.236 228.191 930.298 238.368C950.36 248.546 971.967 267.907 999.43 267.907C1011.17 267.907 1015.17 259.142 1003.8 252.602C992.416 246.062 970.518 247.857 972.665 245.179C974.812 242.501 992.316 233.575 1007.09 235.614C1020.88 237.517 1029.59 244.073 1043.23 252.602C1064.77 266.071 1103.56 252.831 1096.47 242.501C1090.8 234.236 1067.54 239.057 1056.61 242.501C1055.06 237.118 1059.26 225.543 1088.46 222.298Z" fill="url(#paint2_radial_2375_4)"/>
</g>
<g filter="url(#filter3_d_2375_4)">
<path d="M335.508 222.298C306.31 219.053 275.682 242.983 258.721 260.815C241.76 278.647 374.153 255.051 315.256 281.834C256.358 308.618 360.842 304.103 422.317 287.957C483.791 271.81 482.789 259.489 532.669 242.501C582.55 225.513 513.729 228.191 493.667 238.368C473.605 248.546 451.998 267.907 424.535 267.907C412.798 267.907 408.791 259.142 420.17 252.602C431.548 246.062 453.447 247.857 451.3 245.179C449.153 242.501 431.649 233.575 416.878 235.614C403.089 237.517 394.378 244.073 380.737 252.602C359.196 266.071 320.408 252.831 327.493 242.501C333.161 234.236 356.429 239.057 367.355 242.501C368.905 237.118 364.707 225.543 335.508 222.298Z" fill="url(#paint3_radial_2375_4)"/>
</g>
<g filter="url(#filter4_d_2375_4)">
<path d="M482.891 244.302C453.594 241.016 422.862 265.248 405.843 283.306C388.825 301.364 521.667 277.469 462.57 304.592C403.472 331.714 510.537 335.851 572.219 319.5C633.902 303.149 630.671 281.963 680.72 264.76C730.77 247.557 660.042 247.48 639.912 257.786C619.782 268.093 599.775 290.488 572.219 290.488C560.443 290.488 556.422 281.612 567.839 274.989C579.257 268.366 601.23 270.185 599.075 267.472C596.921 264.76 579.357 255.721 564.536 257.786C550.701 259.714 541.96 266.352 528.273 274.989C506.659 288.629 467.74 275.222 474.849 264.76C480.536 256.391 503.883 261.273 514.845 264.76C516.401 259.31 512.188 247.588 482.891 244.302Z" fill="url(#paint4_radial_2375_4)"/>
</g>
<g filter="url(#filter5_d_2375_4)">
<path d="M920.46 244.302C949.659 241.016 980.287 265.248 997.248 283.306C1014.21 301.364 881.815 277.469 940.713 304.592C999.611 331.714 892.908 334.351 831.434 318C769.96 301.649 773.18 281.963 723.299 264.76C673.419 247.557 748.579 247.48 768.641 257.786C788.703 268.093 803.971 290.488 831.434 290.488C843.17 290.488 847.178 281.612 835.799 274.989C824.42 268.366 802.522 270.185 804.669 267.472C806.815 264.76 824.32 255.721 839.091 257.786C852.88 259.714 861.591 266.352 875.231 274.989C896.772 288.629 935.561 275.222 928.476 264.76C922.808 256.391 899.54 261.273 888.614 264.76C887.063 259.31 891.262 247.588 920.46 244.302Z" fill="url(#paint5_radial_2375_4)"/>
</g>
<g filter="url(#filter6_d_2375_4)">
<path d="M544.718 281.731C546.336 294.361 523.685 291.612 513.822 296.207C503.96 300.803 530.277 306.991 544.718 311.727C559.159 316.463 541.149 350.159 551.354 359.369C561.559 368.58 566.669 332.881 573.023 317.726C579.377 302.57 622.672 331.385 632.232 317.726C641.793 304.067 599.286 303.229 591.095 291.792C582.904 280.356 606.557 252.611 598.719 248.258C594.402 245.861 585.154 267.208 577.067 275.417C568.98 283.626 551.904 232.671 541.252 233.739C530.601 234.807 542.697 265.945 544.718 281.731Z" fill="url(#paint6_linear_2375_4)"/>
</g>
<g filter="url(#filter7_d_2375_4)">
<path d="M556.354 311.271C555.173 306.16 513.089 303.024 517.982 298.714C522.876 294.404 541.896 294.283 547.491 291.527C553.086 288.771 539.901 243.51 543.696 242.805C547.491 242.101 565.057 277.781 573.077 280.193C581.097 282.605 593.44 249.249 597.325 252.04C601.21 254.831 583.481 287.678 583.947 291.527C584.412 295.377 623.738 307.493 625.495 314.604C627.252 321.715 579.41 308.162 575.084 309.808C570.758 311.454 560.988 354.494 554.24 356.817C547.491 359.141 557.536 316.381 556.354 311.271Z" fill="url(#paint7_linear_2375_4)"/>
</g>
<path d="M531.455 297.95C530.488 300.487 534.356 301.333 534.937 299.642C535.517 297.95 531.455 296.259 531.455 297.95Z" fill="#D9D9D9"/>
<path d="M552.519 299.972C553.533 297.457 549.682 296.526 549.07 298.203C548.458 299.881 552.487 301.663 552.519 299.972Z" fill="#D9D9D9"/>
<path d="M542.363 299.745C543.377 297.231 539.525 296.299 538.914 297.977C538.302 299.655 542.331 301.436 542.363 299.745Z" fill="#D9D9D9"/>
<path d="M558.006 279.853C557.039 282.39 560.907 283.235 561.487 281.544C562.068 279.853 558.006 278.162 558.006 279.853Z" fill="#D9D9D9"/>
<path d="M552.85 269.997C551.883 272.534 555.751 273.38 556.331 271.688C556.911 269.997 552.85 268.306 552.85 269.997Z" fill="#D9D9D9"/>
<path d="M577.108 284.154C576.141 286.69 580.009 287.536 580.589 285.845C581.169 284.154 577.108 282.463 577.108 284.154Z" fill="#D9D9D9"/>
<path d="M582.022 276.583C581.055 279.12 584.923 279.965 585.503 278.274C586.083 276.583 582.022 274.892 582.022 276.583Z" fill="#D9D9D9"/>
<path d="M587.76 266.728C586.793 269.265 590.661 270.11 591.241 268.419C591.822 266.728 587.76 265.037 587.76 266.728Z" fill="#D9D9D9"/>
<path d="M586.71 305.066C589.108 305.893 589.533 301.605 587.94 301.125C586.348 300.644 585.17 305.217 586.71 305.066Z" fill="#D9D9D9"/>
<path d="M599.931 305.5C598.662 303.127 595.713 305.992 596.598 307.517C597.483 309.043 601.165 306.519 599.931 305.5Z" fill="#D9D9D9"/>
<path d="M607.193 308.747C606.226 311.284 610.095 312.13 610.675 310.438C611.255 308.747 607.193 307.056 607.193 308.747Z" fill="#D9D9D9"/>
<path d="M563.442 322.299C563.344 319.552 559.509 320.563 559.633 322.364C559.757 324.165 564.092 323.833 563.442 322.299Z" fill="#D9D9D9"/>
<path d="M569.651 308.958C573.041 313.018 577.711 306.067 575.397 303.488C573.084 300.909 566.847 307.529 569.651 308.958Z" fill="#741F5E" stroke="#D9D9D9" stroke-width="2"/>
<path d="M556.549 288.038C552.082 285.516 549.907 293.806 552.896 295.347C555.884 296.888 559.632 288.315 556.549 288.038Z" fill="#741F5E" stroke="#D9D9D9" stroke-width="2"/>
<path d="M573.033 283.815C572.366 278.367 564.904 281.166 565.46 284.727C566.016 288.288 574.591 286.737 573.033 283.815Z" fill="#741F5E" stroke="#D9D9D9" stroke-width="2"/>
<path d="M556.313 303.846C554.379 308.92 562.115 310.61 563.275 307.228C564.436 303.846 556.313 300.464 556.313 303.846Z" fill="#741F5E" stroke="#D9D9D9" stroke-width="2"/>
<path d="M580.522 296.531C581.862 291.233 573.993 290.611 573.228 294.125C572.462 297.639 580.908 299.887 580.522 296.531Z" fill="#741F5E" stroke="#D9D9D9" stroke-width="2"/>
<path d="M561.515 331.582C560.629 329.01 557.282 331.292 557.919 332.958C558.557 334.625 562.575 332.814 561.515 331.582Z" fill="#D9D9D9"/>
<path d="M559.75 342.168C559.63 339.423 555.803 340.471 555.942 342.27C556.08 344.07 560.413 343.696 559.75 342.168Z" fill="#D9D9D9"/>
<path d="M549.158 257.993C548.191 260.53 552.06 261.376 552.64 259.685C553.22 257.993 549.158 256.302 549.158 257.993Z" fill="#D9D9D9"/>
<path d="M563.222 294.643C563.104 295.091 559.36 296.105 559.537 296.617C559.715 297.128 563.739 297.327 564.018 297.722C564.296 298.117 564.46 302.263 564.957 302.304C565.454 302.345 566.421 298.351 566.98 298.117C567.54 297.884 570.329 298.512 571.171 298.117C572.014 297.722 568.209 294.643 568.209 294.643C568.209 294.643 570.043 291.272 569.798 290.534C569.554 289.796 566.123 292.606 565.752 292.588C565.381 292.57 562.662 289.225 562.139 289.429C561.615 289.633 563.341 294.194 563.222 294.643Z" fill="#D9D9D9"/>
<g filter="url(#filter8_d_2375_4)">
<path d="M871.254 271.585C869.637 284.214 892.288 281.465 902.15 286.061C912.013 290.656 885.696 296.844 871.254 301.58C856.813 306.316 874.823 340.013 864.618 349.223C854.413 358.433 849.304 322.735 842.95 307.579C836.595 292.424 793.301 321.238 783.74 307.579C774.18 293.92 816.686 293.082 824.878 281.646C833.069 270.21 809.415 242.464 817.254 238.111C821.571 235.714 830.819 257.061 838.906 265.271C846.993 273.48 864.069 222.525 874.72 223.593C885.372 224.661 873.276 255.798 871.254 271.585Z" fill="url(#paint8_linear_2375_4)"/>
</g>
<g filter="url(#filter9_d_2375_4)">
<path d="M859.618 301.124C860.8 296.014 902.884 292.877 897.991 288.567C893.097 284.258 874.076 284.136 868.482 281.381C862.887 278.625 876.072 233.363 872.277 232.659C868.482 231.955 850.916 267.635 842.896 270.046C834.876 272.458 822.532 239.103 818.648 241.893C814.763 244.684 832.491 277.531 832.026 281.381C831.56 285.23 792.235 297.347 790.478 304.458C788.721 311.568 836.563 298.016 840.889 299.662C845.215 301.308 854.985 344.347 861.733 346.671C868.482 348.994 858.437 306.235 859.618 301.124Z" fill="url(#paint9_linear_2375_4)"/>
</g>
<path d="M884.517 287.804C885.484 290.341 881.616 291.186 881.036 289.495C880.456 287.804 884.517 286.113 884.517 287.804Z" fill="#D9D9D9"/>
<path d="M863.454 289.827C862.439 287.313 866.291 286.381 866.903 288.059C867.515 289.737 863.485 291.518 863.454 289.827Z" fill="#D9D9D9"/>
<path d="M873.61 289.599C872.596 287.084 876.447 286.153 877.059 287.83C877.671 289.508 873.642 291.29 873.61 289.599Z" fill="#D9D9D9"/>
<path d="M857.967 269.708C858.934 272.245 855.065 273.09 854.485 271.399C853.905 269.708 857.967 268.017 857.967 269.708Z" fill="#D9D9D9"/>
<path d="M863.123 259.853C864.09 262.39 860.222 263.235 859.641 261.544C859.061 259.853 863.123 258.162 863.123 259.853Z" fill="#D9D9D9"/>
<path d="M838.865 274.007C839.832 276.544 835.964 277.389 835.384 275.698C834.803 274.007 838.865 272.316 838.865 274.007Z" fill="#D9D9D9"/>
<path d="M833.951 266.435C834.918 268.972 831.05 269.817 830.47 268.126C829.889 266.435 833.951 264.744 833.951 266.435Z" fill="#D9D9D9"/>
<path d="M828.213 256.579C829.18 259.116 825.312 259.962 824.731 258.27C824.151 256.579 828.213 254.888 828.213 256.579Z" fill="#D9D9D9"/>
<path d="M829.262 294.92C826.865 295.746 826.44 291.459 828.032 290.978C829.625 290.497 830.803 295.071 829.262 294.92Z" fill="#D9D9D9"/>
<path d="M816.042 295.353C817.311 292.981 820.259 295.845 819.375 297.371C818.49 298.896 814.808 296.372 816.042 295.353Z" fill="#D9D9D9"/>
<path d="M808.779 298.601C809.746 301.138 805.878 301.983 805.298 300.292C804.717 298.601 808.779 296.91 808.779 298.601Z" fill="#D9D9D9"/>
<path d="M852.531 312.15C852.629 309.404 856.463 310.415 856.34 312.216C856.216 314.017 851.88 313.685 852.531 312.15Z" fill="#D9D9D9"/>
<path d="M846.321 298.809C842.932 302.869 838.262 295.919 840.575 293.34C842.889 290.761 849.125 297.38 846.321 298.809Z" fill="#741F5E" stroke="#D9D9D9" stroke-width="2"/>
<path d="M859.424 277.892C863.891 275.369 866.065 283.659 863.077 285.201C860.089 286.742 856.34 278.169 859.424 277.892Z" fill="#741F5E" stroke="#D9D9D9" stroke-width="2"/>
<path d="M842.94 273.667C843.606 268.219 851.068 271.018 850.513 274.579C849.957 278.139 841.381 276.589 842.94 273.667Z" fill="#741F5E" stroke="#D9D9D9" stroke-width="2"/>
<path d="M859.66 293.702C861.594 298.775 853.858 300.466 852.697 297.084C851.537 293.702 859.66 290.32 859.66 293.702Z" fill="#741F5E" stroke="#D9D9D9" stroke-width="2"/>
<path d="M835.451 286.385C834.111 281.087 841.979 280.465 842.745 283.979C843.51 287.493 835.065 289.74 835.451 286.385Z" fill="#741F5E" stroke="#D9D9D9" stroke-width="2"/>
<path d="M854.458 321.438C855.344 318.866 858.691 321.148 858.053 322.814C857.416 324.48 853.398 322.669 854.458 321.438Z" fill="#D9D9D9"/>
<path d="M856.223 332.021C856.343 329.276 860.17 330.324 860.031 332.124C859.893 333.924 855.56 333.549 856.223 332.021Z" fill="#D9D9D9"/>
<path d="M866.814 247.847C867.781 250.384 863.913 251.229 863.333 249.538C862.753 247.847 866.814 246.156 866.814 247.847Z" fill="#D9D9D9"/>
<path d="M852.75 284.496C852.869 284.945 856.613 285.958 856.435 286.47C856.258 286.982 852.234 287.181 851.955 287.576C851.677 287.971 851.513 292.116 851.016 292.157C850.518 292.199 849.552 288.204 848.992 287.971C848.433 287.738 845.644 288.366 844.801 287.971C843.959 287.576 847.764 284.496 847.764 284.496C847.764 284.496 845.93 281.126 846.174 280.388C846.419 279.65 849.85 282.459 850.221 282.441C850.592 282.424 853.31 279.078 853.834 279.282C854.357 279.487 852.631 284.048 852.75 284.496Z" fill="#D9D9D9"/>
<g filter="url(#filter10_d_2375_4)">
<path d="M682.8 241.575C679.872 253.324 658.086 240.064 646.512 239.323C634.937 238.582 659.169 256.59 671.982 267.636C684.796 278.682 654.534 299.313 661.474 312.213C668.414 325.113 686.426 296.55 698.281 286.433C710.136 276.315 743.28 322.129 757.819 314.851C772.359 307.573 729.918 286.443 725.806 272.575C721.693 258.708 755.484 245.955 749.171 238.411C745.695 234.257 728.697 248.364 717.605 251.615C706.512 254.866 707.718 202.4 696.622 198.216C685.526 194.031 686.46 226.889 682.8 241.575Z" fill="url(#paint10_linear_2375_4)"/>
</g>
<g filter="url(#filter11_d_2375_4)">
<path d="M683.848 272.825C684.503 267.818 643.316 244.894 649.791 243.498C656.266 242.103 675.436 251.126 682.056 251.417C688.675 251.708 691.739 206.056 695.81 207.266C699.88 208.475 704.676 247.905 711.871 253.85C719.066 259.795 743.507 236.739 746.407 241.029C749.307 245.318 719.634 265.347 718.714 268.915C717.794 272.483 752.968 301.884 752.17 308.905C751.373 315.926 708.152 281.19 703.209 280.544C698.265 279.897 672.92 312.601 665.296 311.381C657.672 310.161 683.193 277.832 683.848 272.825Z" fill="url(#paint11_linear_2375_4)"/>
</g>
<path d="M663.61 249.3C661.722 251.04 665.307 253.631 666.501 252.44C667.694 251.249 664.22 247.831 663.61 249.3Z" fill="#D9D9D9"/>
<path d="M684.065 261.166C685.992 259.469 682.455 256.81 681.235 257.974C680.014 259.138 683.423 262.62 684.065 261.166Z" fill="#D9D9D9"/>
<path d="M673.928 256.092C675.855 254.394 672.318 251.736 671.098 252.9C669.878 254.064 673.287 257.546 673.928 256.092Z" fill="#D9D9D9"/>
<path d="M696.84 246.321C694.953 248.061 698.538 250.652 699.731 249.462C700.924 248.271 697.45 244.852 696.84 246.321Z" fill="#D9D9D9"/>
<path d="M695.203 235.284C693.316 237.024 696.901 239.615 698.094 238.424C699.288 237.234 695.813 233.815 695.203 235.284Z" fill="#D9D9D9"/>
<path d="M714.492 259.224C712.605 260.964 716.19 263.555 717.383 262.364C718.577 261.173 715.102 257.754 714.492 259.224Z" fill="#D9D9D9"/>
<path d="M722.168 255.007C720.281 256.747 723.866 259.338 725.059 258.147C726.253 256.956 722.778 253.538 722.168 255.007Z" fill="#D9D9D9"/>
<path d="M731.492 249.198C729.605 250.938 733.19 253.529 734.383 252.338C735.577 251.148 732.102 247.729 731.492 249.198Z" fill="#D9D9D9"/>
<path d="M716.606 282.002C718.719 283.87 720.692 280.35 719.264 279.167C717.836 277.985 715.002 281.393 716.606 282.002Z" fill="#D9D9D9"/>
<path d="M729.746 288.726C729.326 286.055 725.328 287.129 725.667 288.879C726.006 290.629 730.62 290.204 729.746 288.726Z" fill="#D9D9D9"/>
<path d="M735.867 295.03C733.98 296.77 737.565 299.361 738.758 298.171C739.952 296.98 736.477 293.561 735.867 295.03Z" fill="#D9D9D9"/>
<path d="M686.995 285.805C687.887 283.372 683.666 282.41 683.141 284.034C682.616 285.658 687.096 287.45 686.995 285.805Z" fill="#D9D9D9"/>
<path d="M698.051 277.197C699.995 282.351 707.198 278.553 705.802 275.202C704.405 271.851 695.747 274.609 698.051 277.197Z" fill="#741F5E" stroke="#D9D9D9" stroke-width="2"/>
<path d="M692.423 252.734C688.841 248.398 683.664 254.557 686.113 257.33C688.562 260.103 695.423 254.454 692.423 252.734Z" fill="#741F5E" stroke="#D9D9D9" stroke-width="2"/>
<path d="M710.52 256.973C711.815 251.92 703.302 250.77 702.576 254.13C701.851 257.491 711.034 260.259 710.52 256.973Z" fill="#741F5E" stroke="#D9D9D9" stroke-width="2"/>
<path d="M686.485 266.356C682.711 269.835 689.88 275.017 692.267 272.636C694.653 270.254 687.705 263.417 686.485 266.356Z" fill="#741F5E" stroke="#D9D9D9" stroke-width="2"/>
<path d="M713.466 271.617C716.724 267.657 709.036 263.34 706.999 266.026C704.963 268.711 712.644 274.718 713.466 271.617Z" fill="#741F5E" stroke="#D9D9D9" stroke-width="2"/>
<path d="M681.713 292.951C681.749 290.291 677.561 290.668 677.601 292.421C677.641 294.175 682.334 294.53 681.713 292.951Z" fill="#D9D9D9"/>
<path d="M676.114 301.297C676.983 298.854 672.757 297.928 672.247 299.558C671.737 301.188 676.229 302.942 676.114 301.297Z" fill="#D9D9D9"/>
<path d="M695.821 223.081C693.933 224.821 697.518 227.412 698.712 226.221C699.905 225.031 696.43 221.612 695.821 223.081Z" fill="#D9D9D9"/>
<path d="M696.746 261.673C696.465 262.005 692.335 261.089 692.329 261.619C692.322 262.149 696.298 264.253 696.435 264.73C696.573 265.207 695.242 268.887 695.728 269.161C696.213 269.436 698.625 266.429 699.272 266.495C699.919 266.561 702.496 268.445 703.486 268.506C704.476 268.568 701.76 264.066 701.76 264.066C701.76 264.066 704.82 262.018 704.84 261.259C704.861 260.501 700.397 261.295 700.031 261.101C699.664 260.908 698.137 256.696 697.537 256.623C696.937 256.549 697.027 261.34 696.746 261.673Z" fill="#D9D9D9"/>
<path d="M617.209 133L615.749 138.68H612.409L614.789 133H617.209ZM621.489 133L620.029 138.68H616.689L619.069 133H621.489ZM622.666 148V134H633.706V136.98H626.106V139.5H631.126V142.38H626.106V145.02H633.786V148H622.666ZM635.65 148V137.42H638.89V138.14C639.69 137.527 640.637 137.22 641.73 137.22C642.557 137.22 643.284 137.4 643.91 137.76C644.55 138.12 645.05 138.62 645.41 139.26C645.77 139.9 645.95 140.64 645.95 141.48V148H642.71V141.92C642.71 141.333 642.537 140.867 642.19 140.52C641.844 140.173 641.377 140 640.79 140C640.377 140 640.01 140.073 639.69 140.22C639.384 140.367 639.117 140.573 638.89 140.84V148H635.65ZM652.924 148.14C651.657 148.14 650.697 147.86 650.044 147.3C649.404 146.727 649.084 145.887 649.084 144.78V140.12H646.944V137.42H649.084V134.7L652.324 134V137.42H655.284V140.12H652.324V144.14C652.324 144.607 652.424 144.94 652.624 145.14C652.837 145.327 653.204 145.42 653.724 145.42C653.991 145.42 654.231 145.407 654.444 145.38C654.671 145.34 654.917 145.28 655.184 145.2V147.82C654.891 147.913 654.517 147.987 654.064 148.04C653.611 148.107 653.231 148.14 652.924 148.14ZM656.549 148V137.42H659.789V138.48C660.135 138.053 660.542 137.733 661.009 137.52C661.475 137.293 661.995 137.18 662.569 137.18C663.142 137.193 663.549 137.28 663.789 137.44V140.26C663.575 140.153 663.335 140.073 663.069 140.02C662.802 139.967 662.529 139.94 662.249 139.94C661.742 139.94 661.269 140.06 660.829 140.3C660.402 140.527 660.055 140.853 659.789 141.28V148H656.549ZM670.169 148.2C669.089 148.2 668.109 147.96 667.229 147.48C666.362 146.987 665.675 146.327 665.169 145.5C664.662 144.673 664.409 143.747 664.409 142.72C664.409 141.693 664.649 140.767 665.129 139.94C665.622 139.113 666.289 138.46 667.129 137.98C667.969 137.487 668.902 137.24 669.929 137.24C670.969 137.24 671.889 137.493 672.689 138C673.489 138.493 674.115 139.173 674.569 140.04C675.035 140.907 675.269 141.9 675.269 143.02V143.82H667.729C667.875 144.153 668.069 144.447 668.309 144.7C668.562 144.953 668.862 145.153 669.209 145.3C669.555 145.433 669.929 145.5 670.329 145.5C670.769 145.5 671.169 145.433 671.529 145.3C671.889 145.153 672.195 144.953 672.449 144.7L674.589 146.6C673.922 147.16 673.235 147.567 672.529 147.82C671.835 148.073 671.049 148.2 670.169 148.2ZM667.669 141.56H672.089C671.982 141.213 671.815 140.92 671.589 140.68C671.375 140.427 671.122 140.233 670.829 140.1C670.535 139.953 670.215 139.88 669.869 139.88C669.509 139.88 669.182 139.947 668.889 140.08C668.595 140.213 668.342 140.407 668.129 140.66C667.929 140.9 667.775 141.2 667.669 141.56ZM676.783 152.08V137.42H679.983V138.2C680.823 137.587 681.77 137.28 682.823 137.28C683.837 137.28 684.75 137.527 685.563 138.02C686.377 138.5 687.023 139.153 687.503 139.98C687.983 140.793 688.223 141.707 688.223 142.72C688.223 143.733 687.977 144.653 687.483 145.48C687.003 146.293 686.343 146.94 685.503 147.42C684.677 147.9 683.75 148.14 682.723 148.14C682.23 148.14 681.757 148.08 681.303 147.96C680.85 147.84 680.423 147.667 680.023 147.44V152.08H676.783ZM682.263 145.4C682.797 145.4 683.27 145.287 683.683 145.06C684.097 144.82 684.423 144.5 684.663 144.1C684.917 143.687 685.043 143.227 685.043 142.72C685.043 142.213 684.917 141.76 684.663 141.36C684.423 140.947 684.09 140.627 683.663 140.4C683.25 140.16 682.783 140.04 682.263 140.04C681.81 140.04 681.397 140.113 681.023 140.26C680.65 140.393 680.317 140.6 680.023 140.88V144.58C680.303 144.833 680.637 145.033 681.023 145.18C681.41 145.327 681.823 145.4 682.263 145.4ZM689.752 148V137.42H692.992V138.48C693.339 138.053 693.745 137.733 694.212 137.52C694.679 137.293 695.199 137.18 695.772 137.18C696.345 137.193 696.752 137.28 696.992 137.44V140.26C696.779 140.153 696.539 140.073 696.272 140.02C696.005 139.967 695.732 139.94 695.452 139.94C694.945 139.94 694.472 140.06 694.032 140.3C693.605 140.527 693.259 140.853 692.992 141.28V148H689.752ZM703.372 148.2C702.292 148.2 701.312 147.96 700.432 147.48C699.565 146.987 698.878 146.327 698.372 145.5C697.865 144.673 697.612 143.747 697.612 142.72C697.612 141.693 697.852 140.767 698.332 139.94C698.825 139.113 699.492 138.46 700.332 137.98C701.172 137.487 702.105 137.24 703.132 137.24C704.172 137.24 705.092 137.493 705.892 138C706.692 138.493 707.318 139.173 707.772 140.04C708.238 140.907 708.472 141.9 708.472 143.02V143.82H700.932C701.078 144.153 701.272 144.447 701.512 144.7C701.765 144.953 702.065 145.153 702.412 145.3C702.758 145.433 703.132 145.5 703.532 145.5C703.972 145.5 704.372 145.433 704.732 145.3C705.092 145.153 705.398 144.953 705.652 144.7L707.792 146.6C707.125 147.16 706.438 147.567 705.732 147.82C705.038 148.073 704.252 148.2 703.372 148.2ZM700.872 141.56H705.292C705.185 141.213 705.018 140.92 704.792 140.68C704.578 140.427 704.325 140.233 704.032 140.1C703.738 139.953 703.418 139.88 703.072 139.88C702.712 139.88 702.385 139.947 702.092 140.08C701.798 140.213 701.545 140.407 701.332 140.66C701.132 140.9 700.978 141.2 700.872 141.56ZM709.986 148V137.42H713.226V138.14C714.026 137.527 714.973 137.22 716.066 137.22C716.893 137.22 717.62 137.4 718.246 137.76C718.886 138.12 719.386 138.62 719.746 139.26C720.106 139.9 720.286 140.64 720.286 141.48V148H717.046V141.92C717.046 141.333 716.873 140.867 716.526 140.52C716.18 140.173 715.713 140 715.126 140C714.713 140 714.346 140.073 714.026 140.22C713.72 140.367 713.453 140.573 713.226 140.84V148H709.986ZM727.493 148.2C726.413 148.2 725.433 147.96 724.553 147.48C723.686 146.987 723 146.327 722.493 145.5C721.986 144.673 721.733 143.747 721.733 142.72C721.733 141.693 721.973 140.767 722.453 139.94C722.946 139.113 723.613 138.46 724.453 137.98C725.293 137.487 726.226 137.24 727.253 137.24C728.293 137.24 729.213 137.493 730.013 138C730.813 138.493 731.44 139.173 731.893 140.04C732.36 140.907 732.593 141.9 732.593 143.02V143.82H725.053C725.2 144.153 725.393 144.447 725.633 144.7C725.886 144.953 726.186 145.153 726.533 145.3C726.88 145.433 727.253 145.5 727.653 145.5C728.093 145.5 728.493 145.433 728.853 145.3C729.213 145.153 729.52 144.953 729.773 144.7L731.913 146.6C731.246 147.16 730.56 147.567 729.853 147.82C729.16 148.073 728.373 148.2 727.493 148.2ZM724.993 141.56H729.413C729.306 141.213 729.14 140.92 728.913 140.68C728.7 140.427 728.446 140.233 728.153 140.1C727.86 139.953 727.54 139.88 727.193 139.88C726.833 139.88 726.506 139.947 726.213 140.08C725.92 140.213 725.666 140.407 725.453 140.66C725.253 140.9 725.1 141.2 724.993 141.56ZM738.247 148.2C737.421 148.2 736.687 148.02 736.047 147.66C735.421 147.3 734.927 146.8 734.567 146.16C734.207 145.507 734.027 144.767 734.027 143.94V137.42H737.267V143.5C737.267 144.073 737.441 144.54 737.787 144.9C738.147 145.247 738.614 145.42 739.187 145.42C739.601 145.42 739.967 145.347 740.287 145.2C740.607 145.053 740.874 144.847 741.087 144.58V137.42H744.327V148H741.087V147.28C740.287 147.893 739.341 148.2 738.247 148.2ZM746.334 148V137.42H749.574V138.48C749.921 138.053 750.327 137.733 750.794 137.52C751.261 137.293 751.781 137.18 752.354 137.18C752.927 137.193 753.334 137.28 753.574 137.44V140.26C753.361 140.153 753.121 140.073 752.854 140.02C752.587 139.967 752.314 139.94 752.034 139.94C751.527 139.94 751.054 140.06 750.614 140.3C750.187 140.527 749.841 140.853 749.574 141.28V148H746.334ZM759.362 148.2C758.362 148.2 757.435 148.087 756.582 147.86C755.728 147.62 754.988 147.273 754.362 146.82L755.902 144.64C756.568 145.04 757.175 145.333 757.722 145.52C758.268 145.693 758.808 145.78 759.342 145.78C759.875 145.78 760.295 145.707 760.602 145.56C760.922 145.4 761.082 145.193 761.082 144.94C761.082 144.74 760.995 144.58 760.822 144.46C760.648 144.327 760.375 144.233 760.002 144.18L757.902 143.86C756.848 143.7 756.042 143.353 755.482 142.82C754.935 142.273 754.662 141.567 754.662 140.7C754.662 139.98 754.842 139.367 755.202 138.86C755.575 138.34 756.102 137.947 756.782 137.68C757.462 137.4 758.275 137.26 759.222 137.26C759.995 137.26 760.762 137.367 761.522 137.58C762.282 137.793 762.988 138.113 763.642 138.54L762.102 140.62C761.528 140.287 760.982 140.047 760.462 139.9C759.942 139.74 759.422 139.66 758.902 139.66C758.488 139.66 758.155 139.733 757.902 139.88C757.648 140.013 757.522 140.193 757.522 140.42C757.522 140.633 757.615 140.807 757.802 140.94C757.988 141.06 758.308 141.153 758.762 141.22L760.862 141.54C761.902 141.687 762.702 142.033 763.262 142.58C763.835 143.113 764.122 143.793 764.122 144.62C764.122 145.313 763.915 145.927 763.502 146.46C763.088 146.993 762.522 147.42 761.802 147.74C761.095 148.047 760.282 148.2 759.362 148.2ZM765.357 148V134L768.597 133.3V138.14C769.397 137.527 770.344 137.22 771.437 137.22C772.264 137.22 772.991 137.4 773.617 137.76C774.257 138.12 774.757 138.62 775.117 139.26C775.477 139.9 775.657 140.64 775.657 141.48V148H772.417V141.92C772.417 141.333 772.244 140.867 771.897 140.52C771.551 140.173 771.084 140 770.497 140C770.084 140 769.717 140.073 769.397 140.22C769.091 140.367 768.824 140.573 768.597 140.84V148H765.357ZM777.584 148V137.42H780.824V148H777.584ZM779.204 136.44C778.711 136.44 778.291 136.267 777.944 135.92C777.597 135.573 777.424 135.153 777.424 134.66C777.424 134.167 777.597 133.747 777.944 133.4C778.291 133.053 778.711 132.88 779.204 132.88C779.697 132.88 780.117 133.053 780.464 133.4C780.811 133.747 780.984 134.167 780.984 134.66C780.984 135.153 780.811 135.573 780.464 135.92C780.117 136.267 779.697 136.44 779.204 136.44ZM782.818 152.08V137.42H786.018V138.2C786.858 137.587 787.805 137.28 788.858 137.28C789.872 137.28 790.785 137.527 791.598 138.02C792.412 138.5 793.058 139.153 793.538 139.98C794.018 140.793 794.258 141.707 794.258 142.72C794.258 143.733 794.012 144.653 793.518 145.48C793.038 146.293 792.378 146.94 791.538 147.42C790.712 147.9 789.785 148.14 788.758 148.14C788.265 148.14 787.792 148.08 787.338 147.96C786.885 147.84 786.458 147.667 786.058 147.44V152.08H782.818ZM788.298 145.4C788.832 145.4 789.305 145.287 789.718 145.06C790.132 144.82 790.458 144.5 790.698 144.1C790.952 143.687 791.078 143.227 791.078 142.72C791.078 142.213 790.952 141.76 790.698 141.36C790.458 140.947 790.125 140.627 789.698 140.4C789.285 140.16 788.818 140.04 788.298 140.04C787.845 140.04 787.432 140.113 787.058 140.26C786.685 140.393 786.352 140.6 786.058 140.88V144.58C786.338 144.833 786.672 145.033 787.058 145.18C787.445 145.327 787.858 145.4 788.298 145.4ZM798.794 138.68L800.254 133H803.594L801.214 138.68H798.794ZM794.514 138.68L795.974 133H799.314L796.934 138.68H794.514Z" fill="white"/>
<defs>
<filter id="filter0_d_2375_4" x="873.762" y="83" width="544.238" height="330" filterUnits="userSpaceOnUse" color-interpolation-filters="sRGB">
<feFlood flood-opacity="0" result="BackgroundImageFix"/>
<feColorMatrix in="SourceAlpha" type="matrix" values="0 0 0 0 0 0 0 0 0 0 0 0 0 0 0 0 0 0 127 0" result="hardAlpha"/>
<feOffset dy="4"/>
<feGaussianBlur stdDeviation="62.5"/>
<feComposite in2="hardAlpha" operator="out"/>
<feColorMatrix type="matrix" values="0 0 0 0 0.602456 0 0 0 0 0.862489 0 0 0 0 0.9525 0 0 0 0.54 0"/>
<feBlend mode="normal" in2="BackgroundImageFix" result="effect1_dropShadow_2375_4"/>
<feBlend mode="normal" in="SourceGraphic" in2="effect1_dropShadow_2375_4" result="shape"/>
</filter>
<filter id="filter1_d_2375_4" x="0" y="83" width="544.238" height="330" filterUnits="userSpaceOnUse" color-interpolation-filters="sRGB">
<feFlood flood-opacity="0" result="BackgroundImageFix"/>
<feColorMatrix in="SourceAlpha" type="matrix" values="0 0 0 0 0 0 0 0 0 0 0 0 0 0 0 0 0 0 127 0" result="hardAlpha"/>
<feOffset dy="4"/>
<feGaussianBlur stdDeviation="62.5"/>
<feComposite in2="hardAlpha" operator="out"/>
<feColorMatrix type="matrix" values="0 0 0 0 0.602456 0 0 0 0 0.862489 0 0 0 0 0.9525 0 0 0 0.54 0"/>
<feBlend mode="normal" in2="BackgroundImageFix" result="effect1_dropShadow_2375_4"/>
<feBlend mode="normal" in="SourceGraphic" in2="effect1_dropShadow_2375_4" result="shape"/>
</filter>
<filter id="filter2_d_2375_4" x="748.516" y="101" width="543.242" height="329" filterUnits="userSpaceOnUse" color-interpolation-filters="sRGB">
<feFlood flood-opacity="0" result="BackgroundImageFix"/>
<feColorMatrix in="SourceAlpha" type="matrix" values="0 0 0 0 0 0 0 0 0 0 0 0 0 0 0 0 0 0 127 0" result="hardAlpha"/>
<feOffset dy="4"/>
<feGaussianBlur stdDeviation="62.5"/>
<feComposite in2="hardAlpha" operator="out"/>
<feColorMatrix type="matrix" values="0 0 0 0 0.602456 0 0 0 0 0.862489 0 0 0 0 0.9525 0 0 0 0.54 0"/>
<feBlend mode="normal" in2="BackgroundImageFix" result="effect1_dropShadow_2375_4"/>
<feBlend mode="normal" in="SourceGraphic" in2="effect1_dropShadow_2375_4" result="shape"/>
</filter>
<filter id="filter3_d_2375_4" x="132.207" y="101" width="543.242" height="329" filterUnits="userSpaceOnUse" color-interpolation-filters="sRGB">
<feFlood flood-opacity="0" result="BackgroundImageFix"/>
<feColorMatrix in="SourceAlpha" type="matrix" values="0 0 0 0 0 0 0 0 0 0 0 0 0 0 0 0 0 0 127 0" result="hardAlpha"/>
<feOffset dy="4"/>
<feGaussianBlur stdDeviation="62.5"/>
<feComposite in2="hardAlpha" operator="out"/>
<feColorMatrix type="matrix" values="0 0 0 0 0.602456 0 0 0 0 0.862489 0 0 0 0 0.9525 0 0 0 0.54 0"/>
<feBlend mode="normal" in2="BackgroundImageFix" result="effect1_dropShadow_2375_4"/>
<feBlend mode="normal" in="SourceGraphic" in2="effect1_dropShadow_2375_4" result="shape"/>
</filter>
<filter id="filter4_d_2375_4" x="279.324" y="123" width="543.965" height="335.135" filterUnits="userSpaceOnUse" color-interpolation-filters="sRGB">
<feFlood flood-opacity="0" result="BackgroundImageFix"/>
<feColorMatrix in="SourceAlpha" type="matrix" values="0 0 0 0 0 0 0 0 0 0 0 0 0 0 0 0 0 0 127 0" result="hardAlpha"/>
<feOffset dy="4"/>
<feGaussianBlur stdDeviation="62.5"/>
<feComposite in2="hardAlpha" operator="out"/>
<feColorMatrix type="matrix" values="0 0 0 0 0.602456 0 0 0 0 0.862489 0 0 0 0 0.9525 0 0 0 0.54 0"/>
<feBlend mode="normal" in2="BackgroundImageFix" result="effect1_dropShadow_2375_4"/>
<feBlend mode="normal" in="SourceGraphic" in2="effect1_dropShadow_2375_4" result="shape"/>
</filter>
<filter id="filter5_d_2375_4" x="581.5" y="123" width="542.262" height="334.158" filterUnits="userSpaceOnUse" color-interpolation-filters="sRGB">
<feFlood flood-opacity="0" result="BackgroundImageFix"/>
<feColorMatrix in="SourceAlpha" type="matrix" values="0 0 0 0 0 0 0 0 0 0 0 0 0 0 0 0 0 0 127 0" result="hardAlpha"/>
<feOffset dy="4"/>
<feGaussianBlur stdDeviation="62.5"/>
<feComposite in2="hardAlpha" operator="out"/>
<feColorMatrix type="matrix" values="0 0 0 0 0.602456 0 0 0 0 0.862489 0 0 0 0 0.9525 0 0 0 0.54 0"/>
<feBlend mode="normal" in2="BackgroundImageFix" result="effect1_dropShadow_2375_4"/>
<feBlend mode="normal" in="SourceGraphic" in2="effect1_dropShadow_2375_4" result="shape"/>
</filter>
<filter id="filter6_d_2375_4" x="421.764" y="147.823" width="301.761" height="306.943" filterUnits="userSpaceOnUse" color-interpolation-filters="sRGB">
<feFlood flood-opacity="0" result="BackgroundImageFix"/>
<feColorMatrix in="SourceAlpha" type="matrix" values="0 0 0 0 0 0 0 0 0 0 0 0 0 0 0 0 0 0 127 0" result="hardAlpha"/>
<feOffset dy="4"/>
<feGaussianBlur stdDeviation="44.95"/>
<feComposite in2="hardAlpha" operator="out"/>
<feColorMatrix type="matrix" values="0 0 0 0 0.407843 0 0 0 0 0.0941176 0 0 0 0 0.129412 0 0 0 1 0"/>
<feBlend mode="normal" in2="BackgroundImageFix" result="effect1_dropShadow_2375_4"/>
<feBlend mode="normal" in="SourceGraphic" in2="effect1_dropShadow_2375_4" result="shape"/>
</filter>
<filter id="filter7_d_2375_4" x="414.786" y="143.995" width="313.557" height="319.713" filterUnits="userSpaceOnUse" color-interpolation-filters="sRGB">
<feFlood flood-opacity="0" result="BackgroundImageFix"/>
<feColorMatrix in="SourceAlpha" type="matrix" values="0 0 0 0 0 0 0 0 0 0 0 0 0 0 0 0 0 0 127 0" result="hardAlpha"/>
<feOffset dy="4"/>
<feGaussianBlur stdDeviation="51.4"/>
<feComposite in2="hardAlpha" operator="out"/>
<feColorMatrix type="matrix" values="0 0 0 0 0.847059 0 0 0 0 0.709804 0 0 0 0 0.458824 0 0 0 1 0"/>
<feBlend mode="normal" in2="BackgroundImageFix" result="effect1_dropShadow_2375_4"/>
<feBlend mode="normal" in="SourceGraphic" in2="effect1_dropShadow_2375_4" result="shape"/>
</filter>
<filter id="filter8_d_2375_4" x="692.448" y="137.676" width="301.761" height="306.943" filterUnits="userSpaceOnUse" color-interpolation-filters="sRGB">
<feFlood flood-opacity="0" result="BackgroundImageFix"/>
<feColorMatrix in="SourceAlpha" type="matrix" values="0 0 0 0 0 0 0 0 0 0 0 0 0 0 0 0 0 0 127 0" result="hardAlpha"/>
<feOffset dy="4"/>
<feGaussianBlur stdDeviation="44.95"/>
<feComposite in2="hardAlpha" operator="out"/>
<feColorMatrix type="matrix" values="0 0 0 0 0.407843 0 0 0 0 0.0941176 0 0 0 0 0.129412 0 0 0 1 0"/>
<feBlend mode="normal" in2="BackgroundImageFix" result="effect1_dropShadow_2375_4"/>
<feBlend mode="normal" in="SourceGraphic" in2="effect1_dropShadow_2375_4" result="shape"/>
</filter>
<filter id="filter9_d_2375_4" x="687.63" y="133.848" width="313.557" height="319.713" filterUnits="userSpaceOnUse" color-interpolation-filters="sRGB">
<feFlood flood-opacity="0" result="BackgroundImageFix"/>
<feColorMatrix in="SourceAlpha" type="matrix" values="0 0 0 0 0 0 0 0 0 0 0 0 0 0 0 0 0 0 127 0" result="hardAlpha"/>
<feOffset dy="4"/>
<feGaussianBlur stdDeviation="51.4"/>
<feComposite in2="hardAlpha" operator="out"/>
<feColorMatrix type="matrix" values="0 0 0 0 0.847059 0 0 0 0 0.709804 0 0 0 0 0.458824 0 0 0 1 0"/>
<feBlend mode="normal" in2="BackgroundImageFix" result="effect1_dropShadow_2375_4"/>
<feBlend mode="normal" in="SourceGraphic" in2="effect1_dropShadow_2375_4" result="shape"/>
</filter>
<filter id="filter10_d_2375_4" x="553.565" y="111.95" width="297.175" height="297.589" filterUnits="userSpaceOnUse" color-interpolation-filters="sRGB">
<feFlood flood-opacity="0" result="BackgroundImageFix"/>
<feColorMatrix in="SourceAlpha" type="matrix" values="0 0 0 0 0 0 0 0 0 0 0 0 0 0 0 0 0 0 127 0" result="hardAlpha"/>
<feOffset dy="4"/>
<feGaussianBlur stdDeviation="44.95"/>
<feComposite in2="hardAlpha" operator="out"/>
<feColorMatrix type="matrix" values="0 0 0 0 0.407843 0 0 0 0 0.0941176 0 0 0 0 0.129412 0 0 0 1 0"/>
<feBlend mode="normal" in2="BackgroundImageFix" result="effect1_dropShadow_2375_4"/>
<feBlend mode="normal" in="SourceGraphic" in2="effect1_dropShadow_2375_4" result="shape"/>
</filter>
<filter id="filter11_d_2375_4" x="546.302" y="108.442" width="308.682" height="309.772" filterUnits="userSpaceOnUse" color-interpolation-filters="sRGB">
<feFlood flood-opacity="0" result="BackgroundImageFix"/>
<feColorMatrix in="SourceAlpha" type="matrix" values="0 0 0 0 0 0 0 0 0 0 0 0 0 0 0 0 0 0 127 0" result="hardAlpha"/>
<feOffset dy="4"/>
<feGaussianBlur stdDeviation="51.4"/>
<feComposite in2="hardAlpha" operator="out"/>
<feColorMatrix type="matrix" values="0 0 0 0 0.847059 0 0 0 0 0.709804 0 0 0 0 0.458824 0 0 0 1 0"/>
<feBlend mode="normal" in2="BackgroundImageFix" result="effect1_dropShadow_2375_4"/>
<feBlend mode="normal" in="SourceGraphic" in2="effect1_dropShadow_2375_4" result="shape"/>
</filter>
<radialGradient id="paint0_radial_2375_4" cx="0" cy="0" r="1" gradientUnits="userSpaceOnUse" gradientTransform="translate(1230.73 233.697) rotate(178.617) scale(263.251 69.5695)">
<stop stop-color="#75D7D6"/>
<stop offset="0.288144" stop-color="#3CC1EC"/>
<stop offset="0.836667" stop-color="#C213BB"/>
<stop offset="1" stop-color="#D575D7"/>
</radialGradient>
<radialGradient id="paint1_radial_2375_4" cx="0" cy="0" r="1" gradientUnits="userSpaceOnUse" gradientTransform="translate(187.268 233.697) rotate(1.38316) scale(263.251 69.5695)">
<stop stop-color="#75D7D6"/>
<stop offset="0.288144" stop-color="#3CC1EC"/>
<stop offset="0.836667" stop-color="#C213BB"/>
<stop offset="1" stop-color="#D575D7"/>
</radialGradient>
<radialGradient id="paint2_radial_2375_4" cx="0" cy="0" r="1" gradientUnits="userSpaceOnUse" gradientTransform="translate(1104.7 251.326) rotate(178.629) scale(262.36 68.7002)">
<stop stop-color="#75D7D6"/>
<stop offset="0.288144" stop-color="#3CC1EC"/>
<stop offset="0.836667" stop-color="#C213BB"/>
<stop offset="1" stop-color="#D575D7"/>
</radialGradient>
<radialGradient id="paint3_radial_2375_4" cx="0" cy="0" r="1" gradientUnits="userSpaceOnUse" gradientTransform="translate(319.265 251.326) rotate(1.37051) scale(262.36 68.7002)">
<stop stop-color="#75D7D6"/>
<stop offset="0.288144" stop-color="#3CC1EC"/>
<stop offset="0.836667" stop-color="#C213BB"/>
<stop offset="1" stop-color="#D575D7"/>
</radialGradient>
<radialGradient id="paint4_radial_2375_4" cx="0" cy="0" r="1" gradientUnits="userSpaceOnUse" gradientTransform="translate(466.592 273.697) rotate(1.38316) scale(263.251 69.5695)">
<stop stop-color="#75D7D6"/>
<stop offset="0.288144" stop-color="#3CC1EC"/>
<stop offset="0.836667" stop-color="#C213BB"/>
<stop offset="1" stop-color="#D575D7"/>
</radialGradient>
<radialGradient id="paint5_radial_2375_4" cx="0" cy="0" r="1" gradientUnits="userSpaceOnUse" gradientTransform="translate(936.704 273.697) rotate(178.612) scale(262.362 69.5693)">
<stop stop-color="#75D7D6"/>
<stop offset="0.288144" stop-color="#3CC1EC"/>
<stop offset="0.836667" stop-color="#C213BB"/>
<stop offset="1" stop-color="#D575D7"/>
</radialGradient>
<linearGradient id="paint6_linear_2375_4" x1="571.48" y1="233.484" x2="571.48" y2="364.287" gradientUnits="userSpaceOnUse">
<stop stop-color="#71D0CF"/>
<stop offset="0.305" stop-color="#5BA7A6"/>
<stop offset="0.78" stop-color="#75D7D6"/>
</linearGradient>
<linearGradient id="paint7_linear_2375_4" x1="569.572" y1="241.702" x2="574.131" y2="356.046" gradientUnits="userSpaceOnUse">
<stop offset="0.485" stop-color="#B32169"/>
<stop offset="1" stop-color="#3029BA"/>
</linearGradient>
<linearGradient id="paint8_linear_2375_4" x1="844.492" y1="223.338" x2="844.492" y2="354.141" gradientUnits="userSpaceOnUse">
<stop stop-color="#71D0CF"/>
<stop offset="0.305" stop-color="#5BA7A6"/>
<stop offset="0.78" stop-color="#75D7D6"/>
</linearGradient>
<linearGradient id="paint9_linear_2375_4" x1="846.4" y1="231.556" x2="841.841" y2="345.9" gradientUnits="userSpaceOnUse">
<stop offset="0.485" stop-color="#B32169"/>
<stop offset="1" stop-color="#3029BA"/>
</linearGradient>
<linearGradient id="paint10_linear_2375_4" x1="727.11" y1="212.502" x2="674.179" y2="323.397" gradientUnits="userSpaceOnUse">
<stop stop-color="#71D0CF"/>
<stop offset="0.305" stop-color="#5BA7A6"/>
<stop offset="0.78" stop-color="#75D7D6"/>
</linearGradient>
<linearGradient id="paint11_linear_2375_4" x1="722.228" y1="218.727" x2="679.127" y2="317.443" gradientUnits="userSpaceOnUse">
<stop offset="0.485" stop-color="#B32169"/>
<stop offset="1" stop-color="#3029BA"/>
</linearGradient>
</defs>
</svg>
