<svg width="1030" height="396" viewBox="0 0 1030 396" fill="none" xmlns="http://www.w3.org/2000/svg">
<rect x="5" y="5" width="1020" height="322" rx="33" fill="white" stroke="url(#paint0_linear_2362_77)" stroke-width="10"/>
<g filter="url(#filter0_d_2362_77)">
<path d="M358.161 177.202C338.267 165.209 304.324 178.521 283.336 190.232C262.348 201.943 370.876 220.034 314.804 227.414C258.732 234.793 337.633 262.435 390.508 265.919C443.384 269.403 448.543 257.425 493.306 256.57C538.069 255.715 486.24 237.228 466.636 240.741C447.032 244.253 421.9 255.993 401.73 247.604C393.109 244.018 394.359 234.491 405.845 231.772C417.331 229.053 432.556 237.443 432.261 234.25C431.965 231.057 423.379 217.254 411.554 214.674C400.516 212.265 390.982 215.813 376.883 219.726C354.618 225.904 332.463 201.513 342.609 193.892C350.726 187.794 365.509 199.469 371.886 206.069C375.6 201.444 378.054 189.196 358.161 177.202Z" fill="url(#paint1_radial_2362_77)"/>
</g>
<g filter="url(#filter1_d_2362_77)">
<path d="M673.839 176.784C693.733 164.791 727.676 178.103 748.664 189.814C769.652 201.525 661.124 219.616 717.196 226.996C773.268 234.375 694.367 262.017 641.492 265.501C588.616 268.985 583.457 257.007 538.694 256.152C493.931 255.297 545.76 236.81 565.364 240.323C584.968 243.835 610.1 255.575 630.27 247.186C638.891 243.6 637.641 234.073 626.155 231.354C614.669 228.635 599.444 237.025 599.739 233.832C600.035 230.639 608.621 216.836 620.446 214.256C631.484 211.847 641.018 215.395 655.117 219.308C677.382 225.486 699.537 201.095 689.391 193.474C681.274 187.376 666.491 199.051 660.114 205.651C656.4 201.026 653.946 188.778 673.839 176.784Z" fill="url(#paint2_radial_2362_77)"/>
</g>
<g filter="url(#filter2_d_2362_77)">
<path d="M799.011 174.202C818.904 162.209 852.848 175.521 873.836 187.232C894.824 198.943 786.296 217.034 842.368 224.414C898.44 231.793 819.539 259.435 766.664 262.919C713.788 266.403 708.629 254.425 663.866 253.57C619.103 252.715 670.932 234.228 690.536 237.741C710.14 241.253 735.272 252.993 755.442 244.604C764.063 241.018 762.813 231.491 751.327 228.772C739.841 226.053 724.616 234.443 724.911 231.25C725.207 228.057 733.793 214.254 745.618 211.674C756.656 209.265 766.19 212.813 780.289 216.726C802.554 222.904 824.709 198.513 814.563 190.892C806.446 184.794 791.663 196.469 785.286 203.069C781.572 198.444 779.118 186.196 799.011 174.202Z" fill="url(#paint3_radial_2362_77)"/>
</g>
<g filter="url(#filter3_d_2362_77)">
<path d="M225.161 177.202C205.267 165.209 171.324 178.521 150.336 190.232C129.348 201.943 237.876 220.034 181.804 227.414C125.732 234.793 204.633 262.435 257.508 265.919C310.384 269.403 315.543 257.425 360.306 256.57C405.069 255.715 353.24 237.228 333.636 240.741C314.032 244.253 288.9 255.993 268.73 247.604C260.109 244.018 261.359 234.491 272.845 231.772C284.331 229.053 299.556 237.443 299.261 234.25C298.965 231.057 290.379 217.254 278.554 214.674C267.516 212.265 257.982 215.813 243.883 219.726C221.618 225.904 199.463 201.513 209.609 193.892C217.726 187.794 232.509 199.469 238.886 206.069C242.6 201.444 245.054 189.196 225.161 177.202Z" fill="url(#paint4_radial_2362_77)"/>
</g>
<path d="M343.593 91.456C343.785 92.096 343.465 102.72 343.657 104.768C343.721 105.792 344.553 108.48 342.825 108.48C339.241 108.48 335.208 108.224 331.689 107.84C329.897 107.648 331.689 105.344 330.025 103.488C326.889 99.968 322.153 103.36 320.617 106.56C318.633 110.72 318.505 116.16 320.617 120.256C321.961 122.944 325.033 125.632 328.233 124.16C330.665 123.072 330.921 120.832 331.817 118.656C332.201 117.76 341.289 118.848 342.697 119.168C343.657 119.36 344.361 119.68 344.361 120.768C344.361 137.536 321.128 141.376 310.825 131.008C301.736 121.856 302.184 103.872 311.401 94.976C318.441 88.128 330.409 87.36 339.497 89.664C340.521 89.92 342.953 90.56 343.593 91.456ZM324.137 135.04C324.777 135.104 327.017 135.168 327.593 135.04C329.257 134.592 328.681 132.288 327.337 132.416C321.065 132.992 316.457 130.24 312.617 125.568C311.465 124.224 309.609 125.632 310.569 127.104C313.449 131.584 319.017 134.336 324.137 135.04ZM330.217 131.84C329.129 134.08 333.225 134.464 332.649 132.096C332.329 130.944 330.729 130.752 330.217 131.84ZM374.714 86.464C374.522 88.704 371.386 86.784 373.114 85.504C374.01 84.8 374.842 85.312 374.714 86.464ZM388.09 93.632C388.474 94.656 387.322 95.104 386.682 94.272C385.722 92.992 384.89 92.032 383.418 91.328C382.65 90.944 376.25 88.384 376.058 88.128C375.61 87.488 376.058 86.848 376.762 86.656C380.154 85.76 386.938 90.56 388.09 93.632ZM372.09 136C369.274 136.192 363.962 136.192 361.466 134.976C353.018 130.88 350.97 118.912 349.69 110.656C349.114 107.072 348.666 103.488 349.306 99.904C350.458 93.248 355.066 89.984 361.53 89.28C365.818 88.768 370.234 89.088 374.394 90.176C379.386 91.52 384.442 94.208 386.81 99.008C387.898 101.312 388.346 103.808 388.538 106.368C389.05 113.856 385.082 131.328 377.786 134.912C376.058 135.744 374.01 135.872 372.09 136ZM366.202 120.448C375.482 125.12 376.954 108.544 374.842 105.664C374.138 104.704 373.114 104 372.026 103.488C370.298 102.656 366.138 101.952 364.474 103.168C361.338 105.536 362.746 118.72 366.202 120.448ZM415.858 115.072C416.498 112.832 423.282 90.816 424.434 90.304C425.201 89.984 434.738 90.944 435.122 91.712C435.378 92.224 435.378 94.144 435.442 94.848C436.21 106.304 437.426 117.952 439.282 129.28C439.41 130.112 440.37 134.656 439.986 135.104C439.602 135.552 430.898 136 429.682 136.128C428.786 136.256 426.354 136.896 425.906 135.744C424.882 132.992 424.626 116.736 424.562 112.896C423.858 114.624 419.314 128.256 419.314 128.256C418.674 128.96 413.042 128.384 411.698 128.448C410.098 128.576 410.098 126.272 409.842 125.12C408.882 121.024 407.794 116.928 406.898 112.768C405.874 120 405.49 127.296 404.914 134.592C404.85 135.168 404.85 136.256 404.082 136.384C403.762 136.448 401.97 135.744 401.522 135.616C398.898 134.848 394.29 133.824 391.602 133.888C391.09 133.696 391.218 132.416 391.346 131.968C394.161 119.168 396.402 106.496 398.578 93.632C398.642 93.12 398.77 92.544 399.154 92.16C399.922 91.392 409.906 89.408 410.29 89.984C410.418 90.176 410.482 91.264 410.546 91.584C411.698 99.52 413.682 107.328 415.858 115.072ZM431.922 104.064C432.434 105.408 434.354 104.96 434.418 103.552C434.482 101.184 434.226 93.696 431.73 92.608C431.026 92.288 428.466 92.16 427.634 92.16C425.714 92.16 424.818 93.888 426.418 94.592C427.25 94.976 430.258 94.528 430.77 95.04C431.73 95.936 431.41 102.656 431.922 104.064ZM432.562 109.184C433.33 109.76 434.546 109.312 434.674 108.352C435.058 105.536 430.322 107.392 432.562 109.184ZM460.752 89.28C461.008 89.728 460.688 90.304 460.176 90.368C459.728 90.432 459.344 90.112 458.896 90.048C456.464 89.664 453.84 90.496 451.536 90.176C451.088 90.112 450.384 89.856 450.384 89.344C450.384 87.04 459.792 87.424 460.752 89.28ZM448.848 90.56C447.44 92.352 445.584 88.064 448.08 88.32C449.104 88.448 449.424 89.792 448.848 90.56ZM451.792 136.576C450.768 136.576 447.888 136.704 447.12 136C446.672 135.552 446.608 134.848 446.544 134.272C446.288 131.648 444.88 95.616 444.944 95.296C445.392 93.504 454.736 93.248 456.528 93.248C457.232 93.248 459.152 93.184 459.728 93.504C460.816 94.08 460.624 96.512 460.624 97.536L460.688 135.104C460.688 135.744 460.432 136.064 459.856 136.256C459.024 136.512 453.136 136.576 451.792 136.576ZM505.53 91.456C505.722 92.096 505.402 102.72 505.594 104.768C505.658 105.792 506.49 108.48 504.762 108.48C501.178 108.48 497.146 108.224 493.626 107.84C491.834 107.648 493.626 105.344 491.962 103.488C488.826 99.968 484.09 103.36 482.554 106.56C480.57 110.72 480.442 116.16 482.554 120.256C483.898 122.944 486.97 125.632 490.17 124.16C492.602 123.072 492.858 120.832 493.754 118.656C494.138 117.76 503.226 118.848 504.634 119.168C505.594 119.36 506.298 119.68 506.298 120.768C506.298 137.536 483.066 141.376 472.762 131.008C463.674 121.856 464.122 103.872 473.338 94.976C480.378 88.128 492.346 87.36 501.434 89.664C502.458 89.92 504.89 90.56 505.53 91.456ZM486.074 135.04C486.714 135.104 488.954 135.168 489.53 135.04C491.194 134.592 490.618 132.288 489.274 132.416C483.002 132.992 478.394 130.24 474.554 125.568C473.402 124.224 471.546 125.632 472.506 127.104C475.386 131.584 480.954 134.336 486.074 135.04ZM492.154 131.84C491.066 134.08 495.162 134.464 494.586 132.096C494.266 130.944 492.666 130.752 492.154 131.84ZM552.651 86.464C552.459 88.704 549.323 86.784 551.051 85.504C551.947 84.8 552.779 85.312 552.651 86.464ZM566.027 93.632C566.411 94.656 565.259 95.104 564.619 94.272C563.659 92.992 562.827 92.032 561.355 91.328C560.587 90.944 554.187 88.384 553.995 88.128C553.547 87.488 553.995 86.848 554.699 86.656C558.091 85.76 564.875 90.56 566.027 93.632ZM559.883 131.008C561.291 131.584 568.843 133.056 569.035 133.376C570.379 135.424 566.667 143.36 564.299 143.936C560.523 144.832 553.291 138.624 551.051 135.872C548.043 136.192 542.731 136.256 539.915 135.168C531.211 131.84 528.843 118.72 527.627 110.656C527.115 107.072 526.603 103.488 527.243 99.904C527.819 96.832 529.419 93.824 531.915 91.904C534.091 90.24 536.779 89.6 539.467 89.28C543.755 88.832 548.171 89.088 552.331 90.176C566.987 94.08 568.715 105.792 565.003 118.784C563.787 123.008 562.315 127.296 559.883 131.008ZM544.139 120.448C553.419 125.12 554.891 108.544 552.779 105.664C552.075 104.704 551.051 104 549.963 103.488C548.235 102.656 544.075 101.952 542.411 103.168C539.275 105.536 540.683 118.72 544.139 120.448ZM606.656 132.032C605.12 134.912 602.048 136.768 598.784 136.768C592.576 136.768 577.92 134.848 574.848 128.704C573.76 126.464 573.76 123.904 573.824 121.472C573.888 118.272 576.128 92.8 577.28 91.776C578.432 90.688 582.784 90.88 584.384 90.944C585.088 90.944 588.416 91.072 588.864 91.264C589.44 91.456 589.696 91.904 589.824 92.48C589.888 92.672 587.456 105.28 587.2 106.88C586.624 110.976 584.768 120.896 591.232 120.96C592.896 120.96 594.624 119.488 595.2 118.016C597.184 112.768 592.448 93.376 594.368 91.008C595.392 89.728 604.479 89.856 605.951 90.432C606.464 90.624 606.847 90.816 606.912 91.392C607.04 92.224 607.104 93.12 607.232 93.952C608.128 100.288 609.536 114.88 609.088 120.896C608.832 124.608 608.448 128.704 606.656 132.032ZM573.952 133.44C574.976 133.248 575.424 134.464 574.72 135.104C573.184 136.576 572.224 132.8 573.952 133.44ZM591.68 140.864C588.864 142.144 579.392 139.584 577.024 137.6C576.384 137.088 577.088 135.68 578.176 136.128C580.224 136.96 582.144 137.6 584.256 138.048C586.24 138.496 590.4 138.432 591.808 139.136C592.576 139.52 592.384 140.544 591.68 140.864ZM627.807 123.584C629.343 123.776 631.199 123.776 632.799 123.712C635.551 123.584 638.367 123.008 640.991 122.24C641.759 122.048 642.719 121.6 643.487 121.472C644.319 121.344 644.255 122.432 644.319 123.008C644.511 124.352 645.343 132.48 645.023 133.12C644.831 133.632 644.191 133.888 643.743 134.08C637.151 136.96 624.479 138.112 618.591 133.184C614.495 129.792 614.815 122.432 615.007 117.568C615.135 114.816 616.671 93.312 617.695 92.672C619.231 91.712 642.719 88.832 644.062 89.6C644.575 89.856 644.767 90.304 644.831 90.88C645.023 92.416 645.023 102.976 644.319 103.552C643.487 103.872 631.199 103.744 628.831 103.936L628.703 104.192L628.255 109.312C629.791 109.312 636.895 109.12 637.727 109.312C638.559 109.504 638.431 115.776 638.239 116.864C638.175 117.184 637.791 117.44 637.535 117.568C634.079 117.888 630.687 117.888 627.231 117.696C627.295 119.68 627.359 121.664 627.807 123.584ZM644.255 137.984C641.951 139.648 641.311 136.384 643.615 136.704C644.191 136.768 644.895 137.472 644.255 137.984ZM631.583 141.056C629.471 141.312 627.167 141.12 625.119 140.544C624.287 140.288 621.983 139.2 621.599 138.496C621.343 137.984 621.535 137.152 622.175 137.088C622.303 137.088 624.927 138.112 625.375 138.24C627.679 138.944 630.111 139.328 632.543 139.136C634.975 138.944 637.215 138.24 639.583 137.792C640.735 137.536 641.119 138.752 640.031 139.2C637.471 140.16 634.271 140.736 631.583 141.056ZM673.803 135.488C667.787 137.28 660.043 137.28 655.435 132.352C653.515 130.304 651.786 126.336 651.915 123.52C651.915 122.88 652.043 122.368 652.555 121.92C653.451 121.024 662.411 119.488 663.307 120.32C663.819 120.832 663.691 121.6 663.691 122.24C663.691 124.864 666.059 127.04 668.363 125.056C670.027 123.648 669.707 121.024 668.619 119.424C664.203 112.896 647.947 115.136 649.419 101.824C649.995 96.832 653.707 92.352 658.059 89.984C668.619 84.352 686.219 87.232 686.923 101.44C686.987 102.784 686.795 104.704 685.387 105.216C684.171 105.664 676.491 106.176 674.827 106.176C674.187 106.176 673.163 106.176 673.163 105.28C673.163 102.144 672.331 97.92 668.555 97.408C664.843 96.896 659.211 101.184 662.987 104.576C663.435 105.024 664.075 105.28 664.651 105.536C668.811 107.2 672.843 108.352 676.619 110.912C682.123 114.56 686.027 120.128 683.275 126.912C681.675 130.88 677.899 134.272 673.803 135.488ZM672.395 134.4C674.059 134.784 678.859 130.944 679.947 129.664C680.971 128.448 681.419 126.976 681.803 125.44C681.995 124.544 682.379 122.56 681.675 121.856C681.099 121.28 679.947 121.408 679.562 122.176C679.115 123.072 679.562 125.504 678.411 127.36C676.427 130.56 672.651 131.264 671.691 132.16C670.923 132.864 671.435 134.144 672.395 134.4ZM668.171 135.104C669.771 135.68 670.603 133.184 669.003 132.608C667.339 131.968 666.507 134.528 668.171 135.104ZM702.643 136.704C700.979 137.536 701.043 132.8 700.979 131.904C700.531 124.224 699.763 109.376 700.787 102.08C697.715 102.4 694.067 103.36 691.059 103.296C690.227 103.296 689.843 102.656 689.587 101.952C689.203 100.736 689.395 89.984 689.779 88.832C689.971 88.32 690.227 87.808 690.674 87.552C691.379 87.104 693.235 87.36 694.067 87.488C704.307 88.768 714.675 87.808 724.979 88.768C726.259 88.896 726.451 89.088 727.091 90.112C727.091 92.544 727.155 100.096 725.491 101.632C724.595 102.464 723.187 102.464 722.035 102.464C719.987 102.464 718.003 102.272 715.955 102.528C716.019 113.088 716.723 123.52 717.171 134.08C717.171 134.464 717.171 135.424 716.851 135.68C716.531 135.936 715.443 136 714.995 136C712.627 136 703.603 136.832 702.643 136.704ZM706.931 93.184C707.378 93.312 719.795 92.544 720.051 92.416C720.882 91.904 720.691 90.368 719.795 90.048C719.475 89.92 707.123 90.624 706.611 90.944C705.779 91.52 705.907 92.864 706.931 93.184ZM722.867 92.544C723.571 93.12 724.595 92.672 724.851 91.84C725.811 88.832 720.435 90.624 722.867 92.544Z" fill="url(#paint5_radial_2362_77)"/>
<path d="M529.632 235.796C519.392 238.835 513.002 248.6 511.087 253.103C514.103 258.183 518.501 254.721 531.775 248.823C588.587 230.759 577.293 179.866 562.851 178.727C548.409 177.588 561.603 202.704 552.471 209.783C543.339 216.863 547.663 200.963 537.97 205.648C528.276 210.332 542.433 231.998 529.632 235.796Z" fill="url(#paint6_linear_2362_77)"/>
<path d="M517.121 247.499C514.151 250.441 511.892 253.361 511.397 253.803C513.046 251.172 515.021 249.101 517.121 247.499C520.667 243.987 525.226 240.443 529.007 241.044C535.956 242.148 541.522 237.446 543.862 227.682C545.734 219.871 544.39 216.602 543.484 215.944C545.497 217.33 549.097 221.317 547.393 226.177C545.263 232.252 561.938 214.979 563.387 205.934C564.545 198.698 562.906 194.917 561.941 193.931C563.378 194.927 566.012 198.158 565.053 203.106C563.855 209.292 555.451 227.247 548.076 231.349C540.701 235.451 538.015 244.32 533.453 243.088C530.078 242.177 523.093 242.943 517.121 247.499Z" fill="url(#paint7_linear_2362_77)"/>
<path d="M550.926 258.824C541.497 258.32 528.95 257.979 523.854 257.872C510.527 257.497 506.489 249.883 525.312 247.04C544.135 244.198 546.432 219.853 557.612 216.85C568.793 213.846 565.573 225.784 571.939 223.441C578.305 221.098 598.864 219.054 598.55 226.098C598.236 233.142 595.343 237.083 585.005 242.392C574.667 247.7 553.488 247.063 563.894 252.809C574.301 258.555 593.584 254.007 589.796 259.453C586.009 264.9 575.986 263.163 573.157 262.342C570.329 261.52 562.712 259.453 550.926 258.824Z" fill="url(#paint8_linear_2362_77)"/>
<path d="M513.188 253.335C514.236 252.635 523.164 254.248 530.748 249.787C538.332 245.326 548.803 247.39 558.001 239.552C565.558 233.112 574.176 232.464 578.768 230.995C580.951 229.67 582.081 229.079 581.136 229.855C580.571 230.319 579.764 230.677 578.768 230.995C573.632 234.112 562.67 241.29 559.189 244.295C554.227 248.577 536.788 246.665 533.499 250.115C530.867 252.875 518.862 253.411 513.188 253.335Z" fill="url(#paint9_linear_2362_77)"/>
<path d="M501.676 236.576C511.917 239.614 518.307 249.379 520.222 253.882C517.205 258.962 512.808 255.501 499.533 249.603C442.721 231.538 454.015 180.645 468.458 179.506C482.9 178.367 469.706 203.483 478.838 210.563C487.969 217.642 483.645 201.742 493.339 206.427C503.032 211.112 488.876 232.778 501.676 236.576Z" fill="url(#paint10_linear_2362_77)"/>
<path d="M514.188 248.278C517.158 251.22 519.417 254.14 519.912 254.582C518.263 251.951 516.288 249.881 514.188 248.278C510.642 244.766 506.083 241.222 502.302 241.823C495.353 242.927 489.787 238.225 487.447 228.461C485.574 220.65 486.919 217.381 487.825 216.723C485.812 218.109 482.212 222.097 483.916 226.956C486.046 233.031 469.37 215.758 467.922 206.713C466.763 199.477 468.403 195.696 469.368 194.71C467.931 195.707 465.297 198.937 466.255 203.885C467.453 210.071 475.857 228.026 483.233 232.128C490.608 236.231 493.294 245.099 497.856 243.868C501.231 242.956 508.215 243.722 514.188 248.278Z" fill="url(#paint11_linear_2362_77)"/>
<path d="M480.382 259.603C489.811 259.099 502.359 258.759 507.454 258.651C520.782 258.276 524.819 250.662 505.996 247.82C487.173 244.977 484.877 220.633 473.696 217.629C462.516 214.626 465.736 226.563 459.37 224.22C453.003 221.877 432.444 219.833 432.758 226.877C433.073 233.921 435.966 237.863 446.304 243.171C456.642 248.479 477.82 247.843 467.414 253.588C457.008 259.334 437.725 254.786 441.512 260.232C445.299 265.679 455.323 263.943 458.151 263.121C460.98 262.299 468.596 260.233 480.382 259.603Z" fill="url(#paint12_linear_2362_77)"/>
<path d="M518.12 254.114C517.073 253.414 508.144 255.027 500.56 250.567C492.976 246.106 482.505 248.169 473.308 240.331C465.751 233.891 457.132 233.243 452.541 231.775C450.358 230.45 449.227 229.859 450.172 230.634C450.737 231.098 451.544 231.456 452.541 231.775C457.677 234.891 468.639 242.07 472.12 245.074C477.081 249.356 494.521 247.445 497.81 250.894C500.441 253.654 512.447 254.191 518.12 254.114Z" fill="url(#paint13_linear_2362_77)"/>
<path d="M513.159 257.031C513.098 254.191 506.951 244.149 502.37 245.969C497.789 247.789 495.664 246.269 497.632 244.017C499.601 241.764 497.536 239.51 495.015 239.845C492.494 240.18 489.237 237.062 492.162 235.92C495.087 234.778 488.457 227.32 495.028 226.393C501.599 225.465 500.432 241.948 509.28 241.229C514.327 240.819 514.958 244.969 514.982 246.539C515.051 245.895 515.226 244.674 515.631 242.644C517.86 231.48 513.041 236.236 511.219 234.784C509.397 233.332 511.457 231.847 514.129 231.545C516.801 231.244 513.963 229.415 513.663 226.658C513.363 223.9 515.887 220.874 511.242 219.69C506.596 218.505 505.01 216.806 504.978 215.304C504.946 213.802 502.519 212.215 502.807 210.186C503.094 208.157 512.293 209.759 514.791 215.398C517.29 221.038 519.741 213.96 518.299 211.246C516.856 208.533 517.025 207.972 519.095 204.845C521.165 201.718 522.302 197.935 521.581 196.578C520.86 195.222 520.778 192.812 523.862 192.751C526.945 192.691 528.309 199.422 525.743 202.589C523.177 205.755 522.875 212.266 523.762 212.464C524.649 212.661 526.223 207.802 528.243 206.884C530.262 205.965 533.827 202.83 534.534 204.547C535.241 206.265 535.585 208.609 531.86 210.533C528.135 212.456 522.039 220.518 523.386 228.824C524.734 237.13 526.193 225.306 531.153 226.249C536.114 227.193 537.57 229.325 531.906 230.722C526.241 232.12 527.43 240.953 529.101 240.047C530.772 239.141 528.234 246.375 526.508 248.669C524.782 250.962 524.521 255.273 524.103 256.663C523.685 258.053 517.453 265.016 513.159 257.031Z" fill="url(#paint14_linear_2362_77)"/>
<path d="M533.791 258.507C535.468 256.061 546.559 249.933 549.505 253.462C552.451 256.991 555.168 256.571 554.743 253.775C554.318 250.98 557.404 249.895 559.406 251.257C561.408 252.619 566.025 251.289 564.132 249.053C562.24 246.817 572.274 243.143 567.086 239.545C561.898 235.947 553.489 250.787 546.201 246.403C542.044 243.903 539.123 247.247 538.204 248.603C538.512 248.013 539.058 246.876 539.866 244.938C544.31 234.277 545.783 240.462 548.199 239.972C550.615 239.482 549.671 237.315 547.518 235.918C545.366 234.521 548.881 234.135 550.718 231.863C552.556 229.59 552.09 225.886 556.809 226.828C561.529 227.77 563.881 226.965 564.768 225.671C565.654 224.378 568.673 224.027 569.583 222.14C570.493 220.252 561.573 217.739 556.175 221.586C550.776 225.432 552.689 218.232 555.496 216.483C558.303 214.735 558.477 214.175 558.463 210.575C558.45 206.976 559.623 203.2 561.026 202.326C562.429 201.452 563.879 199.389 561.23 198.027C558.581 196.665 553.546 201.944 553.968 205.789C554.391 209.633 550.931 215.427 550.046 215.223C549.161 215.018 550.57 210.122 549.338 208.465C548.105 206.808 546.795 202.566 545.198 203.76C543.601 204.954 541.962 206.848 544.103 210.104C546.245 213.36 546.94 222.964 541.019 229.619C535.097 236.274 540.588 225.366 535.732 224.08C530.876 222.795 528.39 224.031 532.52 227.653C536.65 231.275 530.566 238.456 529.63 236.958C528.694 235.46 526.766 242.833 526.957 245.562C527.147 248.291 524.909 252.152 524.478 253.54C524.047 254.927 525.489 263.632 533.791 258.507Z" fill="url(#paint15_linear_2362_77)"/>
<path d="M507.014 261.454C505.083 258.831 492.45 252.851 489.166 257.097C485.881 261.343 482.801 261.101 483.243 257.901C483.686 254.701 480.18 253.739 477.933 255.453C475.687 257.166 470.445 256.058 472.555 253.365C474.666 250.672 463.263 247.378 469.083 242.862C474.904 238.345 484.621 254.412 492.807 248.826C497.476 245.64 500.827 249.172 501.885 250.627C501.528 249.987 500.896 248.747 499.955 246.624C494.781 234.943 493.199 242.068 490.459 241.721C487.719 241.374 488.757 238.842 491.173 237.076C493.59 235.31 489.608 235.176 487.497 232.762C485.387 230.349 485.864 226.118 480.537 227.589C475.21 229.061 472.538 228.352 471.517 226.965C470.496 225.578 467.075 225.441 466.02 223.383C464.965 221.325 475.023 217.716 481.183 221.604C487.344 225.492 485.081 217.51 481.881 215.773C478.682 214.035 478.477 213.417 478.443 209.343C478.409 205.269 477.031 201.098 475.431 200.23C473.831 199.361 472.163 197.152 475.141 195.383C478.12 193.615 483.889 199.155 483.464 203.541C483.038 207.927 487.032 214.185 488.031 213.878C489.029 213.57 487.368 208.151 488.74 206.171C490.111 204.19 491.535 199.278 493.358 200.492C495.182 201.705 497.063 203.708 494.684 207.575C492.305 211.443 491.65 222.369 498.441 229.39C505.232 236.411 498.87 224.541 504.347 222.67C509.823 220.798 512.653 221.983 508.03 226.436C503.406 230.889 510.389 238.49 511.427 236.715C512.466 234.94 514.747 243.116 514.569 246.22C514.391 249.324 516.976 253.5 517.483 255.033C517.989 256.566 516.477 266.539 507.014 261.454Z" fill="url(#paint16_linear_2362_77)"/>
<g filter="url(#filter4_d_2362_77)">
<path d="M499.377 217.416C497.84 228.133 478.685 220.269 468.992 221.576C459.298 222.884 480.854 234.467 492.369 241.918C503.884 249.369 480.271 272.426 487.039 282.481C493.806 292.536 506.612 264.643 515.706 253.839C524.8 243.036 555.908 277.312 567.455 268.527C579.002 259.741 542.047 248.512 537.56 237.138C533.072 225.765 560.228 208.968 554.393 203.468C551.18 200.439 538.111 215.582 529.125 220.282C520.138 224.982 517.119 179.123 507.56 177.353C498.001 175.584 501.298 204.019 499.377 217.416Z" fill="url(#paint17_linear_2362_77)"/>
</g>
<g filter="url(#filter5_d_2362_77)">
<path d="M502.645 244.431C502.806 239.963 466.757 226.962 472.041 224.655C477.325 222.349 493.977 226.968 499.511 226.105C505.045 225.241 504.095 184.998 507.576 185.364C511.058 185.73 518.075 219.233 524.521 223.193C530.967 227.152 549.548 202.967 552.291 206.211C555.035 209.454 531.866 231.888 531.373 235.148C530.881 238.408 562.421 258.06 562.295 264.305C562.169 270.549 523.522 247.611 519.356 247.882C515.191 248.154 496.597 280.887 490.156 281.111C483.715 281.335 502.483 248.899 502.645 244.431Z" fill="url(#paint18_linear_2362_77)"/>
</g>
<path d="M483.995 227.374C482.557 229.207 485.74 230.857 486.642 229.619C487.545 228.382 484.39 225.993 483.995 227.374Z" fill="#D9D9D9"/>
<path d="M501.935 234.251C503.409 232.449 500.261 230.732 499.334 231.951C498.408 233.17 501.513 235.625 501.935 234.251Z" fill="#D9D9D9"/>
<path d="M493.107 231.544C494.581 229.742 491.433 228.025 490.506 229.244C489.579 230.463 492.685 232.918 493.107 231.544Z" fill="#D9D9D9"/>
<path d="M511.432 219.178C509.994 221.01 513.178 222.66 514.08 221.423C514.982 220.185 511.827 217.796 511.432 219.178Z" fill="#D9D9D9"/>
<path d="M509.225 209.849C507.787 211.681 510.971 213.331 511.873 212.094C512.775 210.856 509.62 208.467 509.225 209.849Z" fill="#D9D9D9"/>
<path d="M527.116 227.429C525.678 229.261 528.861 230.911 529.764 229.674C530.666 228.436 527.511 226.047 527.116 227.429Z" fill="#D9D9D9"/>
<path d="M533.186 222.465C531.748 224.297 534.932 225.947 535.834 224.71C536.736 223.473 533.581 221.084 533.186 222.465Z" fill="#D9D9D9"/>
<path d="M540.499 215.834C539.061 217.666 542.244 219.317 543.146 218.079C544.049 216.842 540.894 214.453 540.499 215.834Z" fill="#D9D9D9"/>
<path d="M530.623 246.894C532.526 248.164 533.898 244.767 532.619 243.98C531.339 243.192 529.241 246.635 530.623 246.894Z" fill="#D9D9D9"/>
<path d="M542.082 250.525C541.527 248.273 538.281 249.881 538.698 251.347C539.114 252.812 542.923 251.664 542.082 250.525Z" fill="#D9D9D9"/>
<path d="M547.667 254.979C546.229 256.811 549.412 258.461 550.314 257.224C551.217 255.986 548.062 253.597 547.667 254.979Z" fill="#D9D9D9"/>
<path d="M506.262 255.195C506.818 252.927 503.23 252.802 502.918 254.304C502.605 255.805 506.472 256.61 506.262 255.195Z" fill="#D9D9D9"/>
<path d="M514.808 245.839C516.822 249.996 522.528 245.477 521.108 242.797C519.689 240.116 512.692 243.976 514.808 245.839Z" fill="#741F5E" stroke="#D9D9D9" stroke-width="3"/>
<path d="M508.243 225.504C504.929 222.335 501.091 228.567 503.343 230.568C505.594 232.568 510.874 226.495 508.243 225.504Z" fill="#741F5E" stroke="#D9D9D9" stroke-width="3"/>
<path d="M523.641 226.138C524.331 221.522 517.155 221.958 516.809 225.004C516.463 228.051 524.32 228.911 523.641 226.138Z" fill="#741F5E" stroke="#D9D9D9" stroke-width="3"/>
<path d="M504.345 238.358C501.469 242.022 507.836 245.322 509.64 242.847C511.445 240.373 505.135 235.595 504.345 238.358Z" fill="#741F5E" stroke="#D9D9D9" stroke-width="3"/>
<path d="M527.212 238.388C529.621 234.393 522.889 231.933 521.399 234.613C519.909 237.294 526.765 241.225 527.212 238.388Z" fill="#741F5E" stroke="#D9D9D9" stroke-width="3"/>
<path d="M502.415 262.305C502.241 259.984 498.783 261.018 498.951 262.537C499.119 264.056 503.054 263.574 502.415 262.305Z" fill="#D9D9D9"/>
<path d="M498.39 270.513C498.926 268.24 495.337 268.147 495.038 269.652C494.738 271.156 498.612 271.925 498.39 270.513Z" fill="#D9D9D9"/>
<path d="M508.803 199.123C507.366 200.956 510.549 202.606 511.451 201.368C512.353 200.131 509.198 197.742 508.803 199.123Z" fill="#D9D9D9"/>
<path d="M512.529 232.553C512.321 232.89 508.812 232.789 508.847 233.251C508.883 233.713 512.354 234.874 512.505 235.266C512.656 235.658 511.831 239.084 512.256 239.241C512.681 239.399 514.458 236.375 515.002 236.323C515.546 236.272 517.836 237.477 518.665 237.363C519.494 237.249 516.887 233.79 516.887 233.79C516.887 233.79 519.278 231.492 519.237 230.828C519.195 230.165 515.54 231.609 515.22 231.502C514.9 231.395 513.306 227.988 512.8 228.025C512.295 228.062 512.738 232.216 512.529 232.553Z" fill="#D9D9D9"/>
<defs>
<filter id="filter0_d_2362_77" x="155.602" y="51.4893" width="480.422" height="344.063" filterUnits="userSpaceOnUse" color-interpolation-filters="sRGB">
<feFlood flood-opacity="0" result="BackgroundImageFix"/>
<feColorMatrix in="SourceAlpha" type="matrix" values="0 0 0 0 0 0 0 0 0 0 0 0 0 0 0 0 0 0 127 0" result="hardAlpha"/>
<feOffset dy="4"/>
<feGaussianBlur stdDeviation="62.5"/>
<feComposite in2="hardAlpha" operator="out"/>
<feColorMatrix type="matrix" values="0 0 0 0 0.602456 0 0 0 0 0.862489 0 0 0 0 0.9525 0 0 0 0.54 0"/>
<feBlend mode="normal" in2="BackgroundImageFix" result="effect1_dropShadow_2362_77"/>
<feBlend mode="normal" in="SourceGraphic" in2="effect1_dropShadow_2362_77" result="shape"/>
</filter>
<filter id="filter1_d_2362_77" x="395.977" y="51.0713" width="480.422" height="344.063" filterUnits="userSpaceOnUse" color-interpolation-filters="sRGB">
<feFlood flood-opacity="0" result="BackgroundImageFix"/>
<feColorMatrix in="SourceAlpha" type="matrix" values="0 0 0 0 0 0 0 0 0 0 0 0 0 0 0 0 0 0 127 0" result="hardAlpha"/>
<feOffset dy="4"/>
<feGaussianBlur stdDeviation="62.5"/>
<feComposite in2="hardAlpha" operator="out"/>
<feColorMatrix type="matrix" values="0 0 0 0 0.602456 0 0 0 0 0.862489 0 0 0 0 0.9525 0 0 0 0.54 0"/>
<feBlend mode="normal" in2="BackgroundImageFix" result="effect1_dropShadow_2362_77"/>
<feBlend mode="normal" in="SourceGraphic" in2="effect1_dropShadow_2362_77" result="shape"/>
</filter>
<filter id="filter2_d_2362_77" x="521.148" y="48.4893" width="480.422" height="344.063" filterUnits="userSpaceOnUse" color-interpolation-filters="sRGB">
<feFlood flood-opacity="0" result="BackgroundImageFix"/>
<feColorMatrix in="SourceAlpha" type="matrix" values="0 0 0 0 0 0 0 0 0 0 0 0 0 0 0 0 0 0 127 0" result="hardAlpha"/>
<feOffset dy="4"/>
<feGaussianBlur stdDeviation="62.5"/>
<feComposite in2="hardAlpha" operator="out"/>
<feColorMatrix type="matrix" values="0 0 0 0 0.602456 0 0 0 0 0.862489 0 0 0 0 0.9525 0 0 0 0.54 0"/>
<feBlend mode="normal" in2="BackgroundImageFix" result="effect1_dropShadow_2362_77"/>
<feBlend mode="normal" in="SourceGraphic" in2="effect1_dropShadow_2362_77" result="shape"/>
</filter>
<filter id="filter3_d_2362_77" x="22.6016" y="51.4893" width="480.422" height="344.063" filterUnits="userSpaceOnUse" color-interpolation-filters="sRGB">
<feFlood flood-opacity="0" result="BackgroundImageFix"/>
<feColorMatrix in="SourceAlpha" type="matrix" values="0 0 0 0 0 0 0 0 0 0 0 0 0 0 0 0 0 0 127 0" result="hardAlpha"/>
<feOffset dy="4"/>
<feGaussianBlur stdDeviation="62.5"/>
<feComposite in2="hardAlpha" operator="out"/>
<feColorMatrix type="matrix" values="0 0 0 0 0.602456 0 0 0 0 0.862489 0 0 0 0 0.9525 0 0 0 0.54 0"/>
<feBlend mode="normal" in2="BackgroundImageFix" result="effect1_dropShadow_2362_77"/>
<feBlend mode="normal" in="SourceGraphic" in2="effect1_dropShadow_2362_77" result="shape"/>
</filter>
<filter id="filter4_d_2362_77" x="376.651" y="91.3744" width="282.929" height="287.156" filterUnits="userSpaceOnUse" color-interpolation-filters="sRGB">
<feFlood flood-opacity="0" result="BackgroundImageFix"/>
<feColorMatrix in="SourceAlpha" type="matrix" values="0 0 0 0 0 0 0 0 0 0 0 0 0 0 0 0 0 0 127 0" result="hardAlpha"/>
<feOffset dy="4"/>
<feGaussianBlur stdDeviation="44.95"/>
<feComposite in2="hardAlpha" operator="out"/>
<feColorMatrix type="matrix" values="0 0 0 0 0.407843 0 0 0 0 0.0941176 0 0 0 0 0.129412 0 0 0 1 0"/>
<feBlend mode="normal" in2="BackgroundImageFix" result="effect1_dropShadow_2362_77"/>
<feBlend mode="normal" in="SourceGraphic" in2="effect1_dropShadow_2362_77" result="shape"/>
</filter>
<filter id="filter5_d_2362_77" x="368.712" y="86.5623" width="296.385" height="301.35" filterUnits="userSpaceOnUse" color-interpolation-filters="sRGB">
<feFlood flood-opacity="0" result="BackgroundImageFix"/>
<feColorMatrix in="SourceAlpha" type="matrix" values="0 0 0 0 0 0 0 0 0 0 0 0 0 0 0 0 0 0 127 0" result="hardAlpha"/>
<feOffset dy="4"/>
<feGaussianBlur stdDeviation="51.4"/>
<feComposite in2="hardAlpha" operator="out"/>
<feColorMatrix type="matrix" values="0 0 0 0 0.847059 0 0 0 0 0.709804 0 0 0 0 0.458824 0 0 0 1 0"/>
<feBlend mode="normal" in2="BackgroundImageFix" result="effect1_dropShadow_2362_77"/>
<feBlend mode="normal" in="SourceGraphic" in2="effect1_dropShadow_2362_77" result="shape"/>
</filter>
<linearGradient id="paint0_linear_2362_77" x1="515" y1="0" x2="515" y2="332" gradientUnits="userSpaceOnUse">
<stop offset="0.095" stop-color="#D7B575"/>
<stop offset="0.32" stop-color="#BED775"/>
<stop offset="0.99" stop-color="#4E3D71"/>
</linearGradient>
<radialGradient id="paint1_radial_2362_77" cx="0" cy="0" r="1" gradientUnits="userSpaceOnUse" gradientTransform="translate(332.343 199.738) rotate(24.4111) scale(208.257 72.865)">
<stop stop-color="#75D7D6"/>
<stop offset="0.288144" stop-color="#3CC1EC"/>
<stop offset="0.836667" stop-color="#C213BB"/>
<stop offset="1" stop-color="#D575D7"/>
</radialGradient>
<radialGradient id="paint2_radial_2362_77" cx="0" cy="0" r="1" gradientUnits="userSpaceOnUse" gradientTransform="translate(699.657 199.32) rotate(155.589) scale(208.257 72.865)">
<stop stop-color="#75D7D6"/>
<stop offset="0.288144" stop-color="#3CC1EC"/>
<stop offset="0.836667" stop-color="#C213BB"/>
<stop offset="1" stop-color="#D575D7"/>
</radialGradient>
<radialGradient id="paint3_radial_2362_77" cx="0" cy="0" r="1" gradientUnits="userSpaceOnUse" gradientTransform="translate(824.829 196.738) rotate(155.589) scale(208.257 72.865)">
<stop stop-color="#75D7D6"/>
<stop offset="0.288144" stop-color="#3CC1EC"/>
<stop offset="0.836667" stop-color="#C213BB"/>
<stop offset="1" stop-color="#D575D7"/>
</radialGradient>
<radialGradient id="paint4_radial_2362_77" cx="0" cy="0" r="1" gradientUnits="userSpaceOnUse" gradientTransform="translate(199.343 199.738) rotate(24.4111) scale(208.257 72.865)">
<stop stop-color="#75D7D6"/>
<stop offset="0.288144" stop-color="#3CC1EC"/>
<stop offset="0.836667" stop-color="#C213BB"/>
<stop offset="1" stop-color="#D575D7"/>
</radialGradient>
<radialGradient id="paint5_radial_2362_77" cx="0" cy="0" r="1" gradientUnits="userSpaceOnUse" gradientTransform="translate(528.845 100.775) rotate(-175.676) scale(425.718 102.481)">
<stop offset="0.120225" stop-color="#D7B575"/>
<stop offset="0.370102" stop-color="#B32169"/>
<stop offset="0.660328" stop-color="#741F5E"/>
<stop offset="1" stop-color="#BC0079" stop-opacity="0"/>
</radialGradient>
<linearGradient id="paint6_linear_2362_77" x1="526.008" y1="193.913" x2="547.569" y2="242.441" gradientUnits="userSpaceOnUse">
<stop offset="0.095" stop-color="#D7B575"/>
<stop offset="0.32" stop-color="#BED775"/>
<stop offset="0.99" stop-color="#4E3D71"/>
</linearGradient>
<linearGradient id="paint7_linear_2362_77" x1="516.344" y1="252.33" x2="571.495" y2="192.475" gradientUnits="userSpaceOnUse">
<stop stop-color="#681821"/>
<stop offset="1" stop-color="#6EC276"/>
</linearGradient>
<linearGradient id="paint8_linear_2362_77" x1="576.339" y1="213.582" x2="549.498" y2="271.927" gradientUnits="userSpaceOnUse">
<stop offset="0.095" stop-color="#D7B575"/>
<stop offset="0.32" stop-color="#BED775"/>
<stop offset="0.99" stop-color="#4E3D71"/>
</linearGradient>
<linearGradient id="paint9_linear_2362_77" x1="512.795" y1="256.092" x2="567.972" y2="230.793" gradientUnits="userSpaceOnUse">
<stop stop-color="#681821"/>
<stop offset="1" stop-color="#378F6A"/>
</linearGradient>
<linearGradient id="paint10_linear_2362_77" x1="505.301" y1="194.693" x2="483.739" y2="243.22" gradientUnits="userSpaceOnUse">
<stop offset="0.095" stop-color="#D7B575"/>
<stop offset="0.32" stop-color="#BED775"/>
<stop offset="0.99" stop-color="#4E3D71"/>
</linearGradient>
<linearGradient id="paint11_linear_2362_77" x1="514.965" y1="253.109" x2="459.813" y2="193.254" gradientUnits="userSpaceOnUse">
<stop stop-color="#681821"/>
<stop offset="1" stop-color="#6EC276"/>
</linearGradient>
<linearGradient id="paint12_linear_2362_77" x1="454.969" y1="214.361" x2="481.81" y2="272.707" gradientUnits="userSpaceOnUse">
<stop offset="0.095" stop-color="#D7B575"/>
<stop offset="0.32" stop-color="#BED775"/>
<stop offset="0.99" stop-color="#4E3D71"/>
</linearGradient>
<linearGradient id="paint13_linear_2362_77" x1="518.514" y1="256.871" x2="463.337" y2="231.572" gradientUnits="userSpaceOnUse">
<stop stop-color="#681821"/>
<stop offset="1" stop-color="#378F6A"/>
</linearGradient>
<linearGradient id="paint14_linear_2362_77" x1="524.574" y1="192.85" x2="509.82" y2="259.064" gradientUnits="userSpaceOnUse">
<stop stop-color="#7E25EE" stop-opacity="0.86"/>
<stop offset="1" stop-color="#182256"/>
</linearGradient>
<linearGradient id="paint15_linear_2362_77" x1="542.345" y1="193.599" x2="534.5" y2="264.354" gradientUnits="userSpaceOnUse">
<stop stop-color="#7E25EE" stop-opacity="0.86"/>
<stop offset="0.745" stop-color="#7725E4" stop-opacity="0.8698"/>
<stop offset="1" stop-color="#182256"/>
</linearGradient>
<linearGradient id="paint16_linear_2362_77" x1="464.869" y1="198.48" x2="509.095" y2="264.544" gradientUnits="userSpaceOnUse">
<stop offset="0.26" stop-color="#5B6BFD"/>
<stop offset="0.84" stop-color="#182256"/>
</linearGradient>
<linearGradient id="paint17_linear_2362_77" x1="534.039" y1="184.643" x2="503.696" y2="291.552" gradientUnits="userSpaceOnUse">
<stop stop-color="#71D0CF"/>
<stop offset="0.305" stop-color="#5BA7A6"/>
<stop offset="0.78" stop-color="#75D7D6"/>
</linearGradient>
<linearGradient id="paint18_linear_2362_77" x1="530.45" y1="190.882" x2="507.407" y2="285.339" gradientUnits="userSpaceOnUse">
<stop offset="0.485" stop-color="#B32169"/>
<stop offset="1" stop-color="#3029BA"/>
</linearGradient>
</defs>
</svg>
