<svg width="1431" height="703" viewBox="0 0 1431 703" fill="none" xmlns="http://www.w3.org/2000/svg">
<path d="M376.56 300.912C376.944 302.192 376.304 323.44 376.688 327.536C376.816 329.584 378.48 334.96 375.024 334.96C367.856 334.96 359.792 334.448 352.752 333.68C349.168 333.296 352.752 328.688 349.424 324.976C343.152 317.936 333.68 324.72 330.608 331.12C326.64 339.44 326.384 350.32 330.608 358.512C333.296 363.888 339.44 369.264 345.84 366.32C350.704 364.144 351.216 359.664 353.008 355.312C353.776 353.52 371.952 355.696 374.768 356.336C376.688 356.72 378.096 357.36 378.096 359.536C378.096 393.072 331.632 400.752 311.024 380.016C292.848 361.712 293.744 325.744 312.176 307.952C326.256 294.256 350.192 292.72 368.368 297.328C370.416 297.84 375.28 299.12 376.56 300.912ZM337.648 388.08C338.928 388.208 343.408 388.336 344.56 388.08C347.888 387.184 346.736 382.576 344.048 382.832C331.504 383.984 322.288 378.48 314.608 369.136C312.304 366.448 308.592 369.264 310.512 372.208C316.272 381.168 327.408 386.672 337.648 388.08ZM349.808 381.68C347.632 386.16 355.824 386.928 354.672 382.192C354.032 379.888 350.832 379.504 349.808 381.68ZM438.802 290.928C438.418 295.408 432.146 291.568 435.602 289.008C437.394 287.6 439.058 288.624 438.802 290.928ZM465.554 305.264C466.322 307.312 464.018 308.208 462.738 306.544C460.818 303.984 459.154 302.064 456.21 300.656C454.674 299.888 441.874 294.768 441.49 294.256C440.594 292.976 441.49 291.696 442.898 291.312C449.682 289.52 463.25 299.12 465.554 305.264ZM433.554 390C427.922 390.384 417.298 390.384 412.306 387.952C395.41 379.76 391.314 355.824 388.754 339.312C387.602 332.144 386.706 324.976 387.986 317.808C390.29 304.496 399.506 297.968 412.434 296.56C421.01 295.536 429.842 296.176 438.162 298.352C448.146 301.04 458.258 306.416 462.994 316.016C465.17 320.624 466.066 325.616 466.45 330.736C467.474 345.712 459.538 380.656 444.946 387.824C441.49 389.488 437.394 389.744 433.554 390ZM421.778 358.896C440.338 368.24 443.282 335.088 439.058 329.328C437.65 327.408 435.602 326 433.426 324.976C429.97 323.312 421.65 321.904 418.322 324.336C412.05 329.072 414.866 355.44 421.778 358.896ZM521.09 348.144C522.37 343.664 535.938 299.632 538.242 298.608C539.778 297.968 558.85 299.888 559.618 301.424C560.13 302.448 560.13 306.288 560.258 307.696C561.794 330.608 564.226 353.904 567.938 376.56C568.194 378.224 570.114 387.312 569.346 388.208C568.578 389.104 551.17 390 548.738 390.256C546.946 390.512 542.082 391.792 541.186 389.488C539.138 383.984 538.626 351.472 538.498 343.792C537.09 347.248 528.002 374.512 528.002 374.512C526.722 375.92 515.458 374.768 512.77 374.896C509.57 375.152 509.57 370.544 509.058 368.24C507.138 360.048 504.962 351.856 503.17 343.536C501.122 358 500.354 372.592 499.202 387.184C499.074 388.336 499.074 390.512 497.538 390.768C496.898 390.896 493.314 389.488 492.418 389.232C487.17 387.696 477.954 385.648 472.578 385.776C471.554 385.392 471.81 382.832 472.066 381.936C477.698 356.336 482.178 330.992 486.53 305.264C486.658 304.24 486.914 303.088 487.682 302.32C489.218 300.784 509.186 296.816 509.954 297.968C510.21 298.352 510.338 300.528 510.466 301.168C512.77 317.04 516.738 332.656 521.09 348.144ZM553.218 326.128C554.242 328.816 558.082 327.92 558.21 325.104C558.338 320.368 557.826 305.392 552.834 303.216C551.426 302.576 546.306 302.32 544.642 302.32C540.802 302.32 539.01 305.776 542.21 307.184C543.874 307.952 549.89 307.056 550.914 308.08C552.834 309.872 552.194 323.312 553.218 326.128ZM554.498 336.368C556.034 337.52 558.466 336.624 558.722 334.704C559.49 329.072 550.018 332.784 554.498 336.368ZM610.879 364.912C610.495 371.696 610.495 378.608 611.007 385.392C611.135 387.184 611.903 390.512 610.239 391.792C610.111 391.92 609.343 392.048 609.215 392.048C602.687 393.2 588.223 392.816 581.695 391.536C579.903 391.152 579.007 390.384 578.879 388.464C578.751 383.472 580.799 370.16 581.183 363.76C582.079 345.84 583.231 321.392 581.439 303.856C581.311 302.704 580.927 301.168 581.823 300.144C582.591 299.248 584.127 299.376 585.151 299.248C596.927 297.584 608.191 296.048 620.223 297.584C657.599 302.32 659.775 357.744 610.879 364.912ZM607.423 317.68C608.447 326.384 608.447 335.088 608.959 343.792C631.999 339.824 629.951 318.704 616.767 317.296C613.695 317.04 610.495 317.424 607.423 317.68ZM642.879 360.816C640.575 362.864 638.527 359.024 642.367 356.208C643.903 355.184 645.823 356.848 645.055 358.512C644.799 359.152 643.391 360.304 642.879 360.816ZM622.143 374.128C620.607 374.512 617.023 374.64 615.615 374C613.695 373.232 613.823 370.672 615.871 370.16C622.015 368.496 626.367 367.216 632.127 364.144C640.319 359.664 641.471 368.88 622.143 374.128ZM682.988 365.168C686.06 365.552 689.772 365.552 692.972 365.424C698.476 365.168 704.108 364.016 709.356 362.48C710.892 362.096 712.812 361.2 714.348 360.944C716.012 360.688 715.884 362.864 716.012 364.016C716.396 366.704 718.06 382.96 717.42 384.24C717.036 385.264 715.756 385.776 714.86 386.16C701.676 391.92 676.332 394.224 664.556 384.368C656.364 377.584 657.004 362.864 657.388 353.136C657.644 347.632 660.716 304.624 662.764 303.344C665.836 301.424 712.812 295.664 715.5 297.2C716.524 297.712 716.908 298.608 717.036 299.76C717.42 302.832 717.42 323.952 716.012 325.104C714.348 325.744 689.772 325.488 685.036 325.872L684.78 326.384L683.884 336.624C686.956 336.624 701.164 336.24 702.828 336.624C704.492 337.008 704.236 349.552 703.852 351.728C703.724 352.368 702.956 352.88 702.444 353.136C695.532 353.776 688.748 353.776 681.836 353.392C681.964 357.36 682.092 361.328 682.988 365.168ZM715.884 393.968C711.276 397.296 709.996 390.768 714.604 391.408C715.756 391.536 717.164 392.944 715.884 393.968ZM690.54 400.112C686.316 400.624 681.708 400.24 677.612 399.088C675.948 398.576 671.34 396.4 670.572 394.992C670.06 393.968 670.444 392.304 671.724 392.176C671.98 392.176 677.228 394.224 678.124 394.48C682.732 395.888 687.596 396.656 692.46 396.272C697.324 395.888 701.804 394.48 706.54 393.584C708.844 393.072 709.612 395.504 707.436 396.4C702.316 398.32 695.916 399.472 690.54 400.112ZM750.66 391.408C747.332 393.072 747.46 383.6 747.332 381.808C746.436 366.448 744.9 336.752 746.948 322.16C740.804 322.8 733.508 324.72 727.492 324.592C725.828 324.592 725.06 323.312 724.548 321.904C723.78 319.472 724.164 297.968 724.932 295.664C725.316 294.64 725.828 293.616 726.724 293.104C728.132 292.208 731.844 292.72 733.508 292.976C753.988 295.536 774.724 293.616 795.332 295.536C797.892 295.792 798.276 296.176 799.556 298.224C799.556 303.088 799.684 318.192 796.356 321.264C794.564 322.928 791.748 322.928 789.444 322.928C785.348 322.928 781.38 322.544 777.284 323.056C777.412 344.176 778.82 365.04 779.716 386.16C779.716 386.928 779.716 388.848 779.076 389.36C778.436 389.872 776.26 390 775.364 390C770.628 390 752.58 391.664 750.66 391.408ZM759.236 304.368C760.132 304.624 784.964 303.088 785.476 302.832C787.14 301.808 786.756 298.736 784.964 298.096C784.324 297.84 759.62 299.248 758.596 299.888C756.932 301.04 757.188 303.728 759.236 304.368ZM791.108 303.088C792.516 304.24 794.564 303.344 795.076 301.68C796.996 295.664 786.244 299.248 791.108 303.088ZM838.254 296.56C838.766 297.456 838.126 298.608 837.102 298.736C836.206 298.864 835.438 298.224 834.542 298.096C829.678 297.328 824.43 298.992 819.822 298.352C818.926 298.224 817.518 297.712 817.518 296.688C817.518 292.08 836.334 292.848 838.254 296.56ZM814.446 299.12C811.63 302.704 807.918 294.128 812.91 294.64C814.958 294.896 815.598 297.584 814.446 299.12ZM820.334 391.152C818.286 391.152 812.526 391.408 810.99 390C810.094 389.104 809.966 387.696 809.838 386.544C809.326 381.296 806.51 309.232 806.638 308.592C807.534 305.008 826.222 304.496 829.806 304.496C831.214 304.496 835.054 304.368 836.206 305.008C838.382 306.16 837.998 311.024 837.998 313.072L838.126 388.208C838.126 389.488 837.614 390.128 836.462 390.512C834.798 391.024 823.022 391.152 820.334 391.152ZM873.41 391.408C870.082 393.072 870.21 383.6 870.082 381.808C869.186 366.448 867.65 336.752 869.698 322.16C863.554 322.8 856.258 324.72 850.242 324.592C848.578 324.592 847.81 323.312 847.298 321.904C846.53 319.472 846.914 297.968 847.682 295.664C848.066 294.64 848.578 293.616 849.474 293.104C850.882 292.208 854.594 292.72 856.258 292.976C876.738 295.536 897.474 293.616 918.082 295.536C920.642 295.792 921.026 296.176 922.306 298.224C922.306 303.088 922.434 318.192 919.106 321.264C917.314 322.928 914.498 322.928 912.194 322.928C908.098 322.928 904.13 322.544 900.034 323.056C900.162 344.176 901.57 365.04 902.466 386.16C902.466 386.928 902.466 388.848 901.826 389.36C901.186 389.872 899.01 390 898.114 390C893.378 390 875.33 391.664 873.41 391.408ZM881.986 304.368C882.882 304.624 907.714 303.088 908.226 302.832C909.89 301.808 909.506 298.736 907.714 298.096C907.074 297.84 882.37 299.248 881.346 299.888C879.682 301.04 879.938 303.728 881.986 304.368ZM913.858 303.088C915.266 304.24 917.314 303.344 917.826 301.68C919.746 295.664 908.994 299.248 913.858 303.088ZM961.004 296.56C961.516 297.456 960.876 298.608 959.852 298.736C958.956 298.864 958.188 298.224 957.292 298.096C952.428 297.328 947.18 298.992 942.572 298.352C941.676 298.224 940.268 297.712 940.268 296.688C940.268 292.08 959.084 292.848 961.004 296.56ZM937.196 299.12C934.38 302.704 930.668 294.128 935.66 294.64C937.708 294.896 938.348 297.584 937.196 299.12ZM943.084 391.152C941.036 391.152 935.276 391.408 933.74 390C932.844 389.104 932.716 387.696 932.588 386.544C932.076 381.296 929.26 309.232 929.388 308.592C930.284 305.008 948.972 304.496 952.556 304.496C953.964 304.496 957.804 304.368 958.956 305.008C961.132 306.16 960.748 311.024 960.748 313.072L960.876 388.208C960.876 389.488 960.364 390.128 959.212 390.512C957.548 391.024 945.772 391.152 943.084 391.152ZM1023.55 290.928C1023.17 295.408 1016.9 291.568 1020.35 289.008C1022.14 287.6 1023.81 288.624 1023.55 290.928ZM1050.3 305.264C1051.07 307.312 1048.77 308.208 1047.49 306.544C1045.57 303.984 1043.9 302.064 1040.96 300.656C1039.42 299.888 1026.62 294.768 1026.24 294.256C1025.34 292.976 1026.24 291.696 1027.65 291.312C1034.43 289.52 1048 299.12 1050.3 305.264ZM1018.3 390C1012.67 390.384 1002.05 390.384 997.056 387.952C980.16 379.76 976.064 355.824 973.504 339.312C972.352 332.144 971.456 324.976 972.736 317.808C975.04 304.496 984.256 297.968 997.184 296.56C1005.76 295.536 1014.59 296.176 1022.91 298.352C1032.9 301.04 1043.01 306.416 1047.74 316.016C1049.92 320.624 1050.82 325.616 1051.2 330.736C1052.22 345.712 1044.29 380.656 1029.7 387.824C1026.24 389.488 1022.14 389.744 1018.3 390ZM1006.53 358.896C1025.09 368.24 1028.03 335.088 1023.81 329.328C1022.4 327.408 1020.35 326 1018.18 324.976C1014.72 323.312 1006.4 321.904 1003.07 324.336C996.8 329.072 999.616 355.44 1006.53 358.896ZM1086.08 330.48C1088.64 343.28 1094.4 376.816 1093 388.72C1092.74 391.024 1090.82 391.792 1088.77 391.92C1085.19 392.176 1063.68 392.816 1062.15 390.64C1060.74 388.592 1062.4 382.448 1062.79 380.016C1065.48 362.352 1065.35 332.016 1063.68 313.968C1063.56 312.048 1062.53 303.216 1062.79 302.064C1063.43 299.12 1085.7 294.768 1088.52 295.92C1090.82 296.816 1095.56 308.72 1096.58 311.408C1101.83 324.72 1105.8 338.544 1110.4 352.112C1111.43 336.24 1110.15 318.832 1107.59 303.216C1107.33 301.424 1106.44 298.992 1108.61 298.096C1111.04 297.072 1133.7 295.664 1136.64 296.432C1137.03 296.944 1136.9 297.584 1136.77 298.224C1135.75 305.008 1135.88 312.432 1135.75 319.344C1135.36 337.008 1135.11 354.672 1134.98 372.336C1134.98 376.176 1129.35 375.152 1126.79 375.152C1119.88 375.152 1113.86 376.304 1107.2 377.712C1106.56 377.84 1105.67 377.84 1105.16 377.456C1104 376.56 1103.75 374.896 1103.36 373.616C1099.27 359.28 1094.02 343.152 1086.08 330.48ZM1106.69 388.976C1105.8 389.104 1104.39 389.232 1103.49 388.976C1101.44 388.464 1101.44 385.904 1103.36 385.264C1109.12 383.216 1115.14 382.96 1121.16 382.448C1129.22 381.808 1127.3 386.672 1124.48 387.312C1118.85 388.592 1112.45 388.208 1106.69 388.976ZM1134.47 383.088C1137.92 383.984 1135.36 389.104 1131.78 386.928C1129.09 385.264 1132.04 382.448 1134.47 383.088Z" fill="white"/>
<g filter="url(#filter0_d_2362_68)">
<path d="M1226.96 443.302C1256.44 440.016 1287.35 464.248 1304.47 482.306C1321.59 500.364 1187.95 476.469 1247.41 503.592C1306.86 530.714 1201.39 526.143 1139.34 509.792C1077.29 493.441 1078.3 480.963 1027.95 463.76C977.598 446.557 1047.07 449.269 1067.32 459.576C1087.57 469.882 1109.38 489.488 1137.1 489.488C1148.95 489.488 1152.99 480.612 1141.51 473.989C1130.02 467.366 1107.91 469.185 1110.08 466.472C1112.25 463.76 1129.92 454.721 1144.83 456.786C1158.75 458.714 1167.54 465.352 1181.31 473.989C1203.05 487.629 1242.2 474.222 1235.05 463.76C1229.33 455.391 1205.84 460.273 1194.82 463.76C1193.25 458.31 1197.49 446.588 1226.96 443.302Z" fill="url(#paint0_radial_2362_68)"/>
</g>
<g filter="url(#filter1_d_2362_68)">
<path d="M210.038 443.302C180.565 440.016 149.649 464.248 132.528 482.306C115.408 500.364 249.046 476.469 189.594 503.592C130.143 530.714 235.61 526.143 297.662 509.792C359.714 493.441 358.703 480.963 409.053 463.76C459.402 446.557 389.934 449.269 369.683 459.576C349.432 469.882 327.623 489.488 299.901 489.488C288.054 489.488 284.009 480.612 295.495 473.989C306.981 467.366 329.085 469.185 326.918 466.472C324.751 463.76 307.082 454.721 292.172 456.786C278.254 458.714 269.461 465.352 255.692 473.989C233.948 487.629 194.796 474.222 201.947 463.76C207.668 455.391 231.155 460.273 242.183 463.76C243.749 458.31 239.511 446.588 210.038 443.302Z" fill="url(#paint1_radial_2362_68)"/>
</g>
<g filter="url(#filter2_d_2362_68)">
<path d="M1100.23 461.298C1129.6 458.053 1160.41 481.983 1177.48 499.815C1194.54 517.647 1061.35 494.051 1120.6 520.834C1179.85 547.618 1074.74 543.103 1012.9 526.957C951.058 510.81 952.066 498.489 901.887 481.501C851.707 464.513 920.941 467.191 941.123 477.368C961.306 487.546 983.042 506.907 1010.67 506.907C1022.48 506.907 1026.51 498.142 1015.06 491.602C1003.61 485.062 981.584 486.857 983.744 484.179C985.903 481.501 1003.51 472.575 1018.37 474.614C1032.24 476.517 1041.01 483.073 1054.73 491.602C1076.4 505.071 1115.42 491.831 1108.29 481.501C1102.59 473.236 1079.18 478.057 1068.19 481.501C1066.63 476.118 1070.86 464.543 1100.23 461.298Z" fill="url(#paint2_radial_2362_68)"/>
</g>
<g filter="url(#filter3_d_2362_68)">
<path d="M342.771 461.298C313.397 458.053 282.586 481.983 265.523 499.815C248.46 517.647 381.647 494.051 322.396 520.834C263.146 547.618 368.256 543.103 430.099 526.957C491.942 510.81 490.934 498.489 541.113 481.501C591.293 464.513 522.059 467.191 501.877 477.368C481.694 487.546 459.958 506.907 432.331 506.907C420.524 506.907 416.492 498.142 427.939 491.602C439.386 485.062 461.416 486.857 459.256 484.179C457.097 481.501 439.487 472.575 424.627 474.614C410.756 476.517 401.993 483.073 388.271 491.602C366.601 505.071 327.58 491.831 334.707 481.501C340.409 473.236 363.817 478.057 374.808 481.501C376.368 476.118 372.144 464.543 342.771 461.298Z" fill="url(#paint3_radial_2362_68)"/>
</g>
<g filter="url(#filter4_d_2362_68)">
<path d="M491.038 483.302C461.565 480.016 430.649 504.248 413.528 522.306C396.408 540.364 530.046 516.469 470.594 543.592C411.143 570.714 518.849 574.851 580.901 558.5C642.954 542.149 639.703 520.963 690.053 503.76C740.402 486.557 669.251 486.48 649 496.786C628.749 507.093 608.623 529.488 580.901 529.488C569.054 529.488 565.009 520.612 576.495 513.989C587.981 507.366 610.085 509.185 607.918 506.472C605.751 503.76 588.082 494.721 573.172 496.786C559.254 498.714 550.461 505.352 536.692 513.989C514.948 527.629 475.796 514.222 482.947 503.76C488.668 495.391 512.155 500.273 523.183 503.76C524.749 498.31 520.511 486.588 491.038 483.302Z" fill="url(#paint4_radial_2362_68)"/>
</g>
<g filter="url(#filter5_d_2362_68)">
<path d="M931.229 483.302C960.603 480.016 991.414 504.248 1008.48 522.306C1025.54 540.364 892.353 516.469 951.604 543.592C1010.85 570.714 903.512 573.351 841.669 557C779.827 540.649 783.066 520.963 732.887 503.76C682.707 486.557 758.318 486.48 778.5 496.786C798.682 507.093 814.042 529.488 841.669 529.488C853.476 529.488 857.508 520.612 846.061 513.989C834.614 507.366 812.584 509.185 814.744 506.472C816.903 503.76 834.513 494.721 849.373 496.786C863.244 498.714 872.007 505.352 885.729 513.989C907.399 527.629 946.42 514.222 939.293 503.76C933.591 495.391 910.183 500.273 899.192 503.76C897.632 498.31 901.856 486.588 931.229 483.302Z" fill="url(#paint5_radial_2362_68)"/>
</g>
<g filter="url(#filter6_d_2362_68)">
<path d="M553.233 520.732C554.86 533.362 532.073 530.613 522.152 535.208C512.23 539.804 538.705 545.992 553.233 550.728C567.761 555.464 549.643 589.16 559.909 598.37C570.175 607.581 575.315 571.882 581.707 556.727C588.1 541.571 631.653 570.386 641.271 556.727C650.889 543.068 608.128 542.23 599.887 530.793C591.647 519.357 615.442 491.612 607.557 487.259C603.214 484.862 593.911 506.209 585.775 514.418C577.639 522.627 560.461 471.672 549.746 472.74C539.031 473.808 551.199 504.946 553.233 520.732Z" fill="url(#paint6_linear_2362_68)"/>
</g>
<g filter="url(#filter7_d_2362_68)">
<path d="M564.937 550.272C563.749 545.161 521.413 542.025 526.335 537.715C531.258 533.405 550.393 533.284 556.021 530.528C561.65 527.772 548.385 482.511 552.203 481.806C556.021 481.102 573.693 516.782 581.76 519.194C589.828 521.606 602.246 488.25 606.154 491.041C610.062 493.832 592.227 526.679 592.695 530.528C593.164 534.378 632.725 546.494 634.492 553.605C636.26 560.716 588.131 547.163 583.779 548.809C579.427 550.455 569.599 593.495 562.81 595.818C556.021 598.142 566.126 555.382 564.937 550.272Z" fill="url(#paint7_linear_2362_68)"/>
</g>
<path d="M539.89 536.951C538.917 539.488 542.808 540.334 543.392 538.643C543.976 536.951 539.89 535.26 539.89 536.951Z" fill="#D9D9D9"/>
<path d="M561.081 538.974C562.101 536.459 558.226 535.528 557.611 537.205C556.995 538.883 561.049 540.665 561.081 538.974Z" fill="#D9D9D9"/>
<path d="M550.862 538.746C551.882 536.232 548.008 535.3 547.392 536.978C546.777 538.655 550.83 540.437 550.862 538.746Z" fill="#D9D9D9"/>
<path d="M566.601 518.855C565.628 521.392 569.519 522.237 570.103 520.546C570.687 518.855 566.601 517.164 566.601 518.855Z" fill="#D9D9D9"/>
<path d="M561.413 508.999C560.44 511.536 564.332 512.381 564.915 510.69C565.499 508.999 561.413 507.308 561.413 508.999Z" fill="#D9D9D9"/>
<path d="M585.815 523.155C584.843 525.691 588.734 526.537 589.318 524.846C589.902 523.155 585.815 521.463 585.815 523.155Z" fill="#D9D9D9"/>
<path d="M590.761 515.583C589.788 518.12 593.679 518.965 594.263 517.274C594.847 515.583 590.761 513.892 590.761 515.583Z" fill="#D9D9D9"/>
<path d="M596.534 505.728C595.561 508.265 599.453 509.11 600.037 507.419C600.62 505.728 596.534 504.037 596.534 505.728Z" fill="#D9D9D9"/>
<path d="M595.476 544.067C597.888 544.894 598.315 540.606 596.713 540.126C595.111 539.645 593.926 544.218 595.476 544.067Z" fill="#D9D9D9"/>
<path d="M608.775 544.501C607.498 542.128 604.532 544.993 605.422 546.518C606.312 548.044 610.017 545.52 608.775 544.501Z" fill="#D9D9D9"/>
<path d="M616.081 547.748C615.108 550.285 619 551.13 619.583 549.439C620.167 547.748 616.081 546.057 616.081 547.748Z" fill="#D9D9D9"/>
<path d="M572.069 561.299C571.97 558.552 568.112 559.563 568.237 561.364C568.361 563.165 572.723 562.833 572.069 561.299Z" fill="#D9D9D9"/>
<path d="M578.315 547.958C581.725 552.018 586.423 545.067 584.096 542.488C581.768 539.909 575.494 546.529 578.315 547.958Z" fill="#741F5E" stroke="#D9D9D9" stroke-width="2"/>
<path d="M565.135 527.039C560.641 524.517 558.453 532.807 561.46 534.348C564.466 535.889 568.237 527.316 565.135 527.039Z" fill="#741F5E" stroke="#D9D9D9" stroke-width="2"/>
<path d="M581.719 522.815C581.048 517.367 573.542 520.166 574.1 523.727C574.659 527.288 583.287 525.737 581.719 522.815Z" fill="#741F5E" stroke="#D9D9D9" stroke-width="2"/>
<path d="M564.897 542.848C562.951 547.922 570.733 549.612 571.901 546.23C573.068 542.848 564.897 539.466 564.897 542.848Z" fill="#741F5E" stroke="#D9D9D9" stroke-width="2"/>
<path d="M589.25 535.532C590.597 530.234 582.682 529.612 581.912 533.126C581.142 536.64 589.638 538.888 589.25 535.532Z" fill="#741F5E" stroke="#D9D9D9" stroke-width="2"/>
<path d="M570.129 570.584C569.238 568.012 565.87 570.294 566.512 571.96C567.153 573.627 571.195 571.816 570.129 570.584Z" fill="#D9D9D9"/>
<path d="M568.353 581.169C568.232 578.424 564.382 579.472 564.522 581.271C564.661 583.071 569.02 582.697 568.353 581.169Z" fill="#D9D9D9"/>
<path d="M557.698 496.994C556.726 499.531 560.617 500.377 561.201 498.685C561.784 496.994 557.698 495.303 557.698 496.994Z" fill="#D9D9D9"/>
<path d="M571.846 533.644C571.727 534.092 567.961 535.106 568.139 535.618C568.317 536.129 572.366 536.328 572.646 536.723C572.926 537.118 573.091 541.264 573.591 541.305C574.091 541.346 575.063 537.352 575.626 537.118C576.189 536.885 578.995 537.513 579.843 537.118C580.69 536.723 576.862 533.644 576.862 533.644C576.862 533.644 578.707 530.273 578.461 529.535C578.216 528.797 574.764 531.607 574.391 531.589C574.018 531.571 571.283 528.226 570.756 528.43C570.229 528.634 571.966 533.195 571.846 533.644Z" fill="#D9D9D9"/>
<g filter="url(#filter8_d_2362_68)">
<path d="M881.724 510.585C880.097 523.214 902.884 520.465 912.805 525.061C922.727 529.656 896.252 535.844 881.724 540.58C867.197 545.316 885.314 579.013 875.048 588.223C864.782 597.433 859.642 561.735 853.25 546.579C846.858 531.424 803.304 560.238 793.686 546.579C784.068 532.92 826.829 532.082 835.07 520.646C843.31 509.21 819.515 481.464 827.4 477.111C831.743 474.714 841.046 496.061 849.182 504.271C857.318 512.48 874.496 461.525 885.211 462.593C895.926 463.661 883.758 494.798 881.724 510.585Z" fill="url(#paint8_linear_2362_68)"/>
</g>
<g filter="url(#filter9_d_2362_68)">
<path d="M870.02 540.124C871.208 535.014 913.544 531.877 908.622 527.567C903.699 523.258 884.564 523.136 878.936 520.381C873.307 517.625 886.572 472.363 882.754 471.659C878.936 470.955 861.265 506.635 853.197 509.046C845.129 511.458 832.711 478.103 828.803 480.893C824.895 483.684 842.73 516.531 842.262 520.381C841.793 524.23 802.232 536.347 800.465 543.458C798.697 550.568 846.826 537.016 851.178 538.662C855.53 540.308 865.358 583.347 872.147 585.671C878.936 587.994 868.831 545.235 870.02 540.124Z" fill="url(#paint9_linear_2362_68)"/>
</g>
<path d="M895.067 526.804C896.04 529.341 892.149 530.186 891.565 528.495C890.981 526.804 895.067 525.113 895.067 526.804Z" fill="#D9D9D9"/>
<path d="M873.876 528.826C872.856 526.312 876.731 525.38 877.346 527.058C877.962 528.736 873.908 530.517 873.876 528.826Z" fill="#D9D9D9"/>
<path d="M884.095 528.599C883.075 526.084 886.949 525.153 887.565 526.83C888.18 528.508 884.127 530.29 884.095 528.599Z" fill="#D9D9D9"/>
<path d="M868.356 508.707C869.329 511.244 865.438 512.089 864.854 510.398C864.27 508.707 868.356 507.016 868.356 508.707Z" fill="#D9D9D9"/>
<path d="M873.544 498.852C874.517 501.389 870.625 502.234 870.042 500.543C869.458 498.852 873.544 497.161 873.544 498.852Z" fill="#D9D9D9"/>
<path d="M849.142 513.007C850.114 515.544 846.223 516.389 845.639 514.698C845.056 513.007 849.142 511.316 849.142 513.007Z" fill="#D9D9D9"/>
<path d="M844.196 505.436C845.169 507.973 841.278 508.818 840.694 507.127C840.11 505.436 844.196 503.745 844.196 505.436Z" fill="#D9D9D9"/>
<path d="M838.423 495.58C839.396 498.117 835.504 498.963 834.92 497.271C834.337 495.58 838.423 493.889 838.423 495.58Z" fill="#D9D9D9"/>
<path d="M839.481 533.92C837.069 534.746 836.642 530.459 838.244 529.978C839.846 529.497 841.031 534.071 839.481 533.92Z" fill="#D9D9D9"/>
<path d="M826.182 534.353C827.459 531.981 830.425 534.845 829.535 536.371C828.645 537.896 824.94 535.372 826.182 534.353Z" fill="#D9D9D9"/>
<path d="M818.876 537.601C819.849 540.138 815.957 540.983 815.374 539.292C814.79 537.601 818.876 535.91 818.876 537.601Z" fill="#D9D9D9"/>
<path d="M862.888 551.151C862.987 548.405 866.845 549.416 866.72 551.217C866.596 553.018 862.234 552.686 862.888 551.151Z" fill="#D9D9D9"/>
<path d="M856.642 537.81C853.232 541.87 848.534 534.92 850.861 532.341C853.189 529.762 859.463 536.381 856.642 537.81Z" fill="#741F5E" stroke="#D9D9D9" stroke-width="2"/>
<path d="M869.822 516.892C874.316 514.369 876.504 522.659 873.497 524.201C870.491 525.742 866.72 517.169 869.822 516.892Z" fill="#741F5E" stroke="#D9D9D9" stroke-width="2"/>
<path d="M853.238 512.668C853.909 507.22 861.416 510.019 860.857 513.58C860.298 517.14 851.67 515.59 853.238 512.668Z" fill="#741F5E" stroke="#D9D9D9" stroke-width="2"/>
<path d="M870.06 532.702C872.006 537.775 864.224 539.466 863.056 536.084C861.889 532.702 870.06 529.32 870.06 532.702Z" fill="#741F5E" stroke="#D9D9D9" stroke-width="2"/>
<path d="M845.707 525.385C844.36 520.087 852.275 519.465 853.045 522.979C853.815 526.493 845.319 528.74 845.707 525.385Z" fill="#741F5E" stroke="#D9D9D9" stroke-width="2"/>
<path d="M864.828 560.438C865.72 557.866 869.087 560.148 868.445 561.814C867.804 563.48 863.762 561.669 864.828 560.438Z" fill="#D9D9D9"/>
<path d="M866.604 571.021C866.725 568.276 870.575 569.324 870.435 571.124C870.296 572.924 865.937 572.549 866.604 571.021Z" fill="#D9D9D9"/>
<path d="M877.259 486.847C878.232 489.384 874.34 490.229 873.756 488.538C873.173 486.847 877.259 485.156 877.259 486.847Z" fill="#D9D9D9"/>
<path d="M863.111 523.496C863.23 523.945 866.996 524.958 866.818 525.47C866.64 525.982 862.591 526.181 862.311 526.576C862.031 526.971 861.866 531.116 861.366 531.157C860.866 531.199 859.894 527.204 859.331 526.971C858.768 526.738 855.962 527.366 855.115 526.971C854.267 526.576 858.095 523.496 858.095 523.496C858.095 523.496 856.25 520.126 856.496 519.388C856.741 518.65 860.193 521.459 860.566 521.441C860.939 521.424 863.674 518.078 864.201 518.282C864.728 518.487 862.991 523.048 863.111 523.496Z" fill="#D9D9D9"/>
<g filter="url(#filter10_d_2362_68)">
<path d="M692.145 480.575C689.199 492.324 667.283 479.064 655.64 478.323C643.996 477.582 668.373 495.59 681.263 506.636C694.153 517.682 663.71 538.313 670.692 551.213C677.674 564.113 695.793 535.55 707.719 525.433C719.645 515.315 752.988 561.129 767.614 553.851C782.241 546.573 739.546 525.443 735.409 511.575C731.272 497.708 765.265 484.955 758.915 477.411C755.418 473.257 738.318 487.364 727.159 490.615C716 493.866 717.212 441.4 706.05 437.216C694.888 433.031 695.827 465.889 692.145 480.575Z" fill="url(#paint10_linear_2362_68)"/>
</g>
<g filter="url(#filter11_d_2362_68)">
<path d="M693.201 511.824C693.86 506.817 652.426 483.893 658.94 482.497C665.453 481.102 684.739 490.125 691.398 490.416C698.057 490.707 701.14 445.055 705.234 446.265C709.329 447.474 714.154 486.905 721.392 492.849C728.63 498.794 753.217 475.738 756.135 480.028C759.052 484.317 729.202 504.346 728.276 507.914C727.35 511.482 762.735 540.883 761.933 547.904C761.131 554.925 717.651 520.189 712.678 519.543C707.705 518.896 682.208 551.6 674.538 550.38C666.869 549.16 692.542 516.831 693.201 511.824Z" fill="url(#paint11_linear_2362_68)"/>
</g>
<path d="M672.84 488.3C670.941 490.04 674.547 492.631 675.748 491.44C676.948 490.249 673.453 486.831 672.84 488.3Z" fill="#D9D9D9"/>
<path d="M693.417 500.167C695.355 498.469 691.797 495.811 690.57 496.975C689.342 498.139 692.772 501.621 693.417 500.167Z" fill="#D9D9D9"/>
<path d="M683.222 495.093C685.16 493.395 681.602 490.737 680.374 491.901C679.147 493.065 682.576 496.547 683.222 495.093Z" fill="#D9D9D9"/>
<path d="M706.269 485.321C704.371 487.061 707.977 489.652 709.178 488.462C710.378 487.271 706.883 483.852 706.269 485.321Z" fill="#D9D9D9"/>
<path d="M704.625 474.284C702.726 476.024 706.333 478.615 707.533 477.424C708.733 476.234 705.238 472.815 704.625 474.284Z" fill="#D9D9D9"/>
<path d="M724.027 498.225C722.129 499.965 725.735 502.556 726.935 501.365C728.136 500.174 724.641 496.755 724.027 498.225Z" fill="#D9D9D9"/>
<path d="M731.75 494.007C729.851 495.747 733.458 498.338 734.658 497.147C735.858 495.956 732.363 492.538 731.75 494.007Z" fill="#D9D9D9"/>
<path d="M741.129 488.197C739.23 489.937 742.836 492.528 744.037 491.338C745.237 490.147 741.742 486.728 741.129 488.197Z" fill="#D9D9D9"/>
<path d="M726.153 521.002C728.278 522.87 730.264 519.35 728.827 518.167C727.39 516.985 724.539 520.393 726.153 521.002Z" fill="#D9D9D9"/>
<path d="M739.372 527.725C738.949 525.054 734.927 526.128 735.269 527.878C735.61 529.628 740.251 529.203 739.372 527.725Z" fill="#D9D9D9"/>
<path d="M745.531 534.029C743.632 535.769 747.239 538.36 748.439 537.17C749.64 535.979 746.144 532.56 745.531 534.029Z" fill="#D9D9D9"/>
<path d="M696.365 524.805C697.262 522.372 693.016 521.41 692.488 523.034C691.96 524.658 696.466 526.45 696.365 524.805Z" fill="#D9D9D9"/>
<path d="M707.488 516.197C709.444 521.351 716.69 517.553 715.285 514.202C713.88 510.851 705.17 513.609 707.488 516.197Z" fill="#741F5E" stroke="#D9D9D9" stroke-width="2"/>
<path d="M701.825 491.733C698.221 487.397 693.014 493.556 695.477 496.329C697.941 499.102 704.843 493.453 701.825 491.733Z" fill="#741F5E" stroke="#D9D9D9" stroke-width="2"/>
<path d="M720.033 495.974C721.335 490.921 712.771 489.771 712.041 493.131C711.311 496.491 720.549 499.26 720.033 495.974Z" fill="#741F5E" stroke="#D9D9D9" stroke-width="2"/>
<path d="M695.851 505.356C692.054 508.835 699.266 514.017 701.667 511.636C704.068 509.254 697.078 502.417 695.851 505.356Z" fill="#741F5E" stroke="#D9D9D9" stroke-width="2"/>
<path d="M722.994 510.618C726.271 506.658 718.537 502.341 716.488 505.027C714.439 507.712 722.167 513.719 722.994 510.618Z" fill="#741F5E" stroke="#D9D9D9" stroke-width="2"/>
<path d="M691.05 531.95C691.087 529.29 686.873 529.667 686.913 531.42C686.954 533.174 691.676 533.529 691.05 531.95Z" fill="#D9D9D9"/>
<path d="M685.421 540.297C686.295 537.854 682.044 536.928 681.531 538.558C681.019 540.188 685.537 541.942 685.421 540.297Z" fill="#D9D9D9"/>
<path d="M705.246 462.081C703.347 463.821 706.954 466.412 708.154 465.221C709.355 464.031 705.859 460.612 705.246 462.081Z" fill="#D9D9D9"/>
<path d="M706.175 500.673C705.892 501.005 701.738 500.089 701.731 500.619C701.725 501.149 705.724 503.253 705.862 503.73C706.001 504.207 704.662 507.887 705.15 508.161C705.638 508.436 708.065 505.429 708.716 505.495C709.367 505.561 711.96 507.445 712.955 507.506C713.951 507.568 711.219 503.066 711.219 503.066C711.219 503.066 714.297 501.018 714.318 500.259C714.338 499.501 709.848 500.295 709.479 500.101C709.111 499.908 707.574 495.696 706.971 495.623C706.367 495.549 706.458 500.34 706.175 500.673Z" fill="#D9D9D9"/>
<g filter="url(#filter12_d_2362_68)">
<path d="M1220.96 251.565C1250.44 254.851 1281.35 230.619 1298.47 212.561C1315.59 194.503 1181.95 218.398 1241.41 191.276C1300.86 164.153 1195.39 168.725 1133.34 185.076C1071.29 201.427 1072.3 213.904 1021.95 231.107C971.598 248.31 1041.07 245.598 1061.32 235.292C1081.57 224.985 1103.38 205.379 1131.1 205.379C1142.95 205.379 1146.99 214.255 1135.51 220.878C1124.02 227.501 1101.91 225.683 1104.08 228.395C1106.25 231.107 1123.92 240.146 1138.83 238.081C1152.75 236.153 1161.54 229.515 1175.31 220.878C1197.05 207.239 1236.2 220.646 1229.05 231.107C1223.33 239.476 1199.84 234.594 1188.82 231.107C1187.25 236.557 1191.49 248.28 1220.96 251.565Z" fill="url(#paint12_radial_2362_68)"/>
</g>
<g filter="url(#filter13_d_2362_68)">
<path d="M204.038 251.565C174.565 254.851 143.649 230.619 126.528 212.561C109.408 194.503 243.046 218.398 183.594 191.276C124.143 164.153 229.61 168.725 291.662 185.076C353.714 201.427 352.703 213.904 403.053 231.107C453.402 248.31 383.934 245.598 363.683 235.292C343.432 224.985 321.623 205.379 293.901 205.379C282.054 205.379 278.009 214.255 289.495 220.878C300.981 227.501 323.085 225.683 320.918 228.395C318.751 231.107 301.082 240.146 286.172 238.081C272.254 236.153 263.461 229.515 249.692 220.878C227.948 207.239 188.796 220.646 195.947 231.107C201.668 239.476 225.155 234.594 236.183 231.107C237.749 236.557 233.511 248.28 204.038 251.565Z" fill="url(#paint13_radial_2362_68)"/>
</g>
<g filter="url(#filter14_d_2362_68)">
<path d="M1094.23 233.569C1123.6 236.814 1154.41 212.884 1171.48 195.052C1188.54 177.22 1055.35 200.817 1114.6 174.033C1173.85 147.249 1068.74 151.764 1006.9 167.91C945.058 184.057 946.066 196.379 895.887 213.367C845.707 230.355 914.941 227.677 935.123 217.499C955.306 207.321 977.042 187.96 1004.67 187.96C1016.48 187.96 1020.51 196.725 1009.06 203.265C997.614 209.805 975.584 208.01 977.744 210.688C979.903 213.367 997.513 222.292 1012.37 220.253C1026.24 218.35 1035.01 211.794 1048.73 203.265C1070.4 189.796 1109.42 203.036 1102.29 213.367C1096.59 221.631 1073.18 216.81 1062.19 213.367C1060.63 218.749 1064.86 230.324 1094.23 233.569Z" fill="url(#paint14_radial_2362_68)"/>
</g>
<g filter="url(#filter15_d_2362_68)">
<path d="M336.771 233.569C307.397 236.814 276.586 212.884 259.523 195.052C242.46 177.22 375.647 200.817 316.396 174.033C257.146 147.249 362.256 151.764 424.099 167.91C485.942 184.057 484.934 196.379 535.113 213.367C585.293 230.355 516.059 227.677 495.877 217.499C475.694 207.321 453.958 187.96 426.331 187.96C414.524 187.96 410.492 196.725 421.939 203.265C433.386 209.805 455.416 208.01 453.256 210.688C451.097 213.367 433.487 222.292 418.627 220.253C404.756 218.35 395.993 211.794 382.271 203.265C360.601 189.796 321.58 203.036 328.707 213.367C334.409 221.631 357.817 216.81 368.808 213.367C370.368 218.749 366.144 230.324 336.771 233.569Z" fill="url(#paint15_radial_2362_68)"/>
</g>
<g filter="url(#filter16_d_2362_68)">
<path d="M485.038 211.565C455.565 214.851 424.649 190.619 407.528 172.561C390.408 154.503 524.046 178.398 464.594 151.276C405.143 124.153 512.849 120.016 574.901 136.367C636.954 152.718 633.703 173.904 684.053 191.107C734.402 208.31 663.251 208.388 643 198.081C622.749 187.774 602.623 165.379 574.901 165.379C563.054 165.379 559.009 174.255 570.495 180.878C581.981 187.501 604.085 185.683 601.918 188.395C599.751 191.107 582.082 200.146 567.172 198.081C553.254 196.153 544.461 189.515 530.692 180.878C508.948 167.239 469.796 180.646 476.947 191.107C482.668 199.476 506.155 194.594 517.183 191.107C518.749 196.557 514.511 208.28 485.038 211.565Z" fill="url(#paint16_radial_2362_68)"/>
</g>
<g filter="url(#filter17_d_2362_68)">
<path d="M925.229 211.565C954.603 214.851 985.414 190.619 1002.48 172.561C1019.54 154.503 886.353 178.398 945.604 151.276C1004.85 124.153 897.512 121.516 835.669 137.867C773.827 154.218 777.066 173.904 726.887 191.107C676.707 208.31 752.318 208.388 772.5 198.081C792.682 187.774 808.042 165.379 835.669 165.379C847.476 165.379 851.508 174.255 840.061 180.878C828.614 187.501 806.584 185.683 808.744 188.395C810.903 191.107 828.513 200.146 843.373 198.081C857.244 196.153 866.007 189.515 879.729 180.878C901.399 167.239 940.42 180.646 933.293 191.107C927.591 199.476 904.183 194.594 893.192 191.107C891.632 196.557 895.856 208.28 925.229 211.565Z" fill="url(#paint17_radial_2362_68)"/>
</g>
<g filter="url(#filter18_d_2362_68)">
<path d="M547.233 174.135C548.86 161.506 526.073 164.255 516.152 159.659C506.23 155.064 532.705 148.876 547.233 144.139C561.761 139.403 543.643 105.707 553.909 96.4968C564.175 87.2863 569.315 122.985 575.707 138.14C582.1 153.296 625.653 124.481 635.271 138.14C644.889 151.799 602.128 152.638 593.887 164.074C585.647 175.51 609.442 203.256 601.557 207.608C597.214 210.005 587.911 188.658 579.775 180.449C571.639 172.24 554.461 223.195 543.746 222.127C533.031 221.059 545.199 189.922 547.233 174.135Z" fill="url(#paint18_linear_2362_68)"/>
</g>
<g filter="url(#filter19_d_2362_68)">
<path d="M558.937 144.595C557.749 149.706 515.413 152.843 520.335 157.152C525.258 161.462 544.393 161.583 550.021 164.339C555.65 167.095 542.385 212.356 546.203 213.061C550.021 213.765 567.693 178.085 575.76 175.673C583.828 173.262 596.246 206.617 600.154 203.826C604.062 201.036 586.227 168.189 586.695 164.339C587.164 160.489 626.725 148.373 628.492 141.262C630.26 134.152 582.131 147.704 577.779 146.058C573.427 144.412 563.599 101.373 556.81 99.0491C550.021 96.7256 560.126 139.485 558.937 144.595Z" fill="url(#paint19_linear_2362_68)"/>
</g>
<path d="M533.89 157.916C532.917 155.379 536.808 154.534 537.392 156.225C537.976 157.916 533.89 159.607 533.89 157.916Z" fill="#D9D9D9"/>
<path d="M555.081 155.893C556.101 158.408 552.226 159.34 551.611 157.662C550.995 155.984 555.049 154.203 555.081 155.893Z" fill="#D9D9D9"/>
<path d="M544.862 156.121C545.882 158.635 542.008 159.567 541.392 157.889C540.777 156.212 544.83 154.43 544.862 156.121Z" fill="#D9D9D9"/>
<path d="M560.601 176.012C559.628 173.476 563.519 172.63 564.103 174.321C564.687 176.012 560.601 177.704 560.601 176.012Z" fill="#D9D9D9"/>
<path d="M555.413 185.868C554.44 183.331 558.332 182.486 558.915 184.177C559.499 185.868 555.413 187.559 555.413 185.868Z" fill="#D9D9D9"/>
<path d="M579.815 171.713C578.843 169.176 582.734 168.33 583.318 170.022C583.902 171.713 579.815 173.404 579.815 171.713Z" fill="#D9D9D9"/>
<path d="M584.761 179.284C583.788 176.747 587.679 175.902 588.263 177.593C588.847 179.284 584.761 180.975 584.761 179.284Z" fill="#D9D9D9"/>
<path d="M590.534 189.139C589.561 186.603 593.453 185.757 594.037 187.448C594.62 189.139 590.534 190.83 590.534 189.139Z" fill="#D9D9D9"/>
<path d="M589.476 150.8C591.888 149.974 592.315 154.261 590.713 154.742C589.111 155.222 587.926 150.649 589.476 150.8Z" fill="#D9D9D9"/>
<path d="M602.775 150.367C601.498 152.739 598.532 149.875 599.422 148.349C600.312 146.824 604.017 149.347 602.775 150.367Z" fill="#D9D9D9"/>
<path d="M610.081 147.119C609.108 144.582 613 143.737 613.583 145.428C614.167 147.119 610.081 148.81 610.081 147.119Z" fill="#D9D9D9"/>
<path d="M566.069 133.569C565.97 136.315 562.112 135.304 562.237 133.503C562.361 131.702 566.723 132.034 566.069 133.569Z" fill="#D9D9D9"/>
<path d="M572.315 146.909C575.725 142.85 580.423 149.8 578.096 152.379C575.768 154.958 569.494 148.338 572.315 146.909Z" fill="#741F5E" stroke="#D9D9D9" stroke-width="2"/>
<path d="M559.135 167.828C554.641 170.351 552.453 162.06 555.46 160.519C558.466 158.978 562.237 167.551 559.135 167.828Z" fill="#741F5E" stroke="#D9D9D9" stroke-width="2"/>
<path d="M575.719 172.052C575.048 177.5 567.542 174.701 568.1 171.14C568.659 167.579 577.287 169.13 575.719 172.052Z" fill="#741F5E" stroke="#D9D9D9" stroke-width="2"/>
<path d="M558.897 152.019C556.951 146.946 564.733 145.255 565.901 148.637C567.068 152.019 558.897 155.401 558.897 152.019Z" fill="#741F5E" stroke="#D9D9D9" stroke-width="2"/>
<path d="M583.25 159.335C584.597 164.633 576.682 165.255 575.912 161.741C575.142 158.227 583.638 155.98 583.25 159.335Z" fill="#741F5E" stroke="#D9D9D9" stroke-width="2"/>
<path d="M564.129 124.283C563.238 126.855 559.87 124.573 560.512 122.907C561.153 121.241 565.195 123.052 564.129 124.283Z" fill="#D9D9D9"/>
<path d="M562.353 113.698C562.232 116.443 558.382 115.396 558.522 113.596C558.661 111.796 563.02 112.17 562.353 113.698Z" fill="#D9D9D9"/>
<path d="M551.698 197.873C550.726 195.336 554.617 194.491 555.201 196.182C555.784 197.873 551.698 199.564 551.698 197.873Z" fill="#D9D9D9"/>
<path d="M565.846 161.223C565.727 160.775 561.961 159.761 562.139 159.25C562.317 158.738 566.366 158.539 566.646 158.144C566.926 157.749 567.091 153.604 567.591 153.562C568.091 153.521 569.063 157.516 569.626 157.749C570.189 157.982 572.995 157.354 573.843 157.749C574.69 158.144 570.862 161.223 570.862 161.223C570.862 161.223 572.707 164.594 572.461 165.332C572.216 166.07 568.764 163.26 568.391 163.278C568.018 163.296 565.283 166.642 564.756 166.437C564.229 166.233 565.966 161.672 565.846 161.223Z" fill="#D9D9D9"/>
<g filter="url(#filter20_d_2362_68)">
<path d="M875.724 184.282C874.097 171.653 896.884 174.402 906.805 169.807C916.727 165.211 890.252 159.023 875.724 154.287C861.197 149.551 879.314 115.855 869.048 106.644C858.782 97.4338 853.642 133.132 847.25 148.288C840.858 163.443 797.304 134.629 787.686 148.288C778.068 161.947 820.829 162.785 829.07 174.221C837.31 185.657 813.515 213.403 821.4 217.756C825.743 220.153 835.046 198.806 843.182 190.597C851.318 182.387 868.496 233.343 879.211 232.274C889.926 231.206 877.758 200.069 875.724 184.282Z" fill="url(#paint20_linear_2362_68)"/>
</g>
<g filter="url(#filter21_d_2362_68)">
<path d="M864.02 154.743C865.208 159.853 907.544 162.99 902.622 167.3C897.699 171.609 878.564 171.731 872.936 174.487C867.307 177.242 880.572 222.504 876.754 223.208C872.936 223.913 855.265 188.233 847.197 185.821C839.129 183.409 826.711 216.765 822.803 213.974C818.895 211.183 836.73 178.336 836.262 174.487C835.793 170.637 796.232 158.52 794.465 151.41C792.697 144.299 840.826 157.851 845.178 156.205C849.53 154.559 859.358 111.52 866.147 109.197C872.936 106.873 862.831 149.632 864.02 154.743Z" fill="url(#paint21_linear_2362_68)"/>
</g>
<path d="M889.067 168.063C890.04 165.526 886.149 164.681 885.565 166.372C884.981 168.063 889.067 169.754 889.067 168.063Z" fill="#D9D9D9"/>
<path d="M867.876 166.041C866.856 168.555 870.731 169.487 871.346 167.809C871.962 166.132 867.908 164.35 867.876 166.041Z" fill="#D9D9D9"/>
<path d="M878.095 166.268C877.075 168.783 880.949 169.715 881.565 168.037C882.18 166.359 878.127 164.578 878.095 166.268Z" fill="#D9D9D9"/>
<path d="M862.356 186.16C863.329 183.623 859.438 182.778 858.854 184.469C858.27 186.16 862.356 187.851 862.356 186.16Z" fill="#D9D9D9"/>
<path d="M867.544 196.015C868.517 193.478 864.625 192.633 864.042 194.324C863.458 196.015 867.544 197.706 867.544 196.015Z" fill="#D9D9D9"/>
<path d="M843.142 181.86C844.114 179.323 840.223 178.478 839.639 180.169C839.056 181.86 843.142 183.551 843.142 181.86Z" fill="#D9D9D9"/>
<path d="M838.196 189.431C839.169 186.895 835.278 186.049 834.694 187.74C834.11 189.431 838.196 191.122 838.196 189.431Z" fill="#D9D9D9"/>
<path d="M832.423 199.287C833.396 196.75 829.504 195.905 828.92 197.596C828.337 199.287 832.423 200.978 832.423 199.287Z" fill="#D9D9D9"/>
<path d="M833.481 160.947C831.069 160.121 830.642 164.408 832.244 164.889C833.846 165.37 835.031 160.796 833.481 160.947Z" fill="#D9D9D9"/>
<path d="M820.182 160.514C821.459 162.887 824.425 160.022 823.535 158.497C822.645 156.971 818.94 159.495 820.182 160.514Z" fill="#D9D9D9"/>
<path d="M812.876 157.266C813.849 154.729 809.957 153.884 809.374 155.575C808.79 157.266 812.876 158.957 812.876 157.266Z" fill="#D9D9D9"/>
<path d="M856.888 143.716C856.987 146.462 860.845 145.452 860.72 143.651C860.596 141.85 856.234 142.182 856.888 143.716Z" fill="#D9D9D9"/>
<path d="M850.642 157.057C847.232 152.997 842.534 159.948 844.861 162.526C847.189 165.105 853.463 158.486 850.642 157.057Z" fill="#741F5E" stroke="#D9D9D9" stroke-width="2"/>
<path d="M863.822 177.976C868.316 180.498 870.504 172.208 867.497 170.667C864.491 169.125 860.72 177.699 863.822 177.976Z" fill="#741F5E" stroke="#D9D9D9" stroke-width="2"/>
<path d="M847.238 182.199C847.909 187.647 855.416 184.848 854.857 181.288C854.298 177.727 845.67 179.278 847.238 182.199Z" fill="#741F5E" stroke="#D9D9D9" stroke-width="2"/>
<path d="M864.06 162.166C866.006 157.092 858.224 155.401 857.056 158.784C855.889 162.166 864.06 165.548 864.06 162.166Z" fill="#741F5E" stroke="#D9D9D9" stroke-width="2"/>
<path d="M839.707 169.483C838.36 174.78 846.275 175.402 847.045 171.889C847.815 168.375 839.319 166.127 839.707 169.483Z" fill="#741F5E" stroke="#D9D9D9" stroke-width="2"/>
<path d="M858.828 134.43C859.72 137.002 863.087 134.72 862.445 133.053C861.804 131.387 857.762 133.198 858.828 134.43Z" fill="#D9D9D9"/>
<path d="M860.604 123.846C860.725 126.591 864.575 125.543 864.435 123.743C864.296 121.943 859.937 122.318 860.604 123.846Z" fill="#D9D9D9"/>
<path d="M871.259 208.02C872.232 205.483 868.34 204.638 867.756 206.329C867.173 208.02 871.259 209.711 871.259 208.02Z" fill="#D9D9D9"/>
<path d="M857.111 171.371C857.23 170.923 860.996 169.909 860.818 169.397C860.64 168.885 856.591 168.686 856.311 168.291C856.031 167.896 855.866 163.751 855.366 163.71C854.866 163.668 853.894 167.663 853.331 167.896C852.768 168.13 849.962 167.501 849.115 167.896C848.267 168.291 852.095 171.371 852.095 171.371C852.095 171.371 850.25 174.741 850.496 175.479C850.741 176.217 854.193 173.408 854.566 173.426C854.939 173.444 857.674 176.789 858.201 176.585C858.728 176.38 856.991 171.819 857.111 171.371Z" fill="#D9D9D9"/>
<g filter="url(#filter22_d_2362_68)">
<path d="M686.145 214.292C683.199 202.543 661.283 215.803 649.64 216.544C637.996 217.285 662.373 199.278 675.263 188.232C688.153 177.186 657.71 156.554 664.692 143.654C671.674 130.754 689.793 159.317 701.719 169.434C713.645 179.552 746.988 133.738 761.614 141.016C776.241 148.295 733.546 169.424 729.409 183.292C725.272 197.159 759.265 209.912 752.915 217.456C749.418 221.611 732.318 207.503 721.159 204.252C710 201.001 711.212 253.467 700.05 257.652C688.888 261.836 689.827 228.978 686.145 214.292Z" fill="url(#paint22_linear_2362_68)"/>
</g>
<g filter="url(#filter23_d_2362_68)">
<path d="M687.201 183.043C687.86 188.05 646.426 210.974 652.94 212.37C659.453 213.766 678.739 204.742 685.398 204.451C692.057 204.16 695.14 249.812 699.234 248.602C703.329 247.393 708.154 207.963 715.392 202.018C722.63 196.073 747.217 219.129 750.135 214.84C753.052 210.55 723.202 190.521 722.276 186.954C721.35 183.386 756.735 153.984 755.933 146.963C755.131 139.942 711.651 174.678 706.678 175.325C701.705 175.971 676.208 143.267 668.538 144.487C660.869 145.707 686.542 178.036 687.201 183.043Z" fill="url(#paint23_linear_2362_68)"/>
</g>
<path d="M666.84 206.567C664.941 204.827 668.547 202.236 669.748 203.427C670.948 204.618 667.453 208.037 666.84 206.567Z" fill="#D9D9D9"/>
<path d="M687.417 194.7C689.355 196.398 685.797 199.056 684.57 197.892C683.342 196.728 686.772 193.246 687.417 194.7Z" fill="#D9D9D9"/>
<path d="M677.222 199.774C679.16 201.472 675.602 204.13 674.374 202.966C673.147 201.802 676.576 198.32 677.222 199.774Z" fill="#D9D9D9"/>
<path d="M700.269 209.546C698.371 207.806 701.977 205.215 703.178 206.406C704.378 207.596 700.883 211.015 700.269 209.546Z" fill="#D9D9D9"/>
<path d="M698.625 220.583C696.726 218.843 700.333 216.252 701.533 217.443C702.733 218.633 699.238 222.052 698.625 220.583Z" fill="#D9D9D9"/>
<path d="M718.027 196.643C716.129 194.903 719.735 192.312 720.935 193.502C722.136 194.693 718.641 198.112 718.027 196.643Z" fill="#D9D9D9"/>
<path d="M725.75 200.86C723.851 199.12 727.458 196.529 728.658 197.72C729.858 198.911 726.363 202.33 725.75 200.86Z" fill="#D9D9D9"/>
<path d="M735.129 206.67C733.23 204.93 736.836 202.339 738.037 203.53C739.237 204.72 735.742 208.139 735.129 206.67Z" fill="#D9D9D9"/>
<path d="M720.153 173.866C722.278 171.997 724.264 175.518 722.827 176.7C721.39 177.882 718.539 174.474 720.153 173.866Z" fill="#D9D9D9"/>
<path d="M733.372 167.142C732.949 169.813 728.927 168.739 729.269 166.989C729.61 165.239 734.251 165.664 733.372 167.142Z" fill="#D9D9D9"/>
<path d="M739.531 160.838C737.632 159.098 741.239 156.507 742.439 157.698C743.64 158.888 740.144 162.307 739.531 160.838Z" fill="#D9D9D9"/>
<path d="M690.365 170.062C691.262 172.495 687.016 173.458 686.488 171.833C685.96 170.209 690.466 168.417 690.365 170.062Z" fill="#D9D9D9"/>
<path d="M701.488 178.671C703.444 173.517 710.69 177.314 709.285 180.665C707.88 184.016 699.17 181.258 701.488 178.671Z" fill="#741F5E" stroke="#D9D9D9" stroke-width="2"/>
<path d="M695.825 203.135C692.221 207.47 687.014 201.311 689.477 198.538C691.941 195.765 698.843 201.414 695.825 203.135Z" fill="#741F5E" stroke="#D9D9D9" stroke-width="2"/>
<path d="M714.033 198.893C715.335 203.946 706.771 205.096 706.041 201.736C705.311 198.376 714.549 195.607 714.033 198.893Z" fill="#741F5E" stroke="#D9D9D9" stroke-width="2"/>
<path d="M689.851 189.512C686.054 186.032 693.266 180.85 695.667 183.232C698.068 185.613 691.078 192.45 689.851 189.512Z" fill="#741F5E" stroke="#D9D9D9" stroke-width="2"/>
<path d="M716.994 184.249C720.271 188.209 712.537 192.526 710.488 189.841C708.439 187.155 716.167 181.149 716.994 184.249Z" fill="#741F5E" stroke="#D9D9D9" stroke-width="2"/>
<path d="M685.05 162.917C685.087 165.577 680.873 165.201 680.913 163.447C680.954 161.693 685.676 161.338 685.05 162.917Z" fill="#D9D9D9"/>
<path d="M679.421 154.571C680.295 157.013 676.044 157.94 675.531 156.309C675.019 154.679 679.537 152.925 679.421 154.571Z" fill="#D9D9D9"/>
<path d="M699.246 232.786C697.347 231.046 700.954 228.455 702.154 229.646C703.355 230.837 699.859 234.255 699.246 232.786Z" fill="#D9D9D9"/>
<path d="M700.175 194.195C699.892 193.862 695.738 194.778 695.731 194.248C695.725 193.719 699.724 191.614 699.862 191.137C700.001 190.66 698.662 186.981 699.15 186.706C699.638 186.431 702.065 189.438 702.716 189.372C703.367 189.306 705.96 187.422 706.955 187.361C707.951 187.299 705.219 191.801 705.219 191.801C705.219 191.801 708.297 193.85 708.318 194.608C708.338 195.366 703.848 194.572 703.479 194.766C703.111 194.959 701.574 199.171 700.971 199.245C700.367 199.318 700.458 194.527 700.175 194.195Z" fill="#D9D9D9"/>
<defs>
<filter id="filter0_d_2362_68" x="885" y="322" width="546" height="330" filterUnits="userSpaceOnUse" color-interpolation-filters="sRGB">
<feFlood flood-opacity="0" result="BackgroundImageFix"/>
<feColorMatrix in="SourceAlpha" type="matrix" values="0 0 0 0 0 0 0 0 0 0 0 0 0 0 0 0 0 0 127 0" result="hardAlpha"/>
<feOffset dy="4"/>
<feGaussianBlur stdDeviation="62.5"/>
<feComposite in2="hardAlpha" operator="out"/>
<feColorMatrix type="matrix" values="0 0 0 0 0.602456 0 0 0 0 0.862489 0 0 0 0 0.9525 0 0 0 0.54 0"/>
<feBlend mode="normal" in2="BackgroundImageFix" result="effect1_dropShadow_2362_68"/>
<feBlend mode="normal" in="SourceGraphic" in2="effect1_dropShadow_2362_68" result="shape"/>
</filter>
<filter id="filter1_d_2362_68" x="6" y="322" width="546" height="330" filterUnits="userSpaceOnUse" color-interpolation-filters="sRGB">
<feFlood flood-opacity="0" result="BackgroundImageFix"/>
<feColorMatrix in="SourceAlpha" type="matrix" values="0 0 0 0 0 0 0 0 0 0 0 0 0 0 0 0 0 0 127 0" result="hardAlpha"/>
<feOffset dy="4"/>
<feGaussianBlur stdDeviation="62.5"/>
<feComposite in2="hardAlpha" operator="out"/>
<feColorMatrix type="matrix" values="0 0 0 0 0.602456 0 0 0 0 0.862489 0 0 0 0 0.9525 0 0 0 0.54 0"/>
<feBlend mode="normal" in2="BackgroundImageFix" result="effect1_dropShadow_2362_68"/>
<feBlend mode="normal" in="SourceGraphic" in2="effect1_dropShadow_2362_68" result="shape"/>
</filter>
<filter id="filter2_d_2362_68" x="759" y="340" width="545" height="329" filterUnits="userSpaceOnUse" color-interpolation-filters="sRGB">
<feFlood flood-opacity="0" result="BackgroundImageFix"/>
<feColorMatrix in="SourceAlpha" type="matrix" values="0 0 0 0 0 0 0 0 0 0 0 0 0 0 0 0 0 0 127 0" result="hardAlpha"/>
<feOffset dy="4"/>
<feGaussianBlur stdDeviation="62.5"/>
<feComposite in2="hardAlpha" operator="out"/>
<feColorMatrix type="matrix" values="0 0 0 0 0.602456 0 0 0 0 0.862489 0 0 0 0 0.9525 0 0 0 0.54 0"/>
<feBlend mode="normal" in2="BackgroundImageFix" result="effect1_dropShadow_2362_68"/>
<feBlend mode="normal" in="SourceGraphic" in2="effect1_dropShadow_2362_68" result="shape"/>
</filter>
<filter id="filter3_d_2362_68" x="139" y="340" width="545" height="329" filterUnits="userSpaceOnUse" color-interpolation-filters="sRGB">
<feFlood flood-opacity="0" result="BackgroundImageFix"/>
<feColorMatrix in="SourceAlpha" type="matrix" values="0 0 0 0 0 0 0 0 0 0 0 0 0 0 0 0 0 0 127 0" result="hardAlpha"/>
<feOffset dy="4"/>
<feGaussianBlur stdDeviation="62.5"/>
<feComposite in2="hardAlpha" operator="out"/>
<feColorMatrix type="matrix" values="0 0 0 0 0.602456 0 0 0 0 0.862489 0 0 0 0 0.9525 0 0 0 0.54 0"/>
<feBlend mode="normal" in2="BackgroundImageFix" result="effect1_dropShadow_2362_68"/>
<feBlend mode="normal" in="SourceGraphic" in2="effect1_dropShadow_2362_68" result="shape"/>
</filter>
<filter id="filter4_d_2362_68" x="287" y="362" width="545.73" height="335.134" filterUnits="userSpaceOnUse" color-interpolation-filters="sRGB">
<feFlood flood-opacity="0" result="BackgroundImageFix"/>
<feColorMatrix in="SourceAlpha" type="matrix" values="0 0 0 0 0 0 0 0 0 0 0 0 0 0 0 0 0 0 127 0" result="hardAlpha"/>
<feOffset dy="4"/>
<feGaussianBlur stdDeviation="62.5"/>
<feComposite in2="hardAlpha" operator="out"/>
<feColorMatrix type="matrix" values="0 0 0 0 0.602456 0 0 0 0 0.862489 0 0 0 0 0.9525 0 0 0 0.54 0"/>
<feBlend mode="normal" in2="BackgroundImageFix" result="effect1_dropShadow_2362_68"/>
<feBlend mode="normal" in="SourceGraphic" in2="effect1_dropShadow_2362_68" result="shape"/>
</filter>
<filter id="filter5_d_2362_68" x="590.988" y="362" width="544.012" height="334.158" filterUnits="userSpaceOnUse" color-interpolation-filters="sRGB">
<feFlood flood-opacity="0" result="BackgroundImageFix"/>
<feColorMatrix in="SourceAlpha" type="matrix" values="0 0 0 0 0 0 0 0 0 0 0 0 0 0 0 0 0 0 127 0" result="hardAlpha"/>
<feOffset dy="4"/>
<feGaussianBlur stdDeviation="62.5"/>
<feComposite in2="hardAlpha" operator="out"/>
<feColorMatrix type="matrix" values="0 0 0 0 0.602456 0 0 0 0 0.862489 0 0 0 0 0.9525 0 0 0 0.54 0"/>
<feBlend mode="normal" in2="BackgroundImageFix" result="effect1_dropShadow_2362_68"/>
<feBlend mode="normal" in="SourceGraphic" in2="effect1_dropShadow_2362_68" result="shape"/>
</filter>
<filter id="filter6_d_2362_68" x="430.08" y="386.824" width="302.491" height="306.944" filterUnits="userSpaceOnUse" color-interpolation-filters="sRGB">
<feFlood flood-opacity="0" result="BackgroundImageFix"/>
<feColorMatrix in="SourceAlpha" type="matrix" values="0 0 0 0 0 0 0 0 0 0 0 0 0 0 0 0 0 0 127 0" result="hardAlpha"/>
<feOffset dy="4"/>
<feGaussianBlur stdDeviation="44.95"/>
<feComposite in2="hardAlpha" operator="out"/>
<feColorMatrix type="matrix" values="0 0 0 0 0.407843 0 0 0 0 0.0941176 0 0 0 0 0.129412 0 0 0 1 0"/>
<feBlend mode="normal" in2="BackgroundImageFix" result="effect1_dropShadow_2362_68"/>
<feBlend mode="normal" in="SourceGraphic" in2="effect1_dropShadow_2362_68" result="shape"/>
</filter>
<filter id="filter7_d_2362_68" x="423.137" y="382.996" width="314.202" height="319.713" filterUnits="userSpaceOnUse" color-interpolation-filters="sRGB">
<feFlood flood-opacity="0" result="BackgroundImageFix"/>
<feColorMatrix in="SourceAlpha" type="matrix" values="0 0 0 0 0 0 0 0 0 0 0 0 0 0 0 0 0 0 127 0" result="hardAlpha"/>
<feOffset dy="4"/>
<feGaussianBlur stdDeviation="51.4"/>
<feComposite in2="hardAlpha" operator="out"/>
<feColorMatrix type="matrix" values="0 0 0 0 0.847059 0 0 0 0 0.709804 0 0 0 0 0.458824 0 0 0 1 0"/>
<feBlend mode="normal" in2="BackgroundImageFix" result="effect1_dropShadow_2362_68"/>
<feBlend mode="normal" in="SourceGraphic" in2="effect1_dropShadow_2362_68" result="shape"/>
</filter>
<filter id="filter8_d_2362_68" x="702.385" y="376.676" width="302.491" height="306.944" filterUnits="userSpaceOnUse" color-interpolation-filters="sRGB">
<feFlood flood-opacity="0" result="BackgroundImageFix"/>
<feColorMatrix in="SourceAlpha" type="matrix" values="0 0 0 0 0 0 0 0 0 0 0 0 0 0 0 0 0 0 127 0" result="hardAlpha"/>
<feOffset dy="4"/>
<feGaussianBlur stdDeviation="44.95"/>
<feComposite in2="hardAlpha" operator="out"/>
<feColorMatrix type="matrix" values="0 0 0 0 0.407843 0 0 0 0 0.0941176 0 0 0 0 0.129412 0 0 0 1 0"/>
<feBlend mode="normal" in2="BackgroundImageFix" result="effect1_dropShadow_2362_68"/>
<feBlend mode="normal" in="SourceGraphic" in2="effect1_dropShadow_2362_68" result="shape"/>
</filter>
<filter id="filter9_d_2362_68" x="697.618" y="372.848" width="314.202" height="319.713" filterUnits="userSpaceOnUse" color-interpolation-filters="sRGB">
<feFlood flood-opacity="0" result="BackgroundImageFix"/>
<feColorMatrix in="SourceAlpha" type="matrix" values="0 0 0 0 0 0 0 0 0 0 0 0 0 0 0 0 0 0 127 0" result="hardAlpha"/>
<feOffset dy="4"/>
<feGaussianBlur stdDeviation="51.4"/>
<feComposite in2="hardAlpha" operator="out"/>
<feColorMatrix type="matrix" values="0 0 0 0 0.847059 0 0 0 0 0.709804 0 0 0 0 0.458824 0 0 0 1 0"/>
<feBlend mode="normal" in2="BackgroundImageFix" result="effect1_dropShadow_2362_68"/>
<feBlend mode="normal" in="SourceGraphic" in2="effect1_dropShadow_2362_68" result="shape"/>
</filter>
<filter id="filter10_d_2362_68" x="562.674" y="350.951" width="297.878" height="297.588" filterUnits="userSpaceOnUse" color-interpolation-filters="sRGB">
<feFlood flood-opacity="0" result="BackgroundImageFix"/>
<feColorMatrix in="SourceAlpha" type="matrix" values="0 0 0 0 0 0 0 0 0 0 0 0 0 0 0 0 0 0 127 0" result="hardAlpha"/>
<feOffset dy="4"/>
<feGaussianBlur stdDeviation="44.95"/>
<feComposite in2="hardAlpha" operator="out"/>
<feColorMatrix type="matrix" values="0 0 0 0 0.407843 0 0 0 0 0.0941176 0 0 0 0 0.129412 0 0 0 1 0"/>
<feBlend mode="normal" in2="BackgroundImageFix" result="effect1_dropShadow_2362_68"/>
<feBlend mode="normal" in="SourceGraphic" in2="effect1_dropShadow_2362_68" result="shape"/>
</filter>
<filter id="filter11_d_2362_68" x="555.446" y="347.441" width="309.299" height="309.772" filterUnits="userSpaceOnUse" color-interpolation-filters="sRGB">
<feFlood flood-opacity="0" result="BackgroundImageFix"/>
<feColorMatrix in="SourceAlpha" type="matrix" values="0 0 0 0 0 0 0 0 0 0 0 0 0 0 0 0 0 0 127 0" result="hardAlpha"/>
<feOffset dy="4"/>
<feGaussianBlur stdDeviation="51.4"/>
<feComposite in2="hardAlpha" operator="out"/>
<feColorMatrix type="matrix" values="0 0 0 0 0.847059 0 0 0 0 0.709804 0 0 0 0 0.458824 0 0 0 1 0"/>
<feBlend mode="normal" in2="BackgroundImageFix" result="effect1_dropShadow_2362_68"/>
<feBlend mode="normal" in="SourceGraphic" in2="effect1_dropShadow_2362_68" result="shape"/>
</filter>
<filter id="filter12_d_2362_68" x="879" y="50.8672" width="546" height="330" filterUnits="userSpaceOnUse" color-interpolation-filters="sRGB">
<feFlood flood-opacity="0" result="BackgroundImageFix"/>
<feColorMatrix in="SourceAlpha" type="matrix" values="0 0 0 0 0 0 0 0 0 0 0 0 0 0 0 0 0 0 127 0" result="hardAlpha"/>
<feOffset dy="4"/>
<feGaussianBlur stdDeviation="62.5"/>
<feComposite in2="hardAlpha" operator="out"/>
<feColorMatrix type="matrix" values="0 0 0 0 0.602456 0 0 0 0 0.862489 0 0 0 0 0.9525 0 0 0 0.54 0"/>
<feBlend mode="normal" in2="BackgroundImageFix" result="effect1_dropShadow_2362_68"/>
<feBlend mode="normal" in="SourceGraphic" in2="effect1_dropShadow_2362_68" result="shape"/>
</filter>
<filter id="filter13_d_2362_68" x="0" y="50.8672" width="546" height="330" filterUnits="userSpaceOnUse" color-interpolation-filters="sRGB">
<feFlood flood-opacity="0" result="BackgroundImageFix"/>
<feColorMatrix in="SourceAlpha" type="matrix" values="0 0 0 0 0 0 0 0 0 0 0 0 0 0 0 0 0 0 127 0" result="hardAlpha"/>
<feOffset dy="4"/>
<feGaussianBlur stdDeviation="62.5"/>
<feComposite in2="hardAlpha" operator="out"/>
<feColorMatrix type="matrix" values="0 0 0 0 0.602456 0 0 0 0 0.862489 0 0 0 0 0.9525 0 0 0 0.54 0"/>
<feBlend mode="normal" in2="BackgroundImageFix" result="effect1_dropShadow_2362_68"/>
<feBlend mode="normal" in="SourceGraphic" in2="effect1_dropShadow_2362_68" result="shape"/>
</filter>
<filter id="filter14_d_2362_68" x="753" y="33.8672" width="545" height="329" filterUnits="userSpaceOnUse" color-interpolation-filters="sRGB">
<feFlood flood-opacity="0" result="BackgroundImageFix"/>
<feColorMatrix in="SourceAlpha" type="matrix" values="0 0 0 0 0 0 0 0 0 0 0 0 0 0 0 0 0 0 127 0" result="hardAlpha"/>
<feOffset dy="4"/>
<feGaussianBlur stdDeviation="62.5"/>
<feComposite in2="hardAlpha" operator="out"/>
<feColorMatrix type="matrix" values="0 0 0 0 0.602456 0 0 0 0 0.862489 0 0 0 0 0.9525 0 0 0 0.54 0"/>
<feBlend mode="normal" in2="BackgroundImageFix" result="effect1_dropShadow_2362_68"/>
<feBlend mode="normal" in="SourceGraphic" in2="effect1_dropShadow_2362_68" result="shape"/>
</filter>
<filter id="filter15_d_2362_68" x="133" y="33.8672" width="545" height="329" filterUnits="userSpaceOnUse" color-interpolation-filters="sRGB">
<feFlood flood-opacity="0" result="BackgroundImageFix"/>
<feColorMatrix in="SourceAlpha" type="matrix" values="0 0 0 0 0 0 0 0 0 0 0 0 0 0 0 0 0 0 127 0" result="hardAlpha"/>
<feOffset dy="4"/>
<feGaussianBlur stdDeviation="62.5"/>
<feComposite in2="hardAlpha" operator="out"/>
<feColorMatrix type="matrix" values="0 0 0 0 0.602456 0 0 0 0 0.862489 0 0 0 0 0.9525 0 0 0 0.54 0"/>
<feBlend mode="normal" in2="BackgroundImageFix" result="effect1_dropShadow_2362_68"/>
<feBlend mode="normal" in="SourceGraphic" in2="effect1_dropShadow_2362_68" result="shape"/>
</filter>
<filter id="filter16_d_2362_68" x="281" y="5.7334" width="545.73" height="335.134" filterUnits="userSpaceOnUse" color-interpolation-filters="sRGB">
<feFlood flood-opacity="0" result="BackgroundImageFix"/>
<feColorMatrix in="SourceAlpha" type="matrix" values="0 0 0 0 0 0 0 0 0 0 0 0 0 0 0 0 0 0 127 0" result="hardAlpha"/>
<feOffset dy="4"/>
<feGaussianBlur stdDeviation="62.5"/>
<feComposite in2="hardAlpha" operator="out"/>
<feColorMatrix type="matrix" values="0 0 0 0 0.602456 0 0 0 0 0.862489 0 0 0 0 0.9525 0 0 0 0.54 0"/>
<feBlend mode="normal" in2="BackgroundImageFix" result="effect1_dropShadow_2362_68"/>
<feBlend mode="normal" in="SourceGraphic" in2="effect1_dropShadow_2362_68" result="shape"/>
</filter>
<filter id="filter17_d_2362_68" x="584.988" y="6.70898" width="544.012" height="334.158" filterUnits="userSpaceOnUse" color-interpolation-filters="sRGB">
<feFlood flood-opacity="0" result="BackgroundImageFix"/>
<feColorMatrix in="SourceAlpha" type="matrix" values="0 0 0 0 0 0 0 0 0 0 0 0 0 0 0 0 0 0 127 0" result="hardAlpha"/>
<feOffset dy="4"/>
<feGaussianBlur stdDeviation="62.5"/>
<feComposite in2="hardAlpha" operator="out"/>
<feColorMatrix type="matrix" values="0 0 0 0 0.602456 0 0 0 0 0.862489 0 0 0 0 0.9525 0 0 0 0.54 0"/>
<feBlend mode="normal" in2="BackgroundImageFix" result="effect1_dropShadow_2362_68"/>
<feBlend mode="normal" in="SourceGraphic" in2="effect1_dropShadow_2362_68" result="shape"/>
</filter>
<filter id="filter18_d_2362_68" x="424.08" y="9.1" width="302.491" height="306.944" filterUnits="userSpaceOnUse" color-interpolation-filters="sRGB">
<feFlood flood-opacity="0" result="BackgroundImageFix"/>
<feColorMatrix in="SourceAlpha" type="matrix" values="0 0 0 0 0 0 0 0 0 0 0 0 0 0 0 0 0 0 127 0" result="hardAlpha"/>
<feOffset dy="4"/>
<feGaussianBlur stdDeviation="44.95"/>
<feComposite in2="hardAlpha" operator="out"/>
<feColorMatrix type="matrix" values="0 0 0 0 0.407843 0 0 0 0 0.0941176 0 0 0 0 0.129412 0 0 0 1 0"/>
<feBlend mode="normal" in2="BackgroundImageFix" result="effect1_dropShadow_2362_68"/>
<feBlend mode="normal" in="SourceGraphic" in2="effect1_dropShadow_2362_68" result="shape"/>
</filter>
<filter id="filter19_d_2362_68" x="417.137" y="0.158005" width="314.202" height="319.713" filterUnits="userSpaceOnUse" color-interpolation-filters="sRGB">
<feFlood flood-opacity="0" result="BackgroundImageFix"/>
<feColorMatrix in="SourceAlpha" type="matrix" values="0 0 0 0 0 0 0 0 0 0 0 0 0 0 0 0 0 0 127 0" result="hardAlpha"/>
<feOffset dy="4"/>
<feGaussianBlur stdDeviation="51.4"/>
<feComposite in2="hardAlpha" operator="out"/>
<feColorMatrix type="matrix" values="0 0 0 0 0.847059 0 0 0 0 0.709804 0 0 0 0 0.458824 0 0 0 1 0"/>
<feBlend mode="normal" in2="BackgroundImageFix" result="effect1_dropShadow_2362_68"/>
<feBlend mode="normal" in="SourceGraphic" in2="effect1_dropShadow_2362_68" result="shape"/>
</filter>
<filter id="filter20_d_2362_68" x="696.385" y="19.2475" width="302.491" height="306.944" filterUnits="userSpaceOnUse" color-interpolation-filters="sRGB">
<feFlood flood-opacity="0" result="BackgroundImageFix"/>
<feColorMatrix in="SourceAlpha" type="matrix" values="0 0 0 0 0 0 0 0 0 0 0 0 0 0 0 0 0 0 127 0" result="hardAlpha"/>
<feOffset dy="4"/>
<feGaussianBlur stdDeviation="44.95"/>
<feComposite in2="hardAlpha" operator="out"/>
<feColorMatrix type="matrix" values="0 0 0 0 0.407843 0 0 0 0 0.0941176 0 0 0 0 0.129412 0 0 0 1 0"/>
<feBlend mode="normal" in2="BackgroundImageFix" result="effect1_dropShadow_2362_68"/>
<feBlend mode="normal" in="SourceGraphic" in2="effect1_dropShadow_2362_68" result="shape"/>
</filter>
<filter id="filter21_d_2362_68" x="691.618" y="10.3055" width="314.202" height="319.713" filterUnits="userSpaceOnUse" color-interpolation-filters="sRGB">
<feFlood flood-opacity="0" result="BackgroundImageFix"/>
<feColorMatrix in="SourceAlpha" type="matrix" values="0 0 0 0 0 0 0 0 0 0 0 0 0 0 0 0 0 0 127 0" result="hardAlpha"/>
<feOffset dy="4"/>
<feGaussianBlur stdDeviation="51.4"/>
<feComposite in2="hardAlpha" operator="out"/>
<feColorMatrix type="matrix" values="0 0 0 0 0.847059 0 0 0 0 0.709804 0 0 0 0 0.458824 0 0 0 1 0"/>
<feBlend mode="normal" in2="BackgroundImageFix" result="effect1_dropShadow_2362_68"/>
<feBlend mode="normal" in="SourceGraphic" in2="effect1_dropShadow_2362_68" result="shape"/>
</filter>
<filter id="filter22_d_2362_68" x="556.674" y="54.3285" width="297.878" height="297.588" filterUnits="userSpaceOnUse" color-interpolation-filters="sRGB">
<feFlood flood-opacity="0" result="BackgroundImageFix"/>
<feColorMatrix in="SourceAlpha" type="matrix" values="0 0 0 0 0 0 0 0 0 0 0 0 0 0 0 0 0 0 127 0" result="hardAlpha"/>
<feOffset dy="4"/>
<feGaussianBlur stdDeviation="44.95"/>
<feComposite in2="hardAlpha" operator="out"/>
<feColorMatrix type="matrix" values="0 0 0 0 0.407843 0 0 0 0 0.0941176 0 0 0 0 0.129412 0 0 0 1 0"/>
<feBlend mode="normal" in2="BackgroundImageFix" result="effect1_dropShadow_2362_68"/>
<feBlend mode="normal" in="SourceGraphic" in2="effect1_dropShadow_2362_68" result="shape"/>
</filter>
<filter id="filter23_d_2362_68" x="549.446" y="45.6541" width="309.299" height="309.772" filterUnits="userSpaceOnUse" color-interpolation-filters="sRGB">
<feFlood flood-opacity="0" result="BackgroundImageFix"/>
<feColorMatrix in="SourceAlpha" type="matrix" values="0 0 0 0 0 0 0 0 0 0 0 0 0 0 0 0 0 0 127 0" result="hardAlpha"/>
<feOffset dy="4"/>
<feGaussianBlur stdDeviation="51.4"/>
<feComposite in2="hardAlpha" operator="out"/>
<feColorMatrix type="matrix" values="0 0 0 0 0.847059 0 0 0 0 0.709804 0 0 0 0 0.458824 0 0 0 1 0"/>
<feBlend mode="normal" in2="BackgroundImageFix" result="effect1_dropShadow_2362_68"/>
<feBlend mode="normal" in="SourceGraphic" in2="effect1_dropShadow_2362_68" result="shape"/>
</filter>
<radialGradient id="paint0_radial_2362_68" cx="0" cy="0" r="1" gradientUnits="userSpaceOnUse" gradientTransform="translate(1243.36 472.697) rotate(178.625) scale(264.827 69.5697)">
<stop stop-color="#75D7D6"/>
<stop offset="0.288144" stop-color="#3CC1EC"/>
<stop offset="0.836667" stop-color="#C213BB"/>
<stop offset="1" stop-color="#D575D7"/>
</radialGradient>
<radialGradient id="paint1_radial_2362_68" cx="0" cy="0" r="1" gradientUnits="userSpaceOnUse" gradientTransform="translate(193.641 472.697) rotate(1.37492) scale(264.827 69.5697)">
<stop stop-color="#75D7D6"/>
<stop offset="0.288144" stop-color="#3CC1EC"/>
<stop offset="0.836667" stop-color="#C213BB"/>
<stop offset="1" stop-color="#D575D7"/>
</radialGradient>
<radialGradient id="paint2_radial_2362_68" cx="0" cy="0" r="1" gradientUnits="userSpaceOnUse" gradientTransform="translate(1116.57 490.326) rotate(178.638) scale(263.931 68.7005)">
<stop stop-color="#75D7D6"/>
<stop offset="0.288144" stop-color="#3CC1EC"/>
<stop offset="0.836667" stop-color="#C213BB"/>
<stop offset="1" stop-color="#D575D7"/>
</radialGradient>
<radialGradient id="paint3_radial_2362_68" cx="0" cy="0" r="1" gradientUnits="userSpaceOnUse" gradientTransform="translate(326.43 490.326) rotate(1.36234) scale(263.931 68.7005)">
<stop stop-color="#75D7D6"/>
<stop offset="0.288144" stop-color="#3CC1EC"/>
<stop offset="0.836667" stop-color="#C213BB"/>
<stop offset="1" stop-color="#D575D7"/>
</radialGradient>
<radialGradient id="paint4_radial_2362_68" cx="0" cy="0" r="1" gradientUnits="userSpaceOnUse" gradientTransform="translate(474.641 512.697) rotate(1.37492) scale(264.827 69.5697)">
<stop stop-color="#75D7D6"/>
<stop offset="0.288144" stop-color="#3CC1EC"/>
<stop offset="0.836667" stop-color="#C213BB"/>
<stop offset="1" stop-color="#D575D7"/>
</radialGradient>
<radialGradient id="paint5_radial_2362_68" cx="0" cy="0" r="1" gradientUnits="userSpaceOnUse" gradientTransform="translate(947.57 512.697) rotate(178.62) scale(263.933 69.5696)">
<stop stop-color="#75D7D6"/>
<stop offset="0.288144" stop-color="#3CC1EC"/>
<stop offset="0.836667" stop-color="#C213BB"/>
<stop offset="1" stop-color="#D575D7"/>
</radialGradient>
<linearGradient id="paint6_linear_2362_68" x1="580.155" y1="472.485" x2="580.155" y2="603.288" gradientUnits="userSpaceOnUse">
<stop stop-color="#71D0CF"/>
<stop offset="0.305" stop-color="#5BA7A6"/>
<stop offset="0.78" stop-color="#75D7D6"/>
</linearGradient>
<linearGradient id="paint7_linear_2362_68" x1="578.235" y1="480.703" x2="582.767" y2="595.05" gradientUnits="userSpaceOnUse">
<stop offset="0.485" stop-color="#B32169"/>
<stop offset="1" stop-color="#3029BA"/>
</linearGradient>
<linearGradient id="paint8_linear_2362_68" x1="854.802" y1="462.338" x2="854.802" y2="593.141" gradientUnits="userSpaceOnUse">
<stop stop-color="#71D0CF"/>
<stop offset="0.305" stop-color="#5BA7A6"/>
<stop offset="0.78" stop-color="#75D7D6"/>
</linearGradient>
<linearGradient id="paint9_linear_2362_68" x1="856.722" y1="470.556" x2="852.19" y2="584.902" gradientUnits="userSpaceOnUse">
<stop offset="0.485" stop-color="#B32169"/>
<stop offset="1" stop-color="#3029BA"/>
</linearGradient>
<linearGradient id="paint10_linear_2362_68" x1="736.721" y1="451.502" x2="683.989" y2="562.642" gradientUnits="userSpaceOnUse">
<stop stop-color="#71D0CF"/>
<stop offset="0.305" stop-color="#5BA7A6"/>
<stop offset="0.78" stop-color="#75D7D6"/>
</linearGradient>
<linearGradient id="paint11_linear_2362_68" x1="731.811" y1="457.726" x2="688.885" y2="556.63" gradientUnits="userSpaceOnUse">
<stop offset="0.485" stop-color="#B32169"/>
<stop offset="1" stop-color="#3029BA"/>
</linearGradient>
<radialGradient id="paint12_radial_2362_68" cx="0" cy="0" r="1" gradientUnits="userSpaceOnUse" gradientTransform="translate(1237.36 222.17) rotate(-178.625) scale(264.827 69.5697)">
<stop stop-color="#75D7D6"/>
<stop offset="0.288144" stop-color="#3CC1EC"/>
<stop offset="0.836667" stop-color="#C213BB"/>
<stop offset="1" stop-color="#D575D7"/>
</radialGradient>
<radialGradient id="paint13_radial_2362_68" cx="0" cy="0" r="1" gradientUnits="userSpaceOnUse" gradientTransform="translate(187.641 222.17) rotate(-1.37492) scale(264.827 69.5697)">
<stop stop-color="#75D7D6"/>
<stop offset="0.288144" stop-color="#3CC1EC"/>
<stop offset="0.836667" stop-color="#C213BB"/>
<stop offset="1" stop-color="#D575D7"/>
</radialGradient>
<radialGradient id="paint14_radial_2362_68" cx="0" cy="0" r="1" gradientUnits="userSpaceOnUse" gradientTransform="translate(1110.57 204.541) rotate(-178.638) scale(263.931 68.7005)">
<stop stop-color="#75D7D6"/>
<stop offset="0.288144" stop-color="#3CC1EC"/>
<stop offset="0.836667" stop-color="#C213BB"/>
<stop offset="1" stop-color="#D575D7"/>
</radialGradient>
<radialGradient id="paint15_radial_2362_68" cx="0" cy="0" r="1" gradientUnits="userSpaceOnUse" gradientTransform="translate(320.43 204.541) rotate(-1.36234) scale(263.931 68.7005)">
<stop stop-color="#75D7D6"/>
<stop offset="0.288144" stop-color="#3CC1EC"/>
<stop offset="0.836667" stop-color="#C213BB"/>
<stop offset="1" stop-color="#D575D7"/>
</radialGradient>
<radialGradient id="paint16_radial_2362_68" cx="0" cy="0" r="1" gradientUnits="userSpaceOnUse" gradientTransform="translate(468.641 182.17) rotate(-1.37492) scale(264.827 69.5697)">
<stop stop-color="#75D7D6"/>
<stop offset="0.288144" stop-color="#3CC1EC"/>
<stop offset="0.836667" stop-color="#C213BB"/>
<stop offset="1" stop-color="#D575D7"/>
</radialGradient>
<radialGradient id="paint17_radial_2362_68" cx="0" cy="0" r="1" gradientUnits="userSpaceOnUse" gradientTransform="translate(941.57 182.17) rotate(-178.62) scale(263.933 69.5696)">
<stop stop-color="#75D7D6"/>
<stop offset="0.288144" stop-color="#3CC1EC"/>
<stop offset="0.836667" stop-color="#C213BB"/>
<stop offset="1" stop-color="#D575D7"/>
</radialGradient>
<linearGradient id="paint18_linear_2362_68" x1="574.155" y1="222.382" x2="574.155" y2="91.579" gradientUnits="userSpaceOnUse">
<stop stop-color="#71D0CF"/>
<stop offset="0.305" stop-color="#5BA7A6"/>
<stop offset="0.78" stop-color="#75D7D6"/>
</linearGradient>
<linearGradient id="paint19_linear_2362_68" x1="572.235" y1="214.164" x2="576.767" y2="99.8176" gradientUnits="userSpaceOnUse">
<stop offset="0.485" stop-color="#B32169"/>
<stop offset="1" stop-color="#3029BA"/>
</linearGradient>
<linearGradient id="paint20_linear_2362_68" x1="848.802" y1="232.53" x2="848.802" y2="101.726" gradientUnits="userSpaceOnUse">
<stop stop-color="#71D0CF"/>
<stop offset="0.305" stop-color="#5BA7A6"/>
<stop offset="0.78" stop-color="#75D7D6"/>
</linearGradient>
<linearGradient id="paint21_linear_2362_68" x1="850.722" y1="224.311" x2="846.19" y2="109.965" gradientUnits="userSpaceOnUse">
<stop offset="0.485" stop-color="#B32169"/>
<stop offset="1" stop-color="#3029BA"/>
</linearGradient>
<linearGradient id="paint22_linear_2362_68" x1="730.721" y1="243.365" x2="677.989" y2="132.226" gradientUnits="userSpaceOnUse">
<stop stop-color="#71D0CF"/>
<stop offset="0.305" stop-color="#5BA7A6"/>
<stop offset="0.78" stop-color="#75D7D6"/>
</linearGradient>
<linearGradient id="paint23_linear_2362_68" x1="725.811" y1="237.141" x2="682.885" y2="138.237" gradientUnits="userSpaceOnUse">
<stop offset="0.485" stop-color="#B32169"/>
<stop offset="1" stop-color="#3029BA"/>
</linearGradient>
</defs>
</svg>
