<svg width="635" height="86" viewBox="0 0 635 86" fill="none" xmlns="http://www.w3.org/2000/svg">
<path d="M63.045 10.184C63.333 11.144 62.853 27.08 63.141 30.152C63.237 31.688 64.485 35.72 61.893 35.72C56.517 35.72 50.469 35.336 45.189 34.76C42.501 34.472 45.189 31.016 42.693 28.232C37.989 22.952 30.885 28.04 28.581 32.84C25.605 39.08 25.413 47.24 28.581 53.384C30.597 57.416 35.205 61.448 40.005 59.24C43.653 57.608 44.037 54.248 45.381 50.984C45.957 49.64 59.589 51.272 61.701 51.752C63.141 52.04 64.197 52.52 64.197 54.152C64.197 79.304 29.349 85.064 13.893 69.512C0.261 55.784 0.933 28.808 14.757 15.464C25.317 5.192 43.269 4.04 56.901 7.496C58.437 7.88 62.085 8.84 63.045 10.184ZM33.861 75.56C34.821 75.656 38.181 75.752 39.045 75.56C41.541 74.888 40.677 71.432 38.661 71.624C29.253 72.488 22.341 68.36 16.581 61.352C14.853 59.336 12.069 61.448 13.509 63.656C17.829 70.376 26.181 74.504 33.861 75.56ZM42.981 70.76C41.349 74.12 47.493 74.696 46.629 71.144C46.149 69.416 43.749 69.128 42.981 70.76ZM109.727 2.696C109.439 6.056 104.735 3.17599 107.327 1.256C108.671 0.199999 109.919 0.967995 109.727 2.696ZM129.791 13.448C130.367 14.984 128.639 15.656 127.679 14.408C126.239 12.488 124.991 11.048 122.783 9.992C121.631 9.41599 112.031 5.576 111.743 5.192C111.071 4.232 111.743 3.272 112.799 2.984C117.887 1.64 128.062 8.84 129.791 13.448ZM105.791 77C101.567 77.288 93.5985 77.288 89.8545 75.464C77.1825 69.32 74.1105 51.368 72.1905 38.984C71.3265 33.608 70.6545 28.232 71.6145 22.856C73.3425 12.872 80.2545 7.976 89.9505 6.92C96.3825 6.152 103.007 6.632 109.247 8.264C116.735 10.28 124.319 14.312 127.871 21.512C129.503 24.968 130.175 28.712 130.463 32.552C131.231 43.784 125.279 69.992 114.335 75.368C111.743 76.616 108.671 76.808 105.791 77ZM96.9585 53.672C110.879 60.68 113.087 35.816 109.919 31.496C108.863 30.056 107.327 29 105.695 28.232C103.103 26.984 96.8625 25.928 94.3665 27.752C89.6625 31.304 91.7745 51.08 96.9585 53.672ZM171.443 45.608C172.403 42.248 182.579 9.224 184.307 8.456C185.458 7.976 199.763 9.41599 200.339 10.568C200.723 11.336 200.723 14.216 200.819 15.272C201.971 32.456 203.795 49.928 206.579 66.92C206.771 68.168 208.211 74.984 207.635 75.656C207.059 76.328 194.003 77 192.179 77.192C190.835 77.384 187.187 78.344 186.515 76.616C184.979 72.488 184.595 48.104 184.499 42.344C183.443 44.936 176.627 65.384 176.627 65.384C175.667 66.44 167.219 65.576 165.203 65.672C162.803 65.864 162.803 62.408 162.419 60.68C160.979 54.536 159.347 48.392 158.003 42.152C156.467 53 155.891 63.944 155.027 74.888C154.931 75.752 154.931 77.384 153.779 77.576C153.299 77.672 150.611 76.616 149.939 76.424C146.003 75.272 139.091 73.736 135.059 73.832C134.291 73.544 134.483 71.624 134.675 70.952C138.898 51.752 142.259 32.744 145.523 13.448C145.619 12.68 145.811 11.816 146.387 11.24C147.539 10.088 162.515 7.112 163.091 7.976C163.283 8.264 163.379 9.89599 163.475 10.376C165.203 22.28 168.179 33.992 171.443 45.608ZM195.539 29.096C196.307 31.112 199.187 30.44 199.283 28.328C199.379 24.776 198.995 13.544 195.251 11.912C194.195 11.432 190.355 11.24 189.107 11.24C186.227 11.24 184.883 13.832 187.283 14.888C188.531 15.464 193.043 14.792 193.811 15.56C195.251 16.904 194.771 26.984 195.539 29.096ZM196.499 36.776C197.651 37.64 199.475 36.968 199.667 35.528C200.243 31.304 193.139 34.088 196.499 36.776ZM238.784 58.184C238.496 63.272 238.496 68.456 238.88 73.544C238.976 74.888 239.552 77.384 238.304 78.344C238.208 78.44 237.632 78.536 237.536 78.536C232.64 79.4 221.792 79.112 216.896 78.152C215.552 77.864 214.88 77.288 214.784 75.848C214.688 72.104 216.224 62.12 216.512 57.32C217.184 43.88 218.048 25.544 216.704 12.392C216.608 11.528 216.32 10.376 216.992 9.608C217.568 8.936 218.72 9.032 219.488 8.936C228.32 7.68799 236.768 6.536 245.792 7.68799C273.824 11.24 275.456 52.808 238.784 58.184ZM236.192 22.76C236.96 29.288 236.96 35.816 237.344 42.344C254.624 39.368 253.088 23.528 243.2 22.472C240.896 22.28 238.496 22.568 236.192 22.76ZM262.784 55.112C261.056 56.648 259.52 53.768 262.4 51.656C263.552 50.888 264.992 52.136 264.416 53.384C264.224 53.864 263.168 54.728 262.784 55.112ZM247.232 65.096C246.08 65.384 243.392 65.48 242.336 65C240.896 64.424 240.992 62.504 242.528 62.12C247.136 60.872 250.4 59.912 254.72 57.608C260.864 54.248 261.728 61.16 247.232 65.096ZM292.866 58.376C295.17 58.664 297.954 58.664 300.354 58.568C304.482 58.376 308.706 57.512 312.642 56.36C313.794 56.072 315.234 55.4 316.386 55.208C317.634 55.016 317.538 56.648 317.634 57.512C317.922 59.528 319.17 71.72 318.69 72.68C318.402 73.448 317.442 73.832 316.77 74.12C306.882 78.44 287.874 80.168 279.042 72.776C272.898 67.688 273.378 56.648 273.666 49.352C273.858 45.224 276.162 12.968 277.698 12.008C280.002 10.568 315.234 6.248 317.25 7.4C318.018 7.784 318.306 8.456 318.402 9.32C318.69 11.624 318.69 27.464 317.634 28.328C316.386 28.808 297.954 28.616 294.402 28.904L294.21 29.288L293.538 36.968C295.842 36.968 306.498 36.68 307.746 36.968C308.994 37.256 308.802 46.664 308.514 48.296C308.418 48.776 307.842 49.16 307.458 49.352C302.274 49.832 297.186 49.832 292.002 49.544C292.098 52.52 292.194 55.496 292.866 58.376ZM317.538 79.976C314.082 82.472 313.122 77.576 316.578 78.056C317.442 78.152 318.498 79.208 317.538 79.976ZM298.53 84.584C295.362 84.968 291.906 84.68 288.834 83.816C287.586 83.432 284.13 81.8 283.554 80.744C283.17 79.976 283.458 78.728 284.418 78.632C284.61 78.632 288.546 80.168 289.218 80.36C292.674 81.416 296.322 81.992 299.97 81.704C303.618 81.416 306.978 80.36 310.53 79.688C312.258 79.304 312.834 81.128 311.202 81.8C307.362 83.24 302.562 84.104 298.53 84.584ZM343.62 78.056C341.124 79.304 341.22 72.2 341.124 70.856C340.452 59.336 339.3 37.064 340.836 26.12C336.228 26.6 330.756 28.04 326.244 27.944C324.996 27.944 324.42 26.984 324.036 25.928C323.46 24.104 323.748 7.976 324.324 6.248C324.612 5.47999 324.996 4.712 325.668 4.328C326.724 3.65599 329.508 4.04 330.756 4.232C346.116 6.152 361.668 4.712 377.124 6.152C379.044 6.34399 379.332 6.632 380.292 8.168C380.292 11.816 380.388 23.144 377.892 25.448C376.548 26.696 374.436 26.696 372.708 26.696C369.636 26.696 366.66 26.408 363.588 26.792C363.684 42.632 364.74 58.28 365.412 74.12C365.412 74.696 365.412 76.136 364.932 76.52C364.452 76.904 362.82 77 362.148 77C358.596 77 345.06 78.248 343.62 78.056ZM350.052 12.776C350.724 12.968 369.348 11.816 369.732 11.624C370.98 10.856 370.692 8.55199 369.348 8.07199C368.868 7.88 350.34 8.936 349.572 9.41599C348.324 10.28 348.516 12.296 350.052 12.776ZM373.956 11.816C375.012 12.68 376.548 12.008 376.932 10.76C378.372 6.248 370.308 8.936 373.956 11.816ZM409.316 6.92C409.7 7.592 409.22 8.456 408.452 8.55199C407.78 8.648 407.204 8.168 406.531 8.07199C402.884 7.496 398.948 8.744 395.492 8.264C394.82 8.168 393.764 7.784 393.764 7.016C393.764 3.56 407.876 4.13599 409.316 6.92ZM391.46 8.84C389.348 11.528 386.564 5.096 390.308 5.47999C391.844 5.672 392.324 7.68799 391.46 8.84ZM395.876 77.864C394.34 77.864 390.02 78.056 388.868 77C388.196 76.328 388.1 75.272 388.004 74.408C387.62 70.472 385.508 16.424 385.604 15.944C386.276 13.256 400.292 12.872 402.98 12.872C404.036 12.872 406.916 12.776 407.78 13.256C409.411 14.12 409.124 17.768 409.124 19.304L409.22 75.656C409.22 76.616 408.836 77.096 407.972 77.384C406.724 77.768 397.892 77.864 395.876 77.864ZM435.683 78.056C433.187 79.304 433.283 72.2 433.187 70.856C432.515 59.336 431.363 37.064 432.899 26.12C428.291 26.6 422.819 28.04 418.307 27.944C417.059 27.944 416.483 26.984 416.099 25.928C415.523 24.104 415.811 7.976 416.387 6.248C416.675 5.47999 417.059 4.712 417.73 4.328C418.787 3.65599 421.571 4.04 422.819 4.232C438.179 6.152 453.731 4.712 469.187 6.152C471.107 6.34399 471.395 6.632 472.355 8.168C472.355 11.816 472.451 23.144 469.955 25.448C468.611 26.696 466.499 26.696 464.771 26.696C461.699 26.696 458.723 26.408 455.651 26.792C455.747 42.632 456.803 58.28 457.475 74.12C457.475 74.696 457.475 76.136 456.995 76.52C456.515 76.904 454.883 77 454.211 77C450.659 77 437.123 78.248 435.683 78.056ZM442.115 12.776C442.786 12.968 461.411 11.816 461.795 11.624C463.042 10.856 462.755 8.55199 461.411 8.07199C460.931 7.88 442.403 8.936 441.635 9.41599C440.387 10.28 440.579 12.296 442.115 12.776ZM466.019 11.816C467.075 12.68 468.611 12.008 468.995 10.76C470.435 6.248 462.371 8.936 466.019 11.816ZM501.378 6.92C501.762 7.592 501.282 8.456 500.514 8.55199C499.842 8.648 499.266 8.168 498.594 8.07199C494.946 7.496 491.01 8.744 487.554 8.264C486.882 8.168 485.826 7.784 485.826 7.016C485.826 3.56 499.938 4.13599 501.378 6.92ZM483.522 8.84C481.41 11.528 478.626 5.096 482.37 5.47999C483.906 5.672 484.386 7.68799 483.522 8.84ZM487.938 77.864C486.402 77.864 482.082 78.056 480.93 77C480.258 76.328 480.162 75.272 480.066 74.408C479.682 70.472 477.57 16.424 477.666 15.944C478.338 13.256 492.354 12.872 495.042 12.872C496.098 12.872 498.978 12.776 499.842 13.256C501.474 14.12 501.186 17.768 501.186 19.304L501.282 75.656C501.282 76.616 500.898 77.096 500.034 77.384C498.786 77.768 489.954 77.864 487.938 77.864ZM548.289 2.696C548.001 6.056 543.297 3.17599 545.889 1.256C547.233 0.199999 548.481 0.967995 548.289 2.696ZM568.353 13.448C568.929 14.984 567.201 15.656 566.241 14.408C564.801 12.488 563.553 11.048 561.345 9.992C560.193 9.41599 550.593 5.576 550.305 5.192C549.633 4.232 550.305 3.272 551.361 2.984C556.449 1.64 566.625 8.84 568.353 13.448ZM544.353 77C540.129 77.288 532.161 77.288 528.417 75.464C515.745 69.32 512.673 51.368 510.753 38.984C509.889 33.608 509.217 28.232 510.177 22.856C511.905 12.872 518.817 7.976 528.513 6.92C534.945 6.152 541.569 6.632 547.809 8.264C555.297 10.28 562.881 14.312 566.433 21.512C568.065 24.968 568.737 28.712 569.025 32.552C569.793 43.784 563.841 69.992 552.897 75.368C550.305 76.616 547.233 76.808 544.353 77ZM535.521 53.672C549.441 60.68 551.649 35.816 548.481 31.496C547.425 30.056 545.889 29 544.257 28.232C541.665 26.984 535.425 25.928 532.929 27.752C528.225 31.304 530.337 51.08 535.521 53.672ZM595.187 32.36C597.107 41.96 601.427 67.112 600.371 76.04C600.179 77.768 598.739 78.344 597.203 78.44C594.515 78.632 578.387 79.112 577.235 77.48C576.179 75.944 577.427 71.336 577.715 69.512C579.731 56.264 579.635 33.512 578.387 19.976C578.291 18.536 577.523 11.912 577.715 11.048C578.195 8.84 594.899 5.576 597.011 6.44C598.739 7.112 602.291 16.04 603.059 18.056C606.995 28.04 609.971 38.408 613.427 48.584C614.195 36.68 613.235 23.624 611.315 11.912C611.123 10.568 610.451 8.744 612.083 8.07199C613.907 7.304 630.899 6.248 633.107 6.824C633.395 7.20799 633.299 7.68799 633.203 8.168C632.435 13.256 632.531 18.824 632.435 24.008C632.147 37.256 631.955 50.504 631.859 63.752C631.859 66.632 627.635 65.864 625.715 65.864C620.531 65.864 616.019 66.728 611.027 67.784C610.547 67.88 609.875 67.88 609.491 67.592C608.627 66.92 608.435 65.672 608.147 64.712C605.075 53.96 601.139 41.864 595.187 32.36ZM610.643 76.232C609.971 76.328 608.915 76.424 608.243 76.232C606.707 75.848 606.707 73.928 608.147 73.448C612.467 71.912 616.979 71.72 621.491 71.336C627.539 70.856 626.099 74.504 623.987 74.984C619.763 75.944 614.963 75.656 610.643 76.232ZM631.475 71.816C634.067 72.488 632.147 76.328 629.459 74.696C627.443 73.448 629.651 71.336 631.475 71.816Z" fill="url(#paint0_linear_1590_13)"/>
<defs>
<linearGradient id="paint0_linear_1590_13" x1="319.5" y1="-1" x2="319.5" y2="89" gradientUnits="userSpaceOnUse">
<stop stop-color="#FFEAC3"/>
<stop offset="0.79" stop-color="#E6A7A5"/>
<stop offset="1" stop-color="#B32169"/>
</linearGradient>
</defs>
</svg>
