<svg width="171" height="51" viewBox="0 0 171 51" fill="none" xmlns="http://www.w3.org/2000/svg">
<rect x="2.38672" y="1.5" width="167" height="48" rx="24" fill="white" stroke="url(#paint0_linear_2125_3)" stroke-width="3"/>
<path d="M72.827 26C72.827 24.6267 73.1336 23.4 73.747 22.32C74.3736 21.2267 75.2203 20.38 76.287 19.78C77.367 19.1667 78.5736 18.86 79.907 18.86C81.467 18.86 82.8336 19.26 84.007 20.06C85.1803 20.86 86.0003 21.9667 86.467 23.38H83.247C82.927 22.7133 82.4736 22.2133 81.887 21.88C81.3136 21.5467 80.647 21.38 79.887 21.38C79.0736 21.38 78.347 21.5733 77.707 21.96C77.0803 22.3333 76.587 22.8667 76.227 23.56C75.8803 24.2533 75.707 25.0667 75.707 26C75.707 26.92 75.8803 27.7333 76.227 28.44C76.587 29.1333 77.0803 29.6733 77.707 30.06C78.347 30.4333 79.0736 30.62 79.887 30.62C80.647 30.62 81.3136 30.4533 81.887 30.12C82.4736 29.7733 82.927 29.2667 83.247 28.6H86.467C86.0003 30.0267 85.1803 31.14 84.007 31.94C82.847 32.7267 81.4803 33.12 79.907 33.12C78.5736 33.12 77.367 32.82 76.287 32.22C75.2203 31.6067 74.3736 30.76 73.747 29.68C73.1336 28.6 72.827 27.3733 72.827 26ZM99.0385 23.36C99.0385 24.1067 98.8585 24.8067 98.4985 25.46C98.1518 26.1133 97.5985 26.64 96.8385 27.04C96.0918 27.44 95.1452 27.64 93.9985 27.64H91.6585V33H88.8585V19.04H93.9985C95.0785 19.04 95.9985 19.2267 96.7585 19.6C97.5185 19.9733 98.0852 20.4867 98.4585 21.14C98.8452 21.7933 99.0385 22.5333 99.0385 23.36ZM93.8785 25.38C94.6518 25.38 95.2252 25.2067 95.5985 24.86C95.9718 24.5 96.1585 24 96.1585 23.36C96.1585 22 95.3985 21.32 93.8785 21.32H91.6585V25.38H93.8785Z" fill="black"/>
<defs>
<linearGradient id="paint0_linear_2125_3" x1="85.8867" y1="0" x2="85.8867" y2="51" gradientUnits="userSpaceOnUse">
<stop offset="0.095" stop-color="#D7B575"/>
<stop offset="0.32" stop-color="#BED775"/>
<stop offset="0.99" stop-color="#4E3D71"/>
</linearGradient>
</defs>
</svg>
