<svg width="330" height="70" viewBox="0 0 330 70" fill="none" xmlns="http://www.w3.org/2000/svg">
<rect x="1.5" y="1.5" width="327" height="67" rx="33.5" fill="white" stroke="url(#paint0_linear_3286_2088)" stroke-width="3"/>
<path d="M95.8172 35C95.8172 33.6267 96.1239 32.4 96.7372 31.32C97.3639 30.2267 98.2105 29.38 99.2772 28.78C100.357 28.1667 101.564 27.86 102.897 27.86C104.457 27.86 105.824 28.26 106.997 29.06C108.171 29.86 108.991 30.9667 109.457 32.38H106.237C105.917 31.7133 105.464 31.2133 104.877 30.88C104.304 30.5467 103.637 30.38 102.877 30.38C102.064 30.38 101.337 30.5733 100.697 30.96C100.071 31.3333 99.5772 31.8667 99.2172 32.56C98.8705 33.2533 98.6972 34.0667 98.6972 35C98.6972 35.92 98.8705 36.7333 99.2172 37.44C99.5772 38.1333 100.071 38.6733 100.697 39.06C101.337 39.4333 102.064 39.62 102.877 39.62C103.637 39.62 104.304 39.4533 104.877 39.12C105.464 38.7733 105.917 38.2667 106.237 37.6H109.457C108.991 39.0267 108.171 40.14 106.997 40.94C105.837 41.7267 104.471 42.12 102.897 42.12C101.564 42.12 100.357 41.82 99.2772 41.22C98.2105 40.6067 97.3639 39.76 96.7372 38.68C96.1239 37.6 95.8172 36.3733 95.8172 35ZM122.029 32.36C122.029 33.1067 121.849 33.8067 121.489 34.46C121.142 35.1133 120.589 35.64 119.829 36.04C119.082 36.44 118.135 36.64 116.989 36.64H114.649V42H111.849V28.04H116.989C118.069 28.04 118.989 28.2267 119.749 28.6C120.509 28.9733 121.075 29.4867 121.449 30.14C121.835 30.7933 122.029 31.5333 122.029 32.36ZM116.869 34.38C117.642 34.38 118.215 34.2067 118.589 33.86C118.962 33.5 119.149 33 119.149 32.36C119.149 31 118.389 30.32 116.869 30.32H114.649V34.38H116.869ZM128.122 30V27.42H132.942V42H130.062V30H128.122ZM145.634 45.94C144.341 44.6867 143.334 43.0867 142.614 41.14C141.907 39.1933 141.554 37.1067 141.554 34.88C141.554 32.6 141.927 30.46 142.674 28.46C143.421 26.4467 144.507 24.8 145.934 23.52H148.754V23.78C147.287 25.18 146.167 26.86 145.394 28.82C144.634 30.78 144.254 32.8 144.254 34.88C144.254 36.9067 144.614 38.8667 145.334 40.76C146.067 42.64 147.107 44.2733 148.454 45.66V45.94H145.634ZM153.301 39.78H157.901V42H150.501V28.04H153.301V39.78ZM161.101 29.6C160.607 29.6 160.194 29.4467 159.861 29.14C159.541 28.82 159.381 28.4267 159.381 27.96C159.381 27.4933 159.541 27.1067 159.861 26.8C160.194 26.48 160.607 26.32 161.101 26.32C161.594 26.32 162.001 26.48 162.321 26.8C162.654 27.1067 162.821 27.4933 162.821 27.96C162.821 28.4267 162.654 28.82 162.321 29.14C162.001 29.4467 161.594 29.6 161.101 29.6ZM162.481 30.92V42H159.681V30.92H162.481ZM171.387 30.76C172.707 30.76 173.774 31.18 174.587 32.02C175.401 32.8467 175.807 34.0067 175.807 35.5V42H173.007V35.88C173.007 35 172.787 34.3267 172.347 33.86C171.907 33.38 171.307 33.14 170.547 33.14C169.774 33.14 169.161 33.38 168.707 33.86C168.267 34.3267 168.047 35 168.047 35.88V42H165.247V30.92H168.047V32.3C168.421 31.82 168.894 31.4467 169.467 31.18C170.054 30.9 170.694 30.76 171.387 30.76ZM181.73 33.22V38.58C181.73 38.9533 181.817 39.2267 181.99 39.4C182.177 39.56 182.483 39.64 182.91 39.64H184.21V42H182.45C180.09 42 178.91 40.8533 178.91 38.56V33.22H177.59V30.92H178.91V28.18H181.73V30.92H184.21V33.22H181.73ZM185.504 36.42C185.504 35.3 185.724 34.3067 186.164 33.44C186.617 32.5733 187.224 31.9067 187.984 31.44C188.757 30.9733 189.617 30.74 190.564 30.74C191.39 30.74 192.11 30.9067 192.724 31.24C193.35 31.5733 193.85 31.9933 194.224 32.5V30.92H197.044V42H194.224V40.38C193.864 40.9 193.364 41.3333 192.724 41.68C192.097 42.0133 191.37 42.18 190.544 42.18C189.61 42.18 188.757 41.94 187.984 41.46C187.224 40.98 186.617 40.3067 186.164 39.44C185.724 38.56 185.504 37.5533 185.504 36.42ZM194.224 36.46C194.224 35.78 194.09 35.2 193.824 34.72C193.557 34.2267 193.197 33.8533 192.744 33.6C192.29 33.3333 191.804 33.2 191.284 33.2C190.764 33.2 190.284 33.3267 189.844 33.58C189.404 33.8333 189.044 34.2067 188.764 34.7C188.497 35.18 188.364 35.7533 188.364 36.42C188.364 37.0867 188.497 37.6733 188.764 38.18C189.044 38.6733 189.404 39.0533 189.844 39.32C190.297 39.5867 190.777 39.72 191.284 39.72C191.804 39.72 192.29 39.5933 192.744 39.34C193.197 39.0733 193.557 38.7 193.824 38.22C194.09 37.7267 194.224 37.14 194.224 36.46ZM205.918 30.76C207.238 30.76 208.305 31.18 209.118 32.02C209.932 32.8467 210.338 34.0067 210.338 35.5V42H207.538V35.88C207.538 35 207.318 34.3267 206.878 33.86C206.438 33.38 205.838 33.14 205.078 33.14C204.305 33.14 203.692 33.38 203.238 33.86C202.798 34.3267 202.578 35 202.578 35.88V42H199.778V30.92H202.578V32.3C202.952 31.82 203.425 31.4467 203.998 31.18C204.585 30.9 205.225 30.76 205.918 30.76ZM217.341 30.74C218.168 30.74 218.894 30.9067 219.521 31.24C220.148 31.56 220.641 31.98 221.001 32.5V30.92H223.821V42.08C223.821 43.1067 223.614 44.02 223.201 44.82C222.788 45.6333 222.168 46.2733 221.341 46.74C220.514 47.22 219.514 47.46 218.341 47.46C216.768 47.46 215.474 47.0933 214.461 46.36C213.461 45.6267 212.894 44.6267 212.761 43.36H215.541C215.688 43.8667 216.001 44.2667 216.481 44.56C216.974 44.8667 217.568 45.02 218.261 45.02C219.074 45.02 219.734 44.7733 220.241 44.28C220.748 43.8 221.001 43.0667 221.001 42.08V40.36C220.641 40.88 220.141 41.3133 219.501 41.66C218.874 42.0067 218.154 42.18 217.341 42.18C216.408 42.18 215.554 41.94 214.781 41.46C214.008 40.98 213.394 40.3067 212.941 39.44C212.501 38.56 212.281 37.5533 212.281 36.42C212.281 35.3 212.501 34.3067 212.941 33.44C213.394 32.5733 214.001 31.9067 214.761 31.44C215.534 30.9733 216.394 30.74 217.341 30.74ZM221.001 36.46C221.001 35.78 220.868 35.2 220.601 34.72C220.334 34.2267 219.974 33.8533 219.521 33.6C219.068 33.3333 218.581 33.2 218.061 33.2C217.541 33.2 217.061 33.3267 216.621 33.58C216.181 33.8333 215.821 34.2067 215.541 34.7C215.274 35.18 215.141 35.7533 215.141 36.42C215.141 37.0867 215.274 37.6733 215.541 38.18C215.821 38.6733 216.181 39.0533 216.621 39.32C217.074 39.5867 217.554 39.72 218.061 39.72C218.581 39.72 219.068 39.5933 219.521 39.34C219.974 39.0733 220.334 38.7 220.601 38.22C220.868 37.7267 221.001 37.14 221.001 36.46ZM225.836 45.94V45.66C227.182 44.2733 228.216 42.64 228.936 40.76C229.669 38.8667 230.036 36.9067 230.036 34.88C230.036 32.8 229.649 30.78 228.876 28.82C228.116 26.86 227.002 25.18 225.536 23.78V23.52H228.356C229.782 24.8 230.869 26.4467 231.616 28.46C232.362 30.46 232.736 32.6 232.736 34.88C232.736 37.1067 232.376 39.1933 231.656 41.14C230.949 43.0867 229.949 44.6867 228.656 45.94H225.836Z" fill="black"/>
<defs>
<linearGradient id="paint0_linear_3286_2088" x1="165" y1="0" x2="165" y2="70" gradientUnits="userSpaceOnUse">
<stop offset="0.095" stop-color="#D7B575"/>
<stop offset="0.32" stop-color="#BED775"/>
<stop offset="0.99" stop-color="#4E3D71"/>
</linearGradient>
</defs>
</svg>
