<svg width="330" height="70" viewBox="0 0 330 70" fill="none" xmlns="http://www.w3.org/2000/svg">
<g clip-path="url(#clip0_3451_6)">
<rect x="1.5" y="1.5" width="327" height="67" rx="33.5" fill="white" stroke="url(#paint0_linear_3451_6)" stroke-width="3"/>
<path d="M108.327 35C108.327 33.6267 108.634 32.4 109.247 31.32C109.874 30.2267 110.72 29.38 111.787 28.78C112.867 28.1667 114.074 27.86 115.407 27.86C116.967 27.86 118.334 28.26 119.507 29.06C120.68 29.86 121.5 30.9667 121.967 32.38H118.747C118.427 31.7133 117.974 31.2133 117.387 30.88C116.814 30.5467 116.147 30.38 115.387 30.38C114.574 30.38 113.847 30.5733 113.207 30.96C112.58 31.3333 112.087 31.8667 111.727 32.56C111.38 33.2533 111.207 34.0667 111.207 35C111.207 35.92 111.38 36.7333 111.727 37.44C112.087 38.1333 112.58 38.6733 113.207 39.06C113.847 39.4333 114.574 39.62 115.387 39.62C116.147 39.62 116.814 39.4533 117.387 39.12C117.974 38.7733 118.427 38.2667 118.747 37.6H121.967C121.5 39.0267 120.68 40.14 119.507 40.94C118.347 41.7267 116.98 42.12 115.407 42.12C114.074 42.12 112.867 41.82 111.787 41.22C110.72 40.6067 109.874 39.76 109.247 38.68C108.634 37.6 108.327 36.3733 108.327 35ZM134.539 32.36C134.539 33.1067 134.359 33.8067 133.999 34.46C133.652 35.1133 133.099 35.64 132.339 36.04C131.592 36.44 130.645 36.64 129.499 36.64H127.159V42H124.359V28.04H129.499C130.579 28.04 131.499 28.2267 132.259 28.6C133.019 28.9733 133.585 29.4867 133.959 30.14C134.345 30.7933 134.539 31.5333 134.539 32.36ZM129.379 34.38C130.152 34.38 130.725 34.2067 131.099 33.86C131.472 33.5 131.659 33 131.659 32.36C131.659 31 130.899 30.32 129.379 30.32H127.159V34.38H129.379ZM141.852 38.84C143.132 37.7733 144.152 36.8867 144.912 36.18C145.672 35.46 146.305 34.7133 146.812 33.94C147.319 33.1667 147.572 32.4067 147.572 31.66C147.572 30.98 147.412 30.4467 147.092 30.06C146.772 29.6733 146.279 29.48 145.612 29.48C144.945 29.48 144.432 29.7067 144.072 30.16C143.712 30.6 143.525 31.2067 143.512 31.98H140.792C140.845 30.38 141.319 29.1667 142.212 28.34C143.119 27.5133 144.265 27.1 145.652 27.1C147.172 27.1 148.339 27.5067 149.152 28.32C149.965 29.12 150.372 30.18 150.372 31.5C150.372 32.54 150.092 33.5333 149.532 34.48C148.972 35.4267 148.332 36.2533 147.612 36.96C146.892 37.6533 145.952 38.4933 144.792 39.48H150.692V41.8H140.812V39.72L141.852 38.84ZM162.382 45.94C161.089 44.6867 160.082 43.0867 159.362 41.14C158.655 39.1933 158.302 37.1067 158.302 34.88C158.302 32.6 158.675 30.46 159.422 28.46C160.169 26.4467 161.255 24.8 162.682 23.52H165.502V23.78C164.035 25.18 162.915 26.86 162.142 28.82C161.382 30.78 161.002 32.8 161.002 34.88C161.002 36.9067 161.362 38.8667 162.082 40.76C162.815 42.64 163.855 44.2733 165.202 45.66V45.94H162.382ZM177.429 32.36C177.429 33.1067 177.249 33.8067 176.889 34.46C176.542 35.1133 175.989 35.64 175.229 36.04C174.482 36.44 173.536 36.64 172.389 36.64H170.049V42H167.249V28.04H172.389C173.469 28.04 174.389 28.2267 175.149 28.6C175.909 28.9733 176.476 29.4867 176.849 30.14C177.236 30.7933 177.429 31.5333 177.429 32.36ZM172.269 34.38C173.042 34.38 173.616 34.2067 173.989 33.86C174.362 33.5 174.549 33 174.549 32.36C174.549 31 173.789 30.32 172.269 30.32H170.049V34.38H172.269ZM189.877 30.92V42H187.057V40.6C186.697 41.08 186.224 41.46 185.637 41.74C185.064 42.0067 184.437 42.14 183.757 42.14C182.89 42.14 182.124 41.96 181.457 41.6C180.79 41.2267 180.264 40.6867 179.877 39.98C179.504 39.26 179.317 38.4067 179.317 37.42V30.92H182.117V37.02C182.117 37.9 182.337 38.58 182.777 39.06C183.217 39.5267 183.817 39.76 184.577 39.76C185.35 39.76 185.957 39.5267 186.397 39.06C186.837 38.58 187.057 37.9 187.057 37.02V30.92H189.877ZM195.9 33.22V38.58C195.9 38.9533 195.986 39.2267 196.16 39.4C196.346 39.56 196.653 39.64 197.08 39.64H198.38V42H196.62C194.26 42 193.08 40.8533 193.08 38.56V33.22H191.76V30.92H193.08V28.18H195.9V30.92H198.38V33.22H195.9ZM203.194 32.64C203.554 32.0533 204.02 31.5933 204.594 31.26C205.18 30.9267 205.847 30.76 206.594 30.76V33.7H205.854C204.974 33.7 204.307 33.9067 203.854 34.32C203.414 34.7333 203.194 35.4533 203.194 36.48V42H200.394V30.92H203.194V32.64ZM209.9 29.6C209.406 29.6 208.993 29.4467 208.66 29.14C208.34 28.82 208.18 28.4267 208.18 27.96C208.18 27.4933 208.34 27.1067 208.66 26.8C208.993 26.48 209.406 26.32 209.9 26.32C210.393 26.32 210.8 26.48 211.12 26.8C211.453 27.1067 211.62 27.4933 211.62 27.96C211.62 28.4267 211.453 28.82 211.12 29.14C210.8 29.4467 210.393 29.6 209.9 29.6ZM211.28 30.92V42H208.48V30.92H211.28ZM213.326 45.94V45.66C214.673 44.2733 215.706 42.64 216.426 40.76C217.159 38.8667 217.526 36.9067 217.526 34.88C217.526 32.8 217.139 30.78 216.366 28.82C215.606 26.86 214.493 25.18 213.026 23.78V23.52H215.846C217.273 24.8 218.359 26.4467 219.106 28.46C219.853 30.46 220.226 32.6 220.226 34.88C220.226 37.1067 219.866 39.1933 219.146 41.14C218.439 43.0867 217.439 44.6867 216.146 45.94H213.326Z" fill="black"/>
</g>
<defs>
<linearGradient id="paint0_linear_3451_6" x1="165" y1="0" x2="165" y2="70" gradientUnits="userSpaceOnUse">
<stop offset="0.095" stop-color="#D7B575"/>
<stop offset="0.32" stop-color="#BED775"/>
<stop offset="0.99" stop-color="#4E3D71"/>
</linearGradient>
<clipPath id="clip0_3451_6">
<rect width="330" height="70" fill="white"/>
</clipPath>
</defs>
</svg>
