<svg width="1440" height="613" viewBox="0 0 1440 613" fill="none" xmlns="http://www.w3.org/2000/svg">
<path d="M1440 613H0V60.5C43.5 106.244 27.937 147.576 138.5 108C249.063 68.4241 257 263.5 360 233C463 202.5 533.5 351 572.5 351C611.5 351 771.433 269.278 861 339C950.567 408.722 942.053 172.02 1039 211.201C1231.5 289 1229 268.659 1271.5 211.201C1314 153.744 1368.5 211.201 1440 0V613Z" fill="url(#paint0_linear_1758_5)"/>
<path d="M1187.42 375.871C1187.25 364.323 1165.77 322.36 1149.6 328.88C1133.43 335.4 1125.97 328.822 1132.95 320.048C1139.92 311.273 1132.69 301.723 1123.8 302.605C1114.91 303.486 1103.49 290.2 1113.82 286.117C1124.15 282.035 1100.92 250.479 1124.09 247.963C1147.26 245.447 1142.85 312.181 1174.04 310.945C1191.82 310.24 1193.97 327.217 1194.03 333.6C1194.28 330.998 1194.92 326.071 1196.39 317.903C1204.44 272.98 1187.38 291.382 1180.98 285.135C1174.59 278.888 1181.87 273.25 1191.29 272.535C1200.71 271.82 1190.75 263.852 1189.74 252.592C1188.74 241.333 1197.68 229.525 1181.34 223.828C1164.99 218.131 1159.43 210.927 1159.35 204.819C1159.26 198.712 1150.74 191.803 1151.79 183.616C1152.84 175.429 1185.22 183.688 1193.92 207.071C1202.62 230.455 1211.39 202.172 1206.35 190.875C1201.32 179.578 1201.92 177.333 1209.27 165.026C1216.62 152.72 1220.7 137.57 1218.18 131.921C1215.67 126.273 1215.42 116.467 1226.29 116.809C1237.15 117.152 1241.84 144.755 1232.74 157.127C1223.64 169.5 1222.46 195.89 1225.58 196.862C1228.7 197.834 1234.34 178.396 1241.47 175.05C1248.6 171.703 1261.22 159.651 1263.68 166.76C1266.14 173.87 1267.31 183.458 1254.15 190.562C1240.99 197.665 1219.36 229.252 1223.96 263.246C1228.56 297.241 1233.91 249.491 1251.37 254.268C1268.83 259.046 1273.93 267.983 1253.94 272.581C1233.96 277.179 1237.99 313.283 1243.89 309.921C1249.8 306.56 1240.72 335.459 1234.6 344.448C1228.48 353.437 1227.48 370.895 1225.98 376.463C1224.48 382.031 1202.4 409.126 1187.42 375.871Z" fill="url(#paint1_linear_1758_5)"/>
<path d="M1247.82 422.913C1253.77 413.299 1292.96 390.522 1303.27 405.418C1313.59 420.315 1323.17 419.125 1321.72 407.688C1320.28 396.25 1331.17 392.432 1338.2 398.347C1345.22 404.262 1361.52 399.739 1354.89 390.296C1348.26 380.852 1383.68 367.842 1365.47 352.239C1347.26 336.636 1317.36 395.309 1291.76 376.115C1277.16 365.168 1266.8 378.191 1263.54 383.525C1264.64 381.189 1266.58 376.675 1269.46 368.955C1285.31 326.497 1290.39 351.903 1298.92 350.372C1307.44 348.841 1304.15 339.86 1296.59 333.775C1289.03 327.69 1301.42 326.793 1307.94 317.912C1314.45 309.032 1312.88 293.897 1329.49 298.622C1346.1 303.347 1354.4 300.526 1357.55 295.441C1360.7 290.356 1371.34 289.508 1374.58 282.014C1377.82 274.52 1346.44 262.613 1327.35 277.208C1308.26 291.803 1315.13 262.921 1325.05 256.353C1334.97 249.786 1335.59 247.546 1335.61 232.921C1335.63 218.296 1339.83 203.185 1344.79 199.901C1349.75 196.617 1354.89 188.515 1345.59 182.477C1336.28 176.44 1318.44 196.922 1319.86 212.62C1321.28 228.318 1308.98 251.193 1305.87 250.193C1302.76 249.193 1307.81 229.572 1303.5 222.607C1299.19 215.642 1294.65 198.164 1289 202.708C1283.35 207.253 1277.54 214.634 1285.03 228.268C1292.51 241.901 1294.79 281.045 1273.8 306.95C1252.82 332.854 1272.36 289.592 1255.28 283.445C1238.19 277.297 1229.41 281.846 1243.9 297.345C1258.38 312.844 1236.81 340.852 1233.54 334.589C1230.27 328.327 1223.35 357.906 1223.97 369.028C1224.59 380.15 1216.64 395.407 1215.09 400.961C1213.55 406.514 1218.47 442.15 1247.82 422.913Z" fill="url(#paint2_linear_1758_5)"/>
<path d="M1153.41 429.778C1146.66 418.756 1102.26 392.057 1090.61 408.678C1078.96 425.3 1068.11 423.729 1069.73 410.816C1071.34 397.903 1059.01 393.327 1051.06 399.858C1043.11 406.389 1024.67 400.888 1032.15 390.353C1039.63 379.819 999.519 364.263 1020.11 347.027C1040.7 329.791 1074.64 396.906 1103.59 375.777C1120.09 363.726 1131.84 378.71 1135.54 384.824C1134.29 382.155 1132.09 376.999 1128.81 368.194C1110.79 319.762 1105.09 348.401 1095.44 346.469C1085.79 344.537 1089.5 334.448 1098.04 327.737C1106.59 321.026 1092.56 319.72 1085.17 309.515C1077.78 299.31 1079.53 282.215 1060.74 287.175C1041.94 292.135 1032.54 288.749 1028.97 282.919C1025.4 277.089 1013.35 275.88 1009.67 267.322C1005.99 258.763 1041.49 246.018 1063.13 262.985C1084.76 279.952 1076.93 247.099 1065.69 239.432C1054.45 231.766 1053.74 229.216 1053.69 212.661C1053.65 196.105 1048.87 178.901 1043.25 175.068C1037.62 171.235 1031.79 161.943 1042.31 155.327C1052.84 148.71 1073.06 172.313 1071.49 190.049C1069.91 207.785 1083.87 233.967 1087.39 232.908C1090.91 231.848 1085.16 209.52 1090.03 201.736C1094.9 193.953 1100 174.274 1106.41 179.551C1112.81 184.827 1119.4 193.318 1110.95 208.576C1102.5 223.833 1099.99 268.09 1123.79 297.904C1147.59 327.717 1125.39 278.289 1144.72 271.73C1164.05 265.17 1174 270.525 1157.63 287.73C1141.26 304.936 1165.72 337.145 1169.41 330.132C1173.1 323.119 1180.99 356.764 1180.31 369.339C1179.63 381.914 1188.66 399.371 1190.41 405.694C1192.17 412.016 1186.66 452.24 1153.41 429.778Z" fill="url(#paint3_linear_1758_5)"/>
<path d="M0 613V139C18.6344 275.069 67.9904 332.652 151.5 287.614C235.01 242.575 363.492 331.456 388.5 393.409C413.508 455.363 481.239 505.496 567 470.057C652.761 434.617 775.908 394.034 874 470.057C972.092 546.08 995.917 425.102 1039 393.409C1199.2 275.566 1195.5 411.682 1298 368.5C1400.5 325.318 1337 272 1440 139V613H0Z" fill="url(#paint4_linear_1758_5)"/>
<defs>
<linearGradient id="paint0_linear_1758_5" x1="720" y1="0" x2="720" y2="687" gradientUnits="userSpaceOnUse">
<stop offset="0.293256" stop-color="#5C62A2"/>
<stop offset="1" stop-color="white"/>
</linearGradient>
<linearGradient id="paint1_linear_1758_5" x1="1228.8" y1="117.346" x2="1148.56" y2="375.069" gradientUnits="userSpaceOnUse">
<stop stop-color="#7E25EE" stop-opacity="0.86"/>
<stop offset="1" stop-color="#182256"/>
</linearGradient>
<linearGradient id="paint2_linear_1758_5" x1="1279.13" y1="160.89" x2="1227.83" y2="442.724" gradientUnits="userSpaceOnUse">
<stop stop-color="#7E25EE" stop-opacity="0.86"/>
<stop offset="0.745" stop-color="#7725E4" stop-opacity="0.8698"/>
<stop offset="1" stop-color="#182256"/>
</linearGradient>
<linearGradient id="paint3_linear_1758_5" x1="1006.06" y1="165.949" x2="1189.36" y2="422.225" gradientUnits="userSpaceOnUse">
<stop offset="0.26" stop-color="#5B6BFD"/>
<stop offset="0.84" stop-color="#182256"/>
</linearGradient>
<linearGradient id="paint4_linear_1758_5" x1="720" y1="441" x2="720" y2="1248" gradientUnits="userSpaceOnUse">
<stop stop-color="#21126A"/>
<stop offset="1" stop-color="white"/>
</linearGradient>
</defs>
</svg>
