<svg width="634" height="115" viewBox="0 0 634 115" fill="none" xmlns="http://www.w3.org/2000/svg">
<path d="M84.185 14.912C84.569 16.192 83.929 37.44 84.313 41.536C84.441 43.584 86.105 48.96 82.649 48.96C75.481 48.96 67.417 48.448 60.377 47.68C56.793 47.296 60.377 42.688 57.049 38.976C50.777 31.936 41.305 38.72 38.233 45.12C34.265 53.44 34.009 64.32 38.233 72.512C40.921 77.888 47.065 83.264 53.465 80.32C58.329 78.144 58.841 73.664 60.633 69.312C61.401 67.52 79.577 69.696 82.393 70.336C84.313 70.72 85.721 71.36 85.721 73.536C85.721 107.072 39.257 114.752 18.649 94.016C0.473 75.712 1.369 39.744 19.801 21.952C33.881 8.256 57.817 6.71999 75.993 11.328C78.041 11.84 82.905 13.12 84.185 14.912ZM45.273 102.08C46.553 102.208 51.033 102.336 52.185 102.08C55.513 101.184 54.361 96.576 51.673 96.832C39.129 97.984 29.913 92.48 22.233 83.136C19.929 80.448 16.217 83.264 18.137 86.208C23.897 95.168 35.033 100.672 45.273 102.08ZM57.433 95.68C55.257 100.16 63.449 100.928 62.297 96.192C61.657 93.888 58.457 93.504 57.433 95.68ZM151.547 12.48C150.779 12.736 148.731 11.968 147.963 11.84C138.619 9.66399 127.739 12.224 118.139 11.2C116.603 11.072 116.603 8.896 117.627 8.128C118.395 7.488 120.955 7.23199 121.979 7.23199C127.483 6.976 132.859 6.464 138.363 6.976C140.283 7.104 150.523 8.768 151.803 9.79199C152.699 10.56 152.827 12.096 151.547 12.48ZM162.171 18.752C162.811 21.568 159.867 21.184 158.459 19.776C155.643 17.088 161.275 14.144 162.171 18.752ZM126.203 80.96C126.459 86.848 126.459 92.864 126.715 98.752C126.843 100.928 127.483 104.896 124.667 105.536C122.747 105.92 102.011 106.304 100.219 105.664C99.579 105.408 99.067 104.896 98.939 104.256C97.915 99.264 99.195 91.84 99.323 86.72C99.451 77.248 99.707 31.552 96.123 24.128C94.843 21.568 99.707 21.056 101.371 20.672C111.611 18.112 122.107 16.064 132.731 16.576C145.403 17.088 160.123 21.952 164.347 35.52C169.083 50.88 156.411 64.96 142.843 69.952C150.267 76.608 158.971 82.112 167.419 87.36C171.643 89.92 155.771 105.024 151.035 104.896C145.403 104.768 129.787 85.952 126.203 80.96ZM123.003 35.136C124.283 41.408 124.155 47.808 124.795 54.08C150.267 50.496 147.579 30.272 123.003 35.136ZM202.988 79.168C206.06 79.552 209.772 79.552 212.972 79.424C218.476 79.168 224.108 78.016 229.356 76.48C230.892 76.096 232.812 75.2 234.348 74.944C236.012 74.688 235.884 76.864 236.012 78.016C236.396 80.704 238.06 96.96 237.42 98.24C237.036 99.264 235.756 99.776 234.86 100.16C221.676 105.92 196.332 108.224 184.556 98.368C176.364 91.584 177.004 76.864 177.388 67.136C177.644 61.632 180.716 18.624 182.764 17.344C185.836 15.424 232.812 9.66399 235.5 11.2C236.524 11.712 236.908 12.608 237.036 13.76C237.42 16.832 237.42 37.952 236.012 39.104C234.348 39.744 209.772 39.488 205.036 39.872L204.78 40.384L203.884 50.624C206.956 50.624 221.164 50.24 222.828 50.624C224.492 51.008 224.236 63.552 223.852 65.728C223.724 66.368 222.956 66.88 222.444 67.136C215.532 67.776 208.748 67.776 201.836 67.392C201.964 71.36 202.092 75.328 202.988 79.168ZM235.884 107.968C231.276 111.296 229.996 104.768 234.604 105.408C235.756 105.536 237.164 106.944 235.884 107.968ZM210.54 114.112C206.316 114.624 201.708 114.24 197.612 113.088C195.948 112.576 191.34 110.4 190.572 108.992C190.06 107.968 190.444 106.304 191.724 106.176C191.98 106.176 197.228 108.224 198.124 108.48C202.732 109.888 207.596 110.656 212.46 110.272C217.324 109.888 221.804 108.48 226.54 107.584C228.844 107.072 229.612 109.504 227.436 110.4C222.316 112.32 215.916 113.472 210.54 114.112ZM281.796 5.696C278.596 6.71999 278.98 1.856 281.284 1.98399C283.46 2.11199 283.844 4.92799 281.796 5.696ZM253.508 30.656C255.172 23.232 257.86 12.352 264.004 7.488C265.924 5.952 273.604 2.24 275.78 3.64799C276.932 4.41599 276.676 6.592 275.268 6.84799C272.196 7.23199 269.892 7.23199 267.46 9.28C265.028 11.328 260.548 21.056 259.268 24.384C258.628 25.92 257.092 31.168 255.684 31.68C254.788 32.064 253.764 31.552 253.508 30.656ZM273.86 88.256C273.476 90.56 272.068 103.36 271.172 104.256C269.124 106.176 248.644 104.896 246.724 102.336C241.86 95.936 262.084 16.192 273.348 10.944C277.188 9.15199 282.18 8.896 286.404 9.02399C290.5 9.15199 305.22 9.92 307.908 12.352C315.076 18.752 332.74 91.584 327.876 100.8C324.676 106.944 303.3 107.84 302.148 101.184C301.508 96.96 301.38 92.352 300.868 88C291.908 87.488 282.82 87.616 273.86 88.256ZM276.164 70.08C283.972 69.568 292.164 69.312 299.972 70.08C300.228 65.6 295.748 38.08 293.956 35.392C291.908 32.32 287.044 34.88 284.228 34.752C280.004 46.144 278.724 58.304 276.164 70.08ZM365.152 80.96C365.152 86.208 365.28 91.584 365.536 96.832C365.664 99.008 366.432 103.488 363.744 104.256C362.208 104.768 350.176 105.152 347.744 105.152C345.696 105.152 342.496 105.664 341.856 103.104C340.704 98.624 340.576 89.92 340.32 85.056C339.04 64.064 338.4 42.432 338.656 21.44C338.656 19.136 338.912 14.272 340.832 12.736C341.6 12.096 342.752 11.712 343.776 11.712C349.536 11.712 397.664 11.2 398.944 12.224C399.456 12.608 399.584 14.016 399.584 14.656L398.432 37.312C398.304 40.384 392.928 39.104 391.008 39.104C382.816 39.104 374.112 38.592 365.92 39.488L366.048 59.2C370.016 59.2 393.056 57.92 394.208 60.736C394.592 61.632 394.848 80.064 392.032 80.576C385.504 81.6 373.088 79.68 365.152 80.96ZM367.968 19.392C372.448 19.264 377.568 20.288 381.92 19.52C385.504 18.88 384.992 14.4 381.664 14.4C377.056 14.4 371.68 13.632 367.2 14.272C363.488 14.784 362.976 19.648 367.968 19.392ZM389.856 19.904C393.184 20.544 393.568 14.4 390.112 14.784C386.528 15.168 386.4 19.264 389.856 19.904ZM434.613 79.168C437.685 79.552 441.397 79.552 444.597 79.424C450.101 79.168 455.733 78.016 460.981 76.48C462.517 76.096 464.437 75.2 465.973 74.944C467.637 74.688 467.509 76.864 467.637 78.016C468.021 80.704 469.685 96.96 469.045 98.24C468.661 99.264 467.381 99.776 466.485 100.16C453.301 105.92 427.957 108.224 416.181 98.368C407.989 91.584 408.629 76.864 409.013 67.136C409.269 61.632 412.341 18.624 414.389 17.344C417.461 15.424 464.437 9.66399 467.125 11.2C468.149 11.712 468.533 12.608 468.661 13.76C469.045 16.832 469.045 37.952 467.637 39.104C465.973 39.744 441.397 39.488 436.661 39.872L436.405 40.384L435.509 50.624C438.581 50.624 452.789 50.24 454.453 50.624C456.117 51.008 455.861 63.552 455.477 65.728C455.349 66.368 454.581 66.88 454.069 67.136C447.157 67.776 440.373 67.776 433.461 67.392C433.589 71.36 433.717 75.328 434.613 79.168ZM467.509 107.968C462.901 111.296 461.621 104.768 466.229 105.408C467.381 105.536 468.789 106.944 467.509 107.968ZM442.165 114.112C437.941 114.624 433.333 114.24 429.237 113.088C427.573 112.576 422.965 110.4 422.197 108.992C421.685 107.968 422.069 106.304 423.349 106.176C423.605 106.176 428.853 108.224 429.749 108.48C434.357 109.888 439.221 110.656 444.085 110.272C448.949 109.888 453.429 108.48 458.165 107.584C460.469 107.072 461.237 109.504 459.061 110.4C453.941 112.32 447.541 113.472 442.165 114.112ZM526.605 102.976C514.573 106.56 499.085 106.56 489.869 96.704C486.029 92.608 482.573 84.672 482.829 79.04C482.829 77.76 483.085 76.736 484.109 75.84C485.901 74.048 503.821 70.976 505.613 72.64C506.637 73.664 506.381 75.2 506.381 76.48C506.381 81.728 511.117 86.08 515.725 82.112C519.053 79.296 518.413 74.048 516.237 70.848C507.405 57.792 474.893 62.272 477.837 35.648C478.989 25.664 486.413 16.704 495.117 11.968C516.237 0.703995 551.437 6.464 552.845 34.88C552.973 37.568 552.589 41.408 549.773 42.432C547.341 43.328 531.981 44.352 528.653 44.352C527.373 44.352 525.325 44.352 525.325 42.56C525.325 36.288 523.661 27.84 516.109 26.816C508.685 25.792 497.421 34.368 504.973 41.152C505.869 42.048 507.149 42.56 508.301 43.072C516.621 46.4 524.685 48.704 532.237 53.824C543.245 61.12 551.053 72.256 545.549 85.824C542.349 93.76 534.797 100.544 526.605 102.976ZM523.789 100.8C527.117 101.568 536.717 93.888 538.893 91.328C540.941 88.896 541.837 85.952 542.605 82.88C542.989 81.088 543.757 77.12 542.349 75.712C541.197 74.56 538.893 74.816 538.125 76.352C537.229 78.144 538.125 83.008 535.821 86.72C531.853 93.12 524.301 94.528 522.381 96.32C520.845 97.728 521.869 100.288 523.789 100.8ZM515.341 102.208C518.541 103.36 520.205 98.368 517.005 97.216C513.677 95.936 512.013 101.056 515.341 102.208ZM584.285 105.408C580.957 107.072 581.085 97.6 580.957 95.808C580.061 80.448 578.525 50.752 580.573 36.16C574.429 36.8 567.133 38.72 561.117 38.592C559.453 38.592 558.685 37.312 558.173 35.904C557.405 33.472 557.789 11.968 558.557 9.66399C558.941 8.63999 559.453 7.616 560.349 7.104C561.757 6.20799 565.469 6.71999 567.133 6.976C587.613 9.536 608.349 7.616 628.957 9.536C631.517 9.79199 631.901 10.176 633.181 12.224C633.181 17.088 633.309 32.192 629.981 35.264C628.189 36.928 625.373 36.928 623.069 36.928C618.973 36.928 615.005 36.544 610.909 37.056C611.037 58.176 612.445 79.04 613.341 100.16C613.341 100.928 613.341 102.848 612.701 103.36C612.061 103.872 609.885 104 608.989 104C604.253 104 586.205 105.664 584.285 105.408ZM592.861 18.368C593.757 18.624 618.589 17.088 619.101 16.832C620.765 15.808 620.381 12.736 618.589 12.096C617.949 11.84 593.245 13.248 592.221 13.888C590.557 15.04 590.813 17.728 592.861 18.368ZM624.733 17.088C626.141 18.24 628.189 17.344 628.701 15.68C630.621 9.66399 619.869 13.248 624.733 17.088Z" fill="url(#paint0_radial_1238_2201)"/>
<defs>
<radialGradient id="paint0_radial_1238_2201" cx="0" cy="0" r="1" gradientUnits="userSpaceOnUse" gradientTransform="translate(1190.34 61) rotate(-178.135) scale(1874.31 197.973)">
<stop offset="0.120225" stop-color="#D7B575"/>
<stop offset="0.370102" stop-color="#B32169"/>
<stop offset="0.660328" stop-color="#741F5E"/>
<stop offset="1" stop-color="#BC0079" stop-opacity="0"/>
</radialGradient>
</defs>
</svg>
