<svg width="472" height="87" viewBox="0 0 472 87" fill="none" xmlns="http://www.w3.org/2000/svg">
<path d="M63.1388 11.184C63.4268 12.144 62.9468 28.08 63.2348 31.152C63.3308 32.688 64.5788 36.72 61.9868 36.72C56.6108 36.72 50.5627 36.336 45.2828 35.76C42.5948 35.472 45.2828 32.016 42.7868 29.232C38.0828 23.952 30.9788 29.04 28.6748 33.84C25.6988 40.08 25.5068 48.24 28.6748 54.384C30.6908 58.416 35.2988 62.448 40.0988 60.24C43.7468 58.608 44.1308 55.248 45.4748 51.984C46.0508 50.64 59.6828 52.272 61.7948 52.752C63.2348 53.04 64.2908 53.52 64.2908 55.152C64.2908 80.304 29.4427 86.064 13.9868 70.512C0.35475 56.784 1.02675 29.808 14.8508 16.464C25.4108 6.192 43.3628 5.04 56.9948 8.496C58.5308 8.88 62.1788 9.84 63.1388 11.184ZM33.9548 76.56C34.9148 76.656 38.2748 76.752 39.1388 76.56C41.6348 75.888 40.7708 72.432 38.7548 72.624C29.3468 73.488 22.4348 69.36 16.6748 62.352C14.9468 60.336 12.1628 62.448 13.6028 64.656C17.9228 71.376 26.2748 75.504 33.9548 76.56ZM43.0748 71.76C41.4428 75.12 47.5868 75.696 46.7228 72.144C46.2428 70.416 43.8428 70.128 43.0748 71.76ZM121.244 14.064C121.724 16.176 119.516 15.888 118.46 14.832C116.348 12.816 120.572 10.608 121.244 14.064ZM94.2683 60.72C94.4603 65.136 94.4603 69.648 94.6523 74.064C94.7483 75.696 95.2283 78.672 93.1163 79.152C91.6763 79.44 76.1243 79.728 74.7803 79.248C74.3003 79.056 73.9163 78.672 73.8203 78.192C73.0523 74.448 74.0123 68.88 74.1083 65.04C74.2043 57.936 74.3963 23.664 71.7083 18.096C70.7483 16.176 74.3963 15.792 75.6443 15.504C83.3243 13.584 91.1963 12.048 99.1643 12.432C108.668 12.816 119.708 16.464 122.876 26.64C126.428 38.16 116.924 48.72 106.748 52.464C112.316 57.456 118.844 61.584 125.18 65.52C128.348 67.44 116.444 78.768 112.892 78.672C108.668 78.576 96.9563 64.464 94.2683 60.72ZM91.8683 26.352C92.8282 31.056 92.7323 35.856 93.2123 40.56C112.316 37.872 110.3 22.704 91.8683 26.352ZM113.66 9.36C113.084 9.55199 111.548 8.976 110.972 8.88C103.964 7.248 95.8043 9.168 88.6043 8.4C87.4523 8.304 87.4523 6.672 88.2203 6.096C88.7963 5.616 90.7163 5.424 91.4843 5.424C95.6123 5.232 99.6443 4.848 103.772 5.232C105.212 5.328 112.892 6.576 113.852 7.34399C114.524 7.92 114.62 9.07199 113.66 9.36ZM151.009 59.376C156.577 60.624 168.385 58.512 173.761 56.496C174.241 56.304 175.105 55.824 175.489 56.496C175.681 56.88 175.777 58.416 175.873 58.896C176.545 63.504 177.217 68.88 176.929 73.488C176.833 74.448 174.337 75.312 173.569 75.6C163.489 79.344 146.017 81.168 137.185 73.776C126.049 64.464 134.881 25.872 135.457 13.392C138.433 10.896 174.817 7.248 176.161 8.88C176.929 9.84 176.545 23.184 176.545 25.392C176.545 26.832 177.025 29.328 175.009 29.52C167.617 30.096 159.841 29.04 152.545 29.904C152.161 30.672 151.777 36.72 151.681 37.968C153.217 37.968 166.081 37.776 166.369 38.064C166.753 38.544 166.753 39.504 166.753 40.08C166.753 42.864 167.041 46.128 166.753 48.816C166.657 49.584 166.465 50.16 165.601 50.352C162.913 51.12 153.313 50.736 150.145 50.544C150.241 53.52 150.337 56.496 151.009 59.376ZM174.241 81.744C172.513 81.936 171.841 79.92 173.665 79.152C176.257 78.096 176.929 81.456 174.241 81.744ZM157.345 85.488C154.081 85.968 148.513 85.584 145.441 84.144C144.481 83.664 141.697 82.512 141.505 81.264C141.313 79.92 142.657 79.248 143.713 79.92C145.633 81.072 148.705 81.744 150.913 82.128C159.265 83.664 167.617 80.304 169.345 80.592C170.689 80.784 170.497 82.32 169.345 82.8C165.793 84.24 161.089 84.912 157.345 85.488ZM209.845 1.68C211.093 2.352 210.613 4.17599 209.269 4.368C206.869 4.65599 207.733 0.527996 209.845 1.68ZM190.165 23.664C186.325 26.352 190.645 14.64 190.933 13.968C192.085 10.896 193.621 7.92 196.117 5.808C197.653 4.56 202.645 2.16 204.565 2.544C206.005 2.832 206.101 4.65599 204.661 5.13599C202.357 5.808 200.533 5.232 198.517 7.248C195.541 10.224 191.413 22.8 190.165 23.664ZM203.605 66.192C203.029 69.744 203.029 73.872 202.165 77.328C201.493 80.016 184.213 79.056 182.869 76.176C180.181 70.512 194.677 14.448 202.165 8.88C203.413 7.92 205.045 7.536 206.581 7.248C210.805 6.47999 227.509 6.576 229.909 10.032C232.117 13.2 233.461 17.04 234.613 20.688C236.821 27.984 247.189 69.072 244.309 75.312C242.101 80.112 225.973 80.976 224.821 75.888C224.149 72.912 224.245 69.072 223.957 66C217.141 65.616 210.421 65.712 203.605 66.192ZM205.429 52.56C211.189 52.368 217.525 51.984 223.285 52.56C223.381 49.488 219.829 27.312 218.197 25.968C216.565 24.528 213.397 26.16 211.381 26.064C208.309 34.512 207.253 43.824 205.429 52.56ZM271.507 60.72C271.507 63.12 272.275 76.752 271.315 77.712C270.451 78.576 254.611 80.112 254.035 77.424C253.075 73.392 253.075 68.016 252.883 63.792C252.019 48.72 251.827 33.456 251.635 18.384C251.635 15.312 251.059 9.07199 255.379 8.784C268.147 8.016 281.299 8.784 294.067 8.784C296.179 8.784 297.331 8.592 297.331 10.992C297.235 16.464 297.235 22.704 296.467 28.08C296.179 30.192 292.915 29.424 291.475 29.328C285.427 28.944 278.035 28.656 272.083 29.616C271.987 34.512 272.179 39.504 272.179 44.4C274.771 44.4 291.955 43.824 293.011 44.88C293.875 45.744 293.011 55.632 292.915 57.36C292.819 58.512 293.203 60.24 291.763 60.432C285.427 61.296 278.035 59.28 271.507 60.72ZM279.475 14.544C280.627 14.544 283.987 14.928 284.851 14.448C286.771 13.488 285.907 10.8 283.891 10.8C281.011 10.8 278.035 10.704 275.155 10.704C274.003 10.704 272.659 10.416 271.699 11.184C270.067 12.528 271.219 14.832 273.235 14.544C275.251 14.256 277.363 14.544 279.475 14.544ZM288.691 12.144C287.923 13.68 289.267 15.312 290.899 14.928C294.739 13.968 290.419 8.592 288.691 12.144ZM322.946 59.376C328.514 60.624 340.322 58.512 345.698 56.496C346.178 56.304 347.042 55.824 347.426 56.496C347.618 56.88 347.714 58.416 347.81 58.896C348.482 63.504 349.154 68.88 348.866 73.488C348.77 74.448 346.274 75.312 345.506 75.6C335.426 79.344 317.954 81.168 309.122 73.776C297.986 64.464 306.818 25.872 307.394 13.392C310.37 10.896 346.754 7.248 348.098 8.88C348.866 9.84 348.482 23.184 348.482 25.392C348.482 26.832 348.962 29.328 346.946 29.52C339.554 30.096 331.778 29.04 324.482 29.904C324.098 30.672 323.714 36.72 323.618 37.968C325.154 37.968 338.018 37.776 338.306 38.064C338.69 38.544 338.69 39.504 338.69 40.08C338.69 42.864 338.978 46.128 338.69 48.816C338.594 49.584 338.402 50.16 337.538 50.352C334.85 51.12 325.25 50.736 322.082 50.544C322.178 53.52 322.274 56.496 322.946 59.376ZM346.178 81.744C344.45 81.936 343.778 79.92 345.602 79.152C348.194 78.096 348.866 81.456 346.178 81.744ZM329.282 85.488C326.018 85.968 320.45 85.584 317.378 84.144C316.418 83.664 313.634 82.512 313.442 81.264C313.25 79.92 314.594 79.248 315.65 79.92C317.57 81.072 320.642 81.744 322.85 82.128C331.202 83.664 339.554 80.304 341.282 80.592C342.626 80.784 342.434 82.32 341.282 82.8C337.73 84.24 333.026 84.912 329.282 85.488ZM391.478 77.136C377.462 81.168 359.51 78 358.55 60.336C358.454 59.28 358.454 58.224 359.318 57.456C360.95 56.016 374.87 53.616 375.83 55.536C377.078 57.936 375.062 63.024 380.246 63.024C384.374 63.024 385.622 58.128 384.182 54.96C379.286 43.824 352.31 48.528 354.806 27.888C355.862 19.248 363.062 12.528 370.742 9.36C380.054 5.616 392.246 5.51999 400.886 10.896C406.742 14.544 410.198 20.208 410.678 27.024C410.774 28.944 410.966 32.208 408.662 32.976C407.222 33.456 394.07 34.704 392.534 34.512C391.382 34.416 390.422 34.32 390.23 32.976C389.558 28.848 389.654 23.568 384.662 21.84C380.054 20.304 371.51 24.336 373.718 30.096C375.734 35.568 401.174 37.872 405.878 53.52C408.95 63.792 401.27 74.256 391.478 77.136ZM387.83 72.624C386.486 74.256 388.502 76.176 390.326 75.6C397.046 73.392 402.902 67.632 403.478 60.432C403.958 55.152 399.638 56.4 399.638 58.608C399.638 60.912 399.35 62.256 398.486 64.368C396.182 69.936 388.598 71.664 387.83 72.624ZM381.974 76.272C383.126 77.328 384.95 76.656 385.238 75.216C386.006 71.184 378.998 73.488 381.974 76.272ZM434.571 79.056C432.075 80.304 432.171 73.2 432.075 71.856C431.403 60.336 430.251 38.064 431.787 27.12C427.179 27.6 421.707 29.04 417.195 28.944C415.947 28.944 415.371 27.984 414.987 26.928C414.411 25.104 414.699 8.976 415.275 7.248C415.563 6.47999 415.947 5.712 416.619 5.328C417.675 4.65599 420.459 5.04 421.707 5.232C437.067 7.152 452.619 5.712 468.075 7.152C469.995 7.34399 470.283 7.632 471.243 9.168C471.243 12.816 471.339 24.144 468.843 26.448C467.499 27.696 465.387 27.696 463.659 27.696C460.587 27.696 457.611 27.408 454.539 27.792C454.635 43.632 455.691 59.28 456.363 75.12C456.363 75.696 456.363 77.136 455.883 77.52C455.403 77.904 453.771 78 453.099 78C449.547 78 436.011 79.248 434.571 79.056ZM441.003 13.776C441.675 13.968 460.299 12.816 460.683 12.624C461.931 11.856 461.643 9.55199 460.299 9.07199C459.819 8.88 441.291 9.936 440.523 10.416C439.275 11.28 439.467 13.296 441.003 13.776ZM464.907 12.816C465.963 13.68 467.499 13.008 467.883 11.76C469.323 7.248 461.259 9.936 464.907 12.816Z" fill="url(#paint0_linear_1254_4994)"/>
<defs>
<linearGradient id="paint0_linear_1254_4994" x1="237" y1="0" x2="237" y2="90" gradientUnits="userSpaceOnUse">
<stop stop-color="#FFEAC3"/>
<stop offset="0.79" stop-color="#E6A7A5"/>
<stop offset="1" stop-color="#B32169"/>
</linearGradient>
</defs>
</svg>
