<svg width="710" height="114" viewBox="0 0 710 114" fill="none" xmlns="http://www.w3.org/2000/svg">
<path d="M27.363 78.168C30.435 78.552 34.147 78.552 37.347 78.424C42.851 78.168 48.483 77.016 53.731 75.48C55.267 75.096 57.187 74.2 58.723 73.944C60.387 73.688 60.259 75.864 60.387 77.016C60.771 79.704 62.435 95.96 61.795 97.24C61.411 98.264 60.131 98.776 59.235 99.16C46.051 104.92 20.707 107.224 8.931 97.368C0.739 90.584 1.379 75.864 1.763 66.136C2.019 60.632 5.091 17.624 7.139 16.344C10.211 14.424 57.187 8.66399 59.875 10.2C60.899 10.712 61.283 11.608 61.411 12.76C61.795 15.832 61.795 36.952 60.387 38.104C58.723 38.744 34.147 38.488 29.411 38.872L29.155 39.384L28.259 49.624C31.331 49.624 45.539 49.24 47.203 49.624C48.867 50.008 48.611 62.552 48.227 64.728C48.099 65.368 47.331 65.88 46.819 66.136C39.907 66.776 33.123 66.776 26.211 66.392C26.339 70.36 26.467 74.328 27.363 78.168ZM60.259 106.968C55.651 110.296 54.371 103.768 58.979 104.408C60.131 104.536 61.539 105.944 60.259 106.968ZM34.915 113.112C30.691 113.624 26.083 113.24 21.987 112.088C20.323 111.576 15.715 109.4 14.947 107.992C14.435 106.968 14.819 105.304 16.099 105.176C16.355 105.176 21.603 107.224 22.499 107.48C27.107 108.888 31.971 109.656 36.835 109.272C41.699 108.888 46.179 107.48 50.915 106.584C53.219 106.072 53.987 108.504 51.811 109.4C46.691 111.32 40.291 112.472 34.915 113.112ZM98.491 104.664C89.787 105.816 80.059 100.44 73.019 95.96C69.563 93.784 81.723 75.352 84.155 72.408C86.971 69.08 90.427 66.392 94.267 64.216C90.683 62.04 87.227 59.736 84.539 56.408C80.059 50.904 70.843 28.376 70.075 21.72C69.947 20.44 70.459 19.416 71.483 18.648C73.531 16.984 84.027 13.912 87.355 12.632C89.787 11.608 92.987 9.56 95.547 11.224C100.923 14.552 104.379 45.784 109.755 46.424C117.307 47.32 120.251 13.784 124.475 10.456C127.035 8.536 149.179 16.856 149.947 19.16C150.331 20.312 149.819 21.592 149.435 22.744C143.547 39.768 142.139 53.08 125.883 63.448C128.955 65.112 131.899 67.288 134.331 69.848C137.019 72.664 149.435 91.224 147.899 94.296C147.643 94.936 137.147 101.08 135.995 101.464C134.203 102.104 122.811 104.664 121.659 103.896C119.995 102.872 117.307 80.984 111.035 79.96C104.251 78.936 100.027 103.384 98.491 104.664ZM138.299 21.592C141.115 22.744 143.547 19.16 140.987 17.24C139.451 16.088 131.515 14.168 129.467 14.168C125.499 14.168 125.243 18.904 129.083 19.288C132.283 19.672 135.355 20.44 138.299 21.592ZM144.059 25.432C145.851 26.328 147.771 25.048 147.771 23.128C147.771 17.24 138.811 22.872 144.059 25.432ZM233.634 21.592C234.914 21.464 235.298 22.232 235.554 23.256C236.066 25.816 234.658 47.32 234.53 52.312C234.274 65.112 234.658 77.912 235.682 90.712C235.81 92.888 237.858 102.36 235.682 102.872C230.562 103.896 221.09 103.512 215.586 103.512C214.178 103.512 212.386 104.024 211.106 103.768C210.21 103.64 208.674 102.744 209.442 101.592C209.186 91.864 210.082 81.88 210.466 72.152C203.682 72.408 196.898 72.408 190.114 72.792C190.114 82.264 189.73 91.992 191.266 101.336C191.522 103 189.73 103.64 188.45 103.64C180.898 103.384 173.474 102.616 165.922 102.872C165.282 102.872 162.21 103.128 161.826 103C160.162 102.616 160.162 100.824 160.162 99.416C160.418 92.632 160.93 85.976 161.058 79.192C161.57 58.712 161.442 37.976 161.186 17.496C161.186 15.192 160.418 12.504 160.674 10.328C160.93 8.15199 164.002 8.28 165.538 8.408C171.17 8.66399 176.93 9.30399 182.562 9.30399C184.482 9.30399 186.274 8.79199 188.194 8.79199C189.474 8.79199 191.01 9.17599 191.778 10.2C193.442 12.376 192.802 44.376 192.802 49.368L207.65 49.496C207.01 44.76 206.37 26.712 207.906 22.744C207.266 21.592 208.162 20.952 209.186 20.824C210.722 20.568 232.738 21.08 233.634 21.592ZM236.834 14.424C233.89 16.856 229.794 13.272 232.866 11.736C236.834 9.56 238.882 12.76 236.834 14.424ZM226.082 15.96C222.242 17.112 209.442 16.472 205.346 15.576C204.066 15.32 199.458 13.272 202.914 11.992C204.066 11.608 210.594 11.864 212.386 11.864C214.946 11.864 229.154 9.56 228.514 13.912C228.386 14.936 226.978 15.704 226.082 15.96ZM280.629 9.56C281.141 10.456 280.501 11.608 279.477 11.736C278.581 11.864 277.813 11.224 276.917 11.096C272.053 10.328 266.805 11.992 262.197 11.352C261.301 11.224 259.893 10.712 259.893 9.688C259.893 5.07999 278.709 5.84799 280.629 9.56ZM256.821 12.12C254.005 15.704 250.293 7.128 255.285 7.63999C257.333 7.896 257.973 10.584 256.821 12.12ZM262.709 104.152C260.661 104.152 254.901 104.408 253.365 103C252.469 102.104 252.341 100.696 252.213 99.544C251.701 94.296 248.885 22.232 249.013 21.592C249.909 18.008 268.597 17.496 272.181 17.496C273.589 17.496 277.429 17.368 278.581 18.008C280.757 19.16 280.373 24.024 280.373 26.072L280.501 101.208C280.501 102.488 279.989 103.128 278.837 103.512C277.173 104.024 265.397 104.152 262.709 104.152ZM353.801 59.992C363.913 63.448 369.929 75.608 365.961 85.592C358.025 105.56 324.233 104.408 306.569 104.152C304.137 104.152 301.577 104.28 299.401 103.256C297.609 102.36 296.329 100.824 296.201 98.776C295.689 90.328 296.585 81.496 296.457 73.048C296.201 62.296 295.689 51.416 295.177 40.664C294.793 33.624 294.921 26.328 293.897 19.416C293.641 17.368 292.745 13.656 293.641 11.736C294.025 10.968 295.049 10.712 295.817 10.456C309.385 6.104 340.105 5.336 352.777 12.376C358.409 15.448 362.633 21.08 364.681 27.096C366.601 32.6 366.985 38.616 365.193 44.248C363.273 50.52 359.049 56.152 353.801 59.992ZM347.401 20.696C349.065 22.488 351.881 21.72 352.009 19.16C352.137 16.984 348.681 15.064 347.017 14.168C339.977 10.328 332.041 10.712 324.361 10.968C316.937 11.224 319.753 17.368 323.337 16.216C328.969 14.296 343.177 16.216 347.401 20.696ZM353.161 27.096C356.361 31.832 360.969 22.616 355.465 22.744C353.417 22.872 352.009 25.304 353.161 27.096ZM323.209 33.496C323.593 37.976 323.977 42.456 324.105 46.936C326.793 46.68 329.609 46.68 332.169 45.912C343.049 42.712 340.489 30.424 323.209 33.496ZM324.745 67.672C325.129 71.896 325.129 76.12 325.129 80.344C328.969 79.96 332.681 80.216 336.393 79.064C349.065 75.352 340.489 65.752 324.745 67.672ZM409.379 9.56C409.891 10.456 409.251 11.608 408.227 11.736C407.331 11.864 406.563 11.224 405.667 11.096C400.803 10.328 395.555 11.992 390.947 11.352C390.051 11.224 388.643 10.712 388.643 9.688C388.643 5.07999 407.459 5.84799 409.379 9.56ZM385.571 12.12C382.755 15.704 379.043 7.128 384.035 7.63999C386.083 7.896 386.723 10.584 385.571 12.12ZM391.459 104.152C389.411 104.152 383.651 104.408 382.115 103C381.219 102.104 381.091 100.696 380.963 99.544C380.451 94.296 377.635 22.232 377.763 21.592C378.659 18.008 397.347 17.496 400.931 17.496C402.339 17.496 406.179 17.368 407.331 18.008C409.507 19.16 409.123 24.024 409.123 26.072L409.251 101.208C409.251 102.488 408.739 103.128 407.587 103.512C405.923 104.024 394.147 104.152 391.459 104.152ZM444.535 104.408C441.207 106.072 441.335 96.6 441.207 94.808C440.311 79.448 438.775 49.752 440.823 35.16C434.679 35.8 427.383 37.72 421.367 37.592C419.703 37.592 418.935 36.312 418.423 34.904C417.655 32.472 418.039 10.968 418.807 8.66399C419.191 7.63999 419.703 6.616 420.599 6.104C422.007 5.20799 425.719 5.71999 427.383 5.976C447.863 8.536 468.599 6.616 489.207 8.536C491.767 8.79199 492.151 9.17599 493.431 11.224C493.431 16.088 493.559 31.192 490.231 34.264C488.439 35.928 485.623 35.928 483.319 35.928C479.223 35.928 475.255 35.544 471.159 36.056C471.287 57.176 472.695 78.04 473.591 99.16C473.591 99.928 473.591 101.848 472.951 102.36C472.311 102.872 470.135 103 469.239 103C464.503 103 446.455 104.664 444.535 104.408ZM453.111 17.368C454.007 17.624 478.839 16.088 479.351 15.832C481.015 14.808 480.631 11.736 478.839 11.096C478.199 10.84 453.495 12.248 452.471 12.888C450.807 14.04 451.063 16.728 453.111 17.368ZM484.983 16.088C486.391 17.24 488.439 16.344 488.951 14.68C490.871 8.66399 480.119 12.248 484.983 16.088ZM532.129 9.56C532.641 10.456 532.001 11.608 530.977 11.736C530.081 11.864 529.313 11.224 528.417 11.096C523.553 10.328 518.305 11.992 513.697 11.352C512.801 11.224 511.393 10.712 511.393 9.688C511.393 5.07999 530.209 5.84799 532.129 9.56ZM508.321 12.12C505.505 15.704 501.793 7.128 506.785 7.63999C508.833 7.896 509.473 10.584 508.321 12.12ZM514.209 104.152C512.161 104.152 506.401 104.408 504.865 103C503.969 102.104 503.841 100.696 503.713 99.544C503.201 94.296 500.385 22.232 500.513 21.592C501.409 18.008 520.097 17.496 523.681 17.496C525.089 17.496 528.929 17.368 530.081 18.008C532.257 19.16 531.873 24.024 531.873 26.072L532.001 101.208C532.001 102.488 531.489 103.128 530.337 103.512C528.673 104.024 516.897 104.152 514.209 104.152ZM594.677 3.92799C594.293 8.408 588.021 4.56799 591.477 2.008C593.269 0.599998 594.933 1.62399 594.677 3.92799ZM621.429 18.264C622.197 20.312 619.893 21.208 618.613 19.544C616.693 16.984 615.029 15.064 612.085 13.656C610.549 12.888 597.749 7.768 597.365 7.256C596.469 5.976 597.365 4.696 598.773 4.312C605.557 2.52 619.125 12.12 621.429 18.264ZM589.429 103C583.797 103.384 573.173 103.384 568.181 100.952C551.285 92.76 547.189 68.824 544.629 52.312C543.477 45.144 542.581 37.976 543.861 30.808C546.165 17.496 555.381 10.968 568.309 9.56C576.885 8.536 585.717 9.17599 594.037 11.352C604.021 14.04 614.133 19.416 618.869 29.016C621.045 33.624 621.941 38.616 622.325 43.736C623.349 58.712 615.413 93.656 600.821 100.824C597.365 102.488 593.269 102.744 589.429 103ZM577.653 71.896C596.213 81.24 599.157 48.088 594.933 42.328C593.525 40.408 591.477 39 589.301 37.976C585.845 36.312 577.525 34.904 574.197 37.336C567.925 42.072 570.741 68.44 577.653 71.896ZM657.208 43.48C659.768 56.28 665.528 89.816 664.12 101.72C663.864 104.024 661.944 104.792 659.896 104.92C656.312 105.176 634.808 105.816 633.272 103.64C631.864 101.592 633.528 95.448 633.912 93.016C636.6 75.352 636.472 45.016 634.808 26.968C634.68 25.048 633.656 16.216 633.912 15.064C634.552 12.12 656.824 7.768 659.64 8.92C661.944 9.81599 666.68 21.72 667.704 24.408C672.952 37.72 676.92 51.544 681.528 65.112C682.552 49.24 681.272 31.832 678.712 16.216C678.456 14.424 677.56 11.992 679.736 11.096C682.168 10.072 704.824 8.66399 707.768 9.432C708.152 9.94399 708.024 10.584 707.896 11.224C706.872 18.008 707 25.432 706.872 32.344C706.488 50.008 706.232 67.672 706.104 85.336C706.104 89.176 700.472 88.152 697.912 88.152C691 88.152 684.984 89.304 678.328 90.712C677.688 90.84 676.792 90.84 676.28 90.456C675.128 89.56 674.872 87.896 674.488 86.616C670.392 72.28 665.144 56.152 657.208 43.48ZM677.816 101.976C676.92 102.104 675.512 102.232 674.616 101.976C672.568 101.464 672.568 98.904 674.488 98.264C680.248 96.216 686.264 95.96 692.28 95.448C700.344 94.808 698.424 99.672 695.608 100.312C689.976 101.592 683.576 101.208 677.816 101.976ZM705.592 96.088C709.048 96.984 706.488 102.104 702.904 99.928C700.216 98.264 703.16 95.448 705.592 96.088Z" fill="url(#paint0_radial_1236_1120)"/>
<defs>
<radialGradient id="paint0_radial_1236_1120" cx="0" cy="0" r="1" gradientUnits="userSpaceOnUse" gradientTransform="translate(1227.34 60) rotate(-178.135) scale(1874.31 197.973)">
<stop offset="0.120225" stop-color="#D7B575"/>
<stop offset="0.370102" stop-color="#B32169"/>
<stop offset="0.660328" stop-color="#741F5E"/>
<stop offset="1" stop-color="#BC0079" stop-opacity="0"/>
</radialGradient>
</defs>
</svg>
