<svg width="533" height="85" viewBox="0 0 533 85" fill="none" xmlns="http://www.w3.org/2000/svg">
<path d="M20.7723 58.376C23.0763 58.664 25.8603 58.664 28.2603 58.568C32.3883 58.376 36.6123 57.512 40.5483 56.36C41.7003 56.072 43.1403 55.4 44.2923 55.208C45.5403 55.016 45.4443 56.648 45.5403 57.512C45.8283 59.528 47.0763 71.72 46.5963 72.68C46.3083 73.448 45.3483 73.832 44.6763 74.12C34.7883 78.44 15.7803 80.168 6.94825 72.776C0.80425 67.688 1.28425 56.648 1.57225 49.352C1.76425 45.224 4.06825 12.968 5.60425 12.008C7.90825 10.568 43.1403 6.248 45.1562 7.4C45.9243 7.784 46.2123 8.456 46.3083 9.32C46.5963 11.624 46.5963 27.464 45.5403 28.328C44.2923 28.808 25.8603 28.616 22.3083 28.904L22.1163 29.288L21.4443 36.968C23.7483 36.968 34.4043 36.68 35.6523 36.968C36.9003 37.256 36.7083 46.664 36.4203 48.296C36.3243 48.776 35.7483 49.16 35.3643 49.352C30.1803 49.832 25.0923 49.832 19.9083 49.544C20.0043 52.52 20.1003 55.496 20.7723 58.376ZM45.4443 79.976C41.9883 82.472 41.0283 77.576 44.4843 78.056C45.3483 78.152 46.4043 79.208 45.4443 79.976ZM26.4363 84.584C23.2683 84.968 19.8123 84.68 16.7403 83.816C15.4923 83.432 12.0363 81.8 11.4603 80.744C11.0763 79.976 11.3643 78.728 12.3243 78.632C12.5163 78.632 16.4523 80.168 17.1243 80.36C20.5803 81.416 24.2283 81.992 27.8763 81.704C31.5243 81.416 34.8843 80.36 38.4363 79.688C40.1643 79.304 40.7403 81.128 39.1083 81.8C35.2683 83.24 30.4683 84.104 26.4363 84.584ZM74.1183 78.248C67.5903 79.112 60.2943 75.08 55.0143 71.72C52.4223 70.088 61.5423 56.264 63.3663 54.056C65.4783 51.56 68.0703 49.544 70.9503 47.912C68.2623 46.28 65.6703 44.552 63.6543 42.056C60.2943 37.928 53.3823 21.032 52.8063 16.04C52.7103 15.08 53.0943 14.312 53.8623 13.736C55.3983 12.488 63.2703 10.184 65.7663 9.224C67.5903 8.456 69.9903 6.92 71.9103 8.168C75.9423 10.664 78.5343 34.088 82.5663 34.568C88.2303 35.24 90.4383 10.088 93.6063 7.592C95.5263 6.152 112.134 12.392 112.71 14.12C112.998 14.984 112.614 15.944 112.326 16.808C107.91 29.576 106.854 39.56 94.6623 47.336C96.9663 48.584 99.1743 50.216 100.998 52.136C103.014 54.248 112.326 68.168 111.174 70.472C110.982 70.952 103.11 75.56 102.246 75.848C100.902 76.328 92.3583 78.248 91.4943 77.672C90.2463 76.904 88.2303 60.488 83.5263 59.72C78.4383 58.952 75.2703 77.288 74.1183 78.248ZM103.974 15.944C106.086 16.808 107.91 14.12 105.99 12.68C104.838 11.816 98.8862 10.376 97.3503 10.376C94.3743 10.376 94.1823 13.928 97.0623 14.216C99.4623 14.504 101.766 15.08 103.974 15.944ZM108.294 18.824C109.638 19.496 111.078 18.536 111.078 17.096C111.078 12.68 104.358 16.904 108.294 18.824ZM175.476 15.944C176.436 15.848 176.724 16.424 176.916 17.192C177.3 19.112 176.244 35.24 176.148 38.984C175.956 48.584 176.244 58.184 177.012 67.784C177.108 69.416 178.644 76.52 177.012 76.904C173.172 77.672 166.068 77.384 161.94 77.384C160.884 77.384 159.54 77.768 158.58 77.576C157.908 77.48 156.756 76.808 157.332 75.944C157.14 68.648 157.812 61.16 158.1 53.864C153.012 54.056 147.924 54.056 142.836 54.344C142.836 61.448 142.548 68.744 143.7 75.752C143.892 77 142.548 77.48 141.588 77.48C135.924 77.288 130.356 76.712 124.692 76.904C124.212 76.904 121.908 77.096 121.62 77C120.372 76.712 120.372 75.368 120.372 74.312C120.564 69.224 120.948 64.232 121.044 59.144C121.428 43.784 121.332 28.232 121.14 12.872C121.14 11.144 120.564 9.128 120.756 7.496C120.948 5.86399 123.252 5.96 124.404 6.056C128.628 6.248 132.948 6.72799 137.172 6.72799C138.612 6.72799 139.956 6.34399 141.396 6.34399C142.356 6.34399 143.508 6.632 144.084 7.4C145.332 9.032 144.852 33.032 144.852 36.776L155.988 36.872C155.508 33.32 155.028 19.784 156.18 16.808C155.7 15.944 156.372 15.464 157.14 15.368C158.292 15.176 174.804 15.56 175.476 15.944ZM177.876 10.568C175.668 12.392 172.596 9.704 174.9 8.55199C177.876 6.92 179.412 9.32 177.876 10.568ZM169.812 11.72C166.932 12.584 157.332 12.104 154.26 11.432C153.3 11.24 149.844 9.704 152.436 8.744C153.3 8.456 158.196 8.648 159.54 8.648C161.46 8.648 172.116 6.92 171.635 10.184C171.54 10.952 170.484 11.528 169.812 11.72ZM210.722 6.92C211.106 7.592 210.626 8.456 209.858 8.55199C209.186 8.648 208.61 8.168 207.938 8.07199C204.29 7.496 200.354 8.744 196.898 8.264C196.226 8.168 195.17 7.784 195.17 7.016C195.17 3.56 209.282 4.13599 210.722 6.92ZM192.866 8.84C190.754 11.528 187.97 5.096 191.714 5.47999C193.25 5.672 193.73 7.68799 192.866 8.84ZM197.282 77.864C195.746 77.864 191.426 78.056 190.274 77C189.602 76.328 189.506 75.272 189.41 74.408C189.026 70.472 186.914 16.424 187.01 15.944C187.682 13.256 201.698 12.872 204.386 12.872C205.442 12.872 208.322 12.776 209.186 13.256C210.818 14.12 210.53 17.768 210.53 19.304L210.626 75.656C210.626 76.616 210.242 77.096 209.378 77.384C208.13 77.768 199.298 77.864 197.282 77.864ZM265.601 44.744C273.185 47.336 277.697 56.456 274.721 63.944C268.769 78.92 243.425 78.056 230.177 77.864C228.353 77.864 226.433 77.96 224.801 77.192C223.457 76.52 222.497 75.368 222.401 73.832C222.017 67.496 222.689 60.872 222.593 54.536C222.401 46.472 222.017 38.312 221.633 30.248C221.345 24.968 221.441 19.496 220.673 14.312C220.481 12.776 219.809 9.992 220.481 8.55199C220.769 7.976 221.537 7.784 222.113 7.592C232.289 4.328 255.329 3.752 264.833 9.032C269.057 11.336 272.225 15.56 273.761 20.072C275.201 24.2 275.489 28.712 274.145 32.936C272.705 37.64 269.537 41.864 265.601 44.744ZM260.801 15.272C262.049 16.616 264.161 16.04 264.257 14.12C264.353 12.488 261.761 11.048 260.513 10.376C255.233 7.496 249.281 7.784 243.521 7.976C237.953 8.168 240.065 12.776 242.753 11.912C246.977 10.472 257.633 11.912 260.801 15.272ZM265.121 20.072C267.521 23.624 270.977 16.712 266.849 16.808C265.313 16.904 264.257 18.728 265.121 20.072ZM242.657 24.872C242.945 28.232 243.233 31.592 243.329 34.952C245.345 34.76 247.457 34.76 249.377 34.184C257.537 31.784 255.617 22.568 242.657 24.872ZM243.809 50.504C244.097 53.672 244.097 56.84 244.097 60.008C246.977 59.72 249.761 59.912 252.545 59.048C262.049 56.264 255.617 49.064 243.809 50.504ZM307.284 6.92C307.668 7.592 307.188 8.456 306.42 8.55199C305.748 8.648 305.172 8.168 304.5 8.07199C300.852 7.496 296.916 8.744 293.46 8.264C292.788 8.168 291.732 7.784 291.732 7.016C291.732 3.56 305.844 4.13599 307.284 6.92ZM289.428 8.84C287.316 11.528 284.532 5.096 288.276 5.47999C289.812 5.672 290.292 7.68799 289.428 8.84ZM293.844 77.864C292.308 77.864 287.988 78.056 286.836 77C286.164 76.328 286.068 75.272 285.972 74.408C285.588 70.472 283.476 16.424 283.572 15.944C284.244 13.256 298.26 12.872 300.948 12.872C302.004 12.872 304.884 12.776 305.748 13.256C307.38 14.12 307.092 17.768 307.092 19.304L307.188 75.656C307.188 76.616 306.804 77.096 305.94 77.384C304.692 77.768 295.86 77.864 293.844 77.864ZM333.651 78.056C331.155 79.304 331.251 72.2 331.155 70.856C330.483 59.336 329.331 37.064 330.867 26.12C326.259 26.6 320.787 28.04 316.275 27.944C315.027 27.944 314.451 26.984 314.067 25.928C313.491 24.104 313.779 7.976 314.355 6.248C314.643 5.47999 315.027 4.712 315.699 4.328C316.755 3.65599 319.539 4.04 320.787 4.232C336.147 6.152 351.699 4.712 367.155 6.152C369.075 6.34399 369.363 6.632 370.323 8.168C370.323 11.816 370.419 23.144 367.923 25.448C366.579 26.696 364.467 26.696 362.739 26.696C359.667 26.696 356.691 26.408 353.619 26.792C353.715 42.632 354.771 58.28 355.443 74.12C355.443 74.696 355.443 76.136 354.963 76.52C354.483 76.904 352.851 77 352.179 77C348.627 77 335.091 78.248 333.651 78.056ZM340.083 12.776C340.755 12.968 359.379 11.816 359.763 11.624C361.011 10.856 360.723 8.55199 359.379 8.07199C358.899 7.88 340.371 8.936 339.603 9.41599C338.355 10.28 338.547 12.296 340.083 12.776ZM363.987 11.816C365.043 12.68 366.579 12.008 366.963 10.76C368.403 6.248 360.339 8.936 363.987 11.816ZM399.347 6.92C399.731 7.592 399.251 8.456 398.483 8.55199C397.811 8.648 397.235 8.168 396.563 8.07199C392.915 7.496 388.979 8.744 385.523 8.264C384.851 8.168 383.795 7.784 383.795 7.016C383.795 3.56 397.907 4.13599 399.347 6.92ZM381.491 8.84C379.379 11.528 376.595 5.096 380.339 5.47999C381.875 5.672 382.355 7.68799 381.491 8.84ZM385.907 77.864C384.371 77.864 380.051 78.056 378.899 77C378.227 76.328 378.131 75.272 378.035 74.408C377.651 70.472 375.539 16.424 375.635 15.944C376.307 13.256 390.323 12.872 393.011 12.872C394.067 12.872 396.947 12.776 397.811 13.256C399.443 14.12 399.155 17.768 399.155 19.304L399.251 75.656C399.251 76.616 398.867 77.096 398.003 77.384C396.755 77.768 387.923 77.864 385.907 77.864ZM446.258 2.696C445.97 6.056 441.266 3.17599 443.858 1.256C445.202 0.199999 446.45 0.967995 446.258 2.696ZM466.322 13.448C466.898 14.984 465.17 15.656 464.21 14.408C462.77 12.488 461.522 11.048 459.314 9.992C458.162 9.41599 448.562 5.576 448.274 5.192C447.602 4.232 448.274 3.272 449.33 2.984C454.418 1.64 464.594 8.84 466.322 13.448ZM442.322 77C438.098 77.288 430.13 77.288 426.386 75.464C413.714 69.32 410.642 51.368 408.722 38.984C407.858 33.608 407.186 28.232 408.146 22.856C409.874 12.872 416.786 7.976 426.482 6.92C432.914 6.152 439.538 6.632 445.778 8.264C453.266 10.28 460.85 14.312 464.402 21.512C466.034 24.968 466.706 28.712 466.994 32.552C467.762 43.784 461.81 69.992 450.866 75.368C448.274 76.616 445.202 76.808 442.322 77ZM433.49 53.672C447.41 60.68 449.618 35.816 446.45 31.496C445.394 30.056 443.858 29 442.226 28.232C439.634 26.984 433.394 25.928 430.898 27.752C426.194 31.304 428.306 51.08 433.49 53.672ZM493.156 32.36C495.076 41.96 499.396 67.112 498.34 76.04C498.148 77.768 496.708 78.344 495.172 78.44C492.484 78.632 476.356 79.112 475.204 77.48C474.148 75.944 475.396 71.336 475.684 69.512C477.7 56.264 477.604 33.512 476.356 19.976C476.26 18.536 475.492 11.912 475.684 11.048C476.164 8.84 492.868 5.576 494.98 6.44C496.708 7.112 500.26 16.04 501.028 18.056C504.964 28.04 507.94 38.408 511.396 48.584C512.164 36.68 511.204 23.624 509.284 11.912C509.092 10.568 508.42 8.744 510.052 8.07199C511.876 7.304 528.868 6.248 531.076 6.824C531.364 7.20799 531.268 7.68799 531.172 8.168C530.404 13.256 530.5 18.824 530.404 24.008C530.116 37.256 529.924 50.504 529.828 63.752C529.828 66.632 525.604 65.864 523.684 65.864C518.5 65.864 513.988 66.728 508.996 67.784C508.516 67.88 507.844 67.88 507.46 67.592C506.596 66.92 506.404 65.672 506.116 64.712C503.044 53.96 499.108 41.864 493.156 32.36ZM508.612 76.232C507.94 76.328 506.884 76.424 506.212 76.232C504.676 75.848 504.676 73.928 506.116 73.448C510.436 71.912 514.948 71.72 519.46 71.336C525.508 70.856 524.068 74.504 521.956 74.984C517.732 75.944 512.932 75.656 508.612 76.232ZM529.444 71.816C532.036 72.488 530.116 76.328 527.428 74.696C525.412 73.448 527.62 71.336 529.444 71.816Z" fill="url(#paint0_linear_1254_4989)"/>
<defs>
<linearGradient id="paint0_linear_1254_4989" x1="266.5" y1="-1" x2="266.5" y2="121" gradientUnits="userSpaceOnUse">
<stop stop-color="#FFEAC3"/>
<stop offset="0.79" stop-color="#E6A7A5"/>
<stop offset="1" stop-color="#B32169"/>
</linearGradient>
</defs>
</svg>
