<svg width="1030" height="100" viewBox="0 0 1030 100" fill="none" xmlns="http://www.w3.org/2000/svg">
<rect x="5" y="5" width="1020" height="90" rx="33" fill="white" stroke="url(#paint0_linear_3460_8)" stroke-width="10"/>
<path d="M61.532 40.344V44.18H53.524V48.324H59.516V52.048H53.524V60H48.736V40.344H61.532ZM63.0965 52.16C63.0965 50.5547 63.3952 49.1453 63.9925 47.932C64.6085 46.7187 65.4392 45.7853 66.4845 45.132C67.5298 44.4787 68.6965 44.152 69.9845 44.152C71.0858 44.152 72.0472 44.376 72.8685 44.824C73.7085 45.272 74.3525 45.86 74.8005 46.588V44.376H79.5885V60H74.8005V57.788C74.3338 58.516 73.6805 59.104 72.8405 59.552C72.0192 60 71.0578 60.224 69.9565 60.224C68.6872 60.224 67.5298 59.8973 66.4845 59.244C65.4392 58.572 64.6085 57.6293 63.9925 56.416C63.3952 55.184 63.0965 53.7653 63.0965 52.16ZM74.8005 52.188C74.8005 50.9933 74.4645 50.0507 73.7925 49.36C73.1392 48.6693 72.3365 48.324 71.3845 48.324C70.4325 48.324 69.6205 48.6693 68.9485 49.36C68.2952 50.032 67.9685 50.9653 67.9685 52.16C67.9685 53.3547 68.2952 54.3067 68.9485 55.016C69.6205 55.7067 70.4325 56.052 71.3845 56.052C72.3365 56.052 73.1392 55.7067 73.7925 55.016C74.4645 54.3253 74.8005 53.3827 74.8005 52.188ZM105.48 44.376L101.252 60H95.9604L93.4964 49.864L90.9484 60H85.6844L81.4284 44.376H86.2164L88.4284 55.548L91.0604 44.376H96.1284L98.7884 55.492L100.972 44.376H105.48ZM129.734 44.376L125.506 60H120.214L117.75 49.864L115.202 60H109.938L105.682 44.376H110.47L112.682 55.548L115.314 44.376H120.382L123.042 55.492L125.226 44.376H129.734ZM130.608 52.16C130.608 50.5547 130.907 49.1453 131.504 47.932C132.12 46.7187 132.951 45.7853 133.996 45.132C135.042 44.4787 136.208 44.152 137.496 44.152C138.598 44.152 139.559 44.376 140.38 44.824C141.22 45.272 141.864 45.86 142.312 46.588V44.376H147.1V60H142.312V57.788C141.846 58.516 141.192 59.104 140.352 59.552C139.531 60 138.57 60.224 137.468 60.224C136.199 60.224 135.042 59.8973 133.996 59.244C132.951 58.572 132.12 57.6293 131.504 56.416C130.907 55.184 130.608 53.7653 130.608 52.16ZM142.312 52.188C142.312 50.9933 141.976 50.0507 141.304 49.36C140.651 48.6693 139.848 48.324 138.896 48.324C137.944 48.324 137.132 48.6693 136.46 49.36C135.807 50.032 135.48 50.9653 135.48 52.16C135.48 53.3547 135.807 54.3067 136.46 55.016C137.132 55.7067 137.944 56.052 138.896 56.052C139.848 56.052 140.651 55.7067 141.304 55.016C141.976 54.3253 142.312 53.3827 142.312 52.188ZM155.044 56.052H161.82V60H149.696V56.192L156.192 48.324H149.752V44.376H161.68V48.184L155.044 56.052ZM192.648 40.344V60H187.86V48.212L183.464 60H179.6L175.176 48.184V60H170.388V40.344H176.044L181.56 53.952L187.02 40.344H192.648ZM211.519 44.376V60H206.731V57.872C206.246 58.5627 205.583 59.1227 204.743 59.552C203.922 59.9627 203.007 60.168 201.999 60.168C200.805 60.168 199.75 59.9067 198.835 59.384C197.921 58.8427 197.211 58.068 196.707 57.06C196.203 56.052 195.951 54.8667 195.951 53.504V44.376H200.711V52.86C200.711 53.9053 200.982 54.7173 201.523 55.296C202.065 55.8747 202.793 56.164 203.707 56.164C204.641 56.164 205.378 55.8747 205.919 55.296C206.461 54.7173 206.731 53.9053 206.731 52.86V44.376H211.519ZM222.799 48.352H220.223V60H215.435V48.352H213.699V44.376H215.435V43.928C215.435 42.0053 215.985 40.5493 217.087 39.56C218.188 38.552 219.803 38.048 221.931 38.048C222.285 38.048 222.547 38.0573 222.715 38.076V42.136C221.8 42.08 221.156 42.2107 220.783 42.528C220.409 42.8453 220.223 43.4147 220.223 44.236V44.376H222.799V48.352ZM227.457 42.752C226.617 42.752 225.926 42.5093 225.385 42.024C224.862 41.52 224.601 40.904 224.601 40.176C224.601 39.4293 224.862 38.8133 225.385 38.328C225.926 37.824 226.617 37.572 227.457 37.572C228.278 37.572 228.95 37.824 229.473 38.328C230.014 38.8133 230.285 39.4293 230.285 40.176C230.285 40.904 230.014 41.52 229.473 42.024C228.95 42.5093 228.278 42.752 227.457 42.752ZM229.837 44.376V60H225.049V44.376H229.837ZM232.354 52.16C232.354 50.5547 232.653 49.1453 233.25 47.932C233.866 46.7187 234.697 45.7853 235.742 45.132C236.788 44.4787 237.954 44.152 239.242 44.152C240.269 44.152 241.202 44.3667 242.042 44.796C242.901 45.2253 243.573 45.804 244.058 46.532V39.28H248.846V60H244.058V57.76C243.61 58.5067 242.966 59.104 242.126 59.552C241.305 60 240.344 60.224 239.242 60.224C237.954 60.224 236.788 59.8973 235.742 59.244C234.697 58.572 233.866 57.6293 233.25 56.416C232.653 55.184 232.354 53.7653 232.354 52.16ZM244.058 52.188C244.058 50.9933 243.722 50.0507 243.05 49.36C242.397 48.6693 241.594 48.324 240.642 48.324C239.69 48.324 238.878 48.6693 238.206 49.36C237.553 50.032 237.226 50.9653 237.226 52.16C237.226 53.3547 237.553 54.3067 238.206 55.016C238.878 55.7067 239.69 56.052 240.642 56.052C241.594 56.052 242.397 55.7067 243.05 55.016C243.722 54.3253 244.058 53.3827 244.058 52.188ZM285.292 40.344L280.168 60H274.372L271.236 47.064L267.988 60H262.192L257.208 40.344H262.332L265.16 54.652L268.66 40.344H273.924L277.284 54.652L280.14 40.344H285.292ZM286.741 52.16C286.741 50.5547 287.04 49.1453 287.637 47.932C288.253 46.7187 289.084 45.7853 290.129 45.132C291.174 44.4787 292.341 44.152 293.629 44.152C294.73 44.152 295.692 44.376 296.513 44.824C297.353 45.272 297.997 45.86 298.445 46.588V44.376H303.233V60H298.445V57.788C297.978 58.516 297.325 59.104 296.485 59.552C295.664 60 294.702 60.224 293.601 60.224C292.332 60.224 291.174 59.8973 290.129 59.244C289.084 58.572 288.253 57.6293 287.637 56.416C287.04 55.184 286.741 53.7653 286.741 52.16ZM298.445 52.188C298.445 50.9933 298.109 50.0507 297.437 49.36C296.784 48.6693 295.981 48.324 295.029 48.324C294.077 48.324 293.265 48.6693 292.593 49.36C291.94 50.032 291.613 50.9653 291.613 52.16C291.613 53.3547 291.94 54.3067 292.593 55.016C293.265 55.7067 294.077 56.052 295.029 56.052C295.981 56.052 296.784 55.7067 297.437 55.016C298.109 54.3253 298.445 53.3827 298.445 52.188ZM311.485 46.98C312.045 46.1213 312.745 45.4493 313.585 44.964C314.425 44.46 315.358 44.208 316.385 44.208V49.276H315.069C313.874 49.276 312.978 49.5373 312.381 50.06C311.784 50.564 311.485 51.46 311.485 52.748V60H306.697V44.376H311.485V46.98ZM317.722 52.16C317.722 50.5547 318.02 49.1453 318.618 47.932C319.234 46.7187 320.064 45.7853 321.11 45.132C322.155 44.4787 323.322 44.152 324.61 44.152C325.636 44.152 326.57 44.3667 327.41 44.796C328.268 45.2253 328.94 45.804 329.426 46.532V39.28H334.214V60H329.426V57.76C328.978 58.5067 328.334 59.104 327.494 59.552C326.672 60 325.711 60.224 324.61 60.224C323.322 60.224 322.155 59.8973 321.11 59.244C320.064 58.572 319.234 57.6293 318.618 56.416C318.02 55.184 317.722 53.7653 317.722 52.16ZM329.426 52.188C329.426 50.9933 329.09 50.0507 328.418 49.36C327.764 48.6693 326.962 48.324 326.01 48.324C325.058 48.324 324.246 48.6693 323.574 49.36C322.92 50.032 322.594 50.9653 322.594 52.16C322.594 53.3547 322.92 54.3067 323.574 55.016C324.246 55.7067 325.058 56.052 326.01 56.052C326.962 56.052 327.764 55.7067 328.418 55.016C329.09 54.3253 329.426 53.3827 329.426 52.188ZM336.725 52.16C336.725 50.5547 337.024 49.1453 337.621 47.932C338.237 46.7187 339.068 45.7853 340.113 45.132C341.159 44.4787 342.325 44.152 343.613 44.152C344.715 44.152 345.676 44.376 346.497 44.824C347.337 45.272 347.981 45.86 348.429 46.588V44.376H353.217V60H348.429V57.788C347.963 58.516 347.309 59.104 346.469 59.552C345.648 60 344.687 60.224 343.585 60.224C342.316 60.224 341.159 59.8973 340.113 59.244C339.068 58.572 338.237 57.6293 337.621 56.416C337.024 55.184 336.725 53.7653 336.725 52.16ZM348.429 52.188C348.429 50.9933 348.093 50.0507 347.421 49.36C346.768 48.6693 345.965 48.324 345.013 48.324C344.061 48.324 343.249 48.6693 342.577 49.36C341.924 50.032 341.597 50.9653 341.597 52.16C341.597 53.3547 341.924 54.3067 342.577 55.016C343.249 55.7067 344.061 56.052 345.013 56.052C345.965 56.052 346.768 55.7067 347.421 55.016C348.093 54.3253 348.429 53.3827 348.429 52.188ZM372.641 44.376L362.841 67.42H357.689L361.273 59.468L354.917 44.376H360.265L363.877 54.148L367.461 44.376H372.641ZM373.421 52.16C373.421 50.5547 373.719 49.1453 374.317 47.932C374.933 46.7187 375.763 45.7853 376.809 45.132C377.854 44.4787 379.021 44.152 380.309 44.152C381.41 44.152 382.371 44.376 383.193 44.824C384.033 45.272 384.677 45.86 385.125 46.588V44.376H389.913V60H385.125V57.788C384.658 58.516 384.005 59.104 383.165 59.552C382.343 60 381.382 60.224 380.281 60.224C379.011 60.224 377.854 59.8973 376.809 59.244C375.763 58.572 374.933 57.6293 374.317 56.416C373.719 55.184 373.421 53.7653 373.421 52.16ZM385.125 52.188C385.125 50.9933 384.789 50.0507 384.117 49.36C383.463 48.6693 382.661 48.324 381.709 48.324C380.757 48.324 379.945 48.6693 379.273 49.36C378.619 50.032 378.293 50.9653 378.293 52.16C378.293 53.3547 378.619 54.3067 379.273 55.016C379.945 55.7067 380.757 56.052 381.709 56.052C382.661 56.052 383.463 55.7067 384.117 55.016C384.789 54.3253 385.125 53.3827 385.125 52.188Z" fill="#21126A"/>
<path d="M444.532 40.344V44.18H436.524V48.324H442.516V52.048H436.524V60H431.736V40.344H444.532ZM446.097 52.16C446.097 50.5547 446.395 49.1453 446.993 47.932C447.609 46.7187 448.439 45.7853 449.485 45.132C450.53 44.4787 451.697 44.152 452.985 44.152C454.086 44.152 455.047 44.376 455.869 44.824C456.709 45.272 457.353 45.86 457.801 46.588V44.376H462.589V60H457.801V57.788C457.334 58.516 456.681 59.104 455.841 59.552C455.019 60 454.058 60.224 452.957 60.224C451.687 60.224 450.53 59.8973 449.485 59.244C448.439 58.572 447.609 57.6293 446.993 56.416C446.395 55.184 446.097 53.7653 446.097 52.16ZM457.801 52.188C457.801 50.9933 457.465 50.0507 456.793 49.36C456.139 48.6693 455.337 48.324 454.385 48.324C453.433 48.324 452.621 48.6693 451.949 49.36C451.295 50.032 450.969 50.9653 450.969 52.16C450.969 53.3547 451.295 54.3067 451.949 55.016C452.621 55.7067 453.433 56.052 454.385 56.052C455.337 56.052 456.139 55.7067 456.793 55.016C457.465 54.3253 457.801 53.3827 457.801 52.188ZM475.6 60L470.84 53.448V60H466.052V39.28H470.84V50.732L475.572 44.376H481.48L474.984 52.216L481.536 60H475.6ZM498.789 44.376V60H494.001V57.872C493.516 58.5627 492.853 59.1227 492.013 59.552C491.192 59.9627 490.277 60.168 489.269 60.168C488.074 60.168 487.02 59.9067 486.105 59.384C485.19 58.8427 484.481 58.068 483.977 57.06C483.473 56.052 483.221 54.8667 483.221 53.504V44.376H487.981V52.86C487.981 53.9053 488.252 54.7173 488.793 55.296C489.334 55.8747 490.062 56.164 490.977 56.164C491.91 56.164 492.648 55.8747 493.189 55.296C493.73 54.7173 494.001 53.9053 494.001 52.86V44.376H498.789ZM507.016 39.28V60H502.228V39.28H507.016ZM519.194 55.94V60H516.758C515.022 60 513.669 59.58 512.698 58.74C511.727 57.8813 511.242 56.4907 511.242 54.568V48.352H509.338V44.376H511.242V40.568H516.03V44.376H519.166V48.352H516.03V54.624C516.03 55.0907 516.142 55.4267 516.366 55.632C516.59 55.8373 516.963 55.94 517.486 55.94H519.194ZM520.909 52.16C520.909 50.5547 521.208 49.1453 521.805 47.932C522.421 46.7187 523.252 45.7853 524.297 45.132C525.342 44.4787 526.509 44.152 527.797 44.152C528.898 44.152 529.86 44.376 530.681 44.824C531.521 45.272 532.165 45.86 532.613 46.588V44.376H537.401V60H532.613V57.788C532.146 58.516 531.493 59.104 530.653 59.552C529.832 60 528.87 60.224 527.769 60.224C526.5 60.224 525.342 59.8973 524.297 59.244C523.252 58.572 522.421 57.6293 521.805 56.416C521.208 55.184 520.909 53.7653 520.909 52.16ZM532.613 52.188C532.613 50.9933 532.277 50.0507 531.605 49.36C530.952 48.6693 530.149 48.324 529.197 48.324C528.245 48.324 527.433 48.6693 526.761 49.36C526.108 50.032 525.781 50.9653 525.781 52.16C525.781 53.3547 526.108 54.3067 526.761 55.016C527.433 55.7067 528.245 56.052 529.197 56.052C530.149 56.052 530.952 55.7067 531.605 55.016C532.277 54.3253 532.613 53.3827 532.613 52.188ZM547.221 60.224C545.858 60.224 544.645 59.9907 543.581 59.524C542.517 59.0573 541.677 58.4227 541.061 57.62C540.445 56.7987 540.1 55.884 540.025 54.876H544.757C544.813 55.4173 545.065 55.856 545.513 56.192C545.961 56.528 546.512 56.696 547.165 56.696C547.762 56.696 548.22 56.584 548.537 56.36C548.873 56.1173 549.041 55.8093 549.041 55.436C549.041 54.988 548.808 54.6613 548.341 54.456C547.874 54.232 547.118 53.9893 546.073 53.728C544.953 53.4667 544.02 53.196 543.273 52.916C542.526 52.6173 541.882 52.16 541.341 51.544C540.8 50.9093 540.529 50.06 540.529 48.996C540.529 48.1 540.772 47.288 541.257 46.56C541.761 45.8133 542.489 45.2253 543.441 44.796C544.412 44.3667 545.56 44.152 546.885 44.152C548.845 44.152 550.385 44.6373 551.505 45.608C552.644 46.5787 553.297 47.8667 553.465 49.472H549.041C548.966 48.9307 548.724 48.5013 548.313 48.184C547.921 47.8667 547.398 47.708 546.745 47.708C546.185 47.708 545.756 47.82 545.457 48.044C545.158 48.2493 545.009 48.5387 545.009 48.912C545.009 49.36 545.242 49.696 545.709 49.92C546.194 50.144 546.941 50.368 547.949 50.592C549.106 50.8907 550.049 51.1893 550.777 51.488C551.505 51.768 552.14 52.2347 552.681 52.888C553.241 53.5227 553.53 54.3813 553.549 55.464C553.549 56.3787 553.288 57.2 552.765 57.928C552.261 58.6373 551.524 59.1973 550.553 59.608C549.601 60.0187 548.49 60.224 547.221 60.224ZM580.864 40.344L573.892 60H567.9L560.928 40.344H566.024L570.896 55.184L575.796 40.344H580.864ZM589.977 60.224C588.446 60.224 587.065 59.8973 585.833 59.244C584.62 58.5907 583.658 57.6573 582.949 56.444C582.258 55.2307 581.913 53.812 581.913 52.188C581.913 50.5827 582.268 49.1733 582.977 47.96C583.686 46.728 584.657 45.7853 585.889 45.132C587.121 44.4787 588.502 44.152 590.033 44.152C591.564 44.152 592.945 44.4787 594.177 45.132C595.409 45.7853 596.38 46.728 597.089 47.96C597.798 49.1733 598.153 50.5827 598.153 52.188C598.153 53.7933 597.789 55.212 597.061 56.444C596.352 57.6573 595.372 58.5907 594.121 59.244C592.889 59.8973 591.508 60.224 589.977 60.224ZM589.977 56.08C590.892 56.08 591.666 55.744 592.301 55.072C592.954 54.4 593.281 53.4387 593.281 52.188C593.281 50.9373 592.964 49.976 592.329 49.304C591.713 48.632 590.948 48.296 590.033 48.296C589.1 48.296 588.325 48.632 587.709 49.304C587.093 49.9573 586.785 50.9187 586.785 52.188C586.785 53.4387 587.084 54.4 587.681 55.072C588.297 55.744 589.062 56.08 589.977 56.08ZM610.241 60L605.481 53.448V60H600.693V39.28H605.481V50.732L610.213 44.376H616.121L609.625 52.216L616.177 60H610.241ZM617.05 52.16C617.05 50.5547 617.348 49.1453 617.946 47.932C618.562 46.7187 619.392 45.7853 620.438 45.132C621.483 44.4787 622.65 44.152 623.938 44.152C625.039 44.152 626 44.376 626.822 44.824C627.662 45.272 628.306 45.86 628.754 46.588V44.376H633.542V60H628.754V57.788C628.287 58.516 627.634 59.104 626.794 59.552C625.972 60 625.011 60.224 623.91 60.224C622.64 60.224 621.483 59.8973 620.438 59.244C619.392 58.572 618.562 57.6293 617.946 56.416C617.348 55.184 617.05 53.7653 617.05 52.16ZM628.754 52.188C628.754 50.9933 628.418 50.0507 627.746 49.36C627.092 48.6693 626.29 48.324 625.338 48.324C624.386 48.324 623.574 48.6693 622.902 49.36C622.248 50.032 621.922 50.9653 621.922 52.16C621.922 53.3547 622.248 54.3067 622.902 55.016C623.574 55.7067 624.386 56.052 625.338 56.052C626.29 56.052 627.092 55.7067 627.746 55.016C628.418 54.3253 628.754 53.3827 628.754 52.188ZM643.362 60.224C641.999 60.224 640.786 59.9907 639.722 59.524C638.658 59.0573 637.818 58.4227 637.202 57.62C636.586 56.7987 636.24 55.884 636.166 54.876H640.898C640.954 55.4173 641.206 55.856 641.654 56.192C642.102 56.528 642.652 56.696 643.306 56.696C643.903 56.696 644.36 56.584 644.678 56.36C645.014 56.1173 645.182 55.8093 645.182 55.436C645.182 54.988 644.948 54.6613 644.482 54.456C644.015 54.232 643.259 53.9893 642.214 53.728C641.094 53.4667 640.16 53.196 639.414 52.916C638.667 52.6173 638.023 52.16 637.482 51.544C636.94 50.9093 636.67 50.06 636.67 48.996C636.67 48.1 636.912 47.288 637.398 46.56C637.902 45.8133 638.63 45.2253 639.582 44.796C640.552 44.3667 641.7 44.152 643.026 44.152C644.986 44.152 646.526 44.6373 647.646 45.608C648.784 46.5787 649.438 47.8667 649.606 49.472H645.182C645.107 48.9307 644.864 48.5013 644.454 48.184C644.062 47.8667 643.539 47.708 642.886 47.708C642.326 47.708 641.896 47.82 641.598 48.044C641.299 48.2493 641.15 48.5387 641.15 48.912C641.15 49.36 641.383 49.696 641.85 49.92C642.335 50.144 643.082 50.368 644.09 50.592C645.247 50.8907 646.19 51.1893 646.918 51.488C647.646 51.768 648.28 52.2347 648.822 52.888C649.382 53.5227 649.671 54.3813 649.69 55.464C649.69 56.3787 649.428 57.2 648.906 57.928C648.402 58.6373 647.664 59.1973 646.694 59.608C645.742 60.0187 644.631 60.224 643.362 60.224ZM655.027 42.752C654.187 42.752 653.496 42.5093 652.955 42.024C652.432 41.52 652.171 40.904 652.171 40.176C652.171 39.4293 652.432 38.8133 652.955 38.328C653.496 37.824 654.187 37.572 655.027 37.572C655.848 37.572 656.52 37.824 657.043 38.328C657.584 38.8133 657.855 39.4293 657.855 40.176C657.855 40.904 657.584 41.52 657.043 42.024C656.52 42.5093 655.848 42.752 655.027 42.752ZM657.407 44.376V60H652.619V44.376H657.407Z" fill="#21126A"/>
<path d="M712.876 40.344V44.18H707.668V60H702.88V44.18H697.672V40.344H712.876ZM730.007 51.936C730.007 52.384 729.979 52.8507 729.923 53.336H719.087C719.162 54.3067 719.47 55.0533 720.011 55.576C720.571 56.08 721.252 56.332 722.055 56.332C723.25 56.332 724.08 55.828 724.547 54.82H729.643C729.382 55.8467 728.906 56.7707 728.215 57.592C727.543 58.4133 726.694 59.0573 725.667 59.524C724.64 59.9907 723.492 60.224 722.223 60.224C720.692 60.224 719.33 59.8973 718.135 59.244C716.94 58.5907 716.007 57.6573 715.335 56.444C714.663 55.2307 714.327 53.812 714.327 52.188C714.327 50.564 714.654 49.1453 715.307 47.932C715.979 46.7187 716.912 45.7853 718.107 45.132C719.302 44.4787 720.674 44.152 722.223 44.152C723.735 44.152 725.079 44.4693 726.255 45.104C727.431 45.7387 728.346 46.644 728.999 47.82C729.671 48.996 730.007 50.368 730.007 51.936ZM725.107 50.676C725.107 49.8547 724.827 49.2013 724.267 48.716C723.707 48.2307 723.007 47.988 722.167 47.988C721.364 47.988 720.683 48.2213 720.123 48.688C719.582 49.1547 719.246 49.8173 719.115 50.676H725.107ZM742.081 60L737.321 53.448V60H732.533V39.28H737.321V50.732L742.053 44.376H747.961L741.465 52.216L748.017 60H742.081ZM759.361 44.208C761.191 44.208 762.647 44.8053 763.729 46C764.831 47.176 765.381 48.8 765.381 50.872V60H760.621V51.516C760.621 50.4707 760.351 49.6587 759.809 49.08C759.268 48.5013 758.54 48.212 757.625 48.212C756.711 48.212 755.983 48.5013 755.441 49.08C754.9 49.6587 754.629 50.4707 754.629 51.516V60H749.841V44.376H754.629V46.448C755.115 45.7573 755.768 45.216 756.589 44.824C757.411 44.4133 758.335 44.208 759.361 44.208ZM775.821 60.224C774.29 60.224 772.909 59.8973 771.677 59.244C770.463 58.5907 769.502 57.6573 768.793 56.444C768.102 55.2307 767.757 53.812 767.757 52.188C767.757 50.5827 768.111 49.1733 768.821 47.96C769.53 46.728 770.501 45.7853 771.733 45.132C772.965 44.4787 774.346 44.152 775.877 44.152C777.407 44.152 778.789 44.4787 780.021 45.132C781.253 45.7853 782.223 46.728 782.933 47.96C783.642 49.1733 783.997 50.5827 783.997 52.188C783.997 53.7933 783.633 55.212 782.905 56.444C782.195 57.6573 781.215 58.5907 779.965 59.244C778.733 59.8973 777.351 60.224 775.821 60.224ZM775.821 56.08C776.735 56.08 777.51 55.744 778.145 55.072C778.798 54.4 779.125 53.4387 779.125 52.188C779.125 50.9373 778.807 49.976 778.173 49.304C777.557 48.632 776.791 48.296 775.877 48.296C774.943 48.296 774.169 48.632 773.553 49.304C772.937 49.9573 772.629 50.9187 772.629 52.188C772.629 53.4387 772.927 54.4 773.525 55.072C774.141 55.744 774.906 56.08 775.821 56.08ZM791.325 39.28V60H786.537V39.28H791.325ZM801.907 60.224C800.376 60.224 798.995 59.8973 797.763 59.244C796.549 58.5907 795.588 57.6573 794.879 56.444C794.188 55.2307 793.843 53.812 793.843 52.188C793.843 50.5827 794.197 49.1733 794.907 47.96C795.616 46.728 796.587 45.7853 797.819 45.132C799.051 44.4787 800.432 44.152 801.963 44.152C803.493 44.152 804.875 44.4787 806.107 45.132C807.339 45.7853 808.309 46.728 809.019 47.96C809.728 49.1733 810.083 50.5827 810.083 52.188C810.083 53.7933 809.719 55.212 808.991 56.444C808.281 57.6573 807.301 58.5907 806.051 59.244C804.819 59.8973 803.437 60.224 801.907 60.224ZM801.907 56.08C802.821 56.08 803.596 55.744 804.231 55.072C804.884 54.4 805.211 53.4387 805.211 52.188C805.211 50.9373 804.893 49.976 804.259 49.304C803.643 48.632 802.877 48.296 801.963 48.296C801.029 48.296 800.255 48.632 799.639 49.304C799.023 49.9573 798.715 50.9187 798.715 52.188C798.715 53.4387 799.013 54.4 799.611 55.072C800.227 55.744 800.992 56.08 801.907 56.08ZM818.559 44.152C819.66 44.152 820.621 44.376 821.443 44.824C822.283 45.272 822.927 45.86 823.375 46.588V44.376H828.163V59.972C828.163 61.4093 827.873 62.7067 827.295 63.864C826.735 65.04 825.867 65.9733 824.691 66.664C823.533 67.3547 822.087 67.7 820.351 67.7C818.036 67.7 816.16 67.1493 814.723 66.048C813.285 64.9653 812.464 63.4907 812.259 61.624H816.991C817.14 62.2213 817.495 62.688 818.055 63.024C818.615 63.3787 819.305 63.556 820.127 63.556C821.116 63.556 821.9 63.2667 822.479 62.688C823.076 62.128 823.375 61.2227 823.375 59.972V57.76C822.908 58.488 822.264 59.0853 821.443 59.552C820.621 60 819.66 60.224 818.559 60.224C817.271 60.224 816.104 59.8973 815.059 59.244C814.013 58.572 813.183 57.6293 812.567 56.416C811.969 55.184 811.671 53.7653 811.671 52.16C811.671 50.5547 811.969 49.1453 812.567 47.932C813.183 46.7187 814.013 45.7853 815.059 45.132C816.104 44.4787 817.271 44.152 818.559 44.152ZM823.375 52.188C823.375 50.9933 823.039 50.0507 822.367 49.36C821.713 48.6693 820.911 48.324 819.959 48.324C819.007 48.324 818.195 48.6693 817.523 49.36C816.869 50.032 816.543 50.9653 816.543 52.16C816.543 53.3547 816.869 54.3067 817.523 55.016C818.195 55.7067 819.007 56.052 819.959 56.052C820.911 56.052 821.713 55.7067 822.367 55.016C823.039 54.3253 823.375 53.3827 823.375 52.188ZM834.035 42.752C833.195 42.752 832.504 42.5093 831.963 42.024C831.44 41.52 831.179 40.904 831.179 40.176C831.179 39.4293 831.44 38.8133 831.963 38.328C832.504 37.824 833.195 37.572 834.035 37.572C834.856 37.572 835.528 37.824 836.051 38.328C836.592 38.8133 836.863 39.4293 836.863 40.176C836.863 40.904 836.592 41.52 836.051 42.024C835.528 42.5093 834.856 42.752 834.035 42.752ZM836.415 44.376V60H831.627V44.376H836.415ZM850.606 40.344V60H845.818V40.344H850.606ZM863.596 44.208C865.425 44.208 866.881 44.8053 867.964 46C869.065 47.176 869.616 48.8 869.616 50.872V60H864.856V51.516C864.856 50.4707 864.585 49.6587 864.044 49.08C863.503 48.5013 862.775 48.212 861.86 48.212C860.945 48.212 860.217 48.5013 859.676 49.08C859.135 49.6587 858.864 50.4707 858.864 51.516V60H854.076V44.376H858.864V46.448C859.349 45.7573 860.003 45.216 860.824 44.824C861.645 44.4133 862.569 44.208 863.596 44.208ZM880.783 48.352H878.207V60H873.419V48.352H871.683V44.376H873.419V43.928C873.419 42.0053 873.97 40.5493 875.071 39.56C876.172 38.552 877.787 38.048 879.915 38.048C880.27 38.048 880.531 38.0573 880.699 38.076V42.136C879.784 42.08 879.14 42.2107 878.767 42.528C878.394 42.8453 878.207 43.4147 878.207 44.236V44.376H880.783V48.352ZM890.145 60.224C888.614 60.224 887.233 59.8973 886.001 59.244C884.788 58.5907 883.826 57.6573 883.117 56.444C882.426 55.2307 882.081 53.812 882.081 52.188C882.081 50.5827 882.436 49.1733 883.145 47.96C883.854 46.728 884.825 45.7853 886.057 45.132C887.289 44.4787 888.67 44.152 890.201 44.152C891.732 44.152 893.113 44.4787 894.345 45.132C895.577 45.7853 896.548 46.728 897.257 47.96C897.966 49.1733 898.321 50.5827 898.321 52.188C898.321 53.7933 897.957 55.212 897.229 56.444C896.52 57.6573 895.54 58.5907 894.289 59.244C893.057 59.8973 891.676 60.224 890.145 60.224ZM890.145 56.08C891.06 56.08 891.834 55.744 892.469 55.072C893.122 54.4 893.449 53.4387 893.449 52.188C893.449 50.9373 893.132 49.976 892.497 49.304C891.881 48.632 891.116 48.296 890.201 48.296C889.268 48.296 888.493 48.632 887.877 49.304C887.261 49.9573 886.953 50.9187 886.953 52.188C886.953 53.4387 887.252 54.4 887.849 55.072C888.465 55.744 889.23 56.08 890.145 56.08ZM905.649 46.98C906.209 46.1213 906.909 45.4493 907.749 44.964C908.589 44.46 909.522 44.208 910.549 44.208V49.276H909.233C908.038 49.276 907.142 49.5373 906.545 50.06C905.948 50.564 905.649 51.46 905.649 52.748V60H900.861V44.376H905.649V46.98ZM932.774 44.208C934.715 44.208 936.255 44.796 937.394 45.972C938.551 47.148 939.13 48.7813 939.13 50.872V60H934.37V51.516C934.37 50.508 934.099 49.7333 933.558 49.192C933.035 48.632 932.307 48.352 931.374 48.352C930.44 48.352 929.703 48.632 929.162 49.192C928.639 49.7333 928.378 50.508 928.378 51.516V60H923.618V51.516C923.618 50.508 923.347 49.7333 922.806 49.192C922.283 48.632 921.555 48.352 920.622 48.352C919.688 48.352 918.951 48.632 918.41 49.192C917.887 49.7333 917.626 50.508 917.626 51.516V60H912.838V44.376H917.626V46.336C918.111 45.6827 918.746 45.1693 919.53 44.796C920.314 44.404 921.2 44.208 922.19 44.208C923.366 44.208 924.411 44.46 925.326 44.964C926.259 45.468 926.987 46.1867 927.51 47.12C928.051 46.2613 928.788 45.5613 929.722 45.02C930.655 44.4787 931.672 44.208 932.774 44.208ZM941.526 52.16C941.526 50.5547 941.825 49.1453 942.422 47.932C943.038 46.7187 943.869 45.7853 944.914 45.132C945.96 44.4787 947.126 44.152 948.414 44.152C949.516 44.152 950.477 44.376 951.298 44.824C952.138 45.272 952.782 45.86 953.23 46.588V44.376H958.018V60H953.23V57.788C952.764 58.516 952.11 59.104 951.27 59.552C950.449 60 949.488 60.224 948.386 60.224C947.117 60.224 945.96 59.8973 944.914 59.244C943.869 58.572 943.038 57.6293 942.422 56.416C941.825 55.184 941.526 53.7653 941.526 52.16ZM953.23 52.188C953.23 50.9933 952.894 50.0507 952.222 49.36C951.569 48.6693 950.766 48.324 949.814 48.324C948.862 48.324 948.05 48.6693 947.378 49.36C946.725 50.032 946.398 50.9653 946.398 52.16C946.398 53.3547 946.725 54.3067 947.378 55.016C948.05 55.7067 948.862 56.052 949.814 56.052C950.766 56.052 951.569 55.7067 952.222 55.016C952.894 54.3253 953.23 53.3827 953.23 52.188ZM967.838 60.224C966.475 60.224 965.262 59.9907 964.198 59.524C963.134 59.0573 962.294 58.4227 961.678 57.62C961.062 56.7987 960.717 55.884 960.642 54.876H965.374C965.43 55.4173 965.682 55.856 966.13 56.192C966.578 56.528 967.129 56.696 967.782 56.696C968.379 56.696 968.837 56.584 969.154 56.36C969.49 56.1173 969.658 55.8093 969.658 55.436C969.658 54.988 969.425 54.6613 968.958 54.456C968.491 54.232 967.735 53.9893 966.69 53.728C965.57 53.4667 964.637 53.196 963.89 52.916C963.143 52.6173 962.499 52.16 961.958 51.544C961.417 50.9093 961.146 50.06 961.146 48.996C961.146 48.1 961.389 47.288 961.874 46.56C962.378 45.8133 963.106 45.2253 964.058 44.796C965.029 44.3667 966.177 44.152 967.502 44.152C969.462 44.152 971.002 44.6373 972.122 45.608C973.261 46.5787 973.914 47.8667 974.082 49.472H969.658C969.583 48.9307 969.341 48.5013 968.93 48.184C968.538 47.8667 968.015 47.708 967.362 47.708C966.802 47.708 966.373 47.82 966.074 48.044C965.775 48.2493 965.626 48.5387 965.626 48.912C965.626 49.36 965.859 49.696 966.326 49.92C966.811 50.144 967.558 50.368 968.566 50.592C969.723 50.8907 970.666 51.1893 971.394 51.488C972.122 51.768 972.757 52.2347 973.298 52.888C973.858 53.5227 974.147 54.3813 974.166 55.464C974.166 56.3787 973.905 57.2 973.382 57.928C972.878 58.6373 972.141 59.1973 971.17 59.608C970.218 60.0187 969.107 60.224 967.838 60.224ZM979.503 42.752C978.663 42.752 977.973 42.5093 977.431 42.024C976.909 41.52 976.647 40.904 976.647 40.176C976.647 39.4293 976.909 38.8133 977.431 38.328C977.973 37.824 978.663 37.572 979.503 37.572C980.325 37.572 980.997 37.824 981.519 38.328C982.061 38.8133 982.331 39.4293 982.331 40.176C982.331 40.904 982.061 41.52 981.519 42.024C980.997 42.5093 980.325 42.752 979.503 42.752ZM981.883 44.376V60H977.095V44.376H981.883Z" fill="#21126A"/>
<defs>
<linearGradient id="paint0_linear_3460_8" x1="515" y1="0" x2="515" y2="100" gradientUnits="userSpaceOnUse">
<stop offset="0.095" stop-color="#D7B575"/>
<stop offset="0.32" stop-color="#BED775"/>
<stop offset="0.99" stop-color="#4E3D71"/>
</linearGradient>
</defs>
</svg>
