<svg width="1368" height="368" viewBox="0 0 1368 368" fill="none" xmlns="http://www.w3.org/2000/svg">
<g filter="url(#filter0_d_3286_2131)">
<path d="M1123.28 126.912C1153.74 112.585 1205.72 128.487 1237.86 142.477C1270 156.468 1103.81 178.08 1189.67 186.895C1275.53 195.711 1154.71 228.733 1073.74 232.895C992.772 237.057 984.873 222.747 916.326 221.726C847.779 220.705 927.146 198.62 957.166 202.816C987.186 207.013 1025.67 221.037 1056.56 211.015C1069.76 206.732 1067.85 195.35 1050.26 192.102C1032.67 188.853 1009.35 198.877 1009.81 195.063C1010.26 191.248 1023.41 174.759 1041.51 171.676C1058.42 168.798 1073.02 173.038 1094.61 177.712C1128.7 185.092 1162.63 155.955 1147.09 146.85C1134.66 139.565 1112.02 153.513 1102.26 161.397C1096.57 155.872 1092.81 141.24 1123.28 126.912Z" fill="url(#paint0_radial_3286_2131)"/>
</g>
<g filter="url(#filter1_d_3286_2131)">
<path d="M244.724 130.496C214.261 116.169 162.282 132.071 130.143 146.061C98.003 160.052 264.194 181.664 178.33 190.479C92.4656 199.295 213.288 232.317 294.258 236.479C375.228 240.641 383.127 226.331 451.674 225.31C520.221 224.289 440.854 202.204 410.834 206.4C380.814 210.597 342.329 224.621 311.441 214.599C298.241 210.316 300.155 198.934 317.744 195.686C335.333 192.437 358.647 202.461 358.195 198.647C357.742 194.832 344.593 178.343 326.486 175.26C309.583 172.382 294.984 176.622 273.393 181.296C239.299 188.676 205.372 159.539 220.909 150.434C233.338 143.149 255.976 157.097 265.742 164.981C271.429 159.456 275.187 144.824 244.724 130.496Z" fill="url(#paint1_radial_3286_2131)"/>
</g>
<g filter="url(#filter2_d_3286_2131)">
<path d="M652.193 184.509C649.839 197.312 620.507 187.917 605.664 189.479C590.82 191.041 623.828 204.878 641.462 213.779C659.095 222.68 622.936 250.225 633.299 262.237C643.662 274.249 663.272 240.927 677.198 228.021C691.125 215.115 738.76 256.062 756.443 245.567C774.125 235.071 717.535 221.657 710.663 208.07C703.791 194.482 745.375 174.417 736.441 167.846C731.521 164.228 711.507 182.319 697.746 187.933C683.986 193.547 679.361 138.763 664.723 136.649C650.086 134.535 655.135 168.504 652.193 184.509Z" fill="url(#paint2_linear_3286_2131)"/>
</g>
<g filter="url(#filter3_d_3286_2131)">
<path d="M657.198 216.783C657.444 211.446 602.242 195.914 610.333 193.159C618.424 190.404 643.925 195.922 652.399 194.89C660.872 193.859 659.418 145.784 664.749 146.222C670.081 146.659 680.826 186.682 690.697 191.412C700.568 196.142 729.021 167.25 733.222 171.125C737.423 175 701.945 201.799 701.19 205.694C700.436 209.588 748.734 233.065 748.541 240.525C748.349 247.984 689.167 220.582 682.788 220.906C676.409 221.231 647.936 260.335 638.073 260.602C628.21 260.87 656.951 222.12 657.198 216.783Z" fill="url(#paint3_linear_3286_2131)"/>
</g>
<path d="M628.64 196.407C626.438 198.596 631.313 200.567 632.694 199.089C634.076 197.611 629.245 194.757 628.64 196.407Z" fill="#D9D9D9"/>
<path d="M656.114 204.621C658.371 202.468 653.549 200.417 652.13 201.873C650.711 203.329 655.466 206.261 656.114 204.621Z" fill="#D9D9D9"/>
<path d="M642.594 201.387C644.851 199.233 640.03 197.183 638.611 198.639C637.192 200.095 641.947 203.027 642.594 201.387Z" fill="#D9D9D9"/>
<path d="M670.655 186.614C668.454 188.803 673.328 190.774 674.71 189.296C676.091 187.818 671.26 184.964 670.655 186.614Z" fill="#D9D9D9"/>
<path d="M667.276 175.47C665.075 177.659 669.949 179.63 671.331 178.151C672.712 176.673 667.881 173.819 667.276 175.47Z" fill="#D9D9D9"/>
<path d="M694.671 196.471C692.469 198.66 697.344 200.632 698.725 199.153C700.107 197.675 695.276 194.821 694.671 196.471Z" fill="#D9D9D9"/>
<path d="M703.968 190.542C701.766 192.731 706.641 194.702 708.022 193.224C709.404 191.745 704.573 188.892 703.968 190.542Z" fill="#D9D9D9"/>
<path d="M715.163 182.62C712.961 184.809 717.836 186.78 719.218 185.302C720.599 183.824 715.768 180.97 715.163 182.62Z" fill="#D9D9D9"/>
<path d="M700.043 219.724C702.957 221.241 705.059 217.183 703.099 216.242C701.14 215.301 697.927 219.414 700.043 219.724Z" fill="#D9D9D9"/>
<path d="M717.587 224.062C716.738 221.371 711.767 223.292 712.405 225.043C713.043 226.793 718.874 225.422 717.587 224.062Z" fill="#D9D9D9"/>
<path d="M726.14 229.382C723.938 231.571 728.813 233.542 730.194 232.064C731.576 230.585 726.745 227.731 726.14 229.382Z" fill="#D9D9D9"/>
<path d="M662.74 229.64C663.591 226.931 658.097 226.781 657.618 228.575C657.14 230.369 663.061 231.33 662.74 229.64Z" fill="#D9D9D9"/>
<path d="M675.826 218.465C678.91 223.431 687.647 218.032 685.473 214.83C683.299 211.628 672.584 216.239 675.826 218.465Z" fill="#741F5E" stroke="#D9D9D9" stroke-width="3"/>
<path d="M665.767 194.17C660.691 190.385 654.815 197.83 658.263 200.22C661.711 202.609 669.795 195.354 665.767 194.17Z" fill="#741F5E" stroke="#D9D9D9" stroke-width="3"/>
<path d="M689.351 194.929C690.407 189.416 679.419 189.936 678.888 193.575C678.358 197.214 690.391 198.242 689.351 194.929Z" fill="#741F5E" stroke="#D9D9D9" stroke-width="3"/>
<path d="M659.799 209.525C655.395 213.903 665.144 217.845 667.908 214.888C670.671 211.932 661.009 206.225 659.799 209.525Z" fill="#741F5E" stroke="#D9D9D9" stroke-width="3"/>
<path d="M694.815 209.562C698.504 204.79 688.195 201.851 685.914 205.053C683.632 208.255 694.131 212.951 694.815 209.562Z" fill="#741F5E" stroke="#D9D9D9" stroke-width="3"/>
<path d="M656.848 238.135C656.583 235.363 651.287 236.598 651.544 238.413C651.801 240.228 657.826 239.651 656.848 238.135Z" fill="#D9D9D9"/>
<path d="M650.685 247.94C651.506 245.225 646.01 245.114 645.552 246.911C645.093 248.708 651.026 249.627 650.685 247.94Z" fill="#D9D9D9"/>
<path d="M666.628 162.657C664.426 164.846 669.301 166.817 670.682 165.339C672.064 163.861 667.233 161.007 666.628 162.657Z" fill="#D9D9D9"/>
<path d="M672.333 202.591C672.014 202.993 666.641 202.873 666.695 203.425C666.749 203.977 672.065 205.364 672.296 205.832C672.527 206.3 671.263 210.393 671.914 210.581C672.565 210.769 675.287 207.157 676.12 207.095C676.952 207.033 680.46 208.473 681.729 208.337C682.998 208.201 679.007 204.068 679.007 204.068C679.007 204.068 682.667 201.323 682.604 200.53C682.541 199.738 676.944 201.463 676.454 201.335C675.964 201.208 673.522 197.138 672.749 197.182C671.975 197.226 672.653 202.188 672.333 202.591Z" fill="#D9D9D9"/>
<defs>
<filter id="filter0_d_3286_2131" x="764.195" y="0.28125" width="602.848" height="362.371" filterUnits="userSpaceOnUse" color-interpolation-filters="sRGB">
<feFlood flood-opacity="0" result="BackgroundImageFix"/>
<feColorMatrix in="SourceAlpha" type="matrix" values="0 0 0 0 0 0 0 0 0 0 0 0 0 0 0 0 0 0 127 0" result="hardAlpha"/>
<feOffset dy="4"/>
<feGaussianBlur stdDeviation="62.5"/>
<feComposite in2="hardAlpha" operator="out"/>
<feColorMatrix type="matrix" values="0 0 0 0 0.602456 0 0 0 0 0.862489 0 0 0 0 0.9525 0 0 0 0.54 0"/>
<feBlend mode="normal" in2="BackgroundImageFix" result="effect1_dropShadow_3286_2131"/>
<feBlend mode="normal" in="SourceGraphic" in2="effect1_dropShadow_3286_2131" result="shape"/>
</filter>
<filter id="filter1_d_3286_2131" x="0.957031" y="3.86523" width="602.848" height="362.371" filterUnits="userSpaceOnUse" color-interpolation-filters="sRGB">
<feFlood flood-opacity="0" result="BackgroundImageFix"/>
<feColorMatrix in="SourceAlpha" type="matrix" values="0 0 0 0 0 0 0 0 0 0 0 0 0 0 0 0 0 0 127 0" result="hardAlpha"/>
<feOffset dy="4"/>
<feGaussianBlur stdDeviation="62.5"/>
<feComposite in2="hardAlpha" operator="out"/>
<feColorMatrix type="matrix" values="0 0 0 0 0.602456 0 0 0 0 0.862489 0 0 0 0 0.9525 0 0 0 0.54 0"/>
<feBlend mode="normal" in2="BackgroundImageFix" result="effect1_dropShadow_3286_2131"/>
<feBlend mode="normal" in="SourceGraphic" in2="effect1_dropShadow_3286_2131" result="shape"/>
</filter>
<filter id="filter2_d_3286_2131" x="512.03" y="50.6547" width="337.718" height="308.05" filterUnits="userSpaceOnUse" color-interpolation-filters="sRGB">
<feFlood flood-opacity="0" result="BackgroundImageFix"/>
<feColorMatrix in="SourceAlpha" type="matrix" values="0 0 0 0 0 0 0 0 0 0 0 0 0 0 0 0 0 0 127 0" result="hardAlpha"/>
<feOffset dy="4"/>
<feGaussianBlur stdDeviation="44.95"/>
<feComposite in2="hardAlpha" operator="out"/>
<feColorMatrix type="matrix" values="0 0 0 0 0.407843 0 0 0 0 0.0941176 0 0 0 0 0.129412 0 0 0 1 0"/>
<feBlend mode="normal" in2="BackgroundImageFix" result="effect1_dropShadow_3286_2131"/>
<feBlend mode="normal" in="SourceGraphic" in2="effect1_dropShadow_3286_2131" result="shape"/>
</filter>
<filter id="filter3_d_3286_2131" x="506.723" y="47.4187" width="344.62" height="319.985" filterUnits="userSpaceOnUse" color-interpolation-filters="sRGB">
<feFlood flood-opacity="0" result="BackgroundImageFix"/>
<feColorMatrix in="SourceAlpha" type="matrix" values="0 0 0 0 0 0 0 0 0 0 0 0 0 0 0 0 0 0 127 0" result="hardAlpha"/>
<feOffset dy="4"/>
<feGaussianBlur stdDeviation="51.4"/>
<feComposite in2="hardAlpha" operator="out"/>
<feColorMatrix type="matrix" values="0 0 0 0 0.847059 0 0 0 0 0.709804 0 0 0 0 0.458824 0 0 0 1 0"/>
<feBlend mode="normal" in2="BackgroundImageFix" result="effect1_dropShadow_3286_2131"/>
<feBlend mode="normal" in="SourceGraphic" in2="effect1_dropShadow_3286_2131" result="shape"/>
</filter>
<radialGradient id="paint0_radial_3286_2131" cx="0" cy="0" r="1" gradientUnits="userSpaceOnUse" gradientTransform="translate(1162.81 153.834) rotate(160.503) scale(308.064 90.1097)">
<stop stop-color="#75D7D6"/>
<stop offset="0.288144" stop-color="#3CC1EC"/>
<stop offset="0.836667" stop-color="#C213BB"/>
<stop offset="1" stop-color="#D575D7"/>
</radialGradient>
<radialGradient id="paint1_radial_3286_2131" cx="0" cy="0" r="1" gradientUnits="userSpaceOnUse" gradientTransform="translate(205.189 157.418) rotate(19.497) scale(308.064 90.1097)">
<stop stop-color="#75D7D6"/>
<stop offset="0.288144" stop-color="#3CC1EC"/>
<stop offset="0.836667" stop-color="#C213BB"/>
<stop offset="1" stop-color="#D575D7"/>
</radialGradient>
<linearGradient id="paint2_linear_3286_2131" x1="705.271" y1="145.358" x2="676.144" y2="276.912" gradientUnits="userSpaceOnUse">
<stop stop-color="#71D0CF"/>
<stop offset="0.305" stop-color="#5BA7A6"/>
<stop offset="0.78" stop-color="#75D7D6"/>
</linearGradient>
<linearGradient id="paint3_linear_3286_2131" x1="699.777" y1="152.813" x2="677.819" y2="268.19" gradientUnits="userSpaceOnUse">
<stop offset="0.485" stop-color="#B32169"/>
<stop offset="1" stop-color="#3029BA"/>
</linearGradient>
</defs>
</svg>
