<svg width="1440" height="187" viewBox="0 0 1440 187" fill="none" xmlns="http://www.w3.org/2000/svg">
<path fill-rule="evenodd" clip-rule="evenodd" d="M1440 0C1435.01 0.999512 1465.25 -1.55535 1336.87 2.34301C1201.32 6.92658 1015.13 62.4158 879.587 89.9173C744.043 117.419 516.36 139.551 385.166 77.9071C237.286 8.42295 78.3443 4.87061 0.000133261 26.3638V187H67.772C135.544 187 271.087 187 406.631 187C542.175 187 677.719 187 813.262 187C948.806 187 1084.35 187 1219.89 187C1355.44 187 1372.23 186.5 1440 186.5L1440 0Z" fill="#21126A" fill-opacity="0.4"/>
<path fill-rule="evenodd" clip-rule="evenodd" d="M0 77.0877L60 58.769C120 40.4503 240 3.81284 360 8.39252C480 12.9722 600 58.769 720 86.2471C840 113.725 961.661 104.556 1088.66 91.2697C1230 76.4839 1380 53.9781 1440 26.5V187H1380C1320 187 1200 187 1080 187C960 187 840 187 720 187C600 187 480 187 360 187C240 187 120 187 60 187H0V77.0877Z" fill="#201169"/>
<path fill-rule="evenodd" clip-rule="evenodd" d="M1437.01 77.037L1377.13 58.7183C1317.26 40.3996 1127.15 8.86941 1007.4 13.4491C887.652 18.0288 785.365 63.741 665.615 91.219C545.864 118.697 477.346 104.505 350.609 91.219C209.565 76.4332 59.8768 53.9274 0.00158691 26.4493V186.949H59.8768C119.752 186.949 239.503 186.949 359.253 186.949C479.004 186.949 598.754 186.949 718.505 186.949C838.255 186.949 958.006 186.949 1077.76 186.949C1197.51 186.949 1317.26 186.949 1377.13 186.949H1437.01V77.037Z" fill="#201169" fill-opacity="0.7"/>
</svg>
