<svg width="170" height="76" viewBox="0 0 170 76" fill="none" xmlns="http://www.w3.org/2000/svg">
<rect x="1" y="1" width="168" height="74" rx="35" fill="white" stroke="url(#paint0_linear_1218_937)" stroke-width="2"/>
<path d="M60.2113 35.24C59.8913 34.6533 59.4513 34.2067 58.8913 33.9C58.3313 33.5933 57.678 33.44 56.9313 33.44C56.1047 33.44 55.3713 33.6267 54.7313 34C54.0913 34.3733 53.5913 34.9067 53.2313 35.6C52.8713 36.2933 52.6913 37.0933 52.6913 38C52.6913 38.9333 52.8713 39.7467 53.2313 40.44C53.6047 41.1333 54.118 41.6667 54.7713 42.04C55.4247 42.4133 56.1847 42.6 57.0513 42.6C58.118 42.6 58.9913 42.32 59.6713 41.76C60.3513 41.1867 60.798 40.3933 61.0113 39.38H56.2113V37.24H63.7713V39.68C63.5847 40.6533 63.1847 41.5533 62.5713 42.38C61.958 43.2067 61.1647 43.8733 60.1913 44.38C59.2313 44.8733 58.1513 45.12 56.9513 45.12C55.6047 45.12 54.3847 44.82 53.2913 44.22C52.2113 43.6067 51.358 42.76 50.7313 41.68C50.118 40.6 49.8113 39.3733 49.8113 38C49.8113 36.6267 50.118 35.4 50.7313 34.32C51.358 33.2267 52.2113 32.38 53.2913 31.78C54.3847 31.1667 55.598 30.86 56.9313 30.86C58.5047 30.86 59.8713 31.2467 61.0313 32.02C62.1913 32.78 62.9913 33.8533 63.4313 35.24H60.2113ZM73.0429 45L69.9629 39.56H68.6429V45H65.8429V31.04H71.0829C72.1629 31.04 73.0829 31.2333 73.8429 31.62C74.6029 31.9933 75.1696 32.5067 75.5429 33.16C75.9296 33.8 76.1229 34.52 76.1229 35.32C76.1229 36.24 75.8562 37.0733 75.3229 37.82C74.7896 38.5533 73.9962 39.06 72.9429 39.34L76.2829 45H73.0429ZM68.6429 37.46H70.9829C71.7429 37.46 72.3096 37.28 72.6829 36.92C73.0562 36.5467 73.2429 36.0333 73.2429 35.38C73.2429 34.74 73.0562 34.2467 72.6829 33.9C72.3096 33.54 71.7429 33.36 70.9829 33.36H68.6429V37.46ZM87.2154 42.34H81.6554L80.7354 45H77.7954L82.8154 31.02H86.0754L91.0954 45H88.1354L87.2154 42.34ZM86.4554 40.1L84.4354 34.26L82.4154 40.1H86.4554ZM102.472 31.04V33.3H98.7518V45H95.9518V33.3H92.2318V31.04H102.472ZM107.315 31.04V45H104.515V31.04H107.315ZM114.901 45.14C113.928 45.14 113.048 44.9733 112.261 44.64C111.488 44.3067 110.875 43.8267 110.421 43.2C109.968 42.5733 109.735 41.8333 109.721 40.98H112.721C112.761 41.5533 112.961 42.0067 113.321 42.34C113.695 42.6733 114.201 42.84 114.841 42.84C115.495 42.84 116.008 42.6867 116.381 42.38C116.755 42.06 116.941 41.6467 116.941 41.14C116.941 40.7267 116.815 40.3867 116.561 40.12C116.308 39.8533 115.988 39.6467 115.601 39.5C115.228 39.34 114.708 39.1667 114.041 38.98C113.135 38.7133 112.395 38.4533 111.821 38.2C111.261 37.9333 110.775 37.54 110.361 37.02C109.961 36.4867 109.761 35.78 109.761 34.9C109.761 34.0733 109.968 33.3533 110.381 32.74C110.795 32.1267 111.375 31.66 112.121 31.34C112.868 31.0067 113.721 30.84 114.681 30.84C116.121 30.84 117.288 31.1933 118.181 31.9C119.088 32.5933 119.588 33.5667 119.681 34.82H116.601C116.575 34.34 116.368 33.9467 115.981 33.64C115.608 33.32 115.108 33.16 114.481 33.16C113.935 33.16 113.495 33.3 113.161 33.58C112.841 33.86 112.681 34.2667 112.681 34.8C112.681 35.1733 112.801 35.4867 113.041 35.74C113.295 35.98 113.601 36.18 113.961 36.34C114.335 36.4867 114.855 36.66 115.521 36.86C116.428 37.1267 117.168 37.3933 117.741 37.66C118.315 37.9267 118.808 38.3267 119.221 38.86C119.635 39.3933 119.841 40.0933 119.841 40.96C119.841 41.7067 119.648 42.4 119.261 43.04C118.875 43.68 118.308 44.1933 117.561 44.58C116.815 44.9533 115.928 45.14 114.901 45.14Z" fill="black"/>
<defs>
<linearGradient id="paint0_linear_1218_937" x1="85" y1="0" x2="85" y2="76" gradientUnits="userSpaceOnUse">
<stop offset="0.095" stop-color="#D7B575"/>
<stop offset="0.32" stop-color="#BED775"/>
<stop offset="0.99" stop-color="#4E3D71"/>
</linearGradient>
</defs>
</svg>
