<svg width="171" height="51" viewBox="0 0 171 51" fill="none" xmlns="http://www.w3.org/2000/svg">
<rect x="2.38672" y="1.5" width="167" height="48" rx="24" fill="white" stroke="url(#paint0_linear_2125_2)" stroke-width="3"/>
<path d="M39.5648 23.24C39.2448 22.6533 38.8048 22.2067 38.2448 21.9C37.6848 21.5933 37.0315 21.44 36.2848 21.44C35.4582 21.44 34.7248 21.6267 34.0848 22C33.4448 22.3733 32.9448 22.9067 32.5848 23.6C32.2248 24.2933 32.0448 25.0933 32.0448 26C32.0448 26.9333 32.2248 27.7467 32.5848 28.44C32.9582 29.1333 33.4715 29.6667 34.1248 30.04C34.7782 30.4133 35.5382 30.6 36.4048 30.6C37.4715 30.6 38.3448 30.32 39.0248 29.76C39.7048 29.1867 40.1515 28.3933 40.3648 27.38H35.5648V25.24H43.1248V27.68C42.9382 28.6533 42.5382 29.5533 41.9248 30.38C41.3115 31.2067 40.5182 31.8733 39.5448 32.38C38.5848 32.8733 37.5048 33.12 36.3048 33.12C34.9582 33.12 33.7382 32.82 32.6448 32.22C31.5648 31.6067 30.7115 30.76 30.0848 29.68C29.4715 28.6 29.1648 27.3733 29.1648 26C29.1648 24.6267 29.4715 23.4 30.0848 22.32C30.7115 21.2267 31.5648 20.38 32.6448 19.78C33.7382 19.1667 34.9515 18.86 36.2848 18.86C37.8582 18.86 39.2248 19.2467 40.3848 20.02C41.5448 20.78 42.3448 21.8533 42.7848 23.24H39.5648ZM55.6564 21.92V33H52.8364V31.6C52.4764 32.08 52.0031 32.46 51.4164 32.74C50.8431 33.0067 50.2164 33.14 49.5364 33.14C48.6697 33.14 47.9031 32.96 47.2364 32.6C46.5697 32.2267 46.0431 31.6867 45.6564 30.98C45.2831 30.26 45.0964 29.4067 45.0964 28.42V21.92H47.8964V28.02C47.8964 28.9 48.1164 29.58 48.5564 30.06C48.9964 30.5267 49.5964 30.76 50.3564 30.76C51.1297 30.76 51.7364 30.5267 52.1764 30.06C52.6164 29.58 52.8364 28.9 52.8364 28.02V21.92H55.6564ZM59.8391 20.6C59.3457 20.6 58.9324 20.4467 58.5991 20.14C58.2791 19.82 58.1191 19.4267 58.1191 18.96C58.1191 18.4933 58.2791 18.1067 58.5991 17.8C58.9324 17.48 59.3457 17.32 59.8391 17.32C60.3324 17.32 60.7391 17.48 61.0591 17.8C61.3924 18.1067 61.5591 18.4933 61.5591 18.96C61.5591 19.4267 61.3924 19.82 61.0591 20.14C60.7391 20.4467 60.3324 20.6 59.8391 20.6ZM61.2191 21.92V33H58.4191V21.92H61.2191ZM63.2655 27.42C63.2655 26.3 63.4855 25.3067 63.9255 24.44C64.3788 23.5733 64.9921 22.9067 65.7655 22.44C66.5388 21.9733 67.3988 21.74 68.3455 21.74C69.0655 21.74 69.7521 21.9 70.4055 22.22C71.0588 22.5267 71.5788 22.94 71.9655 23.46V18.2H74.8055V33H71.9655V31.36C71.6188 31.9067 71.1321 32.3467 70.5055 32.68C69.8788 33.0133 69.1521 33.18 68.3255 33.18C67.3921 33.18 66.5388 32.94 65.7655 32.46C64.9921 31.98 64.3788 31.3067 63.9255 30.44C63.4855 29.56 63.2655 28.5533 63.2655 27.42ZM71.9855 27.46C71.9855 26.78 71.8521 26.2 71.5855 25.72C71.3188 25.2267 70.9588 24.8533 70.5055 24.6C70.0521 24.3333 69.5655 24.2 69.0455 24.2C68.5255 24.2 68.0455 24.3267 67.6055 24.58C67.1655 24.8333 66.8055 25.2067 66.5255 25.7C66.2588 26.18 66.1255 26.7533 66.1255 27.42C66.1255 28.0867 66.2588 28.6733 66.5255 29.18C66.8055 29.6733 67.1655 30.0533 67.6055 30.32C68.0588 30.5867 68.5388 30.72 69.0455 30.72C69.5655 30.72 70.0521 30.5933 70.5055 30.34C70.9588 30.0733 71.3188 29.7 71.5855 29.22C71.8521 28.7267 71.9855 28.14 71.9855 27.46ZM87.8402 27.22C87.8402 27.62 87.8135 27.98 87.7602 28.3H79.6602C79.7268 29.1 80.0068 29.7267 80.5002 30.18C80.9935 30.6333 81.6002 30.86 82.3202 30.86C83.3602 30.86 84.1002 30.4133 84.5402 29.52H87.5602C87.2402 30.5867 86.6268 31.4667 85.7202 32.16C84.8135 32.84 83.7002 33.18 82.3802 33.18C81.3135 33.18 80.3535 32.9467 79.5002 32.48C78.6602 32 78.0002 31.3267 77.5202 30.46C77.0535 29.5933 76.8202 28.5933 76.8202 27.46C76.8202 26.3133 77.0535 25.3067 77.5202 24.44C77.9868 23.5733 78.6402 22.9067 79.4802 22.44C80.3202 21.9733 81.2868 21.74 82.3802 21.74C83.4335 21.74 84.3735 21.9667 85.2002 22.42C86.0402 22.8733 86.6868 23.52 87.1402 24.36C87.6068 25.1867 87.8402 26.14 87.8402 27.22ZM84.9402 26.42C84.9268 25.7 84.6668 25.1267 84.1602 24.7C83.6535 24.26 83.0335 24.04 82.3002 24.04C81.6068 24.04 81.0202 24.2533 80.5402 24.68C80.0735 25.0933 79.7868 25.6733 79.6802 26.42H84.9402ZM102.57 25.84C103.356 25.9867 104.003 26.38 104.51 27.02C105.016 27.66 105.27 28.3933 105.27 29.22C105.27 29.9667 105.083 30.6267 104.71 31.2C104.35 31.76 103.823 32.2 103.13 32.52C102.436 32.84 101.616 33 100.67 33H94.6495V19.04H100.41C101.356 19.04 102.17 19.1933 102.85 19.5C103.543 19.8067 104.063 20.2333 104.41 20.78C104.77 21.3267 104.95 21.9467 104.95 22.64C104.95 23.4533 104.73 24.1333 104.29 24.68C103.863 25.2267 103.29 25.6133 102.57 25.84ZM97.4495 24.8H100.01C100.676 24.8 101.19 24.6533 101.55 24.36C101.91 24.0533 102.09 23.62 102.09 23.06C102.09 22.5 101.91 22.0667 101.55 21.76C101.19 21.4533 100.676 21.3 100.01 21.3H97.4495V24.8ZM100.27 30.72C100.95 30.72 101.476 30.56 101.85 30.24C102.236 29.92 102.43 29.4667 102.43 28.88C102.43 28.28 102.23 27.8133 101.83 27.48C101.43 27.1333 100.89 26.96 100.21 26.96H97.4495V30.72H100.27ZM112.421 33.18C111.354 33.18 110.394 32.9467 109.541 32.48C108.688 32 108.014 31.3267 107.521 30.46C107.041 29.5933 106.801 28.5933 106.801 27.46C106.801 26.3267 107.048 25.3267 107.541 24.46C108.048 23.5933 108.734 22.9267 109.601 22.46C110.468 21.98 111.434 21.74 112.501 21.74C113.568 21.74 114.534 21.98 115.401 22.46C116.268 22.9267 116.948 23.5933 117.441 24.46C117.948 25.3267 118.201 26.3267 118.201 27.46C118.201 28.5933 117.941 29.5933 117.421 30.46C116.914 31.3267 116.221 32 115.341 32.48C114.474 32.9467 113.501 33.18 112.421 33.18ZM112.421 30.74C112.928 30.74 113.401 30.62 113.841 30.38C114.294 30.1267 114.654 29.7533 114.921 29.26C115.188 28.7667 115.321 28.1667 115.321 27.46C115.321 26.4067 115.041 25.6 114.481 25.04C113.934 24.4667 113.261 24.18 112.461 24.18C111.661 24.18 110.988 24.4667 110.441 25.04C109.908 25.6 109.641 26.4067 109.641 27.46C109.641 28.5133 109.901 29.3267 110.421 29.9C110.954 30.46 111.621 30.74 112.421 30.74ZM125.175 33.18C124.108 33.18 123.148 32.9467 122.295 32.48C121.442 32 120.768 31.3267 120.275 30.46C119.795 29.5933 119.555 28.5933 119.555 27.46C119.555 26.3267 119.802 25.3267 120.295 24.46C120.802 23.5933 121.488 22.9267 122.355 22.46C123.222 21.98 124.188 21.74 125.255 21.74C126.322 21.74 127.288 21.98 128.155 22.46C129.022 22.9267 129.702 23.5933 130.195 24.46C130.702 25.3267 130.955 26.3267 130.955 27.46C130.955 28.5933 130.695 29.5933 130.175 30.46C129.668 31.3267 128.975 32 128.095 32.48C127.228 32.9467 126.255 33.18 125.175 33.18ZM125.175 30.74C125.682 30.74 126.155 30.62 126.595 30.38C127.048 30.1267 127.408 29.7533 127.675 29.26C127.942 28.7667 128.075 28.1667 128.075 27.46C128.075 26.4067 127.795 25.6 127.235 25.04C126.688 24.4667 126.015 24.18 125.215 24.18C124.415 24.18 123.742 24.4667 123.195 25.04C122.662 25.6 122.395 26.4067 122.395 27.46C122.395 28.5133 122.655 29.3267 123.175 29.9C123.708 30.46 124.375 30.74 125.175 30.74ZM139.569 33L135.809 28.28V33H133.009V18.2H135.809V26.62L139.529 21.92H143.169L138.289 27.48L143.209 33H139.569Z" fill="black"/>
<defs>
<linearGradient id="paint0_linear_2125_2" x1="85.8867" y1="0" x2="85.8867" y2="51" gradientUnits="userSpaceOnUse">
<stop offset="0.095" stop-color="#D7B575"/>
<stop offset="0.32" stop-color="#BED775"/>
<stop offset="0.99" stop-color="#4E3D71"/>
</linearGradient>
</defs>
</svg>
