<svg width="408" height="657" viewBox="0 0 408 657" fill="none" xmlns="http://www.w3.org/2000/svg">
<g filter="url(#filter0_d_1799_87)">
<path d="M233.192 185.686C279.315 123.441 202.91 65.2408 186.335 65.8551C178.323 66.1521 227.344 104.978 193.58 144.658C136.99 211.166 96.2271 198.537 67.8842 285.441C65.0209 294.22 55.1467 374.553 105.673 427.478C414.436 750.899 108.867 460.259 312.847 519.067C352.863 530.603 347.634 465.218 282.394 430.776C108.91 339.189 153.486 293.251 233.192 185.686Z" fill="url(#paint0_radial_1799_87)" shape-rendering="crispEdges"/>
</g>
<g filter="url(#filter1_d_1799_87)">
<path d="M127.24 287.922C121.477 287.957 117.027 285.166 114.19 281.219C111.587 277.596 110.467 273.244 110.066 269.511C109.656 265.696 109.912 261.759 110.697 258.394C111.09 256.711 111.664 254.957 112.498 253.352C113.267 251.871 114.619 249.809 116.915 248.429C119.108 247.109 121.518 245.663 124.251 244.878C127.267 244.012 130.089 244.08 133.082 244.453C139.443 245.245 143.662 249.354 145.656 254.31C147.484 258.855 147.46 263.954 146.588 268.325C145.702 272.764 143.77 277.337 140.787 280.97C137.797 284.613 133.21 287.887 127.24 287.922Z" stroke="url(#paint1_linear_1799_87)" stroke-width="15.4557" shape-rendering="crispEdges"/>
</g>
<g filter="url(#filter2_d_1799_87)">
<path d="M197.246 474.746C192.254 474.986 188.37 472.623 185.987 469.109C183.854 465.964 183.071 462.183 182.865 459.012C182.651 455.742 183.001 452.373 183.757 449.506C184.135 448.069 184.658 446.597 185.371 445.258C186.028 444.024 187.139 442.345 188.957 441.171C190.855 439.946 192.884 438.64 195.163 437.88C197.705 437.031 200.092 436.982 202.65 437.204C208.254 437.689 211.859 441.34 213.408 445.677C214.8 449.577 214.588 453.947 213.73 457.655C212.852 461.447 211.119 465.347 208.59 468.47C206.097 471.549 202.274 474.504 197.246 474.746Z" stroke="url(#paint2_linear_1799_87)" stroke-width="13" shape-rendering="crispEdges"/>
</g>
<g filter="url(#filter3_d_1799_87)">
<path d="M166.773 508.573C163.444 508.642 160.863 507.093 159.252 504.885C157.797 502.89 157.224 500.523 157.038 498.561C156.846 496.544 157.017 494.461 157.472 492.667C157.7 491.769 158.032 490.815 158.514 489.927C158.955 489.117 159.754 487.927 161.13 487.106L161.156 487.091C162.279 486.421 163.621 485.621 165.154 485.17C166.883 484.661 168.481 484.683 170.091 484.854L169.533 489.625L170.091 484.854C173.792 485.249 176.227 487.573 177.331 490.337C178.328 492.833 178.254 495.592 177.748 497.899C177.231 500.253 176.146 502.696 174.48 504.663C172.818 506.628 170.211 508.5 166.773 508.573Z" stroke="url(#paint3_linear_1799_87)" stroke-width="9.67932" shape-rendering="crispEdges"/>
</g>
<defs>
<filter id="filter0_d_1799_87" x="-4.32031" y="0.350586" width="412.055" height="656.237" filterUnits="userSpaceOnUse" color-interpolation-filters="sRGB">
<feFlood flood-opacity="0" result="BackgroundImageFix"/>
<feColorMatrix in="SourceAlpha" type="matrix" values="0 0 0 0 0 0 0 0 0 0 0 0 0 0 0 0 0 0 127 0" result="hardAlpha"/>
<feOffset dy="4"/>
<feGaussianBlur stdDeviation="34.75"/>
<feComposite in2="hardAlpha" operator="out"/>
<feColorMatrix type="matrix" values="0 0 0 0 0.587646 0 0 0 0 0.622905 0 0 0 0 0.940234 0 0 0 1 0"/>
<feBlend mode="normal" in2="BackgroundImageFix" result="effect1_dropShadow_1799_87"/>
<feBlend mode="normal" in="SourceGraphic" in2="effect1_dropShadow_1799_87" result="shape"/>
</filter>
<filter id="filter1_d_1799_87" x="2.36769" y="160.379" width="261.49" height="268.165" filterUnits="userSpaceOnUse" color-interpolation-filters="sRGB">
<feFlood flood-opacity="0" result="BackgroundImageFix"/>
<feColorMatrix in="SourceAlpha" type="matrix" values="0 0 0 0 0 0 0 0 0 0 0 0 0 0 0 0 0 0 127 0" result="hardAlpha"/>
<feOffset dx="4.59494" dy="28.4051"/>
<feGaussianBlur stdDeviation="52.2152"/>
<feComposite in2="hardAlpha" operator="out"/>
<feColorMatrix type="matrix" values="0 0 0 0 1 0 0 0 0 1 0 0 0 0 1 0 0 0 0.63 0"/>
<feBlend mode="normal" in2="BackgroundImageFix" result="effect1_dropShadow_1799_87"/>
<feBlend mode="normal" in="SourceGraphic" in2="effect1_dropShadow_1799_87" result="shape"/>
</filter>
<filter id="filter2_d_1799_87" x="76.5083" y="354.525" width="253.392" height="259.613" filterUnits="userSpaceOnUse" color-interpolation-filters="sRGB">
<feFlood flood-opacity="0" result="BackgroundImageFix"/>
<feColorMatrix in="SourceAlpha" type="matrix" values="0 0 0 0 0 0 0 0 0 0 0 0 0 0 0 0 0 0 127 0" result="hardAlpha"/>
<feOffset dx="4.59494" dy="28.4051"/>
<feGaussianBlur stdDeviation="52.2152"/>
<feComposite in2="hardAlpha" operator="out"/>
<feColorMatrix type="matrix" values="0 0 0 0 1 0 0 0 0 1 0 0 0 0 1 0 0 0 0.63 0"/>
<feBlend mode="normal" in2="BackgroundImageFix" result="effect1_dropShadow_1799_87"/>
<feBlend mode="normal" in="SourceGraphic" in2="effect1_dropShadow_1799_87" result="shape"/>
</filter>
<filter id="filter3_d_1799_87" x="89.5588" y="432.334" width="161.712" height="164.229" filterUnits="userSpaceOnUse" color-interpolation-filters="sRGB">
<feFlood flood-opacity="0" result="BackgroundImageFix"/>
<feColorMatrix in="SourceAlpha" type="matrix" values="0 0 0 0 0 0 0 0 0 0 0 0 0 0 0 0 0 0 127 0" result="hardAlpha"/>
<feOffset dx="2.87764" dy="17.789"/>
<feGaussianBlur stdDeviation="32.7004"/>
<feComposite in2="hardAlpha" operator="out"/>
<feColorMatrix type="matrix" values="0 0 0 0 1 0 0 0 0 1 0 0 0 0 1 0 0 0 0.63 0"/>
<feBlend mode="normal" in2="BackgroundImageFix" result="effect1_dropShadow_1799_87"/>
<feBlend mode="normal" in="SourceGraphic" in2="effect1_dropShadow_1799_87" result="shape"/>
</filter>
<radialGradient id="paint0_radial_1799_87" cx="0" cy="0" r="1" gradientUnits="userSpaceOnUse" gradientTransform="translate(197.932 181.528) rotate(137.987) scale(271.358 456.366)">
<stop offset="0.120225" stop-color="#D7B575"/>
<stop offset="0.370102" stop-color="#B32169"/>
<stop offset="0.660328" stop-color="#741F5E"/>
<stop offset="1" stop-color="#BC0079" stop-opacity="0"/>
</radialGradient>
<linearGradient id="paint1_linear_1799_87" x1="130.274" y1="247.291" x2="129.792" y2="279.747" gradientUnits="userSpaceOnUse">
<stop offset="0.075" stop-color="#2195BD"/>
<stop offset="0.58" stop-color="#9ADCF3"/>
<stop offset="0.945" stop-color="#216A83"/>
</linearGradient>
<linearGradient id="paint2_linear_1799_87" x1="200.677" y1="439.534" x2="201.429" y2="467.72" gradientUnits="userSpaceOnUse">
<stop offset="0.075" stop-color="#2195BD"/>
<stop offset="0.58" stop-color="#9ADCF3"/>
<stop offset="0.945" stop-color="#216A83"/>
</linearGradient>
<linearGradient id="paint3_linear_1799_87" x1="168.577" y1="487.172" x2="168.587" y2="503.557" gradientUnits="userSpaceOnUse">
<stop offset="0.075" stop-color="#2195BD"/>
<stop offset="0.58" stop-color="#9ADCF3"/>
<stop offset="0.945" stop-color="#216A83"/>
</linearGradient>
</defs>
</svg>
