<svg width="288" height="288" viewBox="0 0 288 288" fill="none" xmlns="http://www.w3.org/2000/svg">
<g clip-path="url(#clip0_1859_9)">
<path d="M105.235 73.3615C95.8928 79.5531 76.9167 96.8301 75.7508 116.405C74.8521 131.492 76.2949 139.833 77.7059 143.626C78.1229 144.444 78.5224 145.193 78.8939 145.862C78.5424 145.48 78.1255 144.755 77.7059 143.626C73.5913 135.56 67.7767 120.879 70.4171 112.389C74.052 100.701 75.7724 100.704 79.3426 92.9147C82.9128 85.1249 102.131 58.8469 105.007 52.5718C107.883 46.2967 111.5 18.3674 132.214 11.3654C152.928 4.36335 153.829 24.9376 155.873 34.2531C166.666 33.4838 176.626 42.1934 179.187 49.1276C181.748 56.0618 161.202 41.4086 156.524 49.7378C161.125 54.7266 193.381 66.3684 195.947 84.5635C197.999 99.1196 201.3 107.528 202.695 109.912C193.766 97.8778 172.968 73.0894 161.202 70.2104C146.495 66.6117 201.595 104.172 205.609 132.98C208.821 156.027 222.674 172.134 229.199 177.307C221.54 172.313 204.539 157.731 197.809 139.355C189.397 116.386 208.213 180.519 200.706 189.384C193.2 198.25 190.047 232.677 197.265 246.982C203.04 258.426 217.976 275.675 224.723 282.87C210.014 270.717 179.676 242.534 175.995 227.022C171.395 207.632 175.862 237.958 164.306 243.135C166.668 227.823 171.002 179.255 165.407 178.426C160.931 177.762 156.068 186.949 154.197 191.626C155.312 184.868 157.635 170.551 158.004 167.35C158.465 163.349 148.884 156.996 145.054 148.168C141.224 139.339 143.085 133.501 130.667 126.818C118.248 120.136 100.905 156.793 111.866 188.58C120.635 214.01 126.413 225.976 128.205 228.78C123.268 222.8 112.749 208.612 110.176 199.701C106.959 188.562 98.3617 163.526 103.416 144.794C108.471 126.062 114.891 136.193 111.81 126.479C108.73 116.764 99.1872 109.946 102.77 99.2177C106.354 88.4898 95.242 120.493 96.8261 122.856C98.4102 125.219 79.3205 102.636 105.235 73.3615Z" fill="#131A1C" fill-opacity="0.2"/>
</g>
<defs>
<clipPath id="clip0_1859_9">
<rect width="288" height="288" fill="white"/>
</clipPath>
</defs>
</svg>
