<svg width="167" height="261" viewBox="0 0 167 261" fill="none" xmlns="http://www.w3.org/2000/svg">
<path d="M73.2835 27.9894C84.28 25.8234 109.921 24.7662 124.513 37.8653C135.76 47.9615 140.6 54.9075 142.263 58.5967C142.542 59.4711 142.784 60.285 142.99 61.0214C142.972 60.5031 142.758 59.694 142.263 58.5967C139.518 49.9682 133.329 35.4401 125.483 31.2598C114.68 25.5048 113.459 26.7165 105.443 23.6877C97.4273 20.6589 65.2855 15.4857 58.8283 13.0458C52.3711 10.6059 30.1611 -6.71014 10.5087 2.87524C-9.14363 12.4606 4.68178 27.724 9.77837 35.785C1.56316 42.8264 0.60469 56.0227 3.65908 62.7542C6.71346 69.4858 11.02 44.6203 20.2031 47.2535C20.4394 54.0357 5.68818 84.994 16.6572 99.7359C25.4325 111.529 28.9969 119.829 29.6821 122.505C27.5692 107.67 24.9289 75.4204 31.2712 65.1004C39.199 52.2003 26.4276 117.65 43.8292 140.958C57.7505 159.604 59.225 180.797 58.222 189.063C60.1568 180.127 61.9927 157.804 53.8579 140.006C43.6894 117.759 75.4026 176.592 86.9742 177.618C98.5458 178.644 124.993 200.907 129.919 216.155C133.86 228.352 135.367 251.12 135.628 260.979C137.542 241.995 139.299 200.624 131.009 187.006C120.647 169.984 138.793 194.688 150.651 190.245C138.205 181.017 100.974 149.529 104.369 145.006C107.085 141.387 117.003 144.501 121.622 146.51C116.077 142.488 104.36 133.942 101.846 131.925C98.7047 129.404 101.051 118.15 97.567 109.179C94.0829 100.209 88.6548 97.3658 92.7863 83.8826C96.9177 70.3993 135.025 84.2704 149.581 114.581C161.226 138.829 165.531 151.4 166.228 154.655C165.534 146.931 163.037 129.446 158.602 121.3C153.057 111.118 141.568 87.2704 124.803 77.5045C108.038 67.7386 110.596 79.4566 105.956 70.3832C101.316 61.3097 103.307 49.751 93.216 44.6422C83.125 39.5334 113.528 54.4772 114.063 57.2712C114.598 60.0652 112.294 30.5849 73.2835 27.9894Z" fill="#131A1C" fill-opacity="0.2"/>
</svg>
