<svg width="270" height="270" viewBox="0 0 270 270" fill="none" xmlns="http://www.w3.org/2000/svg">
<g clip-path="url(#clip0_1862_37)">
<path d="M145.488 34.0199C134.559 31.5375 108.959 29.7408 93.9945 42.4134C82.4607 52.1808 77.4232 58.9842 75.6538 62.6239C75.3504 63.49 75.0841 64.2965 74.8573 65.0267C74.8903 64.5091 75.1275 63.7065 75.6538 62.6239C78.6471 54.0782 85.2522 39.7348 93.2163 35.7826C104.18 30.3418 105.366 31.5883 113.466 28.792C121.566 25.9958 153.844 21.7522 160.368 19.4997C166.893 17.2471 189.594 0.579163 208.961 10.7277C228.329 20.8761 214.069 35.7342 208.742 43.6447C216.75 50.9203 217.328 64.1388 214.08 70.7794C210.833 77.42 207.246 52.4405 197.99 54.8077C197.559 61.5803 211.41 92.9513 200.02 107.371C190.908 118.906 187.106 127.1 186.344 129.754C188.884 114.987 192.454 82.8265 186.412 72.3277C178.86 59.2042 189.737 124.995 171.67 147.791C157.217 166.028 155.131 187.17 155.895 195.461C154.219 186.473 153.028 164.107 161.673 146.551C172.479 124.606 139.082 182.499 127.485 183.191C115.889 183.883 88.8101 205.374 83.4464 220.472C79.1554 232.551 76.9917 255.266 76.4463 265.113C75.0805 246.083 74.5187 204.678 83.1977 191.305C94.0464 174.588 75.195 198.759 63.4711 193.975C76.178 185.11 114.302 154.71 111.038 150.09C108.428 146.395 98.4248 149.221 93.7496 151.096C99.408 147.236 111.367 139.031 113.938 137.088C117.151 134.659 115.13 123.342 118.872 114.475C122.613 105.609 128.121 102.924 124.381 89.327C120.64 75.7301 82.1483 88.4958 66.7235 118.373C54.3837 142.275 49.7178 154.717 48.9273 157.95C49.8437 150.25 52.8438 132.844 57.5128 124.83C63.349 114.812 75.5218 91.3058 92.5616 82.0278C109.601 72.7497 106.706 84.389 111.606 75.4532C116.506 66.5174 114.849 54.9061 125.083 50.0906C135.318 45.2751 104.496 59.3354 103.88 62.1127C103.265 64.8901 106.419 35.4886 145.488 34.0199Z" fill="#131A1C" fill-opacity="0.2"/>
</g>
<defs>
<clipPath id="clip0_1862_37">
<rect width="270" height="270" fill="white"/>
</clipPath>
</defs>
</svg>
