<svg width="191" height="247" viewBox="0 0 191 247" fill="none" xmlns="http://www.w3.org/2000/svg">
<path d="M166.238 71.045C173.844 79.2772 188.177 100.565 184.663 119.856C181.955 134.726 178.573 142.486 176.303 145.836C175.703 146.531 175.137 147.165 174.618 147.726C175.05 147.439 175.627 146.833 176.303 145.836C182.214 138.977 191.347 126.096 190.797 117.222C190.041 105.005 188.369 104.6 186.749 96.1853C185.13 87.7707 172.699 57.6821 171.395 50.9037C170.09 44.1253 173.205 16.1355 154.745 4.41691C136.285 -7.30164 130.526 12.4708 126.33 21.0349C116.028 17.7259 104.286 23.8225 100.152 29.9506C96.018 36.0787 119.455 26.721 122.022 35.9226C116.369 39.6768 82.2709 43.3295 75.46 60.3957C70.0112 74.0487 64.8085 81.4328 62.8882 83.4183C74.4178 73.8471 100.505 54.7037 112.618 54.6998C127.76 54.6948 65.3189 78.1027 54.5814 105.135C45.9914 126.762 28.711 139.12 21.1446 142.596C29.7702 139.563 49.7464 129.433 60.6454 113.179C74.2693 92.8631 40.768 150.697 45.956 161.091C51.144 171.485 46.0345 205.677 35.6274 217.86C27.3018 227.606 8.69776 240.817 0.436474 246.204C17.6096 237.89 53.7702 217.714 61.0273 203.519C70.0988 185.775 58.5615 214.174 68.558 221.946C69.8983 206.51 77.216 158.302 82.8479 158.824C87.3534 159.242 89.8963 169.321 90.6046 174.308C91.1254 167.479 92.2672 153.02 92.6683 149.823C93.1696 145.826 103.985 141.929 109.801 134.262C115.617 126.595 115.195 120.482 128.845 116.938C142.494 113.394 150.642 153.12 132.449 181.397C117.894 204.019 109.441 214.272 107.034 216.57C113.25 211.933 126.835 200.647 131.45 192.601C137.219 182.544 151.514 160.265 151.05 140.868C150.586 121.472 141.945 129.79 147.243 121.084C152.541 112.378 163.43 108.019 162.495 96.7473C161.561 85.4755 164.758 119.202 162.659 121.121C160.559 123.04 184.463 105.634 166.238 71.045Z" fill="#131A1C" fill-opacity="0.2"/>
</svg>
