<svg width="214" height="212" viewBox="0 0 214 212" fill="none" xmlns="http://www.w3.org/2000/svg">
<path d="M140.674 16.087C131.153 10.1739 107.54 0.121736 89.2599 7.21739C75.1702 12.6864 68.1883 17.4735 65.328 20.3365C64.7587 21.0562 64.2438 21.7317 63.7911 22.3478C63.9912 21.8694 64.4773 21.1881 65.328 20.3365C70.9462 13.2354 81.8702 1.8326 90.6881 0.695652C102.827 -0.869565 103.542 0.695652 112.11 0.695652C120.679 0.695652 152.575 7.21739 159.478 7.21739C166.38 7.21739 193.277 -1.13044 208.273 14.7826C223.269 30.6957 204.941 40.087 197.324 45.8261C202.52 55.3168 198.752 68 193.515 73.2174C188.279 78.4348 193.039 53.6522 183.518 52.8696C180.9 59.1304 183.756 93.3043 168.285 103.217C155.907 111.148 149.639 117.652 148.052 119.913C155.273 106.783 169.142 77.5478 166.857 65.6522C164 50.7826 152.813 116.522 128.296 132.174C108.683 144.696 99.8124 164 97.8289 172.087C99.1777 163.043 105.35 141.513 119.251 127.739C136.627 110.522 86.1656 154.348 74.9783 151.217C63.7911 148.087 31.1815 159.565 21.1844 172.087C13.1867 182.104 3.72908 202.87 0 212C4.91921 193.565 17.8996 154.243 30.4674 144.435C46.1771 132.174 20.4703 148.87 10.9492 140.522C25.8533 136.289 71.8103 119.994 70.2333 114.562C68.9718 110.216 58.5939 109.624 53.5627 109.871C60.1709 108.069 74.1532 104.215 77.217 103.217C81.0467 101.97 82.83 90.6126 89.2599 83.4525C95.6899 76.2924 101.772 75.5518 102.674 61.4785C103.575 47.4053 63.0244 46.9115 38.6942 70.12C19.2301 88.6868 10.7596 98.9249 8.9574 101.723C12.3366 94.7429 20.8521 79.2696 27.8808 73.2174C36.6667 65.6522 55.8437 47.4053 74.9783 44.1956C94.1129 40.9859 87.5779 51.0432 95.1257 44.1956C102.674 37.348 104.896 25.8316 116.142 24.6193C127.387 23.4071 93.6641 26.6398 92.1761 29.0643C90.6881 31.4888 103.264 4.72598 140.674 16.087Z" fill="#131A1C" fill-opacity="0.2"/>
</svg>
