<svg width="270" height="76" viewBox="0 0 270 76" fill="none" xmlns="http://www.w3.org/2000/svg">
<rect x="1" y="1" width="268" height="74" rx="35" fill="white" stroke="url(#paint0_linear_2126_1006)" stroke-width="2"/>
<path d="M95.0589 31.04V45H92.2589V31.04H95.0589ZM109.765 45H106.965L100.625 35.42V45H97.8253V31.02H100.625L106.965 40.62V31.02H109.765V45ZM117.412 31.04C118.879 31.04 120.166 31.3267 121.272 31.9C122.392 32.4733 123.252 33.2933 123.852 34.36C124.466 35.4133 124.772 36.64 124.772 38.04C124.772 39.44 124.466 40.6667 123.852 41.72C123.252 42.76 122.392 43.5667 121.272 44.14C120.166 44.7133 118.879 45 117.412 45H112.532V31.04H117.412ZM117.312 42.62C118.779 42.62 119.912 42.22 120.712 41.42C121.512 40.62 121.912 39.4933 121.912 38.04C121.912 36.5867 121.512 35.4533 120.712 34.64C119.912 33.8133 118.779 33.4 117.312 33.4H115.332V42.62H117.312ZM129.668 31.04V45H126.868V31.04H129.668ZM144.975 31.04L139.855 45H136.455L131.335 31.04H134.335L138.175 42.14L141.995 31.04H144.975ZM149.453 31.04V45H146.653V31.04H149.453ZM157.1 31.04C158.567 31.04 159.853 31.3267 160.96 31.9C162.08 32.4733 162.94 33.2933 163.54 34.36C164.153 35.4133 164.46 36.64 164.46 38.04C164.46 39.44 164.153 40.6667 163.54 41.72C162.94 42.76 162.08 43.5667 160.96 44.14C159.853 44.7133 158.567 45 157.1 45H152.22V31.04H157.1ZM157 42.62C158.467 42.62 159.6 42.22 160.4 41.42C161.2 40.62 161.6 39.4933 161.6 38.04C161.6 36.5867 161.2 35.4533 160.4 34.64C159.6 33.8133 158.467 33.4 157 33.4H155.02V42.62H157ZM169.316 31.04V39.68C169.316 40.6267 169.562 41.3533 170.056 41.86C170.549 42.3533 171.242 42.6 172.136 42.6C173.042 42.6 173.742 42.3533 174.236 41.86C174.729 41.3533 174.976 40.6267 174.976 39.68V31.04H177.796V39.66C177.796 40.8467 177.536 41.8533 177.016 42.68C176.509 43.4933 175.822 44.1067 174.956 44.52C174.102 44.9333 173.149 45.14 172.096 45.14C171.056 45.14 170.109 44.9333 169.256 44.52C168.416 44.1067 167.749 43.4933 167.256 42.68C166.762 41.8533 166.516 40.8467 166.516 39.66V31.04H169.316Z" fill="black"/>
<defs>
<linearGradient id="paint0_linear_2126_1006" x1="135" y1="0" x2="135" y2="76" gradientUnits="userSpaceOnUse">
<stop offset="0.095" stop-color="#D7B575"/>
<stop offset="0.32" stop-color="#BED775"/>
<stop offset="0.99" stop-color="#4E3D71"/>
</linearGradient>
</defs>
</svg>
