<svg width="573" height="115" viewBox="0 0 573 115" fill="none" xmlns="http://www.w3.org/2000/svg">
<path d="M0.655 67.544L1.423 66.008C3.215 62.296 25.231 55 26.639 59.352C28.559 65.24 33.423 83.8 43.279 78.168C60.559 68.312 45.583 14.296 47.119 12.632C47.887 11.736 51.087 11.224 52.239 10.968C56.335 10.072 72.591 6.99999 75.151 10.328C77.839 13.784 78.991 38.872 79.247 44.504C79.759 55.128 79.887 65.88 76.815 76.12C65.167 114.52 15.247 112.088 3.215 77.528C2.447 75.352 0.527 69.592 0.655 67.544ZM71.567 74.072C76.431 74.968 74.895 66.648 70.671 69.208C68.751 70.36 69.263 73.688 71.567 74.072ZM49.679 98.648C56.335 101.464 74.511 83.8 72.719 78.168C71.823 75.48 68.495 75.864 67.599 78.424C65.423 84.824 57.615 92.376 50.831 93.656C48.143 94.168 47.119 97.496 49.679 98.648ZM140.427 3.92799C140.043 8.408 133.771 4.56799 137.227 2.008C139.019 0.599998 140.683 1.62399 140.427 3.92799ZM167.179 18.264C167.947 20.312 165.643 21.208 164.363 19.544C162.443 16.984 160.779 15.064 157.835 13.656C156.299 12.888 143.499 7.768 143.115 7.256C142.219 5.976 143.115 4.696 144.523 4.312C151.307 2.52 164.875 12.12 167.179 18.264ZM135.179 103C129.547 103.384 118.923 103.384 113.931 100.952C97.035 92.76 92.939 68.824 90.379 52.312C89.227 45.144 88.331 37.976 89.611 30.808C91.915 17.496 101.131 10.968 114.059 9.56C122.635 8.536 131.467 9.17599 139.787 11.352C149.771 14.04 159.883 19.416 164.619 29.016C166.795 33.624 167.691 38.616 168.075 43.736C169.099 58.712 161.163 93.656 146.571 100.824C143.115 102.488 139.019 102.744 135.179 103ZM123.403 71.896C141.963 81.24 144.907 48.088 140.683 42.328C139.275 40.408 137.227 39 135.051 37.976C131.595 36.312 123.275 34.904 119.947 37.336C113.675 42.072 116.491 68.44 123.403 71.896ZM238.926 59.992C249.038 63.448 255.054 75.608 251.086 85.592C243.15 105.56 209.358 104.408 191.694 104.152C189.262 104.152 186.702 104.28 184.526 103.256C182.734 102.36 181.454 100.824 181.326 98.776C180.814 90.328 181.71 81.496 181.582 73.048C181.326 62.296 180.814 51.416 180.302 40.664C179.918 33.624 180.046 26.328 179.022 19.416C178.766 17.368 177.87 13.656 178.766 11.736C179.15 10.968 180.174 10.712 180.942 10.456C194.51 6.104 225.23 5.336 237.902 12.376C243.534 15.448 247.758 21.08 249.806 27.096C251.726 32.6 252.11 38.616 250.318 44.248C248.398 50.52 244.174 56.152 238.926 59.992ZM232.526 20.696C234.19 22.488 237.006 21.72 237.134 19.16C237.262 16.984 233.806 15.064 232.142 14.168C225.102 10.328 217.166 10.712 209.486 10.968C202.062 11.224 204.878 17.368 208.462 16.216C214.094 14.296 228.302 16.216 232.526 20.696ZM238.286 27.096C241.486 31.832 246.094 22.616 240.59 22.744C238.542 22.872 237.134 25.304 238.286 27.096ZM208.334 33.496C208.718 37.976 209.102 42.456 209.23 46.936C211.918 46.68 214.734 46.68 217.294 45.912C228.174 42.712 225.614 30.424 208.334 33.496ZM209.87 67.672C210.254 71.896 210.254 76.12 210.254 80.344C214.094 79.96 217.806 80.216 221.518 79.064C234.19 75.352 225.614 65.752 209.87 67.672ZM322.152 79.96C322.152 85.208 322.28 90.584 322.536 95.832C322.664 98.008 323.432 102.488 320.744 103.256C319.208 103.768 307.176 104.152 304.744 104.152C302.696 104.152 299.496 104.664 298.856 102.104C297.704 97.624 297.576 88.92 297.32 84.056C296.04 63.064 295.4 41.432 295.656 20.44C295.656 18.136 295.912 13.272 297.832 11.736C298.6 11.096 299.752 10.712 300.776 10.712C306.536 10.712 354.664 10.2 355.944 11.224C356.456 11.608 356.584 13.016 356.584 13.656L355.432 36.312C355.304 39.384 349.928 38.104 348.008 38.104C339.816 38.104 331.112 37.592 322.92 38.488L323.048 58.2C327.016 58.2 350.056 56.92 351.208 59.736C351.592 60.632 351.848 79.064 349.032 79.576C342.504 80.6 330.088 78.68 322.152 79.96ZM324.968 18.392C329.448 18.264 334.568 19.288 338.92 18.52C342.504 17.88 341.992 13.4 338.664 13.4C334.056 13.4 328.68 12.632 324.2 13.272C320.488 13.784 319.976 18.648 324.968 18.392ZM346.856 18.904C350.184 19.544 350.568 13.4 347.112 13.784C343.528 14.168 343.4 18.264 346.856 18.904ZM397.296 4.696C394.096 5.71999 394.48 0.855995 396.784 0.983994C398.96 1.11199 399.344 3.92799 397.296 4.696ZM369.008 29.656C370.672 22.232 373.36 11.352 379.504 6.488C381.424 4.952 389.104 1.24 391.28 2.64799C392.432 3.41599 392.176 5.592 390.768 5.84799C387.696 6.23199 385.392 6.23199 382.96 8.28C380.528 10.328 376.048 20.056 374.768 23.384C374.128 24.92 372.592 30.168 371.184 30.68C370.288 31.064 369.264 30.552 369.008 29.656ZM389.36 87.256C388.976 89.56 387.568 102.36 386.672 103.256C384.624 105.176 364.144 103.896 362.224 101.336C357.36 94.936 377.584 15.192 388.848 9.94399C392.688 8.15199 397.68 7.896 401.904 8.02399C406 8.15199 420.72 8.92 423.408 11.352C430.576 17.752 448.24 90.584 443.376 99.8C440.176 105.944 418.8 106.84 417.648 100.184C417.008 95.96 416.88 91.352 416.368 87C407.408 86.488 398.32 86.616 389.36 87.256ZM391.664 69.08C399.472 68.568 407.664 68.312 415.472 69.08C415.728 64.6 411.248 37.08 409.456 34.392C407.408 31.32 402.544 33.88 399.728 33.752C395.504 45.144 394.224 57.304 391.664 69.08ZM485.004 9.56C485.516 10.456 484.876 11.608 483.852 11.736C482.956 11.864 482.188 11.224 481.292 11.096C476.428 10.328 471.18 11.992 466.572 11.352C465.676 11.224 464.268 10.712 464.268 9.688C464.268 5.07999 483.084 5.84799 485.004 9.56ZM461.196 12.12C458.38 15.704 454.668 7.128 459.66 7.63999C461.708 7.896 462.348 10.584 461.196 12.12ZM467.084 104.152C465.036 104.152 459.276 104.408 457.74 103C456.844 102.104 456.716 100.696 456.588 99.544C456.076 94.296 453.26 22.232 453.388 21.592C454.284 18.008 472.972 17.496 476.556 17.496C477.964 17.496 481.804 17.368 482.956 18.008C485.132 19.16 484.748 24.024 484.748 26.072L484.876 101.208C484.876 102.488 484.364 103.128 483.212 103.512C481.548 104.024 469.772 104.152 467.084 104.152ZM552.672 11.48C551.904 11.736 549.856 10.968 549.088 10.84C539.744 8.66399 528.864 11.224 519.264 10.2C517.728 10.072 517.728 7.896 518.752 7.128C519.52 6.488 522.08 6.23199 523.104 6.23199C528.608 5.976 533.984 5.464 539.488 5.976C541.408 6.104 551.648 7.768 552.928 8.79199C553.824 9.56 553.952 11.096 552.672 11.48ZM563.296 17.752C563.936 20.568 560.992 20.184 559.584 18.776C556.768 16.088 562.4 13.144 563.296 17.752ZM527.328 79.96C527.584 85.848 527.584 91.864 527.84 97.752C527.968 99.928 528.608 103.896 525.792 104.536C523.872 104.92 503.136 105.304 501.344 104.664C500.704 104.408 500.192 103.896 500.064 103.256C499.04 98.264 500.32 90.84 500.448 85.72C500.576 76.248 500.832 30.552 497.248 23.128C495.968 20.568 500.832 20.056 502.496 19.672C512.736 17.112 523.232 15.064 533.856 15.576C546.528 16.088 561.248 20.952 565.472 34.52C570.208 49.88 557.536 63.96 543.968 68.952C551.392 75.608 560.096 81.112 568.544 86.36C572.768 88.92 556.896 104.024 552.16 103.896C546.528 103.768 530.912 84.952 527.328 79.96ZM524.128 34.136C525.408 40.408 525.28 46.808 525.92 53.08C551.392 49.496 548.704 29.272 524.128 34.136Z" fill="url(#paint0_radial_1236_939)"/>
<defs>
<radialGradient id="paint0_radial_1236_939" cx="0" cy="0" r="1" gradientUnits="userSpaceOnUse" gradientTransform="translate(1158.34 60) rotate(-178.135) scale(1874.31 197.973)">
<stop offset="0.120225" stop-color="#D7B575"/>
<stop offset="0.370102" stop-color="#B32169"/>
<stop offset="0.660328" stop-color="#741F5E"/>
<stop offset="1" stop-color="#BC0079" stop-opacity="0"/>
</radialGradient>
</defs>
</svg>
