<svg width="427" height="87" viewBox="0 0 427 87" fill="none" xmlns="http://www.w3.org/2000/svg">
<path d="M0.585 51.408L1.161 50.256C2.505 47.472 19.017 42 20.073 45.264C21.513 49.68 25.161 63.6 32.553 59.376C45.513 51.984 34.281 11.472 35.433 10.224C36.009 9.55199 38.409 9.168 39.273 8.976C42.345 8.304 54.537 5.99999 56.457 8.496C58.473 11.088 59.337 29.904 59.529 34.128C59.913 42.096 60.009 50.16 57.705 57.84C48.969 86.64 11.529 84.816 2.505 58.896C1.929 57.264 0.489 52.944 0.585 51.408ZM53.769 56.304C57.417 56.976 56.265 50.736 53.097 52.656C51.657 53.52 52.041 56.016 53.769 56.304ZM37.353 74.736C42.345 76.848 55.977 63.6 54.633 59.376C53.961 57.36 51.465 57.648 50.793 59.568C49.161 64.368 43.305 70.032 38.217 70.992C36.201 71.376 35.433 73.872 37.353 74.736ZM104.838 4.56C103.686 6.47999 100.422 4.08 102.822 2.16C104.55 0.815998 105.702 3.024 104.838 4.56ZM125.382 15.216C125.094 16.368 123.654 16.272 123.078 15.504C119.238 10.896 113.67 8.592 108.006 6.768C106.662 6.384 106.47 4.65599 107.814 4.08C113.286 1.872 126.054 12.336 125.382 15.216ZM105.126 77.52C98.694 78.576 88.614 78.864 82.95 75.12C73.446 68.88 69.894 54.096 68.166 43.632C67.11 37.104 65.766 30.288 67.014 23.664C68.934 13.776 75.75 8.976 85.35 7.92C92.838 7.056 101.574 7.824 108.678 10.512C128.646 18 128.454 36.816 122.982 54.384C121.158 60.24 119.046 66.192 115.494 71.28C112.614 75.312 109.926 76.752 105.126 77.52ZM96.966 55.632C98.79 55.632 100.614 55.44 101.958 54.192C105.126 51.216 106.854 40.944 106.566 36.624C106.182 30.864 100.71 28.08 95.43 27.792C92.454 27.6 89.382 27.984 88.038 31.056C86.118 35.472 87.654 51.312 91.686 54.192C93.222 55.248 95.142 55.632 96.966 55.632ZM178.436 45.744C186.02 48.336 190.532 57.456 187.556 64.944C181.604 79.92 156.26 79.056 143.012 78.864C141.188 78.864 139.268 78.96 137.636 78.192C136.292 77.52 135.332 76.368 135.236 74.832C134.852 68.496 135.523 61.872 135.428 55.536C135.236 47.472 134.852 39.312 134.468 31.248C134.18 25.968 134.276 20.496 133.508 15.312C133.316 13.776 132.644 10.992 133.316 9.55199C133.604 8.976 134.372 8.784 134.948 8.592C145.124 5.328 168.164 4.752 177.667 10.032C181.892 12.336 185.06 16.56 186.596 21.072C188.036 25.2 188.324 29.712 186.98 33.936C185.54 38.64 182.372 42.864 178.436 45.744ZM173.636 16.272C174.884 17.616 176.996 17.04 177.092 15.12C177.188 13.488 174.596 12.048 173.348 11.376C168.068 8.496 162.116 8.784 156.356 8.976C150.788 9.168 152.9 13.776 155.588 12.912C159.812 11.472 170.468 12.912 173.636 16.272ZM177.956 21.072C180.356 24.624 183.812 17.712 179.684 17.808C178.148 17.904 177.092 19.728 177.956 21.072ZM155.492 25.872C155.78 29.232 156.068 32.592 156.164 35.952C158.18 35.76 160.292 35.76 162.212 35.184C170.372 32.784 168.452 23.568 155.492 25.872ZM156.644 51.504C156.932 54.672 156.932 57.84 156.932 61.008C159.812 60.72 162.596 60.912 165.38 60.048C174.884 57.264 168.452 50.064 156.644 51.504ZM240.489 60.72C240.489 64.656 240.585 68.688 240.777 72.624C240.873 74.256 241.449 77.616 239.433 78.192C238.281 78.576 229.257 78.864 227.433 78.864C225.897 78.864 223.497 79.248 223.017 77.328C222.153 73.968 222.057 67.44 221.865 63.792C220.905 48.048 220.425 31.824 220.617 16.08C220.617 14.352 220.809 10.704 222.249 9.55199C222.825 9.07199 223.689 8.784 224.457 8.784C228.777 8.784 264.873 8.4 265.833 9.168C266.217 9.456 266.313 10.512 266.313 10.992L265.449 27.984C265.353 30.288 261.321 29.328 259.881 29.328C253.737 29.328 247.209 28.944 241.065 29.616L241.161 44.4C244.137 44.4 261.417 43.44 262.281 45.552C262.569 46.224 262.761 60.048 260.649 60.432C255.753 61.2 246.441 59.76 240.489 60.72ZM242.601 14.544C245.961 14.448 249.801 15.216 253.065 14.64C255.753 14.16 255.369 10.8 252.873 10.8C249.417 10.8 245.385 10.224 242.025 10.704C239.241 11.088 238.857 14.736 242.601 14.544ZM259.017 14.928C261.513 15.408 261.801 10.8 259.209 11.088C256.521 11.376 256.425 14.448 259.017 14.928ZM296.751 1.68C297.999 2.352 297.519 4.17599 296.175 4.368C293.775 4.65599 294.639 0.527996 296.751 1.68ZM277.071 23.664C273.231 26.352 277.551 14.64 277.839 13.968C278.991 10.896 280.527 7.92 283.023 5.808C284.559 4.56 289.551 2.16 291.471 2.544C292.911 2.832 293.007 4.65599 291.567 5.13599C289.263 5.808 287.439 5.232 285.423 7.248C282.447 10.224 278.319 22.8 277.071 23.664ZM290.511 66.192C289.935 69.744 289.935 73.872 289.071 77.328C288.399 80.016 271.119 79.056 269.775 76.176C267.087 70.512 281.583 14.448 289.071 8.88C290.319 7.92 291.951 7.536 293.487 7.248C297.711 6.47999 314.415 6.576 316.815 10.032C319.023 13.2 320.367 17.04 321.519 20.688C323.727 27.984 334.095 69.072 331.215 75.312C329.007 80.112 312.879 80.976 311.727 75.888C311.055 72.912 311.151 69.072 310.863 66C304.047 65.616 297.327 65.712 290.511 66.192ZM292.335 52.56C298.095 52.368 304.431 51.984 310.191 52.56C310.287 49.488 306.735 27.312 305.103 25.968C303.471 24.528 300.303 26.16 298.287 26.064C295.215 34.512 294.159 43.824 292.335 52.56ZM361.773 7.92C362.157 8.592 361.677 9.456 360.909 9.55199C360.237 9.648 359.661 9.168 358.989 9.07199C355.341 8.496 351.405 9.744 347.949 9.264C347.277 9.168 346.221 8.784 346.221 8.016C346.221 4.56 360.333 5.13599 361.773 7.92ZM343.917 9.84C341.805 12.528 339.021 6.096 342.765 6.47999C344.301 6.672 344.781 8.68799 343.917 9.84ZM348.333 78.864C346.797 78.864 342.477 79.056 341.325 78C340.653 77.328 340.557 76.272 340.461 75.408C340.077 71.472 337.965 17.424 338.061 16.944C338.733 14.256 352.749 13.872 355.437 13.872C356.493 13.872 359.373 13.776 360.237 14.256C361.869 15.12 361.581 18.768 361.581 20.304L361.677 76.656C361.677 77.616 361.293 78.096 360.429 78.384C359.181 78.768 350.349 78.864 348.333 78.864ZM419.651 14.064C420.131 16.176 417.923 15.888 416.867 14.832C414.755 12.816 418.979 10.608 419.651 14.064ZM392.675 60.72C392.867 65.136 392.867 69.648 393.059 74.064C393.155 75.696 393.635 78.672 391.523 79.152C390.083 79.44 374.531 79.728 373.187 79.248C372.707 79.056 372.323 78.672 372.227 78.192C371.459 74.448 372.419 68.88 372.515 65.04C372.611 57.936 372.803 23.664 370.115 18.096C369.155 16.176 372.803 15.792 374.051 15.504C381.731 13.584 389.603 12.048 397.571 12.432C407.075 12.816 418.115 16.464 421.283 26.64C424.835 38.16 415.331 48.72 405.155 52.464C410.723 57.456 417.25 61.584 423.587 65.52C426.755 67.44 414.851 78.768 411.299 78.672C407.075 78.576 395.363 64.464 392.675 60.72ZM390.275 26.352C391.234 31.056 391.139 35.856 391.619 40.56C410.723 37.872 408.707 22.704 390.275 26.352ZM412.067 9.36C411.491 9.55199 409.955 8.976 409.379 8.88C402.371 7.248 394.211 9.168 387.011 8.4C385.859 8.304 385.859 6.672 386.627 6.096C387.203 5.616 389.123 5.424 389.891 5.424C394.019 5.232 398.051 4.848 402.179 5.232C403.619 5.328 411.299 6.576 412.259 7.34399C412.931 7.92 413.027 9.07199 412.067 9.36Z" fill="url(#paint0_linear_1254_4987)"/>
<defs>
<linearGradient id="paint0_linear_1254_4987" x1="213" y1="0" x2="213" y2="122" gradientUnits="userSpaceOnUse">
<stop stop-color="#FFEAC3"/>
<stop offset="0.79" stop-color="#E6A7A5"/>
<stop offset="1" stop-color="#B32169"/>
</linearGradient>
</defs>
</svg>
