<svg width="292" height="698" viewBox="0 0 292 698" fill="none" xmlns="http://www.w3.org/2000/svg">
<g clip-path="url(#clip0_1762_19)">
<path d="M132.903 388.768C125.062 354.546 56.9913 256.52 23.9358 211.785C114.925 161.52 300.926 58.2314 317.02 47.1938C337.137 33.3968 334.472 251.396 317.836 251.803C301.201 252.21 323.867 220.549 290.831 257.617C257.796 294.686 292.953 292.888 268.701 331.99C244.449 371.092 262.67 363.244 232.129 337.027C201.587 310.81 187.413 402.598 168.708 398.267C150.002 393.936 142.703 431.545 132.903 388.768Z" fill="url(#paint0_linear_1762_19)"/>
<path d="M27.9484 174.369C42.7867 163.628 110.02 152.655 117.556 138.559C135.607 63.0337 177.826 142.552 195.182 94.0187C204.258 68.6377 252.16 31.9379 308.477 22.8504C379.174 11.4424 308.57 100.407 292.543 106.086C195.182 140.586 279.895 135.419 268.197 150.903C256.499 166.386 174.768 207.122 171.093 190.032C161.518 145.496 57.9356 302.481 103.612 192.443C44.0517 216.648 -8.367 200.875 27.9484 174.369Z" fill="url(#paint1_linear_1762_19)" stroke="url(#paint2_linear_1762_19)" stroke-width="14" stroke-linejoin="round"/>
<path d="M325.748 429.028C332.347 408.085 386.351 346.736 412.528 318.679C343.337 290.971 201.904 234.004 189.701 227.804C174.448 220.053 172.898 351.899 185.693 351.65C198.489 351.4 181.569 332.915 206.379 354.364C231.19 375.812 204.164 375.772 222.182 398.712C240.199 421.653 226.306 417.447 250.243 400.671C274.18 383.896 283.571 439.021 298.037 435.843C312.504 432.665 317.5 455.207 325.748 429.028Z" fill="url(#paint3_linear_1762_19)"/>
<path d="M392.96 287.571C384.928 275.277 347.7 275.264 339.179 267.311C295.579 232.842 204.713 200.823 265.311 245.751C280.709 257.167 246.382 248.112 232.052 242.411C160.539 213.962 188.557 252.715 231.752 268.937C274.948 285.16 264.779 272.847 277.545 282.028C290.311 291.21 337.676 281.764 331.495 302.851C328.671 312.484 335.341 302.793 374.405 312.748C435.487 328.314 403.145 303.162 392.96 287.571Z" fill="url(#paint4_linear_1762_19)" stroke="url(#paint5_linear_1762_19)" stroke-width="14" stroke-linejoin="round"/>
<path d="M208.239 516.74C218.954 497.914 287.424 453.222 320.319 433.229C251.165 384.831 109.866 285.574 97.8991 275.733C82.9407 263.431 58.2516 394.001 71.9789 397.611C85.7061 401.222 70.8405 377.748 93.6266 406.545C116.413 435.343 87.5181 427.154 102.779 455.386C118.039 483.619 103.917 475.249 132.446 465.793C160.974 456.337 161.388 513.955 177.414 515.158C193.44 516.361 194.845 540.271 208.239 516.74Z" fill="url(#paint6_linear_1762_19)"/>
<path d="M321.613 410.1C310.65 400.69 256.322 380.536 251.82 370.603C246.189 321.901 201.413 360.786 193.027 328.324C188.642 311.348 153.498 279.762 107.979 262.942C50.8362 241.828 98.3331 309.184 110.906 315.815C187.282 356.1 117.761 335.872 125.539 347.475C133.317 359.078 195.979 399.919 201.131 390.469C214.556 365.843 280.972 480.446 256.721 405.566C303.061 432.059 348.419 433.261 321.613 410.1Z" fill="url(#paint7_linear_1762_19)" stroke="url(#paint8_linear_1762_19)" stroke-width="14" stroke-linejoin="round"/>
<path d="M279.497 617.89C278.246 596.334 298.899 524.719 309.382 491.606C253.077 482.12 137.894 462.418 127.595 459.494C114.722 455.839 150.646 581.775 159.55 578.413C168.454 575.05 151.399 561.579 174.82 575.945C198.242 590.31 179.276 596.872 198.352 614.318C217.428 631.764 206.504 631.151 218.582 609.329C230.661 587.507 252.722 637.708 261.975 631.148C271.229 624.588 281.061 644.835 279.497 617.89Z" fill="url(#paint9_linear_1762_19)"/>
<path d="M286.925 466.761C277.841 457.015 251.728 466.096 243.519 460.604C203.266 438.428 130.55 430.133 185.661 458.115C199.665 465.226 173.049 464.987 161.398 463.059C103.258 453.435 133.786 483.496 168.634 488.393C203.482 493.291 192.894 484.049 204.425 489.674C215.955 495.299 246.523 474.734 248.107 496.325C248.831 506.189 250.788 495.331 280.98 495.269C328.189 495.172 298.445 479.12 286.925 466.761Z" fill="url(#paint10_linear_1762_19)" stroke="url(#paint11_linear_1762_19)" stroke-width="14" stroke-linejoin="round"/>
</g>
<defs>
<linearGradient id="paint0_linear_1762_19" x1="77.3688" y1="296.247" x2="364.587" y2="215.421" gradientUnits="userSpaceOnUse">
<stop stop-color="#A343A5"/>
<stop offset="0.236327" stop-color="#3E1A3F"/>
<stop offset="0.352068" stop-color="#A343A5"/>
<stop offset="0.72779" stop-color="#3E1A3F"/>
</linearGradient>
<linearGradient id="paint1_linear_1762_19" x1="-48.484" y1="204.582" x2="284.874" y2="130.534" gradientUnits="userSpaceOnUse">
<stop offset="0.0641881" stop-color="#752175"/>
<stop offset="0.227045" stop-color="#501B50"/>
<stop offset="0.36" stop-color="#752175"/>
<stop offset="0.615" stop-color="#501B50"/>
<stop offset="0.695" stop-color="#631E62"/>
<stop offset="0.86" stop-color="#752175"/>
<stop offset="1" stop-color="#501B50"/>
</linearGradient>
<linearGradient id="paint2_linear_1762_19" x1="65.5823" y1="217.793" x2="307.064" y2="165.607" gradientUnits="userSpaceOnUse">
<stop stop-color="#D7B575"/>
<stop offset="0.191392" stop-color="#715F3D"/>
<stop offset="0.60287" stop-color="#D7B575"/>
<stop offset="0.767216" stop-color="#D7B575"/>
<stop offset="1" stop-color="#715F3D"/>
</linearGradient>
<linearGradient id="paint3_linear_1762_19" x1="370.013" y1="371.384" x2="164.626" y2="293.36" gradientUnits="userSpaceOnUse">
<stop stop-color="#A343A5"/>
<stop offset="0.236327" stop-color="#3E1A3F"/>
<stop offset="0.352068" stop-color="#A343A5"/>
<stop offset="0.72779" stop-color="#3E1A3F"/>
</linearGradient>
<linearGradient id="paint4_linear_1762_19" x1="402.544" y1="288.064" x2="186.013" y2="214.63" gradientUnits="userSpaceOnUse">
<stop offset="0.0202433" stop-color="#501B50"/>
<stop offset="0.205802" stop-color="#752175"/>
<stop offset="0.405" stop-color="#752175"/>
<stop offset="0.624449" stop-color="#501B50"/>
<stop offset="0.742572" stop-color="#752175"/>
<stop offset="0.966718" stop-color="#752175"/>
</linearGradient>
<linearGradient id="paint5_linear_1762_19" x1="399.91" y1="320.635" x2="160.629" y2="247.29" gradientUnits="userSpaceOnUse">
<stop stop-color="#D7B575"/>
<stop offset="0.191392" stop-color="#715F3D"/>
<stop offset="0.60287" stop-color="#D7B575"/>
<stop offset="0.767216" stop-color="#D7B575"/>
<stop offset="1" stop-color="#715F3D"/>
</linearGradient>
<linearGradient id="paint6_linear_1762_19" x1="265.646" y1="472.794" x2="58.0857" y2="335.667" gradientUnits="userSpaceOnUse">
<stop stop-color="#A343A5"/>
<stop offset="0.236327" stop-color="#3E1A3F"/>
<stop offset="0.352068" stop-color="#A343A5"/>
<stop offset="0.72779" stop-color="#3E1A3F"/>
</linearGradient>
<linearGradient id="paint7_linear_1762_19" x1="381.186" y1="443.592" x2="130.024" y2="303.628" gradientUnits="userSpaceOnUse">
<stop offset="0.0641881" stop-color="#752175"/>
<stop offset="0.227045" stop-color="#501B50"/>
<stop offset="0.36" stop-color="#752175"/>
<stop offset="0.615" stop-color="#501B50"/>
<stop offset="0.695" stop-color="#631E62"/>
<stop offset="0.86" stop-color="#752175"/>
<stop offset="1" stop-color="#501B50"/>
</linearGradient>
<linearGradient id="paint8_linear_1762_19" x1="285.088" y1="428.384" x2="102.429" y2="328.466" gradientUnits="userSpaceOnUse">
<stop stop-color="#D7B575"/>
<stop offset="0.191392" stop-color="#715F3D"/>
<stop offset="0.60287" stop-color="#D7B575"/>
<stop offset="0.767216" stop-color="#D7B575"/>
<stop offset="1" stop-color="#715F3D"/>
</linearGradient>
<linearGradient id="paint9_linear_1762_19" x1="294.36" y1="552.182" x2="128.773" y2="554.446" gradientUnits="userSpaceOnUse">
<stop stop-color="#A343A5"/>
<stop offset="0.236327" stop-color="#3E1A3F"/>
<stop offset="0.352068" stop-color="#A343A5"/>
<stop offset="0.72779" stop-color="#3E1A3F"/>
</linearGradient>
<linearGradient id="paint10_linear_1762_19" x1="293.785" y1="464.888" x2="122.311" y2="471.99" gradientUnits="userSpaceOnUse">
<stop offset="0.0202433" stop-color="#501B50"/>
<stop offset="0.205802" stop-color="#752175"/>
<stop offset="0.405" stop-color="#752175"/>
<stop offset="0.624449" stop-color="#501B50"/>
<stop offset="0.742572" stop-color="#752175"/>
<stop offset="0.966718" stop-color="#752175"/>
</linearGradient>
<linearGradient id="paint11_linear_1762_19" x1="301.081" y1="496.55" x2="114.171" y2="508.512" gradientUnits="userSpaceOnUse">
<stop stop-color="#D7B575"/>
<stop offset="0.191392" stop-color="#715F3D"/>
<stop offset="0.60287" stop-color="#D7B575"/>
<stop offset="0.767216" stop-color="#D7B575"/>
<stop offset="1" stop-color="#715F3D"/>
</linearGradient>
<clipPath id="clip0_1762_19">
<rect width="292" height="698" fill="white"/>
</clipPath>
</defs>
</svg>
