<svg width="400" height="400" viewBox="0 0 400 400" fill="none" xmlns="http://www.w3.org/2000/svg">
<g clip-path="url(#clip0_1767_22)">
<path d="M262.983 341.899C270.922 338.223 341.933 328.206 373.901 311.116C404.88 294.554 344.056 282.926 310.139 298.253C329.71 283.461 346.964 266.127 345.143 252.976C342.107 231.058 294.267 277.868 270.727 304.014C292.315 261.242 325.918 183.676 287.621 215.587C251.395 245.772 244.847 286.118 246.126 305.328C243.668 280.47 236.987 237.053 227.498 240.57C215.13 245.154 216.054 307.609 226.663 313.557C235.149 318.316 254.412 334.435 262.983 341.899Z" fill="#912A93"/>
<path d="M211.854 276.87C208.839 265.574 178.549 227.665 165.191 236.483C151.834 245.302 143.299 239.973 147.582 230.325C151.864 220.678 142.799 212.402 134.788 214.6C126.778 216.798 112.912 205.488 121.46 199.937C130.008 194.385 100.68 166.939 121.507 160.995C142.334 155.051 154.799 221.128 183.367 215.236C199.661 211.875 205.859 228.194 207.494 234.442C207.083 231.854 206.454 226.928 205.785 218.702C202.102 173.458 190.867 194.058 183.399 188.894C175.932 183.73 181.278 177.11 189.822 174.995C198.366 172.88 187.163 166.565 183.439 155.679C179.715 144.794 185.07 131.877 168.524 128.745C151.979 125.614 145.046 119.387 143.452 113.413C141.858 107.439 132.255 101.945 131.197 93.763C130.139 85.5807 162.166 88.8159 176.02 110.431C189.874 132.047 190.977 103.007 183.515 92.6893C176.054 82.3713 176.057 80.0793 179.81 66.9133C183.562 53.7472 183.581 38.2843 179.85 33.1253C176.12 27.9663 173.462 18.3907 183.607 17.0957C193.751 15.8006 204.93 42.1557 199.575 55.6487C194.221 69.1418 199.67 95.1875 202.802 95.6717C205.933 96.1559 206.328 76.2575 212.101 71.9068C217.874 67.5562 226.567 53.848 230.608 60.4476C234.649 67.0472 238.109 76.2705 227.686 85.2089C217.264 94.1473 205.076 128.355 217.762 160.987C230.448 193.619 223.564 146.01 240.914 148.073C258.264 150.135 265.196 158.131 247.834 165.637C230.472 173.144 243.156 207.929 247.788 203.748C252.42 199.567 251.185 229.257 247.745 238.987C244.305 248.717 247.713 265.98 247.706 271.662C247.699 277.345 233.972 307.219 211.854 276.87Z" fill="url(#paint0_linear_1767_22)"/>
<path d="M279.439 313.917C282.566 303.599 313.201 275.392 326.444 288.445C339.687 301.499 348.263 298.895 344.088 287.901C339.913 276.907 349.05 271.53 357.024 276.273C364.998 281.016 378.959 274.137 370.483 265.875C362.006 257.612 391.571 239.544 370.84 226.983C350.11 214.422 336.978 276.422 308.519 261.449C292.287 252.91 285.93 267.23 284.233 272.947C284.669 270.494 285.349 265.776 286.103 257.777C290.249 213.779 301.252 237.92 308.761 235.141C316.27 232.361 311.001 224.051 302.493 219.221C293.985 214.391 305.235 211.652 309.066 201.969C312.897 192.286 307.686 177.687 324.237 179.825C340.787 181.964 347.773 177.953 349.427 172.496C351.08 167.039 360.724 164.611 361.865 156.778C363.006 148.946 330.999 141.985 316.943 159.156C302.888 176.328 302.089 146.985 309.645 139.059C317.201 131.132 317.222 128.843 313.613 114.505C310.003 100.166 310.145 84.7229 313.923 80.7595C317.701 76.7962 320.454 68.0821 310.34 63.5612C300.225 59.0402 288.791 81.7945 293.997 96.9691C299.202 112.144 293.491 136.412 290.36 135.899C287.229 135.386 287.041 115.395 281.322 109.214C275.604 103.034 267.068 86.5824 262.965 91.8852C258.862 97.1881 255.313 105.295 265.625 117.535C275.937 129.775 287.75 167.804 274.745 196.346C261.741 224.888 269.108 179.548 251.765 176.086C234.423 172.624 227.42 178.401 244.674 191.42C261.929 204.438 248.906 235.13 244.324 229.482C239.743 223.834 240.667 253.867 244 264.676C247.334 275.485 243.752 291.634 243.7 297.31C243.648 302.985 257.042 337.178 279.439 313.917Z" fill="url(#paint1_linear_1767_22)"/>
<path d="M193.737 334.816C184.75 325.026 137.022 305.519 130.358 323.56C123.694 341.601 113.26 341.69 111.555 328.789C109.851 315.889 97.2955 313.254 91.5584 320.849C85.8213 328.444 67.377 325.82 71.6937 314.37C76.0104 302.92 35.0134 293.693 49.8012 273.708C64.589 253.722 112.66 314.416 134.217 289.361C146.513 275.071 161.101 287.996 166.043 293.434C164.228 291.004 160.906 286.281 155.69 278.142C127 233.371 128.819 262.301 119.408 261.855C109.997 261.409 110.924 250.963 117.172 243.102C123.421 235.241 110.109 236.066 100.735 227.173C91.3615 218.279 88.7481 201.258 72.5773 208.941C56.4066 216.624 46.8629 214.715 42.1097 209.537C37.3565 204.359 25.9009 204.982 20.3712 197.145C14.8415 189.308 44.5513 171.487 68.7894 184.872C93.0274 198.256 77.6315 167.227 65.3229 161.399C53.0143 155.572 51.7258 153.178 47.5779 136.957C43.4301 120.736 34.737 104.59 28.5827 101.676C22.4284 98.7623 14.7209 90.5302 22.825 82.4649C30.9291 74.3996 55.5075 94.4998 58.4446 112.122C61.3817 129.745 80.7973 153.314 83.7964 151.747C86.7955 150.18 75.9325 129.156 78.509 120.796C81.0855 112.435 80.9339 92.3792 88.1698 96.5907C95.4057 100.802 103.613 108.136 99.572 124.36C95.5311 140.584 104.185 184.343 133.611 209.995C163.038 235.647 130.228 190.528 146.498 181.197C162.767 171.866 173.306 175.622 162.416 194.944C151.526 214.267 182.163 242.167 183.842 234.739C185.521 227.311 201.168 259.106 203.653 271.535C206.138 283.965 218.828 299.721 222.022 305.655C225.217 311.588 230.091 351.844 193.737 334.816Z" fill="url(#paint2_linear_1767_22)"/>
<path d="M251.73 368.565C259.196 365.107 329.579 362.958 359.285 346.158C388.073 329.877 324.608 306.286 292.649 320.58C310.155 304.846 324.913 285.572 320.998 268.753C314.474 240.722 273.36 292.589 253.618 322.026C268.766 271.376 290.616 178.707 256.828 213.228C224.867 245.882 224.578 295.694 228.896 320.058C222.494 288.411 208.894 232.787 199.832 235.816C188.02 239.764 198.781 318.499 210.467 327.548C219.815 334.787 241.871 357.909 251.73 368.565Z" fill="url(#paint3_linear_1767_22)"/>
<path d="M234.536 358.96C233.338 352.013 242.018 297.015 235.255 268.328C228.701 240.528 204.125 281.327 208.921 310.887C201.109 291.973 190.58 273.958 178.984 271.182C159.659 266.556 187.792 316.116 204.275 341.475C173.217 312.351 115.553 263.588 133.357 301.526C150.198 337.412 182.836 354.792 199.439 359.855C177.759 353.89 139.317 345.215 140.005 353.244C140.902 363.709 194.1 382.534 201.711 376.642C207.801 371.928 226.132 362.89 234.536 358.96Z" fill="url(#paint4_linear_1767_22)"/>
</g>
<defs>
<linearGradient id="paint0_linear_1767_22" x1="186.061" y1="17.2458" x2="145.846" y2="277.303" gradientUnits="userSpaceOnUse">
<stop stop-color="#7E25EE" stop-opacity="0.86"/>
<stop offset="1" stop-color="#182256"/>
</linearGradient>
<linearGradient id="paint1_linear_1767_22" x1="243.458" y1="52.3746" x2="235.194" y2="335.441" gradientUnits="userSpaceOnUse">
<stop stop-color="#7E25EE" stop-opacity="0.86"/>
<stop offset="0.745" stop-color="#7725E4" stop-opacity="0.8698"/>
<stop offset="1" stop-color="#182256"/>
</linearGradient>
<linearGradient id="paint2_linear_1767_22" x1="-8.10202" y1="98.3175" x2="234.364" y2="311.533" gradientUnits="userSpaceOnUse">
<stop offset="0.26" stop-color="#5B6BFD"/>
<stop offset="0.84" stop-color="#182256"/>
</linearGradient>
<linearGradient id="paint3_linear_1767_22" x1="242.588" y1="215.996" x2="286.043" y2="378.025" gradientUnits="userSpaceOnUse">
<stop offset="0.783776" stop-color="#D02BC0"/>
<stop offset="0.943668" stop-color="#5F1780"/>
</linearGradient>
<linearGradient id="paint4_linear_1767_22" x1="128.125" y1="284.424" x2="256.698" y2="339.927" gradientUnits="userSpaceOnUse">
<stop offset="0.575" stop-color="#B05DE2"/>
<stop offset="1" stop-color="#5F1780"/>
</linearGradient>
<clipPath id="clip0_1767_22">
<rect width="400" height="400" fill="white"/>
</clipPath>
</defs>
</svg>
