<svg width="400" height="400" viewBox="0 0 400 400" fill="none" xmlns="http://www.w3.org/2000/svg">
<g clip-path="url(#clip0_1767_20)">
<path d="M259.983 346.901C267.922 343.225 338.933 333.208 370.901 316.118C401.88 299.556 341.056 287.928 307.139 303.255C326.71 288.463 343.964 271.129 342.143 257.978C339.107 236.06 291.267 282.87 267.727 309.015C289.315 266.244 322.918 188.678 284.621 220.589C248.395 250.774 241.847 291.12 243.126 310.33C240.668 285.472 233.987 242.055 224.498 245.572C212.13 250.156 213.054 312.611 223.663 318.559C232.149 323.318 251.412 339.437 259.983 346.901Z" fill="#912A93"/>
<path d="M208.854 281.872C205.839 270.576 175.549 232.667 162.191 241.485C148.834 250.304 140.299 244.975 144.582 235.327C148.864 225.68 139.799 217.404 131.788 219.602C123.778 221.8 109.912 210.49 118.46 204.939C127.008 199.387 97.68 171.941 118.507 165.997C139.334 160.053 151.799 226.13 180.367 220.238C196.661 216.877 202.859 233.196 204.494 239.444C204.083 236.856 203.454 231.93 202.785 223.704C199.102 178.46 187.867 199.06 180.399 193.896C172.932 188.732 178.278 182.112 186.822 179.997C195.366 177.882 184.163 171.567 180.439 160.681C176.715 149.796 182.07 136.879 165.524 133.747C148.979 130.616 142.046 124.389 140.452 118.415C138.858 112.441 129.255 106.947 128.197 98.7649C127.139 90.5826 159.166 93.8179 173.02 115.433C186.874 137.049 187.977 108.009 180.515 97.6913C173.054 87.3732 173.057 85.0813 176.81 71.9152C180.562 58.7492 180.581 43.2863 176.85 38.1273C173.12 32.9682 170.462 23.3927 180.607 22.0976C190.751 20.8025 201.93 47.1577 196.575 60.6507C191.221 74.1437 196.67 100.189 199.802 100.674C202.933 101.158 203.328 81.2594 209.101 76.9088C214.874 72.5581 223.567 58.85 227.608 65.4496C231.649 72.0492 235.109 81.2725 224.686 90.2109C214.264 99.1493 202.076 133.357 214.762 165.989C227.448 198.621 220.564 151.012 237.914 153.075C255.264 155.137 262.196 163.133 244.834 170.639C227.472 178.146 240.156 212.931 244.788 208.75C249.42 204.569 248.185 234.259 244.745 243.989C241.305 253.719 244.713 270.982 244.706 276.664C244.699 282.347 230.972 312.221 208.854 281.872Z" fill="url(#paint0_linear_1767_20)"/>
<path d="M276.439 318.919C279.566 308.601 310.201 280.393 323.444 293.447C336.687 306.501 345.263 303.897 341.088 292.903C336.913 281.909 346.05 276.532 354.024 281.275C361.998 286.018 375.959 279.139 367.483 270.877C359.006 262.614 388.571 244.546 367.84 231.985C347.11 219.423 333.978 281.424 305.519 266.451C289.287 257.911 282.93 272.232 281.233 277.949C281.669 275.495 282.349 270.778 283.103 262.779C287.249 218.781 298.252 242.922 305.761 240.143C313.27 237.363 308.001 229.053 299.493 224.223C290.985 219.393 302.235 216.653 306.066 206.971C309.897 197.288 304.686 182.689 321.237 184.827C337.787 186.966 344.773 182.955 346.427 177.498C348.08 172.041 357.724 169.613 358.865 161.78C360.006 153.948 327.999 146.987 313.943 164.158C299.888 181.33 299.089 151.987 306.645 144.061C314.201 136.134 314.222 133.845 310.613 119.506C307.003 105.168 307.145 89.7249 310.923 85.7615C314.701 81.7981 317.454 73.0841 307.34 68.5631C297.225 64.0421 285.791 86.7965 290.997 101.971C296.202 117.146 290.491 141.414 287.36 140.901C284.229 140.388 284.041 120.397 278.322 114.216C272.604 108.036 264.068 91.5844 259.965 96.8872C255.862 102.19 252.313 110.297 262.625 122.537C272.937 134.777 284.75 172.806 271.745 201.348C258.741 229.89 266.108 184.55 248.765 181.088C231.423 177.626 224.42 183.403 241.674 196.422C258.929 209.44 245.906 240.132 241.324 234.484C236.743 228.836 237.667 258.869 241 269.678C244.334 280.487 240.752 296.636 240.7 302.312C240.648 307.987 254.042 342.18 276.439 318.919Z" fill="url(#paint1_linear_1767_20)"/>
<path d="M190.737 339.817C181.75 330.027 134.022 310.52 127.358 328.561C120.694 346.602 110.26 346.691 108.555 333.79C106.851 320.89 94.2955 318.255 88.5584 325.85C82.8213 333.445 64.377 330.821 68.6937 319.371C73.0104 307.921 32.0134 298.694 46.8012 278.709C61.589 258.723 109.66 319.417 131.217 294.362C143.513 280.072 158.101 292.997 163.043 298.435C161.228 296.005 157.906 291.282 152.69 283.142C124 238.372 125.819 267.302 116.408 266.856C106.997 266.41 107.924 255.964 114.172 248.103C120.421 240.242 107.109 241.067 97.7353 232.174C88.3615 223.28 85.7481 206.259 69.5773 213.942C53.4066 221.625 43.8629 219.716 39.1097 214.538C34.3565 209.36 22.9009 209.983 17.3712 202.146C11.8415 194.309 41.5513 176.488 65.7894 189.873C90.0274 203.257 74.6315 172.228 62.3229 166.4C50.0143 160.572 48.7258 158.179 44.5779 141.958C40.4301 125.737 31.737 109.591 25.5827 106.677C19.4284 103.763 11.7209 95.5312 19.825 87.4659C27.9291 79.4006 52.5075 99.5008 55.4446 117.123C58.3817 134.746 77.7973 158.315 80.7964 156.748C83.7955 155.181 72.9325 134.157 75.509 125.797C78.0855 117.436 77.9339 97.3802 85.1698 101.592C92.4057 105.803 100.613 113.137 96.572 129.361C92.5311 145.585 101.185 189.344 130.611 214.996C160.038 240.648 127.228 195.529 143.498 186.198C159.767 176.867 170.306 180.623 159.416 199.945C148.526 219.268 179.163 247.168 180.842 239.74C182.521 232.312 198.168 264.107 200.653 276.536C203.138 288.966 215.828 304.722 219.022 310.656C222.217 316.589 227.091 356.845 190.737 339.817Z" fill="url(#paint2_linear_1767_20)"/>
<path d="M248.73 373.567C256.196 370.109 326.579 367.96 356.285 351.16C385.073 334.879 321.608 311.288 289.649 325.582C307.155 309.848 321.913 290.574 317.998 273.755C311.474 245.724 270.36 297.591 250.618 327.028C265.766 276.378 287.616 183.709 253.828 218.23C221.867 250.884 221.578 300.695 225.896 325.06C219.494 293.413 205.894 237.789 196.832 240.818C185.02 244.766 195.781 323.501 207.467 332.55C216.815 339.789 238.871 362.911 248.73 373.567Z" fill="url(#paint3_linear_1767_20)"/>
<path d="M231.536 363.961C230.338 357.014 239.018 302.016 232.255 273.329C225.701 245.529 201.125 286.328 205.921 315.888C198.109 296.974 187.58 278.959 175.984 276.183C156.659 271.557 184.792 321.117 201.275 346.476C170.217 317.352 112.553 268.589 130.357 306.527C147.198 342.413 179.836 359.793 196.439 364.856C174.759 358.89 136.317 350.216 137.005 358.245C137.902 368.71 191.1 387.535 198.711 381.643C204.801 376.929 223.132 367.891 231.536 363.961Z" fill="url(#paint4_linear_1767_20)"/>
</g>
<defs>
<linearGradient id="paint0_linear_1767_20" x1="183.061" y1="22.2477" x2="142.846" y2="282.305" gradientUnits="userSpaceOnUse">
<stop stop-color="#7E25EE" stop-opacity="0.86"/>
<stop offset="1" stop-color="#182256"/>
</linearGradient>
<linearGradient id="paint1_linear_1767_20" x1="240.458" y1="57.3766" x2="232.194" y2="340.443" gradientUnits="userSpaceOnUse">
<stop stop-color="#7E25EE" stop-opacity="0.86"/>
<stop offset="0.745" stop-color="#7725E4" stop-opacity="0.8698"/>
<stop offset="1" stop-color="#182256"/>
</linearGradient>
<linearGradient id="paint2_linear_1767_20" x1="-11.102" y1="103.318" x2="231.364" y2="316.534" gradientUnits="userSpaceOnUse">
<stop offset="0.26" stop-color="#5B6BFD"/>
<stop offset="0.84" stop-color="#182256"/>
</linearGradient>
<linearGradient id="paint3_linear_1767_20" x1="239.588" y1="220.998" x2="283.043" y2="383.026" gradientUnits="userSpaceOnUse">
<stop offset="0.783776" stop-color="#D02BC0"/>
<stop offset="0.943668" stop-color="#5F1780"/>
</linearGradient>
<linearGradient id="paint4_linear_1767_20" x1="125.125" y1="289.425" x2="253.698" y2="344.928" gradientUnits="userSpaceOnUse">
<stop offset="0.575" stop-color="#B05DE2"/>
<stop offset="1" stop-color="#5F1780"/>
</linearGradient>
<clipPath id="clip0_1767_20">
<rect width="400" height="400" fill="white"/>
</clipPath>
</defs>
</svg>
