<svg width="370" height="698" viewBox="0 0 370 698" fill="none" xmlns="http://www.w3.org/2000/svg">
<g clip-path="url(#clip0_1767_21)">
<path d="M237.097 388.768C244.938 354.546 313.009 256.52 346.064 211.785C255.075 161.52 69.0735 58.2314 52.9798 47.1938C32.8627 33.3968 35.5278 251.396 52.1636 251.803C68.7995 252.21 46.133 220.549 79.1687 257.617C112.204 294.686 77.0473 292.888 101.299 331.99C125.551 371.092 107.33 363.244 137.871 337.027C168.413 310.81 182.587 402.598 201.292 398.267C219.998 393.936 227.297 431.545 237.097 388.768Z" fill="url(#paint0_linear_1767_21)"/>
<path d="M342.052 174.369C327.213 163.628 259.98 152.655 252.444 138.559C234.393 63.0337 192.174 142.552 174.818 94.0187C165.742 68.6377 117.84 31.9379 61.5231 22.8504C-9.17424 11.4424 61.4301 100.407 77.4572 106.086C174.818 140.586 90.1045 135.419 101.803 150.903C113.501 166.386 195.232 207.122 198.907 190.032C208.482 145.496 312.064 302.481 266.388 192.443C325.948 216.648 378.367 200.875 342.052 174.369Z" fill="url(#paint1_linear_1767_21)" stroke="url(#paint2_linear_1767_21)" stroke-width="14" stroke-linejoin="round"/>
<path d="M44.2515 429.028C37.6527 408.085 -16.3512 346.736 -42.5282 318.679C26.663 290.971 168.096 234.004 180.299 227.804C195.552 220.053 197.102 351.899 184.307 351.65C171.511 351.4 188.431 332.915 163.621 354.364C138.81 375.812 165.836 375.772 147.818 398.712C129.801 421.653 143.694 417.447 119.757 400.671C95.8203 383.896 86.429 439.021 71.9625 435.843C57.4961 432.665 52.5001 455.207 44.2515 429.028Z" fill="url(#paint3_linear_1767_21)"/>
<path d="M-22.9599 287.571C-14.9281 275.277 22.2998 275.264 30.8214 267.311C74.4208 232.842 165.287 200.823 104.689 245.751C89.2909 257.167 123.618 248.112 137.948 242.411C209.461 213.962 181.443 252.715 138.248 268.937C95.0525 285.16 105.221 272.847 92.4554 282.028C79.6894 291.21 32.3236 281.764 38.5047 302.851C41.3286 312.484 34.6589 302.793 -4.40535 312.748C-65.4874 328.314 -33.145 303.162 -22.9599 287.571Z" fill="url(#paint4_linear_1767_21)" stroke="url(#paint5_linear_1767_21)" stroke-width="14" stroke-linejoin="round"/>
<path d="M161.761 516.74C151.046 497.914 82.576 453.222 49.6806 433.229C118.835 384.831 260.134 285.574 272.101 275.733C287.059 263.431 311.748 394.001 298.021 397.611C284.294 401.222 299.159 377.748 276.373 406.545C253.587 435.343 282.482 427.154 267.221 455.386C251.961 483.619 266.083 475.249 237.554 465.793C209.026 456.337 208.612 513.955 192.586 515.158C176.56 516.361 175.155 540.271 161.761 516.74Z" fill="url(#paint6_linear_1767_21)"/>
<path d="M48.3865 410.1C59.3502 400.69 113.678 380.536 118.18 370.603C123.811 321.901 168.587 360.786 176.973 328.324C181.358 311.348 216.502 279.762 262.021 262.942C319.164 241.828 271.667 309.184 259.094 315.815C182.718 356.1 252.239 335.872 244.461 347.475C236.683 359.078 174.021 399.919 168.869 390.469C155.444 365.843 89.0276 480.446 113.279 405.566C66.9393 432.059 21.581 433.261 48.3865 410.1Z" fill="url(#paint7_linear_1767_21)" stroke="url(#paint8_linear_1767_21)" stroke-width="14" stroke-linejoin="round"/>
<path d="M90.5028 617.89C91.7539 596.334 71.101 524.719 60.6181 491.606C116.923 482.12 232.106 462.418 242.405 459.494C255.278 455.839 219.354 581.775 210.45 578.413C201.546 575.05 218.601 561.579 195.18 575.945C171.758 590.31 190.724 596.872 171.648 614.318C152.572 631.764 163.496 631.151 151.418 609.329C139.339 587.507 117.278 637.708 108.025 631.148C98.7708 624.588 88.9389 644.835 90.5028 617.89Z" fill="url(#paint9_linear_1767_21)"/>
<path d="M83.0747 466.761C92.1588 457.015 118.272 466.096 126.481 460.604C166.734 438.428 239.45 430.133 184.339 458.115C170.335 465.226 196.951 464.987 208.602 463.059C266.742 453.435 236.214 483.496 201.366 488.393C166.518 493.291 177.106 484.049 165.575 489.674C154.045 495.299 123.477 474.734 121.893 496.325C121.169 506.189 119.212 495.331 89.02 495.269C41.8114 495.172 71.555 479.12 83.0747 466.761Z" fill="url(#paint10_linear_1767_21)" stroke="url(#paint11_linear_1767_21)" stroke-width="14" stroke-linejoin="round"/>
</g>
<defs>
<linearGradient id="paint0_linear_1767_21" x1="292.631" y1="296.247" x2="5.41317" y2="215.421" gradientUnits="userSpaceOnUse">
<stop stop-color="#A343A5"/>
<stop offset="0.236327" stop-color="#3E1A3F"/>
<stop offset="0.352068" stop-color="#A343A5"/>
<stop offset="0.72779" stop-color="#3E1A3F"/>
</linearGradient>
<linearGradient id="paint1_linear_1767_21" x1="418.484" y1="204.582" x2="85.1262" y2="130.534" gradientUnits="userSpaceOnUse">
<stop offset="0.0641881" stop-color="#752175"/>
<stop offset="0.227045" stop-color="#501B50"/>
<stop offset="0.36" stop-color="#752175"/>
<stop offset="0.615" stop-color="#501B50"/>
<stop offset="0.695" stop-color="#631E62"/>
<stop offset="0.86" stop-color="#752175"/>
<stop offset="1" stop-color="#501B50"/>
</linearGradient>
<linearGradient id="paint2_linear_1767_21" x1="304.418" y1="217.793" x2="62.936" y2="165.607" gradientUnits="userSpaceOnUse">
<stop stop-color="#D7B575"/>
<stop offset="0.191392" stop-color="#715F3D"/>
<stop offset="0.60287" stop-color="#D7B575"/>
<stop offset="0.767216" stop-color="#D7B575"/>
<stop offset="1" stop-color="#715F3D"/>
</linearGradient>
<linearGradient id="paint3_linear_1767_21" x1="-0.0132915" y1="371.384" x2="205.374" y2="293.36" gradientUnits="userSpaceOnUse">
<stop stop-color="#A343A5"/>
<stop offset="0.236327" stop-color="#3E1A3F"/>
<stop offset="0.352068" stop-color="#A343A5"/>
<stop offset="0.72779" stop-color="#3E1A3F"/>
</linearGradient>
<linearGradient id="paint4_linear_1767_21" x1="-32.5442" y1="288.064" x2="183.987" y2="214.63" gradientUnits="userSpaceOnUse">
<stop offset="0.0202433" stop-color="#501B50"/>
<stop offset="0.205802" stop-color="#752175"/>
<stop offset="0.405" stop-color="#752175"/>
<stop offset="0.624449" stop-color="#501B50"/>
<stop offset="0.742572" stop-color="#752175"/>
<stop offset="0.966718" stop-color="#752175"/>
</linearGradient>
<linearGradient id="paint5_linear_1767_21" x1="-29.9101" y1="320.635" x2="209.371" y2="247.29" gradientUnits="userSpaceOnUse">
<stop stop-color="#D7B575"/>
<stop offset="0.191392" stop-color="#715F3D"/>
<stop offset="0.60287" stop-color="#D7B575"/>
<stop offset="0.767216" stop-color="#D7B575"/>
<stop offset="1" stop-color="#715F3D"/>
</linearGradient>
<linearGradient id="paint6_linear_1767_21" x1="104.354" y1="472.794" x2="311.914" y2="335.667" gradientUnits="userSpaceOnUse">
<stop stop-color="#A343A5"/>
<stop offset="0.236327" stop-color="#3E1A3F"/>
<stop offset="0.352068" stop-color="#A343A5"/>
<stop offset="0.72779" stop-color="#3E1A3F"/>
</linearGradient>
<linearGradient id="paint7_linear_1767_21" x1="-11.1857" y1="443.592" x2="239.976" y2="303.628" gradientUnits="userSpaceOnUse">
<stop offset="0.0641881" stop-color="#752175"/>
<stop offset="0.227045" stop-color="#501B50"/>
<stop offset="0.36" stop-color="#752175"/>
<stop offset="0.615" stop-color="#501B50"/>
<stop offset="0.695" stop-color="#631E62"/>
<stop offset="0.86" stop-color="#752175"/>
<stop offset="1" stop-color="#501B50"/>
</linearGradient>
<linearGradient id="paint8_linear_1767_21" x1="84.9119" y1="428.384" x2="267.571" y2="328.466" gradientUnits="userSpaceOnUse">
<stop stop-color="#D7B575"/>
<stop offset="0.191392" stop-color="#715F3D"/>
<stop offset="0.60287" stop-color="#D7B575"/>
<stop offset="0.767216" stop-color="#D7B575"/>
<stop offset="1" stop-color="#715F3D"/>
</linearGradient>
<linearGradient id="paint9_linear_1767_21" x1="75.6402" y1="552.182" x2="241.227" y2="554.446" gradientUnits="userSpaceOnUse">
<stop stop-color="#A343A5"/>
<stop offset="0.236327" stop-color="#3E1A3F"/>
<stop offset="0.352068" stop-color="#A343A5"/>
<stop offset="0.72779" stop-color="#3E1A3F"/>
</linearGradient>
<linearGradient id="paint10_linear_1767_21" x1="76.2146" y1="464.888" x2="247.689" y2="471.99" gradientUnits="userSpaceOnUse">
<stop offset="0.0202433" stop-color="#501B50"/>
<stop offset="0.205802" stop-color="#752175"/>
<stop offset="0.405" stop-color="#752175"/>
<stop offset="0.624449" stop-color="#501B50"/>
<stop offset="0.742572" stop-color="#752175"/>
<stop offset="0.966718" stop-color="#752175"/>
</linearGradient>
<linearGradient id="paint11_linear_1767_21" x1="68.9187" y1="496.55" x2="255.829" y2="508.512" gradientUnits="userSpaceOnUse">
<stop stop-color="#D7B575"/>
<stop offset="0.191392" stop-color="#715F3D"/>
<stop offset="0.60287" stop-color="#D7B575"/>
<stop offset="0.767216" stop-color="#D7B575"/>
<stop offset="1" stop-color="#715F3D"/>
</linearGradient>
<clipPath id="clip0_1767_21">
<rect width="370" height="698" fill="white"/>
</clipPath>
</defs>
</svg>
