<svg width="300" height="97" viewBox="0 0 300 97" fill="none" xmlns="http://www.w3.org/2000/svg">
<rect x="1" y="1" width="298" height="95" rx="39" fill="#F1F1F1" stroke="#B32169" stroke-width="2"/>
<path d="M62.1955 42.2V38.588H68.9435V59H64.9115V42.2H62.1955ZM83.4 43.684C83.2134 42.9 82.8867 42.312 82.42 41.92C81.972 41.528 81.3187 41.332 80.46 41.332C79.172 41.332 78.22 41.8547 77.604 42.9C77.0067 43.9267 76.6987 45.6067 76.68 47.94C77.128 47.1933 77.7814 46.6147 78.64 46.204C79.4987 45.7747 80.432 45.56 81.44 45.56C82.6534 45.56 83.7267 45.8213 84.66 46.344C85.5934 46.8667 86.3214 47.632 86.844 48.64C87.3667 49.6293 87.628 50.824 87.628 52.224C87.628 53.5493 87.3574 54.7347 86.816 55.78C86.2934 56.8067 85.5187 57.6093 84.492 58.188C83.4654 58.7667 82.2427 59.056 80.824 59.056C78.8827 59.056 77.352 58.6267 76.232 57.768C75.1307 56.9093 74.356 55.7147 73.908 54.184C73.4787 52.6347 73.264 50.7307 73.264 48.472C73.264 45.056 73.852 42.48 75.028 40.744C76.204 38.9893 78.0614 38.112 80.6 38.112C82.56 38.112 84.0814 38.644 85.164 39.708C86.2467 40.772 86.872 42.0973 87.04 43.684H83.4ZM80.544 48.78C79.5547 48.78 78.724 49.0693 78.052 49.648C77.38 50.2267 77.044 51.0667 77.044 52.168C77.044 53.2693 77.352 54.1373 77.968 54.772C78.6027 55.4067 79.4894 55.724 80.628 55.724C81.636 55.724 82.4294 55.416 83.008 54.8C83.6054 54.184 83.904 53.3533 83.904 52.308C83.904 51.2253 83.6147 50.3667 83.036 49.732C82.476 49.0973 81.6454 48.78 80.544 48.78ZM92.9102 59.196C92.2009 59.196 91.6129 58.9813 91.1462 58.552C90.6982 58.104 90.4742 57.5533 90.4742 56.9C90.4742 56.2467 90.6982 55.7053 91.1462 55.276C91.6129 54.828 92.2009 54.604 92.9102 54.604C93.6009 54.604 94.1702 54.828 94.6182 55.276C95.0662 55.7053 95.2902 56.2467 95.2902 56.9C95.2902 57.5533 95.0662 58.104 94.6182 58.552C94.1702 58.9813 93.6009 59.196 92.9102 59.196ZM99.2316 54.576C101.024 53.0827 102.452 51.8413 103.516 50.852C104.58 49.844 105.466 48.7987 106.176 47.716C106.885 46.6333 107.24 45.5693 107.24 44.524C107.24 43.572 107.016 42.8253 106.568 42.284C106.12 41.7427 105.429 41.472 104.496 41.472C103.562 41.472 102.844 41.7893 102.34 42.424C101.836 43.04 101.574 43.8893 101.556 44.972H97.7476C97.8223 42.732 98.485 41.0333 99.7356 39.876C101.005 38.7187 102.61 38.14 104.552 38.14C106.68 38.14 108.313 38.7093 109.452 39.848C110.59 40.968 111.16 42.452 111.16 44.3C111.16 45.756 110.768 47.1467 109.984 48.472C109.2 49.7973 108.304 50.9547 107.296 51.944C106.288 52.9147 104.972 54.0907 103.348 55.472H111.608V58.72H97.7756V55.808L99.2316 54.576ZM127.798 41.976H118.726V46.764C119.118 46.2787 119.678 45.8867 120.406 45.588C121.134 45.2707 121.908 45.112 122.73 45.112C124.223 45.112 125.446 45.4387 126.398 46.092C127.35 46.7453 128.04 47.5853 128.47 48.612C128.899 49.62 129.114 50.7027 129.114 51.86C129.114 54.0067 128.498 55.7333 127.266 57.04C126.052 58.3467 124.316 59 122.058 59C119.93 59 118.231 58.468 116.962 57.404C115.692 56.34 114.974 54.9493 114.806 53.232H118.614C118.782 53.9787 119.155 54.576 119.734 55.024C120.331 55.472 121.087 55.696 122.002 55.696C123.103 55.696 123.934 55.3507 124.494 54.66C125.054 53.9693 125.334 53.0547 125.334 51.916C125.334 50.7587 125.044 49.8813 124.466 49.284C123.906 48.668 123.075 48.36 121.974 48.36C121.19 48.36 120.536 48.556 120.014 48.948C119.491 49.34 119.118 49.8627 118.894 50.516H115.142V38.532H127.798V41.976ZM151.145 47.352V50.656H139.273V47.352H151.145ZM167.961 42.2V38.588H174.709V59H170.677V42.2H167.961ZM189.166 43.684C188.979 42.9 188.652 42.312 188.186 41.92C187.738 41.528 187.084 41.332 186.226 41.332C184.938 41.332 183.986 41.8547 183.37 42.9C182.772 43.9267 182.464 45.6067 182.446 47.94C182.894 47.1933 183.547 46.6147 184.406 46.204C185.264 45.7747 186.198 45.56 187.206 45.56C188.419 45.56 189.492 45.8213 190.426 46.344C191.359 46.8667 192.087 47.632 192.61 48.64C193.132 49.6293 193.394 50.824 193.394 52.224C193.394 53.5493 193.123 54.7347 192.582 55.78C192.059 56.8067 191.284 57.6093 190.258 58.188C189.231 58.7667 188.008 59.056 186.59 59.056C184.648 59.056 183.118 58.6267 181.998 57.768C180.896 56.9093 180.122 55.7147 179.674 54.184C179.244 52.6347 179.03 50.7307 179.03 48.472C179.03 45.056 179.618 42.48 180.794 40.744C181.97 38.9893 183.827 38.112 186.366 38.112C188.326 38.112 189.847 38.644 190.93 39.708C192.012 40.772 192.638 42.0973 192.806 43.684H189.166ZM186.31 48.78C185.32 48.78 184.49 49.0693 183.818 49.648C183.146 50.2267 182.81 51.0667 182.81 52.168C182.81 53.2693 183.118 54.1373 183.734 54.772C184.368 55.4067 185.255 55.724 186.394 55.724C187.402 55.724 188.195 55.416 188.774 54.8C189.371 54.184 189.67 53.3533 189.67 52.308C189.67 51.2253 189.38 50.3667 188.802 49.732C188.242 49.0973 187.411 48.78 186.31 48.78ZM198.676 59.196C197.966 59.196 197.378 58.9813 196.912 58.552C196.464 58.104 196.24 57.5533 196.24 56.9C196.24 56.2467 196.464 55.7053 196.912 55.276C197.378 54.828 197.966 54.604 198.676 54.604C199.366 54.604 199.936 54.828 200.384 55.276C200.832 55.7053 201.056 56.2467 201.056 56.9C201.056 57.5533 200.832 58.104 200.384 58.552C199.936 58.9813 199.366 59.196 198.676 59.196ZM203.597 55.024V51.944L212.753 38.84H217.317V51.608H219.781V55.024H217.317V59H213.397V55.024H203.597ZM213.649 43.04L207.909 51.608H213.649V43.04ZM235.997 41.976H226.925V46.764C227.317 46.2787 227.877 45.8867 228.605 45.588C229.333 45.2707 230.108 45.112 230.929 45.112C232.422 45.112 233.645 45.4387 234.597 46.092C235.549 46.7453 236.24 47.5853 236.669 48.612C237.098 49.62 237.313 50.7027 237.313 51.86C237.313 54.0067 236.697 55.7333 235.465 57.04C234.252 58.3467 232.516 59 230.257 59C228.129 59 226.43 58.468 225.161 57.404C223.892 56.34 223.173 54.9493 223.005 53.232H226.813C226.981 53.9787 227.354 54.576 227.933 55.024C228.53 55.472 229.286 55.696 230.201 55.696C231.302 55.696 232.133 55.3507 232.693 54.66C233.253 53.9693 233.533 53.0547 233.533 51.916C233.533 50.7587 233.244 49.8813 232.665 49.284C232.105 48.668 231.274 48.36 230.173 48.36C229.389 48.36 228.736 48.556 228.213 48.948C227.69 49.34 227.317 49.8627 227.093 50.516H223.341V38.532H235.997V41.976Z" fill="black"/>
</svg>
