<svg width="1418" height="464" viewBox="0 0 1418 464" fill="none" xmlns="http://www.w3.org/2000/svg">
<path d="M633.881 69.824C635.673 70.72 634.649 74.816 634.521 76.352C634.265 80.832 635.289 95.552 634.777 98.112C634.393 99.776 632.345 99.904 630.937 99.904C624.537 99.904 578.073 101.696 577.177 100.416C576.665 100.16 576.153 99.776 576.025 99.264L577.433 78.144C578.073 65.344 578.969 26.816 575.897 15.168C575.257 12.864 578.585 12.736 580.249 12.352C587.545 10.816 596.377 9.66399 603.801 9.79199C604.953 9.79199 605.593 10.176 606.233 11.2C607.897 13.888 607.513 42.432 607.385 47.552C607.257 55.488 607.257 63.552 606.617 71.488C614.425 70.208 622.745 68.672 630.553 68.032C631.961 67.904 633.753 68.032 633.881 69.824ZM591.257 110.656C590.233 110.656 587.289 110.656 586.521 110.272C584.729 109.248 585.241 107.328 587.033 106.688C591.641 105.28 613.017 106.048 619.289 105.664C625.049 105.28 624.409 109.76 621.209 110.272C615.833 111.04 597.657 110.656 591.257 110.656ZM634.393 106.176C637.465 106.56 636.825 110.912 634.137 110.656L630.809 110.272C627.993 109.888 627.993 105.408 634.393 106.176ZM672.709 76.864C672.325 83.776 672.453 90.816 672.965 97.728C673.093 99.392 673.477 101.184 673.349 102.848C673.349 103.36 672.965 103.744 672.581 104C670.917 104.896 668.869 104.64 667.077 104.64C661.829 104.64 655.301 105.28 650.181 104.256C648.901 104 648.261 103.36 647.877 102.208C643.397 89.792 643.269 46.912 644.165 32.96C644.293 30.528 646.085 14.272 646.725 13.12L647.237 12.352C647.749 7.23199 671.045 10.688 674.757 12.352C676.165 12.992 675.781 14.912 675.653 16.192C674.885 26.944 674.629 38.08 674.629 48.96C683.205 42.048 695.877 25.28 700.613 15.168C701.125 14.016 701.637 12.352 703.045 12.096C704.197 11.84 706.885 13.76 707.781 14.4C710.213 16.192 720.965 24.256 721.093 26.944C721.349 27.584 721.221 28.352 720.581 28.736C713.157 41.536 700.997 55.616 688.581 63.936C696.773 70.336 705.221 74.944 714.309 79.808C715.461 80.448 719.813 81.984 719.173 83.904C717.765 87.872 706.501 105.152 702.277 103.872C692.677 100.928 679.109 84.672 672.709 76.864ZM657.605 18.752C659.397 19.136 661.061 17.472 660.677 15.68C659.653 10.688 652.101 15.04 650.693 17.728C648.261 22.336 645.829 40.256 647.621 44.992C648.517 47.424 651.973 47.296 652.485 44.736C653.765 38.976 650.437 21.056 657.605 18.752ZM662.725 16.704C663.237 18.752 665.797 19.392 667.205 17.728C670.533 13.76 661.573 11.584 662.725 16.704ZM751.785 105.408C748.457 107.072 748.585 97.6 748.457 95.808C747.561 80.448 746.025 50.752 748.073 36.16C741.929 36.8 734.633 38.72 728.617 38.592C726.953 38.592 726.185 37.312 725.673 35.904C724.905 33.472 725.289 11.968 726.057 9.66399C726.441 8.63999 726.953 7.616 727.849 7.104C729.257 6.20799 732.969 6.71999 734.633 6.976C755.113 9.536 775.849 7.616 796.457 9.536C799.017 9.79199 799.401 10.176 800.681 12.224C800.681 17.088 800.809 32.192 797.481 35.264C795.689 36.928 792.873 36.928 790.569 36.928C786.473 36.928 782.505 36.544 778.409 37.056C778.537 58.176 779.945 79.04 780.841 100.16C780.841 100.928 780.841 102.848 780.201 103.36C779.561 103.872 777.385 104 776.489 104C771.753 104 753.705 105.664 751.785 105.408ZM760.361 18.368C761.257 18.624 786.089 17.088 786.601 16.832C788.265 15.808 787.881 12.736 786.089 12.096C785.449 11.84 760.745 13.248 759.721 13.888C758.057 15.04 758.313 17.728 760.361 18.368ZM792.233 17.088C793.641 18.24 795.689 17.344 796.201 15.68C798.121 9.66399 787.369 13.248 792.233 17.088ZM839.379 10.56C839.891 11.456 839.251 12.608 838.227 12.736C837.331 12.864 836.563 12.224 835.667 12.096C830.803 11.328 825.555 12.992 820.947 12.352C820.051 12.224 818.643 11.712 818.643 10.688C818.643 6.07999 837.459 6.84799 839.379 10.56ZM815.571 13.12C812.755 16.704 809.043 8.128 814.035 8.63999C816.083 8.896 816.723 11.584 815.571 13.12ZM821.459 105.152C819.411 105.152 813.651 105.408 812.115 104C811.219 103.104 811.091 101.696 810.963 100.544C810.451 95.296 807.635 23.232 807.763 22.592C808.659 19.008 827.347 18.496 830.931 18.496C832.339 18.496 836.179 18.368 837.331 19.008C839.507 20.16 839.123 25.024 839.123 27.072L839.251 102.208C839.251 103.488 838.739 104.128 837.587 104.512C835.923 105.024 824.147 105.152 821.459 105.152Z" fill="white"/>
<g filter="url(#filter0_d_2375_2)">
<path d="M1214.43 204.302C1243.73 201.016 1274.46 225.248 1291.48 243.306C1308.5 261.364 1175.66 237.469 1234.75 264.592C1293.85 291.714 1189.01 287.143 1127.33 270.792C1065.65 254.441 1066.65 241.963 1016.6 224.76C966.554 207.557 1035.61 210.269 1055.74 220.576C1075.87 230.882 1097.55 250.488 1125.1 250.488C1136.88 250.488 1140.9 241.612 1129.49 234.989C1118.07 228.366 1096.09 230.185 1098.25 227.472C1100.4 224.76 1117.97 215.721 1132.79 217.786C1146.62 219.714 1155.36 226.352 1169.05 234.989C1190.66 248.629 1229.58 235.222 1222.48 224.76C1216.79 216.391 1193.44 221.273 1182.48 224.76C1180.92 219.31 1185.14 207.588 1214.43 204.302Z" fill="url(#paint0_radial_2375_2)"/>
</g>
<g filter="url(#filter1_d_2375_2)">
<path d="M203.567 204.302C174.269 201.016 143.537 225.248 126.519 243.306C109.501 261.364 242.343 237.469 183.245 264.592C124.148 291.714 228.987 287.143 290.669 270.792C352.352 254.441 351.346 241.963 401.396 224.76C451.446 207.557 382.391 210.269 362.261 220.576C342.131 230.882 320.451 250.488 292.895 250.488C281.119 250.488 277.098 241.612 288.515 234.989C299.932 228.366 321.905 230.185 319.751 227.472C317.597 224.76 300.033 215.721 285.212 217.786C271.376 219.714 262.636 226.352 248.949 234.989C227.335 248.629 188.415 235.222 195.524 224.76C201.212 216.391 224.559 221.273 235.521 224.76C237.077 219.31 232.864 207.588 203.567 204.302Z" fill="url(#paint1_radial_2375_2)"/>
</g>
<g filter="url(#filter2_d_2375_2)">
<path d="M1088.46 222.298C1117.65 219.053 1148.28 242.983 1165.24 260.815C1182.2 278.647 1049.81 255.051 1108.71 281.834C1167.61 308.618 1063.12 304.103 1001.65 287.957C940.174 271.81 941.176 259.489 891.295 242.501C841.415 225.513 910.236 228.191 930.298 238.368C950.36 248.546 971.967 267.907 999.43 267.907C1011.17 267.907 1015.17 259.142 1003.8 252.602C992.416 246.062 970.518 247.857 972.665 245.179C974.812 242.501 992.316 233.575 1007.09 235.614C1020.88 237.517 1029.59 244.073 1043.23 252.602C1064.77 266.071 1103.56 252.831 1096.47 242.501C1090.8 234.236 1067.54 239.057 1056.61 242.501C1055.06 237.118 1059.26 225.543 1088.46 222.298Z" fill="url(#paint2_radial_2375_2)"/>
</g>
<g filter="url(#filter3_d_2375_2)">
<path d="M335.508 222.298C306.31 219.053 275.682 242.983 258.721 260.815C241.76 278.647 374.153 255.051 315.256 281.834C256.358 308.618 360.842 304.103 422.317 287.957C483.791 271.81 482.789 259.489 532.669 242.501C582.55 225.513 513.729 228.191 493.667 238.368C473.605 248.546 451.998 267.907 424.535 267.907C412.798 267.907 408.791 259.142 420.17 252.602C431.548 246.062 453.447 247.857 451.3 245.179C449.153 242.501 431.649 233.575 416.878 235.614C403.089 237.517 394.378 244.073 380.737 252.602C359.196 266.071 320.408 252.831 327.493 242.501C333.161 234.236 356.429 239.057 367.355 242.501C368.905 237.118 364.707 225.543 335.508 222.298Z" fill="url(#paint3_radial_2375_2)"/>
</g>
<g filter="url(#filter4_d_2375_2)">
<path d="M482.891 244.302C453.594 241.016 422.862 265.248 405.843 283.306C388.825 301.364 521.667 277.469 462.57 304.592C403.472 331.714 510.537 335.851 572.219 319.5C633.902 303.149 630.671 281.963 680.72 264.76C730.77 247.557 660.042 247.48 639.912 257.786C619.782 268.093 599.775 290.488 572.219 290.488C560.443 290.488 556.422 281.612 567.839 274.989C579.257 268.366 601.23 270.185 599.075 267.472C596.921 264.76 579.357 255.721 564.536 257.786C550.701 259.714 541.96 266.352 528.273 274.989C506.659 288.629 467.74 275.222 474.849 264.76C480.536 256.391 503.883 261.273 514.845 264.76C516.401 259.31 512.188 247.588 482.891 244.302Z" fill="url(#paint4_radial_2375_2)"/>
</g>
<g filter="url(#filter5_d_2375_2)">
<path d="M920.46 244.302C949.659 241.016 980.287 265.248 997.248 283.306C1014.21 301.364 881.815 277.469 940.713 304.592C999.611 331.714 892.908 334.351 831.434 318C769.96 301.649 773.18 281.963 723.299 264.76C673.419 247.557 748.579 247.48 768.641 257.786C788.703 268.093 803.971 290.488 831.434 290.488C843.17 290.488 847.178 281.612 835.799 274.989C824.42 268.366 802.522 270.185 804.669 267.472C806.815 264.76 824.32 255.721 839.091 257.786C852.88 259.714 861.591 266.352 875.231 274.989C896.772 288.629 935.561 275.222 928.476 264.76C922.808 256.391 899.54 261.273 888.614 264.76C887.063 259.31 891.262 247.588 920.46 244.302Z" fill="url(#paint5_radial_2375_2)"/>
</g>
<g filter="url(#filter6_d_2375_2)">
<path d="M544.718 281.731C546.336 294.361 523.685 291.612 513.822 296.207C503.96 300.803 530.277 306.991 544.718 311.727C559.159 316.463 541.149 350.159 551.354 359.369C561.559 368.58 566.669 332.881 573.023 317.726C579.377 302.57 622.672 331.385 632.232 317.726C641.793 304.067 599.286 303.229 591.095 291.792C582.904 280.356 606.557 252.611 598.719 248.258C594.402 245.861 585.154 267.208 577.067 275.417C568.98 283.626 551.904 232.671 541.252 233.739C530.601 234.807 542.697 265.945 544.718 281.731Z" fill="url(#paint6_linear_2375_2)"/>
</g>
<g filter="url(#filter7_d_2375_2)">
<path d="M556.354 311.271C555.173 306.16 513.089 303.024 517.982 298.714C522.876 294.404 541.896 294.283 547.491 291.527C553.086 288.771 539.901 243.51 543.696 242.805C547.491 242.101 565.057 277.781 573.077 280.193C581.097 282.605 593.44 249.249 597.325 252.04C601.21 254.831 583.481 287.678 583.947 291.527C584.412 295.377 623.738 307.493 625.495 314.604C627.252 321.715 579.41 308.162 575.084 309.808C570.758 311.454 560.988 354.494 554.24 356.817C547.491 359.141 557.536 316.381 556.354 311.271Z" fill="url(#paint7_linear_2375_2)"/>
</g>
<path d="M531.455 297.95C530.488 300.487 534.356 301.333 534.937 299.642C535.517 297.95 531.455 296.259 531.455 297.95Z" fill="#D9D9D9"/>
<path d="M552.519 299.972C553.533 297.457 549.682 296.526 549.07 298.203C548.458 299.881 552.487 301.663 552.519 299.972Z" fill="#D9D9D9"/>
<path d="M542.363 299.745C543.377 297.231 539.525 296.299 538.914 297.977C538.302 299.655 542.331 301.436 542.363 299.745Z" fill="#D9D9D9"/>
<path d="M558.006 279.853C557.039 282.39 560.907 283.235 561.487 281.544C562.068 279.853 558.006 278.162 558.006 279.853Z" fill="#D9D9D9"/>
<path d="M552.85 269.997C551.883 272.534 555.751 273.38 556.331 271.688C556.911 269.997 552.85 268.306 552.85 269.997Z" fill="#D9D9D9"/>
<path d="M577.108 284.154C576.141 286.69 580.009 287.536 580.589 285.845C581.169 284.154 577.108 282.463 577.108 284.154Z" fill="#D9D9D9"/>
<path d="M582.022 276.583C581.055 279.12 584.923 279.965 585.503 278.274C586.083 276.583 582.022 274.892 582.022 276.583Z" fill="#D9D9D9"/>
<path d="M587.76 266.728C586.793 269.265 590.661 270.11 591.241 268.419C591.822 266.728 587.76 265.037 587.76 266.728Z" fill="#D9D9D9"/>
<path d="M586.71 305.066C589.108 305.893 589.533 301.605 587.94 301.125C586.348 300.644 585.17 305.217 586.71 305.066Z" fill="#D9D9D9"/>
<path d="M599.931 305.5C598.662 303.127 595.713 305.992 596.598 307.517C597.483 309.043 601.165 306.519 599.931 305.5Z" fill="#D9D9D9"/>
<path d="M607.193 308.747C606.226 311.284 610.095 312.13 610.675 310.438C611.255 308.747 607.193 307.056 607.193 308.747Z" fill="#D9D9D9"/>
<path d="M563.442 322.299C563.344 319.552 559.509 320.563 559.633 322.364C559.757 324.165 564.092 323.833 563.442 322.299Z" fill="#D9D9D9"/>
<path d="M569.651 308.958C573.041 313.018 577.711 306.067 575.397 303.488C573.084 300.909 566.847 307.529 569.651 308.958Z" fill="#741F5E" stroke="#D9D9D9" stroke-width="2"/>
<path d="M556.549 288.038C552.082 285.516 549.907 293.806 552.896 295.347C555.884 296.888 559.632 288.315 556.549 288.038Z" fill="#741F5E" stroke="#D9D9D9" stroke-width="2"/>
<path d="M573.033 283.815C572.366 278.367 564.904 281.166 565.46 284.727C566.016 288.288 574.591 286.737 573.033 283.815Z" fill="#741F5E" stroke="#D9D9D9" stroke-width="2"/>
<path d="M556.313 303.846C554.379 308.92 562.115 310.61 563.275 307.228C564.436 303.846 556.313 300.464 556.313 303.846Z" fill="#741F5E" stroke="#D9D9D9" stroke-width="2"/>
<path d="M580.522 296.531C581.862 291.233 573.993 290.611 573.228 294.125C572.462 297.639 580.908 299.887 580.522 296.531Z" fill="#741F5E" stroke="#D9D9D9" stroke-width="2"/>
<path d="M561.515 331.582C560.629 329.01 557.282 331.292 557.919 332.958C558.557 334.625 562.575 332.814 561.515 331.582Z" fill="#D9D9D9"/>
<path d="M559.75 342.168C559.63 339.423 555.803 340.471 555.942 342.27C556.08 344.07 560.413 343.696 559.75 342.168Z" fill="#D9D9D9"/>
<path d="M549.158 257.993C548.191 260.53 552.06 261.376 552.64 259.685C553.22 257.993 549.158 256.302 549.158 257.993Z" fill="#D9D9D9"/>
<path d="M563.222 294.643C563.104 295.091 559.36 296.105 559.537 296.617C559.715 297.128 563.739 297.327 564.018 297.722C564.296 298.117 564.46 302.263 564.957 302.304C565.454 302.345 566.421 298.351 566.98 298.117C567.54 297.884 570.329 298.512 571.171 298.117C572.014 297.722 568.209 294.643 568.209 294.643C568.209 294.643 570.043 291.272 569.798 290.534C569.554 289.796 566.123 292.606 565.752 292.588C565.381 292.57 562.662 289.225 562.139 289.429C561.615 289.633 563.341 294.194 563.222 294.643Z" fill="#D9D9D9"/>
<g filter="url(#filter8_d_2375_2)">
<path d="M871.254 271.585C869.637 284.214 892.288 281.465 902.15 286.061C912.013 290.656 885.696 296.844 871.254 301.58C856.813 306.316 874.823 340.013 864.618 349.223C854.413 358.433 849.304 322.735 842.95 307.579C836.595 292.424 793.301 321.238 783.74 307.579C774.18 293.92 816.686 293.082 824.878 281.646C833.069 270.21 809.415 242.464 817.254 238.111C821.571 235.714 830.819 257.061 838.906 265.271C846.993 273.48 864.069 222.525 874.72 223.593C885.372 224.661 873.276 255.798 871.254 271.585Z" fill="url(#paint8_linear_2375_2)"/>
</g>
<g filter="url(#filter9_d_2375_2)">
<path d="M859.618 301.124C860.8 296.014 902.884 292.877 897.991 288.567C893.097 284.258 874.076 284.136 868.482 281.381C862.887 278.625 876.072 233.363 872.277 232.659C868.482 231.955 850.916 267.635 842.896 270.046C834.876 272.458 822.532 239.103 818.648 241.893C814.763 244.684 832.491 277.531 832.026 281.381C831.56 285.23 792.235 297.347 790.478 304.458C788.721 311.568 836.563 298.016 840.889 299.662C845.215 301.308 854.985 344.347 861.733 346.671C868.482 348.994 858.437 306.235 859.618 301.124Z" fill="url(#paint9_linear_2375_2)"/>
</g>
<path d="M884.517 287.804C885.484 290.341 881.616 291.186 881.036 289.495C880.456 287.804 884.517 286.113 884.517 287.804Z" fill="#D9D9D9"/>
<path d="M863.454 289.827C862.439 287.313 866.291 286.381 866.903 288.059C867.515 289.737 863.485 291.518 863.454 289.827Z" fill="#D9D9D9"/>
<path d="M873.61 289.599C872.596 287.084 876.447 286.153 877.059 287.83C877.671 289.508 873.642 291.29 873.61 289.599Z" fill="#D9D9D9"/>
<path d="M857.967 269.708C858.934 272.245 855.065 273.09 854.485 271.399C853.905 269.708 857.967 268.017 857.967 269.708Z" fill="#D9D9D9"/>
<path d="M863.123 259.853C864.09 262.39 860.222 263.235 859.641 261.544C859.061 259.853 863.123 258.162 863.123 259.853Z" fill="#D9D9D9"/>
<path d="M838.865 274.007C839.832 276.544 835.964 277.389 835.384 275.698C834.803 274.007 838.865 272.316 838.865 274.007Z" fill="#D9D9D9"/>
<path d="M833.951 266.435C834.918 268.972 831.05 269.817 830.47 268.126C829.889 266.435 833.951 264.744 833.951 266.435Z" fill="#D9D9D9"/>
<path d="M828.213 256.579C829.18 259.116 825.312 259.962 824.731 258.27C824.151 256.579 828.213 254.888 828.213 256.579Z" fill="#D9D9D9"/>
<path d="M829.262 294.92C826.865 295.746 826.44 291.459 828.032 290.978C829.625 290.497 830.803 295.071 829.262 294.92Z" fill="#D9D9D9"/>
<path d="M816.042 295.353C817.311 292.981 820.259 295.845 819.375 297.371C818.49 298.896 814.808 296.372 816.042 295.353Z" fill="#D9D9D9"/>
<path d="M808.779 298.601C809.746 301.138 805.878 301.983 805.298 300.292C804.717 298.601 808.779 296.91 808.779 298.601Z" fill="#D9D9D9"/>
<path d="M852.531 312.15C852.629 309.404 856.463 310.415 856.34 312.216C856.216 314.017 851.88 313.685 852.531 312.15Z" fill="#D9D9D9"/>
<path d="M846.321 298.809C842.932 302.869 838.262 295.919 840.575 293.34C842.889 290.761 849.125 297.38 846.321 298.809Z" fill="#741F5E" stroke="#D9D9D9" stroke-width="2"/>
<path d="M859.424 277.892C863.891 275.369 866.065 283.659 863.077 285.201C860.089 286.742 856.34 278.169 859.424 277.892Z" fill="#741F5E" stroke="#D9D9D9" stroke-width="2"/>
<path d="M842.94 273.667C843.606 268.219 851.068 271.018 850.513 274.579C849.957 278.139 841.381 276.589 842.94 273.667Z" fill="#741F5E" stroke="#D9D9D9" stroke-width="2"/>
<path d="M859.66 293.702C861.594 298.775 853.858 300.466 852.697 297.084C851.537 293.702 859.66 290.32 859.66 293.702Z" fill="#741F5E" stroke="#D9D9D9" stroke-width="2"/>
<path d="M835.451 286.385C834.111 281.087 841.979 280.465 842.745 283.979C843.51 287.493 835.065 289.74 835.451 286.385Z" fill="#741F5E" stroke="#D9D9D9" stroke-width="2"/>
<path d="M854.458 321.438C855.344 318.866 858.691 321.148 858.053 322.814C857.416 324.48 853.398 322.669 854.458 321.438Z" fill="#D9D9D9"/>
<path d="M856.223 332.021C856.343 329.276 860.17 330.324 860.031 332.124C859.893 333.924 855.56 333.549 856.223 332.021Z" fill="#D9D9D9"/>
<path d="M866.814 247.847C867.781 250.384 863.913 251.229 863.333 249.538C862.753 247.847 866.814 246.156 866.814 247.847Z" fill="#D9D9D9"/>
<path d="M852.75 284.496C852.869 284.945 856.613 285.958 856.435 286.47C856.258 286.982 852.234 287.181 851.955 287.576C851.677 287.971 851.513 292.116 851.016 292.157C850.518 292.199 849.552 288.204 848.992 287.971C848.433 287.738 845.644 288.366 844.801 287.971C843.959 287.576 847.764 284.496 847.764 284.496C847.764 284.496 845.93 281.126 846.174 280.388C846.419 279.65 849.85 282.459 850.221 282.441C850.592 282.424 853.31 279.078 853.834 279.282C854.357 279.487 852.631 284.048 852.75 284.496Z" fill="#D9D9D9"/>
<g filter="url(#filter10_d_2375_2)">
<path d="M682.8 241.575C679.872 253.324 658.086 240.064 646.512 239.323C634.937 238.582 659.169 256.59 671.982 267.636C684.796 278.682 654.534 299.313 661.474 312.213C668.414 325.113 686.426 296.55 698.281 286.433C710.136 276.315 743.28 322.129 757.819 314.851C772.359 307.573 729.918 286.443 725.806 272.575C721.693 258.708 755.484 245.955 749.171 238.411C745.695 234.257 728.697 248.364 717.605 251.615C706.512 254.866 707.718 202.4 696.622 198.216C685.526 194.031 686.46 226.889 682.8 241.575Z" fill="url(#paint10_linear_2375_2)"/>
</g>
<g filter="url(#filter11_d_2375_2)">
<path d="M683.848 272.825C684.503 267.818 643.316 244.894 649.791 243.498C656.266 242.103 675.436 251.126 682.056 251.417C688.675 251.708 691.739 206.056 695.81 207.266C699.88 208.475 704.676 247.905 711.871 253.85C719.066 259.795 743.507 236.739 746.407 241.029C749.307 245.318 719.634 265.347 718.714 268.915C717.794 272.483 752.968 301.884 752.17 308.905C751.373 315.926 708.152 281.19 703.209 280.544C698.265 279.897 672.92 312.601 665.296 311.381C657.672 310.161 683.193 277.832 683.848 272.825Z" fill="url(#paint11_linear_2375_2)"/>
</g>
<path d="M663.61 249.3C661.722 251.04 665.307 253.631 666.501 252.44C667.694 251.249 664.22 247.831 663.61 249.3Z" fill="#D9D9D9"/>
<path d="M684.065 261.166C685.992 259.469 682.455 256.81 681.235 257.974C680.014 259.138 683.423 262.62 684.065 261.166Z" fill="#D9D9D9"/>
<path d="M673.928 256.092C675.855 254.394 672.318 251.736 671.098 252.9C669.878 254.064 673.287 257.546 673.928 256.092Z" fill="#D9D9D9"/>
<path d="M696.84 246.321C694.953 248.061 698.538 250.652 699.731 249.462C700.924 248.271 697.45 244.852 696.84 246.321Z" fill="#D9D9D9"/>
<path d="M695.203 235.284C693.316 237.024 696.901 239.615 698.094 238.424C699.288 237.234 695.813 233.815 695.203 235.284Z" fill="#D9D9D9"/>
<path d="M714.492 259.224C712.605 260.964 716.19 263.555 717.383 262.364C718.577 261.173 715.102 257.754 714.492 259.224Z" fill="#D9D9D9"/>
<path d="M722.168 255.007C720.281 256.747 723.866 259.338 725.059 258.147C726.253 256.956 722.778 253.538 722.168 255.007Z" fill="#D9D9D9"/>
<path d="M731.492 249.198C729.605 250.938 733.19 253.529 734.383 252.338C735.577 251.148 732.102 247.729 731.492 249.198Z" fill="#D9D9D9"/>
<path d="M716.606 282.002C718.719 283.87 720.692 280.35 719.264 279.167C717.836 277.985 715.002 281.393 716.606 282.002Z" fill="#D9D9D9"/>
<path d="M729.746 288.726C729.326 286.055 725.328 287.129 725.667 288.879C726.006 290.629 730.62 290.204 729.746 288.726Z" fill="#D9D9D9"/>
<path d="M735.867 295.03C733.98 296.77 737.565 299.361 738.758 298.171C739.952 296.98 736.477 293.561 735.867 295.03Z" fill="#D9D9D9"/>
<path d="M686.995 285.805C687.887 283.372 683.666 282.41 683.141 284.034C682.616 285.658 687.096 287.45 686.995 285.805Z" fill="#D9D9D9"/>
<path d="M698.051 277.197C699.995 282.351 707.198 278.553 705.802 275.202C704.405 271.851 695.747 274.609 698.051 277.197Z" fill="#741F5E" stroke="#D9D9D9" stroke-width="2"/>
<path d="M692.423 252.734C688.841 248.398 683.664 254.557 686.113 257.33C688.562 260.103 695.423 254.454 692.423 252.734Z" fill="#741F5E" stroke="#D9D9D9" stroke-width="2"/>
<path d="M710.52 256.973C711.815 251.92 703.302 250.77 702.576 254.13C701.851 257.491 711.034 260.259 710.52 256.973Z" fill="#741F5E" stroke="#D9D9D9" stroke-width="2"/>
<path d="M686.485 266.356C682.711 269.835 689.88 275.017 692.267 272.636C694.653 270.254 687.705 263.417 686.485 266.356Z" fill="#741F5E" stroke="#D9D9D9" stroke-width="2"/>
<path d="M713.466 271.617C716.724 267.657 709.036 263.34 706.999 266.026C704.963 268.711 712.644 274.718 713.466 271.617Z" fill="#741F5E" stroke="#D9D9D9" stroke-width="2"/>
<path d="M681.713 292.951C681.749 290.291 677.561 290.668 677.601 292.421C677.641 294.175 682.334 294.53 681.713 292.951Z" fill="#D9D9D9"/>
<path d="M676.114 301.297C676.983 298.854 672.757 297.928 672.247 299.558C671.737 301.188 676.229 302.942 676.114 301.297Z" fill="#D9D9D9"/>
<path d="M695.821 223.081C693.933 224.821 697.518 227.412 698.712 226.221C699.905 225.031 696.43 221.612 695.821 223.081Z" fill="#D9D9D9"/>
<path d="M696.746 261.673C696.465 262.005 692.335 261.089 692.329 261.619C692.322 262.149 696.298 264.253 696.435 264.73C696.573 265.207 695.242 268.887 695.728 269.161C696.213 269.436 698.625 266.429 699.272 266.495C699.919 266.561 702.496 268.445 703.486 268.506C704.476 268.568 701.76 264.066 701.76 264.066C701.76 264.066 704.82 262.018 704.84 261.259C704.861 260.501 700.397 261.295 700.031 261.101C699.664 260.908 698.137 256.696 697.537 256.623C696.937 256.549 697.027 261.34 696.746 261.673Z" fill="#D9D9D9"/>
<path d="M501.896 133L500.436 138.68H497.096L499.476 133H501.896ZM506.176 133L504.716 138.68H501.376L503.756 133H506.176ZM512.575 148V142.78L506.775 134H510.735L514.395 139.74L518.075 134H521.815L516.015 142.78V148H512.575ZM524.992 148.2C523.912 148.2 522.939 147.96 522.072 147.48C521.206 146.987 520.519 146.327 520.012 145.5C519.506 144.673 519.252 143.747 519.252 142.72C519.252 141.693 519.506 140.767 520.012 139.94C520.519 139.1 521.206 138.44 522.072 137.96C522.939 137.467 523.912 137.22 524.992 137.22C526.072 137.22 527.046 137.467 527.912 137.96C528.779 138.44 529.466 139.1 529.972 139.94C530.479 140.767 530.732 141.693 530.732 142.72C530.732 143.747 530.479 144.673 529.972 145.5C529.466 146.327 528.779 146.987 527.912 147.48C527.046 147.96 526.072 148.2 524.992 148.2ZM524.992 145.4C525.486 145.4 525.926 145.28 526.312 145.04C526.699 144.8 527.006 144.48 527.232 144.08C527.459 143.667 527.572 143.213 527.572 142.72C527.572 142.213 527.459 141.76 527.232 141.36C527.006 140.947 526.692 140.62 526.292 140.38C525.906 140.14 525.472 140.02 524.992 140.02C524.512 140.02 524.072 140.14 523.672 140.38C523.286 140.62 522.979 140.947 522.752 141.36C522.526 141.76 522.412 142.213 522.412 142.72C522.412 143.213 522.526 143.667 522.752 144.08C522.979 144.48 523.286 144.8 523.672 145.04C524.072 145.28 524.512 145.4 524.992 145.4ZM536.392 148.2C535.565 148.2 534.832 148.02 534.192 147.66C533.565 147.3 533.072 146.8 532.712 146.16C532.352 145.507 532.172 144.767 532.172 143.94V137.42H535.412V143.5C535.412 144.073 535.585 144.54 535.932 144.9C536.292 145.247 536.759 145.42 537.332 145.42C537.745 145.42 538.112 145.347 538.432 145.2C538.752 145.053 539.019 144.847 539.232 144.58V137.42H542.472V148H539.232V147.28C538.432 147.893 537.485 148.2 536.392 148.2ZM549.819 148.14C548.552 148.14 547.592 147.86 546.939 147.3C546.299 146.727 545.979 145.887 545.979 144.78V140.12H543.839V137.42H545.979V134.7L549.219 134V137.42H552.179V140.12H549.219V144.14C549.219 144.607 549.319 144.94 549.519 145.14C549.732 145.327 550.099 145.42 550.619 145.42C550.885 145.42 551.125 145.407 551.339 145.38C551.565 145.34 551.812 145.28 552.079 145.2V147.82C551.785 147.913 551.412 147.987 550.959 148.04C550.505 148.107 550.125 148.14 549.819 148.14ZM553.443 148V134L556.683 133.3V138.14C557.483 137.527 558.43 137.22 559.523 137.22C560.35 137.22 561.077 137.4 561.703 137.76C562.343 138.12 562.843 138.62 563.203 139.26C563.563 139.9 563.743 140.64 563.743 141.48V148H560.503V141.92C560.503 141.333 560.33 140.867 559.983 140.52C559.637 140.173 559.17 140 558.583 140C558.17 140 557.803 140.073 557.483 140.22C557.177 140.367 556.91 140.573 556.683 140.84V148H553.443ZM569.736 148V134H573.176V148H569.736ZM575.338 148V137.42H578.578V138.14C579.378 137.527 580.325 137.22 581.418 137.22C582.245 137.22 582.971 137.4 583.598 137.76C584.238 138.12 584.738 138.62 585.098 139.26C585.458 139.9 585.638 140.64 585.638 141.48V148H582.398V141.92C582.398 141.333 582.225 140.867 581.878 140.52C581.531 140.173 581.065 140 580.478 140C580.065 140 579.698 140.073 579.378 140.22C579.071 140.367 578.805 140.573 578.578 140.84V148H575.338ZM587.564 148V137.42H590.804V138.14C591.604 137.527 592.551 137.22 593.644 137.22C594.471 137.22 595.198 137.4 595.824 137.76C596.464 138.12 596.964 138.62 597.324 139.26C597.684 139.9 597.864 140.64 597.864 141.48V148H594.624V141.92C594.624 141.333 594.451 140.867 594.104 140.52C593.758 140.173 593.291 140 592.704 140C592.291 140 591.924 140.073 591.604 140.22C591.298 140.367 591.031 140.573 590.804 140.84V148H587.564ZM605.051 148.2C603.971 148.2 602.998 147.96 602.131 147.48C601.264 146.987 600.578 146.327 600.071 145.5C599.564 144.673 599.311 143.747 599.311 142.72C599.311 141.693 599.564 140.767 600.071 139.94C600.578 139.1 601.264 138.44 602.131 137.96C602.998 137.467 603.971 137.22 605.051 137.22C606.131 137.22 607.104 137.467 607.971 137.96C608.838 138.44 609.524 139.1 610.031 139.94C610.538 140.767 610.791 141.693 610.791 142.72C610.791 143.747 610.538 144.673 610.031 145.5C609.524 146.327 608.838 146.987 607.971 147.48C607.104 147.96 606.131 148.2 605.051 148.2ZM605.051 145.4C605.544 145.4 605.984 145.28 606.371 145.04C606.758 144.8 607.064 144.48 607.291 144.08C607.518 143.667 607.631 143.213 607.631 142.72C607.631 142.213 607.518 141.76 607.291 141.36C607.064 140.947 606.751 140.62 606.351 140.38C605.964 140.14 605.531 140.02 605.051 140.02C604.571 140.02 604.131 140.14 603.731 140.38C603.344 140.62 603.038 140.947 602.811 141.36C602.584 141.76 602.471 142.213 602.471 142.72C602.471 143.213 602.584 143.667 602.811 144.08C603.038 144.48 603.344 144.8 603.731 145.04C604.131 145.28 604.571 145.4 605.051 145.4ZM615.498 148L610.978 137.42H614.498L617.118 143.9L619.738 137.42H623.178L618.658 148H615.498ZM627.312 148.18C626.565 148.18 625.898 148.04 625.312 147.76C624.738 147.48 624.285 147.093 623.952 146.6C623.632 146.107 623.472 145.54 623.472 144.9C623.472 143.887 623.852 143.107 624.612 142.56C625.385 142 626.458 141.72 627.832 141.72C628.658 141.72 629.458 141.82 630.232 142.02V141.5C630.232 140.967 630.058 140.573 629.712 140.32C629.378 140.053 628.878 139.92 628.212 139.92C627.798 139.92 627.332 139.987 626.812 140.12C626.305 140.253 625.705 140.467 625.012 140.76L623.852 138.38C624.718 137.993 625.552 137.707 626.352 137.52C627.165 137.32 627.978 137.22 628.792 137.22C630.258 137.22 631.398 137.573 632.212 138.28C633.025 138.973 633.432 139.953 633.432 141.22V148H630.232V147.36C629.805 147.653 629.352 147.867 628.872 148C628.405 148.12 627.885 148.18 627.312 148.18ZM626.552 144.84C626.552 145.173 626.698 145.433 626.992 145.62C627.285 145.807 627.692 145.9 628.212 145.9C628.598 145.9 628.958 145.86 629.292 145.78C629.638 145.7 629.952 145.573 630.232 145.4V144.04C629.925 143.96 629.612 143.9 629.292 143.86C628.972 143.82 628.645 143.8 628.312 143.8C627.752 143.8 627.318 143.893 627.012 144.08C626.705 144.253 626.552 144.507 626.552 144.84ZM640.404 148.14C639.138 148.14 638.178 147.86 637.524 147.3C636.884 146.727 636.564 145.887 636.564 144.78V140.12H634.424V137.42H636.564V134.7L639.804 134V137.42H642.764V140.12H639.804V144.14C639.804 144.607 639.904 144.94 640.104 145.14C640.318 145.327 640.684 145.42 641.204 145.42C641.471 145.42 641.711 145.407 641.924 145.38C642.151 145.34 642.398 145.28 642.664 145.2V147.82C642.371 147.913 641.998 147.987 641.544 148.04C641.091 148.107 640.711 148.14 640.404 148.14ZM644.029 148V137.42H647.269V148H644.029ZM645.649 136.44C645.156 136.44 644.736 136.267 644.389 135.92C644.043 135.573 643.869 135.153 643.869 134.66C643.869 134.167 644.043 133.747 644.389 133.4C644.736 133.053 645.156 132.88 645.649 132.88C646.143 132.88 646.563 133.053 646.909 133.4C647.256 133.747 647.429 134.167 647.429 134.66C647.429 135.153 647.256 135.573 646.909 135.92C646.563 136.267 646.143 136.44 645.649 136.44ZM654.524 148.2C653.444 148.2 652.47 147.96 651.604 147.48C650.737 146.987 650.05 146.327 649.544 145.5C649.037 144.673 648.784 143.747 648.784 142.72C648.784 141.693 649.037 140.767 649.544 139.94C650.05 139.1 650.737 138.44 651.604 137.96C652.47 137.467 653.444 137.22 654.524 137.22C655.604 137.22 656.577 137.467 657.444 137.96C658.31 138.44 658.997 139.1 659.504 139.94C660.01 140.767 660.264 141.693 660.264 142.72C660.264 143.747 660.01 144.673 659.504 145.5C658.997 146.327 658.31 146.987 657.444 147.48C656.577 147.96 655.604 148.2 654.524 148.2ZM654.524 145.4C655.017 145.4 655.457 145.28 655.844 145.04C656.23 144.8 656.537 144.48 656.764 144.08C656.99 143.667 657.104 143.213 657.104 142.72C657.104 142.213 656.99 141.76 656.764 141.36C656.537 140.947 656.224 140.62 655.824 140.38C655.437 140.14 655.004 140.02 654.524 140.02C654.044 140.02 653.604 140.14 653.204 140.38C652.817 140.62 652.51 140.947 652.284 141.36C652.057 141.76 651.944 142.213 651.944 142.72C651.944 143.213 652.057 143.667 652.284 144.08C652.51 144.48 652.817 144.8 653.204 145.04C653.604 145.28 654.044 145.4 654.524 145.4ZM661.783 148V137.42H665.023V138.14C665.823 137.527 666.77 137.22 667.863 137.22C668.69 137.22 669.417 137.4 670.043 137.76C670.683 138.12 671.183 138.62 671.543 139.26C671.903 139.9 672.083 140.64 672.083 141.48V148H668.843V141.92C668.843 141.333 668.67 140.867 668.323 140.52C667.977 140.173 667.51 140 666.923 140C666.51 140 666.143 140.073 665.823 140.22C665.517 140.367 665.25 140.573 665.023 140.84V148H661.783ZM679.596 148V140.12H677.276V137.42H679.596V136.78C679.596 135.527 679.963 134.573 680.696 133.92C681.443 133.253 682.509 132.92 683.896 132.92C684.176 132.92 684.476 132.94 684.796 132.98C685.129 133.007 685.403 133.053 685.616 133.12V135.8C685.363 135.747 685.136 135.713 684.936 135.7C684.749 135.673 684.549 135.66 684.336 135.66C683.843 135.66 683.469 135.76 683.216 135.96C682.963 136.147 682.836 136.44 682.836 136.84V137.42H685.616V140.12H682.836V148H679.596ZM691.828 148.2C690.748 148.2 689.775 147.96 688.908 147.48C688.042 146.987 687.355 146.327 686.848 145.5C686.342 144.673 686.088 143.747 686.088 142.72C686.088 141.693 686.342 140.767 686.848 139.94C687.355 139.1 688.042 138.44 688.908 137.96C689.775 137.467 690.748 137.22 691.828 137.22C692.908 137.22 693.882 137.467 694.748 137.96C695.615 138.44 696.302 139.1 696.808 139.94C697.315 140.767 697.568 141.693 697.568 142.72C697.568 143.747 697.315 144.673 696.808 145.5C696.302 146.327 695.615 146.987 694.748 147.48C693.882 147.96 692.908 148.2 691.828 148.2ZM691.828 145.4C692.322 145.4 692.762 145.28 693.148 145.04C693.535 144.8 693.842 144.48 694.068 144.08C694.295 143.667 694.408 143.213 694.408 142.72C694.408 142.213 694.295 141.76 694.068 141.36C693.842 140.947 693.528 140.62 693.128 140.38C692.742 140.14 692.308 140.02 691.828 140.02C691.348 140.02 690.908 140.14 690.508 140.38C690.122 140.62 689.815 140.947 689.588 141.36C689.362 141.76 689.248 142.213 689.248 142.72C689.248 143.213 689.362 143.667 689.588 144.08C689.815 144.48 690.122 144.8 690.508 145.04C690.908 145.28 691.348 145.4 691.828 145.4ZM699.088 148V137.42H702.328V138.48C702.675 138.053 703.081 137.733 703.548 137.52C704.015 137.293 704.535 137.18 705.108 137.18C705.681 137.193 706.088 137.28 706.328 137.44V140.26C706.115 140.153 705.875 140.073 705.608 140.02C705.341 139.967 705.068 139.94 704.788 139.94C704.281 139.94 703.808 140.06 703.368 140.3C702.941 140.527 702.595 140.853 702.328 141.28V148H699.088ZM715.007 148.18C714.26 148.18 713.594 148.04 713.007 147.76C712.434 147.48 711.98 147.093 711.647 146.6C711.327 146.107 711.167 145.54 711.167 144.9C711.167 143.887 711.547 143.107 712.307 142.56C713.08 142 714.154 141.72 715.527 141.72C716.354 141.72 717.154 141.82 717.927 142.02V141.5C717.927 140.967 717.754 140.573 717.407 140.32C717.074 140.053 716.574 139.92 715.907 139.92C715.494 139.92 715.027 139.987 714.507 140.12C714 140.253 713.4 140.467 712.707 140.76L711.547 138.38C712.414 137.993 713.247 137.707 714.047 137.52C714.86 137.32 715.674 137.22 716.487 137.22C717.954 137.22 719.094 137.573 719.907 138.28C720.72 138.973 721.127 139.953 721.127 141.22V148H717.927V147.36C717.5 147.653 717.047 147.867 716.567 148C716.1 148.12 715.58 148.18 715.007 148.18ZM714.247 144.84C714.247 145.173 714.394 145.433 714.687 145.62C714.98 145.807 715.387 145.9 715.907 145.9C716.294 145.9 716.654 145.86 716.987 145.78C717.334 145.7 717.647 145.573 717.927 145.4V144.04C717.62 143.96 717.307 143.9 716.987 143.86C716.667 143.82 716.34 143.8 716.007 143.8C715.447 143.8 715.014 143.893 714.707 144.08C714.4 144.253 714.247 144.507 714.247 144.84ZM732.279 148.2C731.146 148.2 730.026 147.993 728.919 147.58C727.812 147.167 726.826 146.593 725.959 145.86L727.879 143.36C728.732 144.053 729.519 144.553 730.239 144.86C730.959 145.153 731.726 145.3 732.539 145.3C733.072 145.3 733.526 145.247 733.899 145.14C734.272 145.033 734.559 144.88 734.759 144.68C734.959 144.467 735.059 144.22 735.059 143.94C735.059 143.553 734.912 143.253 734.619 143.04C734.326 142.827 733.826 142.66 733.119 142.54L730.039 142C728.906 141.8 728.032 141.367 727.419 140.7C726.806 140.033 726.499 139.187 726.499 138.16C726.499 137.253 726.726 136.473 727.179 135.82C727.646 135.167 728.306 134.667 729.159 134.32C730.026 133.973 731.052 133.8 732.239 133.8C733.279 133.8 734.326 133.98 735.379 134.34C736.432 134.687 737.346 135.173 738.119 135.8L736.299 138.34C734.859 137.233 733.426 136.68 731.999 136.68C731.532 136.68 731.126 136.733 730.779 136.84C730.446 136.933 730.186 137.073 729.999 137.26C729.826 137.433 729.739 137.647 729.739 137.9C729.739 138.247 729.866 138.513 730.119 138.7C730.386 138.887 730.812 139.033 731.399 139.14L734.299 139.62C735.646 139.833 736.666 140.28 737.359 140.96C738.066 141.64 738.419 142.52 738.419 143.6C738.419 144.547 738.172 145.367 737.679 146.06C737.186 146.74 736.479 147.267 735.559 147.64C734.639 148.013 733.546 148.2 732.279 148.2ZM743.97 148.2C743.143 148.2 742.41 148.02 741.77 147.66C741.143 147.3 740.65 146.8 740.29 146.16C739.93 145.507 739.75 144.767 739.75 143.94V137.42H742.99V143.5C742.99 144.073 743.163 144.54 743.51 144.9C743.87 145.247 744.337 145.42 744.91 145.42C745.323 145.42 745.69 145.347 746.01 145.2C746.33 145.053 746.597 144.847 746.81 144.58V137.42H750.05V148H746.81V147.28C746.01 147.893 745.063 148.2 743.97 148.2ZM756.237 148.2C755.237 148.2 754.31 148.087 753.457 147.86C752.603 147.62 751.863 147.273 751.237 146.82L752.777 144.64C753.443 145.04 754.05 145.333 754.597 145.52C755.143 145.693 755.683 145.78 756.217 145.78C756.75 145.78 757.17 145.707 757.477 145.56C757.797 145.4 757.957 145.193 757.957 144.94C757.957 144.74 757.87 144.58 757.697 144.46C757.523 144.327 757.25 144.233 756.877 144.18L754.777 143.86C753.723 143.7 752.917 143.353 752.357 142.82C751.81 142.273 751.537 141.567 751.537 140.7C751.537 139.98 751.717 139.367 752.077 138.86C752.45 138.34 752.977 137.947 753.657 137.68C754.337 137.4 755.15 137.26 756.097 137.26C756.87 137.26 757.637 137.367 758.397 137.58C759.157 137.793 759.863 138.113 760.517 138.54L758.977 140.62C758.403 140.287 757.857 140.047 757.337 139.9C756.817 139.74 756.297 139.66 755.777 139.66C755.363 139.66 755.03 139.733 754.777 139.88C754.523 140.013 754.397 140.193 754.397 140.42C754.397 140.633 754.49 140.807 754.677 140.94C754.863 141.06 755.183 141.153 755.637 141.22L757.737 141.54C758.777 141.687 759.577 142.033 760.137 142.58C760.71 143.113 760.997 143.793 760.997 144.62C760.997 145.313 760.79 145.927 760.377 146.46C759.963 146.993 759.397 147.42 758.677 147.74C757.97 148.047 757.157 148.2 756.237 148.2ZM767.377 148.14C766.11 148.14 765.15 147.86 764.497 147.3C763.857 146.727 763.537 145.887 763.537 144.78V140.12H761.397V137.42H763.537V134.7L766.777 134V137.42H769.737V140.12H766.777V144.14C766.777 144.607 766.877 144.94 767.077 145.14C767.29 145.327 767.657 145.42 768.177 145.42C768.444 145.42 768.684 145.407 768.897 145.38C769.124 145.34 769.37 145.28 769.637 145.2V147.82C769.344 147.913 768.97 147.987 768.517 148.04C768.064 148.107 767.684 148.14 767.377 148.14ZM774.382 148.18C773.635 148.18 772.969 148.04 772.382 147.76C771.809 147.48 771.355 147.093 771.022 146.6C770.702 146.107 770.542 145.54 770.542 144.9C770.542 143.887 770.922 143.107 771.682 142.56C772.455 142 773.529 141.72 774.902 141.72C775.729 141.72 776.529 141.82 777.302 142.02V141.5C777.302 140.967 777.129 140.573 776.782 140.32C776.449 140.053 775.949 139.92 775.282 139.92C774.869 139.92 774.402 139.987 773.882 140.12C773.375 140.253 772.775 140.467 772.082 140.76L770.922 138.38C771.789 137.993 772.622 137.707 773.422 137.52C774.235 137.32 775.049 137.22 775.862 137.22C777.329 137.22 778.469 137.573 779.282 138.28C780.095 138.973 780.502 139.953 780.502 141.22V148H777.302V147.36C776.875 147.653 776.422 147.867 775.942 148C775.475 148.12 774.955 148.18 774.382 148.18ZM773.622 144.84C773.622 145.173 773.769 145.433 774.062 145.62C774.355 145.807 774.762 145.9 775.282 145.9C775.669 145.9 776.029 145.86 776.362 145.78C776.709 145.7 777.022 145.573 777.302 145.4V144.04C776.995 143.96 776.682 143.9 776.362 143.86C776.042 143.82 775.715 143.8 775.382 143.8C774.822 143.8 774.389 143.893 774.082 144.08C773.775 144.253 773.622 144.507 773.622 144.84ZM782.428 148V137.42H785.668V148H782.428ZM784.048 136.44C783.554 136.44 783.134 136.267 782.788 135.92C782.441 135.573 782.268 135.153 782.268 134.66C782.268 134.167 782.441 133.747 782.788 133.4C783.134 133.053 783.554 132.88 784.048 132.88C784.541 132.88 784.961 133.053 785.308 133.4C785.654 133.747 785.828 134.167 785.828 134.66C785.828 135.153 785.654 135.573 785.308 135.92C784.961 136.267 784.541 136.44 784.048 136.44ZM787.662 148V137.42H790.902V138.14C791.702 137.527 792.649 137.22 793.742 137.22C794.569 137.22 795.295 137.4 795.922 137.76C796.562 138.12 797.062 138.62 797.422 139.26C797.782 139.9 797.962 140.64 797.962 141.48V148H794.722V141.92C794.722 141.333 794.549 140.867 794.202 140.52C793.855 140.173 793.389 140 792.802 140C792.389 140 792.022 140.073 791.702 140.22C791.395 140.367 791.129 140.573 790.902 140.84V148H787.662ZM803.269 148.18C802.522 148.18 801.855 148.04 801.269 147.76C800.695 147.48 800.242 147.093 799.909 146.6C799.589 146.107 799.429 145.54 799.429 144.9C799.429 143.887 799.809 143.107 800.569 142.56C801.342 142 802.415 141.72 803.789 141.72C804.615 141.72 805.415 141.82 806.189 142.02V141.5C806.189 140.967 806.015 140.573 805.669 140.32C805.335 140.053 804.835 139.92 804.169 139.92C803.755 139.92 803.289 139.987 802.769 140.12C802.262 140.253 801.662 140.467 800.969 140.76L799.809 138.38C800.675 137.993 801.509 137.707 802.309 137.52C803.122 137.32 803.935 137.22 804.749 137.22C806.215 137.22 807.355 137.573 808.169 138.28C808.982 138.973 809.389 139.953 809.389 141.22V148H806.189V147.36C805.762 147.653 805.309 147.867 804.829 148C804.362 148.12 803.842 148.18 803.269 148.18ZM802.509 144.84C802.509 145.173 802.655 145.433 802.949 145.62C803.242 145.807 803.649 145.9 804.169 145.9C804.555 145.9 804.915 145.86 805.249 145.78C805.595 145.7 805.909 145.573 806.189 145.4V144.04C805.882 143.96 805.569 143.9 805.249 143.86C804.929 143.82 804.602 143.8 804.269 143.8C803.709 143.8 803.275 143.893 802.969 144.08C802.662 144.253 802.509 144.507 802.509 144.84ZM811.314 148V134L814.554 133.5V138.16C815.381 137.573 816.314 137.28 817.354 137.28C818.368 137.28 819.281 137.527 820.094 138.02C820.908 138.5 821.554 139.153 822.034 139.98C822.514 140.793 822.754 141.707 822.754 142.72C822.754 143.733 822.508 144.653 822.014 145.48C821.534 146.293 820.874 146.94 820.034 147.42C819.208 147.9 818.281 148.14 817.254 148.14C816.761 148.14 816.281 148.08 815.814 147.96C815.348 147.827 814.914 147.64 814.514 147.4V148H811.314ZM816.794 145.4C817.328 145.4 817.801 145.287 818.214 145.06C818.628 144.82 818.954 144.5 819.194 144.1C819.448 143.687 819.574 143.227 819.574 142.72C819.574 142.213 819.448 141.76 819.194 141.36C818.954 140.947 818.621 140.627 818.194 140.4C817.781 140.16 817.314 140.04 816.794 140.04C816.341 140.04 815.928 140.113 815.554 140.26C815.181 140.393 814.848 140.6 814.554 140.88V144.58C814.834 144.833 815.168 145.033 815.554 145.18C815.941 145.327 816.354 145.4 816.794 145.4ZM824.283 148V134L827.523 133.5V148H824.283ZM834.798 148.2C833.718 148.2 832.738 147.96 831.858 147.48C830.991 146.987 830.304 146.327 829.798 145.5C829.291 144.673 829.038 143.747 829.038 142.72C829.038 141.693 829.278 140.767 829.758 139.94C830.251 139.113 830.918 138.46 831.758 137.98C832.598 137.487 833.531 137.24 834.558 137.24C835.598 137.24 836.518 137.493 837.318 138C838.118 138.493 838.744 139.173 839.198 140.04C839.664 140.907 839.898 141.9 839.898 143.02V143.82H832.358C832.504 144.153 832.698 144.447 832.938 144.7C833.191 144.953 833.491 145.153 833.838 145.3C834.184 145.433 834.558 145.5 834.958 145.5C835.398 145.5 835.798 145.433 836.158 145.3C836.518 145.153 836.824 144.953 837.078 144.7L839.218 146.6C838.551 147.16 837.864 147.567 837.158 147.82C836.464 148.073 835.678 148.2 834.798 148.2ZM832.298 141.56H836.718C836.611 141.213 836.444 140.92 836.218 140.68C836.004 140.427 835.751 140.233 835.458 140.1C835.164 139.953 834.844 139.88 834.498 139.88C834.138 139.88 833.811 139.947 833.518 140.08C833.224 140.213 832.971 140.407 832.758 140.66C832.558 140.9 832.404 141.2 832.298 141.56ZM845.478 148V134H856.598V136.98H848.918V139.6H854.038V142.48H848.918V148H845.478ZM861.587 148.2C860.761 148.2 860.027 148.02 859.387 147.66C858.761 147.3 858.267 146.8 857.907 146.16C857.547 145.507 857.367 144.767 857.367 143.94V137.42H860.607V143.5C860.607 144.073 860.781 144.54 861.127 144.9C861.487 145.247 861.954 145.42 862.527 145.42C862.941 145.42 863.307 145.347 863.627 145.2C863.947 145.053 864.214 144.847 864.427 144.58V137.42H867.667V148H864.427V147.28C863.627 147.893 862.681 148.2 861.587 148.2ZM875.014 148.14C873.747 148.14 872.787 147.86 872.134 147.3C871.494 146.727 871.174 145.887 871.174 144.78V140.12H869.034V137.42H871.174V134.7L874.414 134V137.42H877.374V140.12H874.414V144.14C874.414 144.607 874.514 144.94 874.714 145.14C874.927 145.327 875.294 145.42 875.814 145.42C876.08 145.42 876.32 145.407 876.534 145.38C876.76 145.34 877.007 145.28 877.274 145.2V147.82C876.98 147.913 876.607 147.987 876.154 148.04C875.7 148.107 875.32 148.14 875.014 148.14ZM882.779 148.2C881.952 148.2 881.219 148.02 880.579 147.66C879.952 147.3 879.459 146.8 879.099 146.16C878.739 145.507 878.559 144.767 878.559 143.94V137.42H881.799V143.5C881.799 144.073 881.972 144.54 882.319 144.9C882.679 145.247 883.145 145.42 883.719 145.42C884.132 145.42 884.499 145.347 884.819 145.2C885.139 145.053 885.405 144.847 885.619 144.58V137.42H888.859V148H885.619V147.28C884.819 147.893 883.872 148.2 882.779 148.2ZM890.865 148V137.42H894.105V138.48C894.452 138.053 894.859 137.733 895.325 137.52C895.792 137.293 896.312 137.18 896.885 137.18C897.459 137.193 897.865 137.28 898.105 137.44V140.26C897.892 140.153 897.652 140.073 897.385 140.02C897.119 139.967 896.845 139.94 896.565 139.94C896.059 139.94 895.585 140.06 895.145 140.3C894.719 140.527 894.372 140.853 894.105 141.28V148H890.865ZM904.485 148.2C903.405 148.2 902.425 147.96 901.545 147.48C900.678 146.987 899.992 146.327 899.485 145.5C898.978 144.673 898.725 143.747 898.725 142.72C898.725 141.693 898.965 140.767 899.445 139.94C899.938 139.113 900.605 138.46 901.445 137.98C902.285 137.487 903.218 137.24 904.245 137.24C905.285 137.24 906.205 137.493 907.005 138C907.805 138.493 908.432 139.173 908.885 140.04C909.352 140.907 909.585 141.9 909.585 143.02V143.82H902.045C902.192 144.153 902.385 144.447 902.625 144.7C902.878 144.953 903.178 145.153 903.525 145.3C903.872 145.433 904.245 145.5 904.645 145.5C905.085 145.5 905.485 145.433 905.845 145.3C906.205 145.153 906.512 144.953 906.765 144.7L908.905 146.6C908.238 147.16 907.552 147.567 906.845 147.82C906.152 148.073 905.365 148.2 904.485 148.2ZM901.985 141.56H906.405C906.298 141.213 906.132 140.92 905.905 140.68C905.692 140.427 905.438 140.233 905.145 140.1C904.852 139.953 904.532 139.88 904.185 139.88C903.825 139.88 903.498 139.947 903.205 140.08C902.912 140.213 902.658 140.407 902.445 140.66C902.245 140.9 902.092 141.2 901.985 141.56ZM914.107 138.68L915.567 133H918.907L916.527 138.68H914.107ZM909.827 138.68L911.287 133H914.627L912.247 138.68H909.827Z" fill="white"/>
<defs>
<filter id="filter0_d_2375_2" x="873.762" y="83" width="544.238" height="330" filterUnits="userSpaceOnUse" color-interpolation-filters="sRGB">
<feFlood flood-opacity="0" result="BackgroundImageFix"/>
<feColorMatrix in="SourceAlpha" type="matrix" values="0 0 0 0 0 0 0 0 0 0 0 0 0 0 0 0 0 0 127 0" result="hardAlpha"/>
<feOffset dy="4"/>
<feGaussianBlur stdDeviation="62.5"/>
<feComposite in2="hardAlpha" operator="out"/>
<feColorMatrix type="matrix" values="0 0 0 0 0.602456 0 0 0 0 0.862489 0 0 0 0 0.9525 0 0 0 0.54 0"/>
<feBlend mode="normal" in2="BackgroundImageFix" result="effect1_dropShadow_2375_2"/>
<feBlend mode="normal" in="SourceGraphic" in2="effect1_dropShadow_2375_2" result="shape"/>
</filter>
<filter id="filter1_d_2375_2" x="0" y="83" width="544.238" height="330" filterUnits="userSpaceOnUse" color-interpolation-filters="sRGB">
<feFlood flood-opacity="0" result="BackgroundImageFix"/>
<feColorMatrix in="SourceAlpha" type="matrix" values="0 0 0 0 0 0 0 0 0 0 0 0 0 0 0 0 0 0 127 0" result="hardAlpha"/>
<feOffset dy="4"/>
<feGaussianBlur stdDeviation="62.5"/>
<feComposite in2="hardAlpha" operator="out"/>
<feColorMatrix type="matrix" values="0 0 0 0 0.602456 0 0 0 0 0.862489 0 0 0 0 0.9525 0 0 0 0.54 0"/>
<feBlend mode="normal" in2="BackgroundImageFix" result="effect1_dropShadow_2375_2"/>
<feBlend mode="normal" in="SourceGraphic" in2="effect1_dropShadow_2375_2" result="shape"/>
</filter>
<filter id="filter2_d_2375_2" x="748.516" y="101" width="543.242" height="329" filterUnits="userSpaceOnUse" color-interpolation-filters="sRGB">
<feFlood flood-opacity="0" result="BackgroundImageFix"/>
<feColorMatrix in="SourceAlpha" type="matrix" values="0 0 0 0 0 0 0 0 0 0 0 0 0 0 0 0 0 0 127 0" result="hardAlpha"/>
<feOffset dy="4"/>
<feGaussianBlur stdDeviation="62.5"/>
<feComposite in2="hardAlpha" operator="out"/>
<feColorMatrix type="matrix" values="0 0 0 0 0.602456 0 0 0 0 0.862489 0 0 0 0 0.9525 0 0 0 0.54 0"/>
<feBlend mode="normal" in2="BackgroundImageFix" result="effect1_dropShadow_2375_2"/>
<feBlend mode="normal" in="SourceGraphic" in2="effect1_dropShadow_2375_2" result="shape"/>
</filter>
<filter id="filter3_d_2375_2" x="132.207" y="101" width="543.242" height="329" filterUnits="userSpaceOnUse" color-interpolation-filters="sRGB">
<feFlood flood-opacity="0" result="BackgroundImageFix"/>
<feColorMatrix in="SourceAlpha" type="matrix" values="0 0 0 0 0 0 0 0 0 0 0 0 0 0 0 0 0 0 127 0" result="hardAlpha"/>
<feOffset dy="4"/>
<feGaussianBlur stdDeviation="62.5"/>
<feComposite in2="hardAlpha" operator="out"/>
<feColorMatrix type="matrix" values="0 0 0 0 0.602456 0 0 0 0 0.862489 0 0 0 0 0.9525 0 0 0 0.54 0"/>
<feBlend mode="normal" in2="BackgroundImageFix" result="effect1_dropShadow_2375_2"/>
<feBlend mode="normal" in="SourceGraphic" in2="effect1_dropShadow_2375_2" result="shape"/>
</filter>
<filter id="filter4_d_2375_2" x="279.324" y="123" width="543.965" height="335.135" filterUnits="userSpaceOnUse" color-interpolation-filters="sRGB">
<feFlood flood-opacity="0" result="BackgroundImageFix"/>
<feColorMatrix in="SourceAlpha" type="matrix" values="0 0 0 0 0 0 0 0 0 0 0 0 0 0 0 0 0 0 127 0" result="hardAlpha"/>
<feOffset dy="4"/>
<feGaussianBlur stdDeviation="62.5"/>
<feComposite in2="hardAlpha" operator="out"/>
<feColorMatrix type="matrix" values="0 0 0 0 0.602456 0 0 0 0 0.862489 0 0 0 0 0.9525 0 0 0 0.54 0"/>
<feBlend mode="normal" in2="BackgroundImageFix" result="effect1_dropShadow_2375_2"/>
<feBlend mode="normal" in="SourceGraphic" in2="effect1_dropShadow_2375_2" result="shape"/>
</filter>
<filter id="filter5_d_2375_2" x="581.5" y="123" width="542.262" height="334.158" filterUnits="userSpaceOnUse" color-interpolation-filters="sRGB">
<feFlood flood-opacity="0" result="BackgroundImageFix"/>
<feColorMatrix in="SourceAlpha" type="matrix" values="0 0 0 0 0 0 0 0 0 0 0 0 0 0 0 0 0 0 127 0" result="hardAlpha"/>
<feOffset dy="4"/>
<feGaussianBlur stdDeviation="62.5"/>
<feComposite in2="hardAlpha" operator="out"/>
<feColorMatrix type="matrix" values="0 0 0 0 0.602456 0 0 0 0 0.862489 0 0 0 0 0.9525 0 0 0 0.54 0"/>
<feBlend mode="normal" in2="BackgroundImageFix" result="effect1_dropShadow_2375_2"/>
<feBlend mode="normal" in="SourceGraphic" in2="effect1_dropShadow_2375_2" result="shape"/>
</filter>
<filter id="filter6_d_2375_2" x="421.764" y="147.823" width="301.761" height="306.943" filterUnits="userSpaceOnUse" color-interpolation-filters="sRGB">
<feFlood flood-opacity="0" result="BackgroundImageFix"/>
<feColorMatrix in="SourceAlpha" type="matrix" values="0 0 0 0 0 0 0 0 0 0 0 0 0 0 0 0 0 0 127 0" result="hardAlpha"/>
<feOffset dy="4"/>
<feGaussianBlur stdDeviation="44.95"/>
<feComposite in2="hardAlpha" operator="out"/>
<feColorMatrix type="matrix" values="0 0 0 0 0.407843 0 0 0 0 0.0941176 0 0 0 0 0.129412 0 0 0 1 0"/>
<feBlend mode="normal" in2="BackgroundImageFix" result="effect1_dropShadow_2375_2"/>
<feBlend mode="normal" in="SourceGraphic" in2="effect1_dropShadow_2375_2" result="shape"/>
</filter>
<filter id="filter7_d_2375_2" x="414.786" y="143.995" width="313.557" height="319.713" filterUnits="userSpaceOnUse" color-interpolation-filters="sRGB">
<feFlood flood-opacity="0" result="BackgroundImageFix"/>
<feColorMatrix in="SourceAlpha" type="matrix" values="0 0 0 0 0 0 0 0 0 0 0 0 0 0 0 0 0 0 127 0" result="hardAlpha"/>
<feOffset dy="4"/>
<feGaussianBlur stdDeviation="51.4"/>
<feComposite in2="hardAlpha" operator="out"/>
<feColorMatrix type="matrix" values="0 0 0 0 0.847059 0 0 0 0 0.709804 0 0 0 0 0.458824 0 0 0 1 0"/>
<feBlend mode="normal" in2="BackgroundImageFix" result="effect1_dropShadow_2375_2"/>
<feBlend mode="normal" in="SourceGraphic" in2="effect1_dropShadow_2375_2" result="shape"/>
</filter>
<filter id="filter8_d_2375_2" x="692.448" y="137.676" width="301.761" height="306.943" filterUnits="userSpaceOnUse" color-interpolation-filters="sRGB">
<feFlood flood-opacity="0" result="BackgroundImageFix"/>
<feColorMatrix in="SourceAlpha" type="matrix" values="0 0 0 0 0 0 0 0 0 0 0 0 0 0 0 0 0 0 127 0" result="hardAlpha"/>
<feOffset dy="4"/>
<feGaussianBlur stdDeviation="44.95"/>
<feComposite in2="hardAlpha" operator="out"/>
<feColorMatrix type="matrix" values="0 0 0 0 0.407843 0 0 0 0 0.0941176 0 0 0 0 0.129412 0 0 0 1 0"/>
<feBlend mode="normal" in2="BackgroundImageFix" result="effect1_dropShadow_2375_2"/>
<feBlend mode="normal" in="SourceGraphic" in2="effect1_dropShadow_2375_2" result="shape"/>
</filter>
<filter id="filter9_d_2375_2" x="687.63" y="133.848" width="313.557" height="319.713" filterUnits="userSpaceOnUse" color-interpolation-filters="sRGB">
<feFlood flood-opacity="0" result="BackgroundImageFix"/>
<feColorMatrix in="SourceAlpha" type="matrix" values="0 0 0 0 0 0 0 0 0 0 0 0 0 0 0 0 0 0 127 0" result="hardAlpha"/>
<feOffset dy="4"/>
<feGaussianBlur stdDeviation="51.4"/>
<feComposite in2="hardAlpha" operator="out"/>
<feColorMatrix type="matrix" values="0 0 0 0 0.847059 0 0 0 0 0.709804 0 0 0 0 0.458824 0 0 0 1 0"/>
<feBlend mode="normal" in2="BackgroundImageFix" result="effect1_dropShadow_2375_2"/>
<feBlend mode="normal" in="SourceGraphic" in2="effect1_dropShadow_2375_2" result="shape"/>
</filter>
<filter id="filter10_d_2375_2" x="553.565" y="111.95" width="297.175" height="297.589" filterUnits="userSpaceOnUse" color-interpolation-filters="sRGB">
<feFlood flood-opacity="0" result="BackgroundImageFix"/>
<feColorMatrix in="SourceAlpha" type="matrix" values="0 0 0 0 0 0 0 0 0 0 0 0 0 0 0 0 0 0 127 0" result="hardAlpha"/>
<feOffset dy="4"/>
<feGaussianBlur stdDeviation="44.95"/>
<feComposite in2="hardAlpha" operator="out"/>
<feColorMatrix type="matrix" values="0 0 0 0 0.407843 0 0 0 0 0.0941176 0 0 0 0 0.129412 0 0 0 1 0"/>
<feBlend mode="normal" in2="BackgroundImageFix" result="effect1_dropShadow_2375_2"/>
<feBlend mode="normal" in="SourceGraphic" in2="effect1_dropShadow_2375_2" result="shape"/>
</filter>
<filter id="filter11_d_2375_2" x="546.302" y="108.442" width="308.682" height="309.772" filterUnits="userSpaceOnUse" color-interpolation-filters="sRGB">
<feFlood flood-opacity="0" result="BackgroundImageFix"/>
<feColorMatrix in="SourceAlpha" type="matrix" values="0 0 0 0 0 0 0 0 0 0 0 0 0 0 0 0 0 0 127 0" result="hardAlpha"/>
<feOffset dy="4"/>
<feGaussianBlur stdDeviation="51.4"/>
<feComposite in2="hardAlpha" operator="out"/>
<feColorMatrix type="matrix" values="0 0 0 0 0.847059 0 0 0 0 0.709804 0 0 0 0 0.458824 0 0 0 1 0"/>
<feBlend mode="normal" in2="BackgroundImageFix" result="effect1_dropShadow_2375_2"/>
<feBlend mode="normal" in="SourceGraphic" in2="effect1_dropShadow_2375_2" result="shape"/>
</filter>
<radialGradient id="paint0_radial_2375_2" cx="0" cy="0" r="1" gradientUnits="userSpaceOnUse" gradientTransform="translate(1230.73 233.697) rotate(178.617) scale(263.251 69.5695)">
<stop stop-color="#75D7D6"/>
<stop offset="0.288144" stop-color="#3CC1EC"/>
<stop offset="0.836667" stop-color="#C213BB"/>
<stop offset="1" stop-color="#D575D7"/>
</radialGradient>
<radialGradient id="paint1_radial_2375_2" cx="0" cy="0" r="1" gradientUnits="userSpaceOnUse" gradientTransform="translate(187.268 233.697) rotate(1.38316) scale(263.251 69.5695)">
<stop stop-color="#75D7D6"/>
<stop offset="0.288144" stop-color="#3CC1EC"/>
<stop offset="0.836667" stop-color="#C213BB"/>
<stop offset="1" stop-color="#D575D7"/>
</radialGradient>
<radialGradient id="paint2_radial_2375_2" cx="0" cy="0" r="1" gradientUnits="userSpaceOnUse" gradientTransform="translate(1104.7 251.326) rotate(178.629) scale(262.36 68.7002)">
<stop stop-color="#75D7D6"/>
<stop offset="0.288144" stop-color="#3CC1EC"/>
<stop offset="0.836667" stop-color="#C213BB"/>
<stop offset="1" stop-color="#D575D7"/>
</radialGradient>
<radialGradient id="paint3_radial_2375_2" cx="0" cy="0" r="1" gradientUnits="userSpaceOnUse" gradientTransform="translate(319.265 251.326) rotate(1.37051) scale(262.36 68.7002)">
<stop stop-color="#75D7D6"/>
<stop offset="0.288144" stop-color="#3CC1EC"/>
<stop offset="0.836667" stop-color="#C213BB"/>
<stop offset="1" stop-color="#D575D7"/>
</radialGradient>
<radialGradient id="paint4_radial_2375_2" cx="0" cy="0" r="1" gradientUnits="userSpaceOnUse" gradientTransform="translate(466.592 273.697) rotate(1.38316) scale(263.251 69.5695)">
<stop stop-color="#75D7D6"/>
<stop offset="0.288144" stop-color="#3CC1EC"/>
<stop offset="0.836667" stop-color="#C213BB"/>
<stop offset="1" stop-color="#D575D7"/>
</radialGradient>
<radialGradient id="paint5_radial_2375_2" cx="0" cy="0" r="1" gradientUnits="userSpaceOnUse" gradientTransform="translate(936.704 273.697) rotate(178.612) scale(262.362 69.5693)">
<stop stop-color="#75D7D6"/>
<stop offset="0.288144" stop-color="#3CC1EC"/>
<stop offset="0.836667" stop-color="#C213BB"/>
<stop offset="1" stop-color="#D575D7"/>
</radialGradient>
<linearGradient id="paint6_linear_2375_2" x1="571.48" y1="233.484" x2="571.48" y2="364.287" gradientUnits="userSpaceOnUse">
<stop stop-color="#71D0CF"/>
<stop offset="0.305" stop-color="#5BA7A6"/>
<stop offset="0.78" stop-color="#75D7D6"/>
</linearGradient>
<linearGradient id="paint7_linear_2375_2" x1="569.572" y1="241.702" x2="574.131" y2="356.046" gradientUnits="userSpaceOnUse">
<stop offset="0.485" stop-color="#B32169"/>
<stop offset="1" stop-color="#3029BA"/>
</linearGradient>
<linearGradient id="paint8_linear_2375_2" x1="844.492" y1="223.338" x2="844.492" y2="354.141" gradientUnits="userSpaceOnUse">
<stop stop-color="#71D0CF"/>
<stop offset="0.305" stop-color="#5BA7A6"/>
<stop offset="0.78" stop-color="#75D7D6"/>
</linearGradient>
<linearGradient id="paint9_linear_2375_2" x1="846.4" y1="231.556" x2="841.841" y2="345.9" gradientUnits="userSpaceOnUse">
<stop offset="0.485" stop-color="#B32169"/>
<stop offset="1" stop-color="#3029BA"/>
</linearGradient>
<linearGradient id="paint10_linear_2375_2" x1="727.11" y1="212.502" x2="674.179" y2="323.397" gradientUnits="userSpaceOnUse">
<stop stop-color="#71D0CF"/>
<stop offset="0.305" stop-color="#5BA7A6"/>
<stop offset="0.78" stop-color="#75D7D6"/>
</linearGradient>
<linearGradient id="paint11_linear_2375_2" x1="722.228" y1="218.727" x2="679.127" y2="317.443" gradientUnits="userSpaceOnUse">
<stop offset="0.485" stop-color="#B32169"/>
<stop offset="1" stop-color="#3029BA"/>
</linearGradient>
</defs>
</svg>
