<svg width="1030" height="372" viewBox="0 0 1030 372" fill="none" xmlns="http://www.w3.org/2000/svg">
<rect x="5" y="5" width="1020" height="322" rx="33" fill="white" stroke="url(#paint0_linear_2362_72)" stroke-width="10"/>
<g filter="url(#filter0_d_2362_72)">
<path d="M357.161 153.202C337.267 141.209 303.324 154.521 282.336 166.232C261.348 177.943 369.876 196.034 313.804 203.414C257.732 210.793 336.633 238.435 389.508 241.919C442.384 245.403 447.543 233.425 492.306 232.57C537.069 231.715 485.24 213.228 465.636 216.741C446.032 220.253 420.9 231.993 400.73 223.604C392.109 220.018 393.359 210.491 404.845 207.772C416.331 205.053 431.556 213.443 431.261 210.25C430.965 207.057 422.379 193.254 410.554 190.674C399.516 188.265 389.982 191.813 375.883 195.726C353.618 201.904 331.463 177.513 341.609 169.892C349.726 163.794 364.509 175.469 370.886 182.069C374.6 177.444 377.054 165.196 357.161 153.202Z" fill="url(#paint1_radial_2362_72)"/>
</g>
<g filter="url(#filter1_d_2362_72)">
<path d="M672.839 152.784C692.733 140.791 726.676 154.103 747.664 165.814C768.652 177.525 660.124 195.616 716.196 202.996C772.268 210.375 693.367 238.017 640.492 241.501C587.616 244.985 582.457 233.007 537.694 232.152C492.931 231.297 544.76 212.81 564.364 216.323C583.968 219.835 609.1 231.575 629.27 223.186C637.891 219.6 636.641 210.073 625.155 207.354C613.669 204.635 598.444 213.025 598.739 209.832C599.035 206.639 607.621 192.836 619.446 190.256C630.484 187.847 640.018 191.395 654.117 195.308C676.382 201.486 698.537 177.095 688.391 169.474C680.274 163.376 665.491 175.051 659.114 181.651C655.4 177.026 652.946 164.778 672.839 152.784Z" fill="url(#paint2_radial_2362_72)"/>
</g>
<path d="M477.941 112.912C478.837 113.36 478.325 115.408 478.261 116.176C478.132 118.416 478.645 125.776 478.389 127.056C478.197 127.888 477.173 127.952 476.469 127.952C473.269 127.952 450.036 128.848 449.589 128.208C449.333 128.08 449.077 127.888 449.013 127.632L449.717 117.072C450.036 110.672 450.485 91.408 448.949 85.584C448.629 84.432 450.293 84.368 451.125 84.176C454.773 83.408 459.189 82.832 462.901 82.896C463.477 82.896 463.797 83.088 464.117 83.6C464.949 84.944 464.757 99.216 464.693 101.776C464.628 105.744 464.628 109.776 464.309 113.744C468.213 113.104 472.373 112.336 476.277 112.016C476.981 111.952 477.877 112.016 477.941 112.912ZM456.629 133.328C456.117 133.328 454.645 133.328 454.26 133.136C453.365 132.624 453.621 131.664 454.517 131.344C456.821 130.64 467.509 131.024 470.645 130.832C473.525 130.64 473.205 132.88 471.605 133.136C468.917 133.52 459.829 133.328 456.629 133.328ZM478.197 131.088C479.733 131.28 479.413 133.456 478.069 133.328L476.405 133.136C474.997 132.944 474.997 130.704 478.197 131.088ZM497.355 116.432C497.163 119.888 497.227 123.408 497.483 126.864C497.547 127.696 497.739 128.592 497.675 129.424C497.675 129.68 497.483 129.872 497.291 130C496.458 130.448 495.435 130.32 494.539 130.32C491.915 130.32 488.651 130.64 486.091 130.128C485.451 130 485.131 129.68 484.939 129.104C482.699 122.896 482.635 101.456 483.083 94.48C483.147 93.264 484.043 85.136 484.363 84.56L484.619 84.176C484.875 81.616 496.523 83.344 498.378 84.176C499.083 84.496 498.891 85.456 498.827 86.096C498.443 91.472 498.315 97.04 498.315 102.48C502.603 99.024 508.939 90.64 511.307 85.584C511.562 85.008 511.819 84.176 512.523 84.048C513.099 83.92 514.443 84.88 514.891 85.2C516.107 86.096 521.483 90.128 521.547 91.472C521.675 91.792 521.611 92.176 521.291 92.368C517.579 98.768 511.499 105.808 505.291 109.968C509.387 113.168 513.611 115.472 518.155 117.904C518.731 118.224 520.907 118.992 520.587 119.952C519.883 121.936 514.251 130.576 512.139 129.936C507.339 128.464 500.555 120.336 497.355 116.432ZM489.803 87.376C490.699 87.568 491.531 86.736 491.339 85.84C490.827 83.344 487.051 85.52 486.347 86.864C485.131 89.168 483.915 98.128 484.811 100.496C485.259 101.712 486.987 101.648 487.243 100.368C487.883 97.488 486.219 88.528 489.803 87.376ZM492.363 86.352C492.619 87.376 493.899 87.696 494.603 86.864C496.267 84.88 491.787 83.792 492.363 86.352ZM536.893 130.704C535.229 131.536 535.293 126.8 535.229 125.904C534.781 118.224 534.013 103.376 535.037 96.08C531.965 96.4 528.317 97.36 525.309 97.296C524.477 97.296 524.093 96.656 523.837 95.952C523.453 94.736 523.645 83.984 524.029 82.832C524.221 82.32 524.477 81.808 524.924 81.552C525.629 81.104 527.485 81.36 528.317 81.488C538.557 82.768 548.925 81.808 559.229 82.768C560.509 82.896 560.701 83.088 561.341 84.112C561.341 86.544 561.405 94.096 559.741 95.632C558.845 96.464 557.437 96.464 556.285 96.464C554.237 96.464 552.253 96.272 550.205 96.528C550.269 107.088 550.973 117.52 551.421 128.08C551.421 128.464 551.421 129.424 551.101 129.68C550.781 129.936 549.693 130 549.245 130C546.877 130 537.853 130.832 536.893 130.704ZM541.181 87.184C541.628 87.312 554.045 86.544 554.301 86.416C555.132 85.904 554.941 84.368 554.045 84.048C553.725 83.92 541.373 84.624 540.861 84.944C540.029 85.52 540.157 86.864 541.181 87.184ZM557.117 86.544C557.821 87.12 558.845 86.672 559.101 85.84C560.061 82.832 554.685 84.624 557.117 86.544ZM580.69 83.28C580.946 83.728 580.626 84.304 580.114 84.368C579.666 84.432 579.282 84.112 578.833 84.048C576.402 83.664 573.778 84.496 571.474 84.176C571.026 84.112 570.322 83.856 570.322 83.344C570.322 81.04 579.73 81.424 580.69 83.28ZM568.786 84.56C567.378 86.352 565.522 82.064 568.018 82.32C569.042 82.448 569.362 83.792 568.786 84.56ZM571.73 130.576C570.706 130.576 567.826 130.704 567.058 130C566.61 129.552 566.546 128.848 566.482 128.272C566.226 125.648 564.818 89.616 564.882 89.296C565.33 87.504 574.674 87.248 576.466 87.248C577.17 87.248 579.09 87.184 579.666 87.504C580.753 88.08 580.562 90.512 580.562 91.536L580.626 129.104C580.626 129.744 580.37 130.064 579.794 130.256C578.962 130.512 573.074 130.576 571.73 130.576Z" fill="url(#paint3_radial_2362_72)"/>
<path d="M528.632 211.796C518.392 214.835 512.002 224.6 510.087 229.103C513.103 234.183 517.501 230.721 530.775 224.823C587.587 206.759 576.293 155.866 561.851 154.727C547.409 153.588 560.603 178.704 551.471 185.783C542.339 192.863 546.663 176.963 536.97 181.648C527.276 186.332 541.433 207.998 528.632 211.796Z" fill="url(#paint4_linear_2362_72)"/>
<path d="M516.121 223.499C513.151 226.441 510.892 229.361 510.397 229.803C512.046 227.172 514.021 225.101 516.121 223.499C519.667 219.987 524.226 216.443 528.007 217.044C534.956 218.148 540.522 213.446 542.862 203.682C544.734 195.871 543.39 192.602 542.484 191.944C544.497 193.33 548.097 197.317 546.393 202.177C544.263 208.252 560.938 190.979 562.387 181.934C563.545 174.698 561.906 170.917 560.941 169.931C562.378 170.927 565.012 174.158 564.053 179.106C562.855 185.292 554.451 203.247 547.076 207.349C539.701 211.451 537.015 220.32 532.453 219.088C529.078 218.177 522.093 218.943 516.121 223.499Z" fill="url(#paint5_linear_2362_72)"/>
<path d="M549.926 234.824C540.497 234.32 527.95 233.979 522.854 233.872C509.527 233.497 505.489 225.883 524.312 223.04C543.135 220.198 545.432 195.853 556.612 192.85C567.793 189.846 564.573 201.784 570.939 199.441C577.305 197.098 597.864 195.054 597.55 202.098C597.236 209.142 594.343 213.083 584.005 218.392C573.667 223.7 552.488 223.063 562.894 228.809C573.301 234.555 592.584 230.007 588.796 235.453C585.009 240.9 574.986 239.163 572.157 238.342C569.329 237.52 561.712 235.453 549.926 234.824Z" fill="url(#paint6_linear_2362_72)"/>
<path d="M512.188 229.335C513.236 228.635 522.164 230.248 529.748 225.787C537.332 221.326 547.803 223.39 557.001 215.552C564.558 209.112 573.176 208.464 577.768 206.995C579.951 205.67 581.081 205.079 580.136 205.855C579.571 206.319 578.764 206.677 577.768 206.995C572.632 210.112 561.67 217.29 558.189 220.295C553.227 224.577 535.788 222.665 532.499 226.115C529.867 228.875 517.862 229.411 512.188 229.335Z" fill="url(#paint7_linear_2362_72)"/>
<path d="M500.676 212.576C510.917 215.614 517.307 225.379 519.222 229.882C516.205 234.962 511.808 231.501 498.533 225.603C441.721 207.538 453.015 156.645 467.458 155.506C481.9 154.367 468.706 179.483 477.838 186.563C486.969 193.642 482.645 177.742 492.339 182.427C502.032 187.112 487.876 208.778 500.676 212.576Z" fill="url(#paint8_linear_2362_72)"/>
<path d="M513.188 224.278C516.158 227.22 518.417 230.14 518.912 230.582C517.263 227.951 515.288 225.881 513.188 224.278C509.642 220.766 505.083 217.222 501.302 217.823C494.353 218.927 488.787 214.225 486.447 204.461C484.574 196.65 485.919 193.381 486.825 192.723C484.812 194.109 481.212 198.097 482.916 202.956C485.046 209.031 468.37 191.758 466.922 182.713C465.763 175.477 467.403 171.696 468.368 170.71C466.931 171.707 464.297 174.937 465.255 179.885C466.453 186.071 474.857 204.026 482.233 208.128C489.608 212.231 492.294 221.099 496.856 219.868C500.231 218.956 507.215 219.722 513.188 224.278Z" fill="url(#paint9_linear_2362_72)"/>
<path d="M479.382 235.603C488.811 235.099 501.359 234.759 506.454 234.651C519.782 234.276 523.819 226.662 504.996 223.82C486.173 220.977 483.877 196.633 472.696 193.629C461.516 190.626 464.736 202.563 458.37 200.22C452.003 197.877 431.444 195.833 431.758 202.877C432.073 209.921 434.966 213.863 445.304 219.171C455.642 224.479 476.82 223.843 466.414 229.588C456.008 235.334 436.725 230.786 440.512 236.232C444.299 241.679 454.323 239.943 457.151 239.121C459.98 238.299 467.596 236.233 479.382 235.603Z" fill="url(#paint10_linear_2362_72)"/>
<path d="M517.12 230.114C516.073 229.414 507.144 231.027 499.56 226.567C491.976 222.106 481.505 224.169 472.308 216.331C464.751 209.891 456.132 209.243 451.541 207.775C449.358 206.45 448.227 205.859 449.172 206.634C449.737 207.098 450.544 207.456 451.541 207.775C456.677 210.891 467.639 218.07 471.12 221.074C476.081 225.356 493.521 223.445 496.81 226.894C499.441 229.654 511.447 230.191 517.12 230.114Z" fill="url(#paint11_linear_2362_72)"/>
<path d="M512.159 233.031C512.098 230.191 505.951 220.149 501.37 221.969C496.789 223.789 494.664 222.269 496.632 220.017C498.601 217.764 496.536 215.51 494.015 215.845C491.494 216.18 488.237 213.062 491.162 211.92C494.087 210.778 487.457 203.32 494.028 202.393C500.599 201.465 499.432 217.948 508.28 217.229C513.327 216.819 513.958 220.969 513.982 222.539C514.051 221.895 514.226 220.674 514.631 218.644C516.86 207.48 512.041 212.236 510.219 210.784C508.397 209.332 510.457 207.847 513.129 207.545C515.801 207.244 512.963 205.415 512.663 202.658C512.363 199.9 514.887 196.874 510.242 195.69C505.596 194.505 504.01 192.806 503.978 191.304C503.946 189.802 501.519 188.215 501.807 186.186C502.094 184.157 511.293 185.759 513.791 191.398C516.29 197.038 518.741 189.96 517.299 187.246C515.856 184.533 516.025 183.972 518.095 180.845C520.165 177.718 521.302 173.935 520.581 172.578C519.86 171.222 519.778 168.812 522.862 168.751C525.945 168.691 527.309 175.422 524.743 178.589C522.177 181.755 521.875 188.266 522.762 188.464C523.649 188.661 525.223 183.802 527.243 182.884C529.262 181.965 532.827 178.83 533.534 180.547C534.241 182.265 534.585 184.609 530.86 186.533C527.135 188.456 521.039 196.518 522.386 204.824C523.734 213.13 525.193 201.306 530.153 202.249C535.114 203.193 536.57 205.325 530.906 206.722C525.241 208.12 526.43 216.953 528.101 216.047C529.772 215.141 527.234 222.375 525.508 224.669C523.782 226.962 523.521 231.273 523.103 232.663C522.685 234.053 516.453 241.016 512.159 233.031Z" fill="url(#paint12_linear_2362_72)"/>
<path d="M532.791 234.507C534.468 232.061 545.559 225.933 548.505 229.462C551.451 232.991 554.168 232.571 553.743 229.775C553.318 226.98 556.404 225.895 558.406 227.257C560.408 228.619 565.025 227.289 563.132 225.053C561.24 222.817 571.274 219.143 566.086 215.545C560.898 211.947 552.489 226.787 545.201 222.403C541.044 219.903 538.123 223.247 537.204 224.603C537.512 224.013 538.058 222.876 538.866 220.938C543.31 210.277 544.783 216.462 547.199 215.972C549.615 215.482 548.671 213.315 546.518 211.918C544.366 210.521 547.881 210.135 549.718 207.863C551.556 205.59 551.09 201.886 555.809 202.828C560.529 203.77 562.881 202.965 563.768 201.671C564.654 200.378 567.673 200.027 568.583 198.14C569.493 196.252 560.573 193.739 555.175 197.586C549.776 201.432 551.689 194.232 554.496 192.483C557.303 190.735 557.477 190.175 557.463 186.575C557.45 182.976 558.623 179.2 560.026 178.326C561.429 177.452 562.879 175.389 560.23 174.027C557.581 172.665 552.546 177.944 552.968 181.789C553.391 185.633 549.931 191.427 549.046 191.223C548.161 191.018 549.57 186.122 548.338 184.465C547.105 182.808 545.795 178.566 544.198 179.76C542.601 180.954 540.962 182.848 543.103 186.104C545.245 189.36 545.94 198.964 540.019 205.619C534.097 212.274 539.588 201.366 534.732 200.08C529.876 198.795 527.39 200.031 531.52 203.653C535.65 207.275 529.566 214.456 528.63 212.958C527.694 211.46 525.766 218.833 525.957 221.562C526.147 224.291 523.909 228.152 523.478 229.54C523.047 230.927 524.489 239.632 532.791 234.507Z" fill="url(#paint13_linear_2362_72)"/>
<path d="M506.014 237.454C504.083 234.831 491.45 228.851 488.166 233.097C484.881 237.343 481.801 237.101 482.243 233.901C482.686 230.701 479.18 229.739 476.933 231.453C474.687 233.166 469.445 232.058 471.555 229.365C473.666 226.672 462.263 223.378 468.083 218.862C473.904 214.345 483.621 230.412 491.807 224.826C496.476 221.64 499.827 225.172 500.885 226.627C500.528 225.987 499.896 224.747 498.955 222.624C493.781 210.943 492.199 218.068 489.459 217.721C486.719 217.374 487.757 214.842 490.173 213.076C492.59 211.31 488.608 211.176 486.497 208.762C484.387 206.349 484.864 202.118 479.537 203.589C474.21 205.061 471.538 204.352 470.517 202.965C469.496 201.578 466.075 201.441 465.02 199.383C463.965 197.325 474.023 193.716 480.183 197.604C486.344 201.492 484.081 193.51 480.881 191.773C477.682 190.035 477.477 189.417 477.443 185.343C477.409 181.269 476.031 177.098 474.431 176.23C472.831 175.361 471.163 173.152 474.141 171.383C477.12 169.615 482.889 175.155 482.464 179.541C482.038 183.927 486.032 190.185 487.031 189.878C488.029 189.57 486.368 184.151 487.74 182.171C489.111 180.19 490.535 175.278 492.358 176.492C494.182 177.705 496.063 179.708 493.684 183.575C491.305 187.443 490.65 198.369 497.441 205.39C504.232 212.411 497.87 200.541 503.347 198.67C508.823 196.798 511.653 197.983 507.03 202.436C502.406 206.889 509.389 214.49 510.427 212.715C511.466 210.94 513.747 219.116 513.569 222.22C513.391 225.324 515.976 229.5 516.483 231.033C516.989 232.566 515.477 242.539 506.014 237.454Z" fill="url(#paint14_linear_2362_72)"/>
<path d="M538.461 244.642C544 243.277 551.415 232.502 554.37 225.27C557.233 218.262 542.853 223.166 539.162 230.276C540.112 224.98 540.098 219.45 537.127 217.028C532.177 212.992 531.968 228.074 532.482 236.12C528.282 224.971 519.564 205.413 518.293 216.371C517.091 226.736 523.795 235.609 527.86 239.31C522.44 234.616 512.501 226.701 511.315 228.535C509.77 230.926 522.343 243.346 525.629 243.277C528.258 243.222 532.921 246.006 538.461 244.642Z" fill="url(#paint15_linear_2362_72)"/>
<path d="M506.461 243.642C512 242.277 519.415 231.502 522.37 224.27C525.233 217.262 510.853 222.166 507.162 229.276C508.112 223.98 508.098 218.45 505.127 216.028C500.177 211.992 499.968 227.074 500.482 235.12C496.282 223.971 487.564 204.413 486.293 215.371C485.091 225.736 491.795 234.609 495.86 238.31C490.44 233.616 480.501 225.701 479.315 227.535C477.77 229.926 490.343 242.346 493.629 242.277C496.258 242.222 500.921 245.006 506.461 243.642Z" fill="url(#paint16_linear_2362_72)"/>
<path d="M520.511 245.568C524.848 244.104 529.42 233.851 531.503 227.272C533.521 220.898 523.731 226.402 521.15 232.936C521.854 228.221 521.908 223.382 519.924 221.513C516.619 218.398 516.305 231.616 516.561 238.614C513.845 229.211 508.167 212.829 507.181 222.526C506.249 231.699 510.686 238.899 513.396 241.796C509.781 238.144 503.143 232.056 502.319 233.761C501.245 235.984 509.615 245.793 511.84 245.455C513.621 245.186 516.175 247.031 520.511 245.568Z" fill="url(#paint17_linear_2362_72)"/>
<g filter="url(#filter2_d_2362_72)">
<path d="M803.011 150.202C822.904 138.209 856.848 151.521 877.836 163.232C898.824 174.943 790.296 193.034 846.368 200.414C902.44 207.793 823.539 235.435 770.664 238.919C717.788 242.403 712.629 230.425 667.866 229.57C623.103 228.715 674.932 210.228 694.536 213.741C714.14 217.253 739.272 228.993 759.442 220.604C768.063 217.018 766.813 207.491 755.327 204.772C743.841 202.053 728.616 210.443 728.911 207.25C729.207 204.057 737.793 190.254 749.618 187.674C760.656 185.265 770.19 188.813 784.289 192.726C806.554 198.904 828.709 174.513 818.563 166.892C810.446 160.794 795.663 172.469 789.286 179.069C785.572 174.444 783.118 162.196 803.011 150.202Z" fill="url(#paint18_radial_2362_72)"/>
</g>
<g filter="url(#filter3_d_2362_72)">
<path d="M229.161 153.202C209.267 141.209 175.324 154.521 154.336 166.232C133.348 177.943 241.876 196.034 185.804 203.414C129.732 210.793 208.633 238.435 261.508 241.919C314.384 245.403 319.543 233.425 364.306 232.57C409.069 231.715 357.24 213.228 337.636 216.741C318.032 220.253 292.9 231.993 272.73 223.604C264.109 220.018 265.359 210.491 276.845 207.772C288.331 205.053 303.556 213.443 303.261 210.25C302.965 207.057 294.379 193.254 282.554 190.674C271.516 188.265 261.982 191.813 247.883 195.726C225.618 201.904 203.463 177.513 213.609 169.892C221.726 163.794 236.509 175.469 242.886 182.069C246.6 177.444 249.054 165.196 229.161 153.202Z" fill="url(#paint19_radial_2362_72)"/>
</g>
<g filter="url(#filter4_d_2362_72)">
<path d="M495.377 198.416C493.84 209.133 474.685 201.269 464.992 202.576C455.298 203.884 476.854 215.467 488.369 222.918C499.884 230.369 476.271 253.426 483.039 263.481C489.806 273.536 502.612 245.643 511.706 234.839C520.8 224.036 551.908 258.312 563.455 249.527C575.002 240.741 538.047 229.512 533.56 218.138C529.072 206.765 556.228 189.968 550.393 184.468C547.18 181.439 534.111 196.582 525.125 201.282C516.138 205.982 513.119 160.123 503.56 158.353C494.001 156.584 497.298 185.019 495.377 198.416Z" fill="url(#paint20_linear_2362_72)"/>
</g>
<g filter="url(#filter5_d_2362_72)">
<path d="M498.645 225.431C498.806 220.963 462.757 207.962 468.041 205.655C473.325 203.349 489.977 207.968 495.511 207.105C501.045 206.241 500.095 165.998 503.576 166.364C507.058 166.73 514.075 200.233 520.521 204.193C526.967 208.152 545.548 183.967 548.291 187.211C551.035 190.454 527.866 212.888 527.373 216.148C526.881 219.408 558.421 239.06 558.295 245.305C558.169 251.549 519.522 228.611 515.356 228.882C511.191 229.154 492.597 261.887 486.156 262.111C479.715 262.335 498.483 229.899 498.645 225.431Z" fill="url(#paint21_linear_2362_72)"/>
</g>
<path d="M479.995 208.374C478.557 210.207 481.74 211.857 482.642 210.619C483.545 209.382 480.39 206.993 479.995 208.374Z" fill="#D9D9D9"/>
<path d="M497.935 215.251C499.409 213.449 496.261 211.732 495.334 212.951C494.408 214.17 497.513 216.625 497.935 215.251Z" fill="#D9D9D9"/>
<path d="M489.107 212.544C490.581 210.742 487.433 209.025 486.506 210.244C485.579 211.463 488.685 213.918 489.107 212.544Z" fill="#D9D9D9"/>
<path d="M507.432 200.178C505.994 202.01 509.178 203.66 510.08 202.423C510.982 201.185 507.827 198.796 507.432 200.178Z" fill="#D9D9D9"/>
<path d="M505.225 190.849C503.787 192.681 506.971 194.331 507.873 193.094C508.775 191.856 505.62 189.467 505.225 190.849Z" fill="#D9D9D9"/>
<path d="M523.116 208.429C521.678 210.261 524.861 211.911 525.764 210.674C526.666 209.436 523.511 207.047 523.116 208.429Z" fill="#D9D9D9"/>
<path d="M529.186 203.465C527.748 205.297 530.932 206.947 531.834 205.71C532.736 204.473 529.581 202.084 529.186 203.465Z" fill="#D9D9D9"/>
<path d="M536.499 196.834C535.061 198.666 538.244 200.317 539.146 199.079C540.049 197.842 536.894 195.453 536.499 196.834Z" fill="#D9D9D9"/>
<path d="M526.623 227.894C528.526 229.164 529.898 225.767 528.619 224.98C527.339 224.192 525.241 227.635 526.623 227.894Z" fill="#D9D9D9"/>
<path d="M538.082 231.525C537.527 229.273 534.281 230.881 534.698 232.347C535.114 233.812 538.923 232.664 538.082 231.525Z" fill="#D9D9D9"/>
<path d="M543.667 235.979C542.229 237.811 545.412 239.461 546.314 238.224C547.217 236.986 544.062 234.597 543.667 235.979Z" fill="#D9D9D9"/>
<path d="M502.262 236.195C502.818 233.927 499.23 233.802 498.918 235.304C498.605 236.805 502.472 237.61 502.262 236.195Z" fill="#D9D9D9"/>
<path d="M510.808 226.839C512.822 230.996 518.528 226.477 517.108 223.797C515.689 221.116 508.692 224.976 510.808 226.839Z" fill="#741F5E" stroke="#D9D9D9" stroke-width="3"/>
<path d="M504.243 206.504C500.929 203.335 497.091 209.567 499.343 211.568C501.594 213.568 506.874 207.495 504.243 206.504Z" fill="#741F5E" stroke="#D9D9D9" stroke-width="3"/>
<path d="M519.641 207.138C520.331 202.522 513.155 202.958 512.809 206.004C512.463 209.051 520.32 209.911 519.641 207.138Z" fill="#741F5E" stroke="#D9D9D9" stroke-width="3"/>
<path d="M500.345 219.358C497.469 223.022 503.836 226.322 505.64 223.847C507.445 221.373 501.135 216.595 500.345 219.358Z" fill="#741F5E" stroke="#D9D9D9" stroke-width="3"/>
<path d="M523.212 219.388C525.621 215.393 518.889 212.933 517.399 215.613C515.909 218.294 522.765 222.225 523.212 219.388Z" fill="#741F5E" stroke="#D9D9D9" stroke-width="3"/>
<path d="M498.415 243.305C498.241 240.984 494.783 242.018 494.951 243.537C495.119 245.056 499.054 244.574 498.415 243.305Z" fill="#D9D9D9"/>
<path d="M494.39 251.513C494.926 249.24 491.337 249.147 491.038 250.652C490.738 252.156 494.612 252.925 494.39 251.513Z" fill="#D9D9D9"/>
<path d="M504.803 180.123C503.366 181.956 506.549 183.606 507.451 182.368C508.353 181.131 505.198 178.742 504.803 180.123Z" fill="#D9D9D9"/>
<path d="M508.529 213.553C508.321 213.89 504.812 213.789 504.847 214.251C504.883 214.713 508.354 215.874 508.505 216.266C508.656 216.658 507.831 220.084 508.256 220.241C508.681 220.399 510.458 217.375 511.002 217.323C511.546 217.272 513.836 218.477 514.665 218.363C515.494 218.249 512.887 214.79 512.887 214.79C512.887 214.79 515.278 212.492 515.237 211.828C515.195 211.165 511.54 212.609 511.22 212.502C510.9 212.395 509.306 208.988 508.8 209.025C508.295 209.062 508.738 213.216 508.529 213.553Z" fill="#D9D9D9"/>
<defs>
<filter id="filter0_d_2362_72" x="154.602" y="27.4893" width="480.422" height="344.063" filterUnits="userSpaceOnUse" color-interpolation-filters="sRGB">
<feFlood flood-opacity="0" result="BackgroundImageFix"/>
<feColorMatrix in="SourceAlpha" type="matrix" values="0 0 0 0 0 0 0 0 0 0 0 0 0 0 0 0 0 0 127 0" result="hardAlpha"/>
<feOffset dy="4"/>
<feGaussianBlur stdDeviation="62.5"/>
<feComposite in2="hardAlpha" operator="out"/>
<feColorMatrix type="matrix" values="0 0 0 0 0.602456 0 0 0 0 0.862489 0 0 0 0 0.9525 0 0 0 0.54 0"/>
<feBlend mode="normal" in2="BackgroundImageFix" result="effect1_dropShadow_2362_72"/>
<feBlend mode="normal" in="SourceGraphic" in2="effect1_dropShadow_2362_72" result="shape"/>
</filter>
<filter id="filter1_d_2362_72" x="394.977" y="27.0713" width="480.422" height="344.063" filterUnits="userSpaceOnUse" color-interpolation-filters="sRGB">
<feFlood flood-opacity="0" result="BackgroundImageFix"/>
<feColorMatrix in="SourceAlpha" type="matrix" values="0 0 0 0 0 0 0 0 0 0 0 0 0 0 0 0 0 0 127 0" result="hardAlpha"/>
<feOffset dy="4"/>
<feGaussianBlur stdDeviation="62.5"/>
<feComposite in2="hardAlpha" operator="out"/>
<feColorMatrix type="matrix" values="0 0 0 0 0.602456 0 0 0 0 0.862489 0 0 0 0 0.9525 0 0 0 0.54 0"/>
<feBlend mode="normal" in2="BackgroundImageFix" result="effect1_dropShadow_2362_72"/>
<feBlend mode="normal" in="SourceGraphic" in2="effect1_dropShadow_2362_72" result="shape"/>
</filter>
<filter id="filter2_d_2362_72" x="525.148" y="24.4893" width="480.422" height="344.063" filterUnits="userSpaceOnUse" color-interpolation-filters="sRGB">
<feFlood flood-opacity="0" result="BackgroundImageFix"/>
<feColorMatrix in="SourceAlpha" type="matrix" values="0 0 0 0 0 0 0 0 0 0 0 0 0 0 0 0 0 0 127 0" result="hardAlpha"/>
<feOffset dy="4"/>
<feGaussianBlur stdDeviation="62.5"/>
<feComposite in2="hardAlpha" operator="out"/>
<feColorMatrix type="matrix" values="0 0 0 0 0.602456 0 0 0 0 0.862489 0 0 0 0 0.9525 0 0 0 0.54 0"/>
<feBlend mode="normal" in2="BackgroundImageFix" result="effect1_dropShadow_2362_72"/>
<feBlend mode="normal" in="SourceGraphic" in2="effect1_dropShadow_2362_72" result="shape"/>
</filter>
<filter id="filter3_d_2362_72" x="26.6016" y="27.4893" width="480.422" height="344.063" filterUnits="userSpaceOnUse" color-interpolation-filters="sRGB">
<feFlood flood-opacity="0" result="BackgroundImageFix"/>
<feColorMatrix in="SourceAlpha" type="matrix" values="0 0 0 0 0 0 0 0 0 0 0 0 0 0 0 0 0 0 127 0" result="hardAlpha"/>
<feOffset dy="4"/>
<feGaussianBlur stdDeviation="62.5"/>
<feComposite in2="hardAlpha" operator="out"/>
<feColorMatrix type="matrix" values="0 0 0 0 0.602456 0 0 0 0 0.862489 0 0 0 0 0.9525 0 0 0 0.54 0"/>
<feBlend mode="normal" in2="BackgroundImageFix" result="effect1_dropShadow_2362_72"/>
<feBlend mode="normal" in="SourceGraphic" in2="effect1_dropShadow_2362_72" result="shape"/>
</filter>
<filter id="filter4_d_2362_72" x="372.651" y="72.3744" width="282.929" height="287.156" filterUnits="userSpaceOnUse" color-interpolation-filters="sRGB">
<feFlood flood-opacity="0" result="BackgroundImageFix"/>
<feColorMatrix in="SourceAlpha" type="matrix" values="0 0 0 0 0 0 0 0 0 0 0 0 0 0 0 0 0 0 127 0" result="hardAlpha"/>
<feOffset dy="4"/>
<feGaussianBlur stdDeviation="44.95"/>
<feComposite in2="hardAlpha" operator="out"/>
<feColorMatrix type="matrix" values="0 0 0 0 0.407843 0 0 0 0 0.0941176 0 0 0 0 0.129412 0 0 0 1 0"/>
<feBlend mode="normal" in2="BackgroundImageFix" result="effect1_dropShadow_2362_72"/>
<feBlend mode="normal" in="SourceGraphic" in2="effect1_dropShadow_2362_72" result="shape"/>
</filter>
<filter id="filter5_d_2362_72" x="364.712" y="67.5623" width="296.385" height="301.35" filterUnits="userSpaceOnUse" color-interpolation-filters="sRGB">
<feFlood flood-opacity="0" result="BackgroundImageFix"/>
<feColorMatrix in="SourceAlpha" type="matrix" values="0 0 0 0 0 0 0 0 0 0 0 0 0 0 0 0 0 0 127 0" result="hardAlpha"/>
<feOffset dy="4"/>
<feGaussianBlur stdDeviation="51.4"/>
<feComposite in2="hardAlpha" operator="out"/>
<feColorMatrix type="matrix" values="0 0 0 0 0.847059 0 0 0 0 0.709804 0 0 0 0 0.458824 0 0 0 1 0"/>
<feBlend mode="normal" in2="BackgroundImageFix" result="effect1_dropShadow_2362_72"/>
<feBlend mode="normal" in="SourceGraphic" in2="effect1_dropShadow_2362_72" result="shape"/>
</filter>
<linearGradient id="paint0_linear_2362_72" x1="515" y1="0" x2="515" y2="332" gradientUnits="userSpaceOnUse">
<stop offset="0.095" stop-color="#D7B575"/>
<stop offset="0.32" stop-color="#BED775"/>
<stop offset="0.99" stop-color="#4E3D71"/>
</linearGradient>
<radialGradient id="paint1_radial_2362_72" cx="0" cy="0" r="1" gradientUnits="userSpaceOnUse" gradientTransform="translate(331.343 175.738) rotate(24.4111) scale(208.257 72.865)">
<stop stop-color="#75D7D6"/>
<stop offset="0.288144" stop-color="#3CC1EC"/>
<stop offset="0.836667" stop-color="#C213BB"/>
<stop offset="1" stop-color="#D575D7"/>
</radialGradient>
<radialGradient id="paint2_radial_2362_72" cx="0" cy="0" r="1" gradientUnits="userSpaceOnUse" gradientTransform="translate(698.657 175.32) rotate(155.589) scale(208.257 72.865)">
<stop stop-color="#75D7D6"/>
<stop offset="0.288144" stop-color="#3CC1EC"/>
<stop offset="0.836667" stop-color="#C213BB"/>
<stop offset="1" stop-color="#D575D7"/>
</radialGradient>
<radialGradient id="paint3_radial_2362_72" cx="0" cy="0" r="1" gradientUnits="userSpaceOnUse" gradientTransform="translate(528.845 97.2969) rotate(-176.311) scale(425.387 87.4545)">
<stop offset="0.120225" stop-color="#D7B575"/>
<stop offset="0.370102" stop-color="#B32169"/>
<stop offset="0.660328" stop-color="#741F5E"/>
<stop offset="1" stop-color="#BC0079" stop-opacity="0"/>
</radialGradient>
<linearGradient id="paint4_linear_2362_72" x1="525.008" y1="169.913" x2="546.569" y2="218.441" gradientUnits="userSpaceOnUse">
<stop offset="0.095" stop-color="#D7B575"/>
<stop offset="0.32" stop-color="#BED775"/>
<stop offset="0.99" stop-color="#4E3D71"/>
</linearGradient>
<linearGradient id="paint5_linear_2362_72" x1="515.344" y1="228.33" x2="570.495" y2="168.475" gradientUnits="userSpaceOnUse">
<stop stop-color="#681821"/>
<stop offset="1" stop-color="#6EC276"/>
</linearGradient>
<linearGradient id="paint6_linear_2362_72" x1="575.339" y1="189.582" x2="548.498" y2="247.927" gradientUnits="userSpaceOnUse">
<stop offset="0.095" stop-color="#D7B575"/>
<stop offset="0.32" stop-color="#BED775"/>
<stop offset="0.99" stop-color="#4E3D71"/>
</linearGradient>
<linearGradient id="paint7_linear_2362_72" x1="511.795" y1="232.092" x2="566.972" y2="206.793" gradientUnits="userSpaceOnUse">
<stop stop-color="#681821"/>
<stop offset="1" stop-color="#378F6A"/>
</linearGradient>
<linearGradient id="paint8_linear_2362_72" x1="504.301" y1="170.693" x2="482.739" y2="219.22" gradientUnits="userSpaceOnUse">
<stop offset="0.095" stop-color="#D7B575"/>
<stop offset="0.32" stop-color="#BED775"/>
<stop offset="0.99" stop-color="#4E3D71"/>
</linearGradient>
<linearGradient id="paint9_linear_2362_72" x1="513.965" y1="229.109" x2="458.813" y2="169.254" gradientUnits="userSpaceOnUse">
<stop stop-color="#681821"/>
<stop offset="1" stop-color="#6EC276"/>
</linearGradient>
<linearGradient id="paint10_linear_2362_72" x1="453.969" y1="190.361" x2="480.81" y2="248.707" gradientUnits="userSpaceOnUse">
<stop offset="0.095" stop-color="#D7B575"/>
<stop offset="0.32" stop-color="#BED775"/>
<stop offset="0.99" stop-color="#4E3D71"/>
</linearGradient>
<linearGradient id="paint11_linear_2362_72" x1="517.514" y1="232.871" x2="462.337" y2="207.572" gradientUnits="userSpaceOnUse">
<stop stop-color="#681821"/>
<stop offset="1" stop-color="#378F6A"/>
</linearGradient>
<linearGradient id="paint12_linear_2362_72" x1="523.574" y1="168.85" x2="508.82" y2="235.064" gradientUnits="userSpaceOnUse">
<stop stop-color="#7E25EE" stop-opacity="0.86"/>
<stop offset="1" stop-color="#182256"/>
</linearGradient>
<linearGradient id="paint13_linear_2362_72" x1="541.345" y1="169.599" x2="533.5" y2="240.354" gradientUnits="userSpaceOnUse">
<stop stop-color="#7E25EE" stop-opacity="0.86"/>
<stop offset="0.745" stop-color="#7725E4" stop-opacity="0.8698"/>
<stop offset="1" stop-color="#182256"/>
</linearGradient>
<linearGradient id="paint14_linear_2362_72" x1="463.869" y1="174.48" x2="508.095" y2="240.544" gradientUnits="userSpaceOnUse">
<stop offset="0.26" stop-color="#5B6BFD"/>
<stop offset="0.84" stop-color="#182256"/>
</linearGradient>
<linearGradient id="paint15_linear_2362_72" x1="516.16" y1="218.9" x2="546.164" y2="240.893" gradientUnits="userSpaceOnUse">
<stop offset="0.783776" stop-color="#D02BC0"/>
<stop offset="0.943668" stop-color="#5F1780"/>
</linearGradient>
<linearGradient id="paint16_linear_2362_72" x1="484.16" y1="217.9" x2="514.164" y2="239.893" gradientUnits="userSpaceOnUse">
<stop offset="0.783776" stop-color="#D02BC0"/>
<stop offset="0.943668" stop-color="#5F1780"/>
</linearGradient>
<linearGradient id="paint17_linear_2362_72" x1="508.183" y1="218.469" x2="527.365" y2="244.092" gradientUnits="userSpaceOnUse">
<stop offset="0.575" stop-color="#B05DE2"/>
<stop offset="1" stop-color="#5F1780"/>
</linearGradient>
<radialGradient id="paint18_radial_2362_72" cx="0" cy="0" r="1" gradientUnits="userSpaceOnUse" gradientTransform="translate(828.829 172.738) rotate(155.589) scale(208.257 72.865)">
<stop stop-color="#75D7D6"/>
<stop offset="0.288144" stop-color="#3CC1EC"/>
<stop offset="0.836667" stop-color="#C213BB"/>
<stop offset="1" stop-color="#D575D7"/>
</radialGradient>
<radialGradient id="paint19_radial_2362_72" cx="0" cy="0" r="1" gradientUnits="userSpaceOnUse" gradientTransform="translate(203.343 175.738) rotate(24.4111) scale(208.257 72.865)">
<stop stop-color="#75D7D6"/>
<stop offset="0.288144" stop-color="#3CC1EC"/>
<stop offset="0.836667" stop-color="#C213BB"/>
<stop offset="1" stop-color="#D575D7"/>
</radialGradient>
<linearGradient id="paint20_linear_2362_72" x1="530.039" y1="165.643" x2="499.696" y2="272.552" gradientUnits="userSpaceOnUse">
<stop stop-color="#71D0CF"/>
<stop offset="0.305" stop-color="#5BA7A6"/>
<stop offset="0.78" stop-color="#75D7D6"/>
</linearGradient>
<linearGradient id="paint21_linear_2362_72" x1="526.45" y1="171.882" x2="503.407" y2="266.339" gradientUnits="userSpaceOnUse">
<stop offset="0.485" stop-color="#B32169"/>
<stop offset="1" stop-color="#3029BA"/>
</linearGradient>
</defs>
</svg>
