<svg width="882" height="115" viewBox="0 0 882 115" fill="none" xmlns="http://www.w3.org/2000/svg">
<path d="M50.1495 62.144C51.4295 57.664 64.9975 13.632 67.3015 12.608C68.8375 11.968 87.9095 13.888 88.6775 15.424C89.1895 16.448 89.1895 20.288 89.3175 21.696C90.8535 44.608 93.2855 67.904 96.9975 90.56C97.2535 92.224 99.1735 101.312 98.4055 102.208C97.6375 103.104 80.2295 104 77.7975 104.256C76.0055 104.512 71.1415 105.792 70.2455 103.488C68.1975 97.984 67.6855 65.472 67.5575 57.792C66.1495 61.248 57.0615 88.512 57.0615 88.512C55.7815 89.92 44.5175 88.768 41.8295 88.896C38.6295 89.152 38.6295 84.544 38.1175 82.24C36.1975 74.048 34.0215 65.856 32.2295 57.536C30.1815 72 29.4135 86.592 28.2615 101.184C28.1335 102.336 28.1335 104.512 26.5975 104.768C25.9575 104.896 22.3735 103.488 21.4775 103.232C16.2295 101.696 7.0135 99.648 1.6375 99.776C0.6135 99.392 0.8695 96.832 1.1255 95.936C6.7575 70.336 11.2375 44.992 15.5895 19.264C15.7175 18.24 15.9735 17.088 16.7415 16.32C18.2775 14.784 38.2455 10.816 39.0135 11.968C39.2695 12.352 39.3975 14.528 39.5255 15.168C41.8295 31.04 45.7975 46.656 50.1495 62.144ZM82.2775 40.128C83.3015 42.816 87.1415 41.92 87.2695 39.104C87.3975 34.368 86.8855 19.392 81.8935 17.216C80.4855 16.576 75.3655 16.32 73.7015 16.32C69.8615 16.32 68.0695 19.776 71.2695 21.184C72.9335 21.952 78.9495 21.056 79.9735 22.08C81.8935 23.872 81.2535 37.312 82.2775 40.128ZM83.5575 50.368C85.0935 51.52 87.5255 50.624 87.7815 48.704C88.5495 43.072 79.0775 46.784 83.5575 50.368ZM141.106 2.24C142.77 3.13599 142.13 5.56799 140.338 5.824C137.138 6.20799 138.29 0.703995 141.106 2.24ZM114.866 31.552C109.746 35.136 115.506 19.52 115.89 18.624C117.426 14.528 119.474 10.56 122.802 7.744C124.85 6.07999 131.506 2.88 134.066 3.392C135.986 3.77599 136.114 6.20799 134.194 6.84799C131.122 7.744 128.69 6.976 126.002 9.66399C122.034 13.632 116.53 30.4 114.866 31.552ZM132.786 88.256C132.018 92.992 132.018 98.496 130.866 103.104C129.97 106.688 106.93 105.408 105.138 101.568C101.553 94.016 120.882 19.264 130.866 11.84C132.53 10.56 134.706 10.048 136.754 9.66399C142.386 8.63999 164.658 8.768 167.858 13.376C170.802 17.6 172.594 22.72 174.13 27.584C177.074 37.312 190.898 92.096 187.058 100.416C184.114 106.816 162.61 107.968 161.074 101.184C160.178 97.216 160.306 92.096 159.922 88C150.834 87.488 141.874 87.616 132.786 88.256ZM135.218 70.08C142.898 69.824 151.346 69.312 159.026 70.08C159.154 65.984 154.418 36.416 152.242 34.624C150.066 32.704 145.842 34.88 143.154 34.752C139.058 46.016 137.65 58.432 135.218 70.08ZM261.722 18.752C262.362 21.568 259.418 21.184 258.01 19.776C255.194 17.088 260.826 14.144 261.722 18.752ZM225.754 80.96C226.01 86.848 226.01 92.864 226.266 98.752C226.394 100.928 227.034 104.896 224.218 105.536C222.298 105.92 201.562 106.304 199.77 105.664C199.13 105.408 198.618 104.896 198.49 104.256C197.466 99.264 198.746 91.84 198.874 86.72C199.002 77.248 199.258 31.552 195.674 24.128C194.394 21.568 199.258 21.056 200.922 20.672C211.162 18.112 221.658 16.064 232.282 16.576C244.954 17.088 259.674 21.952 263.898 35.52C268.634 50.88 255.962 64.96 242.394 69.952C249.818 76.608 258.521 82.112 266.97 87.36C271.194 89.92 255.322 105.024 250.586 104.896C244.954 104.768 229.338 85.952 225.754 80.96ZM222.554 35.136C223.833 41.408 223.706 47.808 224.346 54.08C249.818 50.496 247.13 30.272 222.554 35.136ZM251.61 12.48C250.842 12.736 248.794 11.968 248.026 11.84C238.682 9.66399 227.802 12.224 218.202 11.2C216.666 11.072 216.666 8.896 217.69 8.128C218.458 7.488 221.018 7.23199 222.042 7.23199C227.546 6.976 232.922 6.464 238.426 6.976C240.346 7.104 250.586 8.768 251.866 9.79199C252.762 10.56 252.89 12.096 251.61 12.48ZM305.504 76.864C305.248 84.8 305.248 92.864 306.144 100.8C306.272 101.568 306.528 102.464 306.144 103.232C304.992 105.408 286.176 104.896 283.104 104.256C281.824 104 281.312 103.36 280.8 102.208C279.135 97.728 278.88 91.584 278.496 86.848C276.576 64.192 275.552 41.92 278.624 19.392C278.88 17.856 279.135 13.376 280.16 12.352C280.672 7.104 303.84 10.688 307.68 12.352C309.088 12.992 308.704 15.04 308.576 16.192C307.808 26.944 307.552 38.08 307.552 48.96C317.152 41.408 328.8 24.896 334.176 13.888C334.56 13.12 334.944 12.352 335.968 12.096C338.528 11.584 353.888 24.384 353.888 26.944C354.272 27.584 354.016 28.352 353.504 28.736C346.08 41.536 333.92 55.616 321.504 63.936C326.624 68.032 332.256 71.872 338.016 75.072C341.984 77.248 347.232 79.04 350.816 81.6C351.584 82.112 352.096 83.008 352.096 83.904C352.096 86.464 339.424 103.744 336.608 104.128C329.568 105.152 310.112 82.24 305.504 76.864ZM290.528 18.752C292.32 19.136 293.984 17.472 293.6 15.68C292.576 10.816 283.36 13.888 281.696 22.72C280.928 26.56 279.392 41.536 280.416 44.736C281.312 47.424 284.768 47.424 285.408 44.736C285.536 44.096 285.408 43.584 285.28 42.944C284.896 39.488 285.792 20.8 288.864 19.392L290.528 18.752ZM297.056 18.496C301.536 20.672 301.792 11.584 296.928 13.888C294.88 14.912 295.136 17.6 297.056 18.496ZM387.158 79.168C394.582 80.832 410.326 78.016 417.494 75.328C418.134 75.072 419.286 74.432 419.798 75.328C420.054 75.84 420.182 77.888 420.31 78.528C421.206 84.672 422.102 91.84 421.718 97.984C421.59 99.264 418.262 100.416 417.238 100.8C403.798 105.792 380.502 108.224 368.726 98.368C353.877 85.952 365.654 34.496 366.422 17.856C370.39 14.528 418.902 9.66399 420.694 11.84C421.718 13.12 421.206 30.912 421.206 33.856C421.206 35.776 421.846 39.104 419.158 39.36C409.302 40.128 398.934 38.72 389.206 39.872C388.694 40.896 388.182 48.96 388.054 50.624C390.102 50.624 407.254 50.368 407.638 50.752C408.15 51.392 408.15 52.672 408.15 53.44C408.15 57.152 408.534 61.504 408.15 65.088C408.022 66.112 407.766 66.88 406.614 67.136C403.03 68.16 390.229 67.648 386.006 67.392C386.134 71.36 386.262 75.328 387.158 79.168ZM418.134 108.992C415.83 109.248 414.934 106.56 417.366 105.536C420.822 104.128 421.718 108.608 418.134 108.992ZM395.606 113.984C391.254 114.624 383.83 114.112 379.734 112.192C378.454 111.552 374.742 110.016 374.486 108.352C374.23 106.56 376.022 105.664 377.43 106.56C379.99 108.096 384.086 108.992 387.03 109.504C398.166 111.552 409.302 107.072 411.606 107.456C413.398 107.712 413.142 109.76 411.606 110.4C406.87 112.32 400.598 113.216 395.606 113.984ZM455.366 105.408C452.038 107.072 452.166 97.6 452.038 95.808C451.142 80.448 449.606 50.752 451.654 36.16C445.51 36.8 438.214 38.72 432.198 38.592C430.534 38.592 429.766 37.312 429.254 35.904C428.486 33.472 428.87 11.968 429.638 9.66399C430.022 8.63999 430.534 7.616 431.43 7.104C432.838 6.20799 436.55 6.71999 438.214 6.976C458.694 9.536 479.43 7.616 500.038 9.536C502.598 9.79199 502.982 10.176 504.262 12.224C504.262 17.088 504.39 32.192 501.062 35.264C499.27 36.928 496.454 36.928 494.15 36.928C490.054 36.928 486.086 36.544 481.99 37.056C482.118 58.176 483.526 79.04 484.422 100.16C484.422 100.928 484.422 102.848 483.782 103.36C483.142 103.872 480.966 104 480.07 104C475.334 104 457.286 105.664 455.366 105.408ZM463.942 18.368C464.838 18.624 489.67 17.088 490.182 16.832C491.846 15.808 491.462 12.736 489.67 12.096C489.03 11.84 464.326 13.248 463.302 13.888C461.638 15.04 461.894 17.728 463.942 18.368ZM495.814 17.088C497.222 18.24 499.27 17.344 499.782 15.68C501.701 9.66399 490.95 13.248 495.814 17.088ZM572.233 92.736C571.208 96.32 570.312 100.288 569.161 103.744C567.881 107.328 551.881 102.592 548.425 102.336C547.145 102.208 545.609 102.336 544.585 101.568C544.329 101.44 544.585 97.984 544.585 97.472C544.969 84.544 546.249 71.872 546.249 58.816C546.249 45.248 545.481 31.424 543.945 17.856C543.817 16.576 543.433 15.168 544.841 14.4C546.76 13.248 568.009 10.048 569.033 10.816C570.185 11.712 570.057 15.936 570.185 17.344C580.553 9.66399 595.657 9.15199 607.177 14.656C637.385 28.992 634.569 98.112 596.041 99.904C587.593 100.288 579.145 97.728 572.233 92.736ZM587.977 78.528C604.104 83.52 604.233 45.504 592.457 37.824C574.665 26.304 573.641 74.048 587.977 78.528ZM613.705 103.744C611.529 106.304 608.457 101.824 611.529 101.056C612.937 100.672 614.857 102.336 613.705 103.744ZM604.873 106.944C599.497 110.016 592.073 109.888 586.185 108.736C584.521 108.352 578.121 106.688 577.353 105.28C576.585 104 577.993 103.232 579.145 103.488C584.265 104.64 588.745 106.432 594.121 106.432C597.705 106.432 600.393 105.408 603.849 104.64C605.257 104.384 606.281 106.048 604.873 106.944ZM670.231 2.24C671.895 3.13599 671.255 5.56799 669.463 5.824C666.263 6.20799 667.415 0.703995 670.231 2.24ZM643.991 31.552C638.871 35.136 644.631 19.52 645.015 18.624C646.551 14.528 648.599 10.56 651.927 7.744C653.975 6.07999 660.631 2.88 663.191 3.392C665.111 3.77599 665.239 6.20799 663.319 6.84799C660.247 7.744 657.815 6.976 655.127 9.66399C651.159 13.632 645.655 30.4 643.991 31.552ZM661.911 88.256C661.143 92.992 661.143 98.496 659.991 103.104C659.095 106.688 636.055 105.408 634.263 101.568C630.678 94.016 650.007 19.264 659.991 11.84C661.655 10.56 663.831 10.048 665.879 9.66399C671.511 8.63999 693.783 8.768 696.983 13.376C699.927 17.6 701.719 22.72 703.255 27.584C706.199 37.312 720.023 92.096 716.183 100.416C713.239 106.816 691.735 107.968 690.199 101.184C689.303 97.216 689.431 92.096 689.047 88C679.959 87.488 670.999 87.616 661.911 88.256ZM664.343 70.08C672.023 69.824 680.471 69.312 688.151 70.08C688.279 65.984 683.543 36.416 681.367 34.624C679.191 32.704 674.967 34.88 672.279 34.752C668.183 46.016 666.775 58.432 664.343 70.08ZM762.815 49.984C764.351 42.944 775.487 12.224 778.687 8.128C782.015 3.77599 796.223 9.15199 800.703 10.688C801.727 11.072 804.031 11.2 804.031 12.608C804.031 14.144 799.295 24 798.399 26.304C789.055 49.856 780.991 74.56 775.615 99.264C775.103 101.568 775.231 104.64 774.335 106.816C773.695 108.352 772.415 108.224 771.007 107.968C767.551 107.328 751.039 103.872 749.247 102.208C748.223 101.312 748.095 100.544 748.095 99.136C748.095 96.704 753.471 78.4 754.623 74.944C735.423 72.128 727.359 61.632 725.439 43.072C724.671 35.904 724.159 28.736 724.286 21.568C724.286 20.288 724.031 17.728 724.671 16.704C725.823 14.784 733.375 13.248 735.679 12.992C737.983 12.736 750.271 11.584 751.423 12.992C754.239 16.448 745.407 49.984 762.815 49.984ZM739.263 78.016C741.695 79.296 741.439 83.136 739.007 82.88C735.039 82.496 728.51 78.272 726.463 74.816C725.823 73.792 724.799 71.232 725.439 70.08C726.079 68.928 727.615 69.184 728.127 70.336C729.663 74.176 735.935 76.352 739.263 78.016ZM747.071 84.672C745.663 87.104 742.847 84.416 744.127 82.112C745.535 79.68 748.479 82.24 747.071 84.672ZM855.034 102.848C836.346 108.224 812.41 104 811.13 80.448C811.002 79.04 811.002 77.632 812.154 76.608C814.33 74.688 832.89 71.488 834.17 74.048C835.833 77.248 833.146 84.032 840.058 84.032C845.562 84.032 847.226 77.504 845.306 73.28C838.778 58.432 802.809 64.704 806.138 37.184C807.546 25.664 817.146 16.704 827.386 12.48C839.802 7.488 856.058 7.35999 867.577 14.528C875.386 19.392 879.994 26.944 880.634 36.032C880.762 38.592 881.018 42.944 877.946 43.968C876.026 44.608 858.49 46.272 856.442 46.016C854.906 45.888 853.626 45.76 853.37 43.968C852.474 38.464 852.602 31.424 845.946 29.12C839.802 27.072 828.41 32.448 831.354 40.128C834.042 47.424 867.962 50.496 874.234 71.36C878.33 85.056 868.09 99.008 855.034 102.848ZM850.17 96.832C848.378 99.008 851.066 101.568 853.498 100.8C862.458 97.856 870.266 90.176 871.034 80.576C871.674 73.536 865.914 75.2 865.914 78.144C865.914 81.216 865.53 83.008 864.378 85.824C861.306 93.248 851.194 95.552 850.17 96.832ZM842.362 101.696C843.898 103.104 846.33 102.208 846.714 100.288C847.738 94.912 838.394 97.984 842.362 101.696Z" fill="url(#paint0_radial_1238_1521)"/>
<defs>
<radialGradient id="paint0_radial_1238_1521" cx="0" cy="0" r="1" gradientUnits="userSpaceOnUse" gradientTransform="translate(1313.34 61) rotate(-178.135) scale(1874.31 197.973)">
<stop offset="0.120225" stop-color="#D7B575"/>
<stop offset="0.370102" stop-color="#B32169"/>
<stop offset="0.660328" stop-color="#741F5E"/>
<stop offset="1" stop-color="#BC0079" stop-opacity="0"/>
</radialGradient>
</defs>
</svg>
