<svg width="661" height="86" viewBox="0 0 661 86" fill="none" xmlns="http://www.w3.org/2000/svg">
<path d="M37.2238 46.608C38.1838 43.248 48.3598 10.224 50.0878 9.456C51.2397 8.976 65.5438 10.416 66.1198 11.568C66.5038 12.336 66.5038 15.216 66.5998 16.272C67.7518 33.456 69.5758 50.928 72.3598 67.92C72.5518 69.168 73.9918 75.984 73.4158 76.656C72.8398 77.328 59.7838 78 57.9598 78.192C56.6158 78.384 52.9678 79.344 52.2958 77.616C50.7598 73.488 50.3758 49.104 50.2798 43.344C49.2238 45.936 42.4078 66.384 42.4078 66.384C41.4478 67.44 32.9998 66.576 30.9838 66.672C28.5838 66.864 28.5838 63.408 28.1998 61.68C26.7598 55.536 25.1278 49.392 23.7838 43.152C22.2478 54 21.6718 64.944 20.8078 75.888C20.7118 76.752 20.7118 78.384 19.5598 78.576C19.0798 78.672 16.3918 77.616 15.7198 77.424C11.7838 76.272 4.87175 74.736 0.83975 74.832C0.0717501 74.544 0.26375 72.624 0.45575 71.952C4.67975 52.752 8.03975 33.744 11.3038 14.448C11.3998 13.68 11.5918 12.816 12.1678 12.24C13.3198 11.088 28.2958 8.112 28.8718 8.976C29.0638 9.264 29.1598 10.896 29.2558 11.376C30.9838 23.28 33.9598 34.992 37.2238 46.608ZM61.3198 30.096C62.0878 32.112 64.9678 31.44 65.0638 29.328C65.1598 25.776 64.7758 14.544 61.0318 12.912C59.9758 12.432 56.1358 12.24 54.8878 12.24C52.0078 12.24 50.6638 14.832 53.0638 15.888C54.3118 16.464 58.8238 15.792 59.5918 16.56C61.0318 17.904 60.5518 27.984 61.3198 30.096ZM62.2798 37.776C63.4318 38.64 65.2558 37.968 65.4478 36.528C66.0238 32.304 58.9198 35.088 62.2798 37.776ZM105.814 1.68C107.062 2.352 106.582 4.17599 105.238 4.368C102.838 4.65599 103.702 0.527996 105.814 1.68ZM86.1335 23.664C82.2935 26.352 86.6135 14.64 86.9015 13.968C88.0535 10.896 89.5895 7.92 92.0855 5.808C93.6215 4.56 98.6135 2.16 100.534 2.544C101.974 2.832 102.07 4.65599 100.63 5.13599C98.3255 5.808 96.5015 5.232 94.4855 7.248C91.5095 10.224 87.3815 22.8 86.1335 23.664ZM99.5735 66.192C98.9975 69.744 98.9975 73.872 98.1335 77.328C97.4615 80.016 80.1815 79.056 78.8375 76.176C76.1495 70.512 90.6455 14.448 98.1335 8.88C99.3815 7.92 101.014 7.536 102.55 7.248C106.774 6.47999 123.478 6.576 125.878 10.032C128.086 13.2 129.43 17.04 130.582 20.688C132.79 27.984 143.158 69.072 140.278 75.312C138.07 80.112 121.942 80.976 120.79 75.888C120.118 72.912 120.214 69.072 119.926 66C113.11 65.616 106.39 65.712 99.5735 66.192ZM101.398 52.56C107.158 52.368 113.494 51.984 119.254 52.56C119.35 49.488 115.798 27.312 114.166 25.968C112.534 24.528 109.366 26.16 107.35 26.064C104.278 34.512 103.222 43.824 101.398 52.56ZM196.276 14.064C196.756 16.176 194.548 15.888 193.492 14.832C191.38 12.816 195.604 10.608 196.276 14.064ZM169.3 60.72C169.492 65.136 169.492 69.648 169.684 74.064C169.78 75.696 170.26 78.672 168.148 79.152C166.708 79.44 151.156 79.728 149.812 79.248C149.332 79.056 148.948 78.672 148.852 78.192C148.084 74.448 149.044 68.88 149.14 65.04C149.236 57.936 149.428 23.664 146.74 18.096C145.78 16.176 149.428 15.792 150.676 15.504C158.356 13.584 166.228 12.048 174.196 12.432C183.7 12.816 194.74 16.464 197.908 26.64C201.46 38.16 191.956 48.72 181.78 52.464C187.348 57.456 193.875 61.584 200.212 65.52C203.38 67.44 191.476 78.768 187.924 78.672C183.7 78.576 171.988 64.464 169.3 60.72ZM166.9 26.352C167.859 31.056 167.764 35.856 168.244 40.56C187.348 37.872 185.332 22.704 166.9 26.352ZM188.692 9.36C188.116 9.55199 186.58 8.976 186.004 8.88C178.996 7.248 170.836 9.168 163.636 8.4C162.484 8.304 162.484 6.672 163.252 6.096C163.828 5.616 165.748 5.424 166.516 5.424C170.644 5.232 174.676 4.848 178.804 5.232C180.244 5.328 187.924 6.576 188.884 7.34399C189.556 7.92 189.652 9.07199 188.692 9.36ZM229.112 57.648C228.92 63.6 228.92 69.648 229.592 75.6C229.688 76.176 229.88 76.848 229.592 77.424C228.728 79.056 214.616 78.672 212.312 78.192C211.352 78 210.968 77.52 210.584 76.656C209.336 73.296 209.144 68.688 208.856 65.136C207.416 48.144 206.648 31.44 208.952 14.544C209.144 13.392 209.336 10.032 210.104 9.264C210.488 5.328 227.864 8.016 230.744 9.264C231.8 9.744 231.512 11.28 231.416 12.144C230.84 20.208 230.648 28.56 230.648 36.72C237.848 31.056 246.584 18.672 250.616 10.416C250.904 9.84 251.192 9.264 251.96 9.07199C253.88 8.68799 265.4 18.288 265.4 20.208C265.688 20.688 265.496 21.264 265.112 21.552C259.544 31.152 250.424 41.712 241.112 47.952C244.952 51.024 249.176 53.904 253.496 56.304C256.472 57.936 260.408 59.28 263.096 61.2C263.672 61.584 264.056 62.256 264.056 62.928C264.056 64.848 254.552 77.808 252.44 78.096C247.16 78.864 232.568 61.68 229.112 57.648ZM217.88 14.064C219.224 14.352 220.472 13.104 220.184 11.76C219.416 8.112 212.504 10.416 211.256 17.04C210.68 19.92 209.528 31.152 210.296 33.552C210.968 35.568 213.56 35.568 214.04 33.552C214.136 33.072 214.04 32.688 213.944 32.208C213.656 29.616 214.328 15.6 216.632 14.544L217.88 14.064ZM222.776 13.872C226.136 15.504 226.328 8.68799 222.68 10.416C221.144 11.184 221.336 13.2 222.776 13.872ZM290.353 59.376C295.921 60.624 307.729 58.512 313.105 56.496C313.585 56.304 314.449 55.824 314.833 56.496C315.025 56.88 315.121 58.416 315.217 58.896C315.889 63.504 316.561 68.88 316.273 73.488C316.177 74.448 313.681 75.312 312.913 75.6C302.833 79.344 285.361 81.168 276.529 73.776C265.392 64.464 274.225 25.872 274.801 13.392C277.777 10.896 314.161 7.248 315.505 8.88C316.273 9.84 315.889 23.184 315.889 25.392C315.889 26.832 316.369 29.328 314.353 29.52C306.961 30.096 299.185 29.04 291.889 29.904C291.505 30.672 291.121 36.72 291.025 37.968C292.561 37.968 305.425 37.776 305.713 38.064C306.097 38.544 306.097 39.504 306.097 40.08C306.097 42.864 306.385 46.128 306.097 48.816C306.001 49.584 305.809 50.16 304.945 50.352C302.257 51.12 292.656 50.736 289.489 50.544C289.585 53.52 289.681 56.496 290.353 59.376ZM313.585 81.744C311.857 81.936 311.185 79.92 313.009 79.152C315.601 78.096 316.273 81.456 313.585 81.744ZM296.689 85.488C293.425 85.968 287.857 85.584 284.785 84.144C283.825 83.664 281.041 82.512 280.849 81.264C280.657 79.92 282.001 79.248 283.057 79.92C284.977 81.072 288.049 81.744 290.257 82.128C298.609 83.664 306.961 80.304 308.689 80.592C310.033 80.784 309.841 82.32 308.689 82.8C305.137 84.24 300.433 84.912 296.689 85.488ZM341.509 79.056C339.013 80.304 339.109 73.2 339.013 71.856C338.341 60.336 337.189 38.064 338.725 27.12C334.117 27.6 328.645 29.04 324.133 28.944C322.885 28.944 322.309 27.984 321.925 26.928C321.349 25.104 321.637 8.976 322.213 7.248C322.501 6.47999 322.885 5.712 323.557 5.328C324.613 4.65599 327.397 5.04 328.645 5.232C344.005 7.152 359.557 5.712 375.013 7.152C376.933 7.34399 377.221 7.632 378.181 9.168C378.181 12.816 378.277 24.144 375.781 26.448C374.437 27.696 372.325 27.696 370.597 27.696C367.525 27.696 364.549 27.408 361.477 27.792C361.573 43.632 362.629 59.28 363.301 75.12C363.301 75.696 363.301 77.136 362.821 77.52C362.341 77.904 360.709 78 360.037 78C356.485 78 342.949 79.248 341.509 79.056ZM347.941 13.776C348.613 13.968 367.237 12.816 367.621 12.624C368.869 11.856 368.581 9.55199 367.237 9.07199C366.757 8.88 348.229 9.936 347.461 10.416C346.213 11.28 346.405 13.296 347.941 13.776ZM371.845 12.816C372.901 13.68 374.437 13.008 374.821 11.76C376.26 7.248 368.197 9.936 371.845 12.816ZM429.159 69.552C428.391 72.24 427.719 75.216 426.855 77.808C425.895 80.496 413.895 76.944 411.303 76.752C410.343 76.656 409.191 76.752 408.423 76.176C408.231 76.08 408.423 73.488 408.423 73.104C408.711 63.408 409.671 53.904 409.671 44.112C409.671 33.936 409.095 23.568 407.943 13.392C407.847 12.432 407.559 11.376 408.615 10.8C410.055 9.936 425.991 7.536 426.759 8.112C427.623 8.784 427.527 11.952 427.623 13.008C435.399 7.248 446.727 6.86399 455.367 10.992C478.023 21.744 475.911 73.584 447.015 74.928C440.679 75.216 434.343 73.296 429.159 69.552ZM440.967 58.896C453.063 62.64 453.159 34.128 444.327 28.368C430.983 19.728 430.215 55.536 440.967 58.896ZM460.263 77.808C458.631 79.728 456.327 76.368 458.631 75.792C459.687 75.504 461.127 76.752 460.263 77.808ZM453.639 80.208C449.607 82.512 444.039 82.416 439.623 81.552C438.375 81.264 433.575 80.016 432.999 78.96C432.423 78 433.479 77.424 434.343 77.616C438.183 78.48 441.543 79.824 445.575 79.824C448.263 79.824 450.279 79.056 452.871 78.48C453.927 78.288 454.695 79.536 453.639 80.208ZM502.657 1.68C503.905 2.352 503.425 4.17599 502.081 4.368C499.681 4.65599 500.545 0.527996 502.657 1.68ZM482.977 23.664C479.137 26.352 483.457 14.64 483.745 13.968C484.897 10.896 486.433 7.92 488.929 5.808C490.465 4.56 495.457 2.16 497.377 2.544C498.817 2.832 498.913 4.65599 497.473 5.13599C495.169 5.808 493.345 5.232 491.329 7.248C488.353 10.224 484.225 22.8 482.977 23.664ZM496.417 66.192C495.841 69.744 495.841 73.872 494.977 77.328C494.305 80.016 477.025 79.056 475.681 76.176C472.993 70.512 487.489 14.448 494.977 8.88C496.225 7.92 497.857 7.536 499.393 7.248C503.617 6.47999 520.321 6.576 522.721 10.032C524.929 13.2 526.273 17.04 527.425 20.688C529.633 27.984 540.001 69.072 537.121 75.312C534.913 80.112 518.785 80.976 517.633 75.888C516.961 72.912 517.057 69.072 516.769 66C509.953 65.616 503.233 65.712 496.417 66.192ZM498.241 52.56C504.001 52.368 510.337 51.984 516.097 52.56C516.193 49.488 512.641 27.312 511.009 25.968C509.377 24.528 506.209 26.16 504.193 26.064C501.121 34.512 500.065 43.824 498.241 52.56ZM572.095 37.488C573.247 32.208 581.599 9.168 583.999 6.096C586.495 2.832 597.151 6.86399 600.511 8.016C601.279 8.304 603.007 8.4 603.007 9.456C603.007 10.608 599.455 18 598.783 19.728C591.775 37.392 585.727 55.92 581.695 74.448C581.311 76.176 581.407 78.48 580.735 80.112C580.255 81.264 579.295 81.168 578.239 80.976C575.647 80.496 563.263 77.904 561.919 76.656C561.151 75.984 561.055 75.408 561.055 74.352C561.055 72.528 565.087 58.8 565.951 56.208C551.551 54.096 545.503 46.224 544.063 32.304C543.487 26.928 543.103 21.552 543.199 16.176C543.199 15.216 543.007 13.296 543.487 12.528C544.351 11.088 550.015 9.936 551.743 9.744C553.471 9.55199 562.687 8.68799 563.551 9.744C565.663 12.336 559.039 37.488 572.095 37.488ZM554.431 58.512C556.255 59.472 556.063 62.352 554.239 62.16C551.263 61.872 546.367 58.704 544.831 56.112C544.351 55.344 543.583 53.424 544.063 52.56C544.543 51.696 545.695 51.888 546.079 52.752C547.231 55.632 551.935 57.264 554.431 58.512ZM560.287 63.504C559.231 65.328 557.119 63.312 558.079 61.584C559.135 59.76 561.343 61.68 560.287 63.504ZM641.26 77.136C627.244 81.168 609.292 78 608.332 60.336C608.236 59.28 608.236 58.224 609.1 57.456C610.732 56.016 624.652 53.616 625.612 55.536C626.859 57.936 624.844 63.024 630.028 63.024C634.156 63.024 635.404 58.128 633.964 54.96C629.068 43.824 602.091 48.528 604.588 27.888C605.644 19.248 612.844 12.528 620.524 9.36C629.836 5.616 642.028 5.51999 650.667 10.896C656.524 14.544 659.98 20.208 660.46 27.024C660.556 28.944 660.748 32.208 658.444 32.976C657.004 33.456 643.852 34.704 642.316 34.512C641.164 34.416 640.204 34.32 640.012 32.976C639.34 28.848 639.436 23.568 634.444 21.84C629.836 20.304 621.292 24.336 623.5 30.096C625.516 35.568 650.956 37.872 655.66 53.52C658.732 63.792 651.052 74.256 641.26 77.136ZM637.612 72.624C636.268 74.256 638.284 76.176 640.108 75.6C646.828 73.392 652.684 67.632 653.26 60.432C653.74 55.152 649.42 56.4 649.42 58.608C649.42 60.912 649.132 62.256 648.268 64.368C645.964 69.936 638.38 71.664 637.612 72.624ZM631.756 76.272C632.908 77.328 634.732 76.656 635.02 75.216C635.788 71.184 628.78 73.488 631.756 76.272Z" fill="url(#paint0_linear_1254_4991)"/>
<defs>
<linearGradient id="paint0_linear_1254_4991" x1="330.5" y1="0" x2="330.5" y2="122" gradientUnits="userSpaceOnUse">
<stop stop-color="#FFEAC3"/>
<stop offset="0.79" stop-color="#E6A7A5"/>
<stop offset="1" stop-color="#B32169"/>
</linearGradient>
</defs>
</svg>
