<svg width="378" height="437" viewBox="0 0 378 437" fill="none" xmlns="http://www.w3.org/2000/svg">
<g clip-path="url(#clip0_3347_3)">
<path d="M254.066 140.49C235.791 147.19 162.858 203.609 128.708 235.898C171.066 229.437 259.607 215.363 274.913 210.755C294.045 204.995 302.166 189.891 303.556 169.357C305.155 145.736 275.299 132.705 254.066 140.49Z" fill="url(#paint0_linear_3347_3)"/>
<path d="M235.27 163.163C222.144 171.412 173.578 227.894 152.211 258.48C184.223 246.575 251.047 221.249 262.242 215.185C276.236 207.606 279.956 194.597 277.816 178.436C275.282 159.309 250.481 153.603 235.27 163.163Z" fill="url(#paint1_linear_3347_3)"/>
<path d="M277.275 202.617L174.502 264.088C171.763 264.805 166.799 266.509 168.86 267.585C170.92 268.661 171.841 281.899 172.044 288.384L175.975 289.731C198.84 299.187 247.229 318.612 257.87 320.665C271.171 323.231 279.478 325.564 314.009 323.363C341.634 321.602 357.884 306.558 362.555 299.256C364.111 296.385 366.141 287.143 361.808 273.144C357.474 259.144 342.255 244.36 335.187 238.718C336.242 235.434 338.519 227.23 339.182 220.68C340.01 212.491 334.483 198.768 323.183 195.194C313.722 192.202 301.266 190.67 277.275 202.617Z" fill="url(#paint2_linear_3347_3)"/>
<path d="M251.133 225.843L167.408 263.202C165.159 263.609 161.091 264.604 162.814 265.332C164.536 266.059 165.549 274.544 165.84 278.696L169.114 279.632C188.182 286.116 228.525 299.463 237.354 300.98C248.39 302.875 255.297 304.525 283.779 303.775C306.566 303.176 319.702 293.863 323.422 289.281C324.653 287.475 326.153 281.602 322.306 272.565C318.46 263.528 305.606 253.782 299.66 250.038C300.469 247.958 302.193 242.754 302.616 238.577C303.145 233.355 298.317 224.472 288.914 221.97C281.042 219.876 270.723 218.659 251.133 225.843Z" fill="url(#paint3_linear_3347_3)"/>
<path d="M218.367 213.718L160.796 249.085L156.136 252.165L159.869 263.492C160.309 263.655 165.73 263.598 183.891 262.063C206.592 260.144 241.943 248.629 247.302 245.188C252.661 241.747 255.439 232.192 254.243 223.462C253.047 214.733 240.538 207.438 234.622 206.923C229.89 206.51 221.814 211.281 218.367 213.718Z" fill="url(#paint4_linear_3347_3)"/>
<path d="M51.0399 183.127L95.9317 235.356L107.036 245.978L100.815 253.471C98.2883 252.722 84.8626 248.737 68.1662 241.429C47.2956 232.294 16.3913 211.143 13.1493 205.661C7.80383 196.624 8.70745 187.941 13.938 180.785C19.1376 173.672 32.0773 170.035 37.8432 171.454C42.456 172.589 48.563 179.709 51.0399 183.127Z" fill="url(#paint5_linear_3347_3)" stroke="black" stroke-width="0.922669"/>
<path d="M147.148 273.845L138.93 295.304C143.592 300.604 163.298 313.767 169.702 329.952C174.466 341.99 176.838 379.99 166.734 390.193C160.798 396.187 170.166 396.923 182.055 393.685C196.916 389.637 208.519 367.133 206.04 333.998C203.854 304.796 167.448 281.651 147.148 273.845Z" fill="url(#paint6_linear_3347_3)"/>
<path d="M83.6514 217.332C82.9496 216.732 82.3059 216.166 81.7278 215.644C82.3498 216.178 82.9957 216.744 83.6514 217.332C92.0179 224.485 108.663 236.526 121.417 238.319C138.697 240.749 164.751 249.117 170.151 245.473C174.471 242.558 179.601 261.13 178.656 275.033C176.361 291.635 161.241 299.868 148.952 303.358C140.728 305.694 125.731 309.306 109.402 304.168C98.7374 300.813 95.7675 298.653 89.6926 291.095C83.7378 283.685 79.8878 267.335 80.3779 258.026C81.0528 245.203 91.0426 232.515 93.8776 230.626C95.9133 229.269 89.4 222.482 83.6514 217.332Z" fill="url(#paint7_linear_3347_3)"/>
<ellipse cx="234.27" cy="125.575" rx="16.5531" ry="21.6939" transform="rotate(38.8195 234.27 125.575)" fill="url(#paint8_linear_3347_3)"/>
<path d="M224.929 183.43C226.259 222.676 192.378 253.535 141.038 249.115C89.6983 244.695 48.7946 209.546 52.099 171.163C55.4034 132.78 93.7288 102.541 145.069 106.961C196.409 111.381 221.159 141.262 224.929 183.43Z" fill="url(#paint9_linear_3347_3)"/>
<ellipse cx="224.512" cy="132.538" rx="23.6329" ry="36.9674" transform="rotate(39.8679 224.512 132.538)" fill="url(#paint10_linear_3347_3)"/>
<path d="M170.937 154.991C133.246 179.411 117.66 156.6 120.343 138.666C108.214 134.264 80.4793 142.013 74.2774 158.499C63.1805 187.997 97.7498 219.414 121.423 225.553C141.629 230.794 169.591 234.389 190.075 218.903C216.656 198.809 189.07 167.183 170.937 154.991Z" fill="url(#paint11_linear_3347_3)"/>
<path d="M134.842 309.802C123.033 309.371 107.186 306.83 95.3147 295.347L87.625 287.124C89.7835 297.932 99.1606 318.3 105.702 326.439C116.765 340.201 144.184 359.101 155.618 354.521C170.458 348.576 167.971 335.571 166.275 331.553C164.117 326.439 153.324 310.478 134.842 309.802Z" fill="url(#paint12_linear_3347_3)"/>
<path d="M41.1663 189.795C41.1663 196.248 34.3361 207.925 26.5301 210.342C18.8635 212.088 14.9605 207.388 13.1484 195.704C13.1484 185.222 18.1512 179.965 27.3665 176.634C36.2876 174.888 42.1421 178.111 41.1663 189.795Z" fill="url(#paint13_linear_3347_3)"/>
<path d="M224.314 224.299C224.314 230.752 231.144 242.429 238.95 244.846C246.617 246.592 250.52 241.891 252.332 230.208C252.332 219.726 247.329 214.469 238.114 211.138C229.193 209.392 223.338 212.615 224.314 224.299Z" fill="url(#paint14_linear_3347_3)"/>
<path d="M141.503 331.788C139.406 337.216 138.217 348.358 145.288 351.803C151.004 355.698 160.006 352.485 163.649 343.445C167.973 333.239 162.03 327.343 156.768 324.422C150.022 322.129 144.879 324.041 141.503 331.788Z" fill="url(#paint15_linear_3347_3)"/>
<path d="M177.736 368.176C176.075 389.669 165.463 389.75 172.804 392.573C184.895 393.016 195.323 383.623 198.173 374.303C201.602 363.761 194.764 361.51 189.271 359.054C181.347 358.249 179.92 360.54 177.736 368.176Z" fill="url(#paint16_linear_3347_3)"/>
<path d="M132.937 205.03L115.95 199.628C115.456 201.609 114.602 206.272 115.141 209.081C115.815 212.593 121.208 216.104 125.117 215.429C128.245 214.888 131.634 208.271 132.937 205.03Z" fill="#3E1A3F" stroke="black" stroke-width="0.922669"/>
<ellipse cx="98.1054" cy="174.259" rx="8.22996" ry="10.5236" transform="rotate(18.7162 98.1054 174.259)" fill="#3E1A3F"/>
<ellipse cx="167.514" cy="90.1903" rx="28.1977" ry="43.1285" transform="rotate(20.0911 167.514 90.1903)" fill="url(#paint17_linear_3347_3)"/>
<ellipse cx="155.327" cy="192.116" rx="7.82521" ry="10.5236" transform="rotate(22.2715 155.327 192.116)" fill="#3E1A3F"/>
<path d="M109.028 161.366C111.032 160.399 110.532 158.435 110.032 157.575C110.428 157.493 107.088 156.671 104.969 156.422C102.85 156.174 99.9992 157.042 98.6285 157.74C97.532 158.299 98.039 159.103 98.4296 159.435C98.6057 159.398 99.5612 159.31 101.974 159.25C104.387 159.189 107.682 160.635 109.028 161.366Z" fill="#3E1A3F"/>
<path d="M158.288 175.577C157.09 173.702 158.546 172.293 159.424 171.823C159.129 171.545 162.404 172.598 164.338 173.498C166.272 174.398 168.244 176.633 169.044 177.947C169.684 178.998 168.831 179.416 168.324 179.494C168.193 179.371 167.426 178.794 165.404 177.477C163.382 176.159 159.818 175.661 158.288 175.577Z" fill="#3E1A3F"/>
<path d="M163.432 186.771C161.685 186.523 161.651 185.108 161.853 184.431C161.53 184.455 163.923 183.236 165.498 182.645C167.074 182.054 169.451 182.065 170.653 182.259C171.615 182.414 171.397 183.054 171.167 183.355C171.024 183.366 170.271 183.498 168.403 183.94C166.536 184.383 164.311 186.011 163.432 186.771Z" fill="#3E1A3F"/>
<path d="M163.813 188.894C162.079 188.309 162.32 186.92 162.658 186.299C162.324 186.259 165.002 185.539 166.725 185.272C168.447 185.005 170.87 185.483 172.059 185.909C173.01 186.249 172.663 186.831 172.37 187.08C172.222 187.062 171.428 187.043 169.436 187.108C167.445 187.172 164.858 188.325 163.813 188.894Z" fill="#3E1A3F"/>
<path d="M91.5793 169.269C93.2898 169.918 93.9858 168.692 94.12 167.998C94.4028 168.179 92.7913 165.922 91.6303 164.622C90.4693 163.321 88.2943 162.152 87.1057 161.726C86.1548 161.385 86.0534 162.055 86.1216 162.433C86.2473 162.513 86.8729 163.003 88.37 164.318C89.8672 165.632 91.1333 168.166 91.5793 169.269Z" fill="#3E1A3F"/>
<path d="M92.9691 167.754C94.4643 168.808 95.4435 167.794 95.7462 167.155C95.9751 167.401 94.9759 164.814 94.175 163.266C93.3741 161.717 91.5586 160.044 90.5135 159.335C89.6774 158.768 89.4123 159.392 89.3843 159.775C89.486 159.884 89.9701 160.514 91.093 162.16C92.2158 163.806 92.8116 166.575 92.9691 167.754Z" fill="#3E1A3F"/>
<ellipse cx="102.536" cy="168.903" rx="1.88794" ry="1.82284" fill="#D9D9D9"/>
<ellipse cx="152.924" cy="196.244" rx="2.40876" ry="2.86447" fill="#D9D9D9"/>
<circle cx="158.654" cy="186.936" r="1.88794" fill="#D9D9D9"/>
<ellipse cx="95.1093" cy="178.21" rx="2.53896" ry="3.05977" fill="#D9D9D9"/>
<path d="M121.186 209.274C119.524 208.589 117.396 210.673 116.332 211.694C117.292 214.102 121.998 215.876 124.516 215.499C124.684 215.119 124.497 213.82 124.068 212.515C123.531 210.883 123.263 210.131 121.186 209.274Z" fill="#C978D7" stroke="black" stroke-width="0.922669"/>
<path d="M133.2 204.598L116.273 199.371C116.273 200.765 117.357 202.007 117.898 202.454C118.756 203.258 120.904 205.081 122.638 205.938C124.804 207.011 125.888 207.145 126.7 207.279C127.513 207.413 131.304 207.145 131.981 206.743C132.523 206.421 133.019 205.179 133.2 204.598Z" fill="#C978D7" stroke="black" stroke-width="0.922669"/>
<ellipse cx="91.8128" cy="96.3838" rx="24.9597" ry="36.9674" transform="rotate(-1.90078 91.8128 96.3838)" fill="url(#paint18_linear_3347_3)"/>
<ellipse cx="91.7922" cy="95.4088" rx="15.3988" ry="20.1543" transform="rotate(-6.52445 91.7922 95.4088)" fill="url(#paint19_linear_3347_3)"/>
<ellipse cx="165.543" cy="95.0134" rx="14.9291" ry="23.3551" transform="rotate(19.0086 165.543 95.0134)" fill="url(#paint20_linear_3347_3)"/>
<ellipse cx="224.633" cy="131.002" rx="13.6514" ry="20.2043" transform="rotate(36.5894 224.633 131.002)" fill="url(#paint21_linear_3347_3)"/>
<path d="M173.484 246.949C134.296 253.793 102.306 240.178 91.2096 232.516C90.67 234.345 88.2275 236.471 88.3837 238.374C88.5398 240.276 94.528 240.828 97.5026 240.867C97.2761 240.816 102.893 248.798 105.852 250.357C108.811 251.917 113.668 249.139 117.746 250.057C118.591 252.263 121.249 257.007 123.043 259.548C125.286 262.726 132.064 266.035 134.225 265.98C135.954 265.937 145.647 263.31 146.01 255.982C153.635 262.461 161.696 258.026 164.773 254.998C164.159 253.879 163.296 252.176 164.756 254.318C166.216 256.459 172.696 255.025 175.437 254.729L173.484 246.949Z" fill="url(#paint22_linear_3347_3)"/>
</g>
<defs>
<linearGradient id="paint0_linear_3347_3" x1="231.819" y1="129.835" x2="206.117" y2="252.162" gradientUnits="userSpaceOnUse">
<stop stop-color="#A343A5"/>
<stop offset="0.902" stop-color="#B32169"/>
</linearGradient>
<linearGradient id="paint1_linear_3347_3" x1="215.294" y1="158.614" x2="215.294" y2="258.48" gradientUnits="userSpaceOnUse">
<stop stop-color="#969FF0"/>
<stop offset="1" stop-color="#C978D7"/>
</linearGradient>
<linearGradient id="paint2_linear_3347_3" x1="275.458" y1="189.352" x2="262.012" y2="322.217" gradientUnits="userSpaceOnUse">
<stop offset="0.357" stop-color="#A343A5"/>
<stop offset="1" stop-color="#B32169"/>
</linearGradient>
<linearGradient id="paint3_linear_3347_3" x1="249.379" y1="217.324" x2="240.805" y2="302.051" gradientUnits="userSpaceOnUse">
<stop offset="0.447" stop-color="#969FF0"/>
<stop offset="0.7235" stop-color="#AF8BE3"/>
<stop offset="1" stop-color="#C978D7"/>
</linearGradient>
<linearGradient id="paint4_linear_3347_3" x1="207.591" y1="205.182" x2="203.656" y2="266.332" gradientUnits="userSpaceOnUse">
<stop stop-color="#C978D7"/>
<stop offset="1" stop-color="#B32169"/>
</linearGradient>
<linearGradient id="paint5_linear_3347_3" x1="68.7348" y1="179.802" x2="52.3625" y2="240.374" gradientUnits="userSpaceOnUse">
<stop stop-color="#C978D7"/>
<stop offset="1" stop-color="#B32169"/>
</linearGradient>
<linearGradient id="paint6_linear_3347_3" x1="172.652" y1="273.845" x2="172.652" y2="395.585" gradientUnits="userSpaceOnUse">
<stop offset="0.26" stop-color="#B32169"/>
<stop offset="0.675" stop-color="#C978D7"/>
</linearGradient>
<linearGradient id="paint7_linear_3347_3" x1="125.943" y1="215.644" x2="125.943" y2="307.554" gradientUnits="userSpaceOnUse">
<stop offset="0.417" stop-color="#C978D7"/>
<stop offset="0.936999" stop-color="#B32169"/>
<stop offset="1" stop-color="#B4246D"/>
</linearGradient>
<linearGradient id="paint8_linear_3347_3" x1="234.27" y1="103.881" x2="234.27" y2="147.269" gradientUnits="userSpaceOnUse">
<stop offset="0.51" stop-color="#741F5E"/>
<stop offset="1" stop-color="#969FF0"/>
</linearGradient>
<linearGradient id="paint9_linear_3347_3" x1="145.379" y1="105.22" x2="133.201" y2="246.672" gradientUnits="userSpaceOnUse">
<stop offset="0.1" stop-color="#C978D7"/>
<stop offset="0.257" stop-color="#C978D7"/>
<stop offset="0.832" stop-color="#B32169"/>
</linearGradient>
<linearGradient id="paint10_linear_3347_3" x1="224.512" y1="95.5708" x2="224.512" y2="169.505" gradientUnits="userSpaceOnUse">
<stop stop-color="#B32169"/>
<stop offset="1" stop-color="#C978D7"/>
</linearGradient>
<linearGradient id="paint11_linear_3347_3" x1="149.347" y1="138.601" x2="126.654" y2="226.845" gradientUnits="userSpaceOnUse">
<stop stop-color="white" stop-opacity="0.63"/>
<stop offset="0.666667" stop-color="#9988DD"/>
<stop offset="1" stop-color="#9C71CA"/>
</linearGradient>
<linearGradient id="paint12_linear_3347_3" x1="127.597" y1="287.124" x2="127.597" y2="355.22" gradientUnits="userSpaceOnUse">
<stop stop-color="#B32169"/>
<stop offset="1" stop-color="#C978D7"/>
</linearGradient>
<linearGradient id="paint13_linear_3347_3" x1="27.2104" y1="176.191" x2="27.2104" y2="210.695" gradientUnits="userSpaceOnUse">
<stop stop-color="#969FF0"/>
<stop offset="1" stop-color="#5F1780"/>
</linearGradient>
<linearGradient id="paint14_linear_3347_3" x1="238.27" y1="210.695" x2="238.27" y2="245.199" gradientUnits="userSpaceOnUse">
<stop stop-color="#969FF0"/>
<stop offset="1" stop-color="#5F1780"/>
</linearGradient>
<linearGradient id="paint15_linear_3347_3" x1="158.277" y1="323.152" x2="147.067" y2="352.18" gradientUnits="userSpaceOnUse">
<stop stop-color="#969FF0"/>
<stop offset="1" stop-color="#5F1780"/>
</linearGradient>
<linearGradient id="paint16_linear_3347_3" x1="192.203" y1="355.08" x2="183.536" y2="384.965" gradientUnits="userSpaceOnUse">
<stop stop-color="#969FF0"/>
<stop offset="1" stop-color="#5F1780"/>
</linearGradient>
<linearGradient id="paint17_linear_3347_3" x1="167.514" y1="47.0618" x2="167.514" y2="133.319" gradientUnits="userSpaceOnUse">
<stop offset="0.192" stop-color="#B32169"/>
<stop offset="1" stop-color="#C978D7"/>
</linearGradient>
<linearGradient id="paint18_linear_3347_3" x1="91.8128" y1="59.4164" x2="91.8128" y2="133.351" gradientUnits="userSpaceOnUse">
<stop offset="0.327" stop-color="#B32169"/>
<stop offset="0.855" stop-color="#C978D7"/>
</linearGradient>
<linearGradient id="paint19_linear_3347_3" x1="91.7922" y1="75.2545" x2="91.7922" y2="115.563" gradientUnits="userSpaceOnUse">
<stop offset="0.272" stop-color="#741F5E"/>
<stop offset="1" stop-color="#969FF0"/>
</linearGradient>
<linearGradient id="paint20_linear_3347_3" x1="165.543" y1="71.6583" x2="165.543" y2="118.369" gradientUnits="userSpaceOnUse">
<stop offset="0.357" stop-color="#741F5E"/>
<stop offset="1" stop-color="#969FF0"/>
</linearGradient>
<linearGradient id="paint21_linear_3347_3" x1="224.633" y1="110.798" x2="224.633" y2="151.207" gradientUnits="userSpaceOnUse">
<stop offset="0.297" stop-color="#741F5E"/>
<stop offset="1" stop-color="#969FF0"/>
</linearGradient>
<linearGradient id="paint22_linear_3347_3" x1="88.6699" y1="249.855" x2="175.259" y2="247.67" gradientUnits="userSpaceOnUse">
<stop stop-color="#969FF0"/>
<stop offset="0.487" stop-color="#C213BB"/>
<stop offset="1" stop-color="#969FF0"/>
</linearGradient>
<clipPath id="clip0_3347_3">
<rect width="378" height="437" fill="white"/>
</clipPath>
</defs>
</svg>
