<svg width="481" height="86" viewBox="0 0 481 86" fill="none" xmlns="http://www.w3.org/2000/svg">
<path d="M55.8526 15.944C56.8126 15.848 57.1006 16.424 57.2926 17.192C57.6766 19.112 56.6206 35.24 56.5246 38.984C56.3326 48.584 56.6206 58.184 57.3886 67.784C57.4846 69.416 59.0206 76.52 57.3886 76.904C53.5486 77.672 46.4446 77.384 42.3166 77.384C41.2606 77.384 39.9166 77.768 38.9566 77.576C38.2846 77.48 37.1326 76.808 37.7086 75.944C37.5166 68.648 38.1886 61.16 38.4766 53.864C33.3886 54.056 28.3006 54.056 23.2126 54.344C23.2126 61.448 22.9246 68.744 24.0766 75.752C24.2686 77 22.9246 77.48 21.9646 77.48C16.3006 77.288 10.7326 76.712 5.06863 76.904C4.58863 76.904 2.28463 77.096 1.99663 77C0.748625 76.712 0.748625 75.368 0.748625 74.312C0.940625 69.224 1.32463 64.232 1.42063 59.144C1.80463 43.784 1.70863 28.232 1.51663 12.872C1.51663 11.144 0.940625 9.128 1.13263 7.496C1.32463 5.86399 3.62863 5.96 4.78063 6.056C9.00463 6.248 13.3246 6.72799 17.5486 6.72799C18.9886 6.72799 20.3326 6.34399 21.7726 6.34399C22.7326 6.34399 23.8846 6.632 24.4606 7.4C25.7086 9.032 25.2286 33.032 25.2286 36.776L36.3646 36.872C35.8846 33.32 35.4046 19.784 36.5566 16.808C36.0766 15.944 36.7486 15.464 37.5166 15.368C38.6686 15.176 55.1806 15.56 55.8526 15.944ZM58.2526 10.568C56.0446 12.392 52.9726 9.704 55.2766 8.55199C58.2526 6.92 59.7886 9.32 58.2526 10.568ZM50.1886 11.72C47.3086 12.584 37.7086 12.104 34.6366 11.432C33.6766 11.24 30.2206 9.704 32.8126 8.744C33.6766 8.456 38.5726 8.648 39.9166 8.648C41.8366 8.648 52.4926 6.92 52.0126 10.184C51.9166 10.952 50.8606 11.528 50.1886 11.72ZM92.0814 3.272C89.6814 4.04 89.9694 0.391996 91.6974 0.487995C93.3294 0.583994 93.6174 2.696 92.0814 3.272ZM70.8654 21.992C72.1134 16.424 74.1294 8.264 78.7374 4.616C80.1774 3.464 85.9374 0.679998 87.5694 1.736C88.4334 2.31199 88.2414 3.944 87.1854 4.13599C84.8814 4.424 83.1534 4.424 81.3294 5.96C79.5054 7.496 76.1454 14.792 75.1854 17.288C74.7054 18.44 73.5534 22.376 72.4974 22.76C71.8254 23.048 71.0574 22.664 70.8654 21.992ZM86.1294 65.192C85.8414 66.92 84.7854 76.52 84.1134 77.192C82.5774 78.632 67.2174 77.672 65.7774 75.752C62.1294 70.952 77.2974 11.144 85.7454 7.20799C88.6254 5.86399 92.3694 5.672 95.5374 5.768C98.6094 5.86399 109.649 6.44 111.665 8.264C117.041 13.064 130.289 67.688 126.641 74.6C124.241 79.208 108.209 79.88 107.345 74.888C106.865 71.72 106.769 68.264 106.385 65C99.6654 64.616 92.8494 64.712 86.1294 65.192ZM87.8574 51.56C93.7134 51.176 99.8574 50.984 105.713 51.56C105.905 48.2 102.545 27.56 101.201 25.544C99.6654 23.24 96.0174 25.16 93.9054 25.064C90.7374 33.608 89.7774 42.728 87.8574 51.56ZM157.862 6.92C158.246 7.592 157.766 8.456 156.998 8.55199C156.326 8.648 155.75 8.168 155.078 8.07199C151.43 7.496 147.494 8.744 144.038 8.264C143.366 8.168 142.31 7.784 142.31 7.016C142.31 3.56 156.422 4.13599 157.862 6.92ZM140.006 8.84C137.894 11.528 135.11 5.096 138.854 5.47999C140.39 5.672 140.87 7.68799 140.006 8.84ZM144.422 77.864C142.886 77.864 138.566 78.056 137.414 77C136.742 76.328 136.646 75.272 136.55 74.408C136.166 70.472 134.054 16.424 134.15 15.944C134.822 13.256 148.838 12.872 151.526 12.872C152.582 12.872 155.462 12.776 156.326 13.256C157.958 14.12 157.67 17.768 157.67 19.304L157.766 75.656C157.766 76.616 157.382 77.096 156.518 77.384C155.27 77.768 146.438 77.864 144.422 77.864ZM175.973 76.328C168.101 81.416 161.477 71.24 167.909 65.672C169.061 64.616 170.693 64.136 172.229 64.04C186.725 63.272 181.253 80.744 175.973 83.72C175.301 84.104 174.341 83.432 174.629 82.664C175.397 80.36 176.165 78.92 175.973 76.328ZM230.578 32.36C232.498 41.96 236.818 67.112 235.762 76.04C235.57 77.768 234.13 78.344 232.594 78.44C229.906 78.632 213.778 79.112 212.626 77.48C211.57 75.944 212.818 71.336 213.106 69.512C215.122 56.264 215.026 33.512 213.778 19.976C213.682 18.536 212.914 11.912 213.106 11.048C213.586 8.84 230.29 5.576 232.402 6.44C234.13 7.112 237.682 16.04 238.45 18.056C242.386 28.04 245.362 38.408 248.818 48.584C249.586 36.68 248.626 23.624 246.706 11.912C246.514 10.568 245.842 8.744 247.474 8.07199C249.298 7.304 266.29 6.248 268.498 6.824C268.786 7.20799 268.69 7.68799 268.594 8.168C267.826 13.256 267.922 18.824 267.826 24.008C267.538 37.256 267.346 50.504 267.25 63.752C267.25 66.632 263.026 65.864 261.106 65.864C255.922 65.864 251.41 66.728 246.418 67.784C245.938 67.88 245.266 67.88 244.882 67.592C244.018 66.92 243.826 65.672 243.538 64.712C240.466 53.96 236.53 41.864 230.578 32.36ZM246.034 76.232C245.362 76.328 244.306 76.424 243.634 76.232C242.098 75.848 242.098 73.928 243.538 73.448C247.858 71.912 252.37 71.72 256.882 71.336C262.93 70.856 261.49 74.504 259.378 74.984C255.154 75.944 250.354 75.656 246.034 76.232ZM266.866 71.816C269.458 72.488 267.538 76.328 264.85 74.696C262.834 73.448 265.042 71.336 266.866 71.816ZM314.93 2.696C314.642 6.056 309.938 3.17599 312.53 1.256C313.874 0.199999 315.122 0.967995 314.93 2.696ZM334.994 13.448C335.57 14.984 333.842 15.656 332.882 14.408C331.442 12.488 330.194 11.048 327.986 9.992C326.834 9.41599 317.234 5.576 316.946 5.192C316.274 4.232 316.946 3.272 318.002 2.984C323.09 1.64 333.266 8.84 334.994 13.448ZM310.994 77C306.77 77.288 298.802 77.288 295.058 75.464C282.386 69.32 279.314 51.368 277.394 38.984C276.53 33.608 275.858 28.232 276.818 22.856C278.546 12.872 285.458 7.976 295.154 6.92C301.586 6.152 308.21 6.632 314.45 8.264C321.938 10.28 329.522 14.312 333.074 21.512C334.706 24.968 335.378 28.712 335.666 32.552C336.434 43.784 330.482 69.992 319.538 75.368C316.946 76.616 313.874 76.808 310.994 77ZM302.162 53.672C316.082 60.68 318.29 35.816 315.122 31.496C314.066 30.056 312.53 29 310.898 28.232C308.306 26.984 302.066 25.928 299.57 27.752C294.866 31.304 296.978 51.08 302.162 53.672ZM376.646 45.608C377.606 42.248 387.782 9.224 389.51 8.456C390.662 7.976 404.966 9.41599 405.542 10.568C405.926 11.336 405.926 14.216 406.022 15.272C407.174 32.456 408.998 49.928 411.782 66.92C411.974 68.168 413.414 74.984 412.838 75.656C412.262 76.328 399.206 77 397.382 77.192C396.038 77.384 392.39 78.344 391.718 76.616C390.182 72.488 389.798 48.104 389.702 42.344C388.646 44.936 381.83 65.384 381.83 65.384C380.87 66.44 372.422 65.576 370.406 65.672C368.006 65.864 368.006 62.408 367.622 60.68C366.182 54.536 364.55 48.392 363.206 42.152C361.67 53 361.094 63.944 360.23 74.888C360.134 75.752 360.134 77.384 358.982 77.576C358.502 77.672 355.814 76.616 355.142 76.424C351.206 75.272 344.294 73.736 340.262 73.832C339.494 73.544 339.686 71.624 339.878 70.952C344.102 51.752 347.462 32.744 350.726 13.448C350.822 12.68 351.014 11.816 351.59 11.24C352.742 10.088 367.718 7.112 368.294 7.976C368.486 8.264 368.582 9.89599 368.678 10.376C370.406 22.28 373.382 33.992 376.646 45.608ZM400.742 29.096C401.51 31.112 404.39 30.44 404.486 28.328C404.582 24.776 404.198 13.544 400.454 11.912C399.398 11.432 395.558 11.24 394.31 11.24C391.43 11.24 390.086 13.832 392.486 14.888C393.734 15.464 398.246 14.792 399.014 15.56C400.454 16.904 399.974 26.984 400.742 29.096ZM401.702 36.776C402.854 37.64 404.678 36.968 404.87 35.528C405.446 31.304 398.342 34.088 401.702 36.776ZM443.987 6.92C444.371 7.592 443.891 8.456 443.123 8.55199C442.451 8.648 441.875 8.168 441.203 8.07199C437.555 7.496 433.619 8.744 430.163 8.264C429.491 8.168 428.435 7.784 428.435 7.016C428.435 3.56 442.547 4.13599 443.987 6.92ZM426.131 8.84C424.019 11.528 421.235 5.096 424.979 5.47999C426.515 5.672 426.995 7.68799 426.131 8.84ZM430.547 77.864C429.011 77.864 424.691 78.056 423.539 77C422.867 76.328 422.771 75.272 422.675 74.408C422.291 70.472 420.179 16.424 420.275 15.944C420.947 13.256 434.963 12.872 437.651 12.872C438.707 12.872 441.587 12.776 442.451 13.256C444.083 14.12 443.795 17.768 443.795 19.304L443.891 75.656C443.891 76.616 443.507 77.096 442.643 77.384C441.395 77.768 432.563 77.864 430.547 77.864ZM453.938 13.544C453.842 12.488 453.65 9.41599 455.474 9.128C457.778 8.84 474.674 8.36 475.922 9.41599C476.594 9.992 476.978 10.76 477.074 11.624C477.458 14.12 475.058 53.576 473.33 55.496C472.85 56.072 472.082 56.456 471.314 56.552C468.146 57.032 463.73 56.84 460.466 56.84C459.41 56.84 458.258 56.552 457.682 55.592C455.57 52.232 454.61 20.36 453.938 13.544ZM459.506 14.504C460.754 15.08 466.226 13.64 468.434 14.024C470.45 14.408 471.698 11.912 470.066 10.568C469.01 9.704 460.082 10.472 459.122 11.24C457.97 12.104 458.258 13.928 459.506 14.504ZM471.698 12.296C470.642 14.6 474.674 16.136 475.25 13.64C475.826 11.24 472.754 9.992 471.698 12.296ZM475.634 67.688C480.338 77.288 466.514 85.448 459.218 79.016C448.658 69.704 468.626 53.48 475.634 67.688Z" fill="url(#paint0_radial_1245_4187)"/>
<defs>
<radialGradient id="paint0_radial_1245_4187" cx="0" cy="0" r="1" gradientUnits="userSpaceOnUse" gradientTransform="translate(611.793 44) rotate(-176.783) scale(801.826 145.892)">
<stop offset="0.120225" stop-color="#D7B575"/>
<stop offset="0.370102" stop-color="#B32169"/>
<stop offset="0.660328" stop-color="#741F5E"/>
<stop offset="1" stop-color="#BC0079" stop-opacity="0"/>
</radialGradient>
</defs>
</svg>
