<svg width="378" height="437" viewBox="0 0 378 437" fill="none" xmlns="http://www.w3.org/2000/svg">
<g clip-path="url(#clip0_1829_2)">
<g filter="url(#filter0_d_1829_2)">
<path d="M133.118 194.824C131.006 156.91 144.393 158.367 151.35 163.835C164.169 169.585 162.495 185.118 149.799 177.662C137.103 170.206 147.847 311.452 139.715 319.686C131.584 327.921 112.55 324.223 101.826 289.487C91.1024 254.751 123.496 261.801 120.962 276.507C118.429 291.214 95.2727 273.345 119.949 300.697C144.625 328.05 135.757 242.217 133.118 194.824Z" fill="url(#paint0_linear_1829_2)"/>
<path d="M108.127 270.233C110.077 273.131 114.097 278.035 114.58 274.476C115.183 270.027 109.332 266.223 108.127 270.233Z" fill="#C978D7"/>
</g>
<g filter="url(#filter1_d_1829_2)">
<path d="M167.72 170.943C162.774 169.306 155.009 177.547 153.072 181.848C151.135 186.15 157.296 188.159 156.409 193.463C155.522 198.767 165.6 190.915 164.662 200.723C163.725 210.531 160.847 216.887 178.199 221.165C195.55 225.443 197.165 254.645 193.335 269.567C189.505 284.489 197.388 288.251 207.74 292.095C218.092 295.938 207.918 306.993 213.028 325.802C218.137 344.612 253.666 326.306 265.923 328C278.181 329.693 282.343 360.188 292.166 352.419C301.989 344.651 312.356 364.719 316.495 360.264C320.633 355.809 304.971 346.986 306.068 335.23C307.165 323.474 275.69 293.663 268.3 292.789C260.91 291.915 259.735 299.962 255.376 288.29C251.017 276.617 242.057 268.37 238.37 277.605C234.683 286.841 219.242 283.532 226.848 266.824C234.455 250.116 215.621 248.412 211.277 237.981C206.932 227.55 236.326 228.158 233.189 215.507C230.052 202.856 211.132 206.064 210.046 202.602C208.959 199.141 209.905 178.375 220.125 184.141C230.345 189.908 228.333 171.425 223.827 169.139C219.321 166.853 223.415 159.616 227.773 149.604C232.132 139.591 219.97 146.227 218.189 147.069C216.408 147.912 209.876 151.001 207.586 159.153C205.295 167.305 182.787 157.632 180.783 164.764C178.778 171.895 172.666 172.579 167.72 170.943Z" fill="url(#paint1_linear_1829_2)"/>
</g>
<g filter="url(#filter2_d_1829_2)">
<path d="M202.563 250.126C204.096 242.226 198.09 205.521 194.895 188.156C202.562 188.156 202.563 251.829 206.077 255.915C209.591 260.001 211.028 272.563 218.218 276.004C225.407 279.446 230.678 291.667 230.039 303.244C229.4 314.82 233.553 308.692 239.304 303.244C245.055 297.796 247.931 294.05 250.806 298.477C253.681 302.903 261.03 305.627 271.254 308.692C281.477 311.756 280.519 319.587 288.826 328.44C297.133 337.293 292.979 335.25 283.714 328.44C274.448 321.63 282.436 314.14 265.822 310.394C249.208 306.649 252.723 314.14 250.806 303.244C248.889 292.348 242.819 304.946 233.553 312.097C224.288 319.247 225.566 304.265 225.885 294.05C226.205 283.836 210.869 278.728 210.869 271.237C210.869 263.747 200.645 260.001 202.563 250.126Z" fill="url(#paint2_linear_1829_2)"/>
</g>
<g filter="url(#filter3_d_1829_2)">
<path d="M156.72 123.341C150.577 118.43 134.45 124.071 129.079 128.251C123.708 132.432 131.378 138.512 126.918 144.545C122.458 150.577 141.684 146.768 134.45 158.333C127.215 169.898 119.257 176.066 141.684 191.485C164.111 206.905 167.865 223.721 153.396 239.912C138.927 256.103 149.335 263.958 161.94 274.752C174.546 285.546 153.259 293.256 149.335 319.47C145.411 345.683 151.089 344.142 167.728 353.393C184.367 362.645 172.069 402.737 190.878 398.882C209.687 395.027 212.581 425.867 221.214 422.783C229.847 419.699 212.581 399.653 221.214 385.775C229.847 371.897 238.618 337.974 228.497 332.577C218.376 327.18 211.858 336.432 212.581 319.47C213.305 302.508 205.347 287.088 194.495 296.34C183.644 305.592 163.387 292.485 184.367 276.294C205.347 260.104 179.241 246.997 179.241 231.577C179.241 216.157 221.214 234.079 224.285 216.623C227.357 199.167 198.18 192.075 198.692 187.166C199.204 182.256 213.024 157.163 224.285 170.255C235.546 183.347 243.736 159.345 238.618 153.89C233.499 148.435 243.736 141.889 256.021 132.07C268.306 122.251 246.807 123.341 243.736 123.341C240.665 123.341 229.404 123.341 221.214 132.07C213.024 140.799 186.408 115.705 179.241 123.341C172.075 130.977 162.862 128.251 156.72 123.341Z" fill="url(#paint3_linear_1829_2)"/>
</g>
<g filter="url(#filter4_d_1829_2)">
<path d="M173.212 212.84C173.605 192.347 166.541 168.091 166.542 166C163.795 142.416 179.942 186.045 178.074 204.848C176.206 223.651 174.338 227.633 167.903 239.136C161.469 250.639 171.017 261.478 174.338 274.309C177.659 287.139 171.06 297.621 174.338 312.097C177.616 326.574 184.924 328.285 191.774 334.257C198.624 340.23 202.645 355.871 202.645 368.836C202.645 378.943 208.936 386.061 211.799 393.513C211.88 393.694 211.953 393.889 212.016 394.099C211.946 393.903 211.874 393.708 211.799 393.513C210.364 390.324 206.209 391.263 202.645 385.565C197.935 378.037 199.505 343.743 189.302 340.397C179.099 337.051 163.402 324.505 169.288 296.484C175.175 268.463 166.542 273.9 163.402 255.08C160.262 236.26 172.82 233.333 173.212 212.84Z" fill="url(#paint4_linear_1829_2)"/>
</g>
<g filter="url(#filter5_d_1829_2)">
<path d="M129.975 147.498C140.203 115.395 155.07 120.284 161.226 126.741C174.01 135.044 166.908 147.498 154.834 137.811C142.76 128.125 107.958 248.514 95.884 253.126C83.81 257.739 63.2132 249.436 62.5029 217.609C61.7927 185.782 96.5942 200.543 88.7816 212.074C80.969 223.606 60.3721 202.388 79.5485 231.908C98.7249 261.429 117.191 187.628 129.975 147.498Z" fill="url(#paint5_linear_1829_2)"/>
<path d="M76.1523 203.335C77.4217 206.28 80.3958 211.462 82.1372 208.635C84.3139 205.102 78.8724 200.332 76.1523 203.335Z" fill="#C978D7"/>
</g>
<g filter="url(#filter6_d_1829_2)">
<path d="M129.705 195.343C121.75 150.925 139.011 140.18 151.477 143.792C173.832 144.626 167.181 156.021 144.791 152.824C122.4 149.628 166.587 344.427 154.096 359.896C141.605 375.364 116.449 376.224 86.1447 339.655C56.4946 303.876 118.614 290.701 116.449 311.867C114.284 333.033 65.2262 313.135 125.253 356.692C167.086 387.047 140.88 257.728 129.705 195.343Z" fill="url(#paint6_linear_1829_2)"/>
<path d="M93.9933 310.345C97.6807 313.195 105.132 317.632 105.437 312.58C105.818 306.264 95.4475 304.296 93.9933 310.345Z" fill="#C978D7"/>
</g>
<g filter="url(#filter7_d_1829_2)">
<path d="M246.956 175.328C245.636 143.621 230.176 143.172 222.611 146.911C208.241 150.154 211.742 163.462 225.798 158.766C239.855 154.069 241.416 271.833 251.717 279.796C262.017 287.759 283.837 287.026 292.874 259.077C301.91 231.128 264.851 233.015 269.271 245.734C273.692 258.453 298.903 246.286 272.865 266.26C246.827 286.234 248.605 214.963 246.956 175.328Z" fill="url(#paint7_linear_1829_2)"/>
<path d="M283.606 242.053C281.622 244.252 277.425 247.885 276.508 244.823C275.36 240.995 281.801 238.521 283.606 242.053Z" fill="#C978D7"/>
</g>
<g filter="url(#filter8_d_1829_2)">
<path d="M269.399 171.181C277.646 152.26 268.755 147.006 263.279 146.743C253.975 143.994 252.233 152.887 261.768 154.687C271.302 156.488 238.726 225.683 242.47 233.655C246.214 241.626 259.149 248.246 272.368 234.862C285.587 221.478 263.434 210.609 262.395 219.456C261.357 228.302 279.522 229.348 258.655 232.589C237.787 235.831 259.09 194.833 269.399 171.181Z" fill="url(#paint8_linear_1829_2)"/>
<path d="M271.811 221.941C270.028 222.583 266.548 223.346 266.883 221.264C267.302 218.661 271.763 219.297 271.811 221.941Z" fill="#C978D7"/>
</g>
<g filter="url(#filter9_d_1829_2)">
<path d="M109.239 163.512C92.6328 172.666 88.0044 159.698 87.7659 152.07C95.2102 139.255 105.183 136.051 109.239 136.051C104.467 126.388 93.4921 101.876 87.7659 81.1272C80.6083 55.1911 187.259 35.3572 209.448 26.9661C231.637 18.5751 288.184 66.6335 292.479 101.724C295.914 129.796 271.005 141.899 258.121 144.442C263.609 143.425 274.155 145.815 272.437 163.512C270.29 185.635 239.511 168.089 226.627 163.512C213.743 158.936 218.038 152.07 205.154 168.089C192.27 184.108 158.628 163.512 153.618 158.935C148.607 154.358 129.997 152.07 109.239 163.512Z" fill="url(#paint9_linear_1829_2)"/>
<path d="M191.418 74.2886C176.443 83.3317 144.496 101.952 144.496 70.5661C144.496 56.7345 188.922 38.6465 209.388 46.0943C229.854 53.542 206.393 65.2456 191.418 74.2886Z" fill="#C978D7"/>
</g>
</g>
<defs>
<filter id="filter0_d_1829_2" x="-21.1555" y="44.1502" width="302.135" height="404.028" filterUnits="userSpaceOnUse" color-interpolation-filters="sRGB">
<feFlood flood-opacity="0" result="BackgroundImageFix"/>
<feColorMatrix in="SourceAlpha" type="matrix" values="0 0 0 0 0 0 0 0 0 0 0 0 0 0 0 0 0 0 127 0" result="hardAlpha"/>
<feOffset dy="4"/>
<feGaussianBlur stdDeviation="60.4"/>
<feComposite in2="hardAlpha" operator="out"/>
<feColorMatrix type="matrix" values="0 0 0 0 0.357584 0 0 0 0 0.420849 0 0 0 0 0.990234 0 0 0 0.15 0"/>
<feBlend mode="normal" in2="BackgroundImageFix" result="effect1_dropShadow_1829_2"/>
<feBlend mode="normal" in="SourceGraphic" in2="effect1_dropShadow_1829_2" result="shape"/>
</filter>
<filter id="filter1_d_1829_2" x="31.8914" y="27.3357" width="406.1" height="458.381" filterUnits="userSpaceOnUse" color-interpolation-filters="sRGB">
<feFlood flood-opacity="0" result="BackgroundImageFix"/>
<feColorMatrix in="SourceAlpha" type="matrix" values="0 0 0 0 0 0 0 0 0 0 0 0 0 0 0 0 0 0 127 0" result="hardAlpha"/>
<feOffset dy="4"/>
<feGaussianBlur stdDeviation="60.4"/>
<feComposite in2="hardAlpha" operator="out"/>
<feColorMatrix type="matrix" values="0 0 0 0 0.357584 0 0 0 0 0.420849 0 0 0 0 0.990234 0 0 0 0.15 0"/>
<feBlend mode="normal" in2="BackgroundImageFix" result="effect1_dropShadow_1829_2"/>
<feBlend mode="normal" in="SourceGraphic" in2="effect1_dropShadow_1829_2" result="shape"/>
</filter>
<filter id="filter2_d_1829_2" x="74.0945" y="71.3562" width="340.006" height="387.783" filterUnits="userSpaceOnUse" color-interpolation-filters="sRGB">
<feFlood flood-opacity="0" result="BackgroundImageFix"/>
<feColorMatrix in="SourceAlpha" type="matrix" values="0 0 0 0 0 0 0 0 0 0 0 0 0 0 0 0 0 0 127 0" result="hardAlpha"/>
<feOffset dy="4"/>
<feGaussianBlur stdDeviation="60.4"/>
<feComposite in2="hardAlpha" operator="out"/>
<feColorMatrix type="matrix" values="0 0 0 0 0.357584 0 0 0 0 0.420849 0 0 0 0 0.990234 0 0 0 0.15 0"/>
<feBlend mode="normal" in2="BackgroundImageFix" result="effect1_dropShadow_1829_2"/>
<feBlend mode="normal" in="SourceGraphic" in2="effect1_dropShadow_1829_2" result="shape"/>
</filter>
<filter id="filter3_d_1829_2" x="5.43828" y="4.63359" width="375.143" height="543.166" filterUnits="userSpaceOnUse" color-interpolation-filters="sRGB">
<feFlood flood-opacity="0" result="BackgroundImageFix"/>
<feColorMatrix in="SourceAlpha" type="matrix" values="0 0 0 0 0 0 0 0 0 0 0 0 0 0 0 0 0 0 127 0" result="hardAlpha"/>
<feOffset dy="4"/>
<feGaussianBlur stdDeviation="60.4"/>
<feComposite in2="hardAlpha" operator="out"/>
<feColorMatrix type="matrix" values="0 0 0 0 0.357584 0 0 0 0 0.420849 0 0 0 0 0.990234 0 0 0 0.15 0"/>
<feBlend mode="normal" in2="BackgroundImageFix" result="effect1_dropShadow_1829_2"/>
<feBlend mode="normal" in="SourceGraphic" in2="effect1_dropShadow_1829_2" result="shape"/>
</filter>
<filter id="filter4_d_1829_2" x="42.0984" y="42.3768" width="290.717" height="476.522" filterUnits="userSpaceOnUse" color-interpolation-filters="sRGB">
<feFlood flood-opacity="0" result="BackgroundImageFix"/>
<feColorMatrix in="SourceAlpha" type="matrix" values="0 0 0 0 0 0 0 0 0 0 0 0 0 0 0 0 0 0 127 0" result="hardAlpha"/>
<feOffset dy="4"/>
<feGaussianBlur stdDeviation="60.4"/>
<feComposite in2="hardAlpha" operator="out"/>
<feColorMatrix type="matrix" values="0 0 0 0 0.357584 0 0 0 0 0.420849 0 0 0 0 0.990234 0 0 0 0.15 0"/>
<feBlend mode="normal" in2="BackgroundImageFix" result="effect1_dropShadow_1829_2"/>
<feBlend mode="normal" in="SourceGraphic" in2="effect1_dropShadow_1829_2" result="shape"/>
</filter>
<filter id="filter5_d_1829_2" x="-58.3078" y="5.20195" width="347.112" height="373.906" filterUnits="userSpaceOnUse" color-interpolation-filters="sRGB">
<feFlood flood-opacity="0" result="BackgroundImageFix"/>
<feColorMatrix in="SourceAlpha" type="matrix" values="0 0 0 0 0 0 0 0 0 0 0 0 0 0 0 0 0 0 127 0" result="hardAlpha"/>
<feOffset dy="4"/>
<feGaussianBlur stdDeviation="60.4"/>
<feComposite in2="hardAlpha" operator="out"/>
<feColorMatrix type="matrix" values="0 0 0 0 0.357584 0 0 0 0 0.420849 0 0 0 0 0.990234 0 0 0 0.15 0"/>
<feBlend mode="normal" in2="BackgroundImageFix" result="effect1_dropShadow_1829_2"/>
<feBlend mode="normal" in="SourceGraphic" in2="effect1_dropShadow_1829_2" result="shape"/>
</filter>
<filter id="filter6_d_1829_2" x="-42.6906" y="26.3445" width="328.772" height="468.441" filterUnits="userSpaceOnUse" color-interpolation-filters="sRGB">
<feFlood flood-opacity="0" result="BackgroundImageFix"/>
<feColorMatrix in="SourceAlpha" type="matrix" values="0 0 0 0 0 0 0 0 0 0 0 0 0 0 0 0 0 0 127 0" result="hardAlpha"/>
<feOffset dy="4"/>
<feGaussianBlur stdDeviation="60.4"/>
<feComposite in2="hardAlpha" operator="out"/>
<feColorMatrix type="matrix" values="0 0 0 0 0.357584 0 0 0 0 0.420849 0 0 0 0 0.990234 0 0 0 0.15 0"/>
<feBlend mode="normal" in2="BackgroundImageFix" result="effect1_dropShadow_1829_2"/>
<feBlend mode="normal" in="SourceGraphic" in2="effect1_dropShadow_1829_2" result="shape"/>
</filter>
<filter id="filter7_d_1829_2" x="92.5984" y="28.5145" width="322.502" height="380.46" filterUnits="userSpaceOnUse" color-interpolation-filters="sRGB">
<feFlood flood-opacity="0" result="BackgroundImageFix"/>
<feColorMatrix in="SourceAlpha" type="matrix" values="0 0 0 0 0 0 0 0 0 0 0 0 0 0 0 0 0 0 127 0" result="hardAlpha"/>
<feOffset dy="4"/>
<feGaussianBlur stdDeviation="60.4"/>
<feComposite in2="hardAlpha" operator="out"/>
<feColorMatrix type="matrix" values="0 0 0 0 0.357584 0 0 0 0 0.420849 0 0 0 0 0.990234 0 0 0 0.15 0"/>
<feBlend mode="normal" in2="BackgroundImageFix" result="effect1_dropShadow_1829_2"/>
<feBlend mode="normal" in="SourceGraphic" in2="effect1_dropShadow_1829_2" result="shape"/>
</filter>
<filter id="filter8_d_1829_2" x="121.368" y="29.4197" width="275.995" height="337.903" filterUnits="userSpaceOnUse" color-interpolation-filters="sRGB">
<feFlood flood-opacity="0" result="BackgroundImageFix"/>
<feColorMatrix in="SourceAlpha" type="matrix" values="0 0 0 0 0 0 0 0 0 0 0 0 0 0 0 0 0 0 127 0" result="hardAlpha"/>
<feOffset dy="4"/>
<feGaussianBlur stdDeviation="60.4"/>
<feComposite in2="hardAlpha" operator="out"/>
<feColorMatrix type="matrix" values="0 0 0 0 0.357584 0 0 0 0 0.420849 0 0 0 0 0.990234 0 0 0 0.15 0"/>
<feBlend mode="normal" in2="BackgroundImageFix" result="effect1_dropShadow_1829_2"/>
<feBlend mode="normal" in="SourceGraphic" in2="effect1_dropShadow_1829_2" result="shape"/>
</filter>
<filter id="filter9_d_1829_2" x="-33.3781" y="-90.8" width="446.979" height="390.042" filterUnits="userSpaceOnUse" color-interpolation-filters="sRGB">
<feFlood flood-opacity="0" result="BackgroundImageFix"/>
<feColorMatrix in="SourceAlpha" type="matrix" values="0 0 0 0 0 0 0 0 0 0 0 0 0 0 0 0 0 0 127 0" result="hardAlpha"/>
<feOffset dy="4"/>
<feGaussianBlur stdDeviation="60.4"/>
<feComposite in2="hardAlpha" operator="out"/>
<feColorMatrix type="matrix" values="0 0 0 0 0.357584 0 0 0 0 0.420849 0 0 0 0 0.990234 0 0 0 0.15 0"/>
<feBlend mode="normal" in2="BackgroundImageFix" result="effect1_dropShadow_1829_2"/>
<feBlend mode="normal" in="SourceGraphic" in2="effect1_dropShadow_1829_2" result="shape"/>
</filter>
<linearGradient id="paint0_linear_1829_2" x1="113.265" y1="170.717" x2="160.665" y2="314.185" gradientUnits="userSpaceOnUse">
<stop offset="0.845" stop-color="#9E0366"/>
<stop offset="1" stop-color="#380124"/>
</linearGradient>
<linearGradient id="paint1_linear_1829_2" x1="188.274" y1="159.676" x2="338.466" y2="368.509" gradientUnits="userSpaceOnUse">
<stop stop-color="#7852A3"/>
<stop offset="0.798333" stop-color="#2D1F3D"/>
<stop offset="0.923333" stop-color="#1F263D"/>
</linearGradient>
<linearGradient id="paint2_linear_1829_2" x1="299.873" y1="320.196" x2="57.6516" y2="-81.9194" gradientUnits="userSpaceOnUse">
<stop stop-color="#912BA5"/>
<stop offset="1" stop-color="#38103F"/>
</linearGradient>
<linearGradient id="paint3_linear_1829_2" x1="210.19" y1="395.63" x2="115.797" y2="83.8919" gradientUnits="userSpaceOnUse">
<stop offset="0.101908" stop-color="#8878D7"/>
<stop offset="0.476167" stop-color="#C978D7"/>
<stop offset="0.733463" stop-color="#603F99"/>
</linearGradient>
<linearGradient id="paint4_linear_1829_2" x1="181.266" y1="294.916" x2="160.451" y2="144.289" gradientUnits="userSpaceOnUse">
<stop stop-color="#9C21A5"/>
<stop offset="1" stop-color="#3B0D3F"/>
</linearGradient>
<linearGradient id="paint5_linear_1829_2" x1="115.249" y1="122.002" x2="115.249" y2="254.307" gradientUnits="userSpaceOnUse">
<stop offset="0.26" stop-color="#560037"/>
<stop offset="0.79" stop-color="#BC0079"/>
</linearGradient>
<linearGradient id="paint6_linear_1829_2" x1="88.8889" y1="175.566" x2="188.623" y2="341.131" gradientUnits="userSpaceOnUse">
<stop stop-color="#BC0079"/>
<stop offset="1" stop-color="#56003C"/>
</linearGradient>
<linearGradient id="paint7_linear_1829_2" x1="267.694" y1="157.487" x2="228.706" y2="273.192" gradientUnits="userSpaceOnUse">
<stop stop-color="#BC0079"/>
<stop offset="0.55" stop-color="#560037"/>
</linearGradient>
<linearGradient id="paint8_linear_1829_2" x1="286.569" y1="167.473" x2="229.585" y2="220.942" gradientUnits="userSpaceOnUse">
<stop offset="0.26" stop-color="#560037"/>
<stop offset="0.79" stop-color="#BC0079"/>
</linearGradient>
<linearGradient id="paint9_linear_1829_2" x1="180.303" y1="183.441" x2="216.631" y2="-97.0529" gradientUnits="userSpaceOnUse">
<stop offset="0.223333" stop-color="#741F5E"/>
<stop offset="0.563333" stop-color="#DA3AB1"/>
<stop offset="0.843333" stop-color="#CD3ADA"/>
</linearGradient>
<clipPath id="clip0_1829_2">
<rect width="378" height="437" fill="white"/>
</clipPath>
</defs>
</svg>
