<svg width="475" height="86" viewBox="0 0 475 86" fill="none" xmlns="http://www.w3.org/2000/svg">
<path d="M56.0401 15.944C57.0001 15.848 57.2881 16.424 57.4801 17.192C57.8641 19.112 56.8081 35.24 56.7121 38.984C56.5201 48.584 56.8081 58.184 57.5761 67.784C57.6721 69.416 59.2081 76.52 57.5761 76.904C53.7361 77.672 46.6321 77.384 42.5041 77.384C41.4481 77.384 40.1041 77.768 39.1441 77.576C38.4721 77.48 37.3201 76.808 37.8961 75.944C37.7041 68.648 38.3761 61.16 38.6641 53.864C33.5761 54.056 28.4881 54.056 23.4001 54.344C23.4001 61.448 23.1121 68.744 24.2641 75.752C24.4561 77 23.1121 77.48 22.1521 77.48C16.4881 77.288 10.9201 76.712 5.25613 76.904C4.77613 76.904 2.47213 77.096 2.18413 77C0.936125 76.712 0.936125 75.368 0.936125 74.312C1.12813 69.224 1.51213 64.232 1.60813 59.144C1.99213 43.784 1.89613 28.232 1.70413 12.872C1.70413 11.144 1.12813 9.128 1.32013 7.496C1.51213 5.86399 3.81613 5.96 4.96813 6.056C9.19213 6.248 13.5121 6.72799 17.7361 6.72799C19.1761 6.72799 20.5201 6.34399 21.9601 6.34399C22.9201 6.34399 24.0721 6.632 24.6481 7.4C25.8961 9.032 25.4161 33.032 25.4161 36.776L36.5521 36.872C36.0721 33.32 35.5921 19.784 36.7441 16.808C36.2641 15.944 36.9361 15.464 37.7041 15.368C38.8561 15.176 55.3681 15.56 56.0401 15.944ZM58.4401 10.568C56.2321 12.392 53.1601 9.704 55.4641 8.55199C58.4401 6.92 59.9761 9.32 58.4401 10.568ZM50.3761 11.72C47.4961 12.584 37.8961 12.104 34.8241 11.432C33.8641 11.24 30.4081 9.704 33.0001 8.744C33.8641 8.456 38.7601 8.648 40.1041 8.648C42.0241 8.648 52.6801 6.92 52.2001 10.184C52.1041 10.952 51.0481 11.528 50.3761 11.72ZM92.2689 3.272C89.8689 4.04 90.1569 0.391996 91.8849 0.487995C93.5169 0.583994 93.8049 2.696 92.2689 3.272ZM71.0529 21.992C72.3009 16.424 74.3169 8.264 78.9249 4.616C80.3649 3.464 86.1249 0.679998 87.7569 1.736C88.6209 2.31199 88.4289 3.944 87.3729 4.13599C85.0689 4.424 83.3409 4.424 81.5169 5.96C79.6929 7.496 76.3329 14.792 75.3729 17.288C74.8929 18.44 73.7409 22.376 72.6849 22.76C72.0129 23.048 71.2449 22.664 71.0529 21.992ZM86.3169 65.192C86.0289 66.92 84.9729 76.52 84.3009 77.192C82.7649 78.632 67.4049 77.672 65.9649 75.752C62.3169 70.952 77.4849 11.144 85.9329 7.20799C88.8129 5.86399 92.5569 5.672 95.7249 5.768C98.7969 5.86399 109.837 6.44 111.853 8.264C117.229 13.064 130.477 67.688 126.829 74.6C124.429 79.208 108.397 79.88 107.533 74.888C107.053 71.72 106.957 68.264 106.573 65C99.8529 64.616 93.0369 64.712 86.3169 65.192ZM88.0449 51.56C93.9009 51.176 100.045 50.984 105.901 51.56C106.093 48.2 102.733 27.56 101.389 25.544C99.8529 23.24 96.2049 25.16 94.0929 25.064C90.9249 33.608 89.9649 42.728 88.0449 51.56ZM158.05 6.92C158.434 7.592 157.954 8.456 157.186 8.55199C156.514 8.648 155.938 8.168 155.266 8.07199C151.618 7.496 147.682 8.744 144.226 8.264C143.554 8.168 142.498 7.784 142.498 7.016C142.498 3.56 156.61 4.13599 158.05 6.92ZM140.194 8.84C138.082 11.528 135.298 5.096 139.042 5.47999C140.578 5.672 141.058 7.68799 140.194 8.84ZM144.61 77.864C143.074 77.864 138.754 78.056 137.602 77C136.93 76.328 136.834 75.272 136.738 74.408C136.354 70.472 134.242 16.424 134.338 15.944C135.01 13.256 149.026 12.872 151.714 12.872C152.77 12.872 155.65 12.776 156.514 13.256C158.146 14.12 157.858 17.768 157.858 19.304L157.954 75.656C157.954 76.616 157.57 77.096 156.706 77.384C155.458 77.768 146.626 77.864 144.61 77.864ZM176.161 76.328C168.289 81.416 161.665 71.24 168.097 65.672C169.249 64.616 170.881 64.136 172.417 64.04C186.913 63.272 181.441 80.744 176.161 83.72C175.489 84.104 174.529 83.432 174.817 82.664C175.585 80.36 176.353 78.92 176.161 76.328ZM256.301 51.368C257.645 52.04 256.877 55.112 256.781 56.264C256.589 59.624 257.357 70.664 256.973 72.584C256.685 73.832 255.149 73.928 254.093 73.928C249.293 73.928 214.445 75.272 213.773 74.312C213.389 74.12 213.005 73.832 212.909 73.448L213.965 57.608C214.445 48.008 215.117 19.112 212.813 10.376C212.333 8.648 214.829 8.55199 216.077 8.264C221.549 7.112 228.173 6.248 233.741 6.34399C234.605 6.34399 235.085 6.632 235.565 7.4C236.813 9.41599 236.525 30.824 236.429 34.664C236.333 40.616 236.333 46.664 235.853 52.616C241.709 51.656 247.949 50.504 253.805 50.024C254.861 49.928 256.205 50.024 256.301 51.368ZM224.333 81.992C223.565 81.992 221.357 81.992 220.781 81.704C219.437 80.936 219.821 79.496 221.165 79.016C224.621 77.96 240.653 78.536 245.357 78.248C249.677 77.96 249.197 81.32 246.797 81.704C242.765 82.28 229.133 81.992 224.333 81.992ZM256.685 78.632C258.989 78.92 258.509 82.184 256.493 81.992L253.997 81.704C251.885 81.416 251.885 78.056 256.685 78.632ZM288.206 3.272C285.806 4.04 286.094 0.391996 287.822 0.487995C289.454 0.583994 289.742 2.696 288.206 3.272ZM266.99 21.992C268.238 16.424 270.254 8.264 274.862 4.616C276.302 3.464 282.062 0.679998 283.694 1.736C284.558 2.31199 284.366 3.944 283.31 4.13599C281.006 4.424 279.278 4.424 277.454 5.96C275.63 7.496 272.27 14.792 271.31 17.288C270.83 18.44 269.678 22.376 268.622 22.76C267.95 23.048 267.182 22.664 266.99 21.992ZM282.254 65.192C281.966 66.92 280.91 76.52 280.238 77.192C278.702 78.632 263.342 77.672 261.902 75.752C258.254 70.952 273.422 11.144 281.87 7.20799C284.75 5.86399 288.494 5.672 291.662 5.768C294.734 5.86399 305.774 6.44 307.79 8.264C313.166 13.064 326.414 67.688 322.766 74.6C320.366 79.208 304.334 79.88 303.47 74.888C302.99 71.72 302.894 68.264 302.51 65C295.79 64.616 288.974 64.712 282.254 65.192ZM283.982 51.56C289.838 51.176 295.982 50.984 301.838 51.56C302.03 48.2 298.67 27.56 297.326 25.544C295.79 23.24 292.142 25.16 290.03 25.064C286.862 33.608 285.902 42.728 283.982 51.56ZM374.051 51.368C375.395 52.04 374.627 55.112 374.531 56.264C374.339 59.624 375.107 70.664 374.723 72.584C374.435 73.832 372.899 73.928 371.843 73.928C367.043 73.928 332.195 75.272 331.523 74.312C331.139 74.12 330.755 73.832 330.659 73.448L331.715 57.608C332.195 48.008 332.867 19.112 330.563 10.376C330.083 8.648 332.579 8.55199 333.827 8.264C339.299 7.112 345.923 6.248 351.491 6.34399C352.355 6.34399 352.835 6.632 353.315 7.4C354.563 9.41599 354.275 30.824 354.179 34.664C354.083 40.616 354.083 46.664 353.603 52.616C359.459 51.656 365.699 50.504 371.555 50.024C372.611 49.928 373.955 50.024 374.051 51.368ZM342.083 81.992C341.315 81.992 339.107 81.992 338.531 81.704C337.187 80.936 337.571 79.496 338.915 79.016C342.371 77.96 358.403 78.536 363.107 78.248C367.427 77.96 366.947 81.32 364.547 81.704C360.515 82.28 346.883 81.992 342.083 81.992ZM374.435 78.632C376.739 78.92 376.259 82.184 374.243 81.992L371.747 81.704C369.635 81.416 369.635 78.056 374.435 78.632ZM405.956 3.272C403.556 4.04 403.844 0.391996 405.572 0.487995C407.204 0.583994 407.492 2.696 405.956 3.272ZM384.74 21.992C385.988 16.424 388.004 8.264 392.612 4.616C394.052 3.464 399.812 0.679998 401.444 1.736C402.308 2.31199 402.116 3.944 401.06 4.13599C398.756 4.424 397.028 4.424 395.204 5.96C393.38 7.496 390.02 14.792 389.06 17.288C388.58 18.44 387.428 22.376 386.372 22.76C385.7 23.048 384.932 22.664 384.74 21.992ZM400.004 65.192C399.716 66.92 398.66 76.52 397.988 77.192C396.452 78.632 381.092 77.672 379.652 75.752C376.004 70.952 391.172 11.144 399.62 7.20799C402.5 5.86399 406.244 5.672 409.412 5.768C412.484 5.86399 423.524 6.44 425.54 8.264C430.916 13.064 444.164 67.688 440.516 74.6C438.116 79.208 422.084 79.88 421.22 74.888C420.74 71.72 420.644 68.264 420.26 65C413.54 64.616 406.724 64.712 400.004 65.192ZM401.732 51.56C407.588 51.176 413.732 50.984 419.588 51.56C419.78 48.2 416.42 27.56 415.076 25.544C413.54 23.24 409.892 25.16 407.78 25.064C404.612 33.608 403.652 42.728 401.732 51.56ZM447.751 13.544C447.655 12.488 447.463 9.41599 449.287 9.128C451.591 8.84 468.487 8.36 469.735 9.41599C470.407 9.992 470.791 10.76 470.887 11.624C471.271 14.12 468.871 53.576 467.143 55.496C466.663 56.072 465.895 56.456 465.127 56.552C461.959 57.032 457.543 56.84 454.279 56.84C453.223 56.84 452.071 56.552 451.495 55.592C449.383 52.232 448.423 20.36 447.751 13.544ZM453.319 14.504C454.567 15.08 460.039 13.64 462.247 14.024C464.263 14.408 465.511 11.912 463.879 10.568C462.823 9.704 453.895 10.472 452.935 11.24C451.783 12.104 452.071 13.928 453.319 14.504ZM465.511 12.296C464.455 14.6 468.487 16.136 469.063 13.64C469.639 11.24 466.567 9.992 465.511 12.296ZM469.447 67.688C474.151 77.288 460.327 85.448 453.031 79.016C442.471 69.704 462.439 53.48 469.447 67.688Z" fill="url(#paint0_radial_1245_4187)"/>
<defs>
<radialGradient id="paint0_radial_1245_4187" cx="0" cy="0" r="1" gradientUnits="userSpaceOnUse" gradientTransform="translate(1108.34 44) rotate(-178.624) scale(1873.86 146.081)">
<stop offset="0.120225" stop-color="#D7B575"/>
<stop offset="0.370102" stop-color="#B32169"/>
<stop offset="0.660328" stop-color="#741F5E"/>
<stop offset="1" stop-color="#BC0079" stop-opacity="0"/>
</radialGradient>
</defs>
</svg>
