<svg width="1425" height="421" viewBox="0 0 1425 421" fill="none" xmlns="http://www.w3.org/2000/svg">
<g filter="url(#filter0_d_2362_50)">
<path d="M291.84 62.144C293.12 57.664 306.688 13.632 308.992 12.608C310.528 11.968 329.6 13.888 330.368 15.424C330.88 16.448 330.88 20.288 331.008 21.696C332.544 44.608 334.976 67.904 338.688 90.56C338.944 92.224 340.864 101.312 340.096 102.208C339.328 103.104 321.92 104 319.488 104.256C317.696 104.512 312.832 105.792 311.936 103.488C309.888 97.984 309.376 65.472 309.248 57.792C307.84 61.248 298.752 88.512 298.752 88.512C297.472 89.92 286.208 88.768 283.52 88.896C280.32 89.152 280.32 84.544 279.808 82.24C277.888 74.048 275.712 65.856 273.92 57.536C271.872 72 271.104 86.592 269.952 101.184C269.824 102.336 269.824 104.512 268.288 104.768C267.648 104.896 264.064 103.488 263.168 103.232C257.92 101.696 248.704 99.648 243.328 99.776C242.304 99.392 242.56 96.832 242.816 95.936C248.448 70.336 252.928 44.992 257.28 19.264C257.408 18.24 257.664 17.088 258.432 16.32C259.968 14.784 279.936 10.816 280.704 11.968C280.96 12.352 281.088 14.528 281.216 15.168C283.52 31.04 287.488 46.656 291.84 62.144ZM323.968 40.128C324.992 42.816 328.832 41.92 328.96 39.104C329.088 34.368 328.576 19.392 323.584 17.216C322.176 16.576 317.056 16.32 315.392 16.32C311.552 16.32 309.76 19.776 312.96 21.184C314.624 21.952 320.64 21.056 321.664 22.08C323.584 23.872 322.944 37.312 323.968 40.128ZM325.248 50.368C326.784 51.52 329.216 50.624 329.472 48.704C330.24 43.072 320.768 46.784 325.248 50.368ZM375.613 79.168C378.685 79.552 382.397 79.552 385.597 79.424C391.101 79.168 396.733 78.016 401.981 76.48C403.517 76.096 405.437 75.2 406.973 74.944C408.637 74.688 408.509 76.864 408.637 78.016C409.021 80.704 410.685 96.96 410.045 98.24C409.661 99.264 408.381 99.776 407.485 100.16C394.301 105.92 368.957 108.224 357.181 98.368C348.989 91.584 349.629 76.864 350.013 67.136C350.269 61.632 353.341 18.624 355.389 17.344C358.461 15.424 405.437 9.66399 408.125 11.2C409.149 11.712 409.533 12.608 409.661 13.76C410.045 16.832 410.045 37.952 408.637 39.104C406.973 39.744 382.397 39.488 377.661 39.872L377.405 40.384L376.509 50.624C379.581 50.624 393.789 50.24 395.453 50.624C397.117 51.008 396.861 63.552 396.477 65.728C396.349 66.368 395.581 66.88 395.069 67.136C388.157 67.776 381.373 67.776 374.461 67.392C374.589 71.36 374.717 75.328 375.613 79.168ZM408.509 107.968C403.901 111.296 402.621 104.768 407.229 105.408C408.381 105.536 409.789 106.944 408.509 107.968ZM383.165 114.112C378.941 114.624 374.333 114.24 370.237 113.088C368.573 112.576 363.965 110.4 363.197 108.992C362.685 107.968 363.069 106.304 364.349 106.176C364.605 106.176 369.853 108.224 370.749 108.48C375.357 109.888 380.221 110.656 385.085 110.272C389.949 109.888 394.429 108.48 399.165 107.584C401.469 107.072 402.237 109.504 400.061 110.4C394.941 112.32 388.541 113.472 383.165 114.112ZM475.797 12.48C475.029 12.736 472.981 11.968 472.213 11.84C462.869 9.66399 451.989 12.224 442.389 11.2C440.853 11.072 440.853 8.896 441.877 8.128C442.645 7.488 445.205 7.23199 446.229 7.23199C451.733 6.976 457.109 6.464 462.613 6.976C464.533 7.104 474.773 8.768 476.053 9.79199C476.949 10.56 477.077 12.096 475.797 12.48ZM486.421 18.752C487.061 21.568 484.117 21.184 482.709 19.776C479.893 17.088 485.525 14.144 486.421 18.752ZM450.453 80.96C450.709 86.848 450.709 92.864 450.965 98.752C451.093 100.928 451.733 104.896 448.917 105.536C446.997 105.92 426.261 106.304 424.469 105.664C423.829 105.408 423.317 104.896 423.189 104.256C422.165 99.264 423.445 91.84 423.573 86.72C423.701 77.248 423.957 31.552 420.373 24.128C419.093 21.568 423.957 21.056 425.621 20.672C435.861 18.112 446.357 16.064 456.981 16.576C469.653 17.088 484.373 21.952 488.597 35.52C493.333 50.88 480.661 64.96 467.093 69.952C474.517 76.608 483.221 82.112 491.669 87.36C495.893 89.92 480.021 105.024 475.285 104.896C469.653 104.768 454.037 85.952 450.453 80.96ZM447.253 35.136C448.533 41.408 448.405 47.808 449.045 54.08C474.517 50.496 471.829 30.272 447.253 35.136ZM578.31 14.912C578.694 16.192 578.054 37.44 578.438 41.536C578.566 43.584 580.23 48.96 576.774 48.96C569.606 48.96 561.542 48.448 554.502 47.68C550.918 47.296 554.502 42.688 551.174 38.976C544.902 31.936 535.43 38.72 532.358 45.12C528.39 53.44 528.134 64.32 532.358 72.512C535.046 77.888 541.19 83.264 547.59 80.32C552.454 78.144 552.966 73.664 554.758 69.312C555.526 67.52 573.702 69.696 576.518 70.336C578.438 70.72 579.846 71.36 579.846 73.536C579.846 107.072 533.382 114.752 512.774 94.016C494.598 75.712 495.494 39.744 513.926 21.952C528.006 8.256 551.942 6.71999 570.118 11.328C572.166 11.84 577.03 13.12 578.31 14.912ZM539.398 102.08C540.678 102.208 545.158 102.336 546.31 102.08C549.638 101.184 548.486 96.576 545.798 96.832C533.254 97.984 524.038 92.48 516.358 83.136C514.054 80.448 510.342 83.264 512.262 86.208C518.022 95.168 529.158 100.672 539.398 102.08ZM551.558 95.68C549.382 100.16 557.574 100.928 556.422 96.192C555.782 93.888 552.582 93.504 551.558 95.68ZM665.384 22.592C666.664 22.464 667.048 23.232 667.304 24.256C667.816 26.816 666.408 48.32 666.28 53.312C666.024 66.112 666.408 78.912 667.432 91.712C667.56 93.888 669.608 103.36 667.432 103.872C662.312 104.896 652.84 104.512 647.336 104.512C645.928 104.512 644.136 105.024 642.856 104.768C641.96 104.64 640.424 103.744 641.192 102.592C640.936 92.864 641.832 82.88 642.216 73.152C635.432 73.408 628.648 73.408 621.864 73.792C621.864 83.264 621.48 92.992 623.016 102.336C623.272 104 621.48 104.64 620.2 104.64C612.648 104.384 605.224 103.616 597.672 103.872C597.032 103.872 593.96 104.128 593.576 104C591.912 103.616 591.912 101.824 591.912 100.416C592.168 93.632 592.68 86.976 592.808 80.192C593.32 59.712 593.192 38.976 592.936 18.496C592.936 16.192 592.168 13.504 592.424 11.328C592.68 9.15199 595.752 9.28 597.288 9.408C602.92 9.66399 608.68 10.304 614.312 10.304C616.232 10.304 618.024 9.79199 619.944 9.79199C621.224 9.79199 622.76 10.176 623.528 11.2C625.192 13.376 624.552 45.376 624.552 50.368L639.4 50.496C638.76 45.76 638.12 27.712 639.656 23.744C639.016 22.592 639.912 21.952 640.936 21.824C642.472 21.568 664.488 22.08 665.384 22.592ZM668.584 15.424C665.64 17.856 661.544 14.272 664.616 12.736C668.584 10.56 670.632 13.76 668.584 15.424ZM657.832 16.96C653.992 18.112 641.192 17.472 637.096 16.576C635.816 16.32 631.208 14.272 634.664 12.992C635.816 12.608 642.344 12.864 644.136 12.864C646.696 12.864 660.904 10.56 660.264 14.912C660.136 15.936 658.728 16.704 657.832 16.96ZM714.171 5.696C710.971 6.71999 711.355 1.856 713.659 1.98399C715.835 2.11199 716.219 4.92799 714.171 5.696ZM685.883 30.656C687.547 23.232 690.235 12.352 696.379 7.488C698.299 5.952 705.979 2.24 708.155 3.64799C709.307 4.41599 709.051 6.592 707.643 6.84799C704.571 7.23199 702.267 7.23199 699.835 9.28C697.403 11.328 692.923 21.056 691.643 24.384C691.003 25.92 689.467 31.168 688.059 31.68C687.163 32.064 686.139 31.552 685.883 30.656ZM706.235 88.256C705.851 90.56 704.443 103.36 703.547 104.256C701.499 106.176 681.019 104.896 679.099 102.336C674.235 95.936 694.459 16.192 705.723 10.944C709.563 9.15199 714.555 8.896 718.779 9.02399C722.875 9.15199 737.595 9.92 740.283 12.352C747.451 18.752 765.115 91.584 760.251 100.8C757.051 106.944 735.675 107.84 734.523 101.184C733.883 96.96 733.755 92.352 733.243 88C724.283 87.488 715.195 87.616 706.235 88.256ZM708.539 70.08C716.347 69.568 724.539 69.312 732.347 70.08C732.603 65.6 728.123 38.08 726.331 35.392C724.283 32.32 719.419 34.88 716.603 34.752C712.379 46.144 711.099 58.304 708.539 70.08ZM794.583 44.48C797.143 57.28 802.903 90.816 801.495 102.72C801.239 105.024 799.319 105.792 797.271 105.92C793.687 106.176 772.183 106.816 770.647 104.64C769.239 102.592 770.903 96.448 771.287 94.016C773.975 76.352 773.847 46.016 772.183 27.968C772.055 26.048 771.031 17.216 771.287 16.064C771.927 13.12 794.199 8.768 797.015 9.92C799.319 10.816 804.055 22.72 805.079 25.408C810.327 38.72 814.295 52.544 818.903 66.112C819.927 50.24 818.647 32.832 816.087 17.216C815.831 15.424 814.935 12.992 817.111 12.096C819.543 11.072 842.199 9.66399 845.143 10.432C845.527 10.944 845.399 11.584 845.271 12.224C844.247 19.008 844.375 26.432 844.247 33.344C843.863 51.008 843.607 68.672 843.479 86.336C843.479 90.176 837.847 89.152 835.287 89.152C828.375 89.152 822.359 90.304 815.703 91.712C815.063 91.84 814.167 91.84 813.655 91.456C812.503 90.56 812.247 88.896 811.863 87.616C807.767 73.28 802.519 57.152 794.583 44.48ZM815.191 102.976C814.295 103.104 812.887 103.232 811.991 102.976C809.943 102.464 809.943 99.904 811.863 99.264C817.623 97.216 823.639 96.96 829.655 96.448C837.719 95.808 835.799 100.672 832.983 101.312C827.351 102.592 820.951 102.208 815.191 102.976ZM842.967 97.088C846.423 97.984 843.863 103.104 840.279 100.928C837.591 99.264 840.535 96.448 842.967 97.088ZM882.604 104.512C881.068 105.792 859.308 102.464 858.284 101.312C858.284 96.192 859.052 90.944 859.308 85.824C860.588 65.6 860.972 38.08 857.9 18.496C857.644 17.216 857.132 15.168 858.668 14.4C861.356 12.992 881.964 9.536 883.372 11.456C883.884 12.224 883.884 16.192 884.012 17.344C895.788 9.02399 912.684 9.02399 924.716 16.832C951.724 34.368 946.348 101.696 907.052 100.032C899.628 99.648 892.076 96.96 886.06 92.736L882.604 104.512ZM893.1 65.984C897.452 90.432 922.668 78.144 912.556 46.912C910.636 40.896 904.62 33.472 897.452 37.184C890.412 40.896 891.948 59.456 893.1 65.984ZM926.38 101.056C928.556 101.696 928.3 104.384 925.996 104.384C923.052 104.384 924.076 100.416 926.38 101.056ZM918.444 106.944C912.044 110.272 905.388 109.632 898.604 108.352C896.428 107.968 893.996 107.072 892.076 105.92C890.284 104.896 891.052 102.976 893.1 103.488C899.5 105.024 905.772 107.456 912.428 106.176C914.092 105.92 915.756 105.152 917.42 104.768C919.212 104.384 920.236 105.92 918.444 106.944ZM983.004 10.56C983.516 11.456 982.876 12.608 981.852 12.736C980.956 12.864 980.188 12.224 979.292 12.096C974.428 11.328 969.18 12.992 964.572 12.352C963.676 12.224 962.268 11.712 962.268 10.688C962.268 6.07999 981.084 6.84799 983.004 10.56ZM959.196 13.12C956.38 16.704 952.668 8.128 957.66 8.63999C959.708 8.896 960.348 11.584 959.196 13.12ZM965.084 105.152C963.036 105.152 957.276 105.408 955.74 104C954.844 103.104 954.716 101.696 954.588 100.544C954.076 95.296 951.26 23.232 951.388 22.592C952.284 19.008 970.972 18.496 974.556 18.496C975.964 18.496 979.804 18.368 980.956 19.008C983.132 20.16 982.748 25.024 982.748 27.072L982.876 102.208C982.876 103.488 982.364 104.128 981.212 104.512C979.548 105.024 967.772 105.152 965.084 105.152ZM1042.48 102.976C1030.45 106.56 1014.96 106.56 1005.74 96.704C1001.9 92.608 998.448 84.672 998.704 79.04C998.704 77.76 998.96 76.736 999.984 75.84C1001.78 74.048 1019.7 70.976 1021.49 72.64C1022.51 73.664 1022.26 75.2 1022.26 76.48C1022.26 81.728 1026.99 86.08 1031.6 82.112C1034.93 79.296 1034.29 74.048 1032.11 70.848C1023.28 57.792 990.768 62.272 993.712 35.648C994.864 25.664 1002.29 16.704 1010.99 11.968C1032.11 0.703995 1067.31 6.464 1068.72 34.88C1068.85 37.568 1068.46 41.408 1065.65 42.432C1063.22 43.328 1047.86 44.352 1044.53 44.352C1043.25 44.352 1041.2 44.352 1041.2 42.56C1041.2 36.288 1039.54 27.84 1031.98 26.816C1024.56 25.792 1013.3 34.368 1020.85 41.152C1021.74 42.048 1023.02 42.56 1024.18 43.072C1032.5 46.4 1040.56 48.704 1048.11 53.824C1059.12 61.12 1066.93 72.256 1061.42 85.824C1058.22 93.76 1050.67 100.544 1042.48 102.976ZM1039.66 100.8C1042.99 101.568 1052.59 93.888 1054.77 91.328C1056.82 88.896 1057.71 85.952 1058.48 82.88C1058.86 81.088 1059.63 77.12 1058.22 75.712C1057.07 74.56 1054.77 74.816 1054 76.352C1053.1 78.144 1054 83.008 1051.7 86.72C1047.73 93.12 1040.18 94.528 1038.26 96.32C1036.72 97.728 1037.74 100.288 1039.66 100.8ZM1031.22 102.208C1034.42 103.36 1036.08 98.368 1032.88 97.216C1029.55 95.936 1027.89 101.056 1031.22 102.208ZM1103.49 79.168C1106.56 79.552 1110.27 79.552 1113.47 79.424C1118.98 79.168 1124.61 78.016 1129.86 76.48C1131.39 76.096 1133.31 75.2 1134.85 74.944C1136.51 74.688 1136.38 76.864 1136.51 78.016C1136.9 80.704 1138.56 96.96 1137.92 98.24C1137.54 99.264 1136.26 99.776 1135.36 100.16C1122.18 105.92 1096.83 108.224 1085.06 98.368C1076.86 91.584 1077.5 76.864 1077.89 67.136C1078.14 61.632 1081.22 18.624 1083.26 17.344C1086.34 15.424 1133.31 9.66399 1136 11.2C1137.02 11.712 1137.41 12.608 1137.54 13.76C1137.92 16.832 1137.92 37.952 1136.51 39.104C1134.85 39.744 1110.27 39.488 1105.54 39.872L1105.28 40.384L1104.38 50.624C1107.46 50.624 1121.66 50.24 1123.33 50.624C1124.99 51.008 1124.74 63.552 1124.35 65.728C1124.22 66.368 1123.46 66.88 1122.94 67.136C1116.03 67.776 1109.25 67.776 1102.34 67.392C1102.46 71.36 1102.59 75.328 1103.49 79.168ZM1136.38 107.968C1131.78 111.296 1130.5 104.768 1135.1 105.408C1136.26 105.536 1137.66 106.944 1136.38 107.968ZM1111.04 114.112C1106.82 114.624 1102.21 114.24 1098.11 113.088C1096.45 112.576 1091.84 110.4 1091.07 108.992C1090.56 107.968 1090.94 106.304 1092.22 106.176C1092.48 106.176 1097.73 108.224 1098.62 108.48C1103.23 109.888 1108.1 110.656 1112.96 110.272C1117.82 109.888 1122.3 108.48 1127.04 107.584C1129.34 107.072 1130.11 109.504 1127.94 110.4C1122.82 112.32 1116.42 113.472 1111.04 114.112Z" fill="white"/>
</g>
<g filter="url(#filter1_d_2362_50)">
<path d="M1220.96 161.302C1250.44 158.016 1281.35 182.248 1298.47 200.306C1315.59 218.364 1181.95 194.469 1241.41 221.592C1300.86 248.714 1195.39 244.143 1133.34 227.792C1071.29 211.441 1072.3 198.963 1021.95 181.76C971.598 164.557 1041.07 167.269 1061.32 177.576C1081.57 187.882 1103.38 207.488 1131.1 207.488C1142.95 207.488 1146.99 198.612 1135.51 191.989C1124.02 185.366 1101.91 187.185 1104.08 184.472C1106.25 181.76 1123.92 172.721 1138.83 174.786C1152.75 176.714 1161.54 183.352 1175.31 191.989C1197.05 205.629 1236.2 192.222 1229.05 181.76C1223.33 173.391 1199.84 178.273 1188.82 181.76C1187.25 176.31 1191.49 164.588 1220.96 161.302Z" fill="url(#paint0_radial_2362_50)"/>
</g>
<g filter="url(#filter2_d_2362_50)">
<path d="M204.038 161.302C174.565 158.016 143.649 182.248 126.528 200.306C109.408 218.364 243.046 194.469 183.594 221.592C124.143 248.714 229.61 244.143 291.662 227.792C353.714 211.441 352.703 198.963 403.053 181.76C453.402 164.557 383.934 167.269 363.683 177.576C343.432 187.882 321.623 207.488 293.901 207.488C282.054 207.488 278.009 198.612 289.495 191.989C300.981 185.366 323.085 187.185 320.918 184.472C318.751 181.76 301.082 172.721 286.172 174.786C272.254 176.714 263.461 183.352 249.692 191.989C227.948 205.629 188.796 192.222 195.947 181.76C201.668 173.391 225.155 178.273 236.183 181.76C237.749 176.31 233.511 164.588 204.038 161.302Z" fill="url(#paint1_radial_2362_50)"/>
</g>
<g filter="url(#filter3_d_2362_50)">
<path d="M1094.23 179.298C1123.6 176.053 1154.41 199.983 1171.48 217.815C1188.54 235.647 1055.35 212.051 1114.6 238.834C1173.85 265.618 1068.74 261.103 1006.9 244.957C945.058 228.81 946.066 216.489 895.887 199.501C845.707 182.513 914.941 185.191 935.123 195.368C955.306 205.546 977.042 224.907 1004.67 224.907C1016.48 224.907 1020.51 216.142 1009.06 209.602C997.614 203.062 975.584 204.857 977.744 202.179C979.903 199.501 997.513 190.575 1012.37 192.614C1026.24 194.517 1035.01 201.073 1048.73 209.602C1070.4 223.071 1109.42 209.831 1102.29 199.501C1096.59 191.236 1073.18 196.057 1062.19 199.501C1060.63 194.118 1064.86 182.543 1094.23 179.298Z" fill="url(#paint2_radial_2362_50)"/>
</g>
<g filter="url(#filter4_d_2362_50)">
<path d="M336.771 179.298C307.397 176.053 276.586 199.983 259.523 217.815C242.46 235.647 375.647 212.051 316.396 238.834C257.146 265.618 362.256 261.103 424.099 244.957C485.942 228.81 484.934 216.489 535.113 199.501C585.293 182.513 516.059 185.191 495.877 195.368C475.694 205.546 453.958 224.907 426.331 224.907C414.524 224.907 410.492 216.142 421.939 209.602C433.386 203.062 455.416 204.857 453.256 202.179C451.097 199.501 433.487 190.575 418.627 192.614C404.756 194.517 395.993 201.073 382.271 209.602C360.601 223.071 321.58 209.831 328.707 199.501C334.409 191.236 357.817 196.057 368.808 199.501C370.368 194.118 366.144 182.543 336.771 179.298Z" fill="url(#paint3_radial_2362_50)"/>
</g>
<g filter="url(#filter5_d_2362_50)">
<path d="M485.038 201.302C455.565 198.016 424.649 222.248 407.528 240.306C390.408 258.364 524.046 234.469 464.594 261.592C405.143 288.714 512.849 292.851 574.901 276.5C636.954 260.149 633.703 238.963 684.053 221.76C734.402 204.557 663.251 204.48 643 214.786C622.749 225.093 602.623 247.488 574.901 247.488C563.054 247.488 559.009 238.612 570.495 231.989C581.981 225.366 604.085 227.185 601.918 224.472C599.751 221.76 582.082 212.721 567.172 214.786C553.254 216.714 544.461 223.352 530.692 231.989C508.948 245.629 469.796 232.222 476.947 221.76C482.668 213.391 506.155 218.273 517.183 221.76C518.749 216.31 514.511 204.588 485.038 201.302Z" fill="url(#paint4_radial_2362_50)"/>
</g>
<g filter="url(#filter6_d_2362_50)">
<path d="M925.229 201.302C954.603 198.016 985.414 222.248 1002.48 240.306C1019.54 258.364 886.353 234.469 945.604 261.592C1004.85 288.714 897.512 291.351 835.669 275C773.827 258.649 777.066 238.963 726.887 221.76C676.707 204.557 752.318 204.48 772.5 214.786C792.682 225.093 808.042 247.488 835.669 247.488C847.476 247.488 851.508 238.612 840.061 231.989C828.614 225.366 806.584 227.185 808.744 224.472C810.903 221.76 828.513 212.721 843.373 214.786C857.244 216.714 866.007 223.352 879.729 231.989C901.399 245.629 940.42 232.222 933.293 221.76C927.591 213.391 904.183 218.273 893.192 221.76C891.632 216.31 895.856 204.588 925.229 201.302Z" fill="url(#paint5_radial_2362_50)"/>
</g>
<g filter="url(#filter7_d_2362_50)">
<path d="M547.233 238.732C548.86 251.362 526.073 248.613 516.152 253.208C506.23 257.804 532.705 263.992 547.233 268.728C561.761 273.464 543.643 307.16 553.909 316.37C564.175 325.581 569.315 289.882 575.707 274.727C582.1 259.571 625.653 288.386 635.271 274.727C644.889 261.068 602.128 260.23 593.887 248.793C585.647 237.357 609.442 209.612 601.557 205.259C597.214 202.862 587.911 224.209 579.775 232.418C571.639 240.627 554.461 189.672 543.746 190.74C533.031 191.808 545.199 222.946 547.233 238.732Z" fill="url(#paint6_linear_2362_50)"/>
</g>
<g filter="url(#filter8_d_2362_50)">
<path d="M558.937 268.272C557.749 263.161 515.413 260.025 520.335 255.715C525.258 251.405 544.393 251.284 550.021 248.528C555.65 245.772 542.385 200.511 546.203 199.806C550.021 199.102 567.693 234.782 575.76 237.194C583.828 239.606 596.246 206.25 600.154 209.041C604.062 211.832 586.227 244.679 586.695 248.528C587.164 252.378 626.725 264.494 628.492 271.605C630.26 278.716 582.131 265.163 577.779 266.809C573.427 268.455 563.599 311.495 556.81 313.818C550.021 316.142 560.126 273.382 558.937 268.272Z" fill="url(#paint7_linear_2362_50)"/>
</g>
<path d="M533.89 254.951C532.917 257.488 536.808 258.334 537.392 256.643C537.976 254.951 533.89 253.26 533.89 254.951Z" fill="#D9D9D9"/>
<path d="M555.081 256.974C556.101 254.459 552.226 253.528 551.611 255.205C550.995 256.883 555.049 258.665 555.081 256.974Z" fill="#D9D9D9"/>
<path d="M544.862 256.746C545.882 254.232 542.008 253.3 541.392 254.978C540.777 256.655 544.83 258.437 544.862 256.746Z" fill="#D9D9D9"/>
<path d="M560.601 236.855C559.628 239.392 563.519 240.237 564.103 238.546C564.687 236.855 560.601 235.164 560.601 236.855Z" fill="#D9D9D9"/>
<path d="M555.413 226.999C554.44 229.536 558.332 230.381 558.915 228.69C559.499 226.999 555.413 225.308 555.413 226.999Z" fill="#D9D9D9"/>
<path d="M579.815 241.155C578.843 243.691 582.734 244.537 583.318 242.846C583.902 241.155 579.815 239.463 579.815 241.155Z" fill="#D9D9D9"/>
<path d="M584.761 233.583C583.788 236.12 587.679 236.965 588.263 235.274C588.847 233.583 584.761 231.892 584.761 233.583Z" fill="#D9D9D9"/>
<path d="M590.534 223.728C589.561 226.265 593.453 227.11 594.037 225.419C594.62 223.728 590.534 222.037 590.534 223.728Z" fill="#D9D9D9"/>
<path d="M589.476 262.067C591.888 262.894 592.315 258.606 590.713 258.126C589.111 257.645 587.926 262.218 589.476 262.067Z" fill="#D9D9D9"/>
<path d="M602.775 262.501C601.498 260.128 598.532 262.993 599.422 264.518C600.312 266.044 604.017 263.52 602.775 262.501Z" fill="#D9D9D9"/>
<path d="M610.081 265.748C609.108 268.285 613 269.13 613.583 267.439C614.167 265.748 610.081 264.057 610.081 265.748Z" fill="#D9D9D9"/>
<path d="M566.069 279.299C565.97 276.552 562.112 277.563 562.237 279.364C562.361 281.165 566.723 280.833 566.069 279.299Z" fill="#D9D9D9"/>
<path d="M572.315 265.958C575.725 270.018 580.423 263.067 578.096 260.488C575.768 257.909 569.494 264.529 572.315 265.958Z" fill="#741F5E" stroke="#D9D9D9" stroke-width="2"/>
<path d="M559.135 245.039C554.641 242.517 552.453 250.807 555.46 252.348C558.466 253.889 562.237 245.316 559.135 245.039Z" fill="#741F5E" stroke="#D9D9D9" stroke-width="2"/>
<path d="M575.719 240.815C575.048 235.367 567.542 238.166 568.1 241.727C568.659 245.288 577.287 243.737 575.719 240.815Z" fill="#741F5E" stroke="#D9D9D9" stroke-width="2"/>
<path d="M558.897 260.848C556.951 265.922 564.733 267.612 565.901 264.23C567.068 260.848 558.897 257.466 558.897 260.848Z" fill="#741F5E" stroke="#D9D9D9" stroke-width="2"/>
<path d="M583.25 253.532C584.597 248.234 576.682 247.612 575.912 251.126C575.142 254.64 583.638 256.888 583.25 253.532Z" fill="#741F5E" stroke="#D9D9D9" stroke-width="2"/>
<path d="M564.129 288.584C563.238 286.012 559.87 288.294 560.512 289.96C561.153 291.627 565.195 289.816 564.129 288.584Z" fill="#D9D9D9"/>
<path d="M562.353 299.169C562.232 296.424 558.382 297.472 558.522 299.271C558.661 301.071 563.02 300.697 562.353 299.169Z" fill="#D9D9D9"/>
<path d="M551.698 214.994C550.726 217.531 554.617 218.377 555.201 216.685C555.784 214.994 551.698 213.303 551.698 214.994Z" fill="#D9D9D9"/>
<path d="M565.846 251.644C565.727 252.092 561.961 253.106 562.139 253.618C562.317 254.129 566.366 254.328 566.646 254.723C566.926 255.118 567.091 259.264 567.591 259.305C568.091 259.346 569.063 255.352 569.626 255.118C570.189 254.885 572.995 255.513 573.843 255.118C574.69 254.723 570.862 251.644 570.862 251.644C570.862 251.644 572.707 248.273 572.461 247.535C572.216 246.797 568.764 249.607 568.391 249.589C568.018 249.571 565.283 246.226 564.756 246.43C564.229 246.634 565.966 251.195 565.846 251.644Z" fill="#D9D9D9"/>
<g filter="url(#filter9_d_2362_50)">
<path d="M875.724 228.585C874.097 241.214 896.884 238.465 906.805 243.061C916.727 247.656 890.252 253.844 875.724 258.58C861.197 263.316 879.314 297.013 869.048 306.223C858.782 315.433 853.642 279.735 847.25 264.579C840.858 249.424 797.304 278.238 787.686 264.579C778.068 250.92 820.829 250.082 829.07 238.646C837.31 227.21 813.515 199.464 821.4 195.111C825.743 192.714 835.046 214.061 843.182 222.271C851.318 230.48 868.496 179.525 879.211 180.593C889.926 181.661 877.758 212.798 875.724 228.585Z" fill="url(#paint8_linear_2362_50)"/>
</g>
<g filter="url(#filter10_d_2362_50)">
<path d="M864.02 258.124C865.208 253.014 907.544 249.877 902.622 245.567C897.699 241.258 878.564 241.136 872.936 238.381C867.307 235.625 880.572 190.363 876.754 189.659C872.936 188.955 855.265 224.635 847.197 227.046C839.129 229.458 826.711 196.103 822.803 198.893C818.895 201.684 836.73 234.531 836.262 238.381C835.793 242.23 796.232 254.347 794.465 261.458C792.697 268.568 840.826 255.016 845.178 256.662C849.53 258.308 859.358 301.347 866.147 303.671C872.936 305.994 862.831 263.235 864.02 258.124Z" fill="url(#paint9_linear_2362_50)"/>
</g>
<path d="M889.067 244.804C890.04 247.341 886.149 248.186 885.565 246.495C884.981 244.804 889.067 243.113 889.067 244.804Z" fill="#D9D9D9"/>
<path d="M867.876 246.826C866.856 244.312 870.731 243.38 871.346 245.058C871.962 246.736 867.908 248.517 867.876 246.826Z" fill="#D9D9D9"/>
<path d="M878.095 246.599C877.075 244.084 880.949 243.153 881.565 244.83C882.18 246.508 878.127 248.29 878.095 246.599Z" fill="#D9D9D9"/>
<path d="M862.356 226.707C863.329 229.244 859.438 230.089 858.854 228.398C858.27 226.707 862.356 225.016 862.356 226.707Z" fill="#D9D9D9"/>
<path d="M867.544 216.852C868.517 219.389 864.625 220.234 864.042 218.543C863.458 216.852 867.544 215.161 867.544 216.852Z" fill="#D9D9D9"/>
<path d="M843.142 231.007C844.114 233.544 840.223 234.389 839.639 232.698C839.056 231.007 843.142 229.316 843.142 231.007Z" fill="#D9D9D9"/>
<path d="M838.196 223.436C839.169 225.973 835.278 226.818 834.694 225.127C834.11 223.436 838.196 221.745 838.196 223.436Z" fill="#D9D9D9"/>
<path d="M832.423 213.58C833.396 216.117 829.504 216.963 828.92 215.271C828.337 213.58 832.423 211.889 832.423 213.58Z" fill="#D9D9D9"/>
<path d="M833.481 251.92C831.069 252.746 830.642 248.459 832.244 247.978C833.846 247.497 835.031 252.071 833.481 251.92Z" fill="#D9D9D9"/>
<path d="M820.182 252.353C821.459 249.981 824.425 252.845 823.535 254.371C822.645 255.896 818.94 253.372 820.182 252.353Z" fill="#D9D9D9"/>
<path d="M812.876 255.601C813.849 258.138 809.957 258.983 809.374 257.292C808.79 255.601 812.876 253.91 812.876 255.601Z" fill="#D9D9D9"/>
<path d="M856.888 269.151C856.987 266.405 860.845 267.416 860.72 269.217C860.596 271.018 856.234 270.686 856.888 269.151Z" fill="#D9D9D9"/>
<path d="M850.642 255.81C847.232 259.87 842.534 252.92 844.861 250.341C847.189 247.762 853.463 254.381 850.642 255.81Z" fill="#741F5E" stroke="#D9D9D9" stroke-width="2"/>
<path d="M863.822 234.892C868.316 232.369 870.504 240.659 867.497 242.201C864.491 243.742 860.72 235.169 863.822 234.892Z" fill="#741F5E" stroke="#D9D9D9" stroke-width="2"/>
<path d="M847.238 230.668C847.909 225.22 855.416 228.019 854.857 231.58C854.298 235.14 845.67 233.59 847.238 230.668Z" fill="#741F5E" stroke="#D9D9D9" stroke-width="2"/>
<path d="M864.06 250.702C866.006 255.775 858.224 257.466 857.056 254.084C855.889 250.702 864.06 247.32 864.06 250.702Z" fill="#741F5E" stroke="#D9D9D9" stroke-width="2"/>
<path d="M839.707 243.385C838.36 238.087 846.275 237.465 847.045 240.979C847.815 244.493 839.319 246.74 839.707 243.385Z" fill="#741F5E" stroke="#D9D9D9" stroke-width="2"/>
<path d="M858.828 278.438C859.72 275.866 863.087 278.148 862.445 279.814C861.804 281.48 857.762 279.669 858.828 278.438Z" fill="#D9D9D9"/>
<path d="M860.604 289.021C860.725 286.276 864.575 287.324 864.435 289.124C864.296 290.924 859.937 290.549 860.604 289.021Z" fill="#D9D9D9"/>
<path d="M871.259 204.847C872.232 207.384 868.34 208.229 867.756 206.538C867.173 204.847 871.259 203.156 871.259 204.847Z" fill="#D9D9D9"/>
<path d="M857.111 241.496C857.23 241.945 860.996 242.958 860.818 243.47C860.64 243.982 856.591 244.181 856.311 244.576C856.031 244.971 855.866 249.116 855.366 249.157C854.866 249.199 853.894 245.204 853.331 244.971C852.768 244.738 849.962 245.366 849.115 244.971C848.267 244.576 852.095 241.496 852.095 241.496C852.095 241.496 850.25 238.126 850.496 237.388C850.741 236.65 854.193 239.459 854.566 239.441C854.939 239.424 857.674 236.078 858.201 236.282C858.728 236.487 856.991 241.048 857.111 241.496Z" fill="#D9D9D9"/>
<g filter="url(#filter11_d_2362_50)">
<path d="M686.145 198.575C683.199 210.324 661.283 197.064 649.64 196.323C637.996 195.582 662.373 213.59 675.263 224.636C688.153 235.682 657.71 256.313 664.692 269.213C671.674 282.113 689.793 253.55 701.719 243.433C713.645 233.315 746.988 279.129 761.614 271.851C776.241 264.573 733.546 243.443 729.409 229.575C725.272 215.708 759.265 202.955 752.915 195.411C749.418 191.257 732.318 205.364 721.159 208.615C710 211.866 711.212 159.4 700.05 155.216C688.888 151.031 689.827 183.889 686.145 198.575Z" fill="url(#paint10_linear_2362_50)"/>
</g>
<g filter="url(#filter12_d_2362_50)">
<path d="M687.201 229.824C687.86 224.817 646.426 201.893 652.94 200.497C659.453 199.102 678.739 208.125 685.398 208.416C692.057 208.707 695.14 163.055 699.234 164.265C703.329 165.474 708.154 204.905 715.392 210.849C722.63 216.794 747.217 193.738 750.135 198.028C753.052 202.317 723.202 222.346 722.276 225.914C721.35 229.482 756.735 258.883 755.933 265.904C755.131 272.925 711.651 238.189 706.678 237.543C701.705 236.896 676.208 269.6 668.538 268.38C660.869 267.16 686.542 234.831 687.201 229.824Z" fill="url(#paint11_linear_2362_50)"/>
</g>
<path d="M666.84 206.3C664.941 208.04 668.547 210.631 669.748 209.44C670.948 208.249 667.453 204.831 666.84 206.3Z" fill="#D9D9D9"/>
<path d="M687.417 218.167C689.355 216.469 685.797 213.811 684.57 214.975C683.342 216.139 686.772 219.621 687.417 218.167Z" fill="#D9D9D9"/>
<path d="M677.222 213.093C679.16 211.395 675.602 208.737 674.374 209.901C673.147 211.065 676.576 214.547 677.222 213.093Z" fill="#D9D9D9"/>
<path d="M700.269 203.321C698.371 205.061 701.977 207.652 703.178 206.462C704.378 205.271 700.883 201.852 700.269 203.321Z" fill="#D9D9D9"/>
<path d="M698.625 192.284C696.726 194.024 700.333 196.615 701.533 195.424C702.733 194.234 699.238 190.815 698.625 192.284Z" fill="#D9D9D9"/>
<path d="M718.027 216.225C716.129 217.965 719.735 220.556 720.935 219.365C722.136 218.174 718.641 214.755 718.027 216.225Z" fill="#D9D9D9"/>
<path d="M725.75 212.007C723.851 213.747 727.458 216.338 728.658 215.147C729.858 213.956 726.363 210.538 725.75 212.007Z" fill="#D9D9D9"/>
<path d="M735.129 206.197C733.23 207.937 736.836 210.528 738.037 209.338C739.237 208.147 735.742 204.728 735.129 206.197Z" fill="#D9D9D9"/>
<path d="M720.153 239.002C722.278 240.87 724.264 237.35 722.827 236.167C721.39 234.985 718.539 238.393 720.153 239.002Z" fill="#D9D9D9"/>
<path d="M733.372 245.725C732.949 243.054 728.927 244.128 729.269 245.878C729.61 247.628 734.251 247.203 733.372 245.725Z" fill="#D9D9D9"/>
<path d="M739.531 252.029C737.632 253.769 741.239 256.36 742.439 255.17C743.64 253.979 740.144 250.56 739.531 252.029Z" fill="#D9D9D9"/>
<path d="M690.365 242.805C691.262 240.372 687.016 239.41 686.488 241.034C685.96 242.658 690.466 244.45 690.365 242.805Z" fill="#D9D9D9"/>
<path d="M701.488 234.197C703.444 239.351 710.69 235.553 709.285 232.202C707.88 228.851 699.17 231.609 701.488 234.197Z" fill="#741F5E" stroke="#D9D9D9" stroke-width="2"/>
<path d="M695.825 209.733C692.221 205.397 687.014 211.556 689.477 214.329C691.941 217.102 698.843 211.453 695.825 209.733Z" fill="#741F5E" stroke="#D9D9D9" stroke-width="2"/>
<path d="M714.033 213.974C715.335 208.921 706.771 207.771 706.041 211.131C705.311 214.491 714.549 217.26 714.033 213.974Z" fill="#741F5E" stroke="#D9D9D9" stroke-width="2"/>
<path d="M689.851 223.356C686.054 226.835 693.266 232.017 695.667 229.636C698.068 227.254 691.078 220.417 689.851 223.356Z" fill="#741F5E" stroke="#D9D9D9" stroke-width="2"/>
<path d="M716.994 228.618C720.271 224.658 712.537 220.341 710.488 223.027C708.439 225.712 716.167 231.719 716.994 228.618Z" fill="#741F5E" stroke="#D9D9D9" stroke-width="2"/>
<path d="M685.05 249.95C685.087 247.29 680.873 247.667 680.913 249.42C680.954 251.174 685.676 251.529 685.05 249.95Z" fill="#D9D9D9"/>
<path d="M679.421 258.297C680.295 255.854 676.044 254.928 675.531 256.558C675.019 258.188 679.537 259.942 679.421 258.297Z" fill="#D9D9D9"/>
<path d="M699.246 180.081C697.347 181.821 700.954 184.412 702.154 183.221C703.355 182.031 699.859 178.612 699.246 180.081Z" fill="#D9D9D9"/>
<path d="M700.175 218.673C699.892 219.005 695.738 218.089 695.731 218.619C695.725 219.149 699.724 221.253 699.862 221.73C700.001 222.207 698.662 225.887 699.15 226.161C699.638 226.436 702.065 223.429 702.716 223.495C703.367 223.561 705.96 225.445 706.955 225.506C707.951 225.568 705.219 221.066 705.219 221.066C705.219 221.066 708.297 219.018 708.318 218.259C708.338 217.501 703.848 218.295 703.479 218.101C703.111 217.908 701.574 213.696 700.971 213.623C700.367 213.549 700.458 218.34 700.175 218.673Z" fill="#D9D9D9"/>
<defs>
<filter id="filter0_d_2362_50" x="232.305" y="0.704102" width="916.254" height="134.048" filterUnits="userSpaceOnUse" color-interpolation-filters="sRGB">
<feFlood flood-opacity="0" result="BackgroundImageFix"/>
<feColorMatrix in="SourceAlpha" type="matrix" values="0 0 0 0 0 0 0 0 0 0 0 0 0 0 0 0 0 0 127 0" result="hardAlpha"/>
<feOffset dy="10"/>
<feGaussianBlur stdDeviation="5"/>
<feComposite in2="hardAlpha" operator="out"/>
<feColorMatrix type="matrix" values="0 0 0 0 0.912457 0 0 0 0 0.730472 0 0 0 0 0.00253445 0 0 0 0.25 0"/>
<feBlend mode="normal" in2="BackgroundImageFix" result="effect1_dropShadow_2362_50"/>
<feBlend mode="normal" in="SourceGraphic" in2="effect1_dropShadow_2362_50" result="shape"/>
</filter>
<filter id="filter1_d_2362_50" x="879" y="40" width="546" height="330" filterUnits="userSpaceOnUse" color-interpolation-filters="sRGB">
<feFlood flood-opacity="0" result="BackgroundImageFix"/>
<feColorMatrix in="SourceAlpha" type="matrix" values="0 0 0 0 0 0 0 0 0 0 0 0 0 0 0 0 0 0 127 0" result="hardAlpha"/>
<feOffset dy="4"/>
<feGaussianBlur stdDeviation="62.5"/>
<feComposite in2="hardAlpha" operator="out"/>
<feColorMatrix type="matrix" values="0 0 0 0 0.602456 0 0 0 0 0.862489 0 0 0 0 0.9525 0 0 0 0.54 0"/>
<feBlend mode="normal" in2="BackgroundImageFix" result="effect1_dropShadow_2362_50"/>
<feBlend mode="normal" in="SourceGraphic" in2="effect1_dropShadow_2362_50" result="shape"/>
</filter>
<filter id="filter2_d_2362_50" x="0" y="40" width="546" height="330" filterUnits="userSpaceOnUse" color-interpolation-filters="sRGB">
<feFlood flood-opacity="0" result="BackgroundImageFix"/>
<feColorMatrix in="SourceAlpha" type="matrix" values="0 0 0 0 0 0 0 0 0 0 0 0 0 0 0 0 0 0 127 0" result="hardAlpha"/>
<feOffset dy="4"/>
<feGaussianBlur stdDeviation="62.5"/>
<feComposite in2="hardAlpha" operator="out"/>
<feColorMatrix type="matrix" values="0 0 0 0 0.602456 0 0 0 0 0.862489 0 0 0 0 0.9525 0 0 0 0.54 0"/>
<feBlend mode="normal" in2="BackgroundImageFix" result="effect1_dropShadow_2362_50"/>
<feBlend mode="normal" in="SourceGraphic" in2="effect1_dropShadow_2362_50" result="shape"/>
</filter>
<filter id="filter3_d_2362_50" x="753" y="58" width="545" height="329" filterUnits="userSpaceOnUse" color-interpolation-filters="sRGB">
<feFlood flood-opacity="0" result="BackgroundImageFix"/>
<feColorMatrix in="SourceAlpha" type="matrix" values="0 0 0 0 0 0 0 0 0 0 0 0 0 0 0 0 0 0 127 0" result="hardAlpha"/>
<feOffset dy="4"/>
<feGaussianBlur stdDeviation="62.5"/>
<feComposite in2="hardAlpha" operator="out"/>
<feColorMatrix type="matrix" values="0 0 0 0 0.602456 0 0 0 0 0.862489 0 0 0 0 0.9525 0 0 0 0.54 0"/>
<feBlend mode="normal" in2="BackgroundImageFix" result="effect1_dropShadow_2362_50"/>
<feBlend mode="normal" in="SourceGraphic" in2="effect1_dropShadow_2362_50" result="shape"/>
</filter>
<filter id="filter4_d_2362_50" x="133" y="58" width="545" height="329" filterUnits="userSpaceOnUse" color-interpolation-filters="sRGB">
<feFlood flood-opacity="0" result="BackgroundImageFix"/>
<feColorMatrix in="SourceAlpha" type="matrix" values="0 0 0 0 0 0 0 0 0 0 0 0 0 0 0 0 0 0 127 0" result="hardAlpha"/>
<feOffset dy="4"/>
<feGaussianBlur stdDeviation="62.5"/>
<feComposite in2="hardAlpha" operator="out"/>
<feColorMatrix type="matrix" values="0 0 0 0 0.602456 0 0 0 0 0.862489 0 0 0 0 0.9525 0 0 0 0.54 0"/>
<feBlend mode="normal" in2="BackgroundImageFix" result="effect1_dropShadow_2362_50"/>
<feBlend mode="normal" in="SourceGraphic" in2="effect1_dropShadow_2362_50" result="shape"/>
</filter>
<filter id="filter5_d_2362_50" x="281" y="80" width="545.73" height="335.134" filterUnits="userSpaceOnUse" color-interpolation-filters="sRGB">
<feFlood flood-opacity="0" result="BackgroundImageFix"/>
<feColorMatrix in="SourceAlpha" type="matrix" values="0 0 0 0 0 0 0 0 0 0 0 0 0 0 0 0 0 0 127 0" result="hardAlpha"/>
<feOffset dy="4"/>
<feGaussianBlur stdDeviation="62.5"/>
<feComposite in2="hardAlpha" operator="out"/>
<feColorMatrix type="matrix" values="0 0 0 0 0.602456 0 0 0 0 0.862489 0 0 0 0 0.9525 0 0 0 0.54 0"/>
<feBlend mode="normal" in2="BackgroundImageFix" result="effect1_dropShadow_2362_50"/>
<feBlend mode="normal" in="SourceGraphic" in2="effect1_dropShadow_2362_50" result="shape"/>
</filter>
<filter id="filter6_d_2362_50" x="584.988" y="80" width="544.012" height="334.158" filterUnits="userSpaceOnUse" color-interpolation-filters="sRGB">
<feFlood flood-opacity="0" result="BackgroundImageFix"/>
<feColorMatrix in="SourceAlpha" type="matrix" values="0 0 0 0 0 0 0 0 0 0 0 0 0 0 0 0 0 0 127 0" result="hardAlpha"/>
<feOffset dy="4"/>
<feGaussianBlur stdDeviation="62.5"/>
<feComposite in2="hardAlpha" operator="out"/>
<feColorMatrix type="matrix" values="0 0 0 0 0.602456 0 0 0 0 0.862489 0 0 0 0 0.9525 0 0 0 0.54 0"/>
<feBlend mode="normal" in2="BackgroundImageFix" result="effect1_dropShadow_2362_50"/>
<feBlend mode="normal" in="SourceGraphic" in2="effect1_dropShadow_2362_50" result="shape"/>
</filter>
<filter id="filter7_d_2362_50" x="424.08" y="104.824" width="302.491" height="306.944" filterUnits="userSpaceOnUse" color-interpolation-filters="sRGB">
<feFlood flood-opacity="0" result="BackgroundImageFix"/>
<feColorMatrix in="SourceAlpha" type="matrix" values="0 0 0 0 0 0 0 0 0 0 0 0 0 0 0 0 0 0 127 0" result="hardAlpha"/>
<feOffset dy="4"/>
<feGaussianBlur stdDeviation="44.95"/>
<feComposite in2="hardAlpha" operator="out"/>
<feColorMatrix type="matrix" values="0 0 0 0 0.407843 0 0 0 0 0.0941176 0 0 0 0 0.129412 0 0 0 1 0"/>
<feBlend mode="normal" in2="BackgroundImageFix" result="effect1_dropShadow_2362_50"/>
<feBlend mode="normal" in="SourceGraphic" in2="effect1_dropShadow_2362_50" result="shape"/>
</filter>
<filter id="filter8_d_2362_50" x="417.137" y="100.996" width="314.202" height="319.713" filterUnits="userSpaceOnUse" color-interpolation-filters="sRGB">
<feFlood flood-opacity="0" result="BackgroundImageFix"/>
<feColorMatrix in="SourceAlpha" type="matrix" values="0 0 0 0 0 0 0 0 0 0 0 0 0 0 0 0 0 0 127 0" result="hardAlpha"/>
<feOffset dy="4"/>
<feGaussianBlur stdDeviation="51.4"/>
<feComposite in2="hardAlpha" operator="out"/>
<feColorMatrix type="matrix" values="0 0 0 0 0.847059 0 0 0 0 0.709804 0 0 0 0 0.458824 0 0 0 1 0"/>
<feBlend mode="normal" in2="BackgroundImageFix" result="effect1_dropShadow_2362_50"/>
<feBlend mode="normal" in="SourceGraphic" in2="effect1_dropShadow_2362_50" result="shape"/>
</filter>
<filter id="filter9_d_2362_50" x="696.385" y="94.6762" width="302.491" height="306.944" filterUnits="userSpaceOnUse" color-interpolation-filters="sRGB">
<feFlood flood-opacity="0" result="BackgroundImageFix"/>
<feColorMatrix in="SourceAlpha" type="matrix" values="0 0 0 0 0 0 0 0 0 0 0 0 0 0 0 0 0 0 127 0" result="hardAlpha"/>
<feOffset dy="4"/>
<feGaussianBlur stdDeviation="44.95"/>
<feComposite in2="hardAlpha" operator="out"/>
<feColorMatrix type="matrix" values="0 0 0 0 0.407843 0 0 0 0 0.0941176 0 0 0 0 0.129412 0 0 0 1 0"/>
<feBlend mode="normal" in2="BackgroundImageFix" result="effect1_dropShadow_2362_50"/>
<feBlend mode="normal" in="SourceGraphic" in2="effect1_dropShadow_2362_50" result="shape"/>
</filter>
<filter id="filter10_d_2362_50" x="691.618" y="90.8484" width="314.202" height="319.713" filterUnits="userSpaceOnUse" color-interpolation-filters="sRGB">
<feFlood flood-opacity="0" result="BackgroundImageFix"/>
<feColorMatrix in="SourceAlpha" type="matrix" values="0 0 0 0 0 0 0 0 0 0 0 0 0 0 0 0 0 0 127 0" result="hardAlpha"/>
<feOffset dy="4"/>
<feGaussianBlur stdDeviation="51.4"/>
<feComposite in2="hardAlpha" operator="out"/>
<feColorMatrix type="matrix" values="0 0 0 0 0.847059 0 0 0 0 0.709804 0 0 0 0 0.458824 0 0 0 1 0"/>
<feBlend mode="normal" in2="BackgroundImageFix" result="effect1_dropShadow_2362_50"/>
<feBlend mode="normal" in="SourceGraphic" in2="effect1_dropShadow_2362_50" result="shape"/>
</filter>
<filter id="filter11_d_2362_50" x="556.674" y="68.9506" width="297.878" height="297.588" filterUnits="userSpaceOnUse" color-interpolation-filters="sRGB">
<feFlood flood-opacity="0" result="BackgroundImageFix"/>
<feColorMatrix in="SourceAlpha" type="matrix" values="0 0 0 0 0 0 0 0 0 0 0 0 0 0 0 0 0 0 127 0" result="hardAlpha"/>
<feOffset dy="4"/>
<feGaussianBlur stdDeviation="44.95"/>
<feComposite in2="hardAlpha" operator="out"/>
<feColorMatrix type="matrix" values="0 0 0 0 0.407843 0 0 0 0 0.0941176 0 0 0 0 0.129412 0 0 0 1 0"/>
<feBlend mode="normal" in2="BackgroundImageFix" result="effect1_dropShadow_2362_50"/>
<feBlend mode="normal" in="SourceGraphic" in2="effect1_dropShadow_2362_50" result="shape"/>
</filter>
<filter id="filter12_d_2362_50" x="549.446" y="65.4412" width="309.299" height="309.772" filterUnits="userSpaceOnUse" color-interpolation-filters="sRGB">
<feFlood flood-opacity="0" result="BackgroundImageFix"/>
<feColorMatrix in="SourceAlpha" type="matrix" values="0 0 0 0 0 0 0 0 0 0 0 0 0 0 0 0 0 0 127 0" result="hardAlpha"/>
<feOffset dy="4"/>
<feGaussianBlur stdDeviation="51.4"/>
<feComposite in2="hardAlpha" operator="out"/>
<feColorMatrix type="matrix" values="0 0 0 0 0.847059 0 0 0 0 0.709804 0 0 0 0 0.458824 0 0 0 1 0"/>
<feBlend mode="normal" in2="BackgroundImageFix" result="effect1_dropShadow_2362_50"/>
<feBlend mode="normal" in="SourceGraphic" in2="effect1_dropShadow_2362_50" result="shape"/>
</filter>
<radialGradient id="paint0_radial_2362_50" cx="0" cy="0" r="1" gradientUnits="userSpaceOnUse" gradientTransform="translate(1237.36 190.697) rotate(178.625) scale(264.827 69.5697)">
<stop stop-color="#75D7D6"/>
<stop offset="0.288144" stop-color="#3CC1EC"/>
<stop offset="0.836667" stop-color="#C213BB"/>
<stop offset="1" stop-color="#D575D7"/>
</radialGradient>
<radialGradient id="paint1_radial_2362_50" cx="0" cy="0" r="1" gradientUnits="userSpaceOnUse" gradientTransform="translate(187.641 190.697) rotate(1.37492) scale(264.827 69.5697)">
<stop stop-color="#75D7D6"/>
<stop offset="0.288144" stop-color="#3CC1EC"/>
<stop offset="0.836667" stop-color="#C213BB"/>
<stop offset="1" stop-color="#D575D7"/>
</radialGradient>
<radialGradient id="paint2_radial_2362_50" cx="0" cy="0" r="1" gradientUnits="userSpaceOnUse" gradientTransform="translate(1110.57 208.326) rotate(178.638) scale(263.931 68.7005)">
<stop stop-color="#75D7D6"/>
<stop offset="0.288144" stop-color="#3CC1EC"/>
<stop offset="0.836667" stop-color="#C213BB"/>
<stop offset="1" stop-color="#D575D7"/>
</radialGradient>
<radialGradient id="paint3_radial_2362_50" cx="0" cy="0" r="1" gradientUnits="userSpaceOnUse" gradientTransform="translate(320.43 208.326) rotate(1.36234) scale(263.931 68.7005)">
<stop stop-color="#75D7D6"/>
<stop offset="0.288144" stop-color="#3CC1EC"/>
<stop offset="0.836667" stop-color="#C213BB"/>
<stop offset="1" stop-color="#D575D7"/>
</radialGradient>
<radialGradient id="paint4_radial_2362_50" cx="0" cy="0" r="1" gradientUnits="userSpaceOnUse" gradientTransform="translate(468.641 230.697) rotate(1.37492) scale(264.827 69.5697)">
<stop stop-color="#75D7D6"/>
<stop offset="0.288144" stop-color="#3CC1EC"/>
<stop offset="0.836667" stop-color="#C213BB"/>
<stop offset="1" stop-color="#D575D7"/>
</radialGradient>
<radialGradient id="paint5_radial_2362_50" cx="0" cy="0" r="1" gradientUnits="userSpaceOnUse" gradientTransform="translate(941.57 230.697) rotate(178.62) scale(263.933 69.5696)">
<stop stop-color="#75D7D6"/>
<stop offset="0.288144" stop-color="#3CC1EC"/>
<stop offset="0.836667" stop-color="#C213BB"/>
<stop offset="1" stop-color="#D575D7"/>
</radialGradient>
<linearGradient id="paint6_linear_2362_50" x1="574.155" y1="190.485" x2="574.155" y2="321.288" gradientUnits="userSpaceOnUse">
<stop stop-color="#71D0CF"/>
<stop offset="0.305" stop-color="#5BA7A6"/>
<stop offset="0.78" stop-color="#75D7D6"/>
</linearGradient>
<linearGradient id="paint7_linear_2362_50" x1="572.235" y1="198.703" x2="576.767" y2="313.05" gradientUnits="userSpaceOnUse">
<stop offset="0.485" stop-color="#B32169"/>
<stop offset="1" stop-color="#3029BA"/>
</linearGradient>
<linearGradient id="paint8_linear_2362_50" x1="848.802" y1="180.338" x2="848.802" y2="311.141" gradientUnits="userSpaceOnUse">
<stop stop-color="#71D0CF"/>
<stop offset="0.305" stop-color="#5BA7A6"/>
<stop offset="0.78" stop-color="#75D7D6"/>
</linearGradient>
<linearGradient id="paint9_linear_2362_50" x1="850.722" y1="188.556" x2="846.19" y2="302.902" gradientUnits="userSpaceOnUse">
<stop offset="0.485" stop-color="#B32169"/>
<stop offset="1" stop-color="#3029BA"/>
</linearGradient>
<linearGradient id="paint10_linear_2362_50" x1="730.721" y1="169.502" x2="677.989" y2="280.642" gradientUnits="userSpaceOnUse">
<stop stop-color="#71D0CF"/>
<stop offset="0.305" stop-color="#5BA7A6"/>
<stop offset="0.78" stop-color="#75D7D6"/>
</linearGradient>
<linearGradient id="paint11_linear_2362_50" x1="725.811" y1="175.726" x2="682.885" y2="274.63" gradientUnits="userSpaceOnUse">
<stop offset="0.485" stop-color="#B32169"/>
<stop offset="1" stop-color="#3029BA"/>
</linearGradient>
</defs>
</svg>
