<svg width="670" height="86" viewBox="0 0 670 86" fill="none" xmlns="http://www.w3.org/2000/svg">
<path d="M24.378 59.184C24.09 64.272 24.09 69.456 24.474 74.544C24.57 75.888 25.146 78.384 23.898 79.344C23.802 79.44 23.226 79.536 23.13 79.536C18.234 80.4 7.386 80.112 2.49 79.152C1.146 78.864 0.474 78.288 0.378 76.848C0.282 73.104 1.818 63.12 2.106 58.32C2.778 44.88 3.642 26.544 2.298 13.392C2.202 12.528 1.914 11.376 2.586 10.608C3.162 9.936 4.314 10.032 5.082 9.936C13.914 8.68799 22.362 7.536 31.386 8.68799C59.418 12.24 61.05 53.808 24.378 59.184ZM21.786 23.76C22.554 30.288 22.554 36.816 22.938 43.344C40.218 40.368 38.682 24.528 28.794 23.472C26.49 23.28 24.09 23.568 21.786 23.76ZM48.378 56.112C46.65 57.648 45.114 54.768 47.994 52.656C49.146 51.888 50.586 53.136 50.01 54.384C49.818 54.864 48.762 55.728 48.378 56.112ZM32.826 66.096C31.674 66.384 28.986 66.48 27.93 66C26.49 65.424 26.586 63.504 28.122 63.12C32.73 61.872 35.994 60.912 40.314 58.608C46.458 55.248 47.322 62.16 32.826 66.096ZM77.8838 59.376C83.4518 60.624 95.2598 58.512 100.636 56.496C101.116 56.304 101.98 55.824 102.364 56.496C102.556 56.88 102.652 58.416 102.748 58.896C103.42 63.504 104.092 68.88 103.804 73.488C103.708 74.448 101.212 75.312 100.444 75.6C90.3638 79.344 72.8918 81.168 64.0598 73.776C52.9237 64.464 61.7558 25.872 62.3318 13.392C65.3078 10.896 101.692 7.248 103.036 8.88C103.804 9.84 103.42 23.184 103.42 25.392C103.42 26.832 103.9 29.328 101.884 29.52C94.4918 30.096 86.7158 29.04 79.4198 29.904C79.0358 30.672 78.6518 36.72 78.5558 37.968C80.0918 37.968 92.9558 37.776 93.2438 38.064C93.6278 38.544 93.6278 39.504 93.6278 40.08C93.6278 42.864 93.9158 46.128 93.6278 48.816C93.5318 49.584 93.3398 50.16 92.4758 50.352C89.7878 51.12 80.1877 50.736 77.0198 50.544C77.1158 53.52 77.2118 56.496 77.8838 59.376ZM101.116 81.744C99.3878 81.936 98.7158 79.92 100.54 79.152C103.132 78.096 103.804 81.456 101.116 81.744ZM84.2198 85.488C80.9558 85.968 75.3878 85.584 72.3158 84.144C71.3558 83.664 68.5718 82.512 68.3798 81.264C68.1878 79.92 69.5318 79.248 70.5878 79.92C72.5078 81.072 75.5798 81.744 77.7878 82.128C86.1398 83.664 94.4918 80.304 96.2198 80.592C97.5638 80.784 97.3718 82.32 96.2198 82.8C92.6678 84.24 87.9638 84.912 84.2198 85.488ZM160.432 14.064C160.912 16.176 158.704 15.888 157.648 14.832C155.536 12.816 159.76 10.608 160.432 14.064ZM133.456 60.72C133.648 65.136 133.648 69.648 133.84 74.064C133.936 75.696 134.416 78.672 132.304 79.152C130.864 79.44 115.312 79.728 113.968 79.248C113.488 79.056 113.104 78.672 113.008 78.192C112.24 74.448 113.2 68.88 113.296 65.04C113.392 57.936 113.584 23.664 110.896 18.096C109.936 16.176 113.584 15.792 114.832 15.504C122.512 13.584 130.384 12.048 138.352 12.432C147.856 12.816 158.896 16.464 162.064 26.64C165.616 38.16 156.112 48.72 145.936 52.464C151.504 57.456 158.032 61.584 164.368 65.52C167.536 67.44 155.632 78.768 152.08 78.672C147.856 78.576 136.144 64.464 133.456 60.72ZM131.056 26.352C132.016 31.056 131.92 35.856 132.4 40.56C151.504 37.872 149.488 22.704 131.056 26.352ZM152.848 9.36C152.272 9.55199 150.736 8.976 150.16 8.88C143.152 7.248 134.992 9.168 127.792 8.4C126.64 8.304 126.64 6.672 127.408 6.096C127.984 5.616 129.904 5.424 130.672 5.424C134.8 5.232 138.832 4.848 142.96 5.232C144.4 5.328 152.08 6.576 153.04 7.34399C153.712 7.92 153.808 9.07199 152.848 9.36ZM191.444 60.72C191.444 63.12 192.212 76.752 191.252 77.712C190.388 78.576 174.548 80.112 173.972 77.424C173.012 73.392 173.012 68.016 172.82 63.792C171.956 48.72 171.764 33.456 171.572 18.384C171.572 15.312 170.996 9.07199 175.316 8.784C188.084 8.016 201.236 8.784 214.004 8.784C216.116 8.784 217.268 8.592 217.268 10.992C217.172 16.464 217.172 22.704 216.404 28.08C216.116 30.192 212.852 29.424 211.412 29.328C205.364 28.944 197.972 28.656 192.02 29.616C191.924 34.512 192.116 39.504 192.116 44.4C194.708 44.4 211.892 43.824 212.948 44.88C213.812 45.744 212.948 55.632 212.852 57.36C212.756 58.512 213.14 60.24 211.7 60.432C205.364 61.296 197.972 59.28 191.444 60.72ZM199.412 14.544C200.564 14.544 203.924 14.928 204.788 14.448C206.708 13.488 205.844 10.8 203.828 10.8C200.948 10.8 197.972 10.704 195.092 10.704C193.94 10.704 192.596 10.416 191.636 11.184C190.004 12.528 191.156 14.832 193.172 14.544C195.188 14.256 197.3 14.544 199.412 14.544ZM208.628 12.144C207.86 13.68 209.204 15.312 210.836 14.928C214.676 13.968 210.356 8.592 208.628 12.144ZM260.932 4.56C259.78 6.47999 256.516 4.08 258.916 2.16C260.644 0.815998 261.796 3.024 260.932 4.56ZM281.476 15.216C281.188 16.368 279.748 16.272 279.172 15.504C275.332 10.896 269.764 8.592 264.1 6.768C262.756 6.384 262.564 4.65599 263.908 4.08C269.38 1.872 282.148 12.336 281.476 15.216ZM261.22 77.52C254.788 78.576 244.708 78.864 239.044 75.12C229.54 68.88 225.988 54.096 224.26 43.632C223.204 37.104 221.86 30.288 223.108 23.664C225.028 13.776 231.844 8.976 241.444 7.92C248.932 7.056 257.668 7.824 264.772 10.512C284.74 18 284.548 36.816 279.076 54.384C277.252 60.24 275.14 66.192 271.588 71.28C268.708 75.312 266.02 76.752 261.22 77.52ZM253.06 55.632C254.884 55.632 256.708 55.44 258.052 54.192C261.22 51.216 262.948 40.944 262.66 36.624C262.276 30.864 256.804 28.08 251.524 27.792C248.548 27.6 245.476 27.984 244.132 31.056C242.212 35.472 243.748 51.312 247.78 54.192C249.316 55.248 251.236 55.632 253.06 55.632ZM338.369 14.064C338.849 16.176 336.641 15.888 335.585 14.832C333.473 12.816 337.697 10.608 338.369 14.064ZM311.393 60.72C311.585 65.136 311.585 69.648 311.777 74.064C311.873 75.696 312.353 78.672 310.241 79.152C308.801 79.44 293.249 79.728 291.905 79.248C291.425 79.056 291.041 78.672 290.945 78.192C290.177 74.448 291.137 68.88 291.233 65.04C291.329 57.936 291.521 23.664 288.833 18.096C287.873 16.176 291.521 15.792 292.769 15.504C300.449 13.584 308.321 12.048 316.289 12.432C325.793 12.816 336.833 16.464 340.001 26.64C343.553 38.16 334.049 48.72 323.873 52.464C329.441 57.456 335.969 61.584 342.305 65.52C345.473 67.44 333.569 78.768 330.017 78.672C325.793 78.576 314.081 64.464 311.393 60.72ZM308.993 26.352C309.953 31.056 309.857 35.856 310.337 40.56C329.441 37.872 327.425 22.704 308.993 26.352ZM330.785 9.36C330.209 9.55199 328.673 8.976 328.097 8.88C321.089 7.248 312.929 9.168 305.729 8.4C304.577 8.304 304.577 6.672 305.345 6.096C305.921 5.616 307.841 5.424 308.609 5.424C312.737 5.232 316.769 4.848 320.897 5.232C322.337 5.328 330.017 6.576 330.977 7.34399C331.649 7.92 331.745 9.07199 330.785 9.36ZM383.878 46.608C384.838 43.248 395.014 10.224 396.742 9.456C397.894 8.976 412.198 10.416 412.774 11.568C413.158 12.336 413.158 15.216 413.254 16.272C414.406 33.456 416.23 50.928 419.014 67.92C419.206 69.168 420.646 75.984 420.07 76.656C419.494 77.328 406.438 78 404.614 78.192C403.27 78.384 399.622 79.344 398.95 77.616C397.414 73.488 397.03 49.104 396.934 43.344C395.878 45.936 389.062 66.384 389.062 66.384C388.102 67.44 379.654 66.576 377.638 66.672C375.238 66.864 375.238 63.408 374.854 61.68C373.414 55.536 371.782 49.392 370.438 43.152C368.902 54 368.326 64.944 367.462 75.888C367.366 76.752 367.366 78.384 366.214 78.576C365.734 78.672 363.046 77.616 362.374 77.424C358.438 76.272 351.526 74.736 347.494 74.832C346.726 74.544 346.918 72.624 347.11 71.952C351.334 52.752 354.694 33.744 357.958 14.448C358.054 13.68 358.246 12.816 358.822 12.24C359.974 11.088 374.95 8.112 375.526 8.976C375.718 9.264 375.814 10.896 375.91 11.376C377.638 23.28 380.614 34.992 383.878 46.608ZM407.974 30.096C408.742 32.112 411.622 31.44 411.718 29.328C411.814 25.776 411.43 14.544 407.686 12.912C406.63 12.432 402.79 12.24 401.542 12.24C398.662 12.24 397.318 14.832 399.718 15.888C400.966 16.464 405.478 15.792 406.246 16.56C407.686 17.904 407.206 27.984 407.974 30.096ZM408.934 37.776C410.086 38.64 411.91 37.968 412.102 36.528C412.678 32.304 405.574 35.088 408.934 37.776ZM452.095 1.68C453.343 2.352 452.863 4.17599 451.519 4.368C449.119 4.65599 449.983 0.527996 452.095 1.68ZM432.415 23.664C428.575 26.352 432.895 14.64 433.183 13.968C434.335 10.896 435.871 7.92 438.367 5.808C439.903 4.56 444.895 2.16 446.815 2.544C448.255 2.832 448.351 4.65599 446.911 5.13599C444.607 5.808 442.783 5.232 440.767 7.248C437.791 10.224 433.663 22.8 432.415 23.664ZM445.855 66.192C445.279 69.744 445.279 73.872 444.415 77.328C443.743 80.016 426.463 79.056 425.119 76.176C422.431 70.512 436.927 14.448 444.415 8.88C445.663 7.92 447.295 7.536 448.831 7.248C453.055 6.47999 469.759 6.576 472.159 10.032C474.367 13.2 475.711 17.04 476.863 20.688C479.071 27.984 489.439 69.072 486.559 75.312C484.351 80.112 468.223 80.976 467.071 75.888C466.399 72.912 466.495 69.072 466.207 66C459.391 65.616 452.671 65.712 445.855 66.192ZM447.679 52.56C453.439 52.368 459.775 51.984 465.535 52.56C465.631 49.488 462.079 27.312 460.447 25.968C458.815 24.528 455.647 26.16 453.631 26.064C450.559 34.512 449.503 43.824 447.679 52.56ZM511.741 33.36C513.661 42.96 517.981 68.112 516.925 77.04C516.733 78.768 515.293 79.344 513.757 79.44C511.069 79.632 494.941 80.112 493.789 78.48C492.733 76.944 493.981 72.336 494.269 70.512C496.285 57.264 496.189 34.512 494.941 20.976C494.845 19.536 494.077 12.912 494.269 12.048C494.749 9.84 511.453 6.576 513.565 7.44C515.293 8.112 518.845 17.04 519.613 19.056C523.549 29.04 526.525 39.408 529.981 49.584C530.749 37.68 529.789 24.624 527.869 12.912C527.677 11.568 527.005 9.744 528.637 9.07199C530.461 8.304 547.453 7.248 549.661 7.824C549.949 8.20799 549.853 8.68799 549.757 9.168C548.989 14.256 549.085 19.824 548.989 25.008C548.701 38.256 548.509 51.504 548.413 64.752C548.413 67.632 544.189 66.864 542.269 66.864C537.085 66.864 532.573 67.728 527.581 68.784C527.101 68.88 526.429 68.88 526.045 68.592C525.181 67.92 524.989 66.672 524.701 65.712C521.629 54.96 517.693 42.864 511.741 33.36ZM527.197 77.232C526.525 77.328 525.469 77.424 524.797 77.232C523.261 76.848 523.261 74.928 524.701 74.448C529.021 72.912 533.533 72.72 538.045 72.336C544.093 71.856 542.653 75.504 540.541 75.984C536.317 76.944 531.517 76.656 527.197 77.232ZM548.029 72.816C550.621 73.488 548.701 77.328 546.013 75.696C543.997 74.448 546.205 72.336 548.029 72.816ZM596.593 34.896C596.401 33.072 596.785 31.632 595.729 29.904C593.713 26.832 589.105 26.544 586.129 28.272C576.817 33.648 576.433 52.848 584.977 59.088C588.337 61.584 592.177 61.392 595.057 58.224C596.881 56.304 596.977 54.288 597.937 52.08C598.417 51.024 599.665 51.312 600.529 51.408C603.313 51.696 615.313 51.984 616.561 54.096C617.905 56.304 615.505 63.024 614.545 65.328C613.105 68.688 610.801 71.184 607.825 73.2C595.729 81.36 578.353 81.456 567.313 71.28C558.193 62.832 555.505 49.584 557.137 37.68C560.689 12.24 583.057 3.31199 606.289 7.824C608.881 8.304 614.065 9.168 615.697 11.376C615.697 17.232 615.217 23.088 615.601 28.944C615.697 30.864 616.273 33.072 616.081 34.896C615.985 35.568 615.889 36.432 615.121 36.72C614.833 36.816 598.417 35.76 597.073 35.472L596.593 34.896ZM585.265 76.368C586.417 76.56 590.641 76.848 591.697 76.56C594.193 75.792 593.329 72.432 591.409 72.624C581.713 73.392 575.377 69.648 569.233 62.448C568.081 61.104 565.681 61.392 565.681 63.408C565.681 65.04 569.329 68.496 570.577 69.648C574.513 73.2 580.177 75.408 585.265 76.368ZM595.537 73.392C597.073 77.424 601.873 71.472 597.649 70.704C596.113 70.416 594.961 71.952 595.537 73.392ZM643.29 59.376C648.858 60.624 660.666 58.512 666.042 56.496C666.522 56.304 667.386 55.824 667.77 56.496C667.962 56.88 668.058 58.416 668.154 58.896C668.826 63.504 669.498 68.88 669.21 73.488C669.114 74.448 666.618 75.312 665.85 75.6C655.77 79.344 638.298 81.168 629.466 73.776C618.33 64.464 627.162 25.872 627.738 13.392C630.714 10.896 667.098 7.248 668.442 8.88C669.21 9.84 668.826 23.184 668.826 25.392C668.826 26.832 669.306 29.328 667.29 29.52C659.898 30.096 652.122 29.04 644.826 29.904C644.442 30.672 644.058 36.72 643.962 37.968C645.498 37.968 658.362 37.776 658.65 38.064C659.034 38.544 659.034 39.504 659.034 40.08C659.034 42.864 659.322 46.128 659.034 48.816C658.938 49.584 658.746 50.16 657.882 50.352C655.194 51.12 645.594 50.736 642.426 50.544C642.522 53.52 642.618 56.496 643.29 59.376ZM666.522 81.744C664.794 81.936 664.122 79.92 665.946 79.152C668.538 78.096 669.21 81.456 666.522 81.744ZM649.626 85.488C646.362 85.968 640.794 85.584 637.722 84.144C636.762 83.664 633.978 82.512 633.786 81.264C633.594 79.92 634.938 79.248 635.994 79.92C637.914 81.072 640.986 81.744 643.194 82.128C651.546 83.664 659.898 80.304 661.626 80.592C662.97 80.784 662.778 82.32 661.626 82.8C658.074 84.24 653.37 84.912 649.626 85.488Z" fill="url(#paint0_linear_1254_4993)"/>
<defs>
<linearGradient id="paint0_linear_1254_4993" x1="334.5" y1="0" x2="334.5" y2="122" gradientUnits="userSpaceOnUse">
<stop stop-color="#FFEAC3"/>
<stop offset="0.79" stop-color="#E6A7A5"/>
<stop offset="1" stop-color="#B32169"/>
</linearGradient>
</defs>
</svg>
