<svg width="893" height="115" viewBox="0 0 893 115" fill="none" xmlns="http://www.w3.org/2000/svg">
<path d="M32.3045 78.912C31.9205 85.696 31.9205 92.608 32.4325 99.392C32.5605 101.184 33.3285 104.512 31.6645 105.792C31.5365 105.92 30.7685 106.048 30.6405 106.048C24.1125 107.2 9.6485 106.816 3.1205 105.536C1.3285 105.152 0.4325 104.384 0.3045 102.464C0.1765 97.472 2.2245 84.16 2.6085 77.76C3.5045 59.84 4.6565 35.392 2.8645 17.856C2.7365 16.704 2.3525 15.168 3.2485 14.144C4.0165 13.248 5.5525 13.376 6.5765 13.248C18.3525 11.584 29.6165 10.048 41.6485 11.584C79.0245 16.32 81.2005 71.744 32.3045 78.912ZM28.8485 31.68C29.8725 40.384 29.8725 49.088 30.3845 57.792C53.4245 53.824 51.3765 32.704 38.1925 31.296C35.1205 31.04 31.9205 31.424 28.8485 31.68ZM64.3045 74.816C62.0005 76.864 59.9525 73.024 63.7925 70.208C65.3285 69.184 67.2485 70.848 66.4805 72.512C66.2245 73.152 64.8165 74.304 64.3045 74.816ZM43.5685 88.128C42.0325 88.512 38.4485 88.64 37.0405 88C35.1205 87.232 35.2485 84.672 37.2965 84.16C43.4405 82.496 47.7925 81.216 53.5525 78.144C61.7445 73.664 62.8965 82.88 43.5685 88.128ZM103.533 79.168C110.957 80.832 126.701 78.016 133.869 75.328C134.509 75.072 135.661 74.432 136.173 75.328C136.429 75.84 136.557 77.888 136.685 78.528C137.581 84.672 138.477 91.84 138.093 97.984C137.965 99.264 134.637 100.416 133.613 100.8C120.173 105.792 96.8765 108.224 85.1005 98.368C70.2525 85.952 82.0285 34.496 82.7965 17.856C86.7645 14.528 135.277 9.66399 137.069 11.84C138.093 13.12 137.581 30.912 137.581 33.856C137.581 35.776 138.221 39.104 135.533 39.36C125.677 40.128 115.309 38.72 105.581 39.872C105.069 40.896 104.557 48.96 104.429 50.624C106.477 50.624 123.629 50.368 124.013 50.752C124.525 51.392 124.525 52.672 124.525 53.44C124.525 57.152 124.909 61.504 124.525 65.088C124.397 66.112 124.141 66.88 122.989 67.136C119.405 68.16 106.604 67.648 102.381 67.392C102.509 71.36 102.637 75.328 103.533 79.168ZM134.509 108.992C132.205 109.248 131.309 106.56 133.741 105.536C137.197 104.128 138.093 108.608 134.509 108.992ZM111.981 113.984C107.629 114.624 100.205 114.112 96.1085 112.192C94.8285 111.552 91.1165 110.016 90.8605 108.352C90.6045 106.56 92.3965 105.664 93.8045 106.56C96.3645 108.096 100.461 108.992 103.405 109.504C114.541 111.552 125.677 107.072 127.981 107.456C129.773 107.712 129.517 109.76 127.981 110.4C123.245 112.32 116.973 113.216 111.981 113.984ZM213.597 18.752C214.237 21.568 211.293 21.184 209.885 19.776C207.069 17.088 212.701 14.144 213.597 18.752ZM177.629 80.96C177.885 86.848 177.885 92.864 178.141 98.752C178.269 100.928 178.909 104.896 176.093 105.536C174.173 105.92 153.437 106.304 151.645 105.664C151.005 105.408 150.493 104.896 150.365 104.256C149.341 99.264 150.621 91.84 150.749 86.72C150.877 77.248 151.133 31.552 147.549 24.128C146.269 21.568 151.133 21.056 152.797 20.672C163.037 18.112 173.533 16.064 184.157 16.576C196.829 17.088 211.549 21.952 215.773 35.52C220.509 50.88 207.837 64.96 194.269 69.952C201.693 76.608 210.396 82.112 218.845 87.36C223.069 89.92 207.197 105.024 202.461 104.896C196.829 104.768 181.213 85.952 177.629 80.96ZM174.429 35.136C175.708 41.408 175.581 47.808 176.221 54.08C201.693 50.496 199.005 30.272 174.429 35.136ZM203.485 12.48C202.717 12.736 200.669 11.968 199.901 11.84C190.557 9.66399 179.677 12.224 170.077 11.2C168.541 11.072 168.541 8.896 169.565 8.128C170.333 7.488 172.893 7.23199 173.917 7.23199C179.421 6.976 184.797 6.464 190.301 6.976C192.221 7.104 202.461 8.768 203.741 9.79199C204.637 10.56 204.765 12.096 203.485 12.48ZM254.947 80.96C254.947 84.16 255.971 102.336 254.691 103.616C253.539 104.768 232.419 106.816 231.651 103.232C230.371 97.856 230.371 90.688 230.115 85.056C228.963 64.96 228.707 44.608 228.451 24.512C228.451 20.416 227.683 12.096 233.443 11.712C250.467 10.688 268.003 11.712 285.027 11.712C287.843 11.712 289.379 11.456 289.379 14.656C289.251 21.952 289.251 30.272 288.227 37.44C287.843 40.256 283.491 39.232 281.571 39.104C273.507 38.592 263.651 38.208 255.715 39.488C255.587 46.016 255.843 52.672 255.843 59.2C259.299 59.2 282.211 58.432 283.619 59.84C284.771 60.992 283.619 74.176 283.491 76.48C283.363 78.016 283.875 80.32 281.955 80.576C273.507 81.728 263.651 79.04 254.947 80.96ZM265.571 19.392C267.107 19.392 271.587 19.904 272.739 19.264C275.299 17.984 274.147 14.4 271.459 14.4C267.619 14.4 263.651 14.272 259.811 14.272C258.275 14.272 256.483 13.888 255.203 14.912C253.027 16.704 254.562 19.776 257.251 19.392C259.939 19.008 262.755 19.392 265.571 19.392ZM277.859 16.192C276.835 18.24 278.627 20.416 280.803 19.904C285.923 18.624 280.163 11.456 277.859 16.192ZM347.597 6.07999C346.061 8.63999 341.709 5.43999 344.909 2.88C347.213 1.088 348.749 4.032 347.597 6.07999ZM374.989 20.288C374.605 21.824 372.685 21.696 371.917 20.672C366.797 14.528 359.373 11.456 351.821 9.02399C350.029 8.51199 349.773 6.20799 351.565 5.43999C358.861 2.49599 375.885 16.448 374.989 20.288ZM347.981 103.36C339.405 104.768 325.965 105.152 318.413 100.16C305.741 91.84 301.005 72.128 298.701 58.176C297.293 49.472 295.501 40.384 297.165 31.552C299.725 18.368 308.812 11.968 321.613 10.56C331.597 9.408 343.245 10.432 352.717 14.016C379.341 24 379.085 49.088 371.789 72.512C369.357 80.32 366.541 88.256 361.805 95.04C357.965 100.416 354.381 102.336 347.981 103.36ZM337.101 74.176C339.533 74.176 341.965 73.92 343.757 72.256C347.981 68.288 350.285 54.592 349.901 48.832C349.389 41.152 342.093 37.44 335.053 37.056C331.085 36.8 326.989 37.312 325.197 41.408C322.637 47.296 324.685 68.416 330.061 72.256C332.109 73.664 334.669 74.176 337.101 74.176ZM450.847 18.752C451.487 21.568 448.543 21.184 447.135 19.776C444.319 17.088 449.951 14.144 450.847 18.752ZM414.879 80.96C415.135 86.848 415.135 92.864 415.391 98.752C415.519 100.928 416.159 104.896 413.343 105.536C411.423 105.92 390.687 106.304 388.895 105.664C388.255 105.408 387.743 104.896 387.615 104.256C386.591 99.264 387.871 91.84 387.999 86.72C388.127 77.248 388.383 31.552 384.799 24.128C383.519 21.568 388.383 21.056 390.047 20.672C400.287 18.112 410.783 16.064 421.407 16.576C434.079 17.088 448.799 21.952 453.023 35.52C457.759 50.88 445.087 64.96 431.519 69.952C438.943 76.608 447.646 82.112 456.095 87.36C460.319 89.92 444.447 105.024 439.711 104.896C434.079 104.768 418.463 85.952 414.879 80.96ZM411.679 35.136C412.958 41.408 412.831 47.808 413.471 54.08C438.943 50.496 436.255 30.272 411.679 35.136ZM440.735 12.48C439.967 12.736 437.919 11.968 437.151 11.84C427.807 9.66399 416.927 12.224 407.327 11.2C405.791 11.072 405.791 8.896 406.815 8.128C407.583 7.488 410.143 7.23199 411.167 7.23199C416.671 6.976 422.047 6.464 427.551 6.976C429.471 7.104 439.711 8.768 440.991 9.79199C441.887 10.56 442.015 12.096 440.735 12.48ZM511.525 62.144C512.805 57.664 526.373 13.632 528.677 12.608C530.213 11.968 549.285 13.888 550.053 15.424C550.565 16.448 550.565 20.288 550.693 21.696C552.229 44.608 554.661 67.904 558.373 90.56C558.629 92.224 560.549 101.312 559.781 102.208C559.013 103.104 541.605 104 539.173 104.256C537.381 104.512 532.517 105.792 531.621 103.488C529.573 97.984 529.061 65.472 528.933 57.792C527.525 61.248 518.437 88.512 518.437 88.512C517.157 89.92 505.893 88.768 503.205 88.896C500.005 89.152 500.005 84.544 499.493 82.24C497.573 74.048 495.397 65.856 493.604 57.536C491.557 72 490.789 86.592 489.637 101.184C489.509 102.336 489.509 104.512 487.973 104.768C487.333 104.896 483.749 103.488 482.853 103.232C477.605 101.696 468.389 99.648 463.013 99.776C461.989 99.392 462.245 96.832 462.501 95.936C468.133 70.336 472.613 44.992 476.965 19.264C477.093 18.24 477.349 17.088 478.117 16.32C479.653 14.784 499.621 10.816 500.389 11.968C500.645 12.352 500.773 14.528 500.901 15.168C503.205 31.04 507.173 46.656 511.525 62.144ZM543.653 40.128C544.677 42.816 548.517 41.92 548.645 39.104C548.773 34.368 548.261 19.392 543.269 17.216C541.861 16.576 536.741 16.32 535.076 16.32C531.237 16.32 529.445 19.776 532.645 21.184C534.309 21.952 540.325 21.056 541.349 22.08C543.269 23.872 542.629 37.312 543.653 40.128ZM544.933 50.368C546.469 51.52 548.901 50.624 549.157 48.704C549.925 43.072 540.453 46.784 544.933 50.368ZM602.481 2.24C604.145 3.13599 603.505 5.56799 601.713 5.824C598.513 6.20799 599.665 0.703995 602.481 2.24ZM576.241 31.552C571.121 35.136 576.881 19.52 577.265 18.624C578.801 14.528 580.849 10.56 584.177 7.744C586.225 6.07999 592.881 2.88 595.441 3.392C597.361 3.77599 597.489 6.20799 595.569 6.84799C592.497 7.744 590.065 6.976 587.377 9.66399C583.409 13.632 577.905 30.4 576.241 31.552ZM594.161 88.256C593.393 92.992 593.393 98.496 592.241 103.104C591.345 106.688 568.305 105.408 566.513 101.568C562.928 94.016 582.257 19.264 592.241 11.84C593.905 10.56 596.081 10.048 598.129 9.66399C603.761 8.63999 626.033 8.768 629.233 13.376C632.177 17.6 633.969 22.72 635.505 27.584C638.449 37.312 652.273 92.096 648.433 100.416C645.489 106.816 623.985 107.968 622.449 101.184C621.553 97.216 621.681 92.096 621.297 88C612.209 87.488 603.249 87.616 594.161 88.256ZM596.593 70.08C604.273 69.824 612.721 69.312 620.401 70.08C620.529 65.984 615.793 36.416 613.617 34.624C611.441 32.704 607.217 34.88 604.529 34.752C600.433 46.016 599.025 58.432 596.593 70.08ZM682.009 44.48C684.569 57.28 690.329 90.816 688.921 102.72C688.665 105.024 686.745 105.792 684.697 105.92C681.113 106.176 659.609 106.816 658.073 104.64C656.665 102.592 658.329 96.448 658.713 94.016C661.401 76.352 661.273 46.016 659.609 27.968C659.481 26.048 658.457 17.216 658.713 16.064C659.353 13.12 681.625 8.768 684.441 9.92C686.745 10.816 691.481 22.72 692.505 25.408C697.753 38.72 701.721 52.544 706.329 66.112C707.353 50.24 706.073 32.832 703.513 17.216C703.257 15.424 702.361 12.992 704.537 12.096C706.969 11.072 729.625 9.66399 732.569 10.432C732.953 10.944 732.825 11.584 732.697 12.224C731.673 19.008 731.801 26.432 731.673 33.344C731.289 51.008 731.033 68.672 730.905 86.336C730.905 90.176 725.273 89.152 722.713 89.152C715.801 89.152 709.785 90.304 703.129 91.712C702.489 91.84 701.593 91.84 701.081 91.456C699.929 90.56 699.673 88.896 699.289 87.616C695.193 73.28 689.944 57.152 682.009 44.48ZM702.617 102.976C701.721 103.104 700.313 103.232 699.417 102.976C697.369 102.464 697.369 99.904 699.289 99.264C705.049 97.216 711.065 96.96 717.081 96.448C725.145 95.808 723.225 100.672 720.409 101.312C714.777 102.592 708.377 102.208 702.617 102.976ZM730.393 97.088C733.849 97.984 731.289 103.104 727.705 100.928C725.017 99.264 727.961 96.448 730.393 97.088ZM795.145 46.528C794.889 44.096 795.401 42.176 793.993 39.872C791.305 35.776 785.161 35.392 781.193 37.696C768.777 44.864 768.265 70.464 779.657 78.784C784.137 82.112 789.257 81.856 793.097 77.632C795.529 75.072 795.657 72.384 796.937 69.44C797.577 68.032 799.241 68.416 800.393 68.544C804.104 68.928 820.105 69.312 821.769 72.128C823.561 75.072 820.361 84.032 819.081 87.104C817.161 91.584 814.089 94.912 810.121 97.6C793.993 108.48 770.825 108.608 756.105 95.04C743.945 83.776 740.361 66.112 742.536 50.24C747.273 16.32 777.097 4.41599 808.073 10.432C811.529 11.072 818.441 12.224 820.617 15.168C820.617 22.976 819.977 30.784 820.489 38.592C820.617 41.152 821.385 44.096 821.129 46.528C821.001 47.424 820.873 48.576 819.849 48.96C819.465 49.088 797.577 47.68 795.785 47.296L795.145 46.528ZM780.041 101.824C781.577 102.08 787.209 102.464 788.617 102.08C791.945 101.056 790.793 96.576 788.233 96.832C775.305 97.856 766.857 92.864 758.665 83.264C757.128 81.472 753.929 81.856 753.929 84.544C753.929 86.72 758.793 91.328 760.457 92.864C765.705 97.6 773.257 100.544 780.041 101.824ZM793.737 97.856C795.785 103.232 802.185 95.296 796.553 94.272C794.505 93.888 792.969 95.936 793.737 97.856ZM857.408 79.168C864.832 80.832 880.576 78.016 887.744 75.328C888.384 75.072 889.536 74.432 890.048 75.328C890.304 75.84 890.432 77.888 890.56 78.528C891.456 84.672 892.352 91.84 891.968 97.984C891.84 99.264 888.512 100.416 887.488 100.8C874.048 105.792 850.752 108.224 838.976 98.368C824.127 85.952 835.904 34.496 836.672 17.856C840.64 14.528 889.152 9.66399 890.944 11.84C891.968 13.12 891.456 30.912 891.456 33.856C891.456 35.776 892.096 39.104 889.408 39.36C879.552 40.128 869.184 38.72 859.456 39.872C858.944 40.896 858.432 48.96 858.304 50.624C860.352 50.624 877.504 50.368 877.888 50.752C878.4 51.392 878.4 52.672 878.4 53.44C878.4 57.152 878.784 61.504 878.4 65.088C878.272 66.112 878.016 66.88 876.864 67.136C873.28 68.16 860.479 67.648 856.256 67.392C856.384 71.36 856.512 75.328 857.408 79.168ZM888.384 108.992C886.08 109.248 885.184 106.56 887.616 105.536C891.072 104.128 891.968 108.608 888.384 108.992ZM865.856 113.984C861.504 114.624 854.08 114.112 849.984 112.192C848.704 111.552 844.992 110.016 844.736 108.352C844.48 106.56 846.272 105.664 847.68 106.56C850.24 108.096 854.336 108.992 857.28 109.504C868.416 111.552 879.552 107.072 881.856 107.456C883.648 107.712 883.392 109.76 881.856 110.4C877.12 112.32 870.848 113.216 865.856 113.984Z" fill="url(#paint0_radial_1238_1750)"/>
<defs>
<radialGradient id="paint0_radial_1238_1750" cx="0" cy="0" r="1" gradientUnits="userSpaceOnUse" gradientTransform="translate(1318.34 61) rotate(-178.135) scale(1874.31 197.973)">
<stop offset="0.120225" stop-color="#D7B575"/>
<stop offset="0.370102" stop-color="#B32169"/>
<stop offset="0.660328" stop-color="#741F5E"/>
<stop offset="1" stop-color="#BC0079" stop-opacity="0"/>
</radialGradient>
</defs>
</svg>
