<svg width="1030" height="372" viewBox="0 0 1030 372" fill="none" xmlns="http://www.w3.org/2000/svg">
<rect x="5" y="5" width="1020" height="322" rx="33" fill="white" stroke="url(#paint0_linear_2362_80)" stroke-width="10"/>
<g filter="url(#filter0_d_2362_80)">
<path d="M357.161 153.202C337.267 141.209 303.324 154.521 282.336 166.232C261.348 177.943 369.876 196.034 313.804 203.414C257.732 210.793 336.633 238.435 389.508 241.919C442.384 245.403 447.543 233.425 492.306 232.57C537.069 231.715 485.24 213.228 465.636 216.741C446.032 220.253 420.9 231.993 400.73 223.604C392.109 220.018 393.359 210.491 404.845 207.772C416.331 205.053 431.556 213.443 431.261 210.25C430.965 207.057 422.379 193.254 410.554 190.674C399.516 188.265 389.982 191.813 375.883 195.726C353.618 201.904 331.463 177.513 341.609 169.892C349.726 163.794 364.509 175.469 370.886 182.069C374.6 177.444 377.054 165.196 357.161 153.202Z" fill="url(#paint1_radial_2362_80)"/>
</g>
<g filter="url(#filter1_d_2362_80)">
<path d="M672.839 152.784C692.733 140.791 726.676 154.103 747.664 165.814C768.652 177.525 660.124 195.616 716.196 202.996C772.268 210.375 693.367 238.017 640.492 241.501C587.616 244.985 582.457 233.007 537.694 232.152C492.931 231.297 544.76 212.81 564.364 216.323C583.968 219.835 609.1 231.575 629.27 223.186C637.891 219.6 636.641 210.073 625.155 207.354C613.669 204.635 598.444 213.025 598.739 209.832C599.035 206.639 607.621 192.836 619.446 190.256C630.484 187.847 640.018 191.395 654.117 195.308C676.382 201.486 698.537 177.095 688.391 169.474C680.274 163.376 665.491 175.051 659.114 181.651C655.4 177.026 652.946 164.778 672.839 152.784Z" fill="url(#paint2_radial_2362_80)"/>
</g>
<mask id="path-4-outside-1_2362_80" maskUnits="userSpaceOnUse" x="397" y="78" width="237" height="59" fill="black">
<rect fill="white" x="397" y="78" width="237" height="59"/>
<path d="M414.746 117.456C414.554 120.848 414.554 124.304 414.81 127.696C414.874 128.592 415.258 130.256 414.426 130.896C414.362 130.96 413.978 131.024 413.914 131.024C410.65 131.6 403.418 131.408 400.154 130.768C399.258 130.576 398.81 130.192 398.746 129.232C398.682 126.736 399.706 120.08 399.898 116.88C400.346 107.92 400.922 95.696 400.026 86.928C399.962 86.352 399.77 85.584 400.218 85.072C400.602 84.624 401.37 84.688 401.882 84.624C407.77 83.792 413.402 83.024 419.418 83.792C438.106 86.16 439.194 113.872 414.746 117.456ZM413.018 93.84C413.53 98.192 413.53 102.544 413.786 106.896C425.306 104.912 424.282 94.352 417.69 93.648C416.154 93.52 414.554 93.712 413.018 93.84ZM430.746 115.408C429.594 116.432 428.57 114.512 430.49 113.104C431.258 112.592 432.218 113.424 431.834 114.256C431.706 114.576 431.002 115.152 430.746 115.408ZM420.378 122.064C419.61 122.256 417.818 122.32 417.114 122C416.154 121.616 416.218 120.336 417.242 120.08C420.314 119.248 422.49 118.608 425.37 117.072C429.466 114.832 430.042 119.44 420.378 122.064ZM462.392 81.04C461.624 82.32 459.448 80.72 461.048 79.44C462.2 78.544 462.968 80.016 462.392 81.04ZM476.088 88.144C475.896 88.912 474.936 88.848 474.552 88.336C471.992 85.264 468.28 83.728 464.504 82.512C463.608 82.256 463.48 81.104 464.376 80.72C468.024 79.248 476.536 86.224 476.088 88.144ZM462.584 129.68C458.296 130.384 451.576 130.576 447.8 128.08C441.464 123.92 439.096 114.064 437.944 107.088C437.24 102.736 436.344 98.192 437.176 93.776C438.456 87.184 443 83.984 449.4 83.28C454.392 82.704 460.216 83.216 464.952 85.008C478.264 90 478.136 102.544 474.488 114.256C473.272 118.16 471.864 122.128 469.496 125.52C467.576 128.208 465.784 129.168 462.584 129.68ZM457.144 115.088C458.36 115.088 459.576 114.96 460.472 114.128C462.584 112.144 463.736 105.296 463.544 102.416C463.288 98.576 459.64 96.72 456.12 96.528C454.136 96.4 452.088 96.656 451.192 98.704C449.912 101.648 450.936 112.208 453.624 114.128C454.648 114.832 455.928 115.088 457.144 115.088ZM504.673 129.424C495.329 132.112 483.361 130 482.721 118.224C482.657 117.52 482.657 116.816 483.233 116.304C484.321 115.344 493.601 113.744 494.241 115.024C495.073 116.624 493.729 120.016 497.185 120.016C499.937 120.016 500.769 116.752 499.809 114.64C496.545 107.216 478.561 110.352 480.225 96.592C480.929 90.832 485.729 86.352 490.849 84.24C497.057 81.744 505.185 81.68 510.945 85.264C514.849 87.696 517.153 91.472 517.473 96.016C517.537 97.296 517.665 99.472 516.129 99.984C515.169 100.304 506.401 101.136 505.377 101.008C504.609 100.944 503.969 100.88 503.841 99.984C503.393 97.232 503.457 93.712 500.129 92.56C497.057 91.536 491.361 94.224 492.833 98.064C494.177 101.712 511.137 103.248 514.273 113.68C516.321 120.528 511.201 127.504 504.673 129.424ZM502.241 126.416C501.345 127.504 502.689 128.784 503.905 128.4C508.385 126.928 512.289 123.088 512.673 118.288C512.993 114.768 510.113 115.6 510.113 117.072C510.113 118.608 509.921 119.504 509.345 120.912C507.809 124.624 502.753 125.776 502.241 126.416ZM498.337 128.848C499.105 129.552 500.321 129.104 500.513 128.144C501.025 125.456 496.353 126.992 498.337 128.848ZM533.402 130.704C531.738 131.536 531.802 126.8 531.738 125.904C531.29 118.224 530.522 103.376 531.546 96.08C528.474 96.4 524.826 97.36 521.818 97.296C520.986 97.296 520.602 96.656 520.346 95.952C519.962 94.736 520.154 83.984 520.538 82.832C520.73 82.32 520.986 81.808 521.434 81.552C522.138 81.104 523.994 81.36 524.826 81.488C535.066 82.768 545.434 81.808 555.738 82.768C557.018 82.896 557.21 83.088 557.85 84.112C557.85 86.544 557.914 94.096 556.25 95.632C555.354 96.464 553.946 96.464 552.794 96.464C550.746 96.464 548.762 96.272 546.714 96.528C546.778 107.088 547.482 117.52 547.93 128.08C547.93 128.464 547.93 129.424 547.61 129.68C547.29 129.936 546.202 130 545.754 130C543.386 130 534.362 130.832 533.402 130.704ZM537.69 87.184C538.138 87.312 550.554 86.544 550.81 86.416C551.642 85.904 551.45 84.368 550.554 84.048C550.234 83.92 537.882 84.624 537.37 84.944C536.538 85.52 536.666 86.864 537.69 87.184ZM553.626 86.544C554.33 87.12 555.354 86.672 555.61 85.84C556.569 82.832 551.194 84.624 553.626 86.544ZM574.235 117.584C577.947 118.416 585.819 117.008 589.403 115.664C589.723 115.536 590.299 115.216 590.555 115.664C590.683 115.92 590.747 116.944 590.811 117.264C591.259 120.336 591.707 123.92 591.515 126.992C591.451 127.632 589.787 128.208 589.275 128.4C582.555 130.896 570.907 132.112 565.019 127.184C557.595 120.976 563.483 95.248 563.867 86.928C565.851 85.264 590.107 82.832 591.003 83.92C591.515 84.56 591.259 93.456 591.259 94.928C591.259 95.888 591.579 97.552 590.235 97.68C585.307 98.064 580.123 97.36 575.259 97.936C575.003 98.448 574.747 102.48 574.683 103.312C575.707 103.312 584.283 103.184 584.475 103.376C584.731 103.696 584.731 104.336 584.731 104.72C584.731 106.576 584.923 108.752 584.731 110.544C584.667 111.056 584.539 111.44 583.963 111.568C582.171 112.08 575.771 111.824 573.659 111.696C573.723 113.68 573.787 115.664 574.235 117.584ZM589.723 132.496C588.571 132.624 588.123 131.28 589.339 130.768C591.067 130.064 591.515 132.304 589.723 132.496ZM578.459 134.992C576.283 135.312 572.571 135.056 570.523 134.096C569.883 133.776 568.027 133.008 567.899 132.176C567.771 131.28 568.667 130.832 569.371 131.28C570.651 132.048 572.699 132.496 574.171 132.752C579.739 133.776 585.307 131.536 586.459 131.728C587.355 131.856 587.227 132.88 586.459 133.2C584.091 134.16 580.955 134.608 578.459 134.992ZM629.267 87.376C629.587 88.784 628.115 88.592 627.411 87.888C626.003 86.544 628.819 85.072 629.267 87.376ZM611.283 118.48C611.411 121.424 611.411 124.432 611.539 127.376C611.603 128.464 611.923 130.448 610.515 130.768C609.555 130.96 599.187 131.152 598.291 130.832C597.971 130.704 597.715 130.448 597.651 130.128C597.139 127.632 597.779 123.92 597.843 121.36C597.907 116.624 598.035 93.776 596.243 90.064C595.603 88.784 598.035 88.528 598.867 88.336C603.987 87.056 609.235 86.032 614.547 86.288C620.883 86.544 628.243 88.976 630.355 95.76C632.723 103.44 626.387 110.48 619.603 112.976C623.315 116.304 627.667 119.056 631.891 121.68C634.003 122.96 626.067 130.512 623.699 130.448C620.883 130.384 613.075 120.976 611.283 118.48ZM609.683 95.568C610.323 98.704 610.259 101.904 610.579 105.04C623.315 103.248 621.971 93.136 609.683 95.568ZM624.211 84.24C623.827 84.368 622.803 83.984 622.419 83.92C617.747 82.832 612.307 84.112 607.507 83.6C606.739 83.536 606.739 82.448 607.251 82.064C607.635 81.744 608.915 81.616 609.427 81.616C612.179 81.488 614.867 81.232 617.619 81.488C618.579 81.552 623.699 82.384 624.339 82.896C624.787 83.28 624.851 84.048 624.211 84.24Z"/>
</mask>
<path d="M414.746 117.456C414.554 120.848 414.554 124.304 414.81 127.696C414.874 128.592 415.258 130.256 414.426 130.896C414.362 130.96 413.978 131.024 413.914 131.024C410.65 131.6 403.418 131.408 400.154 130.768C399.258 130.576 398.81 130.192 398.746 129.232C398.682 126.736 399.706 120.08 399.898 116.88C400.346 107.92 400.922 95.696 400.026 86.928C399.962 86.352 399.77 85.584 400.218 85.072C400.602 84.624 401.37 84.688 401.882 84.624C407.77 83.792 413.402 83.024 419.418 83.792C438.106 86.16 439.194 113.872 414.746 117.456ZM413.018 93.84C413.53 98.192 413.53 102.544 413.786 106.896C425.306 104.912 424.282 94.352 417.69 93.648C416.154 93.52 414.554 93.712 413.018 93.84ZM430.746 115.408C429.594 116.432 428.57 114.512 430.49 113.104C431.258 112.592 432.218 113.424 431.834 114.256C431.706 114.576 431.002 115.152 430.746 115.408ZM420.378 122.064C419.61 122.256 417.818 122.32 417.114 122C416.154 121.616 416.218 120.336 417.242 120.08C420.314 119.248 422.49 118.608 425.37 117.072C429.466 114.832 430.042 119.44 420.378 122.064ZM462.392 81.04C461.624 82.32 459.448 80.72 461.048 79.44C462.2 78.544 462.968 80.016 462.392 81.04ZM476.088 88.144C475.896 88.912 474.936 88.848 474.552 88.336C471.992 85.264 468.28 83.728 464.504 82.512C463.608 82.256 463.48 81.104 464.376 80.72C468.024 79.248 476.536 86.224 476.088 88.144ZM462.584 129.68C458.296 130.384 451.576 130.576 447.8 128.08C441.464 123.92 439.096 114.064 437.944 107.088C437.24 102.736 436.344 98.192 437.176 93.776C438.456 87.184 443 83.984 449.4 83.28C454.392 82.704 460.216 83.216 464.952 85.008C478.264 90 478.136 102.544 474.488 114.256C473.272 118.16 471.864 122.128 469.496 125.52C467.576 128.208 465.784 129.168 462.584 129.68ZM457.144 115.088C458.36 115.088 459.576 114.96 460.472 114.128C462.584 112.144 463.736 105.296 463.544 102.416C463.288 98.576 459.64 96.72 456.12 96.528C454.136 96.4 452.088 96.656 451.192 98.704C449.912 101.648 450.936 112.208 453.624 114.128C454.648 114.832 455.928 115.088 457.144 115.088ZM504.673 129.424C495.329 132.112 483.361 130 482.721 118.224C482.657 117.52 482.657 116.816 483.233 116.304C484.321 115.344 493.601 113.744 494.241 115.024C495.073 116.624 493.729 120.016 497.185 120.016C499.937 120.016 500.769 116.752 499.809 114.64C496.545 107.216 478.561 110.352 480.225 96.592C480.929 90.832 485.729 86.352 490.849 84.24C497.057 81.744 505.185 81.68 510.945 85.264C514.849 87.696 517.153 91.472 517.473 96.016C517.537 97.296 517.665 99.472 516.129 99.984C515.169 100.304 506.401 101.136 505.377 101.008C504.609 100.944 503.969 100.88 503.841 99.984C503.393 97.232 503.457 93.712 500.129 92.56C497.057 91.536 491.361 94.224 492.833 98.064C494.177 101.712 511.137 103.248 514.273 113.68C516.321 120.528 511.201 127.504 504.673 129.424ZM502.241 126.416C501.345 127.504 502.689 128.784 503.905 128.4C508.385 126.928 512.289 123.088 512.673 118.288C512.993 114.768 510.113 115.6 510.113 117.072C510.113 118.608 509.921 119.504 509.345 120.912C507.809 124.624 502.753 125.776 502.241 126.416ZM498.337 128.848C499.105 129.552 500.321 129.104 500.513 128.144C501.025 125.456 496.353 126.992 498.337 128.848ZM533.402 130.704C531.738 131.536 531.802 126.8 531.738 125.904C531.29 118.224 530.522 103.376 531.546 96.08C528.474 96.4 524.826 97.36 521.818 97.296C520.986 97.296 520.602 96.656 520.346 95.952C519.962 94.736 520.154 83.984 520.538 82.832C520.73 82.32 520.986 81.808 521.434 81.552C522.138 81.104 523.994 81.36 524.826 81.488C535.066 82.768 545.434 81.808 555.738 82.768C557.018 82.896 557.21 83.088 557.85 84.112C557.85 86.544 557.914 94.096 556.25 95.632C555.354 96.464 553.946 96.464 552.794 96.464C550.746 96.464 548.762 96.272 546.714 96.528C546.778 107.088 547.482 117.52 547.93 128.08C547.93 128.464 547.93 129.424 547.61 129.68C547.29 129.936 546.202 130 545.754 130C543.386 130 534.362 130.832 533.402 130.704ZM537.69 87.184C538.138 87.312 550.554 86.544 550.81 86.416C551.642 85.904 551.45 84.368 550.554 84.048C550.234 83.92 537.882 84.624 537.37 84.944C536.538 85.52 536.666 86.864 537.69 87.184ZM553.626 86.544C554.33 87.12 555.354 86.672 555.61 85.84C556.569 82.832 551.194 84.624 553.626 86.544ZM574.235 117.584C577.947 118.416 585.819 117.008 589.403 115.664C589.723 115.536 590.299 115.216 590.555 115.664C590.683 115.92 590.747 116.944 590.811 117.264C591.259 120.336 591.707 123.92 591.515 126.992C591.451 127.632 589.787 128.208 589.275 128.4C582.555 130.896 570.907 132.112 565.019 127.184C557.595 120.976 563.483 95.248 563.867 86.928C565.851 85.264 590.107 82.832 591.003 83.92C591.515 84.56 591.259 93.456 591.259 94.928C591.259 95.888 591.579 97.552 590.235 97.68C585.307 98.064 580.123 97.36 575.259 97.936C575.003 98.448 574.747 102.48 574.683 103.312C575.707 103.312 584.283 103.184 584.475 103.376C584.731 103.696 584.731 104.336 584.731 104.72C584.731 106.576 584.923 108.752 584.731 110.544C584.667 111.056 584.539 111.44 583.963 111.568C582.171 112.08 575.771 111.824 573.659 111.696C573.723 113.68 573.787 115.664 574.235 117.584ZM589.723 132.496C588.571 132.624 588.123 131.28 589.339 130.768C591.067 130.064 591.515 132.304 589.723 132.496ZM578.459 134.992C576.283 135.312 572.571 135.056 570.523 134.096C569.883 133.776 568.027 133.008 567.899 132.176C567.771 131.28 568.667 130.832 569.371 131.28C570.651 132.048 572.699 132.496 574.171 132.752C579.739 133.776 585.307 131.536 586.459 131.728C587.355 131.856 587.227 132.88 586.459 133.2C584.091 134.16 580.955 134.608 578.459 134.992ZM629.267 87.376C629.587 88.784 628.115 88.592 627.411 87.888C626.003 86.544 628.819 85.072 629.267 87.376ZM611.283 118.48C611.411 121.424 611.411 124.432 611.539 127.376C611.603 128.464 611.923 130.448 610.515 130.768C609.555 130.96 599.187 131.152 598.291 130.832C597.971 130.704 597.715 130.448 597.651 130.128C597.139 127.632 597.779 123.92 597.843 121.36C597.907 116.624 598.035 93.776 596.243 90.064C595.603 88.784 598.035 88.528 598.867 88.336C603.987 87.056 609.235 86.032 614.547 86.288C620.883 86.544 628.243 88.976 630.355 95.76C632.723 103.44 626.387 110.48 619.603 112.976C623.315 116.304 627.667 119.056 631.891 121.68C634.003 122.96 626.067 130.512 623.699 130.448C620.883 130.384 613.075 120.976 611.283 118.48ZM609.683 95.568C610.323 98.704 610.259 101.904 610.579 105.04C623.315 103.248 621.971 93.136 609.683 95.568ZM624.211 84.24C623.827 84.368 622.803 83.984 622.419 83.92C617.747 82.832 612.307 84.112 607.507 83.6C606.739 83.536 606.739 82.448 607.251 82.064C607.635 81.744 608.915 81.616 609.427 81.616C612.179 81.488 614.867 81.232 617.619 81.488C618.579 81.552 623.699 82.384 624.339 82.896C624.787 83.28 624.851 84.048 624.211 84.24Z" fill="url(#paint3_radial_2362_80)"/>
<path d="M414.746 117.456L414.601 116.467L413.794 116.585L413.748 117.399L414.746 117.456ZM414.81 127.696L415.807 127.625L415.807 127.621L414.81 127.696ZM414.426 130.896L413.816 130.103L413.765 130.143L413.719 130.189L414.426 130.896ZM413.914 131.024V130.024H413.826L413.74 130.039L413.914 131.024ZM400.154 130.768L399.944 131.746L399.953 131.748L399.962 131.749L400.154 130.768ZM398.746 129.232L397.746 129.258L397.747 129.278L397.748 129.299L398.746 129.232ZM399.898 116.88L400.896 116.94L400.897 116.93L399.898 116.88ZM400.026 86.928L401.021 86.8263L401.02 86.8176L400.026 86.928ZM400.218 85.072L400.971 85.7305L400.977 85.7228L400.218 85.072ZM401.882 84.624L402.006 85.6163L402.014 85.6153L402.022 85.6142L401.882 84.624ZM419.418 83.792L419.291 84.7839L419.292 84.7841L419.418 83.792ZM413.018 93.84L412.935 92.8435L411.904 92.9294L412.025 93.9568L413.018 93.84ZM413.786 106.896L412.788 106.955L412.853 108.071L413.956 107.881L413.786 106.896ZM417.69 93.648L417.796 92.6537L417.785 92.6524L417.773 92.6515L417.69 93.648ZM430.746 115.408L431.41 116.155L431.432 116.136L431.453 116.115L430.746 115.408ZM430.49 113.104L429.935 112.272L429.917 112.284L429.899 112.298L430.49 113.104ZM431.834 114.256L430.926 113.837L430.915 113.861L430.906 113.885L431.834 114.256ZM420.378 122.064L420.621 123.034L420.63 123.032L420.64 123.029L420.378 122.064ZM417.114 122L417.528 121.09L417.507 121.08L417.485 121.072L417.114 122ZM417.242 120.08L417.485 121.05L417.494 121.048L417.503 121.045L417.242 120.08ZM425.37 117.072L425.841 117.954L425.85 117.949L425.37 117.072ZM413.748 117.399C413.553 120.829 413.553 124.329 413.813 127.771L415.807 127.621C415.555 124.279 415.555 120.867 415.744 117.513L413.748 117.399ZM413.813 127.767C413.83 128.016 413.872 128.336 413.9 128.593C413.931 128.876 413.954 129.144 413.954 129.392C413.954 129.963 413.83 130.093 413.816 130.103L415.036 131.689C415.854 131.059 415.954 130.037 415.954 129.392C415.954 129.032 415.921 128.676 415.888 128.375C415.852 128.048 415.822 127.824 415.807 127.625L413.813 127.767ZM413.719 130.189C413.784 130.123 413.845 130.082 413.879 130.061C413.915 130.038 413.945 130.023 413.963 130.015C413.981 130.006 413.996 130 414.003 129.998C414.011 129.994 414.017 129.993 414.018 129.992C414.018 129.992 413.999 129.998 413.96 130.006C413.925 130.014 413.889 130.02 413.862 130.024C413.855 130.025 413.85 130.026 413.846 130.027C413.842 130.027 413.84 130.027 413.841 130.027C413.841 130.027 413.842 130.027 413.844 130.027C413.846 130.027 413.849 130.027 413.853 130.026C413.859 130.026 413.882 130.024 413.914 130.024V132.024C414.017 132.024 414.125 132.007 414.162 132.002C414.227 131.992 414.303 131.978 414.38 131.962C414.453 131.946 414.546 131.924 414.638 131.894C414.683 131.879 414.746 131.857 414.814 131.825C414.863 131.802 415.001 131.735 415.133 131.603L413.719 130.189ZM413.74 130.039C412.208 130.31 409.664 130.408 407.055 130.352C404.452 130.297 401.895 130.09 400.346 129.787L399.962 131.749C401.677 132.086 404.368 132.295 407.013 132.352C409.652 132.408 412.356 132.314 414.088 132.009L413.74 130.039ZM400.364 129.79C399.996 129.711 399.888 129.625 399.857 129.593C399.844 129.579 399.766 129.502 399.744 129.165L397.748 129.299C397.79 129.922 397.968 130.517 398.419 130.983C398.852 131.431 399.416 131.633 399.944 131.746L400.364 129.79ZM399.746 129.206C399.716 128.045 399.944 125.839 400.22 123.434C400.489 121.081 400.798 118.575 400.896 116.94L398.9 116.82C398.806 118.385 398.507 120.807 398.232 123.206C397.964 125.553 397.712 127.923 397.746 129.258L399.746 129.206ZM400.897 116.93C401.344 107.992 401.926 95.6855 401.021 86.8263L399.031 87.0297C399.918 95.7065 399.348 107.848 398.899 116.83L400.897 116.93ZM401.02 86.8176C401.004 86.6791 400.972 86.4511 400.958 86.3437C400.94 86.1977 400.93 86.079 400.93 85.976C400.93 85.8736 400.94 85.8103 400.951 85.7734C400.96 85.7422 400.968 85.7338 400.971 85.7305L399.465 84.4135C399.015 84.9278 398.93 85.5307 398.93 85.976C398.93 86.3758 399.012 86.8601 399.032 87.0384L401.02 86.8176ZM400.977 85.7228C400.934 85.773 400.928 85.7281 401.158 85.6918C401.262 85.6754 401.379 85.6656 401.527 85.6558C401.657 85.6471 401.841 85.6369 402.006 85.6163L401.758 83.6317C401.667 83.6431 401.563 83.6489 401.393 83.6602C401.241 83.6704 401.046 83.6846 400.846 83.7162C400.468 83.7759 399.886 83.923 399.459 84.4212L400.977 85.7228ZM402.022 85.6142C407.924 84.7802 413.428 84.0354 419.291 84.7839L419.545 82.8C413.376 82.0126 407.616 82.8038 401.742 83.6338L402.022 85.6142ZM419.292 84.7841C428.066 85.8958 432.68 92.9129 432.26 100.11C431.842 107.261 426.405 114.736 414.601 116.467L414.891 118.445C427.535 116.592 433.778 108.419 434.256 100.226C434.732 92.0791 429.458 84.0562 419.544 82.7999L419.292 84.7841ZM412.025 93.9568C412.533 98.2751 412.527 102.52 412.788 106.955L414.784 106.837C414.533 102.568 414.527 98.1089 414.011 93.7232L412.025 93.9568ZM413.956 107.881C420.018 106.837 423.095 103.447 423.523 99.9121C423.944 96.4336 421.697 93.0702 417.796 92.6537L417.584 94.6423C420.275 94.9298 421.836 97.1984 421.537 99.6719C421.245 102.089 419.074 104.971 413.616 105.911L413.956 107.881ZM417.773 92.6515C416.13 92.5145 414.415 92.7201 412.935 92.8435L413.101 94.8365C414.693 94.7039 416.178 94.5254 417.607 94.6445L417.773 92.6515ZM430.082 114.661C429.959 114.77 430.009 114.661 430.197 114.709C430.38 114.755 430.425 114.884 430.423 114.878C430.422 114.874 430.399 114.778 430.476 114.598C430.552 114.423 430.723 114.174 431.081 113.91L429.899 112.298C428.715 113.166 428.188 114.399 428.509 115.458C428.667 115.98 429.064 116.485 429.703 116.647C430.347 116.811 430.957 116.558 431.41 116.155L430.082 114.661ZM431.045 113.936C431.048 113.934 431.041 113.939 431.025 113.943C431.01 113.947 430.994 113.948 430.98 113.946C430.952 113.943 430.942 113.934 430.941 113.934C430.941 113.933 430.932 113.926 430.925 113.902C430.922 113.889 430.921 113.873 430.922 113.858C430.923 113.843 430.927 113.835 430.926 113.837L432.742 114.675C433.542 112.942 431.556 111.191 429.935 112.272L431.045 113.936ZM430.906 113.885C430.937 113.806 430.959 113.799 430.886 113.885C430.828 113.953 430.746 114.038 430.644 114.136C430.543 114.233 430.437 114.33 430.332 114.427C430.235 114.515 430.123 114.617 430.039 114.701L431.453 116.115C431.497 116.071 431.569 116.005 431.68 115.903C431.783 115.81 431.909 115.695 432.032 115.576C432.154 115.458 432.288 115.323 432.406 115.185C432.509 115.065 432.667 114.866 432.762 114.627L430.906 113.885ZM420.135 121.094C419.86 121.163 419.31 121.224 418.722 121.224C418.437 121.224 418.167 121.209 417.941 121.18C417.7 121.149 417.57 121.109 417.528 121.09L416.7 122.91C417.01 123.051 417.368 123.123 417.685 123.164C418.017 123.207 418.375 123.224 418.722 123.224C419.398 123.224 420.128 123.157 420.621 123.034L420.135 121.094ZM417.485 121.072C417.457 121.06 417.442 121.049 417.436 121.044C417.43 121.039 417.429 121.037 417.429 121.038C417.431 121.04 417.433 121.046 417.432 121.052C417.432 121.055 417.431 121.059 417.43 121.063C417.428 121.068 417.425 121.071 417.423 121.074C417.421 121.077 417.421 121.076 417.427 121.072C417.434 121.068 417.451 121.058 417.485 121.05L416.999 119.11C416.067 119.343 415.486 120.093 415.436 120.932C415.386 121.763 415.863 122.577 416.743 122.928L417.485 121.072ZM417.503 121.045C420.592 120.209 422.858 119.545 425.841 117.954L424.899 116.19C422.122 117.671 420.036 118.287 416.981 119.115L417.503 121.045ZM425.85 117.949C426.805 117.427 427.29 117.463 427.364 117.488C427.365 117.488 427.33 117.477 427.285 117.434C427.237 117.388 427.201 117.33 427.183 117.27C427.149 117.161 427.202 117.159 427.126 117.326C426.968 117.668 426.453 118.29 425.286 119.011C424.145 119.715 422.462 120.462 420.116 121.099L420.64 123.029C423.126 122.354 424.995 121.541 426.336 120.713C427.651 119.902 428.548 119.02 428.942 118.162C429.142 117.729 429.256 117.203 429.094 116.68C428.92 116.115 428.485 115.752 427.99 115.588C427.106 115.297 425.983 115.597 424.89 116.195L425.85 117.949ZM462.392 81.04L463.249 81.5545L463.257 81.5425L463.264 81.5303L462.392 81.04ZM461.048 79.44L460.434 78.6506L460.423 78.6591L461.048 79.44ZM476.088 88.144L477.058 88.3865L477.06 88.3789L477.062 88.3712L476.088 88.144ZM474.552 88.336L475.352 87.736L475.337 87.7155L475.32 87.6958L474.552 88.336ZM464.504 82.512L464.811 81.5601L464.795 81.555L464.779 81.5505L464.504 82.512ZM464.376 80.72L464.002 79.7926L463.992 79.7966L463.982 79.8009L464.376 80.72ZM462.584 129.68L462.426 128.693L462.422 128.693L462.584 129.68ZM447.8 128.08L448.351 127.246L448.349 127.244L447.8 128.08ZM437.944 107.088L436.957 107.248L436.957 107.251L437.944 107.088ZM437.176 93.776L436.194 93.5854L436.193 93.5908L437.176 93.776ZM449.4 83.28L449.509 84.274L449.515 84.2734L449.4 83.28ZM464.952 85.008L464.598 85.9433L464.601 85.9443L464.952 85.008ZM469.496 125.52L470.31 126.101L470.316 126.092L469.496 125.52ZM460.472 114.128L461.152 114.861L461.157 114.857L460.472 114.128ZM463.544 102.416L462.546 102.483L462.546 102.483L463.544 102.416ZM456.12 96.528L456.056 97.526L456.066 97.5265L456.12 96.528ZM451.192 98.704L450.276 98.3032L450.275 98.3053L451.192 98.704ZM453.624 114.128L453.043 114.942L453.05 114.947L453.057 114.952L453.624 114.128ZM461.535 80.5255C461.518 80.5534 461.516 80.5439 461.542 80.5289C461.566 80.5146 461.589 80.5109 461.598 80.5106C461.605 80.5104 461.596 80.5118 461.573 80.5029C461.55 80.4941 461.526 80.4791 461.505 80.4601C461.458 80.4179 461.476 80.4046 461.475 80.439C461.474 80.4546 461.469 80.4495 461.486 80.4191C461.505 80.3857 461.555 80.3152 461.673 80.2209L460.423 78.6591C459.854 79.1143 459.495 79.7081 459.475 80.381C459.456 81.0354 459.766 81.5821 460.159 81.9399C460.547 82.2928 461.088 82.5296 461.668 82.5094C462.291 82.4877 462.882 82.1673 463.249 81.5545L461.535 80.5255ZM461.662 80.2294C461.806 80.1171 461.812 80.1741 461.702 80.1603C461.588 80.1462 461.539 80.0798 461.544 80.0865C461.553 80.1001 461.584 80.161 461.588 80.2656C461.591 80.3646 461.568 80.4652 461.52 80.5497L463.264 81.5303C463.73 80.7015 463.682 79.6664 463.192 78.9535C462.933 78.5762 462.512 78.2458 461.948 78.1757C461.388 78.1059 460.866 78.3149 460.434 78.6506L461.662 80.2294ZM475.118 87.9015C475.118 87.8999 475.123 87.8812 475.141 87.8539C475.159 87.8263 475.183 87.7987 475.214 87.7755C475.275 87.7285 475.327 87.722 475.341 87.7213C475.352 87.7207 475.348 87.7227 475.337 87.7177C475.326 87.713 475.335 87.7135 475.352 87.736L473.752 88.936C474.158 89.4773 474.823 89.7505 475.443 89.7187C476.133 89.6833 476.841 89.2537 477.058 88.3865L475.118 87.9015ZM475.32 87.6958C472.564 84.3884 468.607 82.7829 464.811 81.5601L464.197 83.4639C467.953 84.6731 471.42 86.1396 473.784 88.9762L475.32 87.6958ZM464.779 81.5505C464.76 81.545 464.751 81.5396 464.749 81.5383C464.746 81.5368 464.748 81.5374 464.751 81.5409C464.756 81.5476 464.763 81.5597 464.764 81.5774C464.766 81.5961 464.762 81.6203 464.749 81.642C464.746 81.6468 464.743 81.6506 464.741 81.6533C464.738 81.6561 464.737 81.6573 464.737 81.6572C464.737 81.6571 464.739 81.6552 464.744 81.6521C464.749 81.649 464.758 81.6444 464.77 81.6391L463.982 79.8009C463.141 80.1612 462.702 80.9482 462.772 81.7506C462.84 82.5335 463.385 83.2322 464.229 83.4735L464.779 81.5505ZM464.75 81.6473C465.309 81.4217 466.227 81.4755 467.464 81.9281C468.66 82.3654 469.972 83.1087 471.188 83.9746C472.403 84.8397 473.478 85.7956 474.209 86.6272C474.577 87.0455 474.832 87.4043 474.979 87.6817C475.15 88.0038 475.084 88.045 475.114 87.9168L477.062 88.3712C477.204 87.763 476.97 87.1662 476.747 86.745C476.5 86.2792 476.135 85.7895 475.711 85.3068C474.858 84.3364 473.661 83.2803 472.348 82.3454C471.036 81.4113 469.564 80.5666 468.152 80.0499C466.781 79.5484 465.267 79.2823 464.002 79.7926L464.75 81.6473ZM462.422 128.693C460.337 129.036 457.663 129.252 455.065 129.082C452.445 128.911 450.026 128.353 448.351 127.246L447.249 128.914C449.35 130.303 452.179 130.897 454.935 131.078C457.713 131.26 460.543 131.028 462.746 130.667L462.422 128.693ZM448.349 127.244C445.429 125.327 443.352 122.043 441.858 118.272C440.369 114.514 439.503 110.388 438.931 106.925L436.957 107.251C437.537 110.764 438.431 115.054 439.998 119.008C441.56 122.949 443.835 126.673 447.251 128.916L448.349 127.244ZM438.931 106.928C438.216 102.507 437.367 98.1653 438.159 93.9611L436.193 93.5908C435.321 98.2187 436.264 102.965 436.957 107.248L438.931 106.928ZM438.158 93.9666C438.759 90.8706 440.108 88.6407 442.001 87.0945C443.907 85.5376 446.442 84.6114 449.509 84.274L449.291 82.286C445.958 82.6526 443.021 83.6784 440.735 85.5455C438.436 87.4233 436.873 90.0894 436.194 93.5854L438.158 93.9666ZM449.515 84.2734C454.375 83.7126 460.035 84.2166 464.598 85.9433L465.306 84.0727C460.397 82.2154 454.409 81.6954 449.285 82.2866L449.515 84.2734ZM464.601 85.9443C470.944 88.323 474.003 92.4395 475.104 97.3316C476.224 102.304 475.337 108.168 473.533 113.959L475.443 114.553C477.287 108.632 478.288 102.368 477.056 96.8924C475.805 91.3365 472.272 86.685 465.303 84.0717L464.601 85.9443ZM473.533 113.959C472.32 117.853 470.949 121.692 468.676 124.948L470.316 126.092C472.779 122.564 474.224 118.467 475.443 114.553L473.533 113.959ZM468.682 124.939C467.777 126.207 466.946 127.005 466.013 127.554C465.074 128.106 463.962 128.447 462.426 128.693L462.742 130.667C464.406 130.401 465.79 130.006 467.027 129.278C468.27 128.547 469.295 127.521 470.31 126.101L468.682 124.939ZM457.144 116.088C458.378 116.088 459.952 115.976 461.152 114.861L459.792 113.395C459.2 113.944 458.342 114.088 457.144 114.088V116.088ZM461.157 114.857C461.838 114.217 462.372 113.263 462.793 112.25C463.223 111.217 463.575 110.027 463.847 108.83C464.388 106.454 464.646 103.919 464.542 102.349L462.546 102.483C462.634 103.793 462.412 106.122 461.897 108.386C461.641 109.509 461.321 110.583 460.947 111.482C460.564 112.401 460.162 113.047 459.787 113.399L461.157 114.857ZM464.542 102.349C464.391 100.085 463.224 98.4002 461.629 97.2845C460.059 96.186 458.075 95.6331 456.174 95.5295L456.066 97.5265C457.685 97.6149 459.285 98.086 460.483 98.9235C461.656 99.7438 462.441 100.907 462.546 102.483L464.542 102.349ZM456.184 95.5301C455.148 95.4632 453.98 95.4857 452.919 95.8557C451.813 96.2412 450.847 96.9974 450.276 98.3032L452.108 99.1048C452.433 98.3626 452.939 97.9668 453.577 97.7443C454.26 97.5063 455.108 97.4648 456.056 97.5259L456.184 95.5301ZM450.275 98.3053C449.875 99.2257 449.697 100.599 449.654 102.057C449.611 103.551 449.706 105.261 449.929 106.932C450.151 108.6 450.503 110.262 450.985 111.65C451.449 112.984 452.1 114.268 453.043 114.942L454.205 113.314C453.804 113.028 453.319 112.272 452.875 110.994C452.449 109.77 452.121 108.248 451.911 106.668C451.702 105.091 451.613 103.489 451.654 102.115C451.695 100.705 451.869 99.6543 452.109 99.1027L450.275 98.3053ZM453.057 114.952C454.304 115.809 455.806 116.088 457.144 116.088V114.088C456.05 114.088 454.992 113.855 454.191 113.304L453.057 114.952ZM504.673 129.424L504.949 130.385L504.955 130.383L504.673 129.424ZM482.721 118.224L483.72 118.17L483.719 118.152L483.717 118.133L482.721 118.224ZM483.233 116.304L482.571 115.554L482.569 115.557L483.233 116.304ZM494.241 115.024L493.347 115.471L493.35 115.478L493.354 115.485L494.241 115.024ZM499.809 114.64L498.894 115.043L498.899 115.054L499.809 114.64ZM480.225 96.592L479.232 96.4707L479.232 96.4719L480.225 96.592ZM490.849 84.24L490.476 83.3121L490.468 83.3156L490.849 84.24ZM510.945 85.264L511.474 84.4152L511.473 84.4149L510.945 85.264ZM517.473 96.016L518.472 95.9661L518.471 95.9559L518.471 95.9458L517.473 96.016ZM516.129 99.984L516.445 100.933L516.445 100.933L516.129 99.984ZM505.377 101.008L505.501 100.016L505.481 100.013L505.46 100.011L505.377 101.008ZM503.841 99.984L504.831 99.8426L504.83 99.8329L504.828 99.8233L503.841 99.984ZM500.129 92.56L500.456 91.6149L500.445 91.6113L500.129 92.56ZM492.833 98.064L493.771 97.7183L493.767 97.7061L492.833 98.064ZM514.273 113.68L515.231 113.393L515.231 113.392L514.273 113.68ZM502.241 126.416L503.013 127.052L503.017 127.046L503.022 127.041L502.241 126.416ZM503.905 128.4L504.206 129.354L504.217 129.35L503.905 128.4ZM512.673 118.288L511.677 118.197L511.676 118.208L512.673 118.288ZM509.345 120.912L510.269 121.294L510.271 121.291L509.345 120.912ZM498.337 128.848L497.654 129.578L497.661 129.585L498.337 128.848ZM500.513 128.144L501.494 128.34L501.495 128.331L500.513 128.144ZM504.397 128.463C499.871 129.765 494.778 129.879 490.798 128.317C488.821 127.541 487.136 126.36 485.907 124.72C484.681 123.085 483.87 120.94 483.72 118.17L481.722 118.278C481.892 121.396 482.817 123.931 484.307 125.92C485.794 127.904 487.805 129.291 490.068 130.179C494.568 131.945 500.131 131.771 504.949 130.385L504.397 128.463ZM483.717 118.133C483.652 117.424 483.726 117.204 483.897 117.051L482.569 115.557C481.588 116.428 481.662 117.616 481.725 118.315L483.717 118.133ZM483.895 117.054C483.878 117.068 483.983 116.991 484.34 116.859C484.655 116.742 485.073 116.615 485.57 116.488C486.563 116.233 487.808 115.99 489.046 115.814C490.288 115.638 491.485 115.535 492.389 115.549C492.846 115.556 493.181 115.592 493.393 115.644C493.499 115.67 493.537 115.69 493.532 115.688C493.53 115.687 493.425 115.628 493.347 115.471L495.135 114.577C494.977 114.26 494.724 114.064 494.515 113.946C494.304 113.827 494.076 113.751 493.864 113.7C493.443 113.598 492.939 113.557 492.419 113.549C491.369 113.533 490.058 113.65 488.764 113.834C487.466 114.018 486.147 114.275 485.074 114.55C484.538 114.688 484.048 114.834 483.645 114.983C483.283 115.117 482.86 115.3 482.571 115.554L483.895 117.054ZM493.354 115.485C493.46 115.689 493.524 116.017 493.569 116.562C493.608 117.031 493.633 117.714 493.747 118.307C493.865 118.926 494.107 119.645 494.707 120.197C495.321 120.762 496.16 121.016 497.185 121.016V119.016C496.482 119.016 496.193 118.846 496.061 118.725C495.915 118.591 495.793 118.362 495.711 117.933C495.625 117.478 495.614 117.013 495.563 116.396C495.518 115.855 495.438 115.159 495.128 114.563L493.354 115.485ZM497.185 121.016C499.048 121.016 500.265 119.873 500.817 118.491C501.351 117.158 501.312 115.53 500.719 114.226L498.899 115.054C499.266 115.862 499.291 116.922 498.961 117.749C498.649 118.527 498.074 119.016 497.185 119.016V121.016ZM500.724 114.238C499.756 112.035 497.734 110.706 495.552 109.713C494.45 109.211 493.259 108.774 492.074 108.353C490.876 107.927 489.69 107.52 488.538 107.063C486.223 106.144 484.222 105.087 482.884 103.523C481.589 102.009 480.83 99.9159 481.218 96.7121L479.232 96.4719C478.788 100.148 479.653 102.823 481.364 104.823C483.032 106.773 485.419 107.976 487.8 108.921C488.996 109.396 490.235 109.822 491.405 110.237C492.587 110.658 493.707 111.07 494.724 111.533C496.78 112.47 498.23 113.533 498.894 115.042L500.724 114.238ZM481.218 96.7133C481.862 91.4405 486.304 87.1965 491.23 85.1644L490.468 83.3156C485.154 85.5074 479.996 90.2235 479.232 96.4707L481.218 96.7133ZM491.222 85.1678C497.212 82.7596 504.991 82.7373 510.417 86.1131L511.473 84.4149C505.379 80.6227 496.902 80.7284 490.476 83.3122L491.222 85.1678ZM510.416 86.1128C514.054 88.3787 516.178 91.8682 516.475 96.0862L518.471 95.9458C518.128 91.0758 515.644 87.0133 511.474 84.4152L510.416 86.1128ZM516.474 96.0659C516.508 96.7344 516.544 97.4692 516.42 98.0938C516.298 98.7109 516.081 98.9458 515.813 99.0353L516.445 100.933C517.713 100.51 518.2 99.4011 518.382 98.4821C518.562 97.5708 518.502 96.5776 518.472 95.9661L516.474 96.0659ZM515.813 99.0353C515.813 99.0352 515.772 99.0475 515.664 99.0694C515.565 99.0893 515.435 99.1122 515.276 99.1376C514.958 99.1882 514.546 99.2448 514.065 99.3046C513.104 99.4241 511.896 99.5531 510.682 99.6685C509.469 99.7839 508.257 99.885 507.288 99.9492C506.803 99.9813 506.385 100.004 506.061 100.014C505.899 100.02 505.766 100.022 505.663 100.021C505.612 100.021 505.572 100.02 505.542 100.018C505.51 100.017 505.498 100.015 505.501 100.016L505.253 102C505.472 102.028 505.799 102.024 506.126 102.013C506.482 102.002 506.924 101.978 507.42 101.945C508.413 101.879 509.645 101.776 510.872 101.66C512.098 101.543 513.326 101.412 514.311 101.289C514.803 101.228 515.241 101.168 515.591 101.113C515.911 101.062 516.234 101.003 516.445 100.933L515.813 99.0353ZM505.46 100.011C505.262 99.9949 505.12 99.9819 504.999 99.9612C504.88 99.9409 504.83 99.9206 504.816 99.9136C504.814 99.9124 504.837 99.926 504.855 99.9526C504.869 99.9728 504.847 99.9534 504.831 99.8426L502.851 100.125C502.899 100.463 503.005 100.787 503.199 101.073C503.397 101.366 503.652 101.568 503.922 101.702C504.4 101.941 504.963 101.977 505.294 102.005L505.46 100.011ZM504.828 99.8233C504.628 98.5919 504.503 96.8238 504.014 95.3558C503.489 93.7825 502.493 92.32 500.456 91.615L499.802 93.505C501.093 93.952 501.729 94.8255 502.116 95.9882C502.539 97.2562 502.606 98.6241 502.854 100.145L504.828 99.8233ZM500.445 91.6113C498.551 90.98 496.047 91.5048 494.244 92.6421C493.322 93.2233 492.498 94.015 492.02 95.0049C491.528 96.0221 491.43 97.1969 491.899 98.4219L493.767 97.7061C493.5 97.0111 493.562 96.4099 493.82 95.8751C494.092 95.313 494.608 94.7767 495.31 94.3339C496.755 93.4232 498.635 93.116 499.813 93.5087L500.445 91.6113ZM491.895 98.4097C492.171 99.1586 492.791 99.7286 493.445 100.179C494.119 100.642 494.97 101.071 495.9 101.488C496.834 101.908 497.897 102.336 499.005 102.784C500.12 103.236 501.291 103.713 502.473 104.241C507.271 106.384 511.888 109.221 513.315 113.968L515.231 113.392C513.522 107.707 508.091 104.56 503.289 102.415C502.071 101.871 500.87 101.382 499.756 100.931C498.635 100.476 497.612 100.064 496.718 99.6636C495.82 99.2607 495.101 98.89 494.578 98.5305C494.035 98.1574 493.831 97.8814 493.771 97.7183L491.895 98.4097ZM513.315 113.967C515.164 120.148 510.534 126.658 504.391 128.465L504.955 130.383C511.868 128.35 517.478 120.908 515.231 113.393L513.315 113.967ZM501.469 125.78C501.097 126.232 500.916 126.765 500.955 127.31C500.992 127.84 501.231 128.296 501.546 128.638C502.157 129.301 503.191 129.674 504.206 129.354L503.604 127.446C503.403 127.51 503.157 127.435 503.016 127.282C502.955 127.216 502.95 127.172 502.949 127.168C502.949 127.166 502.949 127.161 502.953 127.149C502.957 127.136 502.971 127.102 503.013 127.052L501.469 125.78ZM504.217 129.35C508.967 127.79 513.245 123.676 513.67 118.368L511.676 118.208C511.333 122.5 507.803 126.066 503.593 127.45L504.217 129.35ZM513.669 118.379C513.759 117.387 513.641 116.548 513.276 115.91C512.889 115.232 512.263 114.858 511.583 114.81C510.946 114.765 510.341 115.01 509.903 115.391C509.458 115.776 509.113 116.366 509.113 117.072H511.113C511.113 117.042 511.128 116.976 511.213 116.901C511.305 116.822 511.4 116.803 511.443 116.806C511.458 116.807 511.463 116.81 511.468 116.812C511.471 116.815 511.501 116.834 511.54 116.902C511.625 117.052 511.747 117.429 511.677 118.197L513.669 118.379ZM509.113 117.072C509.113 118.47 508.949 119.238 508.419 120.533L510.271 121.291C510.893 119.77 511.113 118.746 511.113 117.072H509.113ZM508.421 120.53C507.786 122.065 506.386 123.141 504.929 123.939C504.21 124.332 503.52 124.636 502.941 124.896C502.661 125.022 502.387 125.146 502.165 125.263C501.99 125.355 501.672 125.527 501.46 125.791L503.022 127.041C502.938 127.145 502.89 127.141 503.096 127.033C503.254 126.95 503.471 126.85 503.761 126.72C504.322 126.468 505.088 126.132 505.889 125.693C507.472 124.827 509.368 123.471 510.269 121.294L508.421 120.53ZM497.661 129.585C499.027 130.837 501.155 130.033 501.494 128.34L499.532 127.948C499.514 128.042 499.442 128.132 499.319 128.173C499.207 128.211 499.102 128.193 499.013 128.111L497.661 129.585ZM501.495 128.331C501.583 127.871 501.577 127.414 501.428 126.993C501.274 126.558 500.989 126.225 500.632 126.006C499.96 125.595 499.154 125.648 498.562 125.842C497.97 126.035 497.29 126.468 496.989 127.193C496.828 127.578 496.792 128.015 496.923 128.457C497.049 128.886 497.313 129.259 497.654 129.578L499.02 128.118C498.865 127.973 498.841 127.892 498.841 127.892C498.841 127.892 498.842 127.895 498.843 127.901C498.843 127.907 498.844 127.915 498.843 127.923C498.842 127.942 498.838 127.955 498.835 127.961C498.832 127.969 498.844 127.937 498.911 127.884C498.976 127.832 499.071 127.779 499.184 127.742C499.297 127.705 499.404 127.692 499.486 127.695C499.57 127.699 499.597 127.718 499.588 127.712C499.582 127.708 499.57 127.699 499.558 127.685C499.546 127.67 499.542 127.66 499.542 127.66C499.543 127.662 499.571 127.745 499.531 127.957L501.495 128.331ZM533.402 130.704L533.534 129.713L533.229 129.672L532.954 129.81L533.402 130.704ZM531.738 125.904L530.739 125.962L530.74 125.975L531.738 125.904ZM531.546 96.08L532.536 96.219L532.713 94.9529L531.442 95.0854L531.546 96.08ZM521.818 97.296L521.839 96.2962L521.828 96.296H521.818V97.296ZM520.346 95.952L519.392 96.2531L519.398 96.2736L519.406 96.2937L520.346 95.952ZM520.538 82.832L519.601 82.4809L519.595 82.4982L519.589 82.5158L520.538 82.832ZM521.434 81.552L521.93 82.4202L521.95 82.4084L521.97 82.3957L521.434 81.552ZM524.826 81.488L524.673 82.4764L524.687 82.4785L524.701 82.4803L524.826 81.488ZM555.738 82.768L555.837 81.7729L555.83 81.7723L555.738 82.768ZM557.85 84.112H558.85V83.8252L558.698 83.582L557.85 84.112ZM556.25 95.632L555.571 94.8972L555.569 94.8992L556.25 95.632ZM546.714 96.528L546.589 95.5357L545.708 95.6459L545.714 96.5341L546.714 96.528ZM547.93 128.08H548.93V128.059L548.929 128.038L547.93 128.08ZM547.61 129.68L546.985 128.899L547.61 129.68ZM537.69 87.184L537.391 88.1385L537.403 88.1421L537.415 88.1455L537.69 87.184ZM550.81 86.416L551.257 87.3104L551.296 87.2907L551.334 87.2677L550.81 86.416ZM550.554 84.048L550.182 84.9765L550.2 84.9834L550.217 84.9897L550.554 84.048ZM537.37 84.944L536.84 84.096L536.82 84.1084L536.8 84.1218L537.37 84.944ZM553.626 86.544L554.259 85.77L554.252 85.7645L554.245 85.7591L553.626 86.544ZM555.61 85.84L554.657 85.5359L554.654 85.5459L555.61 85.84ZM532.954 129.81C532.921 129.826 533.016 129.774 533.166 129.823C533.294 129.865 533.32 129.935 533.279 129.873C533.177 129.722 533.053 129.364 532.956 128.787C532.765 127.652 532.776 126.4 532.735 125.833L530.74 125.975C530.763 126.304 530.774 127.868 530.983 129.117C531.086 129.732 531.262 130.458 531.618 130.989C531.806 131.268 532.101 131.579 532.544 131.724C533.009 131.876 533.466 131.79 533.849 131.598L532.954 129.81ZM532.736 125.846C532.285 118.123 531.529 103.393 532.536 96.219L530.555 95.941C529.514 103.359 530.294 118.325 530.739 125.962L532.736 125.846ZM531.442 95.0854C529.868 95.2493 528.13 95.5794 526.497 95.845C524.829 96.1163 523.244 96.3261 521.839 96.2962L521.796 98.2958C523.399 98.3299 525.142 98.0917 526.818 97.819C528.529 97.5406 530.151 97.2306 531.649 97.0746L531.442 95.0854ZM521.818 96.296C521.742 96.296 521.704 96.2824 521.685 96.2738C521.664 96.2646 521.635 96.2467 521.596 96.2048C521.503 96.1058 521.399 95.9226 521.285 95.6103L519.406 96.2937C519.548 96.6854 519.764 97.1742 520.135 97.5712C520.541 98.0047 521.103 98.296 521.818 98.296V96.296ZM521.299 95.6509C521.302 95.6595 521.289 95.6155 521.271 95.4838C521.255 95.3644 521.24 95.2071 521.225 95.0121C521.196 94.6225 521.174 94.1165 521.159 93.5259C521.13 92.3468 521.13 90.8673 521.153 89.3841C521.177 87.901 521.225 86.4247 521.29 85.2524C521.323 84.6654 521.359 84.1629 521.398 83.7775C521.418 83.5845 521.437 83.4291 521.456 83.3113C521.476 83.1808 521.489 83.1385 521.486 83.1482L519.589 82.5158C519.5 82.7824 519.448 83.188 519.408 83.5757C519.365 84.0036 519.326 84.5396 519.293 85.1416C519.226 86.3473 519.178 87.851 519.154 89.3519C519.129 90.8527 519.129 92.3612 519.16 93.5761C519.175 94.1825 519.198 94.725 519.231 95.1607C519.26 95.5563 519.303 95.9727 519.392 96.2531L521.299 95.6509ZM521.474 83.1831C521.663 82.6795 521.818 82.4841 521.93 82.4202L520.937 80.6838C520.153 81.1319 519.796 81.9605 519.601 82.4809L521.474 83.1831ZM521.97 82.3957C521.964 82.3996 522.042 82.3565 522.272 82.3267C522.483 82.2994 522.747 82.2924 523.045 82.3033C523.639 82.3251 524.263 82.4133 524.673 82.4764L524.978 80.4996C524.556 80.4347 523.836 80.3309 523.118 80.3047C522.76 80.2916 522.376 80.2966 522.015 80.3433C521.673 80.3875 521.255 80.4804 520.897 80.7083L521.97 82.3957ZM524.701 82.4803C529.886 83.1284 535.092 83.208 540.25 83.248C545.425 83.2881 550.545 83.2885 555.645 83.7637L555.83 81.7723C550.626 81.2875 545.41 81.2879 540.265 81.248C535.103 81.208 530.005 81.1276 524.95 80.4957L524.701 82.4803ZM555.638 83.763C556.277 83.8269 556.417 83.8951 556.479 83.936C556.557 83.9883 556.659 84.0944 557.002 84.642L558.698 83.582C558.4 83.1055 558.086 82.6037 557.588 82.2719C557.074 81.9289 556.478 81.8371 555.837 81.773L555.638 83.763ZM556.85 84.112C556.85 85.3377 556.865 87.7914 556.677 90.1277C556.583 91.2977 556.44 92.4045 556.228 93.2954C556.123 93.7405 556.006 94.1085 555.881 94.3933C555.751 94.6872 555.638 94.8353 555.571 94.8972L556.928 96.3668C557.277 96.0447 557.526 95.6208 557.711 95.1982C557.901 94.7665 558.052 94.2735 558.175 93.7566C558.419 92.7235 558.572 91.5023 558.67 90.2883C558.866 87.8566 558.85 85.3183 558.85 84.112H556.85ZM555.569 94.8992C555.317 95.1335 554.952 95.2882 554.449 95.3743C553.939 95.4616 553.384 95.464 552.794 95.464V97.464C553.355 97.464 554.08 97.4664 554.786 97.3457C555.499 97.2238 556.286 96.9625 556.93 96.3648L555.569 94.8992ZM552.794 95.464C550.874 95.464 548.717 95.2698 546.589 95.5357L546.838 97.5203C548.806 97.2742 550.617 97.464 552.794 97.464V95.464ZM545.714 96.5341C545.778 107.118 546.484 117.596 546.93 128.122L548.929 128.038C548.479 117.444 547.777 107.058 547.713 96.5219L545.714 96.5341ZM546.93 128.08C546.93 128.277 546.928 128.554 546.897 128.804C546.882 128.929 546.862 129.011 546.848 129.053C546.826 129.118 546.845 129.011 546.985 128.899L548.234 130.461C548.534 130.221 548.673 129.898 548.741 129.699C548.817 129.477 548.857 129.247 548.882 129.052C548.931 128.662 548.93 128.267 548.93 128.08H546.93ZM546.985 128.899C547.07 128.831 547.106 128.84 546.984 128.873C546.89 128.899 546.759 128.924 546.6 128.944C546.283 128.986 545.943 129 545.754 129V131C546.012 131 546.44 130.982 546.859 130.928C547.068 130.9 547.297 130.861 547.511 130.803C547.697 130.752 547.989 130.657 548.234 130.461L546.985 128.899ZM545.754 129C544.523 129 541.623 129.213 538.978 129.403C537.64 129.499 536.355 129.59 535.345 129.65C534.839 129.68 534.409 129.701 534.08 129.711C533.915 129.716 533.782 129.718 533.68 129.717C533.568 129.716 533.528 129.712 533.534 129.713L533.269 131.695C533.485 131.724 533.817 131.72 534.141 131.71C534.499 131.699 534.95 131.676 535.462 131.646C536.488 131.586 537.787 131.493 539.121 131.397C541.82 131.203 544.616 131 545.754 131V129ZM537.415 88.1455C537.546 88.1831 537.673 88.1896 537.703 88.1915C537.764 88.1953 537.83 88.197 537.896 88.1978C538.029 88.1994 538.199 88.1973 538.395 88.1927C538.789 88.1835 539.32 88.1631 539.938 88.135C541.176 88.0787 542.783 87.9903 544.382 87.8942C545.98 87.798 547.575 87.6937 548.787 87.6054C549.393 87.5612 549.907 87.5207 550.281 87.4869C550.466 87.4701 550.624 87.4544 550.744 87.44C550.803 87.4329 550.863 87.425 550.916 87.416C550.942 87.4117 550.978 87.4052 551.017 87.3961C551.03 87.3929 551.139 87.3695 551.257 87.3104L550.362 85.5216C550.43 85.4879 550.485 85.4703 550.505 85.464C550.531 85.456 550.551 85.4511 550.561 85.4488C550.58 85.4443 550.59 85.4428 550.585 85.4436C550.577 85.445 550.552 85.4487 550.506 85.4543C550.415 85.4651 550.28 85.4789 550.101 85.4951C549.744 85.5273 549.243 85.5668 548.642 85.6106C547.44 85.6982 545.855 85.802 544.261 85.8978C542.668 85.9936 541.071 86.0813 539.847 86.137C539.234 86.1649 538.72 86.1845 538.348 86.1933C538.161 86.1977 538.018 86.1991 537.92 86.1979C537.87 86.1974 537.841 86.1962 537.828 86.1954C537.785 86.1927 537.861 86.1929 537.964 86.2225L537.415 88.1455ZM551.334 87.2677C552.187 86.7424 552.407 85.777 552.323 85.046C552.24 84.3195 551.813 83.4358 550.89 83.1063L550.217 84.9897C550.206 84.9856 550.223 84.9861 550.256 85.0347C550.29 85.0867 550.324 85.1707 550.336 85.274C550.348 85.3774 550.334 85.4629 550.313 85.516C550.304 85.5407 550.295 85.5539 550.29 85.5592C550.287 85.5637 550.286 85.5642 550.285 85.5643L551.334 87.2677ZM550.925 83.1195C550.806 83.0719 550.701 83.0571 550.676 83.0534C550.632 83.0469 550.592 83.0433 550.562 83.0411C550.502 83.0367 550.437 83.0346 550.375 83.0336C550.248 83.0315 550.085 83.0329 549.895 83.0368C549.515 83.0447 548.995 83.0633 548.387 83.09C547.168 83.1433 545.572 83.2297 543.971 83.33C542.371 83.4302 540.76 83.5448 539.513 83.6549C538.891 83.7098 538.35 83.7644 537.943 83.8165C537.741 83.8423 537.559 83.8693 537.411 83.8976C537.337 83.9116 537.258 83.9286 537.183 83.9497C537.134 83.9632 536.986 84.0042 536.84 84.096L537.9 85.792C537.83 85.8357 537.773 85.8575 537.756 85.8639C537.744 85.8685 537.735 85.8716 537.73 85.8733C537.724 85.875 537.721 85.8759 537.72 85.8761C537.719 85.8764 537.724 85.875 537.737 85.8722C537.749 85.8695 537.765 85.8661 537.786 85.862C537.876 85.8449 538.011 85.824 538.197 85.8003C538.565 85.7531 539.075 85.7012 539.688 85.6471C540.911 85.5392 542.504 85.4258 544.096 85.326C545.687 85.2263 547.271 85.1407 548.474 85.088C549.077 85.0617 549.579 85.0438 549.937 85.0364C550.117 85.0327 550.252 85.0318 550.342 85.0333C550.388 85.0341 550.41 85.0353 550.416 85.0357C550.419 85.0359 550.406 85.0351 550.383 85.0318C550.38 85.0313 550.291 85.0201 550.182 84.9765L550.925 83.1195ZM536.8 84.1218C535.351 85.1249 535.495 87.5458 537.391 88.1385L537.988 86.2295C537.923 86.2093 537.892 86.1811 537.873 86.158C537.852 86.1307 537.833 86.0898 537.826 86.036C537.811 85.9213 537.858 85.8222 537.939 85.7662L536.8 84.1218ZM552.992 87.318C553.657 87.8618 554.476 87.9092 555.143 87.6539C555.793 87.4051 556.343 86.8576 556.565 86.1341L554.654 85.5459C554.62 85.6544 554.53 85.7469 554.428 85.7861C554.381 85.8039 554.347 85.8051 554.326 85.8024C554.31 85.8003 554.289 85.7946 554.259 85.77L552.992 87.318ZM556.562 86.144C556.716 85.6628 556.776 85.177 556.678 84.7184C556.574 84.235 556.306 83.8431 555.925 83.584C555.225 83.1082 554.348 83.1922 553.744 83.397C553.132 83.6046 552.402 84.0694 552.108 84.8491C551.95 85.2693 551.941 85.7386 552.119 86.1994C552.29 86.6412 552.608 87.0148 553.006 87.3289L554.245 85.7591C554.035 85.5932 553.989 85.4908 553.985 85.4788C553.983 85.4749 553.988 85.4859 553.988 85.5076C553.988 85.5288 553.983 85.5452 553.981 85.5529C553.977 85.5632 553.989 85.5247 554.069 85.4602C554.146 85.3976 554.256 85.3352 554.387 85.291C554.518 85.2466 554.638 85.2308 554.726 85.234C554.819 85.2373 554.83 85.2585 554.8 85.238C554.783 85.2261 554.761 85.2064 554.744 85.1798C554.726 85.1533 554.722 85.1351 554.722 85.1374C554.725 85.1489 554.743 85.2652 554.657 85.536L556.562 86.144ZM574.235 117.584L573.261 117.811L573.404 118.423L574.016 118.56L574.235 117.584ZM589.403 115.664L589.754 116.6L589.764 116.597L589.774 116.592L589.403 115.664ZM590.555 115.664L591.449 115.217L591.437 115.192L591.423 115.168L590.555 115.664ZM590.811 117.264L591.801 117.12L591.797 117.094L591.792 117.068L590.811 117.264ZM591.515 126.992L592.51 127.092L592.512 127.073L592.513 127.054L591.515 126.992ZM589.275 128.4L589.623 129.337L589.626 129.336L589.275 128.4ZM565.019 127.184L565.661 126.417L565.66 126.417L565.019 127.184ZM563.867 86.928L563.224 86.1618L562.888 86.4437L562.868 86.8819L563.867 86.928ZM591.003 83.92L591.784 83.2953L591.779 83.2898L591.775 83.2843L591.003 83.92ZM590.235 97.68L590.313 98.677L590.321 98.6763L590.33 98.6755L590.235 97.68ZM575.259 97.936L575.141 96.9429L574.606 97.0064L574.365 97.4888L575.259 97.936ZM574.683 103.312L573.686 103.235L573.603 104.312H574.683V103.312ZM584.475 103.376L585.256 102.751L585.221 102.708L585.182 102.669L584.475 103.376ZM584.731 110.544L585.723 110.668L585.724 110.659L585.725 110.651L584.731 110.544ZM583.963 111.568L583.746 110.592L583.717 110.598L583.688 110.606L583.963 111.568ZM573.659 111.696L573.719 110.698L572.624 110.631L572.66 111.728L573.659 111.696ZM589.723 132.496L589.616 131.502L589.613 131.502L589.723 132.496ZM589.339 130.768L588.962 129.842L588.951 129.846L589.339 130.768ZM578.459 134.992L578.604 135.981L578.611 135.98L578.459 134.992ZM570.523 134.096L570.076 134.99L570.087 134.996L570.099 135.001L570.523 134.096ZM567.899 132.176L566.909 132.317L566.911 132.328L567.899 132.176ZM569.371 131.28L568.834 132.124L568.845 132.131L568.857 132.137L569.371 131.28ZM574.171 132.752L574.352 131.768L574.342 131.767L574.171 132.752ZM586.459 131.728L586.295 132.714L586.306 132.716L586.318 132.718L586.459 131.728ZM586.459 133.2L586.835 134.127L586.844 134.123L586.459 133.2ZM574.016 118.56C576.062 119.018 579.114 118.848 582.01 118.43C584.934 118.007 587.874 117.306 589.754 116.6L589.052 114.728C587.348 115.366 584.56 116.041 581.724 116.45C578.86 116.864 576.12 116.982 574.454 116.608L574.016 118.56ZM589.774 116.592C589.829 116.571 589.887 116.546 589.928 116.528C589.975 116.508 590.014 116.491 590.052 116.476C590.132 116.444 590.172 116.434 590.185 116.431C590.202 116.428 590.124 116.447 590.002 116.408C589.936 116.386 589.868 116.351 589.807 116.3C589.746 116.25 589.708 116.198 589.687 116.16L591.423 115.168C591.242 114.851 590.965 114.618 590.622 114.506C590.31 114.405 590.02 114.428 589.821 114.465C589.475 114.529 589.073 114.719 589.032 114.736L589.774 116.592ZM589.661 116.111C589.632 116.054 589.626 116.022 589.634 116.05C589.639 116.069 589.647 116.103 589.656 116.157C589.676 116.264 589.695 116.402 589.714 116.561C589.734 116.725 589.75 116.871 589.769 117.031C589.785 117.169 589.805 117.334 589.83 117.46L591.792 117.068C591.769 116.957 591.747 116.71 591.7 116.319C591.679 116.15 591.654 115.964 591.624 115.797C591.6 115.668 591.553 115.424 591.449 115.217L589.661 116.111ZM589.821 117.408C590.27 120.485 590.702 123.974 590.517 126.93L592.513 127.054C592.712 123.866 592.248 120.187 591.801 117.12L589.821 117.408ZM590.52 126.892C590.544 126.655 590.681 126.592 590.562 126.693C590.475 126.767 590.324 126.864 590.11 126.973C589.684 127.189 589.205 127.358 588.924 127.464L589.626 129.336C589.857 129.25 590.466 129.035 591.016 128.755C591.29 128.616 591.599 128.437 591.858 128.217C592.085 128.024 592.454 127.649 592.51 127.092L590.52 126.892ZM588.927 127.463C585.675 128.67 581.201 129.576 576.835 129.576C572.442 129.576 568.341 128.66 565.661 126.417L564.377 127.951C567.585 130.636 572.252 131.576 576.835 131.576C581.445 131.576 586.155 130.626 589.623 129.337L588.927 127.463ZM565.66 126.417C564.099 125.111 563.12 122.656 562.643 119.304C562.172 115.993 562.218 112.017 562.512 107.92C562.806 103.829 563.342 99.6664 563.832 95.987C564.319 92.336 564.767 89.1095 564.866 86.9741L562.868 86.8819C562.775 88.9065 562.343 92.016 561.85 95.723C561.36 99.4016 560.816 103.619 560.518 107.776C560.22 111.927 560.162 116.067 560.663 119.586C561.158 123.064 562.227 126.153 564.378 127.951L565.66 126.417ZM564.51 87.6942C564.499 87.7031 564.578 87.6439 564.844 87.5429C565.085 87.4514 565.41 87.3508 565.819 87.2438C566.635 87.0304 567.718 86.8086 568.989 86.5883C571.527 86.1483 574.75 85.725 577.948 85.3864C581.147 85.0479 584.302 84.796 586.706 84.6961C587.91 84.6461 588.906 84.6352 589.616 84.6676C589.974 84.684 590.23 84.7102 590.393 84.7399C590.475 84.755 590.504 84.7658 590.499 84.7638C590.495 84.7623 590.467 84.7516 590.426 84.7267C590.387 84.7032 590.309 84.6506 590.231 84.5557L591.775 83.2843C591.579 83.0459 591.328 82.939 591.205 82.8926C591.055 82.836 590.897 82.799 590.752 82.7725C590.46 82.7191 590.101 82.6877 589.707 82.6697C588.911 82.6333 587.849 82.6469 586.622 82.6979C584.164 82.8 580.963 83.0561 577.738 83.3976C574.512 83.739 571.243 84.1677 568.647 84.6177C567.351 84.8423 566.207 85.0751 565.313 85.3089C564.867 85.4256 564.467 85.5468 564.134 85.6732C563.826 85.7901 563.483 85.9449 563.224 86.1618L564.51 87.6942ZM590.222 84.5447C590.112 84.4074 590.1 84.2991 590.123 84.3852C590.135 84.4319 590.152 84.5175 590.17 84.6518C590.207 84.9176 590.237 85.2906 590.26 85.7536C590.307 86.6748 590.323 87.8725 590.323 89.112C590.323 90.3483 590.307 91.6123 590.291 92.6618C590.275 93.7017 590.259 94.5499 590.259 94.928H592.259C592.259 94.5701 592.275 93.7543 592.291 92.6922C592.307 91.6397 592.323 90.3637 592.323 89.112C592.323 87.8635 592.307 86.6252 592.258 85.6524C592.233 85.1684 592.199 84.7299 592.152 84.381C592.128 84.2079 592.098 84.0353 592.058 83.8806C592.028 83.7654 591.958 83.5126 591.784 83.2953L590.222 84.5447ZM590.259 94.928C590.259 95.1802 590.281 95.5481 590.288 95.7757C590.297 96.0531 590.292 96.2786 590.263 96.4586C590.234 96.6429 590.193 96.6922 590.197 96.6872C590.226 96.6525 590.247 96.6743 590.14 96.6845L590.33 98.6755C590.895 98.6217 591.38 98.3875 591.727 97.9748C592.049 97.5918 592.18 97.141 592.239 96.7734C592.298 96.4014 592.297 96.0229 592.288 95.7143C592.277 95.3559 592.259 95.1558 592.259 94.928H590.259ZM590.157 96.683C587.755 96.8702 585.284 96.7927 582.745 96.7362C580.229 96.6803 577.652 96.6456 575.141 96.9429L575.377 98.9291C577.73 98.6503 580.177 98.6797 582.701 98.7358C585.202 98.7913 587.787 98.8738 590.313 98.677L590.157 96.683ZM574.365 97.4888C574.264 97.6894 574.212 97.9342 574.182 98.087C574.145 98.2773 574.11 98.5033 574.079 98.7444C574.015 99.2285 573.955 99.8231 573.903 100.416C573.798 101.598 573.717 102.837 573.686 103.235L575.68 103.389C575.713 102.955 575.792 101.762 575.895 100.592C575.947 100.009 576.003 99.4475 576.061 99.0056C576.091 98.7837 576.119 98.6042 576.145 98.4728C576.178 98.3038 576.19 98.3106 576.153 98.3832L574.365 97.4888ZM574.683 104.312C575.184 104.312 577.63 104.28 579.894 104.272C581.041 104.268 582.154 104.27 582.99 104.285C583.41 104.292 583.749 104.303 583.983 104.316C584.103 104.323 584.177 104.33 584.215 104.335C584.237 104.338 584.224 104.337 584.194 104.33C584.179 104.326 584.138 104.316 584.085 104.294C584.052 104.281 583.908 104.223 583.768 104.083L585.182 102.669C585.036 102.523 584.882 102.459 584.835 102.44C584.768 102.413 584.708 102.397 584.672 102.388C584.598 102.37 584.526 102.359 584.474 102.352C584.365 102.338 584.235 102.328 584.099 102.32C583.824 102.304 583.453 102.293 583.026 102.285C582.168 102.27 581.037 102.268 579.888 102.272C577.56 102.28 575.206 102.312 574.683 102.312V104.312ZM583.694 104.001C583.66 103.958 583.66 103.938 583.672 103.976C583.683 104.01 583.696 104.067 583.707 104.152C583.73 104.327 583.731 104.52 583.731 104.72H585.731C585.731 104.536 585.732 104.217 585.691 103.896C585.653 103.606 585.562 103.134 585.256 102.751L583.694 104.001ZM583.731 104.72C583.731 105.662 583.78 106.715 583.803 107.68C583.827 108.672 583.825 109.61 583.737 110.437L585.725 110.651C585.829 109.686 585.827 108.64 585.803 107.632C585.778 106.597 585.731 105.634 585.731 104.72H583.731ZM583.739 110.42C583.725 110.527 583.712 110.594 583.7 110.639C583.689 110.682 583.683 110.682 583.695 110.663C583.711 110.638 583.737 110.611 583.766 110.591C583.792 110.574 583.794 110.581 583.746 110.592L584.18 112.544C584.686 112.432 585.107 112.17 585.383 111.737C585.622 111.361 585.689 110.945 585.723 110.668L583.739 110.42ZM583.688 110.606C583.361 110.7 582.727 110.777 581.842 110.823C580.985 110.868 579.973 110.88 578.939 110.872C576.872 110.856 574.762 110.761 573.719 110.698L573.599 112.694C574.668 112.759 576.814 112.856 578.923 112.872C579.977 112.88 581.033 112.868 581.946 112.821C582.831 112.775 583.669 112.692 584.238 112.53L583.688 110.606ZM572.66 111.728C572.723 113.695 572.787 115.779 573.261 117.811L575.209 117.357C574.787 115.549 574.723 113.665 574.658 111.664L572.66 111.728ZM589.613 131.502C589.527 131.512 589.513 131.489 589.537 131.505C589.558 131.518 589.592 131.552 589.608 131.611C589.625 131.674 589.612 131.733 589.594 131.765C589.577 131.795 589.588 131.748 589.727 131.69L588.951 129.846C587.985 130.253 587.415 131.165 587.678 132.133C587.928 133.056 588.835 133.601 589.833 133.49L589.613 131.502ZM589.716 131.694C589.965 131.593 590.026 131.651 589.975 131.628C589.954 131.619 589.928 131.601 589.907 131.574C589.888 131.549 589.877 131.523 589.872 131.501C589.863 131.456 589.878 131.425 589.885 131.417C589.887 131.413 589.879 131.426 589.843 131.444C589.807 131.462 589.736 131.489 589.616 131.502L589.83 133.49C590.491 133.419 591.061 133.143 591.439 132.675C591.812 132.215 591.943 131.632 591.83 131.091C591.715 130.546 591.352 130.051 590.785 129.8C590.22 129.549 589.577 129.591 588.962 129.842L589.716 131.694ZM578.314 134.003C577.325 134.148 575.937 134.167 574.541 134.029C573.134 133.89 571.823 133.601 570.947 133.191L570.099 135.001C571.271 135.551 572.84 135.87 574.345 136.019C575.861 136.169 577.417 136.156 578.604 135.981L578.314 134.003ZM570.97 133.202C570.582 133.007 570.051 132.781 569.533 132.471C569.283 132.32 569.091 132.181 568.966 132.061C568.823 131.924 568.87 131.91 568.887 132.024L566.911 132.328C566.992 132.858 567.319 133.252 567.58 133.503C567.859 133.771 568.195 134 568.505 134.185C569.107 134.547 569.824 134.865 570.076 134.99L570.97 133.202ZM568.889 132.035C568.885 132.01 568.887 131.999 568.887 132.001C568.887 132.003 568.885 132.012 568.878 132.026C568.863 132.057 568.839 132.081 568.817 132.094C568.773 132.119 568.777 132.087 568.834 132.124L569.908 130.436C569.261 130.025 568.465 129.993 567.829 130.354C567.162 130.733 566.789 131.479 566.909 132.317L568.889 132.035ZM568.857 132.137C570.317 133.014 572.542 133.484 574 133.737L574.342 131.767C572.856 131.508 570.985 131.082 569.885 130.423L568.857 132.137ZM573.99 133.736C576.949 134.28 579.872 133.952 582.151 133.536C583.288 133.328 584.297 133.091 585.048 132.928C585.432 132.845 585.738 132.784 585.977 132.748C586.244 132.708 586.32 132.719 586.295 132.714L586.623 130.742C586.31 130.689 585.96 130.728 585.681 130.77C585.373 130.816 585.011 130.89 584.624 130.974C583.833 131.145 582.886 131.368 581.791 131.568C579.606 131.968 576.961 132.248 574.352 131.768L573.99 133.736ZM586.318 132.718C586.351 132.723 586.271 132.718 586.186 132.618C586.101 132.519 586.081 132.408 586.084 132.341C586.09 132.231 586.139 132.25 586.074 132.277L586.844 134.123C587.547 133.83 588.044 133.177 588.082 132.443C588.101 132.064 587.993 131.653 587.704 131.316C587.415 130.978 587.015 130.797 586.6 130.738L586.318 132.718ZM586.083 132.273C583.848 133.179 580.848 133.613 578.307 134.004L578.611 135.98C581.062 135.603 584.334 135.141 586.835 134.127L586.083 132.273ZM629.267 87.376L628.285 87.5669L628.288 87.5823L628.292 87.5976L629.267 87.376ZM627.411 87.888L628.118 87.1809L628.11 87.1727L628.101 87.1646L627.411 87.888ZM611.283 118.48L612.095 117.897L610.138 115.171L610.284 118.523L611.283 118.48ZM611.539 127.376L610.54 127.419L610.54 127.427L610.541 127.435L611.539 127.376ZM610.515 130.768L610.711 131.749L610.724 131.746L610.737 131.743L610.515 130.768ZM598.291 130.832L597.92 131.76L597.937 131.767L597.955 131.774L598.291 130.832ZM597.651 130.128L598.632 129.932L598.631 129.927L597.651 130.128ZM597.843 121.36L598.843 121.385L598.843 121.374L597.843 121.36ZM596.243 90.064L597.144 89.6292L597.137 89.6168L596.243 90.064ZM598.867 88.336L599.092 89.3104L599.101 89.3083L599.11 89.3061L598.867 88.336ZM614.547 86.288L614.499 87.2869L614.507 87.2872L614.547 86.288ZM630.355 95.76L631.311 95.4654L631.31 95.4627L630.355 95.76ZM619.603 112.976L619.258 112.038L617.698 112.611L618.935 113.721L619.603 112.976ZM631.891 121.68L631.363 122.529L631.373 122.535L631.891 121.68ZM623.699 130.448L623.726 129.448L623.722 129.448L623.699 130.448ZM609.683 95.568L609.489 94.587L608.502 94.7823L608.703 95.768L609.683 95.568ZM610.579 105.04L609.584 105.142L609.69 106.175L610.718 106.03L610.579 105.04ZM624.211 84.24L623.924 83.2822L623.909 83.2865L623.895 83.2913L624.211 84.24ZM622.419 83.92L622.192 84.8939L622.223 84.9012L622.255 84.9064L622.419 83.92ZM607.507 83.6L607.613 82.6056L607.602 82.6044L607.59 82.6035L607.507 83.6ZM607.251 82.064L607.851 82.864L607.871 82.8486L607.891 82.8322L607.251 82.064ZM609.427 81.616V82.616H609.45L609.473 82.6149L609.427 81.616ZM617.619 81.488L617.526 82.4837L617.539 82.4849L617.552 82.4858L617.619 81.488ZM624.339 82.896L624.99 82.1367L624.977 82.1257L624.964 82.1151L624.339 82.896ZM628.292 87.5976C628.341 87.8151 628.273 87.7656 628.359 87.6249C628.404 87.5528 628.466 87.4976 628.528 87.4638C628.585 87.4329 628.624 87.4289 628.627 87.4286C628.63 87.4283 628.612 87.4302 628.571 87.4227C628.531 87.4154 628.48 87.4012 628.422 87.3776C628.302 87.3284 628.192 87.2551 628.118 87.1809L626.704 88.5951C627.219 89.1104 628.044 89.4939 628.819 89.4194C629.245 89.3784 629.751 89.1799 630.063 88.6731C630.357 88.1944 630.353 87.6409 630.242 87.1544L628.292 87.5976ZM628.101 87.1646C628.018 87.085 628.009 87.0454 628.013 87.0586C628.019 87.0769 628.025 87.1163 628.014 87.1603C627.995 87.2344 627.967 87.2129 628.034 87.1844C628.058 87.1741 628.081 87.1708 628.095 87.171C628.108 87.1712 628.112 87.1736 628.114 87.1745C628.116 87.1754 628.121 87.1782 628.128 87.1853C628.136 87.1926 628.149 87.2067 628.166 87.2319C628.199 87.2822 628.25 87.384 628.285 87.5669L630.249 87.1851C630.094 86.3925 629.696 85.7563 629.066 85.4155C628.454 85.0846 627.781 85.1191 627.252 85.3436C626.735 85.5631 626.239 86.0176 626.074 86.6737C625.895 87.3876 626.168 88.0844 626.721 88.6114L628.101 87.1646ZM610.284 118.523C610.347 119.983 610.379 121.46 610.411 122.95C610.443 124.436 610.475 125.935 610.54 127.419L612.538 127.333C612.475 125.873 612.443 124.396 612.411 122.906C612.379 121.42 612.347 119.921 612.282 118.437L610.284 118.523ZM610.541 127.435C610.579 128.081 610.659 128.683 610.587 129.23C610.554 129.485 610.496 129.627 610.449 129.697C610.421 129.739 610.392 129.771 610.293 129.793L610.737 131.743C611.342 131.605 611.801 131.269 612.107 130.815C612.394 130.389 612.516 129.907 612.571 129.49C612.675 128.693 612.563 127.759 612.537 127.317L610.541 127.435ZM610.319 129.787C610.323 129.787 610.31 129.789 610.274 129.794C610.24 129.798 610.195 129.803 610.138 129.808C610.023 129.819 609.873 129.83 609.69 129.841C609.325 129.863 608.847 129.885 608.29 129.905C607.179 129.944 605.773 129.976 604.368 129.992C602.961 130.008 601.563 130.008 600.466 129.984C599.915 129.972 599.45 129.955 599.101 129.931C598.926 129.919 598.79 129.907 598.693 129.894C598.573 129.879 598.573 129.871 598.627 129.89L597.955 131.774C598.121 131.833 598.307 131.861 598.438 131.878C598.591 131.898 598.771 131.914 598.967 131.927C599.36 131.953 599.86 131.972 600.422 131.984C601.551 132.008 602.973 132.008 604.39 131.992C605.809 131.976 607.231 131.944 608.362 131.903C608.926 131.883 609.423 131.861 609.812 131.837C610.171 131.815 610.511 131.789 610.711 131.749L610.319 129.787ZM598.662 129.904C598.646 129.897 598.633 129.89 598.622 129.883C598.612 129.876 598.607 129.871 598.606 129.87C598.605 129.869 598.609 129.873 598.615 129.883C598.621 129.894 598.627 129.911 598.632 129.932L596.67 130.324C596.817 131.056 597.37 131.541 597.92 131.76L598.662 129.904ZM598.631 129.927C598.404 128.823 598.425 127.39 598.529 125.835C598.628 124.349 598.81 122.686 598.843 121.385L596.843 121.335C596.812 122.594 596.642 124.067 596.533 125.701C596.429 127.266 596.386 128.937 596.671 130.329L598.631 129.927ZM598.843 121.374C598.875 118.998 598.923 112.088 598.739 105.301C598.646 101.909 598.496 98.5341 598.254 95.767C598.134 94.3843 597.989 93.1393 597.815 92.1129C597.645 91.1143 597.434 90.2301 597.144 89.6292L595.342 90.4987C595.5 90.8259 595.677 91.4677 595.843 92.4476C596.005 93.3997 596.143 94.5857 596.262 95.941C596.498 98.6499 596.648 101.979 596.739 105.355C596.923 112.104 596.875 118.986 596.843 121.346L598.843 121.374ZM597.137 89.6168C597.117 89.5758 597.141 89.6039 597.136 89.683C597.132 89.7687 597.099 89.8361 597.074 89.8703C597.053 89.8992 597.102 89.8276 597.368 89.7229C597.912 89.5097 598.531 89.4399 599.092 89.3104L598.642 87.3616C598.371 87.4241 597.358 87.5783 596.638 87.8611C596.272 88.0044 595.781 88.2488 595.458 88.6917C595.282 88.9328 595.158 89.2318 595.139 89.5773C595.121 89.9161 595.209 90.2322 595.349 90.5112L597.137 89.6168ZM599.11 89.3061C604.206 88.0319 609.338 87.0381 614.499 87.2868L614.595 85.2892C609.132 85.0259 603.768 86.0801 598.624 87.3659L599.11 89.3061ZM614.507 87.2872C620.749 87.5394 627.49 89.9203 629.4 96.0572L631.31 95.4627C628.996 88.0317 621.017 85.5486 614.587 85.2888L614.507 87.2872ZM629.399 96.0546C630.473 99.5364 629.592 102.899 627.593 105.736C625.584 108.588 622.476 110.854 619.258 112.038L619.948 113.914C623.514 112.602 626.966 110.1 629.229 106.888C631.502 103.661 632.605 99.6636 631.311 95.4654L629.399 96.0546ZM618.935 113.721C622.722 117.115 627.146 119.91 631.363 122.529L632.419 120.831C628.188 118.202 623.908 115.493 620.271 112.231L618.935 113.721ZM631.373 122.535C631.249 122.46 631.247 122.319 631.244 122.368C631.238 122.479 631.172 122.726 630.957 123.12C630.538 123.888 629.744 124.873 628.764 125.865C627.793 126.848 626.692 127.783 625.708 128.461C625.215 128.801 624.77 129.063 624.398 129.234C624.002 129.417 623.789 129.45 623.726 129.448L623.672 131.448C624.201 131.462 624.754 131.273 625.237 131.05C625.744 130.816 626.291 130.488 626.842 130.109C627.946 129.349 629.141 128.328 630.186 127.271C631.222 126.223 632.164 125.084 632.713 124.078C632.982 123.585 633.208 123.032 633.241 122.486C633.277 121.877 633.061 121.22 632.409 120.825L631.373 122.535ZM623.722 129.448C623.611 129.446 623.352 129.384 622.913 129.142C622.496 128.912 622.003 128.568 621.45 128.123C620.345 127.234 619.084 126.011 617.833 124.689C615.332 122.045 612.962 119.104 612.095 117.897L610.471 119.063C611.396 120.352 613.826 123.363 616.381 126.063C617.658 127.413 618.989 128.71 620.196 129.681C620.799 130.166 621.392 130.587 621.948 130.893C622.482 131.188 623.083 131.434 623.676 131.448L623.722 129.448ZM608.703 95.768C609.009 97.2681 609.15 98.7979 609.253 100.37C609.355 101.919 609.422 103.55 609.584 105.142L611.574 104.938C611.416 103.394 611.355 101.857 611.249 100.238C611.144 98.6421 610.997 97.0039 610.663 95.368L608.703 95.768ZM610.718 106.03C614.022 105.565 616.509 104.549 618.159 103.247C619.802 101.951 620.701 100.287 620.509 98.6064C620.314 96.9048 619.046 95.5601 617.156 94.8362C615.271 94.114 612.679 93.9557 609.489 94.587L609.877 96.549C612.831 95.9643 615.015 96.158 616.44 96.7038C617.86 97.2479 618.436 98.0872 618.521 98.8336C618.609 99.6013 618.224 100.649 616.921 101.677C615.625 102.699 613.504 103.619 610.44 104.05L610.718 106.03ZM623.895 83.2913C624.021 83.2493 624.072 83.276 623.944 83.2603C623.849 83.2487 623.719 83.2223 623.558 83.1819C623.397 83.1417 623.239 83.0968 623.073 83.0509C622.929 83.0113 622.74 82.9598 622.583 82.9336L622.255 84.9064C622.29 84.9122 622.373 84.9327 622.541 84.979C622.687 85.0192 622.881 85.0743 623.072 85.1221C623.263 85.1697 623.485 85.2193 623.702 85.2457C623.886 85.268 624.209 85.2947 624.527 85.1887L623.895 83.2913ZM622.646 82.9461C620.16 82.3672 617.506 82.4252 614.964 82.5451C612.373 82.6673 609.916 82.8512 607.613 82.6056L607.401 84.5944C609.898 84.8608 612.561 84.6607 615.058 84.5429C617.604 84.4228 620.006 84.3848 622.192 84.8939L622.646 82.9461ZM607.59 82.6035C607.613 82.6053 607.655 82.6133 607.705 82.6388C607.756 82.6644 607.799 82.6995 607.831 82.7373C607.862 82.7737 607.878 82.8063 607.886 82.8261C607.89 82.8361 607.892 82.8436 607.893 82.8482C607.894 82.8505 607.894 82.8522 607.894 82.8533C607.894 82.8543 607.894 82.8549 607.894 82.8549C607.894 82.8549 607.894 82.8545 607.894 82.8536C607.894 82.8527 607.894 82.8515 607.894 82.85C607.894 82.8468 607.895 82.8427 607.895 82.8381C607.897 82.8282 607.899 82.8197 607.901 82.814C607.908 82.7969 607.902 82.8255 607.851 82.864L606.651 81.264C606.057 81.7093 605.846 82.453 605.904 83.0491C605.935 83.3689 606.049 83.7308 606.311 84.0367C606.587 84.3601 606.977 84.5593 607.424 84.5965L607.59 82.6035ZM607.891 82.8322C607.833 82.8806 607.832 82.8595 607.98 82.8133C608.103 82.7748 608.266 82.7379 608.455 82.7064C608.837 82.6428 609.23 82.616 609.427 82.616V80.616C609.112 80.616 608.609 80.6532 608.127 80.7336C607.884 80.7741 607.623 80.8292 607.382 80.9047C607.166 80.9725 606.861 81.0874 606.611 81.2958L607.891 82.8322ZM609.473 82.6149C612.29 82.4839 614.866 82.2362 617.526 82.4837L617.712 80.4923C614.868 80.2278 612.068 80.4921 609.381 80.6171L609.473 82.6149ZM617.552 82.4858C617.967 82.5134 619.435 82.7269 620.913 83.0066C621.643 83.1447 622.349 83.2941 622.904 83.4373C623.183 83.5092 623.408 83.5756 623.572 83.6338C623.775 83.7055 623.779 83.7287 623.714 83.6769L624.964 82.1151C624.739 81.9353 624.443 81.8205 624.239 81.7484C623.998 81.6629 623.71 81.5798 623.404 81.5007C622.789 81.3419 622.035 81.1833 621.285 81.0414C619.803 80.7611 618.231 80.5266 617.686 80.4902L617.552 82.4858ZM623.688 83.6553C623.686 83.653 623.687 83.6541 623.689 83.6569C623.69 83.6609 623.682 83.6469 623.683 83.6097C623.685 83.5695 623.698 83.4925 623.758 83.4116C623.821 83.3252 623.895 83.2906 623.924 83.2822L624.498 85.1978C625.265 84.9679 625.663 84.3277 625.683 83.6703C625.7 83.0849 625.429 82.5129 624.99 82.1367L623.688 83.6553Z" fill="url(#paint4_linear_2362_80)" mask="url(#path-4-outside-1_2362_80)"/>
<path d="M528.632 211.796C518.392 214.835 512.002 224.6 510.087 229.103C513.103 234.183 517.501 230.721 530.775 224.823C587.587 206.759 576.293 155.866 561.851 154.727C547.409 153.588 560.603 178.704 551.471 185.783C542.339 192.863 546.663 176.963 536.97 181.648C527.276 186.332 541.433 207.998 528.632 211.796Z" fill="url(#paint5_linear_2362_80)"/>
<path d="M516.121 223.499C513.151 226.441 510.892 229.361 510.397 229.803C512.046 227.172 514.021 225.101 516.121 223.499C519.667 219.987 524.226 216.443 528.007 217.044C534.956 218.148 540.522 213.446 542.862 203.682C544.734 195.871 543.39 192.602 542.484 191.944C544.497 193.33 548.097 197.317 546.393 202.177C544.263 208.252 560.938 190.979 562.387 181.934C563.545 174.698 561.906 170.917 560.941 169.931C562.378 170.927 565.012 174.158 564.053 179.106C562.855 185.292 554.451 203.247 547.076 207.349C539.701 211.451 537.015 220.32 532.453 219.088C529.078 218.177 522.093 218.943 516.121 223.499Z" fill="url(#paint6_linear_2362_80)"/>
<path d="M549.926 234.824C540.497 234.32 527.95 233.979 522.854 233.872C509.527 233.497 505.489 225.883 524.312 223.04C543.135 220.198 545.432 195.853 556.612 192.85C567.793 189.846 564.573 201.784 570.939 199.441C577.305 197.098 597.864 195.054 597.55 202.098C597.236 209.142 594.343 213.083 584.005 218.392C573.667 223.7 552.488 223.063 562.894 228.809C573.301 234.555 592.584 230.007 588.796 235.453C585.009 240.9 574.986 239.163 572.157 238.342C569.329 237.52 561.712 235.453 549.926 234.824Z" fill="url(#paint7_linear_2362_80)"/>
<path d="M512.188 229.335C513.236 228.635 522.164 230.248 529.748 225.787C537.332 221.326 547.803 223.39 557.001 215.552C564.558 209.112 573.176 208.464 577.768 206.995C579.951 205.67 581.081 205.079 580.136 205.855C579.571 206.319 578.764 206.677 577.768 206.995C572.632 210.112 561.67 217.29 558.189 220.295C553.227 224.577 535.788 222.665 532.499 226.115C529.867 228.875 517.862 229.411 512.188 229.335Z" fill="url(#paint8_linear_2362_80)"/>
<path d="M500.676 212.576C510.917 215.614 517.307 225.379 519.222 229.882C516.205 234.962 511.808 231.501 498.533 225.603C441.721 207.538 453.015 156.645 467.458 155.506C481.9 154.367 468.706 179.483 477.838 186.563C486.969 193.642 482.645 177.742 492.339 182.427C502.032 187.112 487.876 208.778 500.676 212.576Z" fill="url(#paint9_linear_2362_80)"/>
<path d="M513.188 224.278C516.158 227.22 518.417 230.14 518.912 230.582C517.263 227.951 515.288 225.881 513.188 224.278C509.642 220.766 505.083 217.222 501.302 217.823C494.353 218.927 488.787 214.225 486.447 204.461C484.574 196.65 485.919 193.381 486.825 192.723C484.812 194.109 481.212 198.097 482.916 202.956C485.046 209.031 468.37 191.758 466.922 182.713C465.763 175.477 467.403 171.696 468.368 170.71C466.931 171.707 464.297 174.937 465.255 179.885C466.453 186.071 474.857 204.026 482.233 208.128C489.608 212.231 492.294 221.099 496.856 219.868C500.231 218.956 507.215 219.722 513.188 224.278Z" fill="url(#paint10_linear_2362_80)"/>
<path d="M479.382 235.603C488.811 235.099 501.359 234.759 506.454 234.651C519.782 234.276 523.819 226.662 504.996 223.82C486.173 220.977 483.877 196.633 472.696 193.629C461.516 190.626 464.736 202.563 458.37 200.22C452.003 197.877 431.444 195.833 431.758 202.877C432.073 209.921 434.966 213.863 445.304 219.171C455.642 224.479 476.82 223.843 466.414 229.588C456.008 235.334 436.725 230.786 440.512 236.232C444.299 241.679 454.323 239.943 457.151 239.121C459.98 238.299 467.596 236.233 479.382 235.603Z" fill="url(#paint11_linear_2362_80)"/>
<path d="M517.12 230.114C516.073 229.414 507.144 231.027 499.56 226.567C491.976 222.106 481.505 224.169 472.308 216.331C464.751 209.891 456.132 209.243 451.541 207.775C449.358 206.45 448.227 205.859 449.172 206.634C449.737 207.098 450.544 207.456 451.541 207.775C456.677 210.891 467.639 218.07 471.12 221.074C476.081 225.356 493.521 223.445 496.81 226.894C499.441 229.654 511.447 230.191 517.12 230.114Z" fill="url(#paint12_linear_2362_80)"/>
<path d="M512.159 233.031C512.098 230.191 505.951 220.149 501.37 221.969C496.789 223.789 494.664 222.269 496.632 220.017C498.601 217.764 496.536 215.51 494.015 215.845C491.494 216.18 488.237 213.062 491.162 211.92C494.087 210.778 487.457 203.32 494.028 202.393C500.599 201.465 499.432 217.948 508.28 217.229C513.327 216.819 513.958 220.969 513.982 222.539C514.051 221.895 514.226 220.674 514.631 218.644C516.86 207.48 512.041 212.236 510.219 210.784C508.397 209.332 510.457 207.847 513.129 207.545C515.801 207.244 512.963 205.415 512.663 202.658C512.363 199.9 514.887 196.874 510.242 195.69C505.596 194.505 504.01 192.806 503.978 191.304C503.946 189.802 501.519 188.215 501.807 186.186C502.094 184.157 511.293 185.759 513.791 191.398C516.29 197.038 518.741 189.96 517.299 187.246C515.856 184.533 516.025 183.972 518.095 180.845C520.165 177.718 521.302 173.935 520.581 172.578C519.86 171.222 519.778 168.812 522.862 168.751C525.945 168.691 527.309 175.422 524.743 178.589C522.177 181.755 521.875 188.266 522.762 188.464C523.649 188.661 525.223 183.802 527.243 182.884C529.262 181.965 532.827 178.83 533.534 180.547C534.241 182.265 534.585 184.609 530.86 186.533C527.135 188.456 521.039 196.518 522.386 204.824C523.734 213.13 525.193 201.306 530.153 202.249C535.114 203.193 536.57 205.325 530.906 206.722C525.241 208.12 526.43 216.953 528.101 216.047C529.772 215.141 527.234 222.375 525.508 224.669C523.782 226.962 523.521 231.273 523.103 232.663C522.685 234.053 516.453 241.016 512.159 233.031Z" fill="url(#paint13_linear_2362_80)"/>
<path d="M532.791 234.507C534.468 232.061 545.559 225.933 548.505 229.462C551.451 232.991 554.168 232.571 553.743 229.775C553.318 226.98 556.404 225.895 558.406 227.257C560.408 228.619 565.025 227.289 563.132 225.053C561.24 222.817 571.274 219.143 566.086 215.545C560.898 211.947 552.489 226.787 545.201 222.403C541.044 219.903 538.123 223.247 537.204 224.603C537.512 224.013 538.058 222.876 538.866 220.938C543.31 210.277 544.783 216.462 547.199 215.972C549.615 215.482 548.671 213.315 546.518 211.918C544.366 210.521 547.881 210.135 549.718 207.863C551.556 205.59 551.09 201.886 555.809 202.828C560.529 203.77 562.881 202.965 563.768 201.671C564.654 200.378 567.673 200.027 568.583 198.14C569.493 196.252 560.573 193.739 555.175 197.586C549.776 201.432 551.689 194.232 554.496 192.483C557.303 190.735 557.477 190.175 557.463 186.575C557.45 182.976 558.623 179.2 560.026 178.326C561.429 177.452 562.879 175.389 560.23 174.027C557.581 172.665 552.546 177.944 552.968 181.789C553.391 185.633 549.931 191.427 549.046 191.223C548.161 191.018 549.57 186.122 548.338 184.465C547.105 182.808 545.795 178.566 544.198 179.76C542.601 180.954 540.962 182.848 543.103 186.104C545.245 189.36 545.94 198.964 540.019 205.619C534.097 212.274 539.588 201.366 534.732 200.08C529.876 198.795 527.39 200.031 531.52 203.653C535.65 207.275 529.566 214.456 528.63 212.958C527.694 211.46 525.766 218.833 525.957 221.562C526.147 224.291 523.909 228.152 523.478 229.54C523.047 230.927 524.489 239.632 532.791 234.507Z" fill="url(#paint14_linear_2362_80)"/>
<path d="M506.014 237.454C504.083 234.831 491.45 228.851 488.166 233.097C484.881 237.343 481.801 237.101 482.243 233.901C482.686 230.701 479.18 229.739 476.933 231.453C474.687 233.166 469.445 232.058 471.555 229.365C473.666 226.672 462.263 223.378 468.083 218.862C473.904 214.345 483.621 230.412 491.807 224.826C496.476 221.64 499.827 225.172 500.885 226.627C500.528 225.987 499.896 224.747 498.955 222.624C493.781 210.943 492.199 218.068 489.459 217.721C486.719 217.374 487.757 214.842 490.173 213.076C492.59 211.31 488.608 211.176 486.497 208.762C484.387 206.349 484.864 202.118 479.537 203.589C474.21 205.061 471.538 204.352 470.517 202.965C469.496 201.578 466.075 201.441 465.02 199.383C463.965 197.325 474.023 193.716 480.183 197.604C486.344 201.492 484.081 193.51 480.881 191.773C477.682 190.035 477.477 189.417 477.443 185.343C477.409 181.269 476.031 177.098 474.431 176.23C472.831 175.361 471.163 173.152 474.141 171.383C477.12 169.615 482.889 175.155 482.464 179.541C482.038 183.927 486.032 190.185 487.031 189.878C488.029 189.57 486.368 184.151 487.74 182.171C489.111 180.19 490.535 175.278 492.358 176.492C494.182 177.705 496.063 179.708 493.684 183.575C491.305 187.443 490.65 198.369 497.441 205.39C504.232 212.411 497.87 200.541 503.347 198.67C508.823 196.798 511.653 197.983 507.03 202.436C502.406 206.889 509.389 214.49 510.427 212.715C511.466 210.94 513.747 219.116 513.569 222.22C513.391 225.324 515.976 229.5 516.483 231.033C516.989 232.566 515.477 242.539 506.014 237.454Z" fill="url(#paint15_linear_2362_80)"/>
<path d="M538.461 244.642C544 243.277 551.415 232.502 554.37 225.27C557.233 218.262 542.853 223.166 539.162 230.276C540.112 224.98 540.098 219.45 537.127 217.028C532.177 212.992 531.968 228.074 532.482 236.12C528.282 224.971 519.564 205.413 518.293 216.371C517.091 226.736 523.795 235.609 527.86 239.31C522.44 234.616 512.501 226.701 511.315 228.535C509.77 230.926 522.343 243.346 525.629 243.277C528.258 243.222 532.921 246.006 538.461 244.642Z" fill="url(#paint16_linear_2362_80)"/>
<path d="M506.461 243.642C512 242.277 519.415 231.502 522.37 224.27C525.233 217.262 510.853 222.166 507.162 229.276C508.112 223.98 508.098 218.45 505.127 216.028C500.177 211.992 499.968 227.074 500.482 235.12C496.282 223.971 487.564 204.413 486.293 215.371C485.091 225.736 491.795 234.609 495.86 238.31C490.44 233.616 480.501 225.701 479.315 227.535C477.77 229.926 490.343 242.346 493.629 242.277C496.258 242.222 500.921 245.006 506.461 243.642Z" fill="url(#paint17_linear_2362_80)"/>
<path d="M520.511 245.568C524.848 244.104 529.42 233.851 531.503 227.272C533.521 220.898 523.731 226.402 521.15 232.936C521.854 228.221 521.908 223.382 519.924 221.513C516.619 218.398 516.305 231.616 516.561 238.614C513.845 229.211 508.167 212.829 507.181 222.526C506.249 231.699 510.686 238.899 513.396 241.796C509.781 238.144 503.143 232.056 502.319 233.761C501.245 235.984 509.615 245.793 511.84 245.455C513.621 245.186 516.175 247.031 520.511 245.568Z" fill="url(#paint18_linear_2362_80)"/>
<g filter="url(#filter2_d_2362_80)">
<path d="M803.011 150.202C822.904 138.209 856.848 151.521 877.836 163.232C898.824 174.943 790.296 193.034 846.368 200.414C902.44 207.793 823.539 235.435 770.664 238.919C717.788 242.403 712.629 230.425 667.866 229.57C623.103 228.715 674.932 210.228 694.536 213.741C714.14 217.253 739.272 228.993 759.442 220.604C768.063 217.018 766.813 207.491 755.327 204.772C743.841 202.053 728.616 210.443 728.911 207.25C729.207 204.057 737.793 190.254 749.618 187.674C760.656 185.265 770.19 188.813 784.289 192.726C806.554 198.904 828.709 174.513 818.563 166.892C810.446 160.794 795.663 172.469 789.286 179.069C785.572 174.444 783.118 162.196 803.011 150.202Z" fill="url(#paint19_radial_2362_80)"/>
</g>
<g filter="url(#filter3_d_2362_80)">
<path d="M229.161 153.202C209.267 141.209 175.324 154.521 154.336 166.232C133.348 177.943 241.876 196.034 185.804 203.414C129.732 210.793 208.633 238.435 261.508 241.919C314.384 245.403 319.543 233.425 364.306 232.57C409.069 231.715 357.24 213.228 337.636 216.741C318.032 220.253 292.9 231.993 272.73 223.604C264.109 220.018 265.359 210.491 276.845 207.772C288.331 205.053 303.556 213.443 303.261 210.25C302.965 207.057 294.379 193.254 282.554 190.674C271.516 188.265 261.982 191.813 247.883 195.726C225.618 201.904 203.463 177.513 213.609 169.892C221.726 163.794 236.509 175.469 242.886 182.069C246.6 177.444 249.054 165.196 229.161 153.202Z" fill="url(#paint20_radial_2362_80)"/>
</g>
<g filter="url(#filter4_d_2362_80)">
<path d="M495.377 198.416C493.84 209.133 474.685 201.269 464.992 202.576C455.298 203.884 476.854 215.467 488.369 222.918C499.884 230.369 476.271 253.426 483.039 263.481C489.806 273.536 502.612 245.643 511.706 234.839C520.8 224.036 551.908 258.312 563.455 249.527C575.002 240.741 538.047 229.512 533.56 218.138C529.072 206.765 556.228 189.968 550.393 184.468C547.18 181.439 534.111 196.582 525.125 201.282C516.138 205.982 513.119 160.123 503.56 158.353C494.001 156.584 497.298 185.019 495.377 198.416Z" fill="url(#paint21_linear_2362_80)"/>
</g>
<g filter="url(#filter5_d_2362_80)">
<path d="M498.645 225.431C498.806 220.963 462.757 207.962 468.041 205.655C473.325 203.349 489.977 207.968 495.511 207.105C501.045 206.241 500.095 165.998 503.576 166.364C507.058 166.73 514.075 200.233 520.521 204.193C526.967 208.152 545.548 183.967 548.291 187.211C551.035 190.454 527.866 212.888 527.373 216.148C526.881 219.408 558.421 239.06 558.295 245.305C558.169 251.549 519.522 228.611 515.356 228.882C511.191 229.154 492.597 261.887 486.156 262.111C479.715 262.335 498.483 229.899 498.645 225.431Z" fill="url(#paint22_linear_2362_80)"/>
</g>
<path d="M479.995 208.374C478.557 210.207 481.74 211.857 482.642 210.619C483.545 209.382 480.39 206.993 479.995 208.374Z" fill="#D9D9D9"/>
<path d="M497.935 215.251C499.409 213.449 496.261 211.732 495.334 212.951C494.408 214.17 497.513 216.625 497.935 215.251Z" fill="#D9D9D9"/>
<path d="M489.107 212.544C490.581 210.742 487.433 209.025 486.506 210.244C485.579 211.463 488.685 213.918 489.107 212.544Z" fill="#D9D9D9"/>
<path d="M507.432 200.178C505.994 202.01 509.178 203.66 510.08 202.423C510.982 201.185 507.827 198.796 507.432 200.178Z" fill="#D9D9D9"/>
<path d="M505.225 190.849C503.787 192.681 506.971 194.331 507.873 193.094C508.775 191.856 505.62 189.467 505.225 190.849Z" fill="#D9D9D9"/>
<path d="M523.116 208.429C521.678 210.261 524.861 211.911 525.764 210.674C526.666 209.436 523.511 207.047 523.116 208.429Z" fill="#D9D9D9"/>
<path d="M529.186 203.465C527.748 205.297 530.932 206.947 531.834 205.71C532.736 204.473 529.581 202.084 529.186 203.465Z" fill="#D9D9D9"/>
<path d="M536.499 196.834C535.061 198.666 538.244 200.317 539.146 199.079C540.049 197.842 536.894 195.453 536.499 196.834Z" fill="#D9D9D9"/>
<path d="M526.623 227.894C528.526 229.164 529.898 225.767 528.619 224.98C527.339 224.192 525.241 227.635 526.623 227.894Z" fill="#D9D9D9"/>
<path d="M538.082 231.525C537.527 229.273 534.281 230.881 534.698 232.347C535.114 233.812 538.923 232.664 538.082 231.525Z" fill="#D9D9D9"/>
<path d="M543.667 235.979C542.229 237.811 545.412 239.461 546.314 238.224C547.217 236.986 544.062 234.597 543.667 235.979Z" fill="#D9D9D9"/>
<path d="M502.262 236.195C502.818 233.927 499.23 233.802 498.918 235.304C498.605 236.805 502.472 237.61 502.262 236.195Z" fill="#D9D9D9"/>
<path d="M510.808 226.839C512.822 230.996 518.528 226.477 517.108 223.797C515.689 221.116 508.692 224.976 510.808 226.839Z" fill="#741F5E" stroke="#D9D9D9" stroke-width="3"/>
<path d="M504.243 206.504C500.929 203.335 497.091 209.567 499.343 211.568C501.594 213.568 506.874 207.495 504.243 206.504Z" fill="#741F5E" stroke="#D9D9D9" stroke-width="3"/>
<path d="M519.641 207.138C520.331 202.522 513.155 202.958 512.809 206.004C512.463 209.051 520.32 209.911 519.641 207.138Z" fill="#741F5E" stroke="#D9D9D9" stroke-width="3"/>
<path d="M500.345 219.358C497.469 223.022 503.836 226.322 505.64 223.847C507.445 221.373 501.135 216.595 500.345 219.358Z" fill="#741F5E" stroke="#D9D9D9" stroke-width="3"/>
<path d="M523.212 219.388C525.621 215.393 518.889 212.933 517.399 215.613C515.909 218.294 522.765 222.225 523.212 219.388Z" fill="#741F5E" stroke="#D9D9D9" stroke-width="3"/>
<path d="M498.415 243.305C498.241 240.984 494.783 242.018 494.951 243.537C495.119 245.056 499.054 244.574 498.415 243.305Z" fill="#D9D9D9"/>
<path d="M494.39 251.513C494.926 249.24 491.337 249.147 491.038 250.652C490.738 252.156 494.612 252.925 494.39 251.513Z" fill="#D9D9D9"/>
<path d="M504.803 180.123C503.366 181.956 506.549 183.606 507.451 182.368C508.353 181.131 505.198 178.742 504.803 180.123Z" fill="#D9D9D9"/>
<path d="M508.529 213.553C508.321 213.89 504.812 213.789 504.847 214.251C504.883 214.713 508.354 215.874 508.505 216.266C508.656 216.658 507.831 220.084 508.256 220.241C508.681 220.399 510.458 217.375 511.002 217.323C511.546 217.272 513.836 218.477 514.665 218.363C515.494 218.249 512.887 214.79 512.887 214.79C512.887 214.79 515.278 212.492 515.237 211.828C515.195 211.165 511.54 212.609 511.22 212.502C510.9 212.395 509.306 208.988 508.8 209.025C508.295 209.062 508.738 213.216 508.529 213.553Z" fill="#D9D9D9"/>
<defs>
<filter id="filter0_d_2362_80" x="154.602" y="27.4893" width="480.422" height="344.063" filterUnits="userSpaceOnUse" color-interpolation-filters="sRGB">
<feFlood flood-opacity="0" result="BackgroundImageFix"/>
<feColorMatrix in="SourceAlpha" type="matrix" values="0 0 0 0 0 0 0 0 0 0 0 0 0 0 0 0 0 0 127 0" result="hardAlpha"/>
<feOffset dy="4"/>
<feGaussianBlur stdDeviation="62.5"/>
<feComposite in2="hardAlpha" operator="out"/>
<feColorMatrix type="matrix" values="0 0 0 0 0.602456 0 0 0 0 0.862489 0 0 0 0 0.9525 0 0 0 0.54 0"/>
<feBlend mode="normal" in2="BackgroundImageFix" result="effect1_dropShadow_2362_80"/>
<feBlend mode="normal" in="SourceGraphic" in2="effect1_dropShadow_2362_80" result="shape"/>
</filter>
<filter id="filter1_d_2362_80" x="394.977" y="27.0713" width="480.422" height="344.063" filterUnits="userSpaceOnUse" color-interpolation-filters="sRGB">
<feFlood flood-opacity="0" result="BackgroundImageFix"/>
<feColorMatrix in="SourceAlpha" type="matrix" values="0 0 0 0 0 0 0 0 0 0 0 0 0 0 0 0 0 0 127 0" result="hardAlpha"/>
<feOffset dy="4"/>
<feGaussianBlur stdDeviation="62.5"/>
<feComposite in2="hardAlpha" operator="out"/>
<feColorMatrix type="matrix" values="0 0 0 0 0.602456 0 0 0 0 0.862489 0 0 0 0 0.9525 0 0 0 0.54 0"/>
<feBlend mode="normal" in2="BackgroundImageFix" result="effect1_dropShadow_2362_80"/>
<feBlend mode="normal" in="SourceGraphic" in2="effect1_dropShadow_2362_80" result="shape"/>
</filter>
<filter id="filter2_d_2362_80" x="525.148" y="24.4893" width="480.422" height="344.063" filterUnits="userSpaceOnUse" color-interpolation-filters="sRGB">
<feFlood flood-opacity="0" result="BackgroundImageFix"/>
<feColorMatrix in="SourceAlpha" type="matrix" values="0 0 0 0 0 0 0 0 0 0 0 0 0 0 0 0 0 0 127 0" result="hardAlpha"/>
<feOffset dy="4"/>
<feGaussianBlur stdDeviation="62.5"/>
<feComposite in2="hardAlpha" operator="out"/>
<feColorMatrix type="matrix" values="0 0 0 0 0.602456 0 0 0 0 0.862489 0 0 0 0 0.9525 0 0 0 0.54 0"/>
<feBlend mode="normal" in2="BackgroundImageFix" result="effect1_dropShadow_2362_80"/>
<feBlend mode="normal" in="SourceGraphic" in2="effect1_dropShadow_2362_80" result="shape"/>
</filter>
<filter id="filter3_d_2362_80" x="26.6016" y="27.4893" width="480.422" height="344.063" filterUnits="userSpaceOnUse" color-interpolation-filters="sRGB">
<feFlood flood-opacity="0" result="BackgroundImageFix"/>
<feColorMatrix in="SourceAlpha" type="matrix" values="0 0 0 0 0 0 0 0 0 0 0 0 0 0 0 0 0 0 127 0" result="hardAlpha"/>
<feOffset dy="4"/>
<feGaussianBlur stdDeviation="62.5"/>
<feComposite in2="hardAlpha" operator="out"/>
<feColorMatrix type="matrix" values="0 0 0 0 0.602456 0 0 0 0 0.862489 0 0 0 0 0.9525 0 0 0 0.54 0"/>
<feBlend mode="normal" in2="BackgroundImageFix" result="effect1_dropShadow_2362_80"/>
<feBlend mode="normal" in="SourceGraphic" in2="effect1_dropShadow_2362_80" result="shape"/>
</filter>
<filter id="filter4_d_2362_80" x="372.651" y="72.3744" width="282.929" height="287.156" filterUnits="userSpaceOnUse" color-interpolation-filters="sRGB">
<feFlood flood-opacity="0" result="BackgroundImageFix"/>
<feColorMatrix in="SourceAlpha" type="matrix" values="0 0 0 0 0 0 0 0 0 0 0 0 0 0 0 0 0 0 127 0" result="hardAlpha"/>
<feOffset dy="4"/>
<feGaussianBlur stdDeviation="44.95"/>
<feComposite in2="hardAlpha" operator="out"/>
<feColorMatrix type="matrix" values="0 0 0 0 0.407843 0 0 0 0 0.0941176 0 0 0 0 0.129412 0 0 0 1 0"/>
<feBlend mode="normal" in2="BackgroundImageFix" result="effect1_dropShadow_2362_80"/>
<feBlend mode="normal" in="SourceGraphic" in2="effect1_dropShadow_2362_80" result="shape"/>
</filter>
<filter id="filter5_d_2362_80" x="364.712" y="67.5623" width="296.385" height="301.35" filterUnits="userSpaceOnUse" color-interpolation-filters="sRGB">
<feFlood flood-opacity="0" result="BackgroundImageFix"/>
<feColorMatrix in="SourceAlpha" type="matrix" values="0 0 0 0 0 0 0 0 0 0 0 0 0 0 0 0 0 0 127 0" result="hardAlpha"/>
<feOffset dy="4"/>
<feGaussianBlur stdDeviation="51.4"/>
<feComposite in2="hardAlpha" operator="out"/>
<feColorMatrix type="matrix" values="0 0 0 0 0.847059 0 0 0 0 0.709804 0 0 0 0 0.458824 0 0 0 1 0"/>
<feBlend mode="normal" in2="BackgroundImageFix" result="effect1_dropShadow_2362_80"/>
<feBlend mode="normal" in="SourceGraphic" in2="effect1_dropShadow_2362_80" result="shape"/>
</filter>
<linearGradient id="paint0_linear_2362_80" x1="515" y1="0" x2="515" y2="332" gradientUnits="userSpaceOnUse">
<stop offset="0.095" stop-color="#D7B575"/>
<stop offset="0.32" stop-color="#BED775"/>
<stop offset="0.99" stop-color="#4E3D71"/>
</linearGradient>
<radialGradient id="paint1_radial_2362_80" cx="0" cy="0" r="1" gradientUnits="userSpaceOnUse" gradientTransform="translate(331.343 175.738) rotate(24.4111) scale(208.257 72.865)">
<stop stop-color="#75D7D6"/>
<stop offset="0.288144" stop-color="#3CC1EC"/>
<stop offset="0.836667" stop-color="#C213BB"/>
<stop offset="1" stop-color="#D575D7"/>
</radialGradient>
<radialGradient id="paint2_radial_2362_80" cx="0" cy="0" r="1" gradientUnits="userSpaceOnUse" gradientTransform="translate(698.657 175.32) rotate(155.589) scale(208.257 72.865)">
<stop stop-color="#75D7D6"/>
<stop offset="0.288144" stop-color="#3CC1EC"/>
<stop offset="0.836667" stop-color="#C213BB"/>
<stop offset="1" stop-color="#D575D7"/>
</radialGradient>
<radialGradient id="paint3_radial_2362_80" cx="0" cy="0" r="1" gradientUnits="userSpaceOnUse" gradientTransform="translate(528.845 94.7754) rotate(-175.676) scale(425.718 102.481)">
<stop offset="0.120225" stop-color="#D7B575"/>
<stop offset="0.370102" stop-color="#B32169"/>
<stop offset="0.660328" stop-color="#741F5E"/>
<stop offset="1" stop-color="#BC0079" stop-opacity="0"/>
</radialGradient>
<linearGradient id="paint4_linear_2362_80" x1="515" y1="44" x2="515" y2="173" gradientUnits="userSpaceOnUse">
<stop offset="0.095" stop-color="#D7B575"/>
<stop offset="0.32" stop-color="#BED775"/>
<stop offset="0.99" stop-color="#4E3D71"/>
</linearGradient>
<linearGradient id="paint5_linear_2362_80" x1="525.008" y1="169.913" x2="546.569" y2="218.441" gradientUnits="userSpaceOnUse">
<stop offset="0.095" stop-color="#D7B575"/>
<stop offset="0.32" stop-color="#BED775"/>
<stop offset="0.99" stop-color="#4E3D71"/>
</linearGradient>
<linearGradient id="paint6_linear_2362_80" x1="515.344" y1="228.33" x2="570.495" y2="168.475" gradientUnits="userSpaceOnUse">
<stop stop-color="#681821"/>
<stop offset="1" stop-color="#6EC276"/>
</linearGradient>
<linearGradient id="paint7_linear_2362_80" x1="575.339" y1="189.582" x2="548.498" y2="247.927" gradientUnits="userSpaceOnUse">
<stop offset="0.095" stop-color="#D7B575"/>
<stop offset="0.32" stop-color="#BED775"/>
<stop offset="0.99" stop-color="#4E3D71"/>
</linearGradient>
<linearGradient id="paint8_linear_2362_80" x1="511.795" y1="232.092" x2="566.972" y2="206.793" gradientUnits="userSpaceOnUse">
<stop stop-color="#681821"/>
<stop offset="1" stop-color="#378F6A"/>
</linearGradient>
<linearGradient id="paint9_linear_2362_80" x1="504.301" y1="170.693" x2="482.739" y2="219.22" gradientUnits="userSpaceOnUse">
<stop offset="0.095" stop-color="#D7B575"/>
<stop offset="0.32" stop-color="#BED775"/>
<stop offset="0.99" stop-color="#4E3D71"/>
</linearGradient>
<linearGradient id="paint10_linear_2362_80" x1="513.965" y1="229.109" x2="458.813" y2="169.254" gradientUnits="userSpaceOnUse">
<stop stop-color="#681821"/>
<stop offset="1" stop-color="#6EC276"/>
</linearGradient>
<linearGradient id="paint11_linear_2362_80" x1="453.969" y1="190.361" x2="480.81" y2="248.707" gradientUnits="userSpaceOnUse">
<stop offset="0.095" stop-color="#D7B575"/>
<stop offset="0.32" stop-color="#BED775"/>
<stop offset="0.99" stop-color="#4E3D71"/>
</linearGradient>
<linearGradient id="paint12_linear_2362_80" x1="517.514" y1="232.871" x2="462.337" y2="207.572" gradientUnits="userSpaceOnUse">
<stop stop-color="#681821"/>
<stop offset="1" stop-color="#378F6A"/>
</linearGradient>
<linearGradient id="paint13_linear_2362_80" x1="523.574" y1="168.85" x2="508.82" y2="235.064" gradientUnits="userSpaceOnUse">
<stop stop-color="#7E25EE" stop-opacity="0.86"/>
<stop offset="1" stop-color="#182256"/>
</linearGradient>
<linearGradient id="paint14_linear_2362_80" x1="541.345" y1="169.599" x2="533.5" y2="240.354" gradientUnits="userSpaceOnUse">
<stop stop-color="#7E25EE" stop-opacity="0.86"/>
<stop offset="0.745" stop-color="#7725E4" stop-opacity="0.8698"/>
<stop offset="1" stop-color="#182256"/>
</linearGradient>
<linearGradient id="paint15_linear_2362_80" x1="463.869" y1="174.48" x2="508.095" y2="240.544" gradientUnits="userSpaceOnUse">
<stop offset="0.26" stop-color="#5B6BFD"/>
<stop offset="0.84" stop-color="#182256"/>
</linearGradient>
<linearGradient id="paint16_linear_2362_80" x1="516.16" y1="218.9" x2="546.164" y2="240.893" gradientUnits="userSpaceOnUse">
<stop offset="0.783776" stop-color="#D02BC0"/>
<stop offset="0.943668" stop-color="#5F1780"/>
</linearGradient>
<linearGradient id="paint17_linear_2362_80" x1="484.16" y1="217.9" x2="514.164" y2="239.893" gradientUnits="userSpaceOnUse">
<stop offset="0.783776" stop-color="#D02BC0"/>
<stop offset="0.943668" stop-color="#5F1780"/>
</linearGradient>
<linearGradient id="paint18_linear_2362_80" x1="508.183" y1="218.469" x2="527.365" y2="244.092" gradientUnits="userSpaceOnUse">
<stop offset="0.575" stop-color="#B05DE2"/>
<stop offset="1" stop-color="#5F1780"/>
</linearGradient>
<radialGradient id="paint19_radial_2362_80" cx="0" cy="0" r="1" gradientUnits="userSpaceOnUse" gradientTransform="translate(828.829 172.738) rotate(155.589) scale(208.257 72.865)">
<stop stop-color="#75D7D6"/>
<stop offset="0.288144" stop-color="#3CC1EC"/>
<stop offset="0.836667" stop-color="#C213BB"/>
<stop offset="1" stop-color="#D575D7"/>
</radialGradient>
<radialGradient id="paint20_radial_2362_80" cx="0" cy="0" r="1" gradientUnits="userSpaceOnUse" gradientTransform="translate(203.343 175.738) rotate(24.4111) scale(208.257 72.865)">
<stop stop-color="#75D7D6"/>
<stop offset="0.288144" stop-color="#3CC1EC"/>
<stop offset="0.836667" stop-color="#C213BB"/>
<stop offset="1" stop-color="#D575D7"/>
</radialGradient>
<linearGradient id="paint21_linear_2362_80" x1="530.039" y1="165.643" x2="499.696" y2="272.552" gradientUnits="userSpaceOnUse">
<stop stop-color="#71D0CF"/>
<stop offset="0.305" stop-color="#5BA7A6"/>
<stop offset="0.78" stop-color="#75D7D6"/>
</linearGradient>
<linearGradient id="paint22_linear_2362_80" x1="526.45" y1="171.882" x2="503.407" y2="266.339" gradientUnits="userSpaceOnUse">
<stop offset="0.485" stop-color="#B32169"/>
<stop offset="1" stop-color="#3029BA"/>
</linearGradient>
</defs>
</svg>
