<svg width="1418" height="464" viewBox="0 0 1418 464" fill="none" xmlns="http://www.w3.org/2000/svg">
<g filter="url(#filter0_d_2362_141)">
<path d="M1214.43 204.302C1243.73 201.016 1274.46 225.248 1291.48 243.306C1308.5 261.364 1175.66 237.469 1234.75 264.592C1293.85 291.714 1189.01 287.143 1127.33 270.792C1065.65 254.441 1066.65 241.963 1016.6 224.76C966.554 207.557 1035.61 210.269 1055.74 220.576C1075.87 230.882 1097.55 250.488 1125.1 250.488C1136.88 250.488 1140.9 241.612 1129.49 234.989C1118.07 228.366 1096.09 230.185 1098.25 227.472C1100.4 224.76 1117.97 215.721 1132.79 217.786C1146.62 219.714 1155.36 226.352 1169.05 234.989C1190.66 248.629 1229.58 235.222 1222.48 224.76C1216.79 216.391 1193.44 221.273 1182.48 224.76C1180.92 219.31 1185.14 207.588 1214.43 204.302Z" fill="url(#paint0_radial_2362_141)"/>
</g>
<g filter="url(#filter1_d_2362_141)">
<path d="M203.567 204.302C174.269 201.016 143.537 225.248 126.519 243.306C109.501 261.364 242.343 237.469 183.245 264.592C124.148 291.714 228.987 287.143 290.669 270.792C352.352 254.441 351.346 241.963 401.396 224.76C451.446 207.557 382.391 210.269 362.261 220.576C342.131 230.882 320.451 250.488 292.895 250.488C281.119 250.488 277.098 241.612 288.515 234.989C299.932 228.366 321.905 230.185 319.751 227.472C317.597 224.76 300.033 215.721 285.212 217.786C271.376 219.714 262.636 226.352 248.949 234.989C227.335 248.629 188.415 235.222 195.524 224.76C201.212 216.391 224.559 221.273 235.521 224.76C237.077 219.31 232.864 207.588 203.567 204.302Z" fill="url(#paint1_radial_2362_141)"/>
</g>
<g filter="url(#filter2_d_2362_141)">
<path d="M1088.46 222.298C1117.65 219.053 1148.28 242.983 1165.24 260.815C1182.2 278.647 1049.81 255.051 1108.71 281.834C1167.61 308.618 1063.12 304.103 1001.65 287.957C940.174 271.81 941.176 259.489 891.295 242.501C841.415 225.513 910.236 228.191 930.298 238.368C950.36 248.546 971.967 267.907 999.43 267.907C1011.17 267.907 1015.17 259.142 1003.8 252.602C992.416 246.062 970.518 247.857 972.665 245.179C974.812 242.501 992.316 233.575 1007.09 235.614C1020.88 237.517 1029.59 244.073 1043.23 252.602C1064.77 266.071 1103.56 252.831 1096.47 242.501C1090.8 234.236 1067.54 239.057 1056.61 242.501C1055.06 237.118 1059.26 225.543 1088.46 222.298Z" fill="url(#paint2_radial_2362_141)"/>
</g>
<g filter="url(#filter3_d_2362_141)">
<path d="M335.508 222.298C306.31 219.053 275.682 242.983 258.721 260.815C241.76 278.647 374.153 255.051 315.256 281.834C256.358 308.618 360.842 304.103 422.317 287.957C483.791 271.81 482.789 259.489 532.669 242.501C582.55 225.513 513.729 228.191 493.667 238.368C473.605 248.546 451.998 267.907 424.535 267.907C412.798 267.907 408.791 259.142 420.17 252.602C431.548 246.062 453.447 247.857 451.3 245.179C449.153 242.501 431.649 233.575 416.878 235.614C403.089 237.517 394.378 244.073 380.737 252.602C359.196 266.071 320.408 252.831 327.493 242.501C333.161 234.236 356.429 239.057 367.355 242.501C368.905 237.118 364.707 225.543 335.508 222.298Z" fill="url(#paint3_radial_2362_141)"/>
</g>
<g filter="url(#filter4_d_2362_141)">
<path d="M482.891 244.302C453.594 241.016 422.862 265.248 405.843 283.306C388.825 301.364 521.667 277.469 462.57 304.592C403.472 331.714 510.537 335.851 572.219 319.5C633.902 303.149 630.671 281.963 680.72 264.76C730.77 247.557 660.042 247.48 639.912 257.786C619.782 268.093 599.775 290.488 572.219 290.488C560.443 290.488 556.422 281.612 567.839 274.989C579.257 268.366 601.23 270.185 599.075 267.472C596.921 264.76 579.357 255.721 564.536 257.786C550.701 259.714 541.96 266.352 528.273 274.989C506.659 288.629 467.74 275.222 474.849 264.76C480.536 256.391 503.883 261.273 514.845 264.76C516.401 259.31 512.188 247.588 482.891 244.302Z" fill="url(#paint4_radial_2362_141)"/>
</g>
<g filter="url(#filter5_d_2362_141)">
<path d="M920.46 244.302C949.659 241.016 980.287 265.248 997.248 283.306C1014.21 301.364 881.815 277.469 940.713 304.592C999.611 331.714 892.908 334.351 831.434 318C769.96 301.649 773.18 281.963 723.299 264.76C673.419 247.557 748.579 247.48 768.641 257.786C788.703 268.093 803.971 290.488 831.434 290.488C843.17 290.488 847.178 281.612 835.799 274.989C824.42 268.366 802.522 270.185 804.669 267.472C806.815 264.76 824.32 255.721 839.091 257.786C852.88 259.714 861.591 266.352 875.231 274.989C896.772 288.629 935.561 275.222 928.476 264.76C922.808 256.391 899.54 261.273 888.614 264.76C887.063 259.31 891.262 247.588 920.46 244.302Z" fill="url(#paint5_radial_2362_141)"/>
</g>
<g filter="url(#filter6_d_2362_141)">
<path d="M544.718 281.731C546.336 294.361 523.685 291.612 513.822 296.207C503.96 300.803 530.277 306.991 544.718 311.727C559.159 316.463 541.149 350.159 551.354 359.369C561.559 368.58 566.669 332.881 573.023 317.726C579.377 302.57 622.672 331.385 632.232 317.726C641.793 304.067 599.286 303.229 591.095 291.792C582.904 280.356 606.557 252.611 598.719 248.258C594.402 245.861 585.154 267.208 577.067 275.417C568.98 283.626 551.904 232.671 541.252 233.739C530.601 234.807 542.697 265.945 544.718 281.731Z" fill="url(#paint6_linear_2362_141)"/>
</g>
<g filter="url(#filter7_d_2362_141)">
<path d="M556.354 311.271C555.173 306.16 513.089 303.024 517.982 298.714C522.876 294.404 541.896 294.283 547.491 291.527C553.086 288.771 539.901 243.51 543.696 242.805C547.491 242.101 565.057 277.781 573.077 280.193C581.097 282.605 593.44 249.249 597.325 252.04C601.21 254.831 583.481 287.678 583.947 291.527C584.412 295.377 623.738 307.493 625.495 314.604C627.252 321.715 579.41 308.162 575.084 309.808C570.758 311.454 560.988 354.494 554.24 356.817C547.491 359.141 557.536 316.381 556.354 311.271Z" fill="url(#paint7_linear_2362_141)"/>
</g>
<path d="M531.455 297.95C530.488 300.487 534.356 301.333 534.937 299.642C535.517 297.95 531.455 296.259 531.455 297.95Z" fill="#D9D9D9"/>
<path d="M552.519 299.972C553.533 297.457 549.682 296.526 549.07 298.203C548.458 299.881 552.487 301.663 552.519 299.972Z" fill="#D9D9D9"/>
<path d="M542.363 299.745C543.377 297.231 539.525 296.299 538.914 297.977C538.302 299.655 542.331 301.436 542.363 299.745Z" fill="#D9D9D9"/>
<path d="M558.006 279.853C557.039 282.39 560.907 283.235 561.487 281.544C562.068 279.853 558.006 278.162 558.006 279.853Z" fill="#D9D9D9"/>
<path d="M552.85 269.997C551.883 272.534 555.751 273.38 556.331 271.688C556.911 269.997 552.85 268.306 552.85 269.997Z" fill="#D9D9D9"/>
<path d="M577.108 284.154C576.141 286.69 580.009 287.536 580.589 285.845C581.169 284.154 577.108 282.463 577.108 284.154Z" fill="#D9D9D9"/>
<path d="M582.022 276.583C581.055 279.12 584.923 279.965 585.503 278.274C586.083 276.583 582.022 274.892 582.022 276.583Z" fill="#D9D9D9"/>
<path d="M587.76 266.728C586.793 269.265 590.661 270.11 591.241 268.419C591.822 266.728 587.76 265.037 587.76 266.728Z" fill="#D9D9D9"/>
<path d="M586.71 305.066C589.108 305.893 589.533 301.605 587.94 301.125C586.348 300.644 585.17 305.217 586.71 305.066Z" fill="#D9D9D9"/>
<path d="M599.931 305.5C598.662 303.127 595.713 305.992 596.598 307.517C597.483 309.043 601.165 306.519 599.931 305.5Z" fill="#D9D9D9"/>
<path d="M607.193 308.747C606.226 311.284 610.095 312.13 610.675 310.438C611.255 308.747 607.193 307.056 607.193 308.747Z" fill="#D9D9D9"/>
<path d="M563.442 322.299C563.344 319.552 559.509 320.563 559.633 322.364C559.757 324.165 564.092 323.833 563.442 322.299Z" fill="#D9D9D9"/>
<path d="M569.651 308.958C573.041 313.018 577.711 306.067 575.397 303.488C573.084 300.909 566.847 307.529 569.651 308.958Z" fill="#741F5E" stroke="#D9D9D9" stroke-width="2"/>
<path d="M556.549 288.038C552.082 285.516 549.907 293.806 552.896 295.347C555.884 296.888 559.632 288.315 556.549 288.038Z" fill="#741F5E" stroke="#D9D9D9" stroke-width="2"/>
<path d="M573.033 283.815C572.366 278.367 564.904 281.166 565.46 284.727C566.016 288.288 574.591 286.737 573.033 283.815Z" fill="#741F5E" stroke="#D9D9D9" stroke-width="2"/>
<path d="M556.313 303.846C554.379 308.92 562.115 310.61 563.275 307.228C564.436 303.846 556.313 300.464 556.313 303.846Z" fill="#741F5E" stroke="#D9D9D9" stroke-width="2"/>
<path d="M580.522 296.531C581.862 291.233 573.993 290.611 573.228 294.125C572.462 297.639 580.908 299.887 580.522 296.531Z" fill="#741F5E" stroke="#D9D9D9" stroke-width="2"/>
<path d="M561.515 331.582C560.629 329.01 557.282 331.292 557.919 332.958C558.557 334.625 562.575 332.814 561.515 331.582Z" fill="#D9D9D9"/>
<path d="M559.75 342.168C559.63 339.423 555.803 340.471 555.942 342.27C556.08 344.07 560.413 343.696 559.75 342.168Z" fill="#D9D9D9"/>
<path d="M549.158 257.993C548.191 260.53 552.06 261.376 552.64 259.685C553.22 257.993 549.158 256.302 549.158 257.993Z" fill="#D9D9D9"/>
<path d="M563.222 294.643C563.104 295.091 559.36 296.105 559.537 296.617C559.715 297.128 563.739 297.327 564.018 297.722C564.296 298.117 564.46 302.263 564.957 302.304C565.454 302.345 566.421 298.351 566.98 298.117C567.54 297.884 570.329 298.512 571.171 298.117C572.014 297.722 568.209 294.643 568.209 294.643C568.209 294.643 570.043 291.272 569.798 290.534C569.554 289.796 566.123 292.606 565.752 292.588C565.381 292.57 562.662 289.225 562.139 289.429C561.615 289.633 563.341 294.194 563.222 294.643Z" fill="#D9D9D9"/>
<g filter="url(#filter8_d_2362_141)">
<path d="M871.254 271.585C869.637 284.214 892.288 281.465 902.15 286.061C912.013 290.656 885.696 296.844 871.254 301.58C856.813 306.316 874.823 340.013 864.618 349.223C854.413 358.433 849.304 322.735 842.95 307.579C836.595 292.424 793.301 321.238 783.74 307.579C774.18 293.92 816.686 293.082 824.878 281.646C833.069 270.21 809.415 242.464 817.254 238.111C821.571 235.714 830.819 257.061 838.906 265.271C846.993 273.48 864.069 222.525 874.72 223.593C885.372 224.661 873.276 255.798 871.254 271.585Z" fill="url(#paint8_linear_2362_141)"/>
</g>
<g filter="url(#filter9_d_2362_141)">
<path d="M859.618 301.124C860.8 296.014 902.884 292.877 897.991 288.567C893.097 284.258 874.076 284.136 868.482 281.381C862.887 278.625 876.072 233.363 872.277 232.659C868.482 231.955 850.916 267.635 842.896 270.046C834.876 272.458 822.532 239.103 818.648 241.893C814.763 244.684 832.491 277.531 832.026 281.381C831.56 285.23 792.235 297.347 790.478 304.458C788.721 311.568 836.563 298.016 840.889 299.662C845.215 301.308 854.985 344.347 861.733 346.671C868.482 348.994 858.437 306.235 859.618 301.124Z" fill="url(#paint9_linear_2362_141)"/>
</g>
<path d="M884.517 287.804C885.484 290.341 881.616 291.186 881.036 289.495C880.456 287.804 884.517 286.113 884.517 287.804Z" fill="#D9D9D9"/>
<path d="M863.454 289.827C862.439 287.313 866.291 286.381 866.903 288.059C867.515 289.737 863.485 291.518 863.454 289.827Z" fill="#D9D9D9"/>
<path d="M873.61 289.599C872.596 287.084 876.447 286.153 877.059 287.83C877.671 289.508 873.642 291.29 873.61 289.599Z" fill="#D9D9D9"/>
<path d="M857.967 269.708C858.934 272.245 855.065 273.09 854.485 271.399C853.905 269.708 857.967 268.017 857.967 269.708Z" fill="#D9D9D9"/>
<path d="M863.123 259.853C864.09 262.39 860.222 263.235 859.641 261.544C859.061 259.853 863.123 258.162 863.123 259.853Z" fill="#D9D9D9"/>
<path d="M838.865 274.007C839.832 276.544 835.964 277.389 835.384 275.698C834.803 274.007 838.865 272.316 838.865 274.007Z" fill="#D9D9D9"/>
<path d="M833.951 266.435C834.918 268.972 831.05 269.817 830.47 268.126C829.889 266.435 833.951 264.744 833.951 266.435Z" fill="#D9D9D9"/>
<path d="M828.213 256.579C829.18 259.116 825.312 259.962 824.731 258.27C824.151 256.579 828.213 254.888 828.213 256.579Z" fill="#D9D9D9"/>
<path d="M829.262 294.92C826.865 295.746 826.44 291.459 828.032 290.978C829.625 290.497 830.803 295.071 829.262 294.92Z" fill="#D9D9D9"/>
<path d="M816.042 295.353C817.311 292.981 820.259 295.845 819.375 297.371C818.49 298.896 814.808 296.372 816.042 295.353Z" fill="#D9D9D9"/>
<path d="M808.779 298.601C809.746 301.138 805.878 301.983 805.298 300.292C804.717 298.601 808.779 296.91 808.779 298.601Z" fill="#D9D9D9"/>
<path d="M852.531 312.15C852.629 309.404 856.463 310.415 856.34 312.216C856.216 314.017 851.88 313.685 852.531 312.15Z" fill="#D9D9D9"/>
<path d="M846.321 298.809C842.932 302.869 838.262 295.919 840.575 293.34C842.889 290.761 849.125 297.38 846.321 298.809Z" fill="#741F5E" stroke="#D9D9D9" stroke-width="2"/>
<path d="M859.424 277.892C863.891 275.369 866.065 283.659 863.077 285.201C860.089 286.742 856.34 278.169 859.424 277.892Z" fill="#741F5E" stroke="#D9D9D9" stroke-width="2"/>
<path d="M842.94 273.667C843.606 268.219 851.068 271.018 850.513 274.579C849.957 278.139 841.381 276.589 842.94 273.667Z" fill="#741F5E" stroke="#D9D9D9" stroke-width="2"/>
<path d="M859.66 293.702C861.594 298.775 853.858 300.466 852.697 297.084C851.537 293.702 859.66 290.32 859.66 293.702Z" fill="#741F5E" stroke="#D9D9D9" stroke-width="2"/>
<path d="M835.451 286.385C834.111 281.087 841.979 280.465 842.745 283.979C843.51 287.493 835.065 289.74 835.451 286.385Z" fill="#741F5E" stroke="#D9D9D9" stroke-width="2"/>
<path d="M854.458 321.438C855.344 318.866 858.691 321.148 858.053 322.814C857.416 324.48 853.398 322.669 854.458 321.438Z" fill="#D9D9D9"/>
<path d="M856.223 332.021C856.343 329.276 860.17 330.324 860.031 332.124C859.893 333.924 855.56 333.549 856.223 332.021Z" fill="#D9D9D9"/>
<path d="M866.814 247.847C867.781 250.384 863.913 251.229 863.333 249.538C862.753 247.847 866.814 246.156 866.814 247.847Z" fill="#D9D9D9"/>
<path d="M852.75 284.496C852.869 284.945 856.613 285.958 856.435 286.47C856.258 286.982 852.234 287.181 851.955 287.576C851.677 287.971 851.513 292.116 851.016 292.157C850.518 292.199 849.552 288.204 848.992 287.971C848.433 287.738 845.644 288.366 844.801 287.971C843.959 287.576 847.764 284.496 847.764 284.496C847.764 284.496 845.93 281.126 846.174 280.388C846.419 279.65 849.85 282.459 850.221 282.441C850.592 282.424 853.31 279.078 853.834 279.282C854.357 279.487 852.631 284.048 852.75 284.496Z" fill="#D9D9D9"/>
<g filter="url(#filter10_d_2362_141)">
<path d="M682.8 241.575C679.872 253.324 658.086 240.064 646.512 239.323C634.937 238.582 659.169 256.59 671.982 267.636C684.796 278.682 654.534 299.313 661.474 312.213C668.414 325.113 686.426 296.55 698.281 286.433C710.136 276.315 743.28 322.129 757.819 314.851C772.359 307.573 729.918 286.443 725.806 272.575C721.693 258.708 755.484 245.955 749.171 238.411C745.695 234.257 728.697 248.364 717.605 251.615C706.512 254.866 707.718 202.4 696.622 198.216C685.526 194.031 686.46 226.889 682.8 241.575Z" fill="url(#paint10_linear_2362_141)"/>
</g>
<g filter="url(#filter11_d_2362_141)">
<path d="M683.848 272.825C684.503 267.818 643.316 244.894 649.791 243.498C656.266 242.103 675.436 251.126 682.056 251.417C688.675 251.708 691.739 206.056 695.81 207.266C699.88 208.475 704.676 247.905 711.871 253.85C719.066 259.795 743.507 236.739 746.407 241.029C749.307 245.318 719.634 265.347 718.714 268.915C717.794 272.483 752.968 301.884 752.17 308.905C751.373 315.926 708.152 281.19 703.209 280.544C698.265 279.897 672.92 312.601 665.296 311.381C657.672 310.161 683.193 277.832 683.848 272.825Z" fill="url(#paint11_linear_2362_141)"/>
</g>
<path d="M663.61 249.3C661.722 251.04 665.307 253.631 666.501 252.44C667.694 251.249 664.22 247.831 663.61 249.3Z" fill="#D9D9D9"/>
<path d="M684.065 261.166C685.992 259.469 682.455 256.81 681.235 257.974C680.014 259.138 683.423 262.62 684.065 261.166Z" fill="#D9D9D9"/>
<path d="M673.928 256.092C675.855 254.394 672.318 251.736 671.098 252.9C669.878 254.064 673.287 257.546 673.928 256.092Z" fill="#D9D9D9"/>
<path d="M696.84 246.321C694.953 248.061 698.538 250.652 699.731 249.462C700.924 248.271 697.45 244.852 696.84 246.321Z" fill="#D9D9D9"/>
<path d="M695.203 235.284C693.316 237.024 696.901 239.615 698.094 238.424C699.288 237.234 695.813 233.815 695.203 235.284Z" fill="#D9D9D9"/>
<path d="M714.492 259.224C712.605 260.964 716.19 263.555 717.383 262.364C718.577 261.173 715.102 257.754 714.492 259.224Z" fill="#D9D9D9"/>
<path d="M722.168 255.007C720.281 256.747 723.866 259.338 725.059 258.147C726.253 256.956 722.778 253.538 722.168 255.007Z" fill="#D9D9D9"/>
<path d="M731.492 249.198C729.605 250.938 733.19 253.529 734.383 252.338C735.577 251.148 732.102 247.729 731.492 249.198Z" fill="#D9D9D9"/>
<path d="M716.606 282.002C718.719 283.87 720.692 280.35 719.264 279.167C717.836 277.985 715.002 281.393 716.606 282.002Z" fill="#D9D9D9"/>
<path d="M729.746 288.726C729.326 286.055 725.328 287.129 725.667 288.879C726.006 290.629 730.62 290.204 729.746 288.726Z" fill="#D9D9D9"/>
<path d="M735.867 295.03C733.98 296.77 737.565 299.361 738.758 298.171C739.952 296.98 736.477 293.561 735.867 295.03Z" fill="#D9D9D9"/>
<path d="M686.995 285.805C687.887 283.372 683.666 282.41 683.141 284.034C682.616 285.658 687.096 287.45 686.995 285.805Z" fill="#D9D9D9"/>
<path d="M698.051 277.197C699.995 282.351 707.198 278.553 705.802 275.202C704.405 271.851 695.747 274.609 698.051 277.197Z" fill="#741F5E" stroke="#D9D9D9" stroke-width="2"/>
<path d="M692.423 252.734C688.841 248.398 683.664 254.557 686.113 257.33C688.562 260.103 695.423 254.454 692.423 252.734Z" fill="#741F5E" stroke="#D9D9D9" stroke-width="2"/>
<path d="M710.52 256.973C711.815 251.92 703.302 250.77 702.576 254.13C701.851 257.491 711.034 260.259 710.52 256.973Z" fill="#741F5E" stroke="#D9D9D9" stroke-width="2"/>
<path d="M686.485 266.356C682.711 269.835 689.88 275.017 692.267 272.636C694.653 270.254 687.705 263.417 686.485 266.356Z" fill="#741F5E" stroke="#D9D9D9" stroke-width="2"/>
<path d="M713.466 271.617C716.724 267.657 709.036 263.34 706.999 266.026C704.963 268.711 712.644 274.718 713.466 271.617Z" fill="#741F5E" stroke="#D9D9D9" stroke-width="2"/>
<path d="M681.713 292.951C681.749 290.291 677.561 290.668 677.601 292.421C677.641 294.175 682.334 294.53 681.713 292.951Z" fill="#D9D9D9"/>
<path d="M676.114 301.297C676.983 298.854 672.757 297.928 672.247 299.558C671.737 301.188 676.229 302.942 676.114 301.297Z" fill="#D9D9D9"/>
<path d="M695.821 223.081C693.933 224.821 697.518 227.412 698.712 226.221C699.905 225.031 696.43 221.612 695.821 223.081Z" fill="#D9D9D9"/>
<path d="M696.746 261.673C696.465 262.005 692.335 261.089 692.329 261.619C692.322 262.149 696.298 264.253 696.435 264.73C696.573 265.207 695.242 268.887 695.728 269.161C696.213 269.436 698.625 266.429 699.272 266.495C699.919 266.561 702.496 268.445 703.486 268.506C704.476 268.568 701.76 264.066 701.76 264.066C701.76 264.066 704.82 262.018 704.84 261.259C704.861 260.501 700.397 261.295 700.031 261.101C699.664 260.908 698.137 256.696 697.537 256.623C696.937 256.549 697.027 261.34 696.746 261.673Z" fill="#D9D9D9"/>
<path d="M506.567 78.912C506.183 85.696 506.183 92.608 506.694 99.392C506.823 101.184 507.591 104.512 505.927 105.792C505.799 105.92 505.031 106.048 504.903 106.048C498.375 107.2 483.911 106.816 477.383 105.536C475.591 105.152 474.695 104.384 474.567 102.464C474.439 97.472 476.487 84.16 476.871 77.76C477.767 59.84 478.919 35.392 477.127 17.856C476.999 16.704 476.615 15.168 477.51 14.144C478.279 13.248 479.815 13.376 480.839 13.248C492.615 11.584 503.879 10.048 515.911 11.584C553.287 16.32 555.463 71.744 506.567 78.912ZM503.111 31.68C504.135 40.384 504.135 49.088 504.647 57.792C527.687 53.824 525.639 32.704 512.455 31.296C509.383 31.04 506.183 31.424 503.111 31.68ZM538.567 74.816C536.263 76.864 534.215 73.024 538.055 70.208C539.59 69.184 541.511 70.848 540.743 72.512C540.487 73.152 539.079 74.304 538.567 74.816ZM517.831 88.128C516.295 88.512 512.711 88.64 511.303 88C509.383 87.232 509.511 84.672 511.559 84.16C517.703 82.496 522.055 81.216 527.815 78.144C536.007 73.664 537.159 82.88 517.831 88.128ZM602.74 4.92799C602.356 9.408 596.084 5.56799 599.54 3.008C601.332 1.6 602.996 2.62399 602.74 4.92799ZM629.492 19.264C630.26 21.312 627.956 22.208 626.676 20.544C624.756 17.984 623.092 16.064 620.148 14.656C618.612 13.888 605.812 8.768 605.428 8.256C604.532 6.976 605.428 5.696 606.836 5.312C613.62 3.52 627.188 13.12 629.492 19.264ZM597.492 104C591.86 104.384 581.236 104.384 576.244 101.952C559.348 93.76 555.252 69.824 552.692 53.312C551.54 46.144 550.644 38.976 551.924 31.808C554.228 18.496 563.444 11.968 576.372 10.56C584.948 9.536 593.78 10.176 602.1 12.352C612.084 15.04 622.196 20.416 626.932 30.016C629.108 34.624 630.004 39.616 630.388 44.736C631.412 59.712 623.476 94.656 608.884 101.824C605.428 103.488 601.332 103.744 597.492 104ZM585.716 72.896C604.276 82.24 607.22 49.088 602.996 43.328C601.588 41.408 599.54 40 597.364 38.976C593.908 37.312 585.588 35.904 582.26 38.336C575.988 43.072 578.804 69.44 585.716 72.896ZM687.543 102.976C675.511 106.56 660.023 106.56 650.807 96.704C646.967 92.608 643.51 84.672 643.767 79.04C643.767 77.76 644.023 76.736 645.047 75.84C646.839 74.048 664.759 70.976 666.551 72.64C667.575 73.664 667.319 75.2 667.319 76.48C667.319 81.728 672.055 86.08 676.663 82.112C679.991 79.296 679.351 74.048 677.175 70.848C668.343 57.792 635.831 62.272 638.775 35.648C639.927 25.664 647.351 16.704 656.055 11.968C677.175 0.703995 712.375 6.464 713.783 34.88C713.911 37.568 713.527 41.408 710.711 42.432C708.279 43.328 692.919 44.352 689.591 44.352C688.311 44.352 686.263 44.352 686.263 42.56C686.263 36.288 684.599 27.84 677.047 26.816C669.623 25.792 658.359 34.368 665.911 41.152C666.807 42.048 668.087 42.56 669.239 43.072C677.559 46.4 685.623 48.704 693.175 53.824C704.183 61.12 711.991 72.256 706.487 85.824C703.287 93.76 695.735 100.544 687.543 102.976ZM684.727 100.8C688.055 101.568 697.655 93.888 699.831 91.328C701.879 88.896 702.775 85.952 703.543 82.88C703.927 81.088 704.695 77.12 703.287 75.712C702.135 74.56 699.831 74.816 699.062 76.352C698.167 78.144 699.062 83.008 696.759 86.72C692.791 93.12 685.239 94.528 683.319 96.32C681.783 97.728 682.807 100.288 684.727 100.8ZM676.279 102.208C679.479 103.36 681.143 98.368 677.943 97.216C674.615 95.936 672.951 101.056 676.279 102.208ZM745.223 105.408C741.895 107.072 742.023 97.6 741.895 95.808C740.999 80.448 739.463 50.752 741.511 36.16C735.367 36.8 728.071 38.72 722.055 38.592C720.391 38.592 719.623 37.312 719.111 35.904C718.343 33.472 718.727 11.968 719.495 9.66399C719.879 8.63999 720.391 7.616 721.286 7.104C722.695 6.20799 726.407 6.71999 728.071 6.976C748.551 9.536 769.287 7.616 789.895 9.536C792.455 9.79199 792.839 10.176 794.119 12.224C794.119 17.088 794.247 32.192 790.919 35.264C789.127 36.928 786.311 36.928 784.007 36.928C779.911 36.928 775.943 36.544 771.847 37.056C771.975 58.176 773.383 79.04 774.279 100.16C774.279 100.928 774.279 102.848 773.639 103.36C772.999 103.872 770.823 104 769.927 104C765.191 104 747.143 105.664 745.223 105.408ZM753.799 18.368C754.694 18.624 779.527 17.088 780.039 16.832C781.702 15.808 781.319 12.736 779.527 12.096C778.887 11.84 754.183 13.248 753.159 13.888C751.495 15.04 751.751 17.728 753.799 18.368ZM785.671 17.088C787.079 18.24 789.127 17.344 789.639 15.68C791.559 9.66399 780.807 13.248 785.671 17.088ZM826.801 79.168C829.873 79.552 833.585 79.552 836.785 79.424C842.289 79.168 847.921 78.016 853.169 76.48C854.705 76.096 856.625 75.2 858.161 74.944C859.825 74.688 859.697 76.864 859.825 78.016C860.209 80.704 861.873 96.96 861.233 98.24C860.849 99.264 859.569 99.776 858.673 100.16C845.489 105.92 820.145 108.224 808.369 98.368C800.177 91.584 800.817 76.864 801.201 67.136C801.457 61.632 804.529 18.624 806.577 17.344C809.649 15.424 856.625 9.66399 859.312 11.2C860.337 11.712 860.721 12.608 860.849 13.76C861.233 16.832 861.233 37.952 859.825 39.104C858.161 39.744 833.585 39.488 828.849 39.872L828.593 40.384L827.697 50.624C830.769 50.624 844.977 50.24 846.641 50.624C848.305 51.008 848.049 63.552 847.665 65.728C847.537 66.368 846.769 66.88 846.257 67.136C839.345 67.776 832.561 67.776 825.649 67.392C825.777 71.36 825.905 75.328 826.801 79.168ZM859.697 107.968C855.089 111.296 853.809 104.768 858.417 105.408C859.569 105.536 860.977 106.944 859.697 107.968ZM834.353 114.112C830.129 114.624 825.521 114.24 821.425 113.088C819.761 112.576 815.153 110.4 814.385 108.992C813.873 107.968 814.257 106.304 815.537 106.176C815.793 106.176 821.041 108.224 821.937 108.48C826.545 109.888 831.409 110.656 836.273 110.272C841.137 109.888 845.617 108.48 850.353 107.584C852.657 107.072 853.425 109.504 851.249 110.4C846.129 112.32 839.729 113.472 834.353 114.112ZM926.985 12.48C926.217 12.736 924.169 11.968 923.401 11.84C914.057 9.66399 903.177 12.224 893.577 11.2C892.041 11.072 892.041 8.896 893.065 8.128C893.833 7.488 896.393 7.23199 897.417 7.23199C902.921 6.976 908.297 6.464 913.801 6.976C915.721 7.104 925.961 8.768 927.241 9.79199C928.137 10.56 928.265 12.096 926.985 12.48ZM937.609 18.752C938.249 21.568 935.305 21.184 933.896 19.776C931.081 17.088 936.713 14.144 937.609 18.752ZM901.641 80.96C901.897 86.848 901.897 92.864 902.153 98.752C902.281 100.928 902.921 104.896 900.104 105.536C898.185 105.92 877.449 106.304 875.657 105.664C875.017 105.408 874.505 104.896 874.377 104.256C873.353 99.264 874.633 91.84 874.76 86.72C874.889 77.248 875.145 31.552 871.561 24.128C870.281 21.568 875.145 21.056 876.809 20.672C887.049 18.112 897.545 16.064 908.169 16.576C920.841 17.088 935.561 21.952 939.785 35.52C944.521 50.88 931.849 64.96 918.281 69.952C925.705 76.608 934.409 82.112 942.857 87.36C947.081 89.92 931.209 105.024 926.473 104.896C920.841 104.768 905.225 85.952 901.641 80.96ZM898.441 35.136C899.721 41.408 899.593 47.808 900.233 54.08C925.705 50.496 923.017 30.272 898.441 35.136Z" fill="white"/>
<path d="M366.847 133L365.387 138.68H362.047L364.427 133H366.847ZM371.127 133L369.667 138.68H366.327L368.707 133H371.127ZM375.745 144.96H377.905C378.451 144.96 378.958 144.86 379.425 144.66C379.905 144.46 380.325 144.18 380.685 143.82C381.045 143.46 381.325 143.047 381.525 142.58C381.725 142.1 381.825 141.587 381.825 141.04C381.825 140.48 381.725 139.96 381.525 139.48C381.325 138.987 381.045 138.56 380.685 138.2C380.325 137.84 379.905 137.56 379.425 137.36C378.958 137.147 378.451 137.04 377.905 137.04H375.745V144.96ZM372.305 148V134H377.985C379.025 134 379.991 134.18 380.885 134.54C381.778 134.9 382.558 135.4 383.225 136.04C383.905 136.68 384.431 137.427 384.805 138.28C385.191 139.133 385.385 140.053 385.385 141.04C385.385 142.013 385.191 142.92 384.805 143.76C384.431 144.6 383.905 145.34 383.225 145.98C382.558 146.607 381.778 147.1 380.885 147.46C379.991 147.82 379.025 148 377.985 148H372.305ZM387.047 148V137.42H390.287V148H387.047ZM388.667 136.44C388.174 136.44 387.754 136.267 387.407 135.92C387.06 135.573 386.887 135.153 386.887 134.66C386.887 134.167 387.06 133.747 387.407 133.4C387.754 133.053 388.174 132.88 388.667 132.88C389.16 132.88 389.58 133.053 389.927 133.4C390.274 133.747 390.447 134.167 390.447 134.66C390.447 135.153 390.274 135.573 389.927 135.92C389.58 136.267 389.16 136.44 388.667 136.44ZM397.681 152.28C396.828 152.28 396.015 152.2 395.241 152.04C394.481 151.88 393.788 151.653 393.161 151.36L394.241 148.84C394.815 149.107 395.381 149.307 395.941 149.44C396.501 149.573 397.061 149.64 397.621 149.64C398.381 149.64 398.955 149.487 399.341 149.18C399.728 148.873 399.921 148.413 399.921 147.8V147.2C399.095 147.76 398.181 148.04 397.181 148.04C396.181 148.04 395.275 147.8 394.461 147.32C393.648 146.84 393.001 146.193 392.521 145.38C392.041 144.553 391.801 143.64 391.801 142.64C391.801 141.64 392.041 140.733 392.521 139.92C393.015 139.107 393.675 138.467 394.501 138C395.341 137.52 396.275 137.28 397.301 137.28C397.781 137.28 398.248 137.34 398.701 137.46C399.155 137.58 399.575 137.753 399.961 137.98V137.42H403.161V147.84C403.161 149.267 402.688 150.36 401.741 151.12C400.808 151.893 399.455 152.28 397.681 152.28ZM397.741 145.32C398.181 145.32 398.581 145.253 398.941 145.12C399.315 144.987 399.641 144.793 399.921 144.54V140.8C399.641 140.56 399.315 140.373 398.941 140.24C398.581 140.093 398.188 140.02 397.761 140.02C397.241 140.02 396.768 140.14 396.341 140.38C395.928 140.607 395.595 140.92 395.341 141.32C395.101 141.707 394.981 142.147 394.981 142.64C394.981 143.147 395.101 143.607 395.341 144.02C395.581 144.42 395.908 144.74 396.321 144.98C396.748 145.207 397.221 145.32 397.741 145.32ZM405.152 148V137.42H408.392V148H405.152ZM406.772 136.44C406.279 136.44 405.859 136.267 405.512 135.92C405.166 135.573 404.992 135.153 404.992 134.66C404.992 134.167 405.166 133.747 405.512 133.4C405.859 133.053 406.279 132.88 406.772 132.88C407.266 132.88 407.686 133.053 408.032 133.4C408.379 133.747 408.552 134.167 408.552 134.66C408.552 135.153 408.379 135.573 408.032 135.92C407.686 136.267 407.266 136.44 406.772 136.44ZM415.727 148.14C414.46 148.14 413.5 147.86 412.847 147.3C412.207 146.727 411.887 145.887 411.887 144.78V140.12H409.747V137.42H411.887V134.7L415.127 134V137.42H418.087V140.12H415.127V144.14C415.127 144.607 415.227 144.94 415.427 145.14C415.64 145.327 416.007 145.42 416.527 145.42C416.793 145.42 417.033 145.407 417.247 145.38C417.473 145.34 417.72 145.28 417.987 145.2V147.82C417.693 147.913 417.32 147.987 416.867 148.04C416.413 148.107 416.033 148.14 415.727 148.14ZM422.732 148.18C421.985 148.18 421.318 148.04 420.732 147.76C420.158 147.48 419.705 147.093 419.372 146.6C419.052 146.107 418.892 145.54 418.892 144.9C418.892 143.887 419.272 143.107 420.032 142.56C420.805 142 421.878 141.72 423.252 141.72C424.078 141.72 424.878 141.82 425.652 142.02V141.5C425.652 140.967 425.478 140.573 425.132 140.32C424.798 140.053 424.298 139.92 423.632 139.92C423.218 139.92 422.752 139.987 422.232 140.12C421.725 140.253 421.125 140.467 420.432 140.76L419.272 138.38C420.138 137.993 420.972 137.707 421.772 137.52C422.585 137.32 423.398 137.22 424.212 137.22C425.678 137.22 426.818 137.573 427.632 138.28C428.445 138.973 428.852 139.953 428.852 141.22V148H425.652V147.36C425.225 147.653 424.772 147.867 424.292 148C423.825 148.12 423.305 148.18 422.732 148.18ZM421.972 144.84C421.972 145.173 422.118 145.433 422.412 145.62C422.705 145.807 423.112 145.9 423.632 145.9C424.018 145.9 424.378 145.86 424.712 145.78C425.058 145.7 425.372 145.573 425.652 145.4V144.04C425.345 143.96 425.032 143.9 424.712 143.86C424.392 143.82 424.065 143.8 423.732 143.8C423.172 143.8 422.738 143.893 422.432 144.08C422.125 144.253 421.972 144.507 421.972 144.84ZM430.777 148V134L434.017 133.5V148H430.777ZM440.078 148V134H451.118V136.98H443.518V139.5H448.538V142.38H443.518V145.02H451.198V148H440.078ZM453.063 148V137.42H456.303V138.14C457.103 137.527 458.049 137.22 459.143 137.22C459.969 137.22 460.696 137.4 461.323 137.76C461.963 138.12 462.463 138.62 462.823 139.26C463.183 139.9 463.362 140.64 463.362 141.48V148H460.123V141.92C460.123 141.333 459.949 140.867 459.603 140.52C459.256 140.173 458.789 140 458.203 140C457.789 140 457.423 140.073 457.103 140.22C456.796 140.367 456.529 140.573 456.303 140.84V148H453.063ZM470.336 148.14C469.069 148.14 468.109 147.86 467.456 147.3C466.816 146.727 466.496 145.887 466.496 144.78V140.12H464.356V137.42H466.496V134.7L469.736 134V137.42H472.696V140.12H469.736V144.14C469.736 144.607 469.836 144.94 470.036 145.14C470.249 145.327 470.616 145.42 471.136 145.42C471.403 145.42 471.643 145.407 471.856 145.38C472.083 145.34 472.329 145.28 472.596 145.2V147.82C472.303 147.913 471.929 147.987 471.476 148.04C471.023 148.107 470.643 148.14 470.336 148.14ZM473.961 148V137.42H477.201V138.48C477.548 138.053 477.954 137.733 478.421 137.52C478.888 137.293 479.408 137.18 479.981 137.18C480.554 137.193 480.961 137.28 481.201 137.44V140.26C480.988 140.153 480.748 140.073 480.481 140.02C480.214 139.967 479.941 139.94 479.661 139.94C479.154 139.94 478.681 140.06 478.241 140.3C477.814 140.527 477.468 140.853 477.201 141.28V148H473.961ZM487.581 148.2C486.501 148.2 485.521 147.96 484.641 147.48C483.774 146.987 483.087 146.327 482.581 145.5C482.074 144.673 481.821 143.747 481.821 142.72C481.821 141.693 482.061 140.767 482.541 139.94C483.034 139.113 483.701 138.46 484.541 137.98C485.381 137.487 486.314 137.24 487.341 137.24C488.381 137.24 489.301 137.493 490.101 138C490.901 138.493 491.527 139.173 491.981 140.04C492.447 140.907 492.681 141.9 492.681 143.02V143.82H485.141C485.287 144.153 485.481 144.447 485.721 144.7C485.974 144.953 486.274 145.153 486.621 145.3C486.967 145.433 487.341 145.5 487.741 145.5C488.181 145.5 488.581 145.433 488.941 145.3C489.301 145.153 489.607 144.953 489.861 144.7L492.001 146.6C491.334 147.16 490.647 147.567 489.941 147.82C489.247 148.073 488.461 148.2 487.581 148.2ZM485.081 141.56H489.501C489.394 141.213 489.227 140.92 489.001 140.68C488.787 140.427 488.534 140.233 488.241 140.1C487.947 139.953 487.627 139.88 487.281 139.88C486.921 139.88 486.594 139.947 486.301 140.08C486.007 140.213 485.754 140.407 485.541 140.66C485.341 140.9 485.187 141.2 485.081 141.56ZM494.195 152.08V137.42H497.395V138.2C498.235 137.587 499.182 137.28 500.235 137.28C501.249 137.28 502.162 137.527 502.975 138.02C503.789 138.5 504.435 139.153 504.915 139.98C505.395 140.793 505.635 141.707 505.635 142.72C505.635 143.733 505.389 144.653 504.895 145.48C504.415 146.293 503.755 146.94 502.915 147.42C502.089 147.9 501.162 148.14 500.135 148.14C499.642 148.14 499.169 148.08 498.715 147.96C498.262 147.84 497.835 147.667 497.435 147.44V152.08H494.195ZM499.675 145.4C500.209 145.4 500.682 145.287 501.095 145.06C501.509 144.82 501.835 144.5 502.075 144.1C502.329 143.687 502.455 143.227 502.455 142.72C502.455 142.213 502.329 141.76 502.075 141.36C501.835 140.947 501.502 140.627 501.075 140.4C500.662 140.16 500.195 140.04 499.675 140.04C499.222 140.04 498.809 140.113 498.435 140.26C498.062 140.393 497.729 140.6 497.435 140.88V144.58C497.715 144.833 498.049 145.033 498.435 145.18C498.822 145.327 499.235 145.4 499.675 145.4ZM507.164 148V137.42H510.404V138.48C510.751 138.053 511.157 137.733 511.624 137.52C512.091 137.293 512.611 137.18 513.184 137.18C513.757 137.193 514.164 137.28 514.404 137.44V140.26C514.191 140.153 513.951 140.073 513.684 140.02C513.417 139.967 513.144 139.94 512.864 139.94C512.357 139.94 511.884 140.06 511.444 140.3C511.017 140.527 510.671 140.853 510.404 141.28V148H507.164ZM520.784 148.2C519.704 148.2 518.724 147.96 517.844 147.48C516.977 146.987 516.291 146.327 515.784 145.5C515.277 144.673 515.024 143.747 515.024 142.72C515.024 141.693 515.264 140.767 515.744 139.94C516.237 139.113 516.904 138.46 517.744 137.98C518.584 137.487 519.517 137.24 520.544 137.24C521.584 137.24 522.504 137.493 523.304 138C524.104 138.493 524.731 139.173 525.184 140.04C525.651 140.907 525.884 141.9 525.884 143.02V143.82H518.344C518.491 144.153 518.684 144.447 518.924 144.7C519.177 144.953 519.477 145.153 519.824 145.3C520.171 145.433 520.544 145.5 520.944 145.5C521.384 145.5 521.784 145.433 522.144 145.3C522.504 145.153 522.811 144.953 523.064 144.7L525.204 146.6C524.537 147.16 523.851 147.567 523.144 147.82C522.451 148.073 521.664 148.2 520.784 148.2ZM518.284 141.56H522.704C522.597 141.213 522.431 140.92 522.204 140.68C521.991 140.427 521.737 140.233 521.444 140.1C521.151 139.953 520.831 139.88 520.484 139.88C520.124 139.88 519.797 139.947 519.504 140.08C519.211 140.213 518.957 140.407 518.744 140.66C518.544 140.9 518.391 141.2 518.284 141.56ZM527.398 148V137.42H530.638V138.14C531.438 137.527 532.385 137.22 533.478 137.22C534.305 137.22 535.032 137.4 535.658 137.76C536.298 138.12 536.798 138.62 537.158 139.26C537.518 139.9 537.698 140.64 537.698 141.48V148H534.458V141.92C534.458 141.333 534.285 140.867 533.938 140.52C533.592 140.173 533.125 140 532.538 140C532.125 140 531.758 140.073 531.438 140.22C531.132 140.367 530.865 140.573 530.638 140.84V148H527.398ZM544.905 148.2C543.825 148.2 542.845 147.96 541.965 147.48C541.098 146.987 540.412 146.327 539.905 145.5C539.398 144.673 539.145 143.747 539.145 142.72C539.145 141.693 539.385 140.767 539.865 139.94C540.358 139.113 541.025 138.46 541.865 137.98C542.705 137.487 543.638 137.24 544.665 137.24C545.705 137.24 546.625 137.493 547.425 138C548.225 138.493 548.852 139.173 549.305 140.04C549.772 140.907 550.005 141.9 550.005 143.02V143.82H542.465C542.612 144.153 542.805 144.447 543.045 144.7C543.298 144.953 543.598 145.153 543.945 145.3C544.292 145.433 544.665 145.5 545.065 145.5C545.505 145.5 545.905 145.433 546.265 145.3C546.625 145.153 546.932 144.953 547.185 144.7L549.325 146.6C548.658 147.16 547.972 147.567 547.265 147.82C546.572 148.073 545.785 148.2 544.905 148.2ZM542.405 141.56H546.825C546.718 141.213 546.552 140.92 546.325 140.68C546.112 140.427 545.858 140.233 545.565 140.1C545.272 139.953 544.952 139.88 544.605 139.88C544.245 139.88 543.918 139.947 543.625 140.08C543.332 140.213 543.078 140.407 542.865 140.66C542.665 140.9 542.512 141.2 542.405 141.56ZM555.66 148.2C554.833 148.2 554.1 148.02 553.46 147.66C552.833 147.3 552.34 146.8 551.98 146.16C551.62 145.507 551.44 144.767 551.44 143.94V137.42H554.68V143.5C554.68 144.073 554.853 144.54 555.2 144.9C555.56 145.247 556.026 145.42 556.6 145.42C557.013 145.42 557.38 145.347 557.7 145.2C558.02 145.053 558.286 144.847 558.5 144.58V137.42H561.74V148H558.5V147.28C557.7 147.893 556.753 148.2 555.66 148.2ZM563.746 148V137.42H566.986V138.48C567.333 138.053 567.739 137.733 568.206 137.52C568.673 137.293 569.193 137.18 569.766 137.18C570.339 137.193 570.746 137.28 570.986 137.44V140.26C570.773 140.153 570.533 140.073 570.266 140.02C569.999 139.967 569.726 139.94 569.446 139.94C568.939 139.94 568.466 140.06 568.026 140.3C567.599 140.527 567.253 140.853 566.986 141.28V148H563.746ZM576.774 148.2C575.774 148.2 574.847 148.087 573.994 147.86C573.14 147.62 572.4 147.273 571.774 146.82L573.314 144.64C573.98 145.04 574.587 145.333 575.134 145.52C575.68 145.693 576.22 145.78 576.754 145.78C577.287 145.78 577.707 145.707 578.014 145.56C578.334 145.4 578.494 145.193 578.494 144.94C578.494 144.74 578.407 144.58 578.234 144.46C578.06 144.327 577.787 144.233 577.414 144.18L575.314 143.86C574.26 143.7 573.454 143.353 572.894 142.82C572.347 142.273 572.074 141.567 572.074 140.7C572.074 139.98 572.254 139.367 572.614 138.86C572.987 138.34 573.514 137.947 574.194 137.68C574.874 137.4 575.687 137.26 576.634 137.26C577.407 137.26 578.174 137.367 578.934 137.58C579.694 137.793 580.4 138.113 581.054 138.54L579.514 140.62C578.94 140.287 578.394 140.047 577.874 139.9C577.354 139.74 576.834 139.66 576.314 139.66C575.9 139.66 575.567 139.733 575.314 139.88C575.06 140.013 574.934 140.193 574.934 140.42C574.934 140.633 575.027 140.807 575.214 140.94C575.4 141.06 575.72 141.153 576.174 141.22L578.274 141.54C579.314 141.687 580.114 142.033 580.674 142.58C581.247 143.113 581.534 143.793 581.534 144.62C581.534 145.313 581.327 145.927 580.914 146.46C580.5 146.993 579.934 147.42 579.214 147.74C578.507 148.047 577.694 148.2 576.774 148.2ZM582.77 148V134L586.01 133.3V138.14C586.81 137.527 587.756 137.22 588.85 137.22C589.676 137.22 590.403 137.4 591.03 137.76C591.67 138.12 592.17 138.62 592.53 139.26C592.89 139.9 593.07 140.64 593.07 141.48V148H589.83V141.92C589.83 141.333 589.656 140.867 589.31 140.52C588.963 140.173 588.496 140 587.91 140C587.496 140 587.13 140.073 586.81 140.22C586.503 140.367 586.236 140.573 586.01 140.84V148H582.77ZM594.996 148V137.42H598.236V148H594.996ZM596.616 136.44C596.123 136.44 595.703 136.267 595.356 135.92C595.009 135.573 594.836 135.153 594.836 134.66C594.836 134.167 595.009 133.747 595.356 133.4C595.703 133.053 596.123 132.88 596.616 132.88C597.109 132.88 597.529 133.053 597.876 133.4C598.223 133.747 598.396 134.167 598.396 134.66C598.396 135.153 598.223 135.573 597.876 135.92C597.529 136.267 597.109 136.44 596.616 136.44ZM600.23 152.08V137.42H603.43V138.2C604.27 137.587 605.217 137.28 606.27 137.28C607.284 137.28 608.197 137.527 609.01 138.02C609.824 138.5 610.47 139.153 610.95 139.98C611.43 140.793 611.67 141.707 611.67 142.72C611.67 143.733 611.424 144.653 610.93 145.48C610.45 146.293 609.79 146.94 608.95 147.42C608.124 147.9 607.197 148.14 606.17 148.14C605.677 148.14 605.204 148.08 604.75 147.96C604.297 147.84 603.87 147.667 603.47 147.44V152.08H600.23ZM605.71 145.4C606.244 145.4 606.717 145.287 607.13 145.06C607.544 144.82 607.87 144.5 608.11 144.1C608.364 143.687 608.49 143.227 608.49 142.72C608.49 142.213 608.364 141.76 608.11 141.36C607.87 140.947 607.537 140.627 607.11 140.4C606.697 140.16 606.23 140.04 605.71 140.04C605.257 140.04 604.844 140.113 604.47 140.26C604.097 140.393 603.764 140.6 603.47 140.88V144.58C603.75 144.833 604.084 145.033 604.47 145.18C604.857 145.327 605.27 145.4 605.71 145.4ZM614.699 148.22C614.193 148.22 613.753 148.04 613.379 147.68C613.019 147.307 612.839 146.867 612.839 146.36C612.839 145.853 613.019 145.42 613.379 145.06C613.753 144.687 614.193 144.5 614.699 144.5C615.206 144.5 615.639 144.687 615.999 145.06C616.373 145.42 616.559 145.853 616.559 146.36C616.559 146.867 616.373 147.307 615.999 147.68C615.639 148.04 615.206 148.22 614.699 148.22ZM614.699 140.96C614.193 140.96 613.753 140.78 613.379 140.42C613.019 140.047 612.839 139.607 612.839 139.1C612.839 138.593 613.019 138.16 613.379 137.8C613.753 137.427 614.193 137.24 614.699 137.24C615.206 137.24 615.639 137.427 615.999 137.8C616.373 138.16 616.559 138.593 616.559 139.1C616.559 139.607 616.373 140.047 615.999 140.42C615.639 140.78 615.206 140.96 614.699 140.96ZM622.265 148V134H629.205C630.165 134 631.005 134.167 631.725 134.5C632.459 134.833 633.032 135.3 633.445 135.9C633.859 136.487 634.065 137.167 634.065 137.94C634.065 138.513 633.919 139.053 633.625 139.56C633.345 140.053 632.959 140.473 632.465 140.82C633.092 141.153 633.585 141.587 633.945 142.12C634.319 142.653 634.505 143.24 634.505 143.88C634.505 144.693 634.299 145.413 633.885 146.04C633.472 146.653 632.892 147.133 632.145 147.48C631.399 147.827 630.532 148 629.545 148H622.265ZM625.705 139.58H628.985C629.492 139.58 629.892 139.453 630.185 139.2C630.479 138.947 630.625 138.613 630.625 138.2C630.625 137.773 630.479 137.44 630.185 137.2C629.892 136.947 629.492 136.82 628.985 136.82H625.705V139.58ZM625.705 145.18H629.285C629.819 145.18 630.239 145.047 630.545 144.78C630.865 144.513 631.025 144.153 631.025 143.7C631.025 143.247 630.865 142.887 630.545 142.62C630.239 142.353 629.819 142.22 629.285 142.22H625.705V145.18ZM640.152 148.2C639.325 148.2 638.592 148.02 637.952 147.66C637.325 147.3 636.832 146.8 636.472 146.16C636.112 145.507 635.932 144.767 635.932 143.94V137.42H639.172V143.5C639.172 144.073 639.345 144.54 639.692 144.9C640.052 145.247 640.518 145.42 641.092 145.42C641.505 145.42 641.872 145.347 642.192 145.2C642.512 145.053 642.778 144.847 642.992 144.58V137.42H646.232V148H642.992V147.28C642.192 147.893 641.245 148.2 640.152 148.2ZM648.238 148V137.42H651.478V148H648.238ZM649.858 136.44C649.365 136.44 648.945 136.267 648.598 135.92C648.252 135.573 648.078 135.153 648.078 134.66C648.078 134.167 648.252 133.747 648.598 133.4C648.945 133.053 649.365 132.88 649.858 132.88C650.352 132.88 650.772 133.053 651.118 133.4C651.465 133.747 651.638 134.167 651.638 134.66C651.638 135.153 651.465 135.573 651.118 135.92C650.772 136.267 650.352 136.44 649.858 136.44ZM653.473 148V134L656.713 133.5V148H653.473ZM663.627 148.14C662.627 148.14 661.714 147.9 660.887 147.42C660.074 146.927 659.427 146.273 658.947 145.46C658.467 144.633 658.227 143.713 658.227 142.7C658.227 141.687 658.467 140.773 658.947 139.96C659.44 139.133 660.1 138.48 660.927 138C661.767 137.52 662.7 137.28 663.727 137.28C664.22 137.28 664.694 137.34 665.147 137.46C665.6 137.58 666.027 137.753 666.427 137.98V134L669.667 133.5V148H666.467V147.22C665.627 147.833 664.68 148.14 663.627 148.14ZM664.187 145.38C664.64 145.38 665.054 145.313 665.427 145.18C665.8 145.033 666.134 144.82 666.427 144.54V140.84C666.147 140.573 665.814 140.373 665.427 140.24C665.04 140.093 664.627 140.02 664.187 140.02C663.667 140.02 663.194 140.14 662.767 140.38C662.354 140.607 662.02 140.927 661.767 141.34C661.527 141.74 661.407 142.193 661.407 142.7C661.407 143.207 661.527 143.667 661.767 144.08C662.02 144.48 662.354 144.8 662.767 145.04C663.194 145.267 663.667 145.38 664.187 145.38ZM671.676 148V137.42H674.916V148H671.676ZM673.296 136.44C672.802 136.44 672.382 136.267 672.036 135.92C671.689 135.573 671.516 135.153 671.516 134.66C671.516 134.167 671.689 133.747 672.036 133.4C672.382 133.053 672.802 132.88 673.296 132.88C673.789 132.88 674.209 133.053 674.556 133.4C674.902 133.747 675.076 134.167 675.076 134.66C675.076 135.153 674.902 135.573 674.556 135.92C674.209 136.267 673.789 136.44 673.296 136.44ZM676.91 148V137.42H680.15V138.14C680.95 137.527 681.897 137.22 682.99 137.22C683.817 137.22 684.543 137.4 685.17 137.76C685.81 138.12 686.31 138.62 686.67 139.26C687.03 139.9 687.21 140.64 687.21 141.48V148H683.97V141.92C683.97 141.333 683.797 140.867 683.45 140.52C683.103 140.173 682.637 140 682.05 140C681.637 140 681.27 140.073 680.95 140.22C680.643 140.367 680.377 140.573 680.15 140.84V148H676.91ZM694.537 152.28C693.683 152.28 692.87 152.2 692.097 152.04C691.337 151.88 690.643 151.653 690.017 151.36L691.097 148.84C691.67 149.107 692.237 149.307 692.797 149.44C693.357 149.573 693.917 149.64 694.477 149.64C695.237 149.64 695.81 149.487 696.197 149.18C696.583 148.873 696.777 148.413 696.777 147.8V147.2C695.95 147.76 695.037 148.04 694.037 148.04C693.037 148.04 692.13 147.8 691.317 147.32C690.503 146.84 689.857 146.193 689.377 145.38C688.897 144.553 688.657 143.64 688.657 142.64C688.657 141.64 688.897 140.733 689.377 139.92C689.87 139.107 690.53 138.467 691.357 138C692.197 137.52 693.13 137.28 694.157 137.28C694.637 137.28 695.103 137.34 695.557 137.46C696.01 137.58 696.43 137.753 696.817 137.98V137.42H700.017V147.84C700.017 149.267 699.543 150.36 698.597 151.12C697.663 151.893 696.31 152.28 694.537 152.28ZM694.597 145.32C695.037 145.32 695.437 145.253 695.797 145.12C696.17 144.987 696.497 144.793 696.777 144.54V140.8C696.497 140.56 696.17 140.373 695.797 140.24C695.437 140.093 695.043 140.02 694.617 140.02C694.097 140.02 693.623 140.14 693.197 140.38C692.783 140.607 692.45 140.92 692.197 141.32C691.957 141.707 691.837 142.147 691.837 142.64C691.837 143.147 691.957 143.607 692.197 144.02C692.437 144.42 692.763 144.74 693.177 144.98C693.603 145.207 694.077 145.32 694.597 145.32ZM709.294 148.18C708.547 148.18 707.881 148.04 707.294 147.76C706.721 147.48 706.267 147.093 705.934 146.6C705.614 146.107 705.454 145.54 705.454 144.9C705.454 143.887 705.834 143.107 706.594 142.56C707.367 142 708.441 141.72 709.814 141.72C710.641 141.72 711.441 141.82 712.214 142.02V141.5C712.214 140.967 712.041 140.573 711.694 140.32C711.361 140.053 710.861 139.92 710.194 139.92C709.781 139.92 709.314 139.987 708.794 140.12C708.287 140.253 707.687 140.467 706.994 140.76L705.834 138.38C706.701 137.993 707.534 137.707 708.334 137.52C709.147 137.32 709.961 137.22 710.774 137.22C712.241 137.22 713.381 137.573 714.194 138.28C715.007 138.973 715.414 139.953 715.414 141.22V148H712.214V147.36C711.787 147.653 711.334 147.867 710.854 148C710.387 148.12 709.867 148.18 709.294 148.18ZM708.534 144.84C708.534 145.173 708.681 145.433 708.974 145.62C709.267 145.807 709.674 145.9 710.194 145.9C710.581 145.9 710.941 145.86 711.274 145.78C711.621 145.7 711.934 145.573 712.214 145.4V144.04C711.907 143.96 711.594 143.9 711.274 143.86C710.954 143.82 710.627 143.8 710.294 143.8C709.734 143.8 709.301 143.893 708.994 144.08C708.687 144.253 708.534 144.507 708.534 144.84ZM721.406 148V134H728.346C729.306 134 730.146 134.167 730.866 134.5C731.599 134.833 732.173 135.3 732.586 135.9C732.999 136.487 733.206 137.167 733.206 137.94C733.206 138.513 733.059 139.053 732.766 139.56C732.486 140.053 732.099 140.473 731.606 140.82C732.233 141.153 732.726 141.587 733.086 142.12C733.459 142.653 733.646 143.24 733.646 143.88C733.646 144.693 733.439 145.413 733.026 146.04C732.613 146.653 732.033 147.133 731.286 147.48C730.539 147.827 729.673 148 728.686 148H721.406ZM724.846 139.58H728.126C728.633 139.58 729.033 139.453 729.326 139.2C729.619 138.947 729.766 138.613 729.766 138.2C729.766 137.773 729.619 137.44 729.326 137.2C729.033 136.947 728.633 136.82 728.126 136.82H724.846V139.58ZM724.846 145.18H728.426C728.959 145.18 729.379 145.047 729.686 144.78C730.006 144.513 730.166 144.153 730.166 143.7C730.166 143.247 730.006 142.887 729.686 142.62C729.379 142.353 728.959 142.22 728.426 142.22H724.846V145.18ZM739.292 148.2C738.466 148.2 737.732 148.02 737.092 147.66C736.466 147.3 735.972 146.8 735.612 146.16C735.252 145.507 735.072 144.767 735.072 143.94V137.42H738.312V143.5C738.312 144.073 738.486 144.54 738.832 144.9C739.192 145.247 739.659 145.42 740.232 145.42C740.646 145.42 741.012 145.347 741.332 145.2C741.652 145.053 741.919 144.847 742.132 144.58V137.42H745.372V148H742.132V147.28C741.332 147.893 740.386 148.2 739.292 148.2ZM751.559 148.2C750.559 148.2 749.632 148.087 748.779 147.86C747.926 147.62 747.186 147.273 746.559 146.82L748.099 144.64C748.766 145.04 749.372 145.333 749.919 145.52C750.466 145.693 751.006 145.78 751.539 145.78C752.072 145.78 752.492 145.707 752.799 145.56C753.119 145.4 753.279 145.193 753.279 144.94C753.279 144.74 753.192 144.58 753.019 144.46C752.846 144.327 752.572 144.233 752.199 144.18L750.099 143.86C749.046 143.7 748.239 143.353 747.679 142.82C747.132 142.273 746.859 141.567 746.859 140.7C746.859 139.98 747.039 139.367 747.399 138.86C747.772 138.34 748.299 137.947 748.979 137.68C749.659 137.4 750.472 137.26 751.419 137.26C752.192 137.26 752.959 137.367 753.719 137.58C754.479 137.793 755.186 138.113 755.839 138.54L754.299 140.62C753.726 140.287 753.179 140.047 752.659 139.9C752.139 139.74 751.619 139.66 751.099 139.66C750.686 139.66 750.352 139.733 750.099 139.88C749.846 140.013 749.719 140.193 749.719 140.42C749.719 140.633 749.812 140.807 749.999 140.94C750.186 141.06 750.506 141.153 750.959 141.22L753.059 141.54C754.099 141.687 754.899 142.033 755.459 142.58C756.032 143.113 756.319 143.793 756.319 144.62C756.319 145.313 756.112 145.927 755.699 146.46C755.286 146.993 754.719 147.42 753.999 147.74C753.292 148.047 752.479 148.2 751.559 148.2ZM757.555 148V137.42H760.795V148H757.555ZM759.175 136.44C758.681 136.44 758.261 136.267 757.915 135.92C757.568 135.573 757.395 135.153 757.395 134.66C757.395 134.167 757.568 133.747 757.915 133.4C758.261 133.053 758.681 132.88 759.175 132.88C759.668 132.88 760.088 133.053 760.435 133.4C760.781 133.747 760.955 134.167 760.955 134.66C760.955 135.153 760.781 135.573 760.435 135.92C760.088 136.267 759.668 136.44 759.175 136.44ZM762.789 148V137.42H766.029V138.14C766.829 137.527 767.776 137.22 768.869 137.22C769.696 137.22 770.422 137.4 771.049 137.76C771.689 138.12 772.189 138.62 772.549 139.26C772.909 139.9 773.089 140.64 773.089 141.48V148H769.849V141.92C769.849 141.333 769.676 140.867 769.329 140.52C768.982 140.173 768.516 140 767.929 140C767.516 140 767.149 140.073 766.829 140.22C766.522 140.367 766.256 140.573 766.029 140.84V148H762.789ZM780.296 148.2C779.216 148.2 778.236 147.96 777.356 147.48C776.489 146.987 775.802 146.327 775.296 145.5C774.789 144.673 774.536 143.747 774.536 142.72C774.536 141.693 774.776 140.767 775.256 139.94C775.749 139.113 776.416 138.46 777.256 137.98C778.096 137.487 779.029 137.24 780.056 137.24C781.096 137.24 782.016 137.493 782.816 138C783.616 138.493 784.242 139.173 784.696 140.04C785.162 140.907 785.396 141.9 785.396 143.02V143.82H777.856C778.002 144.153 778.196 144.447 778.436 144.7C778.689 144.953 778.989 145.153 779.336 145.3C779.682 145.433 780.056 145.5 780.456 145.5C780.896 145.5 781.296 145.433 781.656 145.3C782.016 145.153 782.322 144.953 782.576 144.7L784.716 146.6C784.049 147.16 783.362 147.567 782.656 147.82C781.962 148.073 781.176 148.2 780.296 148.2ZM777.796 141.56H782.216C782.109 141.213 781.942 140.92 781.716 140.68C781.502 140.427 781.249 140.233 780.956 140.1C780.662 139.953 780.342 139.88 779.996 139.88C779.636 139.88 779.309 139.947 779.016 140.08C778.722 140.213 778.469 140.407 778.256 140.66C778.056 140.9 777.902 141.2 777.796 141.56ZM791.188 148.2C790.188 148.2 789.261 148.087 788.408 147.86C787.554 147.62 786.814 147.273 786.188 146.82L787.728 144.64C788.394 145.04 789.001 145.333 789.548 145.52C790.094 145.693 790.634 145.78 791.168 145.78C791.701 145.78 792.121 145.707 792.428 145.56C792.748 145.4 792.908 145.193 792.908 144.94C792.908 144.74 792.821 144.58 792.648 144.46C792.474 144.327 792.201 144.233 791.828 144.18L789.728 143.86C788.674 143.7 787.868 143.353 787.308 142.82C786.761 142.273 786.488 141.567 786.488 140.7C786.488 139.98 786.668 139.367 787.028 138.86C787.401 138.34 787.928 137.947 788.608 137.68C789.288 137.4 790.101 137.26 791.048 137.26C791.821 137.26 792.588 137.367 793.348 137.58C794.108 137.793 794.814 138.113 795.468 138.54L793.928 140.62C793.354 140.287 792.808 140.047 792.288 139.9C791.768 139.74 791.248 139.66 790.728 139.66C790.314 139.66 789.981 139.733 789.728 139.88C789.474 140.013 789.348 140.193 789.348 140.42C789.348 140.633 789.441 140.807 789.628 140.94C789.814 141.06 790.134 141.153 790.588 141.22L792.688 141.54C793.728 141.687 794.528 142.033 795.088 142.58C795.661 143.113 795.948 143.793 795.948 144.62C795.948 145.313 795.741 145.927 795.328 146.46C794.914 146.993 794.348 147.42 793.628 147.74C792.921 148.047 792.108 148.2 791.188 148.2ZM801.364 148.2C800.364 148.2 799.437 148.087 798.584 147.86C797.73 147.62 796.99 147.273 796.364 146.82L797.904 144.64C798.57 145.04 799.177 145.333 799.724 145.52C800.27 145.693 800.81 145.78 801.344 145.78C801.877 145.78 802.297 145.707 802.604 145.56C802.924 145.4 803.084 145.193 803.084 144.94C803.084 144.74 802.997 144.58 802.824 144.46C802.65 144.327 802.377 144.233 802.004 144.18L799.904 143.86C798.85 143.7 798.044 143.353 797.484 142.82C796.937 142.273 796.664 141.567 796.664 140.7C796.664 139.98 796.844 139.367 797.204 138.86C797.577 138.34 798.104 137.947 798.784 137.68C799.464 137.4 800.277 137.26 801.224 137.26C801.997 137.26 802.764 137.367 803.524 137.58C804.284 137.793 804.99 138.113 805.644 138.54L804.104 140.62C803.53 140.287 802.984 140.047 802.464 139.9C801.944 139.74 801.424 139.66 800.904 139.66C800.49 139.66 800.157 139.733 799.904 139.88C799.65 140.013 799.524 140.193 799.524 140.42C799.524 140.633 799.617 140.807 799.804 140.94C799.99 141.06 800.31 141.153 800.764 141.22L802.864 141.54C803.904 141.687 804.704 142.033 805.264 142.58C805.837 143.113 806.124 143.793 806.124 144.62C806.124 145.313 805.917 145.927 805.504 146.46C805.09 146.993 804.524 147.42 803.804 147.74C803.097 148.047 802.284 148.2 801.364 148.2ZM811.266 148V137.42H814.506V148H811.266ZM812.886 136.44C812.392 136.44 811.972 136.267 811.626 135.92C811.279 135.573 811.106 135.153 811.106 134.66C811.106 134.167 811.279 133.747 811.626 133.4C811.972 133.053 812.392 132.88 812.886 132.88C813.379 132.88 813.799 133.053 814.146 133.4C814.492 133.747 814.666 134.167 814.666 134.66C814.666 135.153 814.492 135.573 814.146 135.92C813.799 136.267 813.379 136.44 812.886 136.44ZM816.5 148V137.42H819.74V138.14C820.54 137.527 821.487 137.22 822.58 137.22C823.407 137.22 824.133 137.4 824.76 137.76C825.4 138.12 825.9 138.62 826.26 139.26C826.62 139.9 826.8 140.64 826.8 141.48V148H823.56V141.92C823.56 141.333 823.387 140.867 823.04 140.52C822.693 140.173 822.227 140 821.64 140C821.227 140 820.86 140.073 820.54 140.22C820.233 140.367 819.967 140.573 819.74 140.84V148H816.5ZM837.973 148.14C836.706 148.14 835.746 147.86 835.093 147.3C834.453 146.727 834.133 145.887 834.133 144.78V140.12H831.993V137.42H834.133V134.7L837.373 134V137.42H840.333V140.12H837.373V144.14C837.373 144.607 837.473 144.94 837.673 145.14C837.886 145.327 838.253 145.42 838.773 145.42C839.039 145.42 839.279 145.407 839.493 145.38C839.719 145.34 839.966 145.28 840.233 145.2V147.82C839.939 147.913 839.566 147.987 839.113 148.04C838.659 148.107 838.279 148.14 837.973 148.14ZM841.598 148V134L844.838 133.3V138.14C845.638 137.527 846.584 137.22 847.678 137.22C848.504 137.22 849.231 137.4 849.858 137.76C850.498 138.12 850.998 138.62 851.358 139.26C851.718 139.9 851.898 140.64 851.898 141.48V148H848.658V141.92C848.658 141.333 848.484 140.867 848.138 140.52C847.791 140.173 847.324 140 846.738 140C846.324 140 845.958 140.073 845.638 140.22C845.331 140.367 845.064 140.573 844.838 140.84V148H841.598ZM859.104 148.2C858.024 148.2 857.044 147.96 856.164 147.48C855.298 146.987 854.611 146.327 854.104 145.5C853.598 144.673 853.344 143.747 853.344 142.72C853.344 141.693 853.584 140.767 854.064 139.94C854.558 139.113 855.224 138.46 856.064 137.98C856.904 137.487 857.838 137.24 858.864 137.24C859.904 137.24 860.824 137.493 861.624 138C862.424 138.493 863.051 139.173 863.504 140.04C863.971 140.907 864.204 141.9 864.204 143.02V143.82H856.664C856.811 144.153 857.004 144.447 857.244 144.7C857.498 144.953 857.798 145.153 858.144 145.3C858.491 145.433 858.864 145.5 859.264 145.5C859.704 145.5 860.104 145.433 860.464 145.3C860.824 145.153 861.131 144.953 861.384 144.7L863.524 146.6C862.858 147.16 862.171 147.567 861.464 147.82C860.771 148.073 859.984 148.2 859.104 148.2ZM856.604 141.56H861.024C860.918 141.213 860.751 140.92 860.524 140.68C860.311 140.427 860.058 140.233 859.764 140.1C859.471 139.953 859.151 139.88 858.804 139.88C858.444 139.88 858.118 139.947 857.824 140.08C857.531 140.213 857.278 140.407 857.064 140.66C856.864 140.9 856.711 141.2 856.604 141.56ZM869.785 148V134H880.825V136.98H873.225V139.5H878.245V142.38H873.225V145.02H880.905V148H869.785ZM882.77 148V137.42H886.01V138.48C886.356 138.053 886.763 137.733 887.23 137.52C887.696 137.293 888.216 137.18 888.79 137.18C889.363 137.193 889.77 137.28 890.01 137.44V140.26C889.796 140.153 889.556 140.073 889.29 140.02C889.023 139.967 888.75 139.94 888.47 139.94C887.963 139.94 887.49 140.06 887.05 140.3C886.623 140.527 886.276 140.853 886.01 141.28V148H882.77ZM894.587 148.18C893.84 148.18 893.174 148.04 892.587 147.76C892.014 147.48 891.56 147.093 891.227 146.6C890.907 146.107 890.747 145.54 890.747 144.9C890.747 143.887 891.127 143.107 891.887 142.56C892.66 142 893.734 141.72 895.107 141.72C895.934 141.72 896.734 141.82 897.507 142.02V141.5C897.507 140.967 897.334 140.573 896.987 140.32C896.654 140.053 896.154 139.92 895.487 139.92C895.074 139.92 894.607 139.987 894.087 140.12C893.58 140.253 892.98 140.467 892.287 140.76L891.127 138.38C891.994 137.993 892.827 137.707 893.627 137.52C894.44 137.32 895.254 137.22 896.067 137.22C897.534 137.22 898.674 137.573 899.487 138.28C900.3 138.973 900.707 139.953 900.707 141.22V148H897.507V147.36C897.08 147.653 896.627 147.867 896.147 148C895.68 148.12 895.16 148.18 894.587 148.18ZM893.827 144.84C893.827 145.173 893.974 145.433 894.267 145.62C894.56 145.807 894.967 145.9 895.487 145.9C895.874 145.9 896.234 145.86 896.567 145.78C896.914 145.7 897.227 145.573 897.507 145.4V144.04C897.2 143.96 896.887 143.9 896.567 143.86C896.247 143.82 895.92 143.8 895.587 143.8C895.027 143.8 894.594 143.893 894.287 144.08C893.98 144.253 893.827 144.507 893.827 144.84ZM911.799 148.2C910.719 148.2 909.746 147.96 908.879 147.48C908.012 146.987 907.326 146.327 906.819 145.5C906.312 144.673 906.059 143.747 906.059 142.72C906.059 141.693 906.312 140.767 906.819 139.94C907.326 139.1 908.012 138.44 908.879 137.96C909.746 137.467 910.719 137.22 911.799 137.22C912.879 137.22 913.852 137.467 914.719 137.96C915.586 138.44 916.272 139.1 916.779 139.94C917.286 140.767 917.539 141.693 917.539 142.72C917.539 143.747 917.286 144.673 916.779 145.5C916.272 146.327 915.586 146.987 914.719 147.48C913.852 147.96 912.879 148.2 911.799 148.2ZM911.799 145.4C912.292 145.4 912.732 145.28 913.119 145.04C913.506 144.8 913.812 144.48 914.039 144.08C914.266 143.667 914.379 143.213 914.379 142.72C914.379 142.213 914.266 141.76 914.039 141.36C913.812 140.947 913.499 140.62 913.099 140.38C912.712 140.14 912.279 140.02 911.799 140.02C911.319 140.02 910.879 140.14 910.479 140.38C910.092 140.62 909.786 140.947 909.559 141.36C909.332 141.76 909.219 142.213 909.219 142.72C909.219 143.213 909.332 143.667 909.559 144.08C909.786 144.48 910.092 144.8 910.479 145.04C910.879 145.28 911.319 145.4 911.799 145.4ZM920.426 148V140.12H918.106V137.42H920.426V136.78C920.426 135.527 920.793 134.573 921.526 133.92C922.273 133.253 923.339 132.92 924.726 132.92C925.006 132.92 925.306 132.94 925.626 132.98C925.959 133.007 926.233 133.053 926.446 133.12V135.8C926.193 135.747 925.966 135.713 925.766 135.7C925.579 135.673 925.379 135.66 925.166 135.66C924.673 135.66 924.299 135.76 924.046 135.96C923.793 136.147 923.666 136.44 923.666 136.84V137.42H926.446V140.12H923.666V148H920.426ZM935.655 148V137.04H931.075V134H943.675V137.04H939.095V148H935.655ZM947.913 148.2C946.833 148.2 945.853 147.96 944.973 147.48C944.106 146.987 943.419 146.327 942.913 145.5C942.406 144.673 942.153 143.747 942.153 142.72C942.153 141.693 942.393 140.767 942.873 139.94C943.366 139.113 944.033 138.46 944.873 137.98C945.713 137.487 946.646 137.24 947.673 137.24C948.713 137.24 949.633 137.493 950.433 138C951.233 138.493 951.859 139.173 952.313 140.04C952.779 140.907 953.013 141.9 953.013 143.02V143.82H945.473C945.619 144.153 945.813 144.447 946.053 144.7C946.306 144.953 946.606 145.153 946.953 145.3C947.299 145.433 947.673 145.5 948.073 145.5C948.513 145.5 948.913 145.433 949.273 145.3C949.633 145.153 949.939 144.953 950.193 144.7L952.333 146.6C951.666 147.16 950.979 147.567 950.273 147.82C949.579 148.073 948.793 148.2 947.913 148.2ZM945.413 141.56H949.833C949.726 141.213 949.559 140.92 949.333 140.68C949.119 140.427 948.866 140.233 948.573 140.1C948.279 139.953 947.959 139.88 947.613 139.88C947.253 139.88 946.926 139.947 946.633 140.08C946.339 140.213 946.086 140.407 945.873 140.66C945.673 140.9 945.519 141.2 945.413 141.56ZM959.745 148.2C958.692 148.2 957.738 147.96 956.885 147.48C956.045 147 955.378 146.347 954.885 145.52C954.392 144.68 954.145 143.747 954.145 142.72C954.145 141.68 954.392 140.747 954.885 139.92C955.378 139.093 956.045 138.44 956.885 137.96C957.738 137.467 958.692 137.22 959.745 137.22C960.612 137.22 961.438 137.393 962.225 137.74C963.012 138.073 963.678 138.553 964.225 139.18L962.245 141.24C961.872 140.813 961.492 140.507 961.105 140.32C960.718 140.12 960.292 140.02 959.825 140.02C959.358 140.02 958.938 140.14 958.565 140.38C958.192 140.607 957.898 140.927 957.685 141.34C957.472 141.74 957.365 142.2 957.365 142.72C957.365 143.227 957.472 143.687 957.685 144.1C957.912 144.5 958.218 144.82 958.605 145.06C958.992 145.287 959.425 145.4 959.905 145.4C960.345 145.4 960.752 145.307 961.125 145.12C961.498 144.933 961.858 144.647 962.205 144.26L964.125 146.26C963.592 146.873 962.938 147.353 962.165 147.7C961.392 148.033 960.585 148.2 959.745 148.2ZM965.406 148V134L968.646 133.3V138.14C969.446 137.527 970.393 137.22 971.486 137.22C972.313 137.22 973.04 137.4 973.666 137.76C974.306 138.12 974.806 138.62 975.166 139.26C975.526 139.9 975.706 140.64 975.706 141.48V148H972.466V141.92C972.466 141.333 972.293 140.867 971.946 140.52C971.6 140.173 971.133 140 970.546 140C970.133 140 969.766 140.073 969.446 140.22C969.14 140.367 968.873 140.573 968.646 140.84V148H965.406ZM977.633 148V137.42H980.873V138.14C981.673 137.527 982.619 137.22 983.713 137.22C984.539 137.22 985.266 137.4 985.893 137.76C986.533 138.12 987.033 138.62 987.393 139.26C987.753 139.9 987.933 140.64 987.933 141.48V148H984.693V141.92C984.693 141.333 984.519 140.867 984.173 140.52C983.826 140.173 983.359 140 982.773 140C982.359 140 981.993 140.073 981.673 140.22C981.366 140.367 981.099 140.573 980.873 140.84V148H977.633ZM995.119 148.2C994.039 148.2 993.066 147.96 992.199 147.48C991.333 146.987 990.646 146.327 990.139 145.5C989.633 144.673 989.379 143.747 989.379 142.72C989.379 141.693 989.633 140.767 990.139 139.94C990.646 139.1 991.333 138.44 992.199 137.96C993.066 137.467 994.039 137.22 995.119 137.22C996.199 137.22 997.173 137.467 998.039 137.96C998.906 138.44 999.593 139.1 1000.1 139.94C1000.61 140.767 1000.86 141.693 1000.86 142.72C1000.86 143.747 1000.61 144.673 1000.1 145.5C999.593 146.327 998.906 146.987 998.039 147.48C997.173 147.96 996.199 148.2 995.119 148.2ZM995.119 145.4C995.613 145.4 996.053 145.28 996.439 145.04C996.826 144.8 997.133 144.48 997.359 144.08C997.586 143.667 997.699 143.213 997.699 142.72C997.699 142.213 997.586 141.76 997.359 141.36C997.133 140.947 996.819 140.62 996.419 140.38C996.033 140.14 995.599 140.02 995.119 140.02C994.639 140.02 994.199 140.14 993.799 140.38C993.413 140.62 993.106 140.947 992.879 141.36C992.653 141.76 992.539 142.213 992.539 142.72C992.539 143.213 992.653 143.667 992.879 144.08C993.106 144.48 993.413 144.8 993.799 145.04C994.199 145.28 994.639 145.4 995.119 145.4ZM1002.38 148V134L1005.62 133.5V148H1002.38ZM1012.87 148.2C1011.79 148.2 1010.82 147.96 1009.95 147.48C1009.09 146.987 1008.4 146.327 1007.89 145.5C1007.39 144.673 1007.13 143.747 1007.13 142.72C1007.13 141.693 1007.39 140.767 1007.89 139.94C1008.4 139.1 1009.09 138.44 1009.95 137.96C1010.82 137.467 1011.79 137.22 1012.87 137.22C1013.95 137.22 1014.93 137.467 1015.79 137.96C1016.66 138.44 1017.35 139.1 1017.85 139.94C1018.36 140.767 1018.61 141.693 1018.61 142.72C1018.61 143.747 1018.36 144.673 1017.85 145.5C1017.35 146.327 1016.66 146.987 1015.79 147.48C1014.93 147.96 1013.95 148.2 1012.87 148.2ZM1012.87 145.4C1013.37 145.4 1013.81 145.28 1014.19 145.04C1014.58 144.8 1014.89 144.48 1015.11 144.08C1015.34 143.667 1015.45 143.213 1015.45 142.72C1015.45 142.213 1015.34 141.76 1015.11 141.36C1014.89 140.947 1014.57 140.62 1014.17 140.38C1013.79 140.14 1013.35 140.02 1012.87 140.02C1012.39 140.02 1011.95 140.14 1011.55 140.38C1011.17 140.62 1010.86 140.947 1010.63 141.36C1010.41 141.76 1010.29 142.213 1010.29 142.72C1010.29 143.213 1010.41 143.667 1010.63 144.08C1010.86 144.48 1011.17 144.8 1011.55 145.04C1011.95 145.28 1012.39 145.4 1012.87 145.4ZM1025.53 152.28C1024.68 152.28 1023.87 152.2 1023.09 152.04C1022.33 151.88 1021.64 151.653 1021.01 151.36L1022.09 148.84C1022.67 149.107 1023.23 149.307 1023.79 149.44C1024.35 149.573 1024.91 149.64 1025.47 149.64C1026.23 149.64 1026.81 149.487 1027.19 149.18C1027.58 148.873 1027.77 148.413 1027.77 147.8V147.2C1026.95 147.76 1026.03 148.04 1025.03 148.04C1024.03 148.04 1023.13 147.8 1022.31 147.32C1021.5 146.84 1020.85 146.193 1020.37 145.38C1019.89 144.553 1019.65 143.64 1019.65 142.64C1019.65 141.64 1019.89 140.733 1020.37 139.92C1020.87 139.107 1021.53 138.467 1022.35 138C1023.19 137.52 1024.13 137.28 1025.15 137.28C1025.63 137.28 1026.1 137.34 1026.55 137.46C1027.01 137.58 1027.43 137.753 1027.81 137.98V137.42H1031.01V147.84C1031.01 149.267 1030.54 150.36 1029.59 151.12C1028.66 151.893 1027.31 152.28 1025.53 152.28ZM1025.59 145.32C1026.03 145.32 1026.43 145.253 1026.79 145.12C1027.17 144.987 1027.49 144.793 1027.77 144.54V140.8C1027.49 140.56 1027.17 140.373 1026.79 140.24C1026.43 140.093 1026.04 140.02 1025.61 140.02C1025.09 140.02 1024.62 140.14 1024.19 140.38C1023.78 140.607 1023.45 140.92 1023.19 141.32C1022.95 141.707 1022.83 142.147 1022.83 142.64C1022.83 143.147 1022.95 143.607 1023.19 144.02C1023.43 144.42 1023.76 144.74 1024.17 144.98C1024.6 145.207 1025.07 145.32 1025.59 145.32ZM1034.26 152.32C1034.01 152.32 1033.76 152.307 1033.52 152.28C1033.28 152.267 1033.08 152.24 1032.92 152.2V149.44C1033.19 149.493 1033.52 149.52 1033.92 149.52C1034.96 149.52 1035.66 149.067 1036.02 148.16V148.14L1031.96 137.42H1035.54L1037.88 144.08L1040.6 137.42H1044.1L1039.36 148.54C1038.98 149.46 1038.55 150.193 1038.08 150.74C1037.62 151.3 1037.08 151.7 1036.46 151.94C1035.85 152.193 1035.12 152.32 1034.26 152.32ZM1049.16 138.68L1050.62 133H1053.96L1051.58 138.68H1049.16ZM1044.88 138.68L1046.34 133H1049.68L1047.3 138.68H1044.88Z" fill="white"/>
<defs>
<filter id="filter0_d_2362_141" x="873.762" y="83" width="544.238" height="330" filterUnits="userSpaceOnUse" color-interpolation-filters="sRGB">
<feFlood flood-opacity="0" result="BackgroundImageFix"/>
<feColorMatrix in="SourceAlpha" type="matrix" values="0 0 0 0 0 0 0 0 0 0 0 0 0 0 0 0 0 0 127 0" result="hardAlpha"/>
<feOffset dy="4"/>
<feGaussianBlur stdDeviation="62.5"/>
<feComposite in2="hardAlpha" operator="out"/>
<feColorMatrix type="matrix" values="0 0 0 0 0.602456 0 0 0 0 0.862489 0 0 0 0 0.9525 0 0 0 0.54 0"/>
<feBlend mode="normal" in2="BackgroundImageFix" result="effect1_dropShadow_2362_141"/>
<feBlend mode="normal" in="SourceGraphic" in2="effect1_dropShadow_2362_141" result="shape"/>
</filter>
<filter id="filter1_d_2362_141" x="0" y="83" width="544.238" height="330" filterUnits="userSpaceOnUse" color-interpolation-filters="sRGB">
<feFlood flood-opacity="0" result="BackgroundImageFix"/>
<feColorMatrix in="SourceAlpha" type="matrix" values="0 0 0 0 0 0 0 0 0 0 0 0 0 0 0 0 0 0 127 0" result="hardAlpha"/>
<feOffset dy="4"/>
<feGaussianBlur stdDeviation="62.5"/>
<feComposite in2="hardAlpha" operator="out"/>
<feColorMatrix type="matrix" values="0 0 0 0 0.602456 0 0 0 0 0.862489 0 0 0 0 0.9525 0 0 0 0.54 0"/>
<feBlend mode="normal" in2="BackgroundImageFix" result="effect1_dropShadow_2362_141"/>
<feBlend mode="normal" in="SourceGraphic" in2="effect1_dropShadow_2362_141" result="shape"/>
</filter>
<filter id="filter2_d_2362_141" x="748.516" y="101" width="543.242" height="329" filterUnits="userSpaceOnUse" color-interpolation-filters="sRGB">
<feFlood flood-opacity="0" result="BackgroundImageFix"/>
<feColorMatrix in="SourceAlpha" type="matrix" values="0 0 0 0 0 0 0 0 0 0 0 0 0 0 0 0 0 0 127 0" result="hardAlpha"/>
<feOffset dy="4"/>
<feGaussianBlur stdDeviation="62.5"/>
<feComposite in2="hardAlpha" operator="out"/>
<feColorMatrix type="matrix" values="0 0 0 0 0.602456 0 0 0 0 0.862489 0 0 0 0 0.9525 0 0 0 0.54 0"/>
<feBlend mode="normal" in2="BackgroundImageFix" result="effect1_dropShadow_2362_141"/>
<feBlend mode="normal" in="SourceGraphic" in2="effect1_dropShadow_2362_141" result="shape"/>
</filter>
<filter id="filter3_d_2362_141" x="132.207" y="101" width="543.242" height="329" filterUnits="userSpaceOnUse" color-interpolation-filters="sRGB">
<feFlood flood-opacity="0" result="BackgroundImageFix"/>
<feColorMatrix in="SourceAlpha" type="matrix" values="0 0 0 0 0 0 0 0 0 0 0 0 0 0 0 0 0 0 127 0" result="hardAlpha"/>
<feOffset dy="4"/>
<feGaussianBlur stdDeviation="62.5"/>
<feComposite in2="hardAlpha" operator="out"/>
<feColorMatrix type="matrix" values="0 0 0 0 0.602456 0 0 0 0 0.862489 0 0 0 0 0.9525 0 0 0 0.54 0"/>
<feBlend mode="normal" in2="BackgroundImageFix" result="effect1_dropShadow_2362_141"/>
<feBlend mode="normal" in="SourceGraphic" in2="effect1_dropShadow_2362_141" result="shape"/>
</filter>
<filter id="filter4_d_2362_141" x="279.324" y="123" width="543.965" height="335.135" filterUnits="userSpaceOnUse" color-interpolation-filters="sRGB">
<feFlood flood-opacity="0" result="BackgroundImageFix"/>
<feColorMatrix in="SourceAlpha" type="matrix" values="0 0 0 0 0 0 0 0 0 0 0 0 0 0 0 0 0 0 127 0" result="hardAlpha"/>
<feOffset dy="4"/>
<feGaussianBlur stdDeviation="62.5"/>
<feComposite in2="hardAlpha" operator="out"/>
<feColorMatrix type="matrix" values="0 0 0 0 0.602456 0 0 0 0 0.862489 0 0 0 0 0.9525 0 0 0 0.54 0"/>
<feBlend mode="normal" in2="BackgroundImageFix" result="effect1_dropShadow_2362_141"/>
<feBlend mode="normal" in="SourceGraphic" in2="effect1_dropShadow_2362_141" result="shape"/>
</filter>
<filter id="filter5_d_2362_141" x="581.5" y="123" width="542.262" height="334.158" filterUnits="userSpaceOnUse" color-interpolation-filters="sRGB">
<feFlood flood-opacity="0" result="BackgroundImageFix"/>
<feColorMatrix in="SourceAlpha" type="matrix" values="0 0 0 0 0 0 0 0 0 0 0 0 0 0 0 0 0 0 127 0" result="hardAlpha"/>
<feOffset dy="4"/>
<feGaussianBlur stdDeviation="62.5"/>
<feComposite in2="hardAlpha" operator="out"/>
<feColorMatrix type="matrix" values="0 0 0 0 0.602456 0 0 0 0 0.862489 0 0 0 0 0.9525 0 0 0 0.54 0"/>
<feBlend mode="normal" in2="BackgroundImageFix" result="effect1_dropShadow_2362_141"/>
<feBlend mode="normal" in="SourceGraphic" in2="effect1_dropShadow_2362_141" result="shape"/>
</filter>
<filter id="filter6_d_2362_141" x="421.764" y="147.823" width="301.761" height="306.943" filterUnits="userSpaceOnUse" color-interpolation-filters="sRGB">
<feFlood flood-opacity="0" result="BackgroundImageFix"/>
<feColorMatrix in="SourceAlpha" type="matrix" values="0 0 0 0 0 0 0 0 0 0 0 0 0 0 0 0 0 0 127 0" result="hardAlpha"/>
<feOffset dy="4"/>
<feGaussianBlur stdDeviation="44.95"/>
<feComposite in2="hardAlpha" operator="out"/>
<feColorMatrix type="matrix" values="0 0 0 0 0.407843 0 0 0 0 0.0941176 0 0 0 0 0.129412 0 0 0 1 0"/>
<feBlend mode="normal" in2="BackgroundImageFix" result="effect1_dropShadow_2362_141"/>
<feBlend mode="normal" in="SourceGraphic" in2="effect1_dropShadow_2362_141" result="shape"/>
</filter>
<filter id="filter7_d_2362_141" x="414.786" y="143.995" width="313.557" height="319.713" filterUnits="userSpaceOnUse" color-interpolation-filters="sRGB">
<feFlood flood-opacity="0" result="BackgroundImageFix"/>
<feColorMatrix in="SourceAlpha" type="matrix" values="0 0 0 0 0 0 0 0 0 0 0 0 0 0 0 0 0 0 127 0" result="hardAlpha"/>
<feOffset dy="4"/>
<feGaussianBlur stdDeviation="51.4"/>
<feComposite in2="hardAlpha" operator="out"/>
<feColorMatrix type="matrix" values="0 0 0 0 0.847059 0 0 0 0 0.709804 0 0 0 0 0.458824 0 0 0 1 0"/>
<feBlend mode="normal" in2="BackgroundImageFix" result="effect1_dropShadow_2362_141"/>
<feBlend mode="normal" in="SourceGraphic" in2="effect1_dropShadow_2362_141" result="shape"/>
</filter>
<filter id="filter8_d_2362_141" x="692.448" y="137.676" width="301.761" height="306.943" filterUnits="userSpaceOnUse" color-interpolation-filters="sRGB">
<feFlood flood-opacity="0" result="BackgroundImageFix"/>
<feColorMatrix in="SourceAlpha" type="matrix" values="0 0 0 0 0 0 0 0 0 0 0 0 0 0 0 0 0 0 127 0" result="hardAlpha"/>
<feOffset dy="4"/>
<feGaussianBlur stdDeviation="44.95"/>
<feComposite in2="hardAlpha" operator="out"/>
<feColorMatrix type="matrix" values="0 0 0 0 0.407843 0 0 0 0 0.0941176 0 0 0 0 0.129412 0 0 0 1 0"/>
<feBlend mode="normal" in2="BackgroundImageFix" result="effect1_dropShadow_2362_141"/>
<feBlend mode="normal" in="SourceGraphic" in2="effect1_dropShadow_2362_141" result="shape"/>
</filter>
<filter id="filter9_d_2362_141" x="687.63" y="133.848" width="313.557" height="319.713" filterUnits="userSpaceOnUse" color-interpolation-filters="sRGB">
<feFlood flood-opacity="0" result="BackgroundImageFix"/>
<feColorMatrix in="SourceAlpha" type="matrix" values="0 0 0 0 0 0 0 0 0 0 0 0 0 0 0 0 0 0 127 0" result="hardAlpha"/>
<feOffset dy="4"/>
<feGaussianBlur stdDeviation="51.4"/>
<feComposite in2="hardAlpha" operator="out"/>
<feColorMatrix type="matrix" values="0 0 0 0 0.847059 0 0 0 0 0.709804 0 0 0 0 0.458824 0 0 0 1 0"/>
<feBlend mode="normal" in2="BackgroundImageFix" result="effect1_dropShadow_2362_141"/>
<feBlend mode="normal" in="SourceGraphic" in2="effect1_dropShadow_2362_141" result="shape"/>
</filter>
<filter id="filter10_d_2362_141" x="553.565" y="111.95" width="297.175" height="297.589" filterUnits="userSpaceOnUse" color-interpolation-filters="sRGB">
<feFlood flood-opacity="0" result="BackgroundImageFix"/>
<feColorMatrix in="SourceAlpha" type="matrix" values="0 0 0 0 0 0 0 0 0 0 0 0 0 0 0 0 0 0 127 0" result="hardAlpha"/>
<feOffset dy="4"/>
<feGaussianBlur stdDeviation="44.95"/>
<feComposite in2="hardAlpha" operator="out"/>
<feColorMatrix type="matrix" values="0 0 0 0 0.407843 0 0 0 0 0.0941176 0 0 0 0 0.129412 0 0 0 1 0"/>
<feBlend mode="normal" in2="BackgroundImageFix" result="effect1_dropShadow_2362_141"/>
<feBlend mode="normal" in="SourceGraphic" in2="effect1_dropShadow_2362_141" result="shape"/>
</filter>
<filter id="filter11_d_2362_141" x="546.302" y="108.442" width="308.682" height="309.772" filterUnits="userSpaceOnUse" color-interpolation-filters="sRGB">
<feFlood flood-opacity="0" result="BackgroundImageFix"/>
<feColorMatrix in="SourceAlpha" type="matrix" values="0 0 0 0 0 0 0 0 0 0 0 0 0 0 0 0 0 0 127 0" result="hardAlpha"/>
<feOffset dy="4"/>
<feGaussianBlur stdDeviation="51.4"/>
<feComposite in2="hardAlpha" operator="out"/>
<feColorMatrix type="matrix" values="0 0 0 0 0.847059 0 0 0 0 0.709804 0 0 0 0 0.458824 0 0 0 1 0"/>
<feBlend mode="normal" in2="BackgroundImageFix" result="effect1_dropShadow_2362_141"/>
<feBlend mode="normal" in="SourceGraphic" in2="effect1_dropShadow_2362_141" result="shape"/>
</filter>
<radialGradient id="paint0_radial_2362_141" cx="0" cy="0" r="1" gradientUnits="userSpaceOnUse" gradientTransform="translate(1230.73 233.697) rotate(178.617) scale(263.251 69.5695)">
<stop stop-color="#75D7D6"/>
<stop offset="0.288144" stop-color="#3CC1EC"/>
<stop offset="0.836667" stop-color="#C213BB"/>
<stop offset="1" stop-color="#D575D7"/>
</radialGradient>
<radialGradient id="paint1_radial_2362_141" cx="0" cy="0" r="1" gradientUnits="userSpaceOnUse" gradientTransform="translate(187.268 233.697) rotate(1.38316) scale(263.251 69.5695)">
<stop stop-color="#75D7D6"/>
<stop offset="0.288144" stop-color="#3CC1EC"/>
<stop offset="0.836667" stop-color="#C213BB"/>
<stop offset="1" stop-color="#D575D7"/>
</radialGradient>
<radialGradient id="paint2_radial_2362_141" cx="0" cy="0" r="1" gradientUnits="userSpaceOnUse" gradientTransform="translate(1104.7 251.326) rotate(178.629) scale(262.36 68.7002)">
<stop stop-color="#75D7D6"/>
<stop offset="0.288144" stop-color="#3CC1EC"/>
<stop offset="0.836667" stop-color="#C213BB"/>
<stop offset="1" stop-color="#D575D7"/>
</radialGradient>
<radialGradient id="paint3_radial_2362_141" cx="0" cy="0" r="1" gradientUnits="userSpaceOnUse" gradientTransform="translate(319.265 251.326) rotate(1.37051) scale(262.36 68.7002)">
<stop stop-color="#75D7D6"/>
<stop offset="0.288144" stop-color="#3CC1EC"/>
<stop offset="0.836667" stop-color="#C213BB"/>
<stop offset="1" stop-color="#D575D7"/>
</radialGradient>
<radialGradient id="paint4_radial_2362_141" cx="0" cy="0" r="1" gradientUnits="userSpaceOnUse" gradientTransform="translate(466.592 273.697) rotate(1.38316) scale(263.251 69.5695)">
<stop stop-color="#75D7D6"/>
<stop offset="0.288144" stop-color="#3CC1EC"/>
<stop offset="0.836667" stop-color="#C213BB"/>
<stop offset="1" stop-color="#D575D7"/>
</radialGradient>
<radialGradient id="paint5_radial_2362_141" cx="0" cy="0" r="1" gradientUnits="userSpaceOnUse" gradientTransform="translate(936.704 273.697) rotate(178.612) scale(262.362 69.5693)">
<stop stop-color="#75D7D6"/>
<stop offset="0.288144" stop-color="#3CC1EC"/>
<stop offset="0.836667" stop-color="#C213BB"/>
<stop offset="1" stop-color="#D575D7"/>
</radialGradient>
<linearGradient id="paint6_linear_2362_141" x1="571.48" y1="233.484" x2="571.48" y2="364.287" gradientUnits="userSpaceOnUse">
<stop stop-color="#71D0CF"/>
<stop offset="0.305" stop-color="#5BA7A6"/>
<stop offset="0.78" stop-color="#75D7D6"/>
</linearGradient>
<linearGradient id="paint7_linear_2362_141" x1="569.572" y1="241.702" x2="574.131" y2="356.046" gradientUnits="userSpaceOnUse">
<stop offset="0.485" stop-color="#B32169"/>
<stop offset="1" stop-color="#3029BA"/>
</linearGradient>
<linearGradient id="paint8_linear_2362_141" x1="844.492" y1="223.338" x2="844.492" y2="354.141" gradientUnits="userSpaceOnUse">
<stop stop-color="#71D0CF"/>
<stop offset="0.305" stop-color="#5BA7A6"/>
<stop offset="0.78" stop-color="#75D7D6"/>
</linearGradient>
<linearGradient id="paint9_linear_2362_141" x1="846.4" y1="231.556" x2="841.841" y2="345.9" gradientUnits="userSpaceOnUse">
<stop offset="0.485" stop-color="#B32169"/>
<stop offset="1" stop-color="#3029BA"/>
</linearGradient>
<linearGradient id="paint10_linear_2362_141" x1="727.11" y1="212.502" x2="674.179" y2="323.397" gradientUnits="userSpaceOnUse">
<stop stop-color="#71D0CF"/>
<stop offset="0.305" stop-color="#5BA7A6"/>
<stop offset="0.78" stop-color="#75D7D6"/>
</linearGradient>
<linearGradient id="paint11_linear_2362_141" x1="722.228" y1="218.727" x2="679.127" y2="317.443" gradientUnits="userSpaceOnUse">
<stop offset="0.485" stop-color="#B32169"/>
<stop offset="1" stop-color="#3029BA"/>
</linearGradient>
</defs>
</svg>
