<svg width="432" height="97" viewBox="0 0 432 97" fill="none" xmlns="http://www.w3.org/2000/svg">
<rect x="1" y="1" width="430" height="95" rx="39" fill="#F1F1F1" stroke="#B32169" stroke-width="2"/>
<path d="M86.8781 54.576C88.6701 53.0827 90.0981 51.8413 91.1621 50.852C92.2261 49.844 93.1128 48.7987 93.8221 47.716C94.5314 46.6333 94.8861 45.5693 94.8861 44.524C94.8861 43.572 94.6621 42.8253 94.2141 42.284C93.7661 41.7427 93.0754 41.472 92.1421 41.472C91.2088 41.472 90.4901 41.7893 89.9861 42.424C89.4821 43.04 89.2208 43.8893 89.2021 44.972H85.3941C85.4688 42.732 86.1314 41.0333 87.3821 39.876C88.6514 38.7187 90.2568 38.14 92.1981 38.14C94.3261 38.14 95.9594 38.7093 97.0981 39.848C98.2368 40.968 98.8061 42.452 98.8061 44.3C98.8061 45.756 98.4141 47.1467 97.6301 48.472C96.8461 49.7973 95.9501 50.9547 94.9421 51.944C93.9341 52.9147 92.6181 54.0907 90.9941 55.472H99.2541V58.72H85.4221V55.808L86.8781 54.576ZM102.956 54.576C104.748 53.0827 106.176 51.8413 107.24 50.852C108.304 49.844 109.191 48.7987 109.9 47.716C110.61 46.6333 110.964 45.5693 110.964 44.524C110.964 43.572 110.74 42.8253 110.292 42.284C109.844 41.7427 109.154 41.472 108.22 41.472C107.287 41.472 106.568 41.7893 106.064 42.424C105.56 43.04 105.299 43.8893 105.28 44.972H101.472C101.547 42.732 102.21 41.0333 103.46 39.876C104.73 38.7187 106.335 38.14 108.276 38.14C110.404 38.14 112.038 38.7093 113.176 39.848C114.315 40.968 114.884 42.452 114.884 44.3C114.884 45.756 114.492 47.1467 113.708 48.472C112.924 49.7973 112.028 50.9547 111.02 51.944C110.012 52.9147 108.696 54.0907 107.072 55.472H115.332V58.72H101.5V55.808L102.956 54.576ZM141.638 59H137.718L128.842 45.588V59H124.922V39.428H128.842L137.718 52.868V39.428H141.638V59ZM152.4 59.252C150.907 59.252 149.563 58.9253 148.368 58.272C147.173 57.6 146.231 56.6573 145.54 55.444C144.868 54.2307 144.532 52.8307 144.532 51.244C144.532 49.6573 144.877 48.2573 145.568 47.044C146.277 45.8307 147.239 44.8973 148.452 44.244C149.665 43.572 151.019 43.236 152.512 43.236C154.005 43.236 155.359 43.572 156.572 44.244C157.785 44.8973 158.737 45.8307 159.428 47.044C160.137 48.2573 160.492 49.6573 160.492 51.244C160.492 52.8307 160.128 54.2307 159.4 55.444C158.691 56.6573 157.72 57.6 156.488 58.272C155.275 58.9253 153.912 59.252 152.4 59.252ZM152.4 55.836C153.109 55.836 153.772 55.668 154.388 55.332C155.023 54.9773 155.527 54.4547 155.9 53.764C156.273 53.0733 156.46 52.2333 156.46 51.244C156.46 49.7693 156.068 48.64 155.284 47.856C154.519 47.0533 153.576 46.652 152.456 46.652C151.336 46.652 150.393 47.0533 149.628 47.856C148.881 48.64 148.508 49.7693 148.508 51.244C148.508 52.7187 148.872 53.8573 149.6 54.66C150.347 55.444 151.28 55.836 152.4 55.836ZM169.836 55.388L173.756 43.488H177.928L172.188 59H167.428L161.716 43.488H165.916L169.836 55.388ZM194.549 50.908C194.549 51.468 194.512 51.972 194.437 52.42H183.097C183.191 53.54 183.583 54.4173 184.273 55.052C184.964 55.6867 185.813 56.004 186.821 56.004C188.277 56.004 189.313 55.3787 189.929 54.128H194.157C193.709 55.6213 192.851 56.8533 191.581 57.824C190.312 58.776 188.753 59.252 186.905 59.252C185.412 59.252 184.068 58.9253 182.873 58.272C181.697 57.6 180.773 56.6573 180.101 55.444C179.448 54.2307 179.121 52.8307 179.121 51.244C179.121 49.6387 179.448 48.2293 180.101 47.016C180.755 45.8027 181.669 44.8693 182.845 44.216C184.021 43.5627 185.375 43.236 186.905 43.236C188.38 43.236 189.696 43.5533 190.853 44.188C192.029 44.8227 192.935 45.728 193.569 46.904C194.223 48.0613 194.549 49.396 194.549 50.908ZM190.489 49.788C190.471 48.78 190.107 47.9773 189.397 47.38C188.688 46.764 187.82 46.456 186.793 46.456C185.823 46.456 185.001 46.7547 184.329 47.352C183.676 47.9307 183.275 48.7427 183.125 49.788H190.489ZM216.675 43.264C218.579 43.264 220.109 43.852 221.267 45.028C222.443 46.1853 223.031 47.8093 223.031 49.9V59H219.111V50.432C219.111 49.2187 218.803 48.2947 218.187 47.66C217.571 47.0067 216.731 46.68 215.667 46.68C214.603 46.68 213.753 47.0067 213.119 47.66C212.503 48.2947 212.195 49.2187 212.195 50.432V59H208.275V50.432C208.275 49.2187 207.967 48.2947 207.351 47.66C206.735 47.0067 205.895 46.68 204.831 46.68C203.748 46.68 202.889 47.0067 202.255 47.66C201.639 48.2947 201.331 49.2187 201.331 50.432V59H197.411V43.488H201.331V45.364C201.835 44.7107 202.479 44.1973 203.263 43.824C204.065 43.4507 204.943 43.264 205.895 43.264C207.108 43.264 208.191 43.5253 209.143 44.048C210.095 44.552 210.832 45.28 211.355 46.232C211.859 45.336 212.587 44.6173 213.539 44.076C214.509 43.5347 215.555 43.264 216.675 43.264ZM230.67 45.756C231.174 45.0093 231.865 44.4027 232.742 43.936C233.638 43.4693 234.656 43.236 235.794 43.236C237.12 43.236 238.314 43.5627 239.378 44.216C240.461 44.8693 241.31 45.8027 241.926 47.016C242.561 48.2107 242.878 49.6013 242.878 51.188C242.878 52.7747 242.561 54.184 241.926 55.416C241.31 56.6293 240.461 57.572 239.378 58.244C238.314 58.916 237.12 59.252 235.794 59.252C234.637 59.252 233.62 59.028 232.742 58.58C231.884 58.1133 231.193 57.516 230.67 56.788V59H226.75V38.28H230.67V45.756ZM238.874 51.188C238.874 50.2547 238.678 49.452 238.286 48.78C237.913 48.0893 237.409 47.5667 236.774 47.212C236.158 46.8573 235.486 46.68 234.758 46.68C234.049 46.68 233.377 46.8667 232.742 47.24C232.126 47.5947 231.622 48.1173 231.23 48.808C230.857 49.4987 230.67 50.3107 230.67 51.244C230.67 52.1773 230.857 52.9893 231.23 53.68C231.622 54.3707 232.126 54.9027 232.742 55.276C233.377 55.6307 234.049 55.808 234.758 55.808C235.486 55.808 236.158 55.6213 236.774 55.248C237.409 54.8747 237.913 54.3427 238.286 53.652C238.678 52.9613 238.874 52.14 238.874 51.188ZM260.147 50.908C260.147 51.468 260.11 51.972 260.035 52.42H248.695C248.788 53.54 249.18 54.4173 249.871 55.052C250.562 55.6867 251.411 56.004 252.419 56.004C253.875 56.004 254.911 55.3787 255.527 54.128H259.755C259.307 55.6213 258.448 56.8533 257.179 57.824C255.91 58.776 254.351 59.252 252.503 59.252C251.01 59.252 249.666 58.9253 248.471 58.272C247.295 57.6 246.371 56.6573 245.699 55.444C245.046 54.2307 244.719 52.8307 244.719 51.244C244.719 49.6387 245.046 48.2293 245.699 47.016C246.352 45.8027 247.267 44.8693 248.443 44.216C249.619 43.5627 250.972 43.236 252.503 43.236C253.978 43.236 255.294 43.5533 256.451 44.188C257.627 44.8227 258.532 45.728 259.167 46.904C259.82 48.0613 260.147 49.396 260.147 50.908ZM256.087 49.788C256.068 48.78 255.704 47.9773 254.995 47.38C254.286 46.764 253.418 46.456 252.391 46.456C251.42 46.456 250.599 46.7547 249.927 47.352C249.274 47.9307 248.872 48.7427 248.723 49.788H256.087ZM266.928 45.896C267.432 45.0747 268.086 44.4307 268.888 43.964C269.71 43.4973 270.643 43.264 271.688 43.264V47.38H270.652C269.42 47.38 268.487 47.6693 267.852 48.248C267.236 48.8267 266.928 49.8347 266.928 51.272V59H263.008V43.488H266.928V45.896ZM281.784 54.576C283.576 53.0827 285.004 51.8413 286.068 50.852C287.132 49.844 288.019 48.7987 288.728 47.716C289.438 46.6333 289.792 45.5693 289.792 44.524C289.792 43.572 289.568 42.8253 289.12 42.284C288.672 41.7427 287.982 41.472 287.048 41.472C286.115 41.472 285.396 41.7893 284.892 42.424C284.388 43.04 284.127 43.8893 284.108 44.972H280.3C280.375 42.732 281.038 41.0333 282.288 39.876C283.558 38.7187 285.163 38.14 287.104 38.14C289.232 38.14 290.866 38.7093 292.004 39.848C293.143 40.968 293.712 42.452 293.712 44.3C293.712 45.756 293.32 47.1467 292.536 48.472C291.752 49.7973 290.856 50.9547 289.848 51.944C288.84 52.9147 287.524 54.0907 285.9 55.472H294.16V58.72H280.328V55.808L281.784 54.576ZM296.63 48.528C296.63 45.2987 297.209 42.7693 298.366 40.94C299.542 39.1107 301.484 38.196 304.19 38.196C306.897 38.196 308.829 39.1107 309.986 40.94C311.162 42.7693 311.75 45.2987 311.75 48.528C311.75 51.776 311.162 54.324 309.986 56.172C308.829 58.02 306.897 58.944 304.19 58.944C301.484 58.944 299.542 58.02 298.366 56.172C297.209 54.324 296.63 51.776 296.63 48.528ZM307.886 48.528C307.886 47.1467 307.793 45.9893 307.606 45.056C307.438 44.104 307.084 43.3293 306.542 42.732C306.02 42.1347 305.236 41.836 304.19 41.836C303.145 41.836 302.352 42.1347 301.81 42.732C301.288 43.3293 300.933 44.104 300.746 45.056C300.578 45.9893 300.494 47.1467 300.494 48.528C300.494 49.9467 300.578 51.1413 300.746 52.112C300.914 53.064 301.269 53.8387 301.81 54.436C302.352 55.0147 303.145 55.304 304.19 55.304C305.236 55.304 306.029 55.0147 306.57 54.436C307.112 53.8387 307.466 53.064 307.634 52.112C307.802 51.1413 307.886 49.9467 307.886 48.528ZM315.964 54.576C317.756 53.0827 319.184 51.8413 320.248 50.852C321.312 49.844 322.199 48.7987 322.908 47.716C323.617 46.6333 323.972 45.5693 323.972 44.524C323.972 43.572 323.748 42.8253 323.3 42.284C322.852 41.7427 322.161 41.472 321.228 41.472C320.295 41.472 319.576 41.7893 319.072 42.424C318.568 43.04 318.307 43.8893 318.288 44.972H314.48C314.555 42.732 315.217 41.0333 316.468 39.876C317.737 38.7187 319.343 38.14 321.284 38.14C323.412 38.14 325.045 38.7093 326.184 39.848C327.323 40.968 327.892 42.452 327.892 44.3C327.892 45.756 327.5 47.1467 326.716 48.472C325.932 49.7973 325.036 50.9547 324.028 51.944C323.02 52.9147 321.704 54.0907 320.08 55.472H328.34V58.72H314.508V55.808L315.964 54.576ZM330.642 55.024V51.944L339.798 38.84H344.362V51.608H346.826V55.024H344.362V59H340.442V55.024H330.642ZM340.694 43.04L334.954 51.608H340.694V43.04Z" fill="black"/>
</svg>
