<svg width="300" height="96" viewBox="0 0 300 96" fill="none" xmlns="http://www.w3.org/2000/svg">
<rect x="1" y="1" width="298" height="94" rx="39" fill="#F1F1F1" stroke="#B32169" stroke-width="2"/>
<path d="M13.551 41.2V37.588H20.299V58H16.267V41.2H13.551ZM28.7075 52.26C28.8568 53.0813 29.1928 53.716 29.7155 54.164C30.2568 54.5933 30.9755 54.808 31.8715 54.808C33.0288 54.808 33.8688 54.332 34.3915 53.38C34.9142 52.4093 35.1755 50.7853 35.1755 48.508C34.7462 49.1053 34.1395 49.572 33.3555 49.908C32.5902 50.244 31.7595 50.412 30.8635 50.412C29.6688 50.412 28.5862 50.1693 27.6155 49.684C26.6635 49.18 25.9075 48.4427 25.3475 47.472C24.7875 46.4827 24.5075 45.288 24.5075 43.888C24.5075 41.816 25.1235 40.1733 26.3555 38.96C27.5875 37.728 29.2675 37.112 31.3955 37.112C34.0462 37.112 35.9128 37.9613 36.9955 39.66C38.0968 41.3587 38.6475 43.916 38.6475 47.332C38.6475 49.7587 38.4328 51.7467 38.0035 53.296C37.5928 54.8453 36.8742 56.0213 35.8475 56.824C34.8395 57.6267 33.4582 58.028 31.7035 58.028C30.3222 58.028 29.1462 57.7667 28.1755 57.244C27.2048 56.7027 26.4582 56.0027 25.9355 55.144C25.4315 54.2667 25.1422 53.3053 25.0675 52.26H28.7075ZM31.6755 47.22C32.6462 47.22 33.4115 46.9213 33.9715 46.324C34.5315 45.7267 34.8115 44.924 34.8115 43.916C34.8115 42.8147 34.5128 41.9653 33.9155 41.368C33.3368 40.752 32.5435 40.444 31.5355 40.444C30.5275 40.444 29.7248 40.7613 29.1275 41.396C28.5488 42.012 28.2595 42.8333 28.2595 43.86C28.2595 44.8493 28.5395 45.6613 29.0995 46.296C29.6782 46.912 30.5368 47.22 31.6755 47.22ZM54.0748 46.352V49.656H42.2028V46.352H54.0748ZM59.2551 53.576C61.0471 52.0827 62.4751 50.8413 63.5391 49.852C64.6031 48.844 65.4897 47.7987 66.1991 46.716C66.9084 45.6333 67.2631 44.5693 67.2631 43.524C67.2631 42.572 67.0391 41.8253 66.5911 41.284C66.1431 40.7427 65.4524 40.472 64.5191 40.472C63.5857 40.472 62.8671 40.7893 62.3631 41.424C61.8591 42.04 61.5977 42.8893 61.5791 43.972H57.7711C57.8457 41.732 58.5084 40.0333 59.7591 38.876C61.0284 37.7187 62.6337 37.14 64.5751 37.14C66.7031 37.14 68.3364 37.7093 69.4751 38.848C70.6137 39.968 71.1831 41.452 71.1831 43.3C71.1831 44.756 70.7911 46.1467 70.0071 47.472C69.2231 48.7973 68.3271 49.9547 67.3191 50.944C66.3111 51.9147 64.9951 53.0907 63.3711 54.472H71.6311V57.72H57.7991V54.808L59.2551 53.576ZM74.1012 47.528C74.1012 44.2987 74.6799 41.7693 75.8372 39.94C77.0132 38.1107 78.9545 37.196 81.6612 37.196C84.3679 37.196 86.2999 38.1107 87.4572 39.94C88.6332 41.7693 89.2212 44.2987 89.2212 47.528C89.2212 50.776 88.6332 53.324 87.4572 55.172C86.2999 57.02 84.3679 57.944 81.6612 57.944C78.9545 57.944 77.0132 57.02 75.8372 55.172C74.6799 53.324 74.1012 50.776 74.1012 47.528ZM85.3572 47.528C85.3572 46.1467 85.2639 44.9893 85.0772 44.056C84.9092 43.104 84.5545 42.3293 84.0132 41.732C83.4905 41.1347 82.7065 40.836 81.6612 40.836C80.6159 40.836 79.8225 41.1347 79.2812 41.732C78.7585 42.3293 78.4039 43.104 78.2172 44.056C78.0492 44.9893 77.9652 46.1467 77.9652 47.528C77.9652 48.9467 78.0492 50.1413 78.2172 51.112C78.3852 52.064 78.7399 52.8387 79.2812 53.436C79.8225 54.0147 80.6159 54.304 81.6612 54.304C82.7065 54.304 83.4999 54.0147 84.0412 53.436C84.5825 52.8387 84.9372 52.064 85.1052 51.112C85.2732 50.1413 85.3572 48.9467 85.3572 47.528ZM108.395 58.196C106.565 58.196 104.885 57.7667 103.355 56.908C101.824 56.0493 100.611 54.864 99.7146 53.352C98.8186 51.8213 98.3706 50.0947 98.3706 48.172C98.3706 46.268 98.8186 44.56 99.7146 43.048C100.611 41.5173 101.824 40.3227 103.355 39.464C104.885 38.6053 106.565 38.176 108.395 38.176C110.243 38.176 111.923 38.6053 113.435 39.464C114.965 40.3227 116.169 41.5173 117.047 43.048C117.943 44.56 118.391 46.268 118.391 48.172C118.391 50.0947 117.943 51.8213 117.047 53.352C116.169 54.864 114.965 56.0493 113.435 56.908C111.904 57.7667 110.224 58.196 108.395 58.196ZM108.395 54.696C109.571 54.696 110.607 54.4347 111.503 53.912C112.399 53.3707 113.099 52.6053 113.603 51.616C114.107 50.6267 114.359 49.4787 114.359 48.172C114.359 46.8653 114.107 45.7267 113.603 44.756C113.099 43.7667 112.399 43.0107 111.503 42.488C110.607 41.9653 109.571 41.704 108.395 41.704C107.219 41.704 106.173 41.9653 105.259 42.488C104.363 43.0107 103.663 43.7667 103.159 44.756C102.655 45.7267 102.403 46.8653 102.403 48.172C102.403 49.4787 102.655 50.6267 103.159 51.616C103.663 52.6053 104.363 53.3707 105.259 53.912C106.173 54.4347 107.219 54.696 108.395 54.696ZM130.491 58L125.227 51.392V58H121.307V37.28H125.227V49.068L130.435 42.488H135.531L128.699 50.272L135.587 58H130.491ZM142.223 45.708V53.212C142.223 53.7347 142.344 54.1173 142.587 54.36C142.848 54.584 143.277 54.696 143.875 54.696H145.695V58H143.231C139.927 58 138.275 56.3947 138.275 53.184V45.708H136.427V42.488H138.275V38.652H142.223V42.488H145.695V45.708H142.223ZM155.402 58.252C153.909 58.252 152.565 57.9253 151.37 57.272C150.175 56.6 149.233 55.6573 148.542 54.444C147.87 53.2307 147.534 51.8307 147.534 50.244C147.534 48.6573 147.879 47.2573 148.57 46.044C149.279 44.8307 150.241 43.8973 151.454 43.244C152.667 42.572 154.021 42.236 155.514 42.236C157.007 42.236 158.361 42.572 159.574 43.244C160.787 43.8973 161.739 44.8307 162.43 46.044C163.139 47.2573 163.494 48.6573 163.494 50.244C163.494 51.8307 163.13 53.2307 162.402 54.444C161.693 55.6573 160.722 56.6 159.49 57.272C158.277 57.9253 156.914 58.252 155.402 58.252ZM155.402 54.836C156.111 54.836 156.774 54.668 157.39 54.332C158.025 53.9773 158.529 53.4547 158.902 52.764C159.275 52.0733 159.462 51.2333 159.462 50.244C159.462 48.7693 159.07 47.64 158.286 46.856C157.521 46.0533 156.578 45.652 155.458 45.652C154.338 45.652 153.395 46.0533 152.63 46.856C151.883 47.64 151.51 48.7693 151.51 50.244C151.51 51.7187 151.874 52.8573 152.602 53.66C153.349 54.444 154.282 54.836 155.402 54.836ZM170.29 44.756C170.794 44.0093 171.484 43.4027 172.362 42.936C173.258 42.4693 174.275 42.236 175.414 42.236C176.739 42.236 177.934 42.5627 178.998 43.216C180.08 43.8693 180.93 44.8027 181.546 46.016C182.18 47.2107 182.498 48.6013 182.498 50.188C182.498 51.7747 182.18 53.184 181.546 54.416C180.93 55.6293 180.08 56.572 178.998 57.244C177.934 57.916 176.739 58.252 175.414 58.252C174.256 58.252 173.239 58.028 172.362 57.58C171.503 57.1133 170.812 56.516 170.29 55.788V58H166.37V37.28H170.29V44.756ZM178.494 50.188C178.494 49.2547 178.298 48.452 177.906 47.78C177.532 47.0893 177.028 46.5667 176.394 46.212C175.778 45.8573 175.106 45.68 174.378 45.68C173.668 45.68 172.996 45.8667 172.362 46.24C171.746 46.5947 171.242 47.1173 170.85 47.808C170.476 48.4987 170.29 49.3107 170.29 50.244C170.29 51.1773 170.476 51.9893 170.85 52.68C171.242 53.3707 171.746 53.9027 172.362 54.276C172.996 54.6307 173.668 54.808 174.378 54.808C175.106 54.808 175.778 54.6213 176.394 54.248C177.028 53.8747 177.532 53.3427 177.906 52.652C178.298 51.9613 178.494 51.14 178.494 50.188ZM199.766 49.908C199.766 50.468 199.729 50.972 199.654 51.42H188.314C188.407 52.54 188.799 53.4173 189.49 54.052C190.181 54.6867 191.03 55.004 192.038 55.004C193.494 55.004 194.53 54.3787 195.146 53.128H199.374C198.926 54.6213 198.067 55.8533 196.798 56.824C195.529 57.776 193.97 58.252 192.122 58.252C190.629 58.252 189.285 57.9253 188.09 57.272C186.914 56.6 185.99 55.6573 185.318 54.444C184.665 53.2307 184.338 51.8307 184.338 50.244C184.338 48.6387 184.665 47.2293 185.318 46.016C185.971 44.8027 186.886 43.8693 188.062 43.216C189.238 42.5627 190.591 42.236 192.122 42.236C193.597 42.236 194.913 42.5533 196.07 43.188C197.246 43.8227 198.151 44.728 198.786 45.904C199.439 47.0613 199.766 48.396 199.766 49.908ZM195.706 48.788C195.687 47.78 195.323 46.9773 194.614 46.38C193.905 45.764 193.037 45.456 192.01 45.456C191.039 45.456 190.218 45.7547 189.546 46.352C188.893 46.9307 188.491 47.7427 188.342 48.788H195.706ZM206.547 44.896C207.051 44.0747 207.705 43.4307 208.507 42.964C209.329 42.4973 210.262 42.264 211.307 42.264V46.38H210.271C209.039 46.38 208.106 46.6693 207.471 47.248C206.855 47.8267 206.547 48.8347 206.547 50.272V58H202.627V42.488H206.547V44.896ZM221.404 53.576C223.196 52.0827 224.624 50.8413 225.688 49.852C226.752 48.844 227.638 47.7987 228.348 46.716C229.057 45.6333 229.412 44.5693 229.412 43.524C229.412 42.572 229.188 41.8253 228.74 41.284C228.292 40.7427 227.601 40.472 226.668 40.472C225.734 40.472 225.016 40.7893 224.512 41.424C224.008 42.04 223.746 42.8893 223.728 43.972H219.92C219.994 41.732 220.657 40.0333 221.908 38.876C223.177 37.7187 224.782 37.14 226.724 37.14C228.852 37.14 230.485 37.7093 231.624 38.848C232.762 39.968 233.332 41.452 233.332 43.3C233.332 44.756 232.94 46.1467 232.156 47.472C231.372 48.7973 230.476 49.9547 229.468 50.944C228.46 51.9147 227.144 53.0907 225.52 54.472H233.78V57.72H219.948V54.808L221.404 53.576ZM236.25 47.528C236.25 44.2987 236.828 41.7693 237.986 39.94C239.162 38.1107 241.103 37.196 243.81 37.196C246.516 37.196 248.448 38.1107 249.606 39.94C250.782 41.7693 251.37 44.2987 251.37 47.528C251.37 50.776 250.782 53.324 249.606 55.172C248.448 57.02 246.516 57.944 243.81 57.944C241.103 57.944 239.162 57.02 237.986 55.172C236.828 53.324 236.25 50.776 236.25 47.528ZM247.506 47.528C247.506 46.1467 247.412 44.9893 247.226 44.056C247.058 43.104 246.703 42.3293 246.162 41.732C245.639 41.1347 244.855 40.836 243.81 40.836C242.764 40.836 241.971 41.1347 241.43 41.732C240.907 42.3293 240.552 43.104 240.366 44.056C240.198 44.9893 240.114 46.1467 240.114 47.528C240.114 48.9467 240.198 50.1413 240.366 51.112C240.534 52.064 240.888 52.8387 241.43 53.436C241.971 54.0147 242.764 54.304 243.81 54.304C244.855 54.304 245.648 54.0147 246.19 53.436C246.731 52.8387 247.086 52.064 247.254 51.112C247.422 50.1413 247.506 48.9467 247.506 47.528ZM255.583 53.576C257.375 52.0827 258.803 50.8413 259.867 49.852C260.931 48.844 261.818 47.7987 262.527 46.716C263.237 45.6333 263.591 44.5693 263.591 43.524C263.591 42.572 263.367 41.8253 262.919 41.284C262.471 40.7427 261.781 40.472 260.847 40.472C259.914 40.472 259.195 40.7893 258.691 41.424C258.187 42.04 257.926 42.8893 257.907 43.972H254.099C254.174 41.732 254.837 40.0333 256.087 38.876C257.357 37.7187 258.962 37.14 260.903 37.14C263.031 37.14 264.665 37.7093 265.803 38.848C266.942 39.968 267.511 41.452 267.511 43.3C267.511 44.756 267.119 46.1467 266.335 47.472C265.551 48.7973 264.655 49.9547 263.647 50.944C262.639 51.9147 261.323 53.0907 259.699 54.472H267.959V57.72H254.127V54.808L255.583 53.576ZM270.261 54.024V50.944L279.417 37.84H283.981V50.608H286.445V54.024H283.981V58H280.061V54.024H270.261ZM280.313 42.04L274.573 50.608H280.313V42.04Z" fill="black"/>
</svg>
