<svg width="370" height="76" viewBox="0 0 370 76" fill="none" xmlns="http://www.w3.org/2000/svg">
<rect x="1" y="1" width="368" height="74" rx="35" fill="white" stroke="url(#paint0_linear_1218_935)" stroke-width="2"/>
<path d="M76.5711 30.14C75.5978 30.14 74.7178 29.9733 73.9311 29.64C73.1578 29.3067 72.5444 28.8267 72.0911 28.2C71.6378 27.5733 71.4044 26.8333 71.3911 25.98H74.3911C74.4311 26.5533 74.6311 27.0067 74.9911 27.34C75.3644 27.6733 75.8711 27.84 76.5111 27.84C77.1644 27.84 77.6778 27.6867 78.0511 27.38C78.4244 27.06 78.6111 26.6467 78.6111 26.14C78.6111 25.7267 78.4844 25.3867 78.2311 25.12C77.9778 24.8533 77.6578 24.6467 77.2711 24.5C76.8978 24.34 76.3778 24.1667 75.7111 23.98C74.8044 23.7133 74.0644 23.4533 73.4911 23.2C72.9311 22.9333 72.4444 22.54 72.0311 22.02C71.6311 21.4867 71.4311 20.78 71.4311 19.9C71.4311 19.0733 71.6378 18.3533 72.0511 17.74C72.4644 17.1267 73.0444 16.66 73.7911 16.34C74.5378 16.0067 75.3911 15.84 76.3511 15.84C77.7911 15.84 78.9578 16.1933 79.8511 16.9C80.7578 17.5933 81.2578 18.5667 81.3511 19.82H78.2711C78.2444 19.34 78.0378 18.9467 77.6511 18.64C77.2778 18.32 76.7778 18.16 76.1511 18.16C75.6044 18.16 75.1644 18.3 74.8311 18.58C74.5111 18.86 74.3511 19.2667 74.3511 19.8C74.3511 20.1733 74.4711 20.4867 74.7111 20.74C74.9644 20.98 75.2711 21.18 75.6311 21.34C76.0044 21.4867 76.5244 21.66 77.1911 21.86C78.0978 22.1267 78.8378 22.3933 79.4111 22.66C79.9844 22.9267 80.4778 23.3267 80.8911 23.86C81.3044 24.3933 81.5111 25.0933 81.5111 25.96C81.5111 26.7067 81.3178 27.4 80.9311 28.04C80.5444 28.68 79.9778 29.1933 79.2311 29.58C78.4844 29.9533 77.5978 30.14 76.5711 30.14ZM86.7386 16.04V30H83.9386V16.04H86.7386ZM94.325 30.14C93.3517 30.14 92.4717 29.9733 91.685 29.64C90.9117 29.3067 90.2983 28.8267 89.845 28.2C89.3917 27.5733 89.1583 26.8333 89.145 25.98H92.145C92.185 26.5533 92.385 27.0067 92.745 27.34C93.1183 27.6733 93.625 27.84 94.265 27.84C94.9183 27.84 95.4317 27.6867 95.805 27.38C96.1783 27.06 96.365 26.6467 96.365 26.14C96.365 25.7267 96.2383 25.3867 95.985 25.12C95.7317 24.8533 95.4117 24.6467 95.025 24.5C94.6517 24.34 94.1317 24.1667 93.465 23.98C92.5583 23.7133 91.8183 23.4533 91.245 23.2C90.685 22.9333 90.1983 22.54 89.785 22.02C89.385 21.4867 89.185 20.78 89.185 19.9C89.185 19.0733 89.3917 18.3533 89.805 17.74C90.2183 17.1267 90.7983 16.66 91.545 16.34C92.2917 16.0067 93.145 15.84 94.105 15.84C95.545 15.84 96.7117 16.1933 97.605 16.9C98.5117 17.5933 99.0117 18.5667 99.105 19.82H96.025C95.9983 19.34 95.7917 18.9467 95.405 18.64C95.0317 18.32 94.5317 18.16 93.905 18.16C93.3583 18.16 92.9183 18.3 92.585 18.58C92.265 18.86 92.105 19.2667 92.105 19.8C92.105 20.1733 92.225 20.4867 92.465 20.74C92.7183 20.98 93.025 21.18 93.385 21.34C93.7583 21.4867 94.2783 21.66 94.945 21.86C95.8517 22.1267 96.5917 22.3933 97.165 22.66C97.7383 22.9267 98.2317 23.3267 98.645 23.86C99.0583 24.3933 99.265 25.0933 99.265 25.96C99.265 26.7067 99.0717 27.4 98.685 28.04C98.2983 28.68 97.7317 29.1933 96.985 29.58C96.2383 29.9533 95.3517 30.14 94.325 30.14ZM120.353 16.04L116.453 30H113.153L110.533 20.06L107.793 30L104.513 30.02L100.753 16.04H103.753L106.213 26.88L109.053 16.04H112.173L114.853 26.82L117.333 16.04H120.353ZM130.741 27.34H125.181L124.261 30H121.321L126.341 16.02H129.601L134.621 30H131.661L130.741 27.34ZM129.981 25.1L127.961 19.26L125.941 25.1H129.981ZM143.997 11.06L138.597 33.62H135.857L141.257 11.06H143.997ZM149.024 16.04V30H146.224V16.04H149.024ZM161.376 30.14C160.402 30.14 159.522 29.9733 158.736 29.64C157.962 29.3067 157.349 28.8267 156.896 28.2C156.442 27.5733 156.209 26.8333 156.196 25.98H159.196C159.236 26.5533 159.436 27.0067 159.796 27.34C160.169 27.6733 160.676 27.84 161.316 27.84C161.969 27.84 162.482 27.6867 162.856 27.38C163.229 27.06 163.416 26.6467 163.416 26.14C163.416 25.7267 163.289 25.3867 163.036 25.12C162.782 24.8533 162.462 24.6467 162.076 24.5C161.702 24.34 161.182 24.1667 160.516 23.98C159.609 23.7133 158.869 23.4533 158.296 23.2C157.736 22.9333 157.249 22.54 156.836 22.02C156.436 21.4867 156.236 20.78 156.236 19.9C156.236 19.0733 156.442 18.3533 156.856 17.74C157.269 17.1267 157.849 16.66 158.596 16.34C159.342 16.0067 160.196 15.84 161.156 15.84C162.596 15.84 163.762 16.1933 164.656 16.9C165.562 17.5933 166.062 18.5667 166.156 19.82H163.076C163.049 19.34 162.842 18.9467 162.456 18.64C162.082 18.32 161.582 18.16 160.956 18.16C160.409 18.16 159.969 18.3 159.636 18.58C159.316 18.86 159.156 19.2667 159.156 19.8C159.156 20.1733 159.276 20.4867 159.516 20.74C159.769 20.98 160.076 21.18 160.436 21.34C160.809 21.4867 161.329 21.66 161.996 21.86C162.902 22.1267 163.642 22.3933 164.216 22.66C164.789 22.9267 165.282 23.3267 165.696 23.86C166.109 24.3933 166.316 25.0933 166.316 25.96C166.316 26.7067 166.122 27.4 165.736 28.04C165.349 28.68 164.782 29.1933 164.036 29.58C163.289 29.9533 162.402 30.14 161.376 30.14ZM183.963 16.04V30H181.163V20.92L177.423 30H175.303L171.543 20.92V30H168.743V16.04H171.923L176.363 26.42L180.803 16.04H183.963ZM195.292 27.34H189.732L188.812 30H185.872L190.892 16.02H194.152L199.172 30H196.212L195.292 27.34ZM194.532 25.1L192.512 19.26L190.492 25.1H194.532ZM208.548 11.06L203.148 33.62H200.408L205.808 11.06H208.548ZM225.995 16.04V30H223.195V20.92L219.455 30H217.335L213.575 20.92V30H210.775V16.04H213.955L218.395 26.42L222.835 16.04H225.995ZM237.323 27.34H231.763L230.843 30H227.903L232.923 16.02H236.183L241.203 30H238.243L237.323 27.34ZM236.563 25.1L234.543 19.26L232.523 25.1H236.563ZM250.579 11.06L245.179 33.62H242.439L247.839 11.06H250.579ZM257.626 30.14C256.652 30.14 255.772 29.9733 254.986 29.64C254.212 29.3067 253.599 28.8267 253.146 28.2C252.692 27.5733 252.459 26.8333 252.446 25.98H255.446C255.486 26.5533 255.686 27.0067 256.046 27.34C256.419 27.6733 256.926 27.84 257.566 27.84C258.219 27.84 258.732 27.6867 259.106 27.38C259.479 27.06 259.666 26.6467 259.666 26.14C259.666 25.7267 259.539 25.3867 259.286 25.12C259.032 24.8533 258.712 24.6467 258.326 24.5C257.952 24.34 257.432 24.1667 256.766 23.98C255.859 23.7133 255.119 23.4533 254.546 23.2C253.986 22.9333 253.499 22.54 253.086 22.02C252.686 21.4867 252.486 20.78 252.486 19.9C252.486 19.0733 252.692 18.3533 253.106 17.74C253.519 17.1267 254.099 16.66 254.846 16.34C255.592 16.0067 256.446 15.84 257.406 15.84C258.846 15.84 260.012 16.1933 260.906 16.9C261.812 17.5933 262.312 18.5667 262.406 19.82H259.326C259.299 19.34 259.092 18.9467 258.706 18.64C258.332 18.32 257.832 18.16 257.206 18.16C256.659 18.16 256.219 18.3 255.886 18.58C255.566 18.86 255.406 19.2667 255.406 19.8C255.406 20.1733 255.526 20.4867 255.766 20.74C256.019 20.98 256.326 21.18 256.686 21.34C257.059 21.4867 257.579 21.66 258.246 21.86C259.152 22.1267 259.892 22.3933 260.466 22.66C261.039 22.9267 261.532 23.3267 261.946 23.86C262.359 24.3933 262.566 25.0933 262.566 25.96C262.566 26.7067 262.372 27.4 261.986 28.04C261.599 28.68 261.032 29.1933 260.286 29.58C259.539 29.9533 258.652 30.14 257.626 30.14ZM280.213 16.04V30H277.413V20.92L273.673 30H271.553L267.793 20.92V30H264.993V16.04H268.173L272.613 26.42L277.053 16.04H280.213ZM290.862 30L285.782 23.78V30H282.982V16.04H285.782V22.3L290.862 16.04H294.242L288.482 22.96L294.402 30H290.862ZM59.6961 60.14C58.7228 60.14 57.8428 59.9733 57.0561 59.64C56.2828 59.3067 55.6694 58.8267 55.2161 58.2C54.7628 57.5733 54.5294 56.8333 54.5161 55.98H57.5161C57.5561 56.5533 57.7561 57.0067 58.1161 57.34C58.4894 57.6733 58.9961 57.84 59.6361 57.84C60.2894 57.84 60.8028 57.6867 61.1761 57.38C61.5494 57.06 61.7361 56.6467 61.7361 56.14C61.7361 55.7267 61.6094 55.3867 61.3561 55.12C61.1028 54.8533 60.7828 54.6467 60.3961 54.5C60.0228 54.34 59.5028 54.1667 58.8361 53.98C57.9294 53.7133 57.1894 53.4533 56.6161 53.2C56.0561 52.9333 55.5694 52.54 55.1561 52.02C54.7561 51.4867 54.5561 50.78 54.5561 49.9C54.5561 49.0733 54.7628 48.3533 55.1761 47.74C55.5894 47.1267 56.1694 46.66 56.9161 46.34C57.6628 46.0067 58.5161 45.84 59.4761 45.84C60.9161 45.84 62.0828 46.1933 62.9761 46.9C63.8828 47.5933 64.3828 48.5667 64.4761 49.82H61.3961C61.3694 49.34 61.1628 48.9467 60.7761 48.64C60.4028 48.32 59.9028 48.16 59.2761 48.16C58.7294 48.16 58.2894 48.3 57.9561 48.58C57.6361 48.86 57.4761 49.2667 57.4761 49.8C57.4761 50.1733 57.5961 50.4867 57.8361 50.74C58.0894 50.98 58.3961 51.18 58.7561 51.34C59.1294 51.4867 59.6494 51.66 60.3161 51.86C61.2228 52.1267 61.9628 52.3933 62.5361 52.66C63.1094 52.9267 63.6028 53.3267 64.0161 53.86C64.4294 54.3933 64.6361 55.0933 64.6361 55.96C64.6361 56.7067 64.4428 57.4 64.0561 58.04C63.6694 58.68 63.1028 59.1933 62.3561 59.58C61.6094 59.9533 60.7228 60.14 59.6961 60.14ZM69.8636 48.3V51.8H74.5636V54.02H69.8636V57.72H75.1636V60H67.0636V46.02H75.1636V48.3H69.8636ZM82.5881 46.04C84.0548 46.04 85.3415 46.3267 86.4481 46.9C87.5681 47.4733 88.4281 48.2933 89.0281 49.36C89.6415 50.4133 89.9481 51.64 89.9481 53.04C89.9481 54.44 89.6415 55.6667 89.0281 56.72C88.4281 57.76 87.5681 58.5667 86.4481 59.14C85.3415 59.7133 84.0548 60 82.5881 60H77.7081V46.04H82.5881ZM82.4881 57.62C83.9548 57.62 85.0881 57.22 85.8881 56.42C86.6881 55.62 87.0881 54.4933 87.0881 53.04C87.0881 51.5867 86.6881 50.4533 85.8881 49.64C85.0881 48.8133 83.9548 48.4 82.4881 48.4H80.5081V57.62H82.4881ZM94.8441 48.3V51.8H99.5441V54.02H94.8441V57.72H100.144V60H92.0441V46.02H100.144V48.3H94.8441ZM109.889 60L106.809 54.56H105.489V60H102.689V46.04H107.929C109.009 46.04 109.929 46.2333 110.689 46.62C111.449 46.9933 112.015 47.5067 112.389 48.16C112.775 48.8 112.969 49.52 112.969 50.32C112.969 51.24 112.702 52.0733 112.169 52.82C111.635 53.5533 110.842 54.06 109.789 54.34L113.129 60H109.889ZM105.489 52.46H107.829C108.589 52.46 109.155 52.28 109.529 51.92C109.902 51.5467 110.089 51.0333 110.089 50.38C110.089 49.74 109.902 49.2467 109.529 48.9C109.155 48.54 108.589 48.36 107.829 48.36H105.489V52.46ZM124.061 57.34H118.501L117.581 60H114.641L119.661 46.02H122.921L127.941 60H124.981L124.061 57.34ZM123.301 55.1L121.281 49.26L119.261 55.1H123.301ZM137.958 46.04V55.84C137.958 57.2 137.564 58.26 136.778 59.02C135.991 59.7667 134.938 60.14 133.618 60.14C132.284 60.14 131.204 59.7533 130.378 58.98C129.564 58.2067 129.158 57.1267 129.158 55.74H131.958C131.971 56.34 132.111 56.8067 132.378 57.14C132.658 57.4733 133.058 57.64 133.577 57.64C134.084 57.64 134.471 57.48 134.738 57.16C135.004 56.84 135.138 56.4 135.138 55.84V46.04H137.958ZM149.784 57.34H144.224L143.304 60H140.364L145.384 46.02H148.644L153.664 60H150.704L149.784 57.34ZM149.024 55.1L147.004 49.26L144.984 55.1H149.024ZM165.04 46.04V48.3H161.32V60H158.52V48.3H154.8V46.04H165.04ZM182.589 60L181.069 58.5C179.775 59.66 178.195 60.24 176.329 60.24C175.302 60.24 174.395 60.0667 173.609 59.72C172.835 59.36 172.235 58.86 171.809 58.22C171.382 57.5667 171.169 56.8133 171.169 55.96C171.169 55.04 171.429 54.2133 171.949 53.48C172.469 52.7467 173.235 52.1533 174.249 51.7C173.889 51.26 173.629 50.84 173.469 50.44C173.309 50.0267 173.229 49.5867 173.229 49.12C173.229 48.48 173.395 47.9067 173.729 47.4C174.062 46.88 174.535 46.4733 175.149 46.18C175.775 45.8867 176.502 45.74 177.329 45.74C178.169 45.74 178.889 45.9 179.489 46.22C180.089 46.54 180.535 46.9667 180.829 47.5C181.122 48.0333 181.249 48.6267 181.209 49.28H178.489C178.502 48.84 178.395 48.5067 178.169 48.28C177.942 48.04 177.635 47.92 177.249 47.92C176.875 47.92 176.562 48.0333 176.309 48.26C176.069 48.4733 175.949 48.7533 175.949 49.1C175.949 49.4333 176.049 49.7667 176.249 50.1C176.449 50.42 176.775 50.82 177.229 51.3L180.749 54.78C180.775 54.7533 180.795 54.7267 180.809 54.7C180.822 54.6733 180.835 54.6467 180.849 54.62L181.989 52.72H184.909L183.509 55.18C183.242 55.7 182.955 56.1933 182.649 56.66L186.029 60H182.589ZM176.409 57.92C177.502 57.92 178.469 57.5333 179.309 56.76L175.869 53.36C174.575 53.9333 173.929 54.7467 173.929 55.8C173.929 56.4 174.155 56.9067 174.609 57.32C175.062 57.72 175.662 57.92 176.409 57.92ZM207.401 46.04V60H204.601V50.92L200.861 60H198.741L194.981 50.92V60H192.181V46.04H195.361L199.801 56.42L204.241 46.04H207.401ZM218.729 57.34H213.169L212.249 60H209.309L214.329 46.02H217.589L222.609 60H219.649L218.729 57.34ZM217.969 55.1L215.949 49.26L213.929 55.1H217.969ZM236.065 46.04V60H233.265V54.06H227.285V60H224.485V46.04H227.285V51.78H233.265V46.04H236.065ZM247.381 57.34H241.821L240.901 60H237.961L242.981 46.02H246.241L251.261 60H248.301L247.381 57.34ZM246.621 55.1L244.601 49.26L242.581 55.1H246.621ZM257.958 60.14C256.984 60.14 256.104 59.9733 255.318 59.64C254.544 59.3067 253.931 58.8267 253.478 58.2C253.024 57.5733 252.791 56.8333 252.778 55.98H255.778C255.818 56.5533 256.018 57.0067 256.378 57.34C256.751 57.6733 257.258 57.84 257.898 57.84C258.551 57.84 259.064 57.6867 259.438 57.38C259.811 57.06 259.998 56.6467 259.998 56.14C259.998 55.7267 259.871 55.3867 259.618 55.12C259.364 54.8533 259.044 54.6467 258.658 54.5C258.284 54.34 257.764 54.1667 257.098 53.98C256.191 53.7133 255.451 53.4533 254.878 53.2C254.318 52.9333 253.831 52.54 253.418 52.02C253.018 51.4867 252.818 50.78 252.818 49.9C252.818 49.0733 253.024 48.3533 253.438 47.74C253.851 47.1267 254.431 46.66 255.178 46.34C255.924 46.0067 256.778 45.84 257.738 45.84C259.178 45.84 260.344 46.1933 261.238 46.9C262.144 47.5933 262.644 48.5667 262.738 49.82H259.658C259.631 49.34 259.424 48.9467 259.038 48.64C258.664 48.32 258.164 48.16 257.538 48.16C256.991 48.16 256.551 48.3 256.218 48.58C255.898 48.86 255.738 49.2667 255.738 49.8C255.738 50.1733 255.858 50.4867 256.098 50.74C256.351 50.98 256.658 51.18 257.018 51.34C257.391 51.4867 257.911 51.66 258.578 51.86C259.484 52.1267 260.224 52.3933 260.798 52.66C261.371 52.9267 261.864 53.3267 262.278 53.86C262.691 54.3933 262.898 55.0933 262.898 55.96C262.898 56.7067 262.704 57.4 262.318 58.04C261.931 58.68 261.364 59.1933 260.618 59.58C259.871 59.9533 258.984 60.14 257.958 60.14ZM268.125 46.04V60H265.325V46.04H268.125ZM275.712 60.14C274.738 60.14 273.858 59.9733 273.072 59.64C272.298 59.3067 271.685 58.8267 271.232 58.2C270.778 57.5733 270.545 56.8333 270.532 55.98H273.532C273.572 56.5533 273.772 57.0067 274.132 57.34C274.505 57.6733 275.012 57.84 275.652 57.84C276.305 57.84 276.818 57.6867 277.192 57.38C277.565 57.06 277.752 56.6467 277.752 56.14C277.752 55.7267 277.625 55.3867 277.372 55.12C277.118 54.8533 276.798 54.6467 276.412 54.5C276.038 54.34 275.518 54.1667 274.852 53.98C273.945 53.7133 273.205 53.4533 272.632 53.2C272.072 52.9333 271.585 52.54 271.172 52.02C270.772 51.4867 270.572 50.78 270.572 49.9C270.572 49.0733 270.778 48.3533 271.192 47.74C271.605 47.1267 272.185 46.66 272.932 46.34C273.678 46.0067 274.532 45.84 275.492 45.84C276.932 45.84 278.098 46.1933 278.992 46.9C279.898 47.5933 280.398 48.5667 280.492 49.82H277.412C277.385 49.34 277.178 48.9467 276.792 48.64C276.418 48.32 275.918 48.16 275.292 48.16C274.745 48.16 274.305 48.3 273.972 48.58C273.652 48.86 273.492 49.2667 273.492 49.8C273.492 50.1733 273.612 50.4867 273.852 50.74C274.105 50.98 274.412 51.18 274.772 51.34C275.145 51.4867 275.665 51.66 276.332 51.86C277.238 52.1267 277.978 52.3933 278.552 52.66C279.125 52.9267 279.618 53.3267 280.032 53.86C280.445 54.3933 280.652 55.0933 280.652 55.96C280.652 56.7067 280.458 57.4 280.072 58.04C279.685 58.68 279.118 59.1933 278.372 59.58C277.625 59.9533 276.738 60.14 275.712 60.14ZM301.739 46.04L297.839 60H294.539L291.919 50.06L289.179 60L285.899 60.02L282.139 46.04H285.139L287.599 56.88L290.439 46.04H293.559L296.239 56.82L298.719 46.04H301.739ZM312.128 57.34H306.568L305.648 60H302.708L307.728 46.02H310.988L316.008 60H313.048L312.128 57.34ZM311.368 55.1L309.348 49.26L307.327 55.1H311.368Z" fill="black"/>
<defs>
<linearGradient id="paint0_linear_1218_935" x1="185" y1="0" x2="185" y2="76" gradientUnits="userSpaceOnUse">
<stop offset="0.095" stop-color="#D7B575"/>
<stop offset="0.32" stop-color="#BED775"/>
<stop offset="0.99" stop-color="#4E3D71"/>
</linearGradient>
</defs>
</svg>
