<svg width="1030" height="100" viewBox="0 0 1030 100" fill="none" xmlns="http://www.w3.org/2000/svg">
<rect x="5" y="5" width="1020" height="90" rx="33" fill="white" stroke="url(#paint0_linear_3463_22)" stroke-width="10"/>
<path d="M83.848 60.196C82.4107 60.196 81.1227 59.9627 79.984 59.496C78.8453 59.0293 77.9307 58.3387 77.24 57.424C76.568 56.5093 76.2133 55.408 76.176 54.12H81.272C81.3467 54.848 81.5987 55.408 82.028 55.8C82.4573 56.1733 83.0173 56.36 83.708 56.36C84.4173 56.36 84.9773 56.2013 85.388 55.884C85.7987 55.548 86.004 55.0907 86.004 54.512C86.004 54.0267 85.836 53.6253 85.5 53.308C85.1827 52.9907 84.7813 52.7293 84.296 52.524C83.8293 52.3187 83.1573 52.0853 82.28 51.824C81.0107 51.432 79.9747 51.04 79.172 50.648C78.3693 50.256 77.6787 49.6773 77.1 48.912C76.5213 48.1467 76.232 47.148 76.232 45.916C76.232 44.0867 76.8947 42.6587 78.22 41.632C79.5453 40.5867 81.272 40.064 83.4 40.064C85.5653 40.064 87.3107 40.5867 88.636 41.632C89.9613 42.6587 90.6707 44.096 90.764 45.944H85.584C85.5467 45.3093 85.3133 44.8147 84.884 44.46C84.4547 44.0867 83.904 43.9 83.232 43.9C82.6533 43.9 82.1867 44.0587 81.832 44.376C81.4773 44.6747 81.3 45.1133 81.3 45.692C81.3 46.3267 81.5987 46.8213 82.196 47.176C82.7933 47.5307 83.7267 47.9133 84.996 48.324C86.2653 48.7533 87.292 49.164 88.076 49.556C88.8787 49.948 89.5693 50.5173 90.148 51.264C90.7267 52.0107 91.016 52.972 91.016 54.148C91.016 55.268 90.7267 56.2853 90.148 57.2C89.588 58.1147 88.7667 58.8427 87.684 59.384C86.6013 59.9253 85.3227 60.196 83.848 60.196ZM109.391 44.376V60H104.603V57.872C104.117 58.5627 103.455 59.1227 102.615 59.552C101.793 59.9627 100.879 60.168 99.8706 60.168C98.6759 60.168 97.6212 59.9067 96.7066 59.384C95.7919 58.8427 95.0826 58.068 94.5786 57.06C94.0746 56.052 93.8226 54.8667 93.8226 53.504V44.376H98.5826V52.86C98.5826 53.9053 98.8532 54.7173 99.3946 55.296C99.9359 55.8747 100.664 56.164 101.579 56.164C102.512 56.164 103.249 55.8747 103.791 55.296C104.332 54.7173 104.603 53.9053 104.603 52.86V44.376H109.391ZM118.766 44.152C119.867 44.152 120.828 44.376 121.65 44.824C122.49 45.272 123.134 45.86 123.582 46.588V44.376H128.37V59.972C128.37 61.4093 128.08 62.7067 127.502 63.864C126.942 65.04 126.074 65.9733 124.898 66.664C123.74 67.3547 122.294 67.7 120.558 67.7C118.243 67.7 116.367 67.1493 114.93 66.048C113.492 64.9653 112.671 63.4907 112.466 61.624H117.198C117.347 62.2213 117.702 62.688 118.262 63.024C118.822 63.3787 119.512 63.556 120.334 63.556C121.323 63.556 122.107 63.2667 122.686 62.688C123.283 62.128 123.582 61.2227 123.582 59.972V57.76C123.115 58.488 122.471 59.0853 121.65 59.552C120.828 60 119.867 60.224 118.766 60.224C117.478 60.224 116.311 59.8973 115.266 59.244C114.22 58.572 113.39 57.6293 112.774 56.416C112.176 55.184 111.878 53.7653 111.878 52.16C111.878 50.5547 112.176 49.1453 112.774 47.932C113.39 46.7187 114.22 45.7853 115.266 45.132C116.311 44.4787 117.478 44.152 118.766 44.152ZM123.582 52.188C123.582 50.9933 123.246 50.0507 122.574 49.36C121.92 48.6693 121.118 48.324 120.166 48.324C119.214 48.324 118.402 48.6693 117.73 49.36C117.076 50.032 116.75 50.9653 116.75 52.16C116.75 53.3547 117.076 54.3067 117.73 55.016C118.402 55.7067 119.214 56.052 120.166 56.052C121.118 56.052 121.92 55.7067 122.574 55.016C123.246 54.3253 123.582 53.3827 123.582 52.188ZM146.562 51.936C146.562 52.384 146.534 52.8507 146.478 53.336H135.642C135.716 54.3067 136.024 55.0533 136.566 55.576C137.126 56.08 137.807 56.332 138.61 56.332C139.804 56.332 140.635 55.828 141.102 54.82H146.198C145.936 55.8467 145.46 56.7707 144.77 57.592C144.098 58.4133 143.248 59.0573 142.222 59.524C141.195 59.9907 140.047 60.224 138.778 60.224C137.247 60.224 135.884 59.8973 134.69 59.244C133.495 58.5907 132.562 57.6573 131.89 56.444C131.218 55.2307 130.882 53.812 130.882 52.188C130.882 50.564 131.208 49.1453 131.862 47.932C132.534 46.7187 133.467 45.7853 134.662 45.132C135.856 44.4787 137.228 44.152 138.778 44.152C140.29 44.152 141.634 44.4693 142.81 45.104C143.986 45.7387 144.9 46.644 145.554 47.82C146.226 48.996 146.562 50.368 146.562 51.936ZM141.662 50.676C141.662 49.8547 141.382 49.2013 140.822 48.716C140.262 48.2307 139.562 47.988 138.722 47.988C137.919 47.988 137.238 48.2213 136.678 48.688C136.136 49.1547 135.8 49.8173 135.67 50.676H141.662ZM158.608 44.208C160.437 44.208 161.893 44.8053 162.976 46C164.077 47.176 164.628 48.8 164.628 50.872V60H159.868V51.516C159.868 50.4707 159.597 49.6587 159.056 49.08C158.514 48.5013 157.786 48.212 156.872 48.212C155.957 48.212 155.229 48.5013 154.688 49.08C154.146 49.6587 153.876 50.4707 153.876 51.516V60H149.088V44.376H153.876V46.448C154.361 45.7573 155.014 45.216 155.836 44.824C156.657 44.4133 157.581 44.208 158.608 44.208ZM173.891 44.152C174.992 44.152 175.953 44.376 176.775 44.824C177.615 45.272 178.259 45.86 178.707 46.588V44.376H183.495V59.972C183.495 61.4093 183.205 62.7067 182.627 63.864C182.067 65.04 181.199 65.9733 180.023 66.664C178.865 67.3547 177.419 67.7 175.683 67.7C173.368 67.7 171.492 67.1493 170.055 66.048C168.617 64.9653 167.796 63.4907 167.591 61.624H172.323C172.472 62.2213 172.827 62.688 173.387 63.024C173.947 63.3787 174.637 63.556 175.459 63.556C176.448 63.556 177.232 63.2667 177.811 62.688C178.408 62.128 178.707 61.2227 178.707 59.972V57.76C178.24 58.488 177.596 59.0853 176.775 59.552C175.953 60 174.992 60.224 173.891 60.224C172.603 60.224 171.436 59.8973 170.391 59.244C169.345 58.572 168.515 57.6293 167.899 56.416C167.301 55.184 167.003 53.7653 167.003 52.16C167.003 50.5547 167.301 49.1453 167.899 47.932C168.515 46.7187 169.345 45.7853 170.391 45.132C171.436 44.4787 172.603 44.152 173.891 44.152ZM178.707 52.188C178.707 50.9933 178.371 50.0507 177.699 49.36C177.045 48.6693 176.243 48.324 175.291 48.324C174.339 48.324 173.527 48.6693 172.855 49.36C172.201 50.032 171.875 50.9653 171.875 52.16C171.875 53.3547 172.201 54.3067 172.855 55.016C173.527 55.7067 174.339 56.052 175.291 56.052C176.243 56.052 177.045 55.7067 177.699 55.016C178.371 54.3253 178.707 53.3827 178.707 52.188ZM205.128 56.528H197.792L196.616 60H191.604L198.716 40.344H204.26L211.372 60H206.304L205.128 56.528ZM203.896 52.832L201.46 45.636L199.052 52.832H203.896ZM218.325 39.28V60H213.537V39.28H218.325ZM220.843 52.16C220.843 50.5547 221.141 49.1453 221.739 47.932C222.355 46.7187 223.185 45.7853 224.231 45.132C225.276 44.4787 226.443 44.152 227.731 44.152C228.757 44.152 229.691 44.3667 230.531 44.796C231.389 45.2253 232.061 45.804 232.547 46.532V39.28H237.335V60H232.547V57.76C232.099 58.5067 231.455 59.104 230.615 59.552C229.793 60 228.832 60.224 227.731 60.224C226.443 60.224 225.276 59.8973 224.231 59.244C223.185 58.572 222.355 57.6293 221.739 56.416C221.141 55.184 220.843 53.7653 220.843 52.16ZM232.547 52.188C232.547 50.9933 232.211 50.0507 231.539 49.36C230.885 48.6693 230.083 48.324 229.131 48.324C228.179 48.324 227.367 48.6693 226.695 49.36C226.041 50.032 225.715 50.9653 225.715 52.16C225.715 53.3547 226.041 54.3067 226.695 55.016C227.367 55.7067 228.179 56.052 229.131 56.052C230.083 56.052 230.885 55.7067 231.539 55.016C232.211 54.3253 232.547 53.3827 232.547 52.188ZM243.207 42.752C242.367 42.752 241.676 42.5093 241.135 42.024C240.612 41.52 240.351 40.904 240.351 40.176C240.351 39.4293 240.612 38.8133 241.135 38.328C241.676 37.824 242.367 37.572 243.207 37.572C244.028 37.572 244.7 37.824 245.223 38.328C245.764 38.8133 246.035 39.4293 246.035 40.176C246.035 40.904 245.764 41.52 245.223 42.024C244.7 42.5093 244.028 42.752 243.207 42.752ZM245.587 44.376V60H240.799V44.376H245.587ZM282.038 40.344L276.914 60H271.118L267.982 47.064L264.734 60H258.938L253.954 40.344H259.078L261.906 54.652L265.406 40.344H270.67L274.03 54.652L276.886 40.344H282.038ZM286.847 42.752C286.007 42.752 285.316 42.5093 284.775 42.024C284.252 41.52 283.991 40.904 283.991 40.176C283.991 39.4293 284.252 38.8133 284.775 38.328C285.316 37.824 286.007 37.572 286.847 37.572C287.668 37.572 288.34 37.824 288.863 38.328C289.404 38.8133 289.675 39.4293 289.675 40.176C289.675 40.904 289.404 41.52 288.863 42.024C288.34 42.5093 287.668 42.752 286.847 42.752ZM289.227 44.376V60H284.439V44.376H289.227ZM291.745 52.16C291.745 50.5547 292.044 49.1453 292.641 47.932C293.257 46.7187 294.088 45.7853 295.133 45.132C296.178 44.4787 297.345 44.152 298.633 44.152C299.66 44.152 300.593 44.3667 301.433 44.796C302.292 45.2253 302.964 45.804 303.449 46.532V39.28H308.237V60H303.449V57.76C303.001 58.5067 302.357 59.104 301.517 59.552C300.696 60 299.734 60.224 298.633 60.224C297.345 60.224 296.178 59.8973 295.133 59.244C294.088 58.572 293.257 57.6293 292.641 56.416C292.044 55.184 291.745 53.7653 291.745 52.16ZM303.449 52.188C303.449 50.9933 303.113 50.0507 302.441 49.36C301.788 48.6693 300.985 48.324 300.033 48.324C299.081 48.324 298.269 48.6693 297.597 49.36C296.944 50.032 296.617 50.9653 296.617 52.16C296.617 53.3547 296.944 54.3067 297.597 55.016C298.269 55.7067 299.081 56.052 300.033 56.052C300.985 56.052 301.788 55.7067 302.441 55.016C303.113 54.3253 303.449 53.3827 303.449 52.188ZM318.813 60.224C317.282 60.224 315.901 59.8973 314.669 59.244C313.456 58.5907 312.494 57.6573 311.785 56.444C311.094 55.2307 310.749 53.812 310.749 52.188C310.749 50.5827 311.104 49.1733 311.813 47.96C312.522 46.728 313.493 45.7853 314.725 45.132C315.957 44.4787 317.338 44.152 318.869 44.152C320.4 44.152 321.781 44.4787 323.013 45.132C324.245 45.7853 325.216 46.728 325.925 47.96C326.634 49.1733 326.989 50.5827 326.989 52.188C326.989 53.7933 326.625 55.212 325.897 56.444C325.188 57.6573 324.208 58.5907 322.957 59.244C321.725 59.8973 320.344 60.224 318.813 60.224ZM318.813 56.08C319.728 56.08 320.502 55.744 321.137 55.072C321.79 54.4 322.117 53.4387 322.117 52.188C322.117 50.9373 321.8 49.976 321.165 49.304C320.549 48.632 319.784 48.296 318.869 48.296C317.936 48.296 317.161 48.632 316.545 49.304C315.929 49.9573 315.621 50.9187 315.621 52.188C315.621 53.4387 315.92 54.4 316.517 55.072C317.133 55.744 317.898 56.08 318.813 56.08ZM328.577 52.16C328.577 50.5547 328.876 49.1453 329.473 47.932C330.089 46.7187 330.92 45.7853 331.965 45.132C333.01 44.4787 334.177 44.152 335.465 44.152C336.492 44.152 337.425 44.3667 338.265 44.796C339.124 45.2253 339.796 45.804 340.281 46.532V39.28H345.069V60H340.281V57.76C339.833 58.5067 339.189 59.104 338.349 59.552C337.528 60 336.566 60.224 335.465 60.224C334.177 60.224 333.01 59.8973 331.965 59.244C330.92 58.572 330.089 57.6293 329.473 56.416C328.876 55.184 328.577 53.7653 328.577 52.16ZM340.281 52.188C340.281 50.9933 339.945 50.0507 339.273 49.36C338.62 48.6693 337.817 48.324 336.865 48.324C335.913 48.324 335.101 48.6693 334.429 49.36C333.776 50.032 333.449 50.9653 333.449 52.16C333.449 53.3547 333.776 54.3067 334.429 55.016C335.101 55.7067 335.913 56.052 336.865 56.052C337.817 56.052 338.62 55.7067 339.273 55.016C339.945 54.3253 340.281 53.3827 340.281 52.188ZM355.645 60.224C354.114 60.224 352.733 59.8973 351.501 59.244C350.288 58.5907 349.326 57.6573 348.617 56.444C347.926 55.2307 347.581 53.812 347.581 52.188C347.581 50.5827 347.936 49.1733 348.645 47.96C349.354 46.728 350.325 45.7853 351.557 45.132C352.789 44.4787 354.17 44.152 355.701 44.152C357.232 44.152 358.613 44.4787 359.845 45.132C361.077 45.7853 362.048 46.728 362.757 47.96C363.466 49.1733 363.821 50.5827 363.821 52.188C363.821 53.7933 363.457 55.212 362.729 56.444C362.02 57.6573 361.04 58.5907 359.789 59.244C358.557 59.8973 357.176 60.224 355.645 60.224ZM355.645 56.08C356.56 56.08 357.334 55.744 357.969 55.072C358.622 54.4 358.949 53.4387 358.949 52.188C358.949 50.9373 358.632 49.976 357.997 49.304C357.381 48.632 356.616 48.296 355.701 48.296C354.768 48.296 353.993 48.632 353.377 49.304C352.761 49.9573 352.453 50.9187 352.453 52.188C352.453 53.4387 352.752 54.4 353.349 55.072C353.965 55.744 354.73 56.08 355.645 56.08Z" fill="#21126A"/>
<path d="M416.532 40.344V44.18H408.524V48.324H414.516V52.048H408.524V60H403.736V40.344H416.532ZM418.097 52.16C418.097 50.5547 418.395 49.1453 418.993 47.932C419.609 46.7187 420.439 45.7853 421.485 45.132C422.53 44.4787 423.697 44.152 424.985 44.152C426.086 44.152 427.047 44.376 427.869 44.824C428.709 45.272 429.353 45.86 429.801 46.588V44.376H434.589V60H429.801V57.788C429.334 58.516 428.681 59.104 427.841 59.552C427.019 60 426.058 60.224 424.957 60.224C423.687 60.224 422.53 59.8973 421.485 59.244C420.439 58.572 419.609 57.6293 418.993 56.416C418.395 55.184 418.097 53.7653 418.097 52.16ZM429.801 52.188C429.801 50.9933 429.465 50.0507 428.793 49.36C428.139 48.6693 427.337 48.324 426.385 48.324C425.433 48.324 424.621 48.6693 423.949 49.36C423.295 50.032 422.969 50.9653 422.969 52.16C422.969 53.3547 423.295 54.3067 423.949 55.016C424.621 55.7067 425.433 56.052 426.385 56.052C427.337 56.052 428.139 55.7067 428.793 55.016C429.465 54.3253 429.801 53.3827 429.801 52.188ZM447.6 60L442.84 53.448V60H438.052V39.28H442.84V50.732L447.572 44.376H453.48L446.984 52.216L453.536 60H447.6ZM470.789 44.376V60H466.001V57.872C465.516 58.5627 464.853 59.1227 464.013 59.552C463.192 59.9627 462.277 60.168 461.269 60.168C460.074 60.168 459.02 59.9067 458.105 59.384C457.19 58.8427 456.481 58.068 455.977 57.06C455.473 56.052 455.221 54.8667 455.221 53.504V44.376H459.981V52.86C459.981 53.9053 460.252 54.7173 460.793 55.296C461.334 55.8747 462.062 56.164 462.977 56.164C463.91 56.164 464.648 55.8747 465.189 55.296C465.73 54.7173 466.001 53.9053 466.001 52.86V44.376H470.789ZM479.016 39.28V60H474.228V39.28H479.016ZM491.194 55.94V60H488.758C487.022 60 485.669 59.58 484.698 58.74C483.727 57.8813 483.242 56.4907 483.242 54.568V48.352H481.338V44.376H483.242V40.568H488.03V44.376H491.166V48.352H488.03V54.624C488.03 55.0907 488.142 55.4267 488.366 55.632C488.59 55.8373 488.963 55.94 489.486 55.94H491.194ZM492.909 52.16C492.909 50.5547 493.208 49.1453 493.805 47.932C494.421 46.7187 495.252 45.7853 496.297 45.132C497.342 44.4787 498.509 44.152 499.797 44.152C500.898 44.152 501.86 44.376 502.681 44.824C503.521 45.272 504.165 45.86 504.613 46.588V44.376H509.401V60H504.613V57.788C504.146 58.516 503.493 59.104 502.653 59.552C501.832 60 500.87 60.224 499.769 60.224C498.5 60.224 497.342 59.8973 496.297 59.244C495.252 58.572 494.421 57.6293 493.805 56.416C493.208 55.184 492.909 53.7653 492.909 52.16ZM504.613 52.188C504.613 50.9933 504.277 50.0507 503.605 49.36C502.952 48.6693 502.149 48.324 501.197 48.324C500.245 48.324 499.433 48.6693 498.761 49.36C498.108 50.032 497.781 50.9653 497.781 52.16C497.781 53.3547 498.108 54.3067 498.761 55.016C499.433 55.7067 500.245 56.052 501.197 56.052C502.149 56.052 502.952 55.7067 503.605 55.016C504.277 54.3253 504.613 53.3827 504.613 52.188ZM519.221 60.224C517.858 60.224 516.645 59.9907 515.581 59.524C514.517 59.0573 513.677 58.4227 513.061 57.62C512.445 56.7987 512.1 55.884 512.025 54.876H516.757C516.813 55.4173 517.065 55.856 517.513 56.192C517.961 56.528 518.512 56.696 519.165 56.696C519.762 56.696 520.22 56.584 520.537 56.36C520.873 56.1173 521.041 55.8093 521.041 55.436C521.041 54.988 520.808 54.6613 520.341 54.456C519.874 54.232 519.118 53.9893 518.073 53.728C516.953 53.4667 516.02 53.196 515.273 52.916C514.526 52.6173 513.882 52.16 513.341 51.544C512.8 50.9093 512.529 50.06 512.529 48.996C512.529 48.1 512.772 47.288 513.257 46.56C513.761 45.8133 514.489 45.2253 515.441 44.796C516.412 44.3667 517.56 44.152 518.885 44.152C520.845 44.152 522.385 44.6373 523.505 45.608C524.644 46.5787 525.297 47.8667 525.465 49.472H521.041C520.966 48.9307 520.724 48.5013 520.313 48.184C519.921 47.8667 519.398 47.708 518.745 47.708C518.185 47.708 517.756 47.82 517.457 48.044C517.158 48.2493 517.009 48.5387 517.009 48.912C517.009 49.36 517.242 49.696 517.709 49.92C518.194 50.144 518.941 50.368 519.949 50.592C521.106 50.8907 522.049 51.1893 522.777 51.488C523.505 51.768 524.14 52.2347 524.681 52.888C525.241 53.5227 525.53 54.3813 525.549 55.464C525.549 56.3787 525.288 57.2 524.765 57.928C524.261 58.6373 523.524 59.1973 522.553 59.608C521.601 60.0187 520.49 60.224 519.221 60.224ZM552.864 40.344L545.892 60H539.9L532.928 40.344H538.024L542.896 55.184L547.796 40.344H552.864ZM561.977 60.224C560.446 60.224 559.065 59.8973 557.833 59.244C556.62 58.5907 555.658 57.6573 554.949 56.444C554.258 55.2307 553.913 53.812 553.913 52.188C553.913 50.5827 554.268 49.1733 554.977 47.96C555.686 46.728 556.657 45.7853 557.889 45.132C559.121 44.4787 560.502 44.152 562.033 44.152C563.564 44.152 564.945 44.4787 566.177 45.132C567.409 45.7853 568.38 46.728 569.089 47.96C569.798 49.1733 570.153 50.5827 570.153 52.188C570.153 53.7933 569.789 55.212 569.061 56.444C568.352 57.6573 567.372 58.5907 566.121 59.244C564.889 59.8973 563.508 60.224 561.977 60.224ZM561.977 56.08C562.892 56.08 563.666 55.744 564.301 55.072C564.954 54.4 565.281 53.4387 565.281 52.188C565.281 50.9373 564.964 49.976 564.329 49.304C563.713 48.632 562.948 48.296 562.033 48.296C561.1 48.296 560.325 48.632 559.709 49.304C559.093 49.9573 558.785 50.9187 558.785 52.188C558.785 53.4387 559.084 54.4 559.681 55.072C560.297 55.744 561.062 56.08 561.977 56.08ZM582.241 60L577.481 53.448V60H572.693V39.28H577.481V50.732L582.213 44.376H588.121L581.625 52.216L588.177 60H582.241ZM589.05 52.16C589.05 50.5547 589.348 49.1453 589.946 47.932C590.562 46.7187 591.392 45.7853 592.438 45.132C593.483 44.4787 594.65 44.152 595.938 44.152C597.039 44.152 598 44.376 598.822 44.824C599.662 45.272 600.306 45.86 600.754 46.588V44.376H605.542V60H600.754V57.788C600.287 58.516 599.634 59.104 598.794 59.552C597.972 60 597.011 60.224 595.91 60.224C594.64 60.224 593.483 59.8973 592.438 59.244C591.392 58.572 590.562 57.6293 589.946 56.416C589.348 55.184 589.05 53.7653 589.05 52.16ZM600.754 52.188C600.754 50.9933 600.418 50.0507 599.746 49.36C599.092 48.6693 598.29 48.324 597.338 48.324C596.386 48.324 595.574 48.6693 594.902 49.36C594.248 50.032 593.922 50.9653 593.922 52.16C593.922 53.3547 594.248 54.3067 594.902 55.016C595.574 55.7067 596.386 56.052 597.338 56.052C598.29 56.052 599.092 55.7067 599.746 55.016C600.418 54.3253 600.754 53.3827 600.754 52.188ZM615.362 60.224C613.999 60.224 612.786 59.9907 611.722 59.524C610.658 59.0573 609.818 58.4227 609.202 57.62C608.586 56.7987 608.24 55.884 608.166 54.876H612.898C612.954 55.4173 613.206 55.856 613.654 56.192C614.102 56.528 614.652 56.696 615.306 56.696C615.903 56.696 616.36 56.584 616.678 56.36C617.014 56.1173 617.182 55.8093 617.182 55.436C617.182 54.988 616.948 54.6613 616.482 54.456C616.015 54.232 615.259 53.9893 614.214 53.728C613.094 53.4667 612.16 53.196 611.414 52.916C610.667 52.6173 610.023 52.16 609.482 51.544C608.94 50.9093 608.67 50.06 608.67 48.996C608.67 48.1 608.912 47.288 609.398 46.56C609.902 45.8133 610.63 45.2253 611.582 44.796C612.552 44.3667 613.7 44.152 615.026 44.152C616.986 44.152 618.526 44.6373 619.646 45.608C620.784 46.5787 621.438 47.8667 621.606 49.472H617.182C617.107 48.9307 616.864 48.5013 616.454 48.184C616.062 47.8667 615.539 47.708 614.886 47.708C614.326 47.708 613.896 47.82 613.598 48.044C613.299 48.2493 613.15 48.5387 613.15 48.912C613.15 49.36 613.383 49.696 613.85 49.92C614.335 50.144 615.082 50.368 616.09 50.592C617.247 50.8907 618.19 51.1893 618.918 51.488C619.646 51.768 620.28 52.2347 620.822 52.888C621.382 53.5227 621.671 54.3813 621.69 55.464C621.69 56.3787 621.428 57.2 620.906 57.928C620.402 58.6373 619.664 59.1973 618.694 59.608C617.742 60.0187 616.631 60.224 615.362 60.224ZM627.027 42.752C626.187 42.752 625.496 42.5093 624.955 42.024C624.432 41.52 624.171 40.904 624.171 40.176C624.171 39.4293 624.432 38.8133 624.955 38.328C625.496 37.824 626.187 37.572 627.027 37.572C627.848 37.572 628.52 37.824 629.043 38.328C629.584 38.8133 629.855 39.4293 629.855 40.176C629.855 40.904 629.584 41.52 629.043 42.024C628.52 42.5093 627.848 42.752 627.027 42.752ZM629.407 44.376V60H624.619V44.376H629.407Z" fill="#21126A"/>
<path d="M684.876 40.344V44.18H679.668V60H674.88V44.18H669.672V40.344H684.876ZM702.007 51.936C702.007 52.384 701.979 52.8507 701.923 53.336H691.087C691.162 54.3067 691.47 55.0533 692.011 55.576C692.571 56.08 693.252 56.332 694.055 56.332C695.25 56.332 696.08 55.828 696.547 54.82H701.643C701.382 55.8467 700.906 56.7707 700.215 57.592C699.543 58.4133 698.694 59.0573 697.667 59.524C696.64 59.9907 695.492 60.224 694.223 60.224C692.692 60.224 691.33 59.8973 690.135 59.244C688.94 58.5907 688.007 57.6573 687.335 56.444C686.663 55.2307 686.327 53.812 686.327 52.188C686.327 50.564 686.654 49.1453 687.307 47.932C687.979 46.7187 688.912 45.7853 690.107 45.132C691.302 44.4787 692.674 44.152 694.223 44.152C695.735 44.152 697.079 44.4693 698.255 45.104C699.431 45.7387 700.346 46.644 700.999 47.82C701.671 48.996 702.007 50.368 702.007 51.936ZM697.107 50.676C697.107 49.8547 696.827 49.2013 696.267 48.716C695.707 48.2307 695.007 47.988 694.167 47.988C693.364 47.988 692.683 48.2213 692.123 48.688C691.582 49.1547 691.246 49.8173 691.115 50.676H697.107ZM714.081 60L709.321 53.448V60H704.533V39.28H709.321V50.732L714.053 44.376H719.961L713.465 52.216L720.017 60H714.081ZM731.361 44.208C733.191 44.208 734.647 44.8053 735.729 46C736.831 47.176 737.381 48.8 737.381 50.872V60H732.621V51.516C732.621 50.4707 732.351 49.6587 731.809 49.08C731.268 48.5013 730.54 48.212 729.625 48.212C728.711 48.212 727.983 48.5013 727.441 49.08C726.9 49.6587 726.629 50.4707 726.629 51.516V60H721.841V44.376H726.629V46.448C727.115 45.7573 727.768 45.216 728.589 44.824C729.411 44.4133 730.335 44.208 731.361 44.208ZM747.821 60.224C746.29 60.224 744.909 59.8973 743.677 59.244C742.463 58.5907 741.502 57.6573 740.793 56.444C740.102 55.2307 739.757 53.812 739.757 52.188C739.757 50.5827 740.111 49.1733 740.821 47.96C741.53 46.728 742.501 45.7853 743.733 45.132C744.965 44.4787 746.346 44.152 747.877 44.152C749.407 44.152 750.789 44.4787 752.021 45.132C753.253 45.7853 754.223 46.728 754.933 47.96C755.642 49.1733 755.997 50.5827 755.997 52.188C755.997 53.7933 755.633 55.212 754.905 56.444C754.195 57.6573 753.215 58.5907 751.965 59.244C750.733 59.8973 749.351 60.224 747.821 60.224ZM747.821 56.08C748.735 56.08 749.51 55.744 750.145 55.072C750.798 54.4 751.125 53.4387 751.125 52.188C751.125 50.9373 750.807 49.976 750.173 49.304C749.557 48.632 748.791 48.296 747.877 48.296C746.943 48.296 746.169 48.632 745.553 49.304C744.937 49.9573 744.629 50.9187 744.629 52.188C744.629 53.4387 744.927 54.4 745.525 55.072C746.141 55.744 746.906 56.08 747.821 56.08ZM763.325 39.28V60H758.537V39.28H763.325ZM773.907 60.224C772.376 60.224 770.995 59.8973 769.763 59.244C768.549 58.5907 767.588 57.6573 766.879 56.444C766.188 55.2307 765.843 53.812 765.843 52.188C765.843 50.5827 766.197 49.1733 766.907 47.96C767.616 46.728 768.587 45.7853 769.819 45.132C771.051 44.4787 772.432 44.152 773.963 44.152C775.493 44.152 776.875 44.4787 778.107 45.132C779.339 45.7853 780.309 46.728 781.019 47.96C781.728 49.1733 782.083 50.5827 782.083 52.188C782.083 53.7933 781.719 55.212 780.991 56.444C780.281 57.6573 779.301 58.5907 778.051 59.244C776.819 59.8973 775.437 60.224 773.907 60.224ZM773.907 56.08C774.821 56.08 775.596 55.744 776.231 55.072C776.884 54.4 777.211 53.4387 777.211 52.188C777.211 50.9373 776.893 49.976 776.259 49.304C775.643 48.632 774.877 48.296 773.963 48.296C773.029 48.296 772.255 48.632 771.639 49.304C771.023 49.9573 770.715 50.9187 770.715 52.188C770.715 53.4387 771.013 54.4 771.611 55.072C772.227 55.744 772.992 56.08 773.907 56.08ZM790.559 44.152C791.66 44.152 792.621 44.376 793.443 44.824C794.283 45.272 794.927 45.86 795.375 46.588V44.376H800.163V59.972C800.163 61.4093 799.873 62.7067 799.295 63.864C798.735 65.04 797.867 65.9733 796.691 66.664C795.533 67.3547 794.087 67.7 792.351 67.7C790.036 67.7 788.16 67.1493 786.723 66.048C785.285 64.9653 784.464 63.4907 784.259 61.624H788.991C789.14 62.2213 789.495 62.688 790.055 63.024C790.615 63.3787 791.305 63.556 792.127 63.556C793.116 63.556 793.9 63.2667 794.479 62.688C795.076 62.128 795.375 61.2227 795.375 59.972V57.76C794.908 58.488 794.264 59.0853 793.443 59.552C792.621 60 791.66 60.224 790.559 60.224C789.271 60.224 788.104 59.8973 787.059 59.244C786.013 58.572 785.183 57.6293 784.567 56.416C783.969 55.184 783.671 53.7653 783.671 52.16C783.671 50.5547 783.969 49.1453 784.567 47.932C785.183 46.7187 786.013 45.7853 787.059 45.132C788.104 44.4787 789.271 44.152 790.559 44.152ZM795.375 52.188C795.375 50.9933 795.039 50.0507 794.367 49.36C793.713 48.6693 792.911 48.324 791.959 48.324C791.007 48.324 790.195 48.6693 789.523 49.36C788.869 50.032 788.543 50.9653 788.543 52.16C788.543 53.3547 788.869 54.3067 789.523 55.016C790.195 55.7067 791.007 56.052 791.959 56.052C792.911 56.052 793.713 55.7067 794.367 55.016C795.039 54.3253 795.375 53.3827 795.375 52.188ZM806.035 42.752C805.195 42.752 804.504 42.5093 803.963 42.024C803.44 41.52 803.179 40.904 803.179 40.176C803.179 39.4293 803.44 38.8133 803.963 38.328C804.504 37.824 805.195 37.572 806.035 37.572C806.856 37.572 807.528 37.824 808.051 38.328C808.592 38.8133 808.863 39.4293 808.863 40.176C808.863 40.904 808.592 41.52 808.051 42.024C807.528 42.5093 806.856 42.752 806.035 42.752ZM808.415 44.376V60H803.627V44.376H808.415ZM822.606 40.344V60H817.818V40.344H822.606ZM835.596 44.208C837.425 44.208 838.881 44.8053 839.964 46C841.065 47.176 841.616 48.8 841.616 50.872V60H836.856V51.516C836.856 50.4707 836.585 49.6587 836.044 49.08C835.503 48.5013 834.775 48.212 833.86 48.212C832.945 48.212 832.217 48.5013 831.676 49.08C831.135 49.6587 830.864 50.4707 830.864 51.516V60H826.076V44.376H830.864V46.448C831.349 45.7573 832.003 45.216 832.824 44.824C833.645 44.4133 834.569 44.208 835.596 44.208ZM852.783 48.352H850.207V60H845.419V48.352H843.683V44.376H845.419V43.928C845.419 42.0053 845.97 40.5493 847.071 39.56C848.172 38.552 849.787 38.048 851.915 38.048C852.27 38.048 852.531 38.0573 852.699 38.076V42.136C851.784 42.08 851.14 42.2107 850.767 42.528C850.394 42.8453 850.207 43.4147 850.207 44.236V44.376H852.783V48.352ZM862.145 60.224C860.614 60.224 859.233 59.8973 858.001 59.244C856.788 58.5907 855.826 57.6573 855.117 56.444C854.426 55.2307 854.081 53.812 854.081 52.188C854.081 50.5827 854.436 49.1733 855.145 47.96C855.854 46.728 856.825 45.7853 858.057 45.132C859.289 44.4787 860.67 44.152 862.201 44.152C863.732 44.152 865.113 44.4787 866.345 45.132C867.577 45.7853 868.548 46.728 869.257 47.96C869.966 49.1733 870.321 50.5827 870.321 52.188C870.321 53.7933 869.957 55.212 869.229 56.444C868.52 57.6573 867.54 58.5907 866.289 59.244C865.057 59.8973 863.676 60.224 862.145 60.224ZM862.145 56.08C863.06 56.08 863.834 55.744 864.469 55.072C865.122 54.4 865.449 53.4387 865.449 52.188C865.449 50.9373 865.132 49.976 864.497 49.304C863.881 48.632 863.116 48.296 862.201 48.296C861.268 48.296 860.493 48.632 859.877 49.304C859.261 49.9573 858.953 50.9187 858.953 52.188C858.953 53.4387 859.252 54.4 859.849 55.072C860.465 55.744 861.23 56.08 862.145 56.08ZM877.649 46.98C878.209 46.1213 878.909 45.4493 879.749 44.964C880.589 44.46 881.522 44.208 882.549 44.208V49.276H881.233C880.038 49.276 879.142 49.5373 878.545 50.06C877.948 50.564 877.649 51.46 877.649 52.748V60H872.861V44.376H877.649V46.98ZM904.774 44.208C906.715 44.208 908.255 44.796 909.394 45.972C910.551 47.148 911.13 48.7813 911.13 50.872V60H906.37V51.516C906.37 50.508 906.099 49.7333 905.558 49.192C905.035 48.632 904.307 48.352 903.374 48.352C902.44 48.352 901.703 48.632 901.162 49.192C900.639 49.7333 900.378 50.508 900.378 51.516V60H895.618V51.516C895.618 50.508 895.347 49.7333 894.806 49.192C894.283 48.632 893.555 48.352 892.622 48.352C891.688 48.352 890.951 48.632 890.41 49.192C889.887 49.7333 889.626 50.508 889.626 51.516V60H884.838V44.376H889.626V46.336C890.111 45.6827 890.746 45.1693 891.53 44.796C892.314 44.404 893.2 44.208 894.19 44.208C895.366 44.208 896.411 44.46 897.326 44.964C898.259 45.468 898.987 46.1867 899.51 47.12C900.051 46.2613 900.788 45.5613 901.722 45.02C902.655 44.4787 903.672 44.208 904.774 44.208ZM913.526 52.16C913.526 50.5547 913.825 49.1453 914.422 47.932C915.038 46.7187 915.869 45.7853 916.914 45.132C917.96 44.4787 919.126 44.152 920.414 44.152C921.516 44.152 922.477 44.376 923.298 44.824C924.138 45.272 924.782 45.86 925.23 46.588V44.376H930.018V60H925.23V57.788C924.764 58.516 924.11 59.104 923.27 59.552C922.449 60 921.488 60.224 920.386 60.224C919.117 60.224 917.96 59.8973 916.914 59.244C915.869 58.572 915.038 57.6293 914.422 56.416C913.825 55.184 913.526 53.7653 913.526 52.16ZM925.23 52.188C925.23 50.9933 924.894 50.0507 924.222 49.36C923.569 48.6693 922.766 48.324 921.814 48.324C920.862 48.324 920.05 48.6693 919.378 49.36C918.725 50.032 918.398 50.9653 918.398 52.16C918.398 53.3547 918.725 54.3067 919.378 55.016C920.05 55.7067 920.862 56.052 921.814 56.052C922.766 56.052 923.569 55.7067 924.222 55.016C924.894 54.3253 925.23 53.3827 925.23 52.188ZM939.838 60.224C938.475 60.224 937.262 59.9907 936.198 59.524C935.134 59.0573 934.294 58.4227 933.678 57.62C933.062 56.7987 932.717 55.884 932.642 54.876H937.374C937.43 55.4173 937.682 55.856 938.13 56.192C938.578 56.528 939.129 56.696 939.782 56.696C940.379 56.696 940.837 56.584 941.154 56.36C941.49 56.1173 941.658 55.8093 941.658 55.436C941.658 54.988 941.425 54.6613 940.958 54.456C940.491 54.232 939.735 53.9893 938.69 53.728C937.57 53.4667 936.637 53.196 935.89 52.916C935.143 52.6173 934.499 52.16 933.958 51.544C933.417 50.9093 933.146 50.06 933.146 48.996C933.146 48.1 933.389 47.288 933.874 46.56C934.378 45.8133 935.106 45.2253 936.058 44.796C937.029 44.3667 938.177 44.152 939.502 44.152C941.462 44.152 943.002 44.6373 944.122 45.608C945.261 46.5787 945.914 47.8667 946.082 49.472H941.658C941.583 48.9307 941.341 48.5013 940.93 48.184C940.538 47.8667 940.015 47.708 939.362 47.708C938.802 47.708 938.373 47.82 938.074 48.044C937.775 48.2493 937.626 48.5387 937.626 48.912C937.626 49.36 937.859 49.696 938.326 49.92C938.811 50.144 939.558 50.368 940.566 50.592C941.723 50.8907 942.666 51.1893 943.394 51.488C944.122 51.768 944.757 52.2347 945.298 52.888C945.858 53.5227 946.147 54.3813 946.166 55.464C946.166 56.3787 945.905 57.2 945.382 57.928C944.878 58.6373 944.141 59.1973 943.17 59.608C942.218 60.0187 941.107 60.224 939.838 60.224ZM951.503 42.752C950.663 42.752 949.973 42.5093 949.431 42.024C948.909 41.52 948.647 40.904 948.647 40.176C948.647 39.4293 948.909 38.8133 949.431 38.328C949.973 37.824 950.663 37.572 951.503 37.572C952.325 37.572 952.997 37.824 953.519 38.328C954.061 38.8133 954.331 39.4293 954.331 40.176C954.331 40.904 954.061 41.52 953.519 42.024C952.997 42.5093 952.325 42.752 951.503 42.752ZM953.883 44.376V60H949.095V44.376H953.883Z" fill="#21126A"/>
<defs>
<linearGradient id="paint0_linear_3463_22" x1="515" y1="0" x2="515" y2="100" gradientUnits="userSpaceOnUse">
<stop offset="0.095" stop-color="#D7B575"/>
<stop offset="0.32" stop-color="#BED775"/>
<stop offset="0.99" stop-color="#4E3D71"/>
</linearGradient>
</defs>
</svg>
