<svg width="531" height="90" viewBox="0 0 531 90" fill="none" xmlns="http://www.w3.org/2000/svg">
<g clip-path="url(#clip0_1862_31)">
<path d="M30.4169 79.056C27.9209 80.304 28.0169 73.2 27.9209 71.856C27.2489 60.336 26.0969 38.064 27.6329 27.12C23.0249 27.6 17.5529 29.04 13.0409 28.944C11.7929 28.944 11.2169 27.984 10.8329 26.928C10.2569 25.104 10.5449 8.976 11.1209 7.248C11.4089 6.47999 11.7929 5.712 12.4649 5.328C13.5209 4.65599 16.3049 5.04 17.5529 5.232C32.9129 7.152 48.4649 5.712 63.9209 7.152C65.8409 7.34399 66.1289 7.632 67.0889 9.168C67.0889 12.816 67.1849 24.144 64.6889 26.448C63.3449 27.696 61.2329 27.696 59.5049 27.696C56.4329 27.696 53.4569 27.408 50.3849 27.792C50.4809 43.632 51.5369 59.28 52.2089 75.12C52.2089 75.696 52.2089 77.136 51.7289 77.52C51.2489 77.904 49.6169 78 48.9449 78C45.3929 78 31.8569 79.248 30.4169 79.056ZM36.8489 13.776C37.5209 13.968 56.1449 12.816 56.5289 12.624C57.7769 11.856 57.4889 9.55199 56.1449 9.07199C55.6649 8.88 37.1369 9.936 36.3689 10.416C35.1209 11.28 35.3129 13.296 36.8489 13.776ZM60.7529 12.816C61.8089 13.68 63.3449 13.008 63.7289 11.76C65.1689 7.248 57.1049 9.936 60.7529 12.816ZM95.7666 1.68C97.0146 2.352 96.5346 4.17599 95.1906 4.368C92.7906 4.65599 93.6546 0.527996 95.7666 1.68ZM76.0866 23.664C72.2466 26.352 76.5666 14.64 76.8546 13.968C78.0066 10.896 79.5426 7.92 82.0386 5.808C83.5746 4.56 88.5666 2.16 90.4866 2.544C91.9266 2.832 92.0226 4.65599 90.5826 5.13599C88.2786 5.808 86.4546 5.232 84.4386 7.248C81.4626 10.224 77.3346 22.8 76.0866 23.664ZM89.5266 66.192C88.9506 69.744 88.9506 73.872 88.0866 77.328C87.4146 80.016 70.1346 79.056 68.7906 76.176C66.1026 70.512 80.5986 14.448 88.0866 8.88C89.3346 7.92 90.9666 7.536 92.5026 7.248C96.7266 6.47999 113.431 6.576 115.831 10.032C118.039 13.2 119.383 17.04 120.535 20.688C122.743 27.984 133.111 69.072 130.231 75.312C128.023 80.112 111.895 80.976 110.743 75.888C110.071 72.912 110.167 69.072 109.879 66C103.063 65.616 96.3426 65.712 89.5266 66.192ZM91.3506 52.56C97.1106 52.368 103.447 51.984 109.207 52.56C109.303 49.488 105.751 27.312 104.119 25.968C102.487 24.528 99.3186 26.16 97.3026 26.064C94.2306 34.512 93.1746 43.824 91.3506 52.56ZM180.853 52.368C182.197 53.04 181.429 56.112 181.333 57.264C181.141 60.624 181.909 71.664 181.525 73.584C181.237 74.832 179.701 74.928 178.645 74.928C173.845 74.928 138.997 76.272 138.325 75.312C137.941 75.12 137.557 74.832 137.461 74.448L138.517 58.608C138.997 49.008 139.669 20.112 137.365 11.376C136.885 9.648 139.381 9.55199 140.629 9.264C146.101 8.112 152.725 7.248 158.293 7.34399C159.157 7.34399 159.637 7.632 160.117 8.4C161.365 10.416 161.077 31.824 160.981 35.664C160.885 41.616 160.885 47.664 160.405 53.616C166.261 52.656 172.501 51.504 178.357 51.024C179.413 50.928 180.757 51.024 180.853 52.368ZM148.885 82.992C148.117 82.992 145.909 82.992 145.333 82.704C143.989 81.936 144.373 80.496 145.717 80.016C149.173 78.96 165.205 79.536 169.909 79.248C174.229 78.96 173.749 82.32 171.349 82.704C167.317 83.28 153.685 82.992 148.885 82.992ZM181.237 79.632C183.541 79.92 183.061 83.184 181.045 82.992L178.549 82.704C176.437 82.416 176.437 79.056 181.237 79.632ZM209.784 57.648C209.592 63.6 209.592 69.648 210.264 75.6C210.36 76.176 210.552 76.848 210.264 77.424C209.4 79.056 195.288 78.672 192.984 78.192C192.024 78 191.64 77.52 191.256 76.656C190.008 73.296 189.816 68.688 189.528 65.136C188.088 48.144 187.32 31.44 189.624 14.544C189.816 13.392 190.008 10.032 190.776 9.264C191.16 5.328 208.536 8.016 211.416 9.264C212.472 9.744 212.184 11.28 212.088 12.144C211.512 20.208 211.32 28.56 211.32 36.72C218.52 31.056 227.256 18.672 231.288 10.416C231.576 9.84 231.864 9.264 232.632 9.07199C234.552 8.68799 246.072 18.288 246.072 20.208C246.36 20.688 246.168 21.264 245.784 21.552C240.216 31.152 231.096 41.712 221.784 47.952C225.624 51.024 229.848 53.904 234.168 56.304C237.144 57.936 241.08 59.28 243.768 61.2C244.344 61.584 244.728 62.256 244.728 62.928C244.728 64.848 235.224 77.808 233.112 78.096C227.832 78.864 213.24 61.68 209.784 57.648ZM198.552 14.064C199.896 14.352 201.144 13.104 200.856 11.76C200.088 8.112 193.176 10.416 191.928 17.04C191.352 19.92 190.2 31.152 190.968 33.552C191.64 35.568 194.232 35.568 194.712 33.552C194.808 33.072 194.712 32.688 194.616 32.208C194.328 29.616 195 15.6 197.304 14.544L198.552 14.064ZM203.448 13.872C206.808 15.504 207 8.68799 203.352 10.416C201.816 11.184 202.008 13.2 203.448 13.872ZM287.056 77.136C273.04 81.168 255.088 78 254.128 60.336C254.032 59.28 254.032 58.224 254.896 57.456C256.528 56.016 270.448 53.616 271.408 55.536C272.656 57.936 270.64 63.024 275.824 63.024C279.952 63.024 281.2 58.128 279.76 54.96C274.864 43.824 247.888 48.528 250.384 27.888C251.44 19.248 258.64 12.528 266.32 9.36C275.632 5.616 287.824 5.51999 296.464 10.896C302.32 14.544 305.776 20.208 306.256 27.024C306.352 28.944 306.544 32.208 304.24 32.976C302.8 33.456 289.648 34.704 288.112 34.512C286.96 34.416 286 34.32 285.808 32.976C285.136 28.848 285.232 23.568 280.24 21.84C275.632 20.304 267.088 24.336 269.296 30.096C271.312 35.568 296.752 37.872 301.456 53.52C304.528 63.792 296.848 74.256 287.056 77.136ZM283.408 72.624C282.064 74.256 284.08 76.176 285.904 75.6C292.624 73.392 298.48 67.632 299.056 60.432C299.536 55.152 295.216 56.4 295.216 58.608C295.216 60.912 294.928 62.256 294.064 64.368C291.76 69.936 284.176 71.664 283.408 72.624ZM277.552 76.272C278.704 77.328 280.528 76.656 280.816 75.216C281.584 71.184 274.576 73.488 277.552 76.272ZM368.165 16.944C369.125 16.848 369.413 17.424 369.605 18.192C369.989 20.112 368.933 36.24 368.837 39.984C368.645 49.584 368.933 59.184 369.701 68.784C369.797 70.416 371.333 77.52 369.701 77.904C365.861 78.672 358.757 78.384 354.629 78.384C353.573 78.384 352.229 78.768 351.269 78.576C350.597 78.48 349.445 77.808 350.021 76.944C349.829 69.648 350.501 62.16 350.789 54.864C345.701 55.056 340.613 55.056 335.525 55.344C335.525 62.448 335.237 69.744 336.389 76.752C336.581 78 335.237 78.48 334.277 78.48C328.613 78.288 323.045 77.712 317.381 77.904C316.901 77.904 314.597 78.096 314.309 78C313.061 77.712 313.061 76.368 313.061 75.312C313.253 70.224 313.637 65.232 313.733 60.144C314.117 44.784 314.021 29.232 313.829 13.872C313.829 12.144 313.253 10.128 313.445 8.496C313.637 6.86399 315.941 6.96 317.093 7.056C321.317 7.248 325.637 7.72799 329.861 7.72799C331.301 7.72799 332.645 7.34399 334.085 7.34399C335.045 7.34399 336.197 7.632 336.773 8.4C338.021 10.032 337.541 34.032 337.541 37.776L348.677 37.872C348.197 34.32 347.717 20.784 348.869 17.808C348.389 16.944 349.061 16.464 349.829 16.368C350.981 16.176 367.493 16.56 368.165 16.944ZM370.565 11.568C368.357 13.392 365.285 10.704 367.589 9.55199C370.565 7.92 372.101 10.32 370.565 11.568ZM362.501 12.72C359.621 13.584 350.021 13.104 346.949 12.432C345.989 12.24 342.533 10.704 345.125 9.744C345.989 9.456 350.885 9.648 352.229 9.648C354.149 9.648 364.805 7.92 364.325 11.184C364.229 11.952 363.173 12.528 362.501 12.72ZM416.01 4.56C414.858 6.47999 411.594 4.08 413.994 2.16C415.722 0.815998 416.874 3.024 416.01 4.56ZM436.554 15.216C436.266 16.368 434.826 16.272 434.25 15.504C430.41 10.896 424.842 8.592 419.178 6.768C417.834 6.384 417.642 4.65599 418.986 4.08C424.458 1.872 437.226 12.336 436.554 15.216ZM416.298 77.52C409.866 78.576 399.786 78.864 394.122 75.12C384.618 68.88 381.066 54.096 379.338 43.632C378.282 37.104 376.938 30.288 378.186 23.664C380.106 13.776 386.922 8.976 396.522 7.92C404.01 7.056 412.746 7.824 419.85 10.512C439.818 18 439.626 36.816 434.154 54.384C432.33 60.24 430.218 66.192 426.666 71.28C423.786 75.312 421.098 76.752 416.298 77.52ZM408.138 55.632C409.962 55.632 411.786 55.44 413.13 54.192C416.298 51.216 418.026 40.944 417.738 36.624C417.354 30.864 411.882 28.08 406.602 27.792C403.626 27.6 400.554 27.984 399.21 31.056C397.29 35.472 398.826 51.312 402.858 54.192C404.394 55.248 406.314 55.632 408.138 55.632ZM496.327 56.112C500.743 50.736 502.471 20.016 502.279 12.144C502.279 11.376 502.183 10.608 502.471 9.84C503.335 7.72799 518.695 8.784 520.327 10.032C521.863 11.28 520.423 23.184 520.135 25.488C519.079 34.704 514.183 73.68 505.543 78.096C502.855 79.536 499.591 79.44 496.615 79.44C493.447 79.44 489.319 79.248 487.015 76.848C484.135 73.872 480.583 60.528 479.623 56.016C479.143 60.144 475.015 70.608 471.271 72.624C468.967 73.872 466.279 74.064 463.687 74.064C455.335 74.064 453.127 72.144 450.055 64.56C443.911 49.296 443.527 29.424 444.007 13.2C444.007 12.336 444.007 10.32 444.679 9.744C446.119 8.592 460.999 8.784 462.823 9.936C463.591 10.416 463.495 11.472 463.495 12.24C463.111 23.088 461.095 41.904 465.991 51.696C470.887 48.24 472.231 17.52 473.095 16.464C473.863 15.504 488.071 15.024 488.839 16.656C490.471 27.216 490.087 47.76 496.327 56.112ZM477.607 73.68C478.183 70.992 482.023 73.392 479.911 75.6C478.663 76.944 476.071 75.12 477.607 73.68ZM468.199 82.8C453.319 84.432 448.999 74.064 457.255 77.904C464.455 81.264 466.951 78.96 473.479 77.424C474.823 77.136 475.975 78.288 475.399 79.632C474.727 81.264 469.831 82.608 468.199 82.8Z" fill="url(#paint0_linear_1862_31)"/>
</g>
<defs>
<linearGradient id="paint0_linear_1862_31" x1="266.5" y1="0" x2="266.5" y2="90" gradientUnits="userSpaceOnUse">
<stop stop-color="#FFEAC3"/>
<stop offset="0.79" stop-color="#E6A7A5"/>
<stop offset="1" stop-color="#B32169"/>
</linearGradient>
<clipPath id="clip0_1862_31">
<rect width="531" height="90" fill="white"/>
</clipPath>
</defs>
</svg>
