<svg width="1425" height="407" viewBox="0 0 1425 407" fill="none" xmlns="http://www.w3.org/2000/svg">
<g filter="url(#filter0_d_2381_2)">
<path d="M1220.96 147.302C1250.44 144.016 1281.35 168.248 1298.47 186.306C1315.59 204.364 1181.95 180.469 1241.41 207.592C1300.86 234.714 1195.39 230.143 1133.34 213.792C1071.29 197.441 1072.3 184.963 1021.95 167.76C971.598 150.557 1041.07 153.269 1061.32 163.576C1081.57 173.882 1103.38 193.488 1131.1 193.488C1142.95 193.488 1146.99 184.612 1135.51 177.989C1124.02 171.366 1101.91 173.185 1104.08 170.472C1106.25 167.76 1123.92 158.721 1138.83 160.786C1152.75 162.714 1161.54 169.352 1175.31 177.989C1197.05 191.629 1236.2 178.222 1229.05 167.76C1223.33 159.391 1199.84 164.273 1188.82 167.76C1187.25 162.31 1191.49 150.588 1220.96 147.302Z" fill="url(#paint0_radial_2381_2)"/>
</g>
<g filter="url(#filter1_d_2381_2)">
<path d="M204.038 147.302C174.565 144.016 143.649 168.248 126.528 186.306C109.408 204.364 243.046 180.469 183.594 207.592C124.143 234.714 229.61 230.143 291.662 213.792C353.714 197.441 352.703 184.963 403.053 167.76C453.402 150.557 383.934 153.269 363.683 163.576C343.432 173.882 321.623 193.488 293.901 193.488C282.054 193.488 278.009 184.612 289.495 177.989C300.981 171.366 323.085 173.185 320.918 170.472C318.751 167.76 301.082 158.721 286.172 160.786C272.254 162.714 263.461 169.352 249.692 177.989C227.948 191.629 188.796 178.222 195.947 167.76C201.668 159.391 225.155 164.273 236.183 167.76C237.749 162.31 233.511 150.588 204.038 147.302Z" fill="url(#paint1_radial_2381_2)"/>
</g>
<g filter="url(#filter2_d_2381_2)">
<path d="M1094.23 165.298C1123.6 162.053 1154.41 185.983 1171.48 203.815C1188.54 221.647 1055.35 198.051 1114.6 224.834C1173.85 251.618 1068.74 247.103 1006.9 230.957C945.058 214.81 946.066 202.489 895.887 185.501C845.707 168.513 914.941 171.191 935.123 181.368C955.306 191.546 977.042 210.907 1004.67 210.907C1016.48 210.907 1020.51 202.142 1009.06 195.602C997.614 189.062 975.584 190.857 977.744 188.179C979.903 185.501 997.513 176.575 1012.37 178.614C1026.24 180.517 1035.01 187.073 1048.73 195.602C1070.4 209.071 1109.42 195.831 1102.29 185.501C1096.59 177.236 1073.18 182.057 1062.19 185.501C1060.63 180.118 1064.86 168.543 1094.23 165.298Z" fill="url(#paint2_radial_2381_2)"/>
</g>
<g filter="url(#filter3_d_2381_2)">
<path d="M336.771 165.298C307.397 162.053 276.586 185.983 259.523 203.815C242.46 221.647 375.647 198.051 316.396 224.834C257.146 251.618 362.256 247.103 424.099 230.957C485.942 214.81 484.934 202.489 535.113 185.501C585.293 168.513 516.059 171.191 495.877 181.368C475.694 191.546 453.958 210.907 426.331 210.907C414.524 210.907 410.492 202.142 421.939 195.602C433.386 189.062 455.416 190.857 453.256 188.179C451.097 185.501 433.487 176.575 418.627 178.614C404.756 180.517 395.993 187.073 382.271 195.602C360.601 209.071 321.58 195.831 328.707 185.501C334.409 177.236 357.817 182.057 368.808 185.501C370.368 180.118 366.144 168.543 336.771 165.298Z" fill="url(#paint3_radial_2381_2)"/>
</g>
<g filter="url(#filter4_d_2381_2)">
<path d="M485.038 187.302C455.565 184.016 424.649 208.248 407.528 226.306C390.408 244.364 524.046 220.469 464.594 247.592C405.143 274.714 512.849 278.851 574.901 262.5C636.954 246.149 633.703 224.963 684.053 207.76C734.402 190.557 663.251 190.48 643 200.786C622.749 211.093 602.623 233.488 574.901 233.488C563.054 233.488 559.009 224.612 570.495 217.989C581.981 211.366 604.085 213.185 601.918 210.472C599.751 207.76 582.082 198.721 567.172 200.786C553.254 202.714 544.461 209.352 530.692 217.989C508.948 231.629 469.796 218.222 476.947 207.76C482.668 199.391 506.155 204.273 517.183 207.76C518.749 202.31 514.511 190.588 485.038 187.302Z" fill="url(#paint4_radial_2381_2)"/>
</g>
<g filter="url(#filter5_d_2381_2)">
<path d="M925.229 187.302C954.603 184.016 985.414 208.248 1002.48 226.306C1019.54 244.364 886.353 220.469 945.604 247.592C1004.85 274.714 897.512 277.351 835.669 261C773.827 244.649 777.066 224.963 726.887 207.76C676.707 190.557 752.318 190.48 772.5 200.786C792.682 211.093 808.042 233.488 835.669 233.488C847.476 233.488 851.508 224.612 840.061 217.989C828.614 211.366 806.584 213.185 808.744 210.472C810.903 207.76 828.513 198.721 843.373 200.786C857.244 202.714 866.007 209.352 879.729 217.989C901.399 231.629 940.42 218.222 933.293 207.76C927.591 199.391 904.183 204.273 893.192 207.76C891.632 202.31 895.856 190.588 925.229 187.302Z" fill="url(#paint5_radial_2381_2)"/>
</g>
<g filter="url(#filter6_d_2381_2)">
<path d="M547.233 224.732C548.86 237.362 526.073 234.613 516.152 239.208C506.23 243.804 532.705 249.992 547.233 254.728C561.761 259.464 543.643 293.16 553.909 302.37C564.175 311.581 569.315 275.882 575.707 260.727C582.1 245.571 625.653 274.386 635.271 260.727C644.889 247.068 602.128 246.23 593.887 234.793C585.647 223.357 609.442 195.612 601.557 191.259C597.214 188.862 587.911 210.209 579.775 218.418C571.639 226.627 554.461 175.672 543.746 176.74C533.031 177.808 545.199 208.946 547.233 224.732Z" fill="url(#paint6_linear_2381_2)"/>
</g>
<g filter="url(#filter7_d_2381_2)">
<path d="M558.937 254.272C557.749 249.161 515.413 246.025 520.335 241.715C525.258 237.405 544.393 237.284 550.021 234.528C555.65 231.772 542.385 186.511 546.203 185.806C550.021 185.102 567.693 220.782 575.76 223.194C583.828 225.606 596.246 192.25 600.154 195.041C604.062 197.832 586.227 230.679 586.695 234.528C587.164 238.378 626.725 250.494 628.492 257.605C630.26 264.716 582.131 251.163 577.779 252.809C573.427 254.455 563.599 297.495 556.81 299.818C550.021 302.142 560.126 259.382 558.937 254.272Z" fill="url(#paint7_linear_2381_2)"/>
</g>
<path d="M533.89 240.951C532.917 243.488 536.808 244.334 537.392 242.643C537.976 240.951 533.89 239.26 533.89 240.951Z" fill="#D9D9D9"/>
<path d="M555.081 242.974C556.101 240.459 552.226 239.528 551.611 241.205C550.995 242.883 555.049 244.665 555.081 242.974Z" fill="#D9D9D9"/>
<path d="M544.862 242.746C545.882 240.232 542.008 239.3 541.392 240.978C540.777 242.655 544.83 244.437 544.862 242.746Z" fill="#D9D9D9"/>
<path d="M560.601 222.855C559.628 225.392 563.519 226.237 564.103 224.546C564.687 222.855 560.601 221.164 560.601 222.855Z" fill="#D9D9D9"/>
<path d="M555.413 212.999C554.44 215.536 558.332 216.381 558.915 214.69C559.499 212.999 555.413 211.308 555.413 212.999Z" fill="#D9D9D9"/>
<path d="M579.815 227.155C578.843 229.691 582.734 230.537 583.318 228.846C583.902 227.155 579.815 225.463 579.815 227.155Z" fill="#D9D9D9"/>
<path d="M584.761 219.583C583.788 222.12 587.679 222.965 588.263 221.274C588.847 219.583 584.761 217.892 584.761 219.583Z" fill="#D9D9D9"/>
<path d="M590.534 209.728C589.561 212.265 593.453 213.11 594.037 211.419C594.62 209.728 590.534 208.037 590.534 209.728Z" fill="#D9D9D9"/>
<path d="M589.476 248.067C591.888 248.894 592.315 244.606 590.713 244.126C589.111 243.645 587.926 248.218 589.476 248.067Z" fill="#D9D9D9"/>
<path d="M602.775 248.501C601.498 246.128 598.532 248.993 599.422 250.518C600.312 252.044 604.017 249.52 602.775 248.501Z" fill="#D9D9D9"/>
<path d="M610.081 251.748C609.108 254.285 613 255.13 613.583 253.439C614.167 251.748 610.081 250.057 610.081 251.748Z" fill="#D9D9D9"/>
<path d="M566.069 265.299C565.97 262.552 562.112 263.563 562.237 265.364C562.361 267.165 566.723 266.833 566.069 265.299Z" fill="#D9D9D9"/>
<path d="M572.315 251.958C575.725 256.018 580.423 249.067 578.096 246.488C575.768 243.909 569.494 250.529 572.315 251.958Z" fill="#741F5E" stroke="#D9D9D9" stroke-width="2"/>
<path d="M559.135 231.039C554.641 228.517 552.453 236.807 555.46 238.348C558.466 239.889 562.237 231.316 559.135 231.039Z" fill="#741F5E" stroke="#D9D9D9" stroke-width="2"/>
<path d="M575.719 226.815C575.048 221.367 567.542 224.166 568.1 227.727C568.659 231.288 577.287 229.737 575.719 226.815Z" fill="#741F5E" stroke="#D9D9D9" stroke-width="2"/>
<path d="M558.897 246.848C556.951 251.922 564.733 253.612 565.901 250.23C567.068 246.848 558.897 243.466 558.897 246.848Z" fill="#741F5E" stroke="#D9D9D9" stroke-width="2"/>
<path d="M583.25 239.532C584.597 234.234 576.682 233.612 575.912 237.126C575.142 240.64 583.638 242.888 583.25 239.532Z" fill="#741F5E" stroke="#D9D9D9" stroke-width="2"/>
<path d="M564.129 274.584C563.238 272.012 559.87 274.294 560.512 275.96C561.153 277.627 565.195 275.816 564.129 274.584Z" fill="#D9D9D9"/>
<path d="M562.353 285.169C562.232 282.424 558.382 283.472 558.522 285.271C558.661 287.071 563.02 286.697 562.353 285.169Z" fill="#D9D9D9"/>
<path d="M551.698 200.994C550.726 203.531 554.617 204.377 555.201 202.685C555.784 200.994 551.698 199.303 551.698 200.994Z" fill="#D9D9D9"/>
<path d="M565.846 237.644C565.727 238.092 561.961 239.106 562.139 239.618C562.317 240.129 566.366 240.328 566.646 240.723C566.926 241.118 567.091 245.264 567.591 245.305C568.091 245.346 569.063 241.352 569.626 241.118C570.189 240.885 572.995 241.513 573.843 241.118C574.69 240.723 570.862 237.644 570.862 237.644C570.862 237.644 572.707 234.273 572.461 233.535C572.216 232.797 568.764 235.607 568.391 235.589C568.018 235.571 565.283 232.226 564.756 232.43C564.229 232.634 565.966 237.195 565.846 237.644Z" fill="#D9D9D9"/>
<g filter="url(#filter8_d_2381_2)">
<path d="M875.724 214.585C874.097 227.214 896.884 224.465 906.805 229.061C916.727 233.656 890.252 239.844 875.724 244.58C861.197 249.316 879.314 283.013 869.048 292.223C858.782 301.433 853.642 265.735 847.25 250.579C840.858 235.424 797.304 264.238 787.686 250.579C778.068 236.92 820.829 236.082 829.07 224.646C837.31 213.21 813.515 185.464 821.4 181.111C825.743 178.714 835.046 200.061 843.182 208.271C851.318 216.48 868.496 165.525 879.211 166.593C889.926 167.661 877.758 198.798 875.724 214.585Z" fill="url(#paint8_linear_2381_2)"/>
</g>
<g filter="url(#filter9_d_2381_2)">
<path d="M864.02 244.124C865.208 239.014 907.544 235.877 902.622 231.567C897.699 227.258 878.564 227.136 872.936 224.381C867.307 221.625 880.572 176.363 876.754 175.659C872.936 174.955 855.265 210.635 847.197 213.046C839.129 215.458 826.711 182.103 822.803 184.893C818.895 187.684 836.73 220.531 836.262 224.381C835.793 228.23 796.232 240.347 794.465 247.458C792.697 254.568 840.826 241.016 845.178 242.662C849.53 244.308 859.358 287.347 866.147 289.671C872.936 291.994 862.831 249.235 864.02 244.124Z" fill="url(#paint9_linear_2381_2)"/>
</g>
<path d="M889.067 230.804C890.04 233.341 886.149 234.186 885.565 232.495C884.981 230.804 889.067 229.113 889.067 230.804Z" fill="#D9D9D9"/>
<path d="M867.876 232.826C866.856 230.312 870.731 229.38 871.346 231.058C871.962 232.736 867.908 234.517 867.876 232.826Z" fill="#D9D9D9"/>
<path d="M878.095 232.599C877.075 230.084 880.949 229.153 881.565 230.83C882.18 232.508 878.127 234.29 878.095 232.599Z" fill="#D9D9D9"/>
<path d="M862.356 212.707C863.329 215.244 859.438 216.089 858.854 214.398C858.27 212.707 862.356 211.016 862.356 212.707Z" fill="#D9D9D9"/>
<path d="M867.544 202.852C868.517 205.389 864.625 206.234 864.042 204.543C863.458 202.852 867.544 201.161 867.544 202.852Z" fill="#D9D9D9"/>
<path d="M843.142 217.007C844.114 219.544 840.223 220.389 839.639 218.698C839.056 217.007 843.142 215.316 843.142 217.007Z" fill="#D9D9D9"/>
<path d="M838.196 209.436C839.169 211.973 835.278 212.818 834.694 211.127C834.11 209.436 838.196 207.745 838.196 209.436Z" fill="#D9D9D9"/>
<path d="M832.423 199.58C833.396 202.117 829.504 202.963 828.92 201.271C828.337 199.58 832.423 197.889 832.423 199.58Z" fill="#D9D9D9"/>
<path d="M833.481 237.92C831.069 238.746 830.642 234.459 832.244 233.978C833.846 233.497 835.031 238.071 833.481 237.92Z" fill="#D9D9D9"/>
<path d="M820.182 238.353C821.459 235.981 824.425 238.845 823.535 240.371C822.645 241.896 818.94 239.372 820.182 238.353Z" fill="#D9D9D9"/>
<path d="M812.876 241.601C813.849 244.138 809.957 244.983 809.374 243.292C808.79 241.601 812.876 239.91 812.876 241.601Z" fill="#D9D9D9"/>
<path d="M856.888 255.151C856.987 252.405 860.845 253.416 860.72 255.217C860.596 257.018 856.234 256.686 856.888 255.151Z" fill="#D9D9D9"/>
<path d="M850.642 241.81C847.232 245.87 842.534 238.92 844.861 236.341C847.189 233.762 853.463 240.381 850.642 241.81Z" fill="#741F5E" stroke="#D9D9D9" stroke-width="2"/>
<path d="M863.822 220.892C868.316 218.369 870.504 226.659 867.497 228.201C864.491 229.742 860.72 221.169 863.822 220.892Z" fill="#741F5E" stroke="#D9D9D9" stroke-width="2"/>
<path d="M847.238 216.668C847.909 211.22 855.416 214.019 854.857 217.58C854.298 221.14 845.67 219.59 847.238 216.668Z" fill="#741F5E" stroke="#D9D9D9" stroke-width="2"/>
<path d="M864.06 236.702C866.006 241.775 858.224 243.466 857.056 240.084C855.889 236.702 864.06 233.32 864.06 236.702Z" fill="#741F5E" stroke="#D9D9D9" stroke-width="2"/>
<path d="M839.707 229.385C838.36 224.087 846.275 223.465 847.045 226.979C847.815 230.493 839.319 232.74 839.707 229.385Z" fill="#741F5E" stroke="#D9D9D9" stroke-width="2"/>
<path d="M858.828 264.438C859.72 261.866 863.087 264.148 862.445 265.814C861.804 267.48 857.762 265.669 858.828 264.438Z" fill="#D9D9D9"/>
<path d="M860.604 275.021C860.725 272.276 864.575 273.324 864.435 275.124C864.296 276.924 859.937 276.549 860.604 275.021Z" fill="#D9D9D9"/>
<path d="M871.259 190.847C872.232 193.384 868.34 194.229 867.756 192.538C867.173 190.847 871.259 189.156 871.259 190.847Z" fill="#D9D9D9"/>
<path d="M857.111 227.496C857.23 227.945 860.996 228.958 860.818 229.47C860.64 229.982 856.591 230.181 856.311 230.576C856.031 230.971 855.866 235.116 855.366 235.157C854.866 235.199 853.894 231.204 853.331 230.971C852.768 230.738 849.962 231.366 849.115 230.971C848.267 230.576 852.095 227.496 852.095 227.496C852.095 227.496 850.25 224.126 850.496 223.388C850.741 222.65 854.193 225.459 854.566 225.441C854.939 225.424 857.674 222.078 858.201 222.282C858.728 222.487 856.991 227.048 857.111 227.496Z" fill="#D9D9D9"/>
<g filter="url(#filter10_d_2381_2)">
<path d="M686.145 184.575C683.199 196.324 661.283 183.064 649.64 182.323C637.996 181.582 662.373 199.59 675.263 210.636C688.153 221.682 657.71 242.313 664.692 255.213C671.674 268.113 689.793 239.55 701.719 229.433C713.645 219.315 746.988 265.129 761.614 257.851C776.241 250.573 733.546 229.443 729.409 215.575C725.272 201.708 759.265 188.955 752.915 181.411C749.418 177.257 732.318 191.364 721.159 194.615C710 197.866 711.212 145.4 700.05 141.216C688.888 137.031 689.827 169.889 686.145 184.575Z" fill="url(#paint10_linear_2381_2)"/>
</g>
<g filter="url(#filter11_d_2381_2)">
<path d="M687.201 215.824C687.86 210.817 646.426 187.893 652.94 186.497C659.453 185.102 678.739 194.125 685.398 194.416C692.057 194.707 695.14 149.055 699.234 150.265C703.329 151.474 708.154 190.905 715.392 196.849C722.63 202.794 747.217 179.738 750.135 184.028C753.052 188.317 723.202 208.346 722.276 211.914C721.35 215.482 756.735 244.883 755.933 251.904C755.131 258.925 711.651 224.189 706.678 223.543C701.705 222.896 676.208 255.6 668.538 254.38C660.869 253.16 686.542 220.831 687.201 215.824Z" fill="url(#paint11_linear_2381_2)"/>
</g>
<path d="M666.84 192.3C664.941 194.04 668.547 196.631 669.748 195.44C670.948 194.249 667.453 190.831 666.84 192.3Z" fill="#D9D9D9"/>
<path d="M687.417 204.167C689.355 202.469 685.797 199.811 684.57 200.975C683.342 202.139 686.772 205.621 687.417 204.167Z" fill="#D9D9D9"/>
<path d="M677.222 199.093C679.16 197.395 675.602 194.737 674.374 195.901C673.147 197.065 676.576 200.547 677.222 199.093Z" fill="#D9D9D9"/>
<path d="M700.269 189.321C698.371 191.061 701.977 193.652 703.178 192.462C704.378 191.271 700.883 187.852 700.269 189.321Z" fill="#D9D9D9"/>
<path d="M698.625 178.284C696.726 180.024 700.333 182.615 701.533 181.424C702.733 180.234 699.238 176.815 698.625 178.284Z" fill="#D9D9D9"/>
<path d="M718.027 202.225C716.129 203.965 719.735 206.556 720.935 205.365C722.136 204.174 718.641 200.755 718.027 202.225Z" fill="#D9D9D9"/>
<path d="M725.75 198.007C723.851 199.747 727.458 202.338 728.658 201.147C729.858 199.956 726.363 196.538 725.75 198.007Z" fill="#D9D9D9"/>
<path d="M735.129 192.197C733.23 193.937 736.836 196.528 738.037 195.338C739.237 194.147 735.742 190.728 735.129 192.197Z" fill="#D9D9D9"/>
<path d="M720.153 225.002C722.278 226.87 724.264 223.35 722.827 222.167C721.39 220.985 718.539 224.393 720.153 225.002Z" fill="#D9D9D9"/>
<path d="M733.372 231.725C732.949 229.054 728.927 230.128 729.269 231.878C729.61 233.628 734.251 233.203 733.372 231.725Z" fill="#D9D9D9"/>
<path d="M739.531 238.029C737.632 239.769 741.239 242.36 742.439 241.17C743.64 239.979 740.144 236.56 739.531 238.029Z" fill="#D9D9D9"/>
<path d="M690.365 228.805C691.262 226.372 687.016 225.41 686.488 227.034C685.96 228.658 690.466 230.45 690.365 228.805Z" fill="#D9D9D9"/>
<path d="M701.488 220.197C703.444 225.351 710.69 221.553 709.285 218.202C707.88 214.851 699.17 217.609 701.488 220.197Z" fill="#741F5E" stroke="#D9D9D9" stroke-width="2"/>
<path d="M695.825 195.733C692.221 191.397 687.014 197.556 689.477 200.329C691.941 203.102 698.843 197.453 695.825 195.733Z" fill="#741F5E" stroke="#D9D9D9" stroke-width="2"/>
<path d="M714.033 199.974C715.335 194.921 706.771 193.771 706.041 197.131C705.311 200.491 714.549 203.26 714.033 199.974Z" fill="#741F5E" stroke="#D9D9D9" stroke-width="2"/>
<path d="M689.851 209.356C686.054 212.835 693.266 218.017 695.667 215.636C698.068 213.254 691.078 206.417 689.851 209.356Z" fill="#741F5E" stroke="#D9D9D9" stroke-width="2"/>
<path d="M716.994 214.618C720.271 210.658 712.537 206.341 710.488 209.027C708.439 211.712 716.167 217.719 716.994 214.618Z" fill="#741F5E" stroke="#D9D9D9" stroke-width="2"/>
<path d="M685.05 235.95C685.087 233.29 680.873 233.667 680.913 235.42C680.954 237.174 685.676 237.529 685.05 235.95Z" fill="#D9D9D9"/>
<path d="M679.421 244.297C680.295 241.854 676.044 240.928 675.531 242.558C675.019 244.188 679.537 245.942 679.421 244.297Z" fill="#D9D9D9"/>
<path d="M699.246 166.081C697.347 167.821 700.954 170.412 702.154 169.221C703.355 168.031 699.859 164.612 699.246 166.081Z" fill="#D9D9D9"/>
<path d="M700.175 204.673C699.892 205.005 695.738 204.089 695.731 204.619C695.725 205.149 699.724 207.253 699.862 207.73C700.001 208.207 698.662 211.887 699.15 212.161C699.638 212.436 702.065 209.429 702.716 209.495C703.367 209.561 705.96 211.445 706.955 211.506C707.951 211.568 705.219 207.066 705.219 207.066C705.219 207.066 708.297 205.018 708.318 204.259C708.338 203.501 703.848 204.295 703.479 204.101C703.111 203.908 701.574 199.696 700.971 199.623C700.367 199.549 700.458 204.34 700.175 204.673Z" fill="#D9D9D9"/>
<path d="M478.874 48.8V62.5H460.274V119H443.174V62.5H424.574V48.8H478.874ZM531.156 106.6H504.956L500.756 119H482.856L508.256 48.8H528.056L553.456 119H535.356L531.156 106.6ZM526.756 93.4L518.056 67.7L509.456 93.4H526.756ZM578.286 105.8H600.686V119H561.186V48.8H578.286V105.8ZM649.543 119L625.943 88V119H608.843V48.8H625.943V79.6L649.343 48.8H669.443L642.243 83.2L670.443 119H649.543ZM703.969 119.7C698.836 119.7 694.236 118.867 690.169 117.2C686.102 115.533 682.836 113.067 680.369 109.8C677.969 106.533 676.702 102.6 676.569 98H694.769C695.036 100.6 695.936 102.6 697.469 104C699.002 105.333 701.002 106 703.469 106C706.002 106 708.002 105.433 709.469 104.3C710.936 103.1 711.669 101.467 711.669 99.4C711.669 97.6667 711.069 96.2333 709.869 95.1C708.736 93.9667 707.302 93.0333 705.569 92.3C703.902 91.5667 701.502 90.7333 698.369 89.8C693.836 88.4 690.136 87 687.269 85.6C684.402 84.2 681.936 82.1333 679.869 79.4C677.802 76.6667 676.769 73.1 676.769 68.7C676.769 62.1667 679.136 57.0667 683.869 53.4C688.602 49.6667 694.769 47.8 702.369 47.8C710.102 47.8 716.336 49.6667 721.069 53.4C725.802 57.0667 728.336 62.2 728.669 68.8H710.169C710.036 66.5333 709.202 64.7667 707.669 63.5C706.136 62.1667 704.169 61.5 701.769 61.5C699.702 61.5 698.036 62.0667 696.769 63.2C695.502 64.2667 694.869 65.8333 694.869 67.9C694.869 70.1667 695.936 71.9333 698.069 73.2C700.202 74.4667 703.536 75.8333 708.069 77.3C712.602 78.8333 716.269 80.3 719.069 81.7C721.936 83.1 724.402 85.1333 726.469 87.8C728.536 90.4667 729.569 93.9 729.569 98.1C729.569 102.1 728.536 105.733 726.469 109C724.469 112.267 721.536 114.867 717.669 116.8C713.802 118.733 709.236 119.7 703.969 119.7ZM800.893 48.8V119H783.793V90.1H757.193V119H740.093V48.8H757.193V76.3H783.793V48.8H800.893ZM846.437 119.7C839.837 119.7 833.77 118.167 828.237 115.1C822.77 112.033 818.404 107.767 815.137 102.3C811.937 96.7667 810.337 90.5667 810.337 83.7C810.337 76.8333 811.937 70.6667 815.137 65.2C818.404 59.7333 822.77 55.4667 828.237 52.4C833.77 49.3333 839.837 47.8 846.437 47.8C853.037 47.8 859.07 49.3333 864.537 52.4C870.07 55.4667 874.404 59.7333 877.537 65.2C880.737 70.6667 882.337 76.8333 882.337 83.7C882.337 90.5667 880.737 96.7667 877.537 102.3C874.337 107.767 870.004 112.033 864.537 115.1C859.07 118.167 853.037 119.7 846.437 119.7ZM846.437 104.1C852.037 104.1 856.504 102.233 859.837 98.5C863.237 94.7667 864.937 89.8333 864.937 83.7C864.937 77.5 863.237 72.5667 859.837 68.9C856.504 65.1667 852.037 63.3 846.437 63.3C840.77 63.3 836.237 65.1333 832.837 68.8C829.504 72.4667 827.837 77.4333 827.837 83.7C827.837 89.9 829.504 94.8667 832.837 98.6C836.237 102.267 840.77 104.1 846.437 104.1ZM988.45 48.8L970.15 119H949.45L938.25 72.8L926.65 119H905.95L888.15 48.8H906.45L916.55 99.9L929.05 48.8H947.85L959.85 99.9L970.05 48.8H988.45Z" fill="#D9D9D9"/>
<defs>
<filter id="filter0_d_2381_2" x="879" y="26" width="546" height="330" filterUnits="userSpaceOnUse" color-interpolation-filters="sRGB">
<feFlood flood-opacity="0" result="BackgroundImageFix"/>
<feColorMatrix in="SourceAlpha" type="matrix" values="0 0 0 0 0 0 0 0 0 0 0 0 0 0 0 0 0 0 127 0" result="hardAlpha"/>
<feOffset dy="4"/>
<feGaussianBlur stdDeviation="62.5"/>
<feComposite in2="hardAlpha" operator="out"/>
<feColorMatrix type="matrix" values="0 0 0 0 0.602456 0 0 0 0 0.862489 0 0 0 0 0.9525 0 0 0 0.54 0"/>
<feBlend mode="normal" in2="BackgroundImageFix" result="effect1_dropShadow_2381_2"/>
<feBlend mode="normal" in="SourceGraphic" in2="effect1_dropShadow_2381_2" result="shape"/>
</filter>
<filter id="filter1_d_2381_2" x="0" y="26" width="546" height="330" filterUnits="userSpaceOnUse" color-interpolation-filters="sRGB">
<feFlood flood-opacity="0" result="BackgroundImageFix"/>
<feColorMatrix in="SourceAlpha" type="matrix" values="0 0 0 0 0 0 0 0 0 0 0 0 0 0 0 0 0 0 127 0" result="hardAlpha"/>
<feOffset dy="4"/>
<feGaussianBlur stdDeviation="62.5"/>
<feComposite in2="hardAlpha" operator="out"/>
<feColorMatrix type="matrix" values="0 0 0 0 0.602456 0 0 0 0 0.862489 0 0 0 0 0.9525 0 0 0 0.54 0"/>
<feBlend mode="normal" in2="BackgroundImageFix" result="effect1_dropShadow_2381_2"/>
<feBlend mode="normal" in="SourceGraphic" in2="effect1_dropShadow_2381_2" result="shape"/>
</filter>
<filter id="filter2_d_2381_2" x="753" y="44" width="545" height="329" filterUnits="userSpaceOnUse" color-interpolation-filters="sRGB">
<feFlood flood-opacity="0" result="BackgroundImageFix"/>
<feColorMatrix in="SourceAlpha" type="matrix" values="0 0 0 0 0 0 0 0 0 0 0 0 0 0 0 0 0 0 127 0" result="hardAlpha"/>
<feOffset dy="4"/>
<feGaussianBlur stdDeviation="62.5"/>
<feComposite in2="hardAlpha" operator="out"/>
<feColorMatrix type="matrix" values="0 0 0 0 0.602456 0 0 0 0 0.862489 0 0 0 0 0.9525 0 0 0 0.54 0"/>
<feBlend mode="normal" in2="BackgroundImageFix" result="effect1_dropShadow_2381_2"/>
<feBlend mode="normal" in="SourceGraphic" in2="effect1_dropShadow_2381_2" result="shape"/>
</filter>
<filter id="filter3_d_2381_2" x="133" y="44" width="545" height="329" filterUnits="userSpaceOnUse" color-interpolation-filters="sRGB">
<feFlood flood-opacity="0" result="BackgroundImageFix"/>
<feColorMatrix in="SourceAlpha" type="matrix" values="0 0 0 0 0 0 0 0 0 0 0 0 0 0 0 0 0 0 127 0" result="hardAlpha"/>
<feOffset dy="4"/>
<feGaussianBlur stdDeviation="62.5"/>
<feComposite in2="hardAlpha" operator="out"/>
<feColorMatrix type="matrix" values="0 0 0 0 0.602456 0 0 0 0 0.862489 0 0 0 0 0.9525 0 0 0 0.54 0"/>
<feBlend mode="normal" in2="BackgroundImageFix" result="effect1_dropShadow_2381_2"/>
<feBlend mode="normal" in="SourceGraphic" in2="effect1_dropShadow_2381_2" result="shape"/>
</filter>
<filter id="filter4_d_2381_2" x="281" y="66" width="545.73" height="335.134" filterUnits="userSpaceOnUse" color-interpolation-filters="sRGB">
<feFlood flood-opacity="0" result="BackgroundImageFix"/>
<feColorMatrix in="SourceAlpha" type="matrix" values="0 0 0 0 0 0 0 0 0 0 0 0 0 0 0 0 0 0 127 0" result="hardAlpha"/>
<feOffset dy="4"/>
<feGaussianBlur stdDeviation="62.5"/>
<feComposite in2="hardAlpha" operator="out"/>
<feColorMatrix type="matrix" values="0 0 0 0 0.602456 0 0 0 0 0.862489 0 0 0 0 0.9525 0 0 0 0.54 0"/>
<feBlend mode="normal" in2="BackgroundImageFix" result="effect1_dropShadow_2381_2"/>
<feBlend mode="normal" in="SourceGraphic" in2="effect1_dropShadow_2381_2" result="shape"/>
</filter>
<filter id="filter5_d_2381_2" x="584.988" y="66" width="544.012" height="334.158" filterUnits="userSpaceOnUse" color-interpolation-filters="sRGB">
<feFlood flood-opacity="0" result="BackgroundImageFix"/>
<feColorMatrix in="SourceAlpha" type="matrix" values="0 0 0 0 0 0 0 0 0 0 0 0 0 0 0 0 0 0 127 0" result="hardAlpha"/>
<feOffset dy="4"/>
<feGaussianBlur stdDeviation="62.5"/>
<feComposite in2="hardAlpha" operator="out"/>
<feColorMatrix type="matrix" values="0 0 0 0 0.602456 0 0 0 0 0.862489 0 0 0 0 0.9525 0 0 0 0.54 0"/>
<feBlend mode="normal" in2="BackgroundImageFix" result="effect1_dropShadow_2381_2"/>
<feBlend mode="normal" in="SourceGraphic" in2="effect1_dropShadow_2381_2" result="shape"/>
</filter>
<filter id="filter6_d_2381_2" x="424.08" y="90.8236" width="302.491" height="306.944" filterUnits="userSpaceOnUse" color-interpolation-filters="sRGB">
<feFlood flood-opacity="0" result="BackgroundImageFix"/>
<feColorMatrix in="SourceAlpha" type="matrix" values="0 0 0 0 0 0 0 0 0 0 0 0 0 0 0 0 0 0 127 0" result="hardAlpha"/>
<feOffset dy="4"/>
<feGaussianBlur stdDeviation="44.95"/>
<feComposite in2="hardAlpha" operator="out"/>
<feColorMatrix type="matrix" values="0 0 0 0 0.407843 0 0 0 0 0.0941176 0 0 0 0 0.129412 0 0 0 1 0"/>
<feBlend mode="normal" in2="BackgroundImageFix" result="effect1_dropShadow_2381_2"/>
<feBlend mode="normal" in="SourceGraphic" in2="effect1_dropShadow_2381_2" result="shape"/>
</filter>
<filter id="filter7_d_2381_2" x="417.137" y="86.9959" width="314.202" height="319.713" filterUnits="userSpaceOnUse" color-interpolation-filters="sRGB">
<feFlood flood-opacity="0" result="BackgroundImageFix"/>
<feColorMatrix in="SourceAlpha" type="matrix" values="0 0 0 0 0 0 0 0 0 0 0 0 0 0 0 0 0 0 127 0" result="hardAlpha"/>
<feOffset dy="4"/>
<feGaussianBlur stdDeviation="51.4"/>
<feComposite in2="hardAlpha" operator="out"/>
<feColorMatrix type="matrix" values="0 0 0 0 0.847059 0 0 0 0 0.709804 0 0 0 0 0.458824 0 0 0 1 0"/>
<feBlend mode="normal" in2="BackgroundImageFix" result="effect1_dropShadow_2381_2"/>
<feBlend mode="normal" in="SourceGraphic" in2="effect1_dropShadow_2381_2" result="shape"/>
</filter>
<filter id="filter8_d_2381_2" x="696.385" y="80.6762" width="302.491" height="306.944" filterUnits="userSpaceOnUse" color-interpolation-filters="sRGB">
<feFlood flood-opacity="0" result="BackgroundImageFix"/>
<feColorMatrix in="SourceAlpha" type="matrix" values="0 0 0 0 0 0 0 0 0 0 0 0 0 0 0 0 0 0 127 0" result="hardAlpha"/>
<feOffset dy="4"/>
<feGaussianBlur stdDeviation="44.95"/>
<feComposite in2="hardAlpha" operator="out"/>
<feColorMatrix type="matrix" values="0 0 0 0 0.407843 0 0 0 0 0.0941176 0 0 0 0 0.129412 0 0 0 1 0"/>
<feBlend mode="normal" in2="BackgroundImageFix" result="effect1_dropShadow_2381_2"/>
<feBlend mode="normal" in="SourceGraphic" in2="effect1_dropShadow_2381_2" result="shape"/>
</filter>
<filter id="filter9_d_2381_2" x="691.618" y="76.8484" width="314.202" height="319.713" filterUnits="userSpaceOnUse" color-interpolation-filters="sRGB">
<feFlood flood-opacity="0" result="BackgroundImageFix"/>
<feColorMatrix in="SourceAlpha" type="matrix" values="0 0 0 0 0 0 0 0 0 0 0 0 0 0 0 0 0 0 127 0" result="hardAlpha"/>
<feOffset dy="4"/>
<feGaussianBlur stdDeviation="51.4"/>
<feComposite in2="hardAlpha" operator="out"/>
<feColorMatrix type="matrix" values="0 0 0 0 0.847059 0 0 0 0 0.709804 0 0 0 0 0.458824 0 0 0 1 0"/>
<feBlend mode="normal" in2="BackgroundImageFix" result="effect1_dropShadow_2381_2"/>
<feBlend mode="normal" in="SourceGraphic" in2="effect1_dropShadow_2381_2" result="shape"/>
</filter>
<filter id="filter10_d_2381_2" x="556.674" y="54.9506" width="297.878" height="297.588" filterUnits="userSpaceOnUse" color-interpolation-filters="sRGB">
<feFlood flood-opacity="0" result="BackgroundImageFix"/>
<feColorMatrix in="SourceAlpha" type="matrix" values="0 0 0 0 0 0 0 0 0 0 0 0 0 0 0 0 0 0 127 0" result="hardAlpha"/>
<feOffset dy="4"/>
<feGaussianBlur stdDeviation="44.95"/>
<feComposite in2="hardAlpha" operator="out"/>
<feColorMatrix type="matrix" values="0 0 0 0 0.407843 0 0 0 0 0.0941176 0 0 0 0 0.129412 0 0 0 1 0"/>
<feBlend mode="normal" in2="BackgroundImageFix" result="effect1_dropShadow_2381_2"/>
<feBlend mode="normal" in="SourceGraphic" in2="effect1_dropShadow_2381_2" result="shape"/>
</filter>
<filter id="filter11_d_2381_2" x="549.446" y="51.4412" width="309.299" height="309.772" filterUnits="userSpaceOnUse" color-interpolation-filters="sRGB">
<feFlood flood-opacity="0" result="BackgroundImageFix"/>
<feColorMatrix in="SourceAlpha" type="matrix" values="0 0 0 0 0 0 0 0 0 0 0 0 0 0 0 0 0 0 127 0" result="hardAlpha"/>
<feOffset dy="4"/>
<feGaussianBlur stdDeviation="51.4"/>
<feComposite in2="hardAlpha" operator="out"/>
<feColorMatrix type="matrix" values="0 0 0 0 0.847059 0 0 0 0 0.709804 0 0 0 0 0.458824 0 0 0 1 0"/>
<feBlend mode="normal" in2="BackgroundImageFix" result="effect1_dropShadow_2381_2"/>
<feBlend mode="normal" in="SourceGraphic" in2="effect1_dropShadow_2381_2" result="shape"/>
</filter>
<radialGradient id="paint0_radial_2381_2" cx="0" cy="0" r="1" gradientUnits="userSpaceOnUse" gradientTransform="translate(1237.36 176.697) rotate(178.625) scale(264.827 69.5697)">
<stop stop-color="#75D7D6"/>
<stop offset="0.288144" stop-color="#3CC1EC"/>
<stop offset="0.836667" stop-color="#C213BB"/>
<stop offset="1" stop-color="#D575D7"/>
</radialGradient>
<radialGradient id="paint1_radial_2381_2" cx="0" cy="0" r="1" gradientUnits="userSpaceOnUse" gradientTransform="translate(187.641 176.697) rotate(1.37492) scale(264.827 69.5697)">
<stop stop-color="#75D7D6"/>
<stop offset="0.288144" stop-color="#3CC1EC"/>
<stop offset="0.836667" stop-color="#C213BB"/>
<stop offset="1" stop-color="#D575D7"/>
</radialGradient>
<radialGradient id="paint2_radial_2381_2" cx="0" cy="0" r="1" gradientUnits="userSpaceOnUse" gradientTransform="translate(1110.57 194.326) rotate(178.638) scale(263.931 68.7005)">
<stop stop-color="#75D7D6"/>
<stop offset="0.288144" stop-color="#3CC1EC"/>
<stop offset="0.836667" stop-color="#C213BB"/>
<stop offset="1" stop-color="#D575D7"/>
</radialGradient>
<radialGradient id="paint3_radial_2381_2" cx="0" cy="0" r="1" gradientUnits="userSpaceOnUse" gradientTransform="translate(320.43 194.326) rotate(1.36234) scale(263.931 68.7005)">
<stop stop-color="#75D7D6"/>
<stop offset="0.288144" stop-color="#3CC1EC"/>
<stop offset="0.836667" stop-color="#C213BB"/>
<stop offset="1" stop-color="#D575D7"/>
</radialGradient>
<radialGradient id="paint4_radial_2381_2" cx="0" cy="0" r="1" gradientUnits="userSpaceOnUse" gradientTransform="translate(468.641 216.697) rotate(1.37492) scale(264.827 69.5697)">
<stop stop-color="#75D7D6"/>
<stop offset="0.288144" stop-color="#3CC1EC"/>
<stop offset="0.836667" stop-color="#C213BB"/>
<stop offset="1" stop-color="#D575D7"/>
</radialGradient>
<radialGradient id="paint5_radial_2381_2" cx="0" cy="0" r="1" gradientUnits="userSpaceOnUse" gradientTransform="translate(941.57 216.697) rotate(178.62) scale(263.933 69.5696)">
<stop stop-color="#75D7D6"/>
<stop offset="0.288144" stop-color="#3CC1EC"/>
<stop offset="0.836667" stop-color="#C213BB"/>
<stop offset="1" stop-color="#D575D7"/>
</radialGradient>
<linearGradient id="paint6_linear_2381_2" x1="574.155" y1="176.485" x2="574.155" y2="307.288" gradientUnits="userSpaceOnUse">
<stop stop-color="#71D0CF"/>
<stop offset="0.305" stop-color="#5BA7A6"/>
<stop offset="0.78" stop-color="#75D7D6"/>
</linearGradient>
<linearGradient id="paint7_linear_2381_2" x1="572.235" y1="184.703" x2="576.767" y2="299.05" gradientUnits="userSpaceOnUse">
<stop offset="0.485" stop-color="#B32169"/>
<stop offset="1" stop-color="#3029BA"/>
</linearGradient>
<linearGradient id="paint8_linear_2381_2" x1="848.802" y1="166.338" x2="848.802" y2="297.141" gradientUnits="userSpaceOnUse">
<stop stop-color="#71D0CF"/>
<stop offset="0.305" stop-color="#5BA7A6"/>
<stop offset="0.78" stop-color="#75D7D6"/>
</linearGradient>
<linearGradient id="paint9_linear_2381_2" x1="850.722" y1="174.556" x2="846.19" y2="288.902" gradientUnits="userSpaceOnUse">
<stop offset="0.485" stop-color="#B32169"/>
<stop offset="1" stop-color="#3029BA"/>
</linearGradient>
<linearGradient id="paint10_linear_2381_2" x1="730.721" y1="155.502" x2="677.989" y2="266.642" gradientUnits="userSpaceOnUse">
<stop stop-color="#71D0CF"/>
<stop offset="0.305" stop-color="#5BA7A6"/>
<stop offset="0.78" stop-color="#75D7D6"/>
</linearGradient>
<linearGradient id="paint11_linear_2381_2" x1="725.811" y1="161.726" x2="682.885" y2="260.63" gradientUnits="userSpaceOnUse">
<stop offset="0.485" stop-color="#B32169"/>
<stop offset="1" stop-color="#3029BA"/>
</linearGradient>
</defs>
</svg>
