<svg width="270" height="76" viewBox="0 0 270 76" fill="none" xmlns="http://www.w3.org/2000/svg">
<rect x="1" y="1" width="268" height="74" rx="35" fill="white" stroke="url(#paint0_linear_1218_936)" stroke-width="2"/>
<path d="M69.9576 41.84C71.2376 40.7733 72.2576 39.8867 73.0176 39.18C73.7776 38.46 74.4109 37.7133 74.9176 36.94C75.4242 36.1667 75.6776 35.4067 75.6776 34.66C75.6776 33.98 75.5176 33.4467 75.1976 33.06C74.8776 32.6733 74.3842 32.48 73.7176 32.48C73.0509 32.48 72.5376 32.7067 72.1776 33.16C71.8176 33.6 71.6309 34.2067 71.6176 34.98H68.8976C68.9509 33.38 69.4242 32.1667 70.3176 31.34C71.2242 30.5133 72.3709 30.1 73.7576 30.1C75.2776 30.1 76.4442 30.5067 77.2576 31.32C78.0709 32.12 78.4776 33.18 78.4776 34.5C78.4776 35.54 78.1976 36.5333 77.6376 37.48C77.0776 38.4267 76.4376 39.2533 75.7176 39.96C74.9976 40.6533 74.0576 41.4933 72.8976 42.48H78.7976V44.8H68.9176V42.72L69.9576 41.84ZM92.1276 45.14C90.8209 45.14 89.6209 44.8333 88.5276 44.22C87.4342 43.6067 86.5676 42.76 85.9276 41.68C85.2876 40.5867 84.9676 39.3533 84.9676 37.98C84.9676 36.62 85.2876 35.4 85.9276 34.32C86.5676 33.2267 87.4342 32.3733 88.5276 31.76C89.6209 31.1467 90.8209 30.84 92.1276 30.84C93.4476 30.84 94.6476 31.1467 95.7276 31.76C96.8209 32.3733 97.6809 33.2267 98.3076 34.32C98.9476 35.4 99.2676 36.62 99.2676 37.98C99.2676 39.3533 98.9476 40.5867 98.3076 41.68C97.6809 42.76 96.8209 43.6067 95.7276 44.22C94.6342 44.8333 93.4342 45.14 92.1276 45.14ZM92.1276 42.64C92.9676 42.64 93.7076 42.4533 94.3476 42.08C94.9876 41.6933 95.4876 41.1467 95.8476 40.44C96.2076 39.7333 96.3876 38.9133 96.3876 37.98C96.3876 37.0467 96.2076 36.2333 95.8476 35.54C95.4876 34.8333 94.9876 34.2933 94.3476 33.92C93.7076 33.5467 92.9676 33.36 92.1276 33.36C91.2876 33.36 90.5409 33.5467 89.8876 33.92C89.2476 34.2933 88.7476 34.8333 88.3876 35.54C88.0276 36.2333 87.8476 37.0467 87.8476 37.98C87.8476 38.9133 88.0276 39.7333 88.3876 40.44C88.7476 41.1467 89.2476 41.6933 89.8876 42.08C90.5409 42.4533 91.2876 42.64 92.1276 42.64ZM108.551 45L105.471 39.56H104.151V45H101.351V31.04H106.591C107.671 31.04 108.591 31.2333 109.351 31.62C110.111 31.9933 110.677 32.5067 111.051 33.16C111.437 33.8 111.631 34.52 111.631 35.32C111.631 36.24 111.364 37.0733 110.831 37.82C110.297 38.5533 109.504 39.06 108.451 39.34L111.791 45H108.551ZM104.151 37.46H106.491C107.251 37.46 107.817 37.28 108.191 36.92C108.564 36.5467 108.751 36.0333 108.751 35.38C108.751 34.74 108.564 34.2467 108.191 33.9C107.817 33.54 107.251 33.36 106.491 33.36H104.151V37.46ZM122.723 42.34H117.163L116.243 45H113.303L118.323 31.02H121.583L126.603 45H123.643L122.723 42.34ZM121.963 40.1L119.943 34.26L117.923 40.1H121.963ZM140.42 45H137.62L131.28 35.42V45H128.48V31.02H131.28L137.62 40.62V31.02H140.42V45ZM152.907 35.24C152.587 34.6533 152.147 34.2067 151.587 33.9C151.027 33.5933 150.373 33.44 149.627 33.44C148.8 33.44 148.067 33.6267 147.427 34C146.787 34.3733 146.287 34.9067 145.927 35.6C145.567 36.2933 145.387 37.0933 145.387 38C145.387 38.9333 145.567 39.7467 145.927 40.44C146.3 41.1333 146.813 41.6667 147.467 42.04C148.12 42.4133 148.88 42.6 149.747 42.6C150.813 42.6 151.687 42.32 152.367 41.76C153.047 41.1867 153.493 40.3933 153.707 39.38H148.907V37.24H156.467V39.68C156.28 40.6533 155.88 41.5533 155.267 42.38C154.653 43.2067 153.86 43.8733 152.887 44.38C151.927 44.8733 150.847 45.12 149.647 45.12C148.3 45.12 147.08 44.82 145.987 44.22C144.907 43.6067 144.053 42.76 143.427 41.68C142.813 40.6 142.507 39.3733 142.507 38C142.507 36.6267 142.813 35.4 143.427 34.32C144.053 33.2267 144.907 32.38 145.987 31.78C147.08 31.1667 148.293 30.86 149.627 30.86C151.2 30.86 152.567 31.2467 153.727 32.02C154.887 32.78 155.687 33.8533 156.127 35.24H152.907ZM166.038 26.06L160.638 48.62H157.898L163.298 26.06H166.038ZM177.765 31.04V33.3H174.045V45H171.245V33.3H167.525V31.04H177.765ZM182.608 31.04V45H179.808V31.04H182.608ZM200.594 31.04V45H197.794V35.92L194.054 45H191.934L188.174 35.92V45H185.374V31.04H188.554L192.994 41.42L197.434 31.04H200.594Z" fill="black"/>
<defs>
<linearGradient id="paint0_linear_1218_936" x1="135" y1="0" x2="135" y2="76" gradientUnits="userSpaceOnUse">
<stop offset="0.095" stop-color="#D7B575"/>
<stop offset="0.32" stop-color="#BED775"/>
<stop offset="0.99" stop-color="#4E3D71"/>
</linearGradient>
</defs>
</svg>
