<svg width="431" height="321" viewBox="0 0 431 321" fill="none" xmlns="http://www.w3.org/2000/svg">
<g clip-path="url(#clip0_1828_95)">
<g filter="url(#filter0_d_1828_95)">
<path d="M296.371 124.92C285.085 110.525 307.098 102.964 311.601 103.902C313.778 104.355 299.624 109.495 308.007 118.887C322.057 134.629 333.422 134.182 339.357 152.5C339.956 154.351 340.994 170.479 326.141 178.289C235.371 226.018 324.597 184.514 267.815 185.896C256.676 186.167 259.445 173.695 277.927 170.209C327.074 160.94 315.875 149.796 296.371 124.92Z" fill="url(#paint0_radial_1828_95)" shape-rendering="crispEdges"/>
</g>
<g filter="url(#filter1_d_1828_95)">
<path d="M181.177 137.282C190.837 125.263 174.17 115.818 170.609 116.178C168.888 116.352 179.587 122.682 172.492 130.409C160.599 143.36 151.783 141.674 146.048 157.913C145.468 159.553 143.676 174.32 154.757 183.193C222.472 237.419 155.579 189.111 199.676 196.754C208.327 198.254 206.933 186.434 192.765 181.144C155.089 167.078 164.484 158.051 181.177 137.282Z" fill="url(#paint1_radial_1828_95)" shape-rendering="crispEdges"/>
</g>
<g filter="url(#filter2_d_1828_95)">
<path d="M115.809 131.251C124.415 122.91 131.566 103.437 126.329 107.354C122.136 111.969 118.735 118.93 107.929 125.028C102.364 128.168 90.1918 133.416 84.7472 144.665C84.1972 145.802 82.6827 155.577 91.722 161.682C146.96 198.993 98.052 195.008 132.495 201.739C139.728 203.152 135.771 165.174 123.991 161.556C92.665 151.936 100.937 145.665 115.809 131.251Z" fill="url(#paint2_radial_1828_95)" shape-rendering="crispEdges"/>
</g>
<g filter="url(#filter3_d_1828_95)">
<path d="M257.383 141.758C249.099 132.719 243.524 113.479 248.685 117.895C252.664 122.814 255.555 129.814 266.413 137.071C272.005 140.808 284.405 147.468 289.023 158.771C289.489 159.913 290.081 169.273 279.829 173.683C217.185 200.634 269.621 203.94 232.284 205.282C224.444 205.563 232.613 170.613 245.52 168.924C279.843 164.433 271.698 157.377 257.383 141.758Z" fill="url(#paint3_radial_1828_95)" shape-rendering="crispEdges"/>
</g>
<g filter="url(#filter4_d_1828_95)">
<path d="M199.012 167.912C199.944 176.536 182.339 174.029 174.522 176.871C166.706 179.714 187.082 184.662 198.229 188.287C209.375 191.913 194.441 214.292 202.165 220.837C209.888 227.382 214.807 203.278 220.162 193.163C225.516 183.048 258.552 203.845 266.369 194.837C274.187 185.829 241.036 184.058 234.942 176.058C228.848 168.058 248.032 149.88 242.028 146.702C238.722 144.951 230.947 159.19 224.422 164.538C217.896 169.885 205.9 134.79 197.559 135.214C189.219 135.639 197.846 157.131 199.012 167.912Z" fill="url(#paint4_linear_1828_95)"/>
</g>
<g filter="url(#filter5_d_1828_95)">
<path d="M207.321 188.306C206.533 184.801 173.772 181.48 177.703 178.691C181.634 175.902 196.482 176.357 200.92 174.644C205.358 172.93 196.249 141.812 199.229 141.441C202.21 141.07 214.987 165.803 221.183 167.668C227.379 169.533 237.882 147.225 240.841 149.23C243.8 151.236 229.107 173.047 229.37 175.675C229.633 178.303 260.007 187.645 261.192 192.525C262.378 197.405 225.395 186.846 221.976 187.842C218.557 188.838 209.81 217.797 204.482 219.184C199.155 220.572 208.11 191.81 207.321 188.306Z" fill="url(#paint5_linear_1828_95)"/>
</g>
<path d="M188.235 178.554C187.414 180.25 190.411 180.934 190.908 179.802C191.405 178.669 188.279 177.406 188.235 178.554Z" fill="#D9D9D9"/>
<path d="M204.623 180.523C205.48 178.843 202.499 178.102 201.977 179.224C201.456 180.346 204.554 181.67 204.623 180.523Z" fill="#D9D9D9"/>
<path d="M196.701 180.081C197.558 178.402 194.577 177.66 194.056 178.782C193.534 179.905 196.632 181.229 196.701 180.081Z" fill="#D9D9D9"/>
<path d="M209.43 167.011C208.609 168.707 211.606 169.391 212.103 168.259C212.6 167.126 209.474 165.863 209.43 167.011Z" fill="#D9D9D9"/>
<path d="M205.661 160.172C204.84 161.867 207.837 162.551 208.334 161.419C208.831 160.286 205.705 159.023 205.661 160.172Z" fill="#D9D9D9"/>
<path d="M224.223 170.472C223.402 172.168 226.399 172.852 226.896 171.72C227.393 170.587 224.267 169.324 224.223 170.472Z" fill="#D9D9D9"/>
<path d="M228.258 165.469C227.438 167.165 230.434 167.849 230.931 166.717C231.428 165.584 228.303 164.321 228.258 165.469Z" fill="#D9D9D9"/>
<path d="M232.993 158.938C232.172 160.634 235.169 161.318 235.666 160.185C236.163 159.053 233.037 157.789 232.993 158.938Z" fill="#D9D9D9"/>
<path d="M231.173 184.95C233.023 185.579 233.466 182.679 232.236 182.307C231.005 181.936 229.967 185.009 231.173 184.95Z" fill="#D9D9D9"/>
<path d="M241.477 185.618C240.549 183.97 238.173 185.833 238.824 186.894C239.474 187.955 242.414 186.345 241.477 185.618Z" fill="#D9D9D9"/>
<path d="M247.059 188.03C246.238 189.726 249.235 190.409 249.732 189.277C250.229 188.145 247.103 186.881 247.059 188.03Z" fill="#D9D9D9"/>
<path d="M212.566 195.996C212.561 194.128 209.542 194.706 209.592 195.933C209.641 197.16 213.034 197.057 212.566 195.996Z" fill="#D9D9D9"/>
<path d="M217.759 187.111C220.298 189.964 224.124 185.375 222.385 183.558C220.647 181.741 215.608 186.061 217.759 187.111Z" fill="#741F5E" stroke="#D9D9D9" stroke-width="2"/>
<path d="M208.079 172.531C204.659 170.691 202.745 176.261 205.037 177.392C207.329 178.524 210.478 172.806 208.079 172.531Z" fill="#741F5E" stroke="#D9D9D9" stroke-width="2"/>
<path d="M221.054 170.128C220.675 166.409 214.779 168.099 215.12 170.533C215.46 172.968 222.193 172.157 221.054 170.128Z" fill="#741F5E" stroke="#D9D9D9" stroke-width="2"/>
<path d="M207.486 183.262C205.844 186.654 211.837 188.021 212.831 185.756C213.825 183.492 207.574 180.965 207.486 183.262Z" fill="#741F5E" stroke="#D9D9D9" stroke-width="2"/>
<path d="M226.566 178.978C227.75 175.417 221.625 174.772 220.936 177.137C220.247 179.502 226.779 181.268 226.566 178.978Z" fill="#741F5E" stroke="#D9D9D9" stroke-width="2"/>
<path d="M210.822 202.251C210.198 200.478 207.526 201.934 207.98 203.084C208.434 204.234 211.617 203.117 210.822 202.251Z" fill="#D9D9D9"/>
<path d="M209.164 209.391C209.142 207.523 206.128 208.126 206.189 209.353C206.25 210.579 209.642 210.447 209.164 209.391Z" fill="#D9D9D9"/>
<path d="M203.094 151.913C202.274 153.609 205.27 154.292 205.767 153.16C206.264 152.028 203.139 150.764 203.094 151.913Z" fill="#D9D9D9"/>
<path d="M213.112 177.205C213.007 177.506 210.059 178.089 210.184 178.441C210.309 178.794 213.445 179.043 213.652 179.319C213.859 179.595 213.878 182.416 214.265 182.458C214.652 182.5 215.511 179.814 215.953 179.671C216.396 179.529 218.556 180.034 219.224 179.79C219.892 179.545 217.003 177.346 217.003 177.346C217.003 177.346 218.522 175.108 218.351 174.6C218.179 174.092 215.428 175.903 215.139 175.881C214.85 175.858 212.816 173.509 212.402 173.633C211.988 173.757 213.216 176.904 213.112 177.205Z" fill="#D9D9D9"/>
<g filter="url(#filter6_d_1828_95)">
<path d="M265.662 151.714C266.816 158.867 250.667 157.31 243.636 159.912C236.605 162.515 255.367 166.02 265.662 168.702C275.958 171.385 263.118 190.469 270.393 195.685C277.669 200.902 281.311 180.683 285.841 172.1C290.371 163.516 321.236 179.836 328.052 172.1C334.868 164.364 304.565 163.889 298.725 157.412C292.885 150.935 309.748 135.221 304.16 132.756C301.082 131.398 294.489 143.488 288.724 148.138C282.959 152.787 270.785 123.928 263.192 124.533C255.598 125.138 264.221 142.773 265.662 151.714Z" fill="url(#paint6_linear_1828_95)"/>
</g>
<g filter="url(#filter7_d_1828_95)">
<path d="M273.958 168.443C273.116 165.549 243.114 163.772 246.602 161.332C250.091 158.891 263.651 158.822 267.64 157.261C271.628 155.701 262.228 130.066 264.934 129.667C267.64 129.268 280.163 149.476 285.88 150.842C291.598 152.208 300.397 133.316 303.167 134.897C305.937 136.478 293.298 155.081 293.63 157.261C293.961 159.442 321.997 166.304 323.249 170.331C324.502 174.358 290.395 166.683 287.311 167.615C284.227 168.547 277.262 192.923 272.451 194.239C267.64 195.555 274.801 171.338 273.958 168.443Z" fill="url(#paint7_linear_1828_95)"/>
</g>
<path d="M256.204 160.901C255.514 162.337 258.272 162.816 258.686 161.858C259.099 160.901 256.204 159.943 256.204 160.901Z" fill="#D9D9D9"/>
<path d="M271.224 162.045C271.947 160.621 269.201 160.093 268.765 161.043C268.328 161.993 271.201 163.002 271.224 162.045Z" fill="#D9D9D9"/>
<path d="M263.981 161.916C264.704 160.492 261.959 159.964 261.522 160.914C261.086 161.864 263.959 162.873 263.981 161.916Z" fill="#D9D9D9"/>
<path d="M275.137 150.65C274.448 152.086 277.206 152.565 277.619 151.607C278.033 150.65 275.137 149.692 275.137 150.65Z" fill="#D9D9D9"/>
<path d="M271.458 145.069C270.768 146.505 273.526 146.984 273.94 146.026C274.353 145.069 271.458 144.111 271.458 145.069Z" fill="#D9D9D9"/>
<path d="M288.755 153.085C288.065 154.522 290.823 155.001 291.237 154.043C291.65 153.085 288.755 152.127 288.755 153.085Z" fill="#D9D9D9"/>
<path d="M292.259 148.797C291.569 150.234 294.327 150.713 294.74 149.755C295.154 148.797 292.259 147.839 292.259 148.797Z" fill="#D9D9D9"/>
<path d="M296.348 143.216C295.659 144.653 298.417 145.132 298.83 144.174C299.244 143.216 296.348 142.258 296.348 143.216Z" fill="#D9D9D9"/>
<path d="M295.597 164.93C297.307 165.398 297.61 162.97 296.474 162.698C295.339 162.425 294.499 165.015 295.597 164.93Z" fill="#D9D9D9"/>
<path d="M305.022 165.175C304.118 163.831 302.016 165.454 302.646 166.318C303.277 167.182 305.902 165.752 305.022 165.175Z" fill="#D9D9D9"/>
<path d="M310.196 167.014C309.507 168.451 312.264 168.929 312.678 167.972C313.092 167.014 310.196 166.056 310.196 167.014Z" fill="#D9D9D9"/>
<path d="M279.009 174.69C278.939 173.135 276.205 173.707 276.293 174.727C276.382 175.747 279.472 175.559 279.009 174.69Z" fill="#D9D9D9"/>
<path d="M283.437 167.134C285.853 169.433 289.182 165.496 287.533 164.036C285.884 162.575 281.438 166.324 283.437 167.134Z" fill="#741F5E" stroke="#D9D9D9" stroke-width="2"/>
<path d="M274.099 155.286C270.914 153.857 269.364 158.552 271.494 159.425C273.625 160.298 276.297 155.443 274.099 155.286Z" fill="#741F5E" stroke="#D9D9D9" stroke-width="2"/>
<path d="M285.846 152.891C285.37 149.806 280.051 151.391 280.447 153.408C280.843 155.424 286.957 154.546 285.846 152.891Z" fill="#741F5E" stroke="#D9D9D9" stroke-width="2"/>
<path d="M273.931 164.24C272.552 167.113 278.067 168.071 278.895 166.155C279.722 164.24 273.931 162.324 273.931 164.24Z" fill="#741F5E" stroke="#D9D9D9" stroke-width="2"/>
<path d="M291.187 160.096C292.142 157.096 286.533 156.743 285.987 158.733C285.441 160.724 291.462 161.997 291.187 160.096Z" fill="#741F5E" stroke="#D9D9D9" stroke-width="2"/>
<path d="M277.638 179.947C277.006 178.491 274.62 179.783 275.075 180.727C275.529 181.671 278.394 180.645 277.638 179.947Z" fill="#D9D9D9"/>
<path d="M276.377 185.943C276.291 184.388 273.563 184.982 273.662 186.001C273.76 187.021 276.849 186.809 276.377 185.943Z" fill="#D9D9D9"/>
<path d="M268.825 138.27C268.136 139.707 270.893 140.185 271.307 139.228C271.721 138.27 268.825 137.312 268.825 138.27Z" fill="#D9D9D9"/>
<path d="M278.85 159.026C278.766 159.28 276.097 159.854 276.223 160.144C276.349 160.434 279.219 160.547 279.417 160.771C279.616 160.994 279.732 163.342 280.087 163.365C280.441 163.389 281.13 161.126 281.529 160.994C281.928 160.862 283.916 161.218 284.517 160.994C285.118 160.771 282.405 159.026 282.405 159.026C282.405 159.026 283.712 157.117 283.538 156.699C283.364 156.281 280.918 157.873 280.653 157.863C280.389 157.852 278.451 155.958 278.078 156.073C277.705 156.189 278.935 158.772 278.85 159.026Z" fill="#D9D9D9"/>
<g filter="url(#filter8_d_1828_95)">
<path d="M161.99 157.412C160.837 164.565 176.985 163.008 184.016 165.611C191.047 168.213 172.285 171.718 161.99 174.4C151.695 177.083 164.534 196.167 157.259 201.384C149.984 206.6 146.341 186.382 141.811 177.798C137.281 169.215 106.416 185.534 99.6 177.798C92.784 170.062 123.088 169.587 128.927 163.11C134.767 156.633 117.904 140.919 123.492 138.454C126.57 137.096 133.163 149.186 138.928 153.836C144.694 158.485 156.867 129.626 164.461 130.231C172.054 130.836 163.431 148.471 161.99 157.412Z" fill="url(#paint8_linear_1828_95)"/>
</g>
<g filter="url(#filter9_d_1828_95)">
<path d="M153.694 174.142C154.536 171.247 184.538 169.471 181.05 167.03C177.561 164.589 164.001 164.52 160.013 162.96C156.024 161.399 165.424 135.764 162.718 135.365C160.013 134.966 147.49 155.174 141.772 156.54C136.055 157.906 127.255 139.015 124.485 140.595C121.716 142.176 134.355 160.779 134.023 162.96C133.691 165.14 105.655 172.002 104.403 176.029C103.15 180.057 137.257 172.381 140.341 173.313C143.425 174.246 150.39 198.622 155.202 199.937C160.013 201.253 152.852 177.036 153.694 174.142Z" fill="url(#paint9_linear_1828_95)"/>
</g>
<path d="M171.449 166.599C172.138 168.036 169.38 168.514 168.967 167.557C168.553 166.599 171.449 165.641 171.449 166.599Z" fill="#D9D9D9"/>
<path d="M156.429 167.743C155.706 166.319 158.452 165.791 158.888 166.741C159.324 167.692 156.451 168.701 156.429 167.743Z" fill="#D9D9D9"/>
<path d="M163.671 167.614C162.948 166.19 165.694 165.662 166.13 166.612C166.566 167.563 163.694 168.572 163.671 167.614Z" fill="#D9D9D9"/>
<path d="M152.515 156.349C153.204 157.786 150.447 158.264 150.033 157.307C149.619 156.349 152.515 155.391 152.515 156.349Z" fill="#D9D9D9"/>
<path d="M156.195 150.767C156.884 152.204 154.126 152.682 153.713 151.725C153.299 150.767 156.195 149.809 156.195 150.767Z" fill="#D9D9D9"/>
<path d="M138.898 158.783C139.587 160.22 136.829 160.699 136.416 159.741C136.002 158.783 138.898 157.826 138.898 158.783Z" fill="#D9D9D9"/>
<path d="M135.394 154.495C136.083 155.932 133.326 156.411 132.912 155.453C132.498 154.495 135.394 153.538 135.394 154.495Z" fill="#D9D9D9"/>
<path d="M131.304 148.914C131.993 150.351 129.236 150.83 128.822 149.872C128.408 148.914 131.304 147.957 131.304 148.914Z" fill="#D9D9D9"/>
<path d="M132.055 170.628C130.346 171.096 130.043 168.668 131.178 168.396C132.313 168.123 133.153 170.714 132.055 170.628Z" fill="#D9D9D9"/>
<path d="M122.63 170.873C123.535 169.53 125.637 171.152 125.006 172.016C124.375 172.88 121.75 171.451 122.63 170.873Z" fill="#D9D9D9"/>
<path d="M117.456 172.713C118.146 174.15 115.388 174.629 114.974 173.671C114.561 172.713 117.456 171.755 117.456 172.713Z" fill="#D9D9D9"/>
<path d="M148.643 180.388C148.713 178.833 151.447 179.405 151.359 180.425C151.271 181.445 148.18 181.257 148.643 180.388Z" fill="#D9D9D9"/>
<path d="M144.216 172.832C141.799 175.131 138.47 171.195 140.119 169.734C141.769 168.274 146.215 172.023 144.216 172.832Z" fill="#741F5E" stroke="#D9D9D9" stroke-width="2"/>
<path d="M153.554 160.984C156.738 159.555 158.289 164.251 156.158 165.123C154.028 165.996 151.355 161.141 153.554 160.984Z" fill="#741F5E" stroke="#D9D9D9" stroke-width="2"/>
<path d="M141.807 158.591C142.282 155.505 147.602 157.09 147.206 159.107C146.809 161.124 140.696 160.245 141.807 158.591Z" fill="#741F5E" stroke="#D9D9D9" stroke-width="2"/>
<path d="M153.721 169.938C155.1 172.811 149.585 173.769 148.758 171.853C147.93 169.938 153.721 168.022 153.721 169.938Z" fill="#741F5E" stroke="#D9D9D9" stroke-width="2"/>
<path d="M136.465 165.794C135.51 162.794 141.12 162.441 141.665 164.432C142.211 166.422 136.19 167.695 136.465 165.794Z" fill="#741F5E" stroke="#D9D9D9" stroke-width="2"/>
<path d="M150.014 185.647C150.646 184.19 153.032 185.482 152.578 186.426C152.123 187.37 149.259 186.344 150.014 185.647Z" fill="#D9D9D9"/>
<path d="M151.276 191.641C151.362 190.087 154.089 190.68 153.991 191.7C153.892 192.719 150.803 192.507 151.276 191.641Z" fill="#D9D9D9"/>
<path d="M158.827 143.968C159.517 145.405 156.759 145.884 156.345 144.926C155.932 143.968 158.827 143.01 158.827 143.968Z" fill="#D9D9D9"/>
<path d="M148.802 164.725C148.887 164.979 151.556 165.553 151.429 165.843C151.303 166.132 148.434 166.245 148.235 166.469C148.037 166.693 147.92 169.04 147.566 169.064C147.211 169.087 146.522 166.825 146.123 166.693C145.724 166.56 143.736 166.916 143.135 166.693C142.535 166.469 145.247 164.725 145.247 164.725C145.247 164.725 143.94 162.816 144.114 162.398C144.288 161.98 146.735 163.571 146.999 163.561C147.263 163.551 149.201 161.656 149.575 161.772C149.948 161.887 148.717 164.471 148.802 164.725Z" fill="#D9D9D9"/>
</g>
<defs>
<filter id="filter0_d_1828_95" x="191.734" y="38.3242" width="217.406" height="236.489" filterUnits="userSpaceOnUse" color-interpolation-filters="sRGB">
<feFlood flood-opacity="0" result="BackgroundImageFix"/>
<feColorMatrix in="SourceAlpha" type="matrix" values="0 0 0 0 0 0 0 0 0 0 0 0 0 0 0 0 0 0 127 0" result="hardAlpha"/>
<feOffset dy="4"/>
<feGaussianBlur stdDeviation="34.75"/>
<feComposite in2="hardAlpha" operator="out"/>
<feColorMatrix type="matrix" values="0 0 0 0 0.587646 0 0 0 0 0.622905 0 0 0 0 0.940234 0 0 0 1 0"/>
<feBlend mode="normal" in2="BackgroundImageFix" result="effect1_dropShadow_1828_95"/>
<feBlend mode="normal" in="SourceGraphic" in2="effect1_dropShadow_1828_95" result="shape"/>
</filter>
<filter id="filter1_d_1828_95" x="76.0781" y="50.668" width="198.484" height="232.133" filterUnits="userSpaceOnUse" color-interpolation-filters="sRGB">
<feFlood flood-opacity="0" result="BackgroundImageFix"/>
<feColorMatrix in="SourceAlpha" type="matrix" values="0 0 0 0 0 0 0 0 0 0 0 0 0 0 0 0 0 0 127 0" result="hardAlpha"/>
<feOffset dy="4"/>
<feGaussianBlur stdDeviation="34.75"/>
<feComposite in2="hardAlpha" operator="out"/>
<feColorMatrix type="matrix" values="0 0 0 0 0.587646 0 0 0 0 0.622905 0 0 0 0 0.940234 0 0 0 1 0"/>
<feBlend mode="normal" in2="BackgroundImageFix" result="effect1_dropShadow_1828_95"/>
<feBlend mode="normal" in="SourceGraphic" in2="effect1_dropShadow_1828_95" result="shape"/>
</filter>
<filter id="filter2_d_1828_95" x="14.8008" y="41.3398" width="190.824" height="233.938" filterUnits="userSpaceOnUse" color-interpolation-filters="sRGB">
<feFlood flood-opacity="0" result="BackgroundImageFix"/>
<feColorMatrix in="SourceAlpha" type="matrix" values="0 0 0 0 0 0 0 0 0 0 0 0 0 0 0 0 0 0 127 0" result="hardAlpha"/>
<feOffset dy="4"/>
<feGaussianBlur stdDeviation="34.75"/>
<feComposite in2="hardAlpha" operator="out"/>
<feColorMatrix type="matrix" values="0 0 0 0 0.587646 0 0 0 0 0.622905 0 0 0 0 0.940234 0 0 0 1 0"/>
<feBlend mode="normal" in2="BackgroundImageFix" result="effect1_dropShadow_1828_95"/>
<feBlend mode="normal" in="SourceGraphic" in2="effect1_dropShadow_1828_95" result="shape"/>
</filter>
<filter id="filter3_d_1828_95" x="159.711" y="51.7461" width="199.02" height="227.037" filterUnits="userSpaceOnUse" color-interpolation-filters="sRGB">
<feFlood flood-opacity="0" result="BackgroundImageFix"/>
<feColorMatrix in="SourceAlpha" type="matrix" values="0 0 0 0 0 0 0 0 0 0 0 0 0 0 0 0 0 0 127 0" result="hardAlpha"/>
<feOffset dy="4"/>
<feGaussianBlur stdDeviation="34.75"/>
<feComposite in2="hardAlpha" operator="out"/>
<feColorMatrix type="matrix" values="0 0 0 0 0.587646 0 0 0 0 0.622905 0 0 0 0 0.940234 0 0 0 1 0"/>
<feBlend mode="normal" in2="BackgroundImageFix" result="effect1_dropShadow_1828_95"/>
<feBlend mode="normal" in="SourceGraphic" in2="effect1_dropShadow_1828_95" result="shape"/>
</filter>
<filter id="filter4_d_1828_95" x="82.8812" y="49.31" width="274.573" height="266.537" filterUnits="userSpaceOnUse" color-interpolation-filters="sRGB">
<feFlood flood-opacity="0" result="BackgroundImageFix"/>
<feColorMatrix in="SourceAlpha" type="matrix" values="0 0 0 0 0 0 0 0 0 0 0 0 0 0 0 0 0 0 127 0" result="hardAlpha"/>
<feOffset dy="4"/>
<feGaussianBlur stdDeviation="44.95"/>
<feComposite in2="hardAlpha" operator="out"/>
<feColorMatrix type="matrix" values="0 0 0 0 0.407843 0 0 0 0 0.0941176 0 0 0 0 0.129412 0 0 0 1 0"/>
<feBlend mode="normal" in2="BackgroundImageFix" result="effect1_dropShadow_1828_95"/>
<feBlend mode="normal" in="SourceGraphic" in2="effect1_dropShadow_1828_95" result="shape"/>
</filter>
<filter id="filter5_d_1828_95" x="74.575" y="42.6365" width="289.444" height="283.396" filterUnits="userSpaceOnUse" color-interpolation-filters="sRGB">
<feFlood flood-opacity="0" result="BackgroundImageFix"/>
<feColorMatrix in="SourceAlpha" type="matrix" values="0 0 0 0 0 0 0 0 0 0 0 0 0 0 0 0 0 0 127 0" result="hardAlpha"/>
<feOffset dy="4"/>
<feGaussianBlur stdDeviation="51.4"/>
<feComposite in2="hardAlpha" operator="out"/>
<feColorMatrix type="matrix" values="0 0 0 0 0.847059 0 0 0 0 0.709804 0 0 0 0 0.458824 0 0 0 1 0"/>
<feBlend mode="normal" in2="BackgroundImageFix" result="effect1_dropShadow_1828_95"/>
<feBlend mode="normal" in="SourceGraphic" in2="effect1_dropShadow_1828_95" result="shape"/>
</filter>
<filter id="filter6_d_1828_95" x="152.198" y="38.6234" width="266.749" height="251.81" filterUnits="userSpaceOnUse" color-interpolation-filters="sRGB">
<feFlood flood-opacity="0" result="BackgroundImageFix"/>
<feColorMatrix in="SourceAlpha" type="matrix" values="0 0 0 0 0 0 0 0 0 0 0 0 0 0 0 0 0 0 127 0" result="hardAlpha"/>
<feOffset dy="4"/>
<feGaussianBlur stdDeviation="44.95"/>
<feComposite in2="hardAlpha" operator="out"/>
<feColorMatrix type="matrix" values="0 0 0 0 0.407843 0 0 0 0 0.0941176 0 0 0 0 0.129412 0 0 0 1 0"/>
<feBlend mode="normal" in2="BackgroundImageFix" result="effect1_dropShadow_1828_95"/>
<feBlend mode="normal" in="SourceGraphic" in2="effect1_dropShadow_1828_95" result="shape"/>
</filter>
<filter id="filter7_d_1828_95" x="143.52" y="30.8611" width="282.561" height="270.23" filterUnits="userSpaceOnUse" color-interpolation-filters="sRGB">
<feFlood flood-opacity="0" result="BackgroundImageFix"/>
<feColorMatrix in="SourceAlpha" type="matrix" values="0 0 0 0 0 0 0 0 0 0 0 0 0 0 0 0 0 0 127 0" result="hardAlpha"/>
<feOffset dy="4"/>
<feGaussianBlur stdDeviation="51.4"/>
<feComposite in2="hardAlpha" operator="out"/>
<feColorMatrix type="matrix" values="0 0 0 0 0.847059 0 0 0 0 0.709804 0 0 0 0 0.458824 0 0 0 1 0"/>
<feBlend mode="normal" in2="BackgroundImageFix" result="effect1_dropShadow_1828_95"/>
<feBlend mode="normal" in="SourceGraphic" in2="effect1_dropShadow_1828_95" result="shape"/>
</filter>
<filter id="filter8_d_1828_95" x="8.70547" y="44.3217" width="266.749" height="251.81" filterUnits="userSpaceOnUse" color-interpolation-filters="sRGB">
<feFlood flood-opacity="0" result="BackgroundImageFix"/>
<feColorMatrix in="SourceAlpha" type="matrix" values="0 0 0 0 0 0 0 0 0 0 0 0 0 0 0 0 0 0 127 0" result="hardAlpha"/>
<feOffset dy="4"/>
<feGaussianBlur stdDeviation="44.95"/>
<feComposite in2="hardAlpha" operator="out"/>
<feColorMatrix type="matrix" values="0 0 0 0 0.407843 0 0 0 0 0.0941176 0 0 0 0 0.129412 0 0 0 1 0"/>
<feBlend mode="normal" in2="BackgroundImageFix" result="effect1_dropShadow_1828_95"/>
<feBlend mode="normal" in="SourceGraphic" in2="effect1_dropShadow_1828_95" result="shape"/>
</filter>
<filter id="filter9_d_1828_95" x="1.57109" y="36.5594" width="282.561" height="270.23" filterUnits="userSpaceOnUse" color-interpolation-filters="sRGB">
<feFlood flood-opacity="0" result="BackgroundImageFix"/>
<feColorMatrix in="SourceAlpha" type="matrix" values="0 0 0 0 0 0 0 0 0 0 0 0 0 0 0 0 0 0 127 0" result="hardAlpha"/>
<feOffset dy="4"/>
<feGaussianBlur stdDeviation="51.4"/>
<feComposite in2="hardAlpha" operator="out"/>
<feColorMatrix type="matrix" values="0 0 0 0 0.847059 0 0 0 0 0.709804 0 0 0 0 0.458824 0 0 0 1 0"/>
<feBlend mode="normal" in2="BackgroundImageFix" result="effect1_dropShadow_1828_95"/>
<feBlend mode="normal" in="SourceGraphic" in2="effect1_dropShadow_1828_95" result="shape"/>
</filter>
<radialGradient id="paint0_radial_1828_95" cx="0" cy="0" r="1" gradientUnits="userSpaceOnUse" gradientTransform="translate(306.063 125.851) rotate(41.5117) scale(68.3661 97.9196)">
<stop offset="0.120225" stop-color="#D7B575"/>
<stop offset="0.370102" stop-color="#B32169"/>
<stop offset="0.660328" stop-color="#741F5E"/>
<stop offset="1" stop-color="#BC0079" stop-opacity="0"/>
</radialGradient>
<radialGradient id="paint1_radial_1828_95" cx="0" cy="0" r="1" gradientUnits="userSpaceOnUse" gradientTransform="translate(173.579 137.054) rotate(139.742) scale(55.82 86.934)">
<stop offset="0.120225" stop-color="#D7B575"/>
<stop offset="0.370102" stop-color="#B32169"/>
<stop offset="0.660328" stop-color="#741F5E"/>
<stop offset="1" stop-color="#BC0079" stop-opacity="0"/>
</radialGradient>
<radialGradient id="paint2_radial_1828_95" cx="0" cy="0" r="1" gradientUnits="userSpaceOnUse" gradientTransform="translate(109.396 131.115) rotate(133.593) scale(45.9307 59.0643)">
<stop offset="0.120225" stop-color="#D7B575"/>
<stop offset="0.370102" stop-color="#B32169"/>
<stop offset="0.660328" stop-color="#741F5E"/>
<stop offset="1" stop-color="#BC0079" stop-opacity="0"/>
</radialGradient>
<radialGradient id="paint3_radial_1828_95" cx="0" cy="0" r="1" gradientUnits="userSpaceOnUse" gradientTransform="translate(264.218 142.553) rotate(49.7288) scale(46.746 58.601)">
<stop offset="0.120225" stop-color="#D7B575"/>
<stop offset="0.370102" stop-color="#B32169"/>
<stop offset="0.660328" stop-color="#741F5E"/>
<stop offset="1" stop-color="#BC0079" stop-opacity="0"/>
</radialGradient>
<linearGradient id="paint4_linear_1828_95" x1="221.156" y1="135.896" x2="217.936" y2="224.754" gradientUnits="userSpaceOnUse">
<stop stop-color="#71D0CF"/>
<stop offset="0.305" stop-color="#5BA7A6"/>
<stop offset="0.78" stop-color="#75D7D6"/>
</linearGradient>
<linearGradient id="paint5_linear_1828_95" x1="219.452" y1="141.424" x2="219.333" y2="219.222" gradientUnits="userSpaceOnUse">
<stop offset="0.485" stop-color="#B32169"/>
<stop offset="1" stop-color="#3029BA"/>
</linearGradient>
<linearGradient id="paint6_linear_1828_95" x1="284.742" y1="124.388" x2="284.742" y2="198.471" gradientUnits="userSpaceOnUse">
<stop stop-color="#71D0CF"/>
<stop offset="0.305" stop-color="#5BA7A6"/>
<stop offset="0.78" stop-color="#75D7D6"/>
</linearGradient>
<linearGradient id="paint7_linear_1828_95" x1="283.382" y1="129.042" x2="285.434" y2="193.841" gradientUnits="userSpaceOnUse">
<stop offset="0.485" stop-color="#B32169"/>
<stop offset="1" stop-color="#3029BA"/>
</linearGradient>
<linearGradient id="paint8_linear_1828_95" x1="142.911" y1="130.087" x2="142.911" y2="204.169" gradientUnits="userSpaceOnUse">
<stop stop-color="#71D0CF"/>
<stop offset="0.305" stop-color="#5BA7A6"/>
<stop offset="0.78" stop-color="#75D7D6"/>
</linearGradient>
<linearGradient id="paint9_linear_1828_95" x1="144.271" y1="134.741" x2="142.218" y2="199.539" gradientUnits="userSpaceOnUse">
<stop offset="0.485" stop-color="#B32169"/>
<stop offset="1" stop-color="#3029BA"/>
</linearGradient>
<clipPath id="clip0_1828_95">
<rect width="431" height="321" fill="white"/>
</clipPath>
</defs>
</svg>
