<svg width="431" height="321" viewBox="0 0 431 321" fill="none" xmlns="http://www.w3.org/2000/svg">
<g clip-path="url(#clip0_1828_97)">
<g filter="url(#filter0_d_1828_97)">
<path d="M298.371 129.92C287.085 115.525 309.098 107.964 313.601 108.902C315.778 109.355 301.624 114.495 310.007 123.887C324.057 139.629 335.422 139.182 341.357 157.5C341.956 159.351 342.994 175.479 328.141 183.289C237.371 231.018 326.597 189.514 269.815 190.896C258.676 191.167 261.445 178.695 279.927 175.209C329.074 165.94 317.875 154.796 298.371 129.92Z" fill="url(#paint0_radial_1828_97)" shape-rendering="crispEdges"/>
</g>
<g filter="url(#filter1_d_1828_97)">
<path d="M183.177 142.282C192.837 130.263 176.17 120.818 172.609 121.178C170.888 121.352 181.587 127.682 174.492 135.409C162.599 148.36 153.783 146.674 148.048 162.913C147.468 164.553 145.676 179.32 156.757 188.193C224.472 242.419 157.579 194.111 201.676 201.754C210.327 203.254 208.933 191.434 194.765 186.144C157.089 172.078 166.484 163.051 183.177 142.282Z" fill="url(#paint1_radial_1828_97)" shape-rendering="crispEdges"/>
</g>
<g filter="url(#filter2_d_1828_97)">
<path d="M117.809 136.251C126.415 127.91 133.566 108.437 128.329 112.354C124.136 116.969 120.735 123.93 109.929 130.028C104.364 133.168 92.1918 138.416 86.7472 149.665C86.1972 150.802 84.6827 160.577 93.722 166.682C148.96 203.993 100.052 200.008 134.495 206.739C141.728 208.152 137.771 170.174 125.991 166.556C94.665 156.936 102.937 150.665 117.809 136.251Z" fill="url(#paint2_radial_1828_97)" shape-rendering="crispEdges"/>
</g>
<g filter="url(#filter3_d_1828_97)">
<path d="M259.383 146.758C251.099 137.719 245.524 118.479 250.685 122.895C254.664 127.814 257.555 134.814 268.413 142.071C274.005 145.808 286.405 152.468 291.023 163.771C291.489 164.913 292.081 174.273 281.829 178.683C219.185 205.634 271.621 208.94 234.284 210.282C226.444 210.563 234.613 175.613 247.52 173.924C281.843 169.433 273.698 162.377 259.383 146.758Z" fill="url(#paint3_radial_1828_97)" shape-rendering="crispEdges"/>
</g>
<g filter="url(#filter4_d_1828_97)">
<path d="M201.012 172.912C201.944 181.536 184.339 179.029 176.522 181.871C168.706 184.714 189.082 189.662 200.229 193.287C211.375 196.913 196.441 219.292 204.165 225.837C211.888 232.382 216.807 208.278 222.162 198.163C227.516 188.048 260.552 208.845 268.369 199.837C276.187 190.829 243.036 189.058 236.942 181.058C230.848 173.058 250.032 154.88 244.028 151.702C240.722 149.951 232.947 164.19 226.422 169.538C219.896 174.885 207.9 139.79 199.559 140.214C191.219 140.639 199.846 162.131 201.012 172.912Z" fill="url(#paint4_linear_1828_97)"/>
</g>
<g filter="url(#filter5_d_1828_97)">
<path d="M209.321 193.306C208.533 189.801 175.772 186.48 179.703 183.691C183.634 180.902 198.482 181.357 202.92 179.644C207.358 177.93 198.249 146.812 201.229 146.441C204.21 146.07 216.987 170.803 223.183 172.668C229.379 174.533 239.882 152.225 242.841 154.23C245.8 156.236 231.107 178.047 231.37 180.675C231.633 183.303 262.007 192.645 263.192 197.525C264.378 202.405 227.395 191.846 223.976 192.842C220.557 193.838 211.81 222.797 206.482 224.184C201.155 225.572 210.11 196.81 209.321 193.306Z" fill="url(#paint5_linear_1828_97)"/>
</g>
<path d="M190.235 183.554C189.414 185.25 192.411 185.934 192.908 184.802C193.405 183.669 190.279 182.406 190.235 183.554Z" fill="#D9D9D9"/>
<path d="M206.623 185.523C207.48 183.843 204.499 183.102 203.977 184.224C203.456 185.346 206.554 186.67 206.623 185.523Z" fill="#D9D9D9"/>
<path d="M198.701 185.081C199.558 183.402 196.577 182.66 196.056 183.782C195.534 184.905 198.632 186.229 198.701 185.081Z" fill="#D9D9D9"/>
<path d="M211.43 172.011C210.609 173.707 213.606 174.391 214.103 173.259C214.6 172.126 211.474 170.863 211.43 172.011Z" fill="#D9D9D9"/>
<path d="M207.661 165.172C206.84 166.867 209.837 167.551 210.334 166.419C210.831 165.286 207.705 164.023 207.661 165.172Z" fill="#D9D9D9"/>
<path d="M226.223 175.472C225.402 177.168 228.399 177.852 228.896 176.72C229.393 175.587 226.267 174.324 226.223 175.472Z" fill="#D9D9D9"/>
<path d="M230.258 170.469C229.438 172.165 232.434 172.849 232.931 171.717C233.428 170.584 230.303 169.321 230.258 170.469Z" fill="#D9D9D9"/>
<path d="M234.993 163.938C234.172 165.634 237.169 166.318 237.666 165.185C238.163 164.053 235.037 162.789 234.993 163.938Z" fill="#D9D9D9"/>
<path d="M233.173 189.95C235.023 190.579 235.466 187.679 234.236 187.307C233.005 186.936 231.967 190.009 233.173 189.95Z" fill="#D9D9D9"/>
<path d="M243.477 190.618C242.549 188.97 240.173 190.833 240.824 191.894C241.474 192.955 244.414 191.345 243.477 190.618Z" fill="#D9D9D9"/>
<path d="M249.059 193.03C248.238 194.726 251.235 195.409 251.732 194.277C252.229 193.145 249.103 191.881 249.059 193.03Z" fill="#D9D9D9"/>
<path d="M214.566 200.996C214.561 199.128 211.542 199.706 211.592 200.933C211.641 202.16 215.034 202.057 214.566 200.996Z" fill="#D9D9D9"/>
<path d="M219.759 192.111C222.298 194.964 226.124 190.375 224.385 188.558C222.647 186.741 217.608 191.061 219.759 192.111Z" fill="#741F5E" stroke="#D9D9D9" stroke-width="2"/>
<path d="M210.079 177.531C206.659 175.691 204.745 181.261 207.037 182.392C209.329 183.524 212.478 177.806 210.079 177.531Z" fill="#741F5E" stroke="#D9D9D9" stroke-width="2"/>
<path d="M223.054 175.128C222.675 171.409 216.779 173.099 217.12 175.533C217.46 177.968 224.193 177.157 223.054 175.128Z" fill="#741F5E" stroke="#D9D9D9" stroke-width="2"/>
<path d="M209.486 188.262C207.844 191.654 213.837 193.021 214.831 190.756C215.825 188.492 209.574 185.965 209.486 188.262Z" fill="#741F5E" stroke="#D9D9D9" stroke-width="2"/>
<path d="M228.566 183.978C229.75 180.417 223.625 179.772 222.936 182.137C222.247 184.502 228.779 186.268 228.566 183.978Z" fill="#741F5E" stroke="#D9D9D9" stroke-width="2"/>
<path d="M212.822 207.251C212.198 205.478 209.526 206.934 209.98 208.084C210.434 209.234 213.617 208.117 212.822 207.251Z" fill="#D9D9D9"/>
<path d="M211.164 214.391C211.142 212.523 208.128 213.126 208.189 214.353C208.25 215.579 211.642 215.447 211.164 214.391Z" fill="#D9D9D9"/>
<path d="M205.094 156.913C204.274 158.609 207.27 159.292 207.767 158.16C208.264 157.028 205.139 155.764 205.094 156.913Z" fill="#D9D9D9"/>
<path d="M215.112 182.205C215.007 182.506 212.059 183.089 212.184 183.441C212.309 183.794 215.445 184.043 215.652 184.319C215.859 184.595 215.878 187.416 216.265 187.458C216.652 187.5 217.511 184.814 217.953 184.671C218.396 184.529 220.556 185.034 221.224 184.79C221.892 184.545 219.003 182.346 219.003 182.346C219.003 182.346 220.522 180.108 220.351 179.6C220.179 179.092 217.428 180.903 217.139 180.881C216.85 180.858 214.816 178.509 214.402 178.633C213.988 178.757 215.216 181.904 215.112 182.205Z" fill="#D9D9D9"/>
<g filter="url(#filter6_d_1828_97)">
<path d="M267.662 156.714C268.816 163.867 252.667 162.31 245.636 164.912C238.605 167.515 257.367 171.02 267.662 173.702C277.958 176.385 265.118 195.469 272.393 200.685C279.669 205.902 283.311 185.683 287.841 177.1C292.371 168.516 323.236 184.836 330.052 177.1C336.868 169.364 306.565 168.889 300.725 162.412C294.885 155.935 311.748 140.221 306.16 137.756C303.082 136.398 296.489 148.488 290.724 153.138C284.959 157.787 272.785 128.928 265.192 129.533C257.598 130.138 266.221 147.773 267.662 156.714Z" fill="url(#paint6_linear_1828_97)"/>
</g>
<g filter="url(#filter7_d_1828_97)">
<path d="M275.958 173.443C275.116 170.549 245.114 168.772 248.602 166.332C252.091 163.891 265.651 163.822 269.64 162.261C273.628 160.701 264.228 135.066 266.934 134.667C269.64 134.268 282.163 154.476 287.88 155.842C293.598 157.208 302.397 138.316 305.167 139.897C307.937 141.478 295.298 160.081 295.63 162.261C295.961 164.442 323.997 171.304 325.249 175.331C326.502 179.358 292.395 171.683 289.311 172.615C286.227 173.547 279.262 197.923 274.451 199.239C269.64 200.555 276.801 176.338 275.958 173.443Z" fill="url(#paint7_linear_1828_97)"/>
</g>
<path d="M258.204 165.901C257.514 167.337 260.272 167.816 260.686 166.858C261.099 165.901 258.204 164.943 258.204 165.901Z" fill="#D9D9D9"/>
<path d="M273.224 167.045C273.947 165.621 271.201 165.093 270.765 166.043C270.328 166.993 273.201 168.002 273.224 167.045Z" fill="#D9D9D9"/>
<path d="M265.981 166.916C266.704 165.492 263.959 164.964 263.522 165.914C263.086 166.864 265.959 167.873 265.981 166.916Z" fill="#D9D9D9"/>
<path d="M277.137 155.65C276.448 157.086 279.206 157.565 279.619 156.607C280.033 155.65 277.137 154.692 277.137 155.65Z" fill="#D9D9D9"/>
<path d="M273.458 150.069C272.768 151.505 275.526 151.984 275.94 151.026C276.353 150.069 273.458 149.111 273.458 150.069Z" fill="#D9D9D9"/>
<path d="M290.755 158.085C290.065 159.522 292.823 160.001 293.237 159.043C293.65 158.085 290.755 157.127 290.755 158.085Z" fill="#D9D9D9"/>
<path d="M294.259 153.797C293.569 155.234 296.327 155.713 296.74 154.755C297.154 153.797 294.259 152.839 294.259 153.797Z" fill="#D9D9D9"/>
<path d="M298.348 148.216C297.659 149.653 300.417 150.132 300.83 149.174C301.244 148.216 298.348 147.258 298.348 148.216Z" fill="#D9D9D9"/>
<path d="M297.597 169.93C299.307 170.398 299.61 167.97 298.474 167.698C297.339 167.425 296.499 170.015 297.597 169.93Z" fill="#D9D9D9"/>
<path d="M307.022 170.175C306.118 168.831 304.016 170.454 304.646 171.318C305.277 172.182 307.902 170.752 307.022 170.175Z" fill="#D9D9D9"/>
<path d="M312.196 172.014C311.507 173.451 314.264 173.929 314.678 172.972C315.092 172.014 312.196 171.056 312.196 172.014Z" fill="#D9D9D9"/>
<path d="M281.009 179.69C280.939 178.135 278.205 178.707 278.293 179.727C278.382 180.747 281.472 180.559 281.009 179.69Z" fill="#D9D9D9"/>
<path d="M285.437 172.134C287.853 174.433 291.182 170.496 289.533 169.036C287.884 167.575 283.438 171.324 285.437 172.134Z" fill="#741F5E" stroke="#D9D9D9" stroke-width="2"/>
<path d="M276.099 160.286C272.914 158.857 271.364 163.552 273.494 164.425C275.625 165.298 278.297 160.443 276.099 160.286Z" fill="#741F5E" stroke="#D9D9D9" stroke-width="2"/>
<path d="M287.846 157.891C287.37 154.806 282.051 156.391 282.447 158.408C282.843 160.424 288.957 159.546 287.846 157.891Z" fill="#741F5E" stroke="#D9D9D9" stroke-width="2"/>
<path d="M275.931 169.24C274.552 172.113 280.067 173.071 280.895 171.155C281.722 169.24 275.931 167.324 275.931 169.24Z" fill="#741F5E" stroke="#D9D9D9" stroke-width="2"/>
<path d="M293.187 165.096C294.142 162.096 288.533 161.743 287.987 163.733C287.441 165.724 293.462 166.997 293.187 165.096Z" fill="#741F5E" stroke="#D9D9D9" stroke-width="2"/>
<path d="M279.638 184.947C279.006 183.491 276.62 184.783 277.075 185.727C277.529 186.671 280.394 185.645 279.638 184.947Z" fill="#D9D9D9"/>
<path d="M278.377 190.943C278.291 189.388 275.563 189.982 275.662 191.001C275.76 192.021 278.849 191.809 278.377 190.943Z" fill="#D9D9D9"/>
<path d="M270.825 143.27C270.136 144.707 272.893 145.185 273.307 144.228C273.721 143.27 270.825 142.312 270.825 143.27Z" fill="#D9D9D9"/>
<path d="M280.85 164.026C280.766 164.28 278.097 164.854 278.223 165.144C278.349 165.434 281.219 165.547 281.417 165.771C281.616 165.994 281.732 168.342 282.087 168.365C282.441 168.389 283.13 166.126 283.529 165.994C283.928 165.862 285.916 166.218 286.517 165.994C287.118 165.771 284.405 164.026 284.405 164.026C284.405 164.026 285.712 162.117 285.538 161.699C285.364 161.281 282.918 162.873 282.653 162.863C282.389 162.852 280.451 160.958 280.078 161.073C279.705 161.189 280.935 163.772 280.85 164.026Z" fill="#D9D9D9"/>
<g filter="url(#filter8_d_1828_97)">
<path d="M163.99 162.412C162.837 169.565 178.985 168.008 186.016 170.611C193.047 173.213 174.285 176.718 163.99 179.4C153.695 182.083 166.534 201.167 159.259 206.384C151.984 211.6 148.341 191.382 143.811 182.798C139.281 174.215 108.416 190.534 101.6 182.798C94.784 175.062 125.088 174.587 130.927 168.11C136.767 161.633 119.904 145.919 125.492 143.454C128.57 142.096 135.163 154.186 140.928 158.836C146.694 163.485 158.867 134.626 166.461 135.231C174.054 135.836 165.431 153.471 163.99 162.412Z" fill="url(#paint8_linear_1828_97)"/>
</g>
<g filter="url(#filter9_d_1828_97)">
<path d="M155.694 179.142C156.536 176.247 186.538 174.471 183.05 172.03C179.561 169.589 166.001 169.52 162.013 167.96C158.024 166.399 167.424 140.764 164.718 140.365C162.013 139.966 149.49 160.174 143.772 161.54C138.055 162.906 129.255 144.015 126.485 145.595C123.716 147.176 136.355 165.779 136.023 167.96C135.691 170.14 107.655 177.002 106.403 181.029C105.15 185.057 139.257 177.381 142.341 178.313C145.425 179.246 152.39 203.622 157.202 204.937C162.013 206.253 154.852 182.036 155.694 179.142Z" fill="url(#paint9_linear_1828_97)"/>
</g>
<path d="M173.449 171.599C174.138 173.036 171.38 173.514 170.967 172.557C170.553 171.599 173.449 170.641 173.449 171.599Z" fill="#D9D9D9"/>
<path d="M158.429 172.743C157.706 171.319 160.452 170.791 160.888 171.741C161.324 172.692 158.451 173.701 158.429 172.743Z" fill="#D9D9D9"/>
<path d="M165.671 172.614C164.948 171.19 167.694 170.662 168.13 171.612C168.566 172.563 165.694 173.572 165.671 172.614Z" fill="#D9D9D9"/>
<path d="M154.515 161.349C155.204 162.786 152.447 163.264 152.033 162.307C151.619 161.349 154.515 160.391 154.515 161.349Z" fill="#D9D9D9"/>
<path d="M158.195 155.767C158.884 157.204 156.126 157.682 155.713 156.725C155.299 155.767 158.195 154.809 158.195 155.767Z" fill="#D9D9D9"/>
<path d="M140.898 163.783C141.587 165.22 138.829 165.699 138.416 164.741C138.002 163.783 140.898 162.826 140.898 163.783Z" fill="#D9D9D9"/>
<path d="M137.394 159.495C138.083 160.932 135.326 161.411 134.912 160.453C134.498 159.495 137.394 158.538 137.394 159.495Z" fill="#D9D9D9"/>
<path d="M133.304 153.914C133.993 155.351 131.236 155.83 130.822 154.872C130.408 153.914 133.304 152.957 133.304 153.914Z" fill="#D9D9D9"/>
<path d="M134.055 175.628C132.346 176.096 132.043 173.668 133.178 173.396C134.313 173.123 135.153 175.714 134.055 175.628Z" fill="#D9D9D9"/>
<path d="M124.63 175.873C125.535 174.53 127.637 176.152 127.006 177.016C126.375 177.88 123.75 176.451 124.63 175.873Z" fill="#D9D9D9"/>
<path d="M119.456 177.713C120.146 179.15 117.388 179.629 116.974 178.671C116.561 177.713 119.456 176.755 119.456 177.713Z" fill="#D9D9D9"/>
<path d="M150.643 185.388C150.713 183.833 153.447 184.405 153.359 185.425C153.271 186.445 150.18 186.257 150.643 185.388Z" fill="#D9D9D9"/>
<path d="M146.216 177.832C143.799 180.131 140.47 176.195 142.119 174.734C143.769 173.274 148.215 177.023 146.216 177.832Z" fill="#741F5E" stroke="#D9D9D9" stroke-width="2"/>
<path d="M155.554 165.984C158.738 164.555 160.289 169.251 158.158 170.123C156.028 170.996 153.355 166.141 155.554 165.984Z" fill="#741F5E" stroke="#D9D9D9" stroke-width="2"/>
<path d="M143.807 163.591C144.282 160.505 149.602 162.09 149.206 164.107C148.809 166.124 142.696 165.245 143.807 163.591Z" fill="#741F5E" stroke="#D9D9D9" stroke-width="2"/>
<path d="M155.721 174.938C157.1 177.811 151.585 178.769 150.758 176.853C149.93 174.938 155.721 173.022 155.721 174.938Z" fill="#741F5E" stroke="#D9D9D9" stroke-width="2"/>
<path d="M138.465 170.794C137.51 167.794 143.12 167.441 143.665 169.432C144.211 171.422 138.19 172.695 138.465 170.794Z" fill="#741F5E" stroke="#D9D9D9" stroke-width="2"/>
<path d="M152.014 190.647C152.646 189.19 155.032 190.482 154.578 191.426C154.123 192.37 151.259 191.344 152.014 190.647Z" fill="#D9D9D9"/>
<path d="M153.276 196.641C153.362 195.087 156.089 195.68 155.991 196.7C155.892 197.719 152.803 197.507 153.276 196.641Z" fill="#D9D9D9"/>
<path d="M160.827 148.968C161.517 150.405 158.759 150.884 158.345 149.926C157.932 148.968 160.827 148.01 160.827 148.968Z" fill="#D9D9D9"/>
<path d="M150.802 169.725C150.887 169.979 153.556 170.553 153.429 170.843C153.303 171.132 150.434 171.245 150.235 171.469C150.037 171.693 149.92 174.04 149.566 174.064C149.211 174.087 148.522 171.825 148.123 171.693C147.724 171.56 145.736 171.916 145.135 171.693C144.535 171.469 147.247 169.725 147.247 169.725C147.247 169.725 145.94 167.816 146.114 167.398C146.288 166.98 148.735 168.571 148.999 168.561C149.263 168.551 151.201 166.656 151.575 166.772C151.948 166.887 150.717 169.471 150.802 169.725Z" fill="#D9D9D9"/>
</g>
<defs>
<filter id="filter0_d_1828_97" x="193.734" y="43.3242" width="217.406" height="236.489" filterUnits="userSpaceOnUse" color-interpolation-filters="sRGB">
<feFlood flood-opacity="0" result="BackgroundImageFix"/>
<feColorMatrix in="SourceAlpha" type="matrix" values="0 0 0 0 0 0 0 0 0 0 0 0 0 0 0 0 0 0 127 0" result="hardAlpha"/>
<feOffset dy="4"/>
<feGaussianBlur stdDeviation="34.75"/>
<feComposite in2="hardAlpha" operator="out"/>
<feColorMatrix type="matrix" values="0 0 0 0 0.587646 0 0 0 0 0.622905 0 0 0 0 0.940234 0 0 0 1 0"/>
<feBlend mode="normal" in2="BackgroundImageFix" result="effect1_dropShadow_1828_97"/>
<feBlend mode="normal" in="SourceGraphic" in2="effect1_dropShadow_1828_97" result="shape"/>
</filter>
<filter id="filter1_d_1828_97" x="78.0781" y="55.668" width="198.484" height="232.133" filterUnits="userSpaceOnUse" color-interpolation-filters="sRGB">
<feFlood flood-opacity="0" result="BackgroundImageFix"/>
<feColorMatrix in="SourceAlpha" type="matrix" values="0 0 0 0 0 0 0 0 0 0 0 0 0 0 0 0 0 0 127 0" result="hardAlpha"/>
<feOffset dy="4"/>
<feGaussianBlur stdDeviation="34.75"/>
<feComposite in2="hardAlpha" operator="out"/>
<feColorMatrix type="matrix" values="0 0 0 0 0.587646 0 0 0 0 0.622905 0 0 0 0 0.940234 0 0 0 1 0"/>
<feBlend mode="normal" in2="BackgroundImageFix" result="effect1_dropShadow_1828_97"/>
<feBlend mode="normal" in="SourceGraphic" in2="effect1_dropShadow_1828_97" result="shape"/>
</filter>
<filter id="filter2_d_1828_97" x="16.8008" y="46.3398" width="190.824" height="233.938" filterUnits="userSpaceOnUse" color-interpolation-filters="sRGB">
<feFlood flood-opacity="0" result="BackgroundImageFix"/>
<feColorMatrix in="SourceAlpha" type="matrix" values="0 0 0 0 0 0 0 0 0 0 0 0 0 0 0 0 0 0 127 0" result="hardAlpha"/>
<feOffset dy="4"/>
<feGaussianBlur stdDeviation="34.75"/>
<feComposite in2="hardAlpha" operator="out"/>
<feColorMatrix type="matrix" values="0 0 0 0 0.587646 0 0 0 0 0.622905 0 0 0 0 0.940234 0 0 0 1 0"/>
<feBlend mode="normal" in2="BackgroundImageFix" result="effect1_dropShadow_1828_97"/>
<feBlend mode="normal" in="SourceGraphic" in2="effect1_dropShadow_1828_97" result="shape"/>
</filter>
<filter id="filter3_d_1828_97" x="161.711" y="56.7461" width="199.02" height="227.037" filterUnits="userSpaceOnUse" color-interpolation-filters="sRGB">
<feFlood flood-opacity="0" result="BackgroundImageFix"/>
<feColorMatrix in="SourceAlpha" type="matrix" values="0 0 0 0 0 0 0 0 0 0 0 0 0 0 0 0 0 0 127 0" result="hardAlpha"/>
<feOffset dy="4"/>
<feGaussianBlur stdDeviation="34.75"/>
<feComposite in2="hardAlpha" operator="out"/>
<feColorMatrix type="matrix" values="0 0 0 0 0.587646 0 0 0 0 0.622905 0 0 0 0 0.940234 0 0 0 1 0"/>
<feBlend mode="normal" in2="BackgroundImageFix" result="effect1_dropShadow_1828_97"/>
<feBlend mode="normal" in="SourceGraphic" in2="effect1_dropShadow_1828_97" result="shape"/>
</filter>
<filter id="filter4_d_1828_97" x="84.8812" y="54.31" width="274.573" height="266.537" filterUnits="userSpaceOnUse" color-interpolation-filters="sRGB">
<feFlood flood-opacity="0" result="BackgroundImageFix"/>
<feColorMatrix in="SourceAlpha" type="matrix" values="0 0 0 0 0 0 0 0 0 0 0 0 0 0 0 0 0 0 127 0" result="hardAlpha"/>
<feOffset dy="4"/>
<feGaussianBlur stdDeviation="44.95"/>
<feComposite in2="hardAlpha" operator="out"/>
<feColorMatrix type="matrix" values="0 0 0 0 0.407843 0 0 0 0 0.0941176 0 0 0 0 0.129412 0 0 0 1 0"/>
<feBlend mode="normal" in2="BackgroundImageFix" result="effect1_dropShadow_1828_97"/>
<feBlend mode="normal" in="SourceGraphic" in2="effect1_dropShadow_1828_97" result="shape"/>
</filter>
<filter id="filter5_d_1828_97" x="76.575" y="47.6365" width="289.444" height="283.396" filterUnits="userSpaceOnUse" color-interpolation-filters="sRGB">
<feFlood flood-opacity="0" result="BackgroundImageFix"/>
<feColorMatrix in="SourceAlpha" type="matrix" values="0 0 0 0 0 0 0 0 0 0 0 0 0 0 0 0 0 0 127 0" result="hardAlpha"/>
<feOffset dy="4"/>
<feGaussianBlur stdDeviation="51.4"/>
<feComposite in2="hardAlpha" operator="out"/>
<feColorMatrix type="matrix" values="0 0 0 0 0.847059 0 0 0 0 0.709804 0 0 0 0 0.458824 0 0 0 1 0"/>
<feBlend mode="normal" in2="BackgroundImageFix" result="effect1_dropShadow_1828_97"/>
<feBlend mode="normal" in="SourceGraphic" in2="effect1_dropShadow_1828_97" result="shape"/>
</filter>
<filter id="filter6_d_1828_97" x="154.198" y="43.6234" width="266.749" height="251.81" filterUnits="userSpaceOnUse" color-interpolation-filters="sRGB">
<feFlood flood-opacity="0" result="BackgroundImageFix"/>
<feColorMatrix in="SourceAlpha" type="matrix" values="0 0 0 0 0 0 0 0 0 0 0 0 0 0 0 0 0 0 127 0" result="hardAlpha"/>
<feOffset dy="4"/>
<feGaussianBlur stdDeviation="44.95"/>
<feComposite in2="hardAlpha" operator="out"/>
<feColorMatrix type="matrix" values="0 0 0 0 0.407843 0 0 0 0 0.0941176 0 0 0 0 0.129412 0 0 0 1 0"/>
<feBlend mode="normal" in2="BackgroundImageFix" result="effect1_dropShadow_1828_97"/>
<feBlend mode="normal" in="SourceGraphic" in2="effect1_dropShadow_1828_97" result="shape"/>
</filter>
<filter id="filter7_d_1828_97" x="145.52" y="35.8611" width="282.561" height="270.23" filterUnits="userSpaceOnUse" color-interpolation-filters="sRGB">
<feFlood flood-opacity="0" result="BackgroundImageFix"/>
<feColorMatrix in="SourceAlpha" type="matrix" values="0 0 0 0 0 0 0 0 0 0 0 0 0 0 0 0 0 0 127 0" result="hardAlpha"/>
<feOffset dy="4"/>
<feGaussianBlur stdDeviation="51.4"/>
<feComposite in2="hardAlpha" operator="out"/>
<feColorMatrix type="matrix" values="0 0 0 0 0.847059 0 0 0 0 0.709804 0 0 0 0 0.458824 0 0 0 1 0"/>
<feBlend mode="normal" in2="BackgroundImageFix" result="effect1_dropShadow_1828_97"/>
<feBlend mode="normal" in="SourceGraphic" in2="effect1_dropShadow_1828_97" result="shape"/>
</filter>
<filter id="filter8_d_1828_97" x="10.7055" y="49.3217" width="266.749" height="251.81" filterUnits="userSpaceOnUse" color-interpolation-filters="sRGB">
<feFlood flood-opacity="0" result="BackgroundImageFix"/>
<feColorMatrix in="SourceAlpha" type="matrix" values="0 0 0 0 0 0 0 0 0 0 0 0 0 0 0 0 0 0 127 0" result="hardAlpha"/>
<feOffset dy="4"/>
<feGaussianBlur stdDeviation="44.95"/>
<feComposite in2="hardAlpha" operator="out"/>
<feColorMatrix type="matrix" values="0 0 0 0 0.407843 0 0 0 0 0.0941176 0 0 0 0 0.129412 0 0 0 1 0"/>
<feBlend mode="normal" in2="BackgroundImageFix" result="effect1_dropShadow_1828_97"/>
<feBlend mode="normal" in="SourceGraphic" in2="effect1_dropShadow_1828_97" result="shape"/>
</filter>
<filter id="filter9_d_1828_97" x="3.57109" y="41.5594" width="282.561" height="270.23" filterUnits="userSpaceOnUse" color-interpolation-filters="sRGB">
<feFlood flood-opacity="0" result="BackgroundImageFix"/>
<feColorMatrix in="SourceAlpha" type="matrix" values="0 0 0 0 0 0 0 0 0 0 0 0 0 0 0 0 0 0 127 0" result="hardAlpha"/>
<feOffset dy="4"/>
<feGaussianBlur stdDeviation="51.4"/>
<feComposite in2="hardAlpha" operator="out"/>
<feColorMatrix type="matrix" values="0 0 0 0 0.847059 0 0 0 0 0.709804 0 0 0 0 0.458824 0 0 0 1 0"/>
<feBlend mode="normal" in2="BackgroundImageFix" result="effect1_dropShadow_1828_97"/>
<feBlend mode="normal" in="SourceGraphic" in2="effect1_dropShadow_1828_97" result="shape"/>
</filter>
<radialGradient id="paint0_radial_1828_97" cx="0" cy="0" r="1" gradientUnits="userSpaceOnUse" gradientTransform="translate(308.063 130.851) rotate(41.5117) scale(68.3661 97.9196)">
<stop offset="0.120225" stop-color="#D7B575"/>
<stop offset="0.370102" stop-color="#B32169"/>
<stop offset="0.660328" stop-color="#741F5E"/>
<stop offset="1" stop-color="#BC0079" stop-opacity="0"/>
</radialGradient>
<radialGradient id="paint1_radial_1828_97" cx="0" cy="0" r="1" gradientUnits="userSpaceOnUse" gradientTransform="translate(175.579 142.054) rotate(139.742) scale(55.82 86.934)">
<stop offset="0.120225" stop-color="#D7B575"/>
<stop offset="0.370102" stop-color="#B32169"/>
<stop offset="0.660328" stop-color="#741F5E"/>
<stop offset="1" stop-color="#BC0079" stop-opacity="0"/>
</radialGradient>
<radialGradient id="paint2_radial_1828_97" cx="0" cy="0" r="1" gradientUnits="userSpaceOnUse" gradientTransform="translate(111.396 136.115) rotate(133.593) scale(45.9307 59.0643)">
<stop offset="0.120225" stop-color="#D7B575"/>
<stop offset="0.370102" stop-color="#B32169"/>
<stop offset="0.660328" stop-color="#741F5E"/>
<stop offset="1" stop-color="#BC0079" stop-opacity="0"/>
</radialGradient>
<radialGradient id="paint3_radial_1828_97" cx="0" cy="0" r="1" gradientUnits="userSpaceOnUse" gradientTransform="translate(266.218 147.553) rotate(49.7288) scale(46.746 58.601)">
<stop offset="0.120225" stop-color="#D7B575"/>
<stop offset="0.370102" stop-color="#B32169"/>
<stop offset="0.660328" stop-color="#741F5E"/>
<stop offset="1" stop-color="#BC0079" stop-opacity="0"/>
</radialGradient>
<linearGradient id="paint4_linear_1828_97" x1="223.156" y1="140.896" x2="219.936" y2="229.754" gradientUnits="userSpaceOnUse">
<stop stop-color="#71D0CF"/>
<stop offset="0.305" stop-color="#5BA7A6"/>
<stop offset="0.78" stop-color="#75D7D6"/>
</linearGradient>
<linearGradient id="paint5_linear_1828_97" x1="221.452" y1="146.424" x2="221.333" y2="224.222" gradientUnits="userSpaceOnUse">
<stop offset="0.485" stop-color="#B32169"/>
<stop offset="1" stop-color="#3029BA"/>
</linearGradient>
<linearGradient id="paint6_linear_1828_97" x1="286.742" y1="129.388" x2="286.742" y2="203.471" gradientUnits="userSpaceOnUse">
<stop stop-color="#71D0CF"/>
<stop offset="0.305" stop-color="#5BA7A6"/>
<stop offset="0.78" stop-color="#75D7D6"/>
</linearGradient>
<linearGradient id="paint7_linear_1828_97" x1="285.382" y1="134.042" x2="287.434" y2="198.841" gradientUnits="userSpaceOnUse">
<stop offset="0.485" stop-color="#B32169"/>
<stop offset="1" stop-color="#3029BA"/>
</linearGradient>
<linearGradient id="paint8_linear_1828_97" x1="144.911" y1="135.087" x2="144.911" y2="209.169" gradientUnits="userSpaceOnUse">
<stop stop-color="#71D0CF"/>
<stop offset="0.305" stop-color="#5BA7A6"/>
<stop offset="0.78" stop-color="#75D7D6"/>
</linearGradient>
<linearGradient id="paint9_linear_1828_97" x1="146.271" y1="139.741" x2="144.218" y2="204.539" gradientUnits="userSpaceOnUse">
<stop offset="0.485" stop-color="#B32169"/>
<stop offset="1" stop-color="#3029BA"/>
</linearGradient>
<clipPath id="clip0_1828_97">
<rect width="431" height="321" fill="white"/>
</clipPath>
</defs>
</svg>
