<svg width="1170" height="129" viewBox="0 0 1170 129" fill="none" xmlns="http://www.w3.org/2000/svg">
<g clip-path="url(#clip0_3418_95)">
<g filter="url(#filter0_d_3418_95)">
<path d="M466.577 64.84C471.317 66.46 474.137 72.16 472.277 76.84C468.557 86.2 452.717 85.66 444.437 85.54C443.297 85.54 442.097 85.6 441.077 85.12C440.237 84.7 439.637 83.98 439.577 83.02C439.337 79.06 439.757 74.92 439.697 70.96C439.577 65.92 439.337 60.82 439.097 55.78C438.917 52.48 438.977 49.06 438.497 45.82C438.377 44.86 437.957 43.12 438.377 42.22C438.557 41.86 439.037 41.74 439.397 41.62C445.757 39.58 460.157 39.22 466.097 42.52C468.737 43.96 470.717 46.6 471.677 49.42C472.577 52 472.757 54.82 471.917 57.46C471.017 60.4 469.037 63.04 466.577 64.84ZM463.577 46.42C464.357 47.26 465.677 46.9 465.737 45.7C465.797 44.68 464.177 43.78 463.397 43.36C460.097 41.56 456.377 41.74 452.777 41.86C449.297 41.98 450.617 44.86 452.297 44.32C454.937 43.42 461.597 44.32 463.577 46.42ZM466.277 49.42C467.777 51.64 469.937 47.32 467.357 47.38C466.397 47.44 465.737 48.58 466.277 49.42ZM452.237 52.42C452.417 54.52 452.597 56.62 452.657 58.72C453.917 58.6 455.237 58.6 456.437 58.24C461.537 56.74 460.337 50.98 452.237 52.42ZM452.957 68.44C453.137 70.42 453.137 72.4 453.137 74.38C454.937 74.2 456.677 74.32 458.417 73.78C464.357 72.04 460.337 67.54 452.957 68.44ZM508.769 81.28C507.329 83.98 504.449 85.72 501.389 85.72C495.569 85.72 481.829 83.92 478.949 78.16C477.929 76.06 477.929 73.66 477.989 71.38C478.049 68.38 480.149 44.5 481.229 43.54C482.309 42.52 486.389 42.7 487.889 42.76C488.549 42.76 491.669 42.88 492.089 43.06C492.629 43.24 492.869 43.66 492.989 44.2C493.049 44.38 490.769 56.2 490.529 57.7C489.989 61.54 488.249 70.84 494.309 70.9C495.869 70.9 497.489 69.52 498.029 68.14C499.889 63.22 495.449 45.04 497.249 42.82C498.209 41.62 506.729 41.74 508.109 42.28C508.589 42.46 508.949 42.64 509.009 43.18C509.129 43.96 509.189 44.8 509.309 45.58C510.149 51.52 511.469 65.2 511.049 70.84C510.809 74.32 510.449 78.16 508.769 81.28ZM478.109 82.6C479.069 82.42 479.489 83.56 478.829 84.16C477.389 85.54 476.489 82 478.109 82.6ZM494.729 89.56C492.089 90.76 483.209 88.36 480.989 86.5C480.389 86.02 481.049 84.7 482.069 85.12C483.989 85.9 485.789 86.5 487.769 86.92C489.629 87.34 493.529 87.28 494.849 87.94C495.569 88.3 495.389 89.26 494.729 89.56ZM527.998 57.1C529.198 63.1 531.898 78.82 531.238 84.4C531.118 85.48 530.218 85.84 529.258 85.9C527.578 86.02 517.498 86.32 516.778 85.3C516.118 84.34 516.898 81.46 517.078 80.32C518.338 72.04 518.278 57.82 517.498 49.36C517.438 48.46 516.958 44.32 517.078 43.78C517.378 42.4 527.818 40.36 529.138 40.9C530.218 41.32 532.438 46.9 532.918 48.16C535.378 54.4 537.238 60.88 539.398 67.24C539.878 59.8 539.278 51.64 538.078 44.32C537.958 43.48 537.538 42.34 538.558 41.92C539.698 41.44 550.318 40.78 551.698 41.14C551.878 41.38 551.818 41.68 551.758 41.98C551.278 45.16 551.338 48.64 551.278 51.88C551.098 60.16 550.978 68.44 550.918 76.72C550.918 78.52 548.278 78.04 547.078 78.04C543.838 78.04 541.018 78.58 537.898 79.24C537.598 79.3 537.178 79.3 536.938 79.12C536.398 78.7 536.278 77.92 536.098 77.32C534.178 70.6 531.718 63.04 527.998 57.1ZM537.658 84.52C537.238 84.58 536.578 84.64 536.158 84.52C535.198 84.28 535.198 83.08 536.098 82.78C538.798 81.82 541.618 81.7 544.438 81.46C548.218 81.16 547.318 83.44 545.998 83.74C543.358 84.34 540.358 84.16 537.658 84.52ZM550.678 81.76C552.298 82.18 551.098 84.58 549.418 83.56C548.158 82.78 549.538 81.46 550.678 81.76ZM569.258 85.24C568.538 85.84 558.338 84.28 557.858 83.74C557.858 81.34 558.218 78.88 558.338 76.48C558.938 67 559.118 54.1 557.678 44.92C557.558 44.32 557.318 43.36 558.038 43C559.298 42.34 568.958 40.72 569.618 41.62C569.858 41.98 569.858 43.84 569.918 44.38C575.438 40.48 583.358 40.48 588.998 44.14C601.658 52.36 599.138 83.92 580.718 83.14C577.238 82.96 573.698 81.7 570.878 79.72L569.258 85.24ZM574.178 67.18C576.218 78.64 588.038 72.88 583.298 58.24C582.398 55.42 579.578 51.94 576.218 53.68C572.918 55.42 573.638 64.12 574.178 67.18ZM589.778 83.62C590.798 83.92 590.678 85.18 589.598 85.18C588.218 85.18 588.698 83.32 589.778 83.62ZM586.058 86.38C583.058 87.94 579.938 87.64 576.758 87.04C575.738 86.86 574.598 86.44 573.698 85.9C572.858 85.42 573.218 84.52 574.178 84.76C577.178 85.48 580.118 86.62 583.238 86.02C584.018 85.9 584.798 85.54 585.578 85.36C586.418 85.18 586.898 85.9 586.058 86.38ZM628.86 68.98C629.7 69.4 629.22 71.32 629.16 72.04C629.04 74.14 629.52 81.04 629.28 82.24C629.1 83.02 628.14 83.08 627.48 83.08C624.48 83.08 602.7 83.92 602.28 83.32C602.04 83.2 601.8 83.02 601.74 82.78L602.4 72.88C602.7 66.88 603.12 48.82 601.68 43.36C601.38 42.28 602.94 42.22 603.72 42.04C607.14 41.32 611.28 40.78 614.76 40.84C615.3 40.84 615.6 41.02 615.9 41.5C616.68 42.76 616.5 56.14 616.44 58.54C616.38 62.26 616.38 66.04 616.08 69.76C619.74 69.16 623.64 68.44 627.3 68.14C627.96 68.08 628.8 68.14 628.86 68.98ZM608.88 88.12C608.4 88.12 607.02 88.12 606.66 87.94C605.82 87.46 606.06 86.56 606.9 86.26C609.06 85.6 619.08 85.96 622.02 85.78C624.72 85.6 624.42 87.7 622.92 87.94C620.4 88.3 611.88 88.12 608.88 88.12ZM629.1 86.02C630.54 86.2 630.24 88.24 628.98 88.12L627.42 87.94C626.1 87.76 626.1 85.66 629.1 86.02ZM647.961 41.2C648.201 41.62 647.901 42.16 647.421 42.22C647.001 42.28 646.641 41.98 646.221 41.92C643.941 41.56 641.481 42.34 639.321 42.04C638.901 41.98 638.241 41.74 638.241 41.26C638.241 39.1 647.061 39.46 647.961 41.2ZM636.801 42.4C635.481 44.08 633.741 40.06 636.081 40.3C637.041 40.42 637.341 41.68 636.801 42.4ZM639.561 85.54C638.601 85.54 635.901 85.66 635.181 85C634.761 84.58 634.701 83.92 634.641 83.38C634.401 80.92 633.081 47.14 633.141 46.84C633.561 45.16 642.321 44.92 644.001 44.92C644.661 44.92 646.461 44.86 647.001 45.16C648.021 45.7 647.841 47.98 647.841 48.94L647.901 84.16C647.901 84.76 647.661 85.06 647.121 85.24C646.341 85.48 640.821 85.54 639.561 85.54ZM665.4 57.1C666.6 63.1 669.3 78.82 668.64 84.4C668.52 85.48 667.62 85.84 666.66 85.9C664.98 86.02 654.9 86.32 654.18 85.3C653.52 84.34 654.3 81.46 654.48 80.32C655.74 72.04 655.68 57.82 654.9 49.36C654.84 48.46 654.36 44.32 654.48 43.78C654.78 42.4 665.22 40.36 666.54 40.9C667.62 41.32 669.84 46.9 670.32 48.16C672.78 54.4 674.64 60.88 676.8 67.24C677.28 59.8 676.68 51.64 675.48 44.32C675.36 43.48 674.94 42.34 675.96 41.92C677.1 41.44 687.72 40.78 689.1 41.14C689.28 41.38 689.22 41.68 689.16 41.98C688.68 45.16 688.74 48.64 688.68 51.88C688.5 60.16 688.38 68.44 688.32 76.72C688.32 78.52 685.68 78.04 684.48 78.04C681.24 78.04 678.42 78.58 675.3 79.24C675 79.3 674.58 79.3 674.34 79.12C673.8 78.7 673.68 77.92 673.5 77.32C671.58 70.6 669.12 63.04 665.4 57.1ZM675.06 84.52C674.64 84.58 673.98 84.64 673.56 84.52C672.6 84.28 672.6 83.08 673.5 82.78C676.2 81.82 679.02 81.7 681.84 81.46C685.62 81.16 684.72 83.44 683.4 83.74C680.76 84.34 677.76 84.16 675.06 84.52ZM688.08 81.76C689.7 82.18 688.5 84.58 686.82 83.56C685.56 82.78 686.94 81.46 688.08 81.76ZM719.5 69.76C716.62 70.18 713.8 72.4 713.38 68.2C713.32 67.36 713.14 64.48 713.26 63.82C713.74 61.66 729.52 61.96 731.26 63.52C731.98 64.18 732.1 65.2 732.16 66.16C733.54 86.44 705.82 93.22 696.58 75.52C694.9 72.34 694 68.68 693.88 65.08C693.28 49.48 703.72 40.18 718.84 40.48C721.66 40.54 728.86 41.32 730.84 43.3C730.84 46.96 730.6 50.62 730.78 54.28C730.84 55.6 731.14 57.04 731.02 58.3C730.96 58.6 730.9 58.96 730.66 59.14C729.28 59.38 719.2 58.78 718.9 58.12C718.66 57.52 718.9 56.26 718.6 55.48C716.98 50.92 711.16 53.98 709.54 56.8C702.94 68.38 715.54 81.58 719.5 69.76ZM712.84 84.16C713.74 84.28 715.84 84.4 716.5 83.68C717.04 83.08 716.86 82.36 716.2 81.94C715.84 81.7 715.48 81.7 715.06 81.76C709.54 82.36 705.22 79.18 701.8 75.28C700.96 74.32 699.4 74.74 699.58 76.06C700.06 79.96 709.48 83.68 712.84 84.16ZM718.24 81.1C717.04 83.44 721.66 83.38 720.4 81.04C719.92 80.2 718.66 80.26 718.24 81.1Z" fill="white"/>
</g>
</g>
<defs>
<filter id="filter0_d_3418_95" x="427.957" y="39.0996" width="315.582" height="74.1201" filterUnits="userSpaceOnUse" color-interpolation-filters="sRGB">
<feFlood flood-opacity="0" result="BackgroundImageFix"/>
<feColorMatrix in="SourceAlpha" type="matrix" values="0 0 0 0 0 0 0 0 0 0 0 0 0 0 0 0 0 0 127 0" result="hardAlpha"/>
<feOffset dy="10"/>
<feGaussianBlur stdDeviation="5"/>
<feComposite in2="hardAlpha" operator="out"/>
<feColorMatrix type="matrix" values="0 0 0 0 0.912457 0 0 0 0 0.730472 0 0 0 0 0.00253445 0 0 0 0.25 0"/>
<feBlend mode="normal" in2="BackgroundImageFix" result="effect1_dropShadow_3418_95"/>
<feBlend mode="normal" in="SourceGraphic" in2="effect1_dropShadow_3418_95" result="shape"/>
</filter>
<clipPath id="clip0_3418_95">
<rect width="1170" height="129" fill="white"/>
</clipPath>
</defs>
</svg>
