<svg width="270" height="76" viewBox="0 0 270 76" fill="none" xmlns="http://www.w3.org/2000/svg">
<rect x="1" y="1" width="268" height="74" rx="35" fill="white" stroke="url(#paint0_linear_2126_671)" stroke-width="2"/>
<path d="M68.8734 34.26C68.9401 32.9267 69.4068 31.9 70.2734 31.18C71.1534 30.4467 72.3068 30.08 73.7334 30.08C74.7068 30.08 75.5401 30.2533 76.2334 30.6C76.9268 30.9333 77.4468 31.3933 77.7934 31.98C78.1534 32.5533 78.3334 33.2067 78.3334 33.94C78.3334 34.78 78.1134 35.4933 77.6734 36.08C77.2468 36.6533 76.7334 37.04 76.1334 37.24V37.32C76.9068 37.56 77.5068 37.9867 77.9334 38.6C78.3734 39.2133 78.5934 40 78.5934 40.96C78.5934 41.76 78.4068 42.4733 78.0334 43.1C77.6734 43.7267 77.1334 44.22 76.4134 44.58C75.7068 44.9267 74.8534 45.1 73.8534 45.1C72.3468 45.1 71.1201 44.72 70.1734 43.96C69.2268 43.2 68.7268 42.08 68.6734 40.6H71.3934C71.4201 41.2533 71.6401 41.78 72.0534 42.18C72.4801 42.5667 73.0601 42.76 73.7934 42.76C74.4734 42.76 74.9934 42.5733 75.3534 42.2C75.7268 41.8133 75.9134 41.32 75.9134 40.72C75.9134 39.92 75.6601 39.3467 75.1534 39C74.6468 38.6533 73.8601 38.48 72.7934 38.48H72.2134V36.18H72.7934C74.6868 36.18 75.6334 35.5467 75.6334 34.28C75.6334 33.7067 75.4601 33.26 75.1134 32.94C74.7801 32.62 74.2934 32.46 73.6534 32.46C73.0268 32.46 72.5401 32.6333 72.1934 32.98C71.8601 33.3133 71.6668 33.74 71.6134 34.26H68.8734ZM92.3717 45.14C91.0651 45.14 89.8651 44.8333 88.7717 44.22C87.6784 43.6067 86.8117 42.76 86.1717 41.68C85.5317 40.5867 85.2117 39.3533 85.2117 37.98C85.2117 36.62 85.5317 35.4 86.1717 34.32C86.8117 33.2267 87.6784 32.3733 88.7717 31.76C89.8651 31.1467 91.0651 30.84 92.3717 30.84C93.6917 30.84 94.8917 31.1467 95.9717 31.76C97.0651 32.3733 97.9251 33.2267 98.5517 34.32C99.1917 35.4 99.5117 36.62 99.5117 37.98C99.5117 39.3533 99.1917 40.5867 98.5517 41.68C97.9251 42.76 97.0651 43.6067 95.9717 44.22C94.8784 44.8333 93.6784 45.14 92.3717 45.14ZM92.3717 42.64C93.2117 42.64 93.9517 42.4533 94.5917 42.08C95.2317 41.6933 95.7317 41.1467 96.0917 40.44C96.4517 39.7333 96.6317 38.9133 96.6317 37.98C96.6317 37.0467 96.4517 36.2333 96.0917 35.54C95.7317 34.8333 95.2317 34.2933 94.5917 33.92C93.9517 33.5467 93.2117 33.36 92.3717 33.36C91.5317 33.36 90.7851 33.5467 90.1317 33.92C89.4917 34.2933 88.9917 34.8333 88.6317 35.54C88.2717 36.2333 88.0917 37.0467 88.0917 37.98C88.0917 38.9133 88.2717 39.7333 88.6317 40.44C88.9917 41.1467 89.4917 41.6933 90.1317 42.08C90.7851 42.4533 91.5317 42.64 92.3717 42.64ZM108.795 45L105.715 39.56H104.395V45H101.595V31.04H106.835C107.915 31.04 108.835 31.2333 109.595 31.62C110.355 31.9933 110.922 32.5067 111.295 33.16C111.682 33.8 111.875 34.52 111.875 35.32C111.875 36.24 111.608 37.0733 111.075 37.82C110.542 38.5533 109.748 39.06 108.695 39.34L112.035 45H108.795ZM104.395 37.46H106.735C107.495 37.46 108.062 37.28 108.435 36.92C108.808 36.5467 108.995 36.0333 108.995 35.38C108.995 34.74 108.808 34.2467 108.435 33.9C108.062 33.54 107.495 33.36 106.735 33.36H104.395V37.46ZM122.967 42.34H117.407L116.487 45H113.547L118.567 31.02H121.827L126.847 45H123.887L122.967 42.34ZM122.207 40.1L120.187 34.26L118.167 40.1H122.207ZM140.664 45H137.864L131.524 35.42V45H128.724V31.02H131.524L137.864 40.62V31.02H140.664V45ZM153.151 35.24C152.831 34.6533 152.391 34.2067 151.831 33.9C151.271 33.5933 150.617 33.44 149.871 33.44C149.044 33.44 148.311 33.6267 147.671 34C147.031 34.3733 146.531 34.9067 146.171 35.6C145.811 36.2933 145.631 37.0933 145.631 38C145.631 38.9333 145.811 39.7467 146.171 40.44C146.544 41.1333 147.057 41.6667 147.711 42.04C148.364 42.4133 149.124 42.6 149.991 42.6C151.057 42.6 151.931 42.32 152.611 41.76C153.291 41.1867 153.737 40.3933 153.951 39.38H149.151V37.24H156.711V39.68C156.524 40.6533 156.124 41.5533 155.511 42.38C154.897 43.2067 154.104 43.8733 153.131 44.38C152.171 44.8733 151.091 45.12 149.891 45.12C148.544 45.12 147.324 44.82 146.231 44.22C145.151 43.6067 144.297 42.76 143.671 41.68C143.057 40.6 142.751 39.3733 142.751 38C142.751 36.6267 143.057 35.4 143.671 34.32C144.297 33.2267 145.151 32.38 146.231 31.78C147.324 31.1667 148.537 30.86 149.871 30.86C151.444 30.86 152.811 31.2467 153.971 32.02C155.131 32.78 155.931 33.8533 156.371 35.24H153.151ZM166.282 26.06L160.882 48.62H158.142L163.542 26.06H166.282ZM178.009 31.04V33.3H174.289V45H171.489V33.3H167.769V31.04H178.009ZM182.852 31.04V45H180.052V31.04H182.852ZM200.838 31.04V45H198.038V35.92L194.298 45H192.178L188.418 35.92V45H185.618V31.04H188.798L193.238 41.42L197.678 31.04H200.838Z" fill="black"/>
<defs>
<linearGradient id="paint0_linear_2126_671" x1="135" y1="0" x2="135" y2="76" gradientUnits="userSpaceOnUse">
<stop offset="0.095" stop-color="#D7B575"/>
<stop offset="0.32" stop-color="#BED775"/>
<stop offset="0.99" stop-color="#4E3D71"/>
</linearGradient>
</defs>
</svg>
