<svg width="270" height="76" viewBox="0 0 270 76" fill="none" xmlns="http://www.w3.org/2000/svg">
<rect x="1" y="1" width="268" height="73" rx="35" fill="white" stroke="url(#paint0_linear_2126_150)" stroke-width="2"/>
<path d="M50.0109 32.04V34.3H46.2909V46H43.4909V34.3H39.7709V32.04H50.0109ZM54.8538 32.04V46H52.0538V32.04H54.8538ZM69.5602 46H66.7602L60.4202 36.42V46H57.6202V32.02H60.4202L66.7602 41.62V32.02H69.5602V46ZM82.0473 36.24C81.7273 35.6533 81.2873 35.2067 80.7273 34.9C80.1673 34.5933 79.5139 34.44 78.7673 34.44C77.9406 34.44 77.2073 34.6267 76.5673 35C75.9273 35.3733 75.4273 35.9067 75.0673 36.6C74.7073 37.2933 74.5273 38.0933 74.5273 39C74.5273 39.9333 74.7073 40.7467 75.0673 41.44C75.4406 42.1333 75.9539 42.6667 76.6073 43.04C77.2606 43.4133 78.0206 43.6 78.8873 43.6C79.9539 43.6 80.8273 43.32 81.5073 42.76C82.1873 42.1867 82.6339 41.3933 82.8473 40.38H78.0473V38.24H85.6073V40.68C85.4206 41.6533 85.0206 42.5533 84.4073 43.38C83.7939 44.2067 83.0006 44.8733 82.0273 45.38C81.0673 45.8733 79.9873 46.12 78.7873 46.12C77.4406 46.12 76.2206 45.82 75.1273 45.22C74.0473 44.6067 73.1939 43.76 72.5673 42.68C71.9539 41.6 71.6473 40.3733 71.6473 39C71.6473 37.6267 71.9539 36.4 72.5673 35.32C73.1939 34.2267 74.0473 33.38 75.1273 32.78C76.2206 32.1667 77.4339 31.86 78.7673 31.86C80.3406 31.86 81.7073 32.2467 82.8673 33.02C84.0273 33.78 84.8273 34.8533 85.2673 36.24H82.0473ZM95.5588 46L90.4788 39.78V46H87.6788V32.04H90.4788V38.3L95.5588 32.04H98.9388L93.1788 38.96L99.0988 46H95.5588ZM109.501 43.34H103.941L103.021 46H100.081L105.101 32.02H108.361L113.381 46H110.421L109.501 43.34ZM108.741 41.1L106.721 35.26L104.701 41.1H108.741ZM124.757 32.04V34.3H121.037V46H118.237V34.3H114.517V32.04H124.757ZM143.506 46H140.706L134.366 36.42V46H131.566V32.02H134.366L140.706 41.62V32.02H143.506V46ZM154.833 43.34H149.273L148.353 46H145.413L150.433 32.02H153.693L158.713 46H155.753L154.833 43.34ZM154.073 41.1L152.053 35.26L150.033 41.1H154.073ZM165.409 46.14C164.436 46.14 163.556 45.9733 162.769 45.64C161.996 45.3067 161.382 44.8267 160.929 44.2C160.476 43.5733 160.242 42.8333 160.229 41.98H163.229C163.269 42.5533 163.469 43.0067 163.829 43.34C164.202 43.6733 164.709 43.84 165.349 43.84C166.002 43.84 166.516 43.6867 166.889 43.38C167.262 43.06 167.449 42.6467 167.449 42.14C167.449 41.7267 167.322 41.3867 167.069 41.12C166.816 40.8533 166.496 40.6467 166.109 40.5C165.736 40.34 165.216 40.1667 164.549 39.98C163.642 39.7133 162.902 39.4533 162.329 39.2C161.769 38.9333 161.282 38.54 160.869 38.02C160.469 37.4867 160.269 36.78 160.269 35.9C160.269 35.0733 160.476 34.3533 160.889 33.74C161.302 33.1267 161.882 32.66 162.629 32.34C163.376 32.0067 164.229 31.84 165.189 31.84C166.629 31.84 167.796 32.1933 168.689 32.9C169.596 33.5933 170.096 34.5667 170.189 35.82H167.109C167.082 35.34 166.876 34.9467 166.489 34.64C166.116 34.32 165.616 34.16 164.989 34.16C164.442 34.16 164.002 34.3 163.669 34.58C163.349 34.86 163.189 35.2667 163.189 35.8C163.189 36.1733 163.309 36.4867 163.549 36.74C163.802 36.98 164.109 37.18 164.469 37.34C164.842 37.4867 165.362 37.66 166.029 37.86C166.936 38.1267 167.676 38.3933 168.249 38.66C168.822 38.9267 169.316 39.3267 169.729 39.86C170.142 40.3933 170.349 41.0933 170.349 41.96C170.349 42.7067 170.156 43.4 169.769 44.04C169.382 44.68 168.816 45.1933 168.069 45.58C167.322 45.9533 166.436 46.14 165.409 46.14ZM175.576 32.04V46H172.776V32.04H175.576ZM184.823 46.14C183.516 46.14 182.316 45.8333 181.223 45.22C180.13 44.6067 179.263 43.76 178.623 42.68C177.983 41.5867 177.663 40.3533 177.663 38.98C177.663 37.62 177.983 36.4 178.623 35.32C179.263 34.2267 180.13 33.3733 181.223 32.76C182.316 32.1467 183.516 31.84 184.823 31.84C186.143 31.84 187.343 32.1467 188.423 32.76C189.516 33.3733 190.376 34.2267 191.003 35.32C191.643 36.4 191.963 37.62 191.963 38.98C191.963 40.3533 191.643 41.5867 191.003 42.68C190.376 43.76 189.516 44.6067 188.423 45.22C187.33 45.8333 186.13 46.14 184.823 46.14ZM184.823 43.64C185.663 43.64 186.403 43.4533 187.043 43.08C187.683 42.6933 188.183 42.1467 188.543 41.44C188.903 40.7333 189.083 39.9133 189.083 38.98C189.083 38.0467 188.903 37.2333 188.543 36.54C188.183 35.8333 187.683 35.2933 187.043 34.92C186.403 34.5467 185.663 34.36 184.823 34.36C183.983 34.36 183.236 34.5467 182.583 34.92C181.943 35.2933 181.443 35.8333 181.083 36.54C180.723 37.2333 180.543 38.0467 180.543 38.98C180.543 39.9133 180.723 40.7333 181.083 41.44C181.443 42.1467 181.943 42.6933 182.583 43.08C183.236 43.4533 183.983 43.64 184.823 43.64ZM205.986 46H203.186L196.846 36.42V46H194.046V32.02H196.846L203.186 41.62V32.02H205.986V46ZM217.313 43.34H211.753L210.833 46H207.893L212.913 32.02H216.173L221.193 46H218.233L217.313 43.34ZM216.553 41.1L214.533 35.26L212.513 41.1H216.553ZM225.869 43.78H230.469V46H223.069V32.04H225.869V43.78Z" fill="black"/>
<defs>
<linearGradient id="paint0_linear_2126_150" x1="135" y1="0" x2="135" y2="75" gradientUnits="userSpaceOnUse">
<stop offset="0.095" stop-color="#D7B575"/>
<stop offset="0.32" stop-color="#BED775"/>
<stop offset="0.99" stop-color="#4E3D71"/>
</linearGradient>
</defs>
</svg>
