<svg width="270" height="76" viewBox="0 0 270 76" fill="none" xmlns="http://www.w3.org/2000/svg">
<rect x="1" y="1" width="268" height="74" rx="35" fill="white" stroke="url(#paint0_linear_2126_1341)" stroke-width="2"/>
<path d="M57.5162 41.84C58.7962 40.7733 59.8162 39.8867 60.5762 39.18C61.3362 38.46 61.9695 37.7133 62.4762 36.94C62.9828 36.1667 63.2362 35.4067 63.2362 34.66C63.2362 33.98 63.0762 33.4467 62.7562 33.06C62.4362 32.6733 61.9428 32.48 61.2762 32.48C60.6095 32.48 60.0962 32.7067 59.7362 33.16C59.3762 33.6 59.1895 34.2067 59.1762 34.98H56.4562C56.5095 33.38 56.9828 32.1667 57.8762 31.34C58.7828 30.5133 59.9295 30.1 61.3162 30.1C62.8362 30.1 64.0028 30.5067 64.8162 31.32C65.6295 32.12 66.0362 33.18 66.0362 34.5C66.0362 35.54 65.7562 36.5333 65.1962 37.48C64.6362 38.4267 63.9962 39.2533 63.2762 39.96C62.5562 40.6533 61.6162 41.4933 60.4562 42.48H66.3562V44.8H56.4762V42.72L57.5162 41.84ZM76.9605 36.68V39.04H68.4805V36.68H76.9605ZM79.6607 42.16V39.96L86.2007 30.6H89.4607V39.72H91.2207V42.16H89.4607V45H86.6607V42.16H79.6607ZM86.8407 33.6L82.7407 39.72H86.8407V33.6ZM104.569 45.14C103.262 45.14 102.062 44.8333 100.969 44.22C99.8757 43.6067 99.009 42.76 98.369 41.68C97.729 40.5867 97.409 39.3533 97.409 37.98C97.409 36.62 97.729 35.4 98.369 34.32C99.009 33.2267 99.8757 32.3733 100.969 31.76C102.062 31.1467 103.262 30.84 104.569 30.84C105.889 30.84 107.089 31.1467 108.169 31.76C109.262 32.3733 110.122 33.2267 110.749 34.32C111.389 35.4 111.709 36.62 111.709 37.98C111.709 39.3533 111.389 40.5867 110.749 41.68C110.122 42.76 109.262 43.6067 108.169 44.22C107.076 44.8333 105.876 45.14 104.569 45.14ZM104.569 42.64C105.409 42.64 106.149 42.4533 106.789 42.08C107.429 41.6933 107.929 41.1467 108.289 40.44C108.649 39.7333 108.829 38.9133 108.829 37.98C108.829 37.0467 108.649 36.2333 108.289 35.54C107.929 34.8333 107.429 34.2933 106.789 33.92C106.149 33.5467 105.409 33.36 104.569 33.36C103.729 33.36 102.982 33.5467 102.329 33.92C101.689 34.2933 101.189 34.8333 100.829 35.54C100.469 36.2333 100.289 37.0467 100.289 37.98C100.289 38.9133 100.469 39.7333 100.829 40.44C101.189 41.1467 101.689 41.6933 102.329 42.08C102.982 42.4533 103.729 42.64 104.569 42.64ZM120.992 45L117.912 39.56H116.592V45H113.792V31.04H119.032C120.112 31.04 121.032 31.2333 121.792 31.62C122.552 31.9933 123.119 32.5067 123.492 33.16C123.879 33.8 124.072 34.52 124.072 35.32C124.072 36.24 123.805 37.0733 123.272 37.82C122.739 38.5533 121.945 39.06 120.892 39.34L124.232 45H120.992ZM116.592 37.46H118.932C119.692 37.46 120.259 37.28 120.632 36.92C121.005 36.5467 121.192 36.0333 121.192 35.38C121.192 34.74 121.005 34.2467 120.632 33.9C120.259 33.54 119.692 33.36 118.932 33.36H116.592V37.46ZM135.165 42.34H129.605L128.685 45H125.745L130.765 31.02H134.025L139.045 45H136.085L135.165 42.34ZM134.405 40.1L132.385 34.26L130.365 40.1H134.405ZM152.861 45H150.061L143.721 35.42V45H140.921V31.02H143.721L150.061 40.62V31.02H152.861V45ZM165.348 35.24C165.028 34.6533 164.588 34.2067 164.028 33.9C163.468 33.5933 162.815 33.44 162.068 33.44C161.241 33.44 160.508 33.6267 159.868 34C159.228 34.3733 158.728 34.9067 158.368 35.6C158.008 36.2933 157.828 37.0933 157.828 38C157.828 38.9333 158.008 39.7467 158.368 40.44C158.741 41.1333 159.255 41.6667 159.908 42.04C160.561 42.4133 161.321 42.6 162.188 42.6C163.255 42.6 164.128 42.32 164.808 41.76C165.488 41.1867 165.935 40.3933 166.148 39.38H161.348V37.24H168.908V39.68C168.721 40.6533 168.321 41.5533 167.708 42.38C167.095 43.2067 166.301 43.8733 165.328 44.38C164.368 44.8733 163.288 45.12 162.088 45.12C160.741 45.12 159.521 44.82 158.428 44.22C157.348 43.6067 156.495 42.76 155.868 41.68C155.255 40.6 154.948 39.3733 154.948 38C154.948 36.6267 155.255 35.4 155.868 34.32C156.495 33.2267 157.348 32.38 158.428 31.78C159.521 31.1667 160.735 30.86 162.068 30.86C163.641 30.86 165.008 31.2467 166.168 32.02C167.328 32.78 168.128 33.8533 168.568 35.24H165.348ZM178.48 26.06L173.08 48.62H170.34L175.74 26.06H178.48ZM190.206 31.04V33.3H186.486V45H183.686V33.3H179.966V31.04H190.206ZM195.049 31.04V45H192.249V31.04H195.049ZM213.036 31.04V45H210.236V35.92L206.496 45H204.376L200.616 35.92V45H197.816V31.04H200.996L205.436 41.42L209.876 31.04H213.036Z" fill="black"/>
<defs>
<linearGradient id="paint0_linear_2126_1341" x1="135" y1="0" x2="135" y2="76" gradientUnits="userSpaceOnUse">
<stop offset="0.095" stop-color="#D7B575"/>
<stop offset="0.32" stop-color="#BED775"/>
<stop offset="0.99" stop-color="#4E3D71"/>
</linearGradient>
</defs>
</svg>
