<svg width="1440" height="1563" viewBox="0 0 1440 1563" fill="none" xmlns="http://www.w3.org/2000/svg">
<path d="M0 68.0672C0 68.0672 35.5 199.301 109 286.427C182.5 373.553 272.801 280.437 307.5 386.621C342.199 492.806 494.5 359.612 494.5 492.806C494.5 626 620 479.5 703.5 557.5C787 635.5 883.5 570.655 939 509.5C939 509.5 1011 360.484 1155.5 386.621C1300 412.759 1143 235.24 1270.5 190.588C1398 145.936 1440 0 1440 0V1565C1440 1565 1440 1305.26 1361 1311.25C1282 1317.24 1268.72 1229.29 1175 1233.92C1081.28 1238.56 1057.79 1220.96 1004.5 1072.19C951.207 923.427 835.5 862.547 738 950.217C640.5 1037.89 638.5 1044.97 518.5 1044.97C398.5 1044.97 374.5 1233.92 374.5 1233.92C374.5 1233.92 284.844 1405.18 136 1343.37C52.802 1308.83 0 1542.67 0 1542.67V68.0672Z" fill="#000E4B"/>
</svg>
